%TF.GenerationSoftware,KiCad,Pcbnew,5.1.4*%
%TF.CreationDate,2019-11-11T17:18:17+01:00*%
%TF.ProjectId,shunt-board,7368756e-742d-4626-9f61-72642e6b6963,rev?*%
%TF.SameCoordinates,Original*%
%TF.FileFunction,Paste,Top*%
%TF.FilePolarity,Positive*%
%FSLAX46Y46*%
G04 Gerber Fmt 4.6, Leading zero omitted, Abs format (unit mm)*
G04 Created by KiCad (PCBNEW 5.1.4) date 2019-11-11 17:18:17*
%MOMM*%
%LPD*%
G04 APERTURE LIST*
%ADD10C,0.100000*%
%ADD11C,1.150000*%
%ADD12C,1.425000*%
%ADD13C,1.525000*%
%ADD14R,1.450000X0.850000*%
%ADD15R,1.050000X0.850000*%
%ADD16R,3.750000X4.700000*%
%ADD17C,0.975000*%
%ADD18R,1.500000X0.450000*%
%ADD19R,0.250000X1.100000*%
G04 APERTURE END LIST*
D10*
G36*
X228312000Y-74782500D02*
G01*
X225332000Y-74782500D01*
X225332000Y-72410500D01*
X228312000Y-72410500D01*
X228312000Y-74782500D01*
G37*
G36*
X228312000Y-63162000D02*
G01*
X225332000Y-63162000D01*
X225332000Y-60790000D01*
X228312000Y-60790000D01*
X228312000Y-63162000D01*
G37*
G36*
X210028500Y-77427000D02*
G01*
X213008500Y-77427000D01*
X213008500Y-79799000D01*
X210028500Y-79799000D01*
X210028500Y-77427000D01*
G37*
G36*
X210028500Y-64092000D02*
G01*
X213008500Y-64092000D01*
X213008500Y-66464000D01*
X210028500Y-66464000D01*
X210028500Y-64092000D01*
G37*
G36*
X177895505Y-99580404D02*
G01*
X177919773Y-99584004D01*
X177943572Y-99589965D01*
X177966671Y-99598230D01*
X177988850Y-99608720D01*
X178009893Y-99621332D01*
X178029599Y-99635947D01*
X178047777Y-99652423D01*
X178064253Y-99670601D01*
X178078868Y-99690307D01*
X178091480Y-99711350D01*
X178101970Y-99733529D01*
X178110235Y-99756628D01*
X178116196Y-99780427D01*
X178119796Y-99804695D01*
X178121000Y-99829199D01*
X178121000Y-100729201D01*
X178119796Y-100753705D01*
X178116196Y-100777973D01*
X178110235Y-100801772D01*
X178101970Y-100824871D01*
X178091480Y-100847050D01*
X178078868Y-100868093D01*
X178064253Y-100887799D01*
X178047777Y-100905977D01*
X178029599Y-100922453D01*
X178009893Y-100937068D01*
X177988850Y-100949680D01*
X177966671Y-100960170D01*
X177943572Y-100968435D01*
X177919773Y-100974396D01*
X177895505Y-100977996D01*
X177871001Y-100979200D01*
X177220999Y-100979200D01*
X177196495Y-100977996D01*
X177172227Y-100974396D01*
X177148428Y-100968435D01*
X177125329Y-100960170D01*
X177103150Y-100949680D01*
X177082107Y-100937068D01*
X177062401Y-100922453D01*
X177044223Y-100905977D01*
X177027747Y-100887799D01*
X177013132Y-100868093D01*
X177000520Y-100847050D01*
X176990030Y-100824871D01*
X176981765Y-100801772D01*
X176975804Y-100777973D01*
X176972204Y-100753705D01*
X176971000Y-100729201D01*
X176971000Y-99829199D01*
X176972204Y-99804695D01*
X176975804Y-99780427D01*
X176981765Y-99756628D01*
X176990030Y-99733529D01*
X177000520Y-99711350D01*
X177013132Y-99690307D01*
X177027747Y-99670601D01*
X177044223Y-99652423D01*
X177062401Y-99635947D01*
X177082107Y-99621332D01*
X177103150Y-99608720D01*
X177125329Y-99598230D01*
X177148428Y-99589965D01*
X177172227Y-99584004D01*
X177196495Y-99580404D01*
X177220999Y-99579200D01*
X177871001Y-99579200D01*
X177895505Y-99580404D01*
X177895505Y-99580404D01*
G37*
D11*
X177546000Y-100279200D03*
D10*
G36*
X175845505Y-99580404D02*
G01*
X175869773Y-99584004D01*
X175893572Y-99589965D01*
X175916671Y-99598230D01*
X175938850Y-99608720D01*
X175959893Y-99621332D01*
X175979599Y-99635947D01*
X175997777Y-99652423D01*
X176014253Y-99670601D01*
X176028868Y-99690307D01*
X176041480Y-99711350D01*
X176051970Y-99733529D01*
X176060235Y-99756628D01*
X176066196Y-99780427D01*
X176069796Y-99804695D01*
X176071000Y-99829199D01*
X176071000Y-100729201D01*
X176069796Y-100753705D01*
X176066196Y-100777973D01*
X176060235Y-100801772D01*
X176051970Y-100824871D01*
X176041480Y-100847050D01*
X176028868Y-100868093D01*
X176014253Y-100887799D01*
X175997777Y-100905977D01*
X175979599Y-100922453D01*
X175959893Y-100937068D01*
X175938850Y-100949680D01*
X175916671Y-100960170D01*
X175893572Y-100968435D01*
X175869773Y-100974396D01*
X175845505Y-100977996D01*
X175821001Y-100979200D01*
X175170999Y-100979200D01*
X175146495Y-100977996D01*
X175122227Y-100974396D01*
X175098428Y-100968435D01*
X175075329Y-100960170D01*
X175053150Y-100949680D01*
X175032107Y-100937068D01*
X175012401Y-100922453D01*
X174994223Y-100905977D01*
X174977747Y-100887799D01*
X174963132Y-100868093D01*
X174950520Y-100847050D01*
X174940030Y-100824871D01*
X174931765Y-100801772D01*
X174925804Y-100777973D01*
X174922204Y-100753705D01*
X174921000Y-100729201D01*
X174921000Y-99829199D01*
X174922204Y-99804695D01*
X174925804Y-99780427D01*
X174931765Y-99756628D01*
X174940030Y-99733529D01*
X174950520Y-99711350D01*
X174963132Y-99690307D01*
X174977747Y-99670601D01*
X174994223Y-99652423D01*
X175012401Y-99635947D01*
X175032107Y-99621332D01*
X175053150Y-99608720D01*
X175075329Y-99598230D01*
X175098428Y-99589965D01*
X175122227Y-99584004D01*
X175146495Y-99580404D01*
X175170999Y-99579200D01*
X175821001Y-99579200D01*
X175845505Y-99580404D01*
X175845505Y-99580404D01*
G37*
D11*
X175496000Y-100279200D03*
D10*
G36*
X168114505Y-102813204D02*
G01*
X168138773Y-102816804D01*
X168162572Y-102822765D01*
X168185671Y-102831030D01*
X168207850Y-102841520D01*
X168228893Y-102854132D01*
X168248599Y-102868747D01*
X168266777Y-102885223D01*
X168283253Y-102903401D01*
X168297868Y-102923107D01*
X168310480Y-102944150D01*
X168320970Y-102966329D01*
X168329235Y-102989428D01*
X168335196Y-103013227D01*
X168338796Y-103037495D01*
X168340000Y-103061999D01*
X168340000Y-103712001D01*
X168338796Y-103736505D01*
X168335196Y-103760773D01*
X168329235Y-103784572D01*
X168320970Y-103807671D01*
X168310480Y-103829850D01*
X168297868Y-103850893D01*
X168283253Y-103870599D01*
X168266777Y-103888777D01*
X168248599Y-103905253D01*
X168228893Y-103919868D01*
X168207850Y-103932480D01*
X168185671Y-103942970D01*
X168162572Y-103951235D01*
X168138773Y-103957196D01*
X168114505Y-103960796D01*
X168090001Y-103962000D01*
X167189999Y-103962000D01*
X167165495Y-103960796D01*
X167141227Y-103957196D01*
X167117428Y-103951235D01*
X167094329Y-103942970D01*
X167072150Y-103932480D01*
X167051107Y-103919868D01*
X167031401Y-103905253D01*
X167013223Y-103888777D01*
X166996747Y-103870599D01*
X166982132Y-103850893D01*
X166969520Y-103829850D01*
X166959030Y-103807671D01*
X166950765Y-103784572D01*
X166944804Y-103760773D01*
X166941204Y-103736505D01*
X166940000Y-103712001D01*
X166940000Y-103061999D01*
X166941204Y-103037495D01*
X166944804Y-103013227D01*
X166950765Y-102989428D01*
X166959030Y-102966329D01*
X166969520Y-102944150D01*
X166982132Y-102923107D01*
X166996747Y-102903401D01*
X167013223Y-102885223D01*
X167031401Y-102868747D01*
X167051107Y-102854132D01*
X167072150Y-102841520D01*
X167094329Y-102831030D01*
X167117428Y-102822765D01*
X167141227Y-102816804D01*
X167165495Y-102813204D01*
X167189999Y-102812000D01*
X168090001Y-102812000D01*
X168114505Y-102813204D01*
X168114505Y-102813204D01*
G37*
D11*
X167640000Y-103387000D03*
D10*
G36*
X168114505Y-100763204D02*
G01*
X168138773Y-100766804D01*
X168162572Y-100772765D01*
X168185671Y-100781030D01*
X168207850Y-100791520D01*
X168228893Y-100804132D01*
X168248599Y-100818747D01*
X168266777Y-100835223D01*
X168283253Y-100853401D01*
X168297868Y-100873107D01*
X168310480Y-100894150D01*
X168320970Y-100916329D01*
X168329235Y-100939428D01*
X168335196Y-100963227D01*
X168338796Y-100987495D01*
X168340000Y-101011999D01*
X168340000Y-101662001D01*
X168338796Y-101686505D01*
X168335196Y-101710773D01*
X168329235Y-101734572D01*
X168320970Y-101757671D01*
X168310480Y-101779850D01*
X168297868Y-101800893D01*
X168283253Y-101820599D01*
X168266777Y-101838777D01*
X168248599Y-101855253D01*
X168228893Y-101869868D01*
X168207850Y-101882480D01*
X168185671Y-101892970D01*
X168162572Y-101901235D01*
X168138773Y-101907196D01*
X168114505Y-101910796D01*
X168090001Y-101912000D01*
X167189999Y-101912000D01*
X167165495Y-101910796D01*
X167141227Y-101907196D01*
X167117428Y-101901235D01*
X167094329Y-101892970D01*
X167072150Y-101882480D01*
X167051107Y-101869868D01*
X167031401Y-101855253D01*
X167013223Y-101838777D01*
X166996747Y-101820599D01*
X166982132Y-101800893D01*
X166969520Y-101779850D01*
X166959030Y-101757671D01*
X166950765Y-101734572D01*
X166944804Y-101710773D01*
X166941204Y-101686505D01*
X166940000Y-101662001D01*
X166940000Y-101011999D01*
X166941204Y-100987495D01*
X166944804Y-100963227D01*
X166950765Y-100939428D01*
X166959030Y-100916329D01*
X166969520Y-100894150D01*
X166982132Y-100873107D01*
X166996747Y-100853401D01*
X167013223Y-100835223D01*
X167031401Y-100818747D01*
X167051107Y-100804132D01*
X167072150Y-100791520D01*
X167094329Y-100781030D01*
X167117428Y-100772765D01*
X167141227Y-100766804D01*
X167165495Y-100763204D01*
X167189999Y-100762000D01*
X168090001Y-100762000D01*
X168114505Y-100763204D01*
X168114505Y-100763204D01*
G37*
D11*
X167640000Y-101337000D03*
D10*
G36*
X168051005Y-96000704D02*
G01*
X168075273Y-96004304D01*
X168099072Y-96010265D01*
X168122171Y-96018530D01*
X168144350Y-96029020D01*
X168165393Y-96041632D01*
X168185099Y-96056247D01*
X168203277Y-96072723D01*
X168219753Y-96090901D01*
X168234368Y-96110607D01*
X168246980Y-96131650D01*
X168257470Y-96153829D01*
X168265735Y-96176928D01*
X168271696Y-96200727D01*
X168275296Y-96224995D01*
X168276500Y-96249499D01*
X168276500Y-96899501D01*
X168275296Y-96924005D01*
X168271696Y-96948273D01*
X168265735Y-96972072D01*
X168257470Y-96995171D01*
X168246980Y-97017350D01*
X168234368Y-97038393D01*
X168219753Y-97058099D01*
X168203277Y-97076277D01*
X168185099Y-97092753D01*
X168165393Y-97107368D01*
X168144350Y-97119980D01*
X168122171Y-97130470D01*
X168099072Y-97138735D01*
X168075273Y-97144696D01*
X168051005Y-97148296D01*
X168026501Y-97149500D01*
X167126499Y-97149500D01*
X167101995Y-97148296D01*
X167077727Y-97144696D01*
X167053928Y-97138735D01*
X167030829Y-97130470D01*
X167008650Y-97119980D01*
X166987607Y-97107368D01*
X166967901Y-97092753D01*
X166949723Y-97076277D01*
X166933247Y-97058099D01*
X166918632Y-97038393D01*
X166906020Y-97017350D01*
X166895530Y-96995171D01*
X166887265Y-96972072D01*
X166881304Y-96948273D01*
X166877704Y-96924005D01*
X166876500Y-96899501D01*
X166876500Y-96249499D01*
X166877704Y-96224995D01*
X166881304Y-96200727D01*
X166887265Y-96176928D01*
X166895530Y-96153829D01*
X166906020Y-96131650D01*
X166918632Y-96110607D01*
X166933247Y-96090901D01*
X166949723Y-96072723D01*
X166967901Y-96056247D01*
X166987607Y-96041632D01*
X167008650Y-96029020D01*
X167030829Y-96018530D01*
X167053928Y-96010265D01*
X167077727Y-96004304D01*
X167101995Y-96000704D01*
X167126499Y-95999500D01*
X168026501Y-95999500D01*
X168051005Y-96000704D01*
X168051005Y-96000704D01*
G37*
D11*
X167576500Y-96574500D03*
D10*
G36*
X168051005Y-98050704D02*
G01*
X168075273Y-98054304D01*
X168099072Y-98060265D01*
X168122171Y-98068530D01*
X168144350Y-98079020D01*
X168165393Y-98091632D01*
X168185099Y-98106247D01*
X168203277Y-98122723D01*
X168219753Y-98140901D01*
X168234368Y-98160607D01*
X168246980Y-98181650D01*
X168257470Y-98203829D01*
X168265735Y-98226928D01*
X168271696Y-98250727D01*
X168275296Y-98274995D01*
X168276500Y-98299499D01*
X168276500Y-98949501D01*
X168275296Y-98974005D01*
X168271696Y-98998273D01*
X168265735Y-99022072D01*
X168257470Y-99045171D01*
X168246980Y-99067350D01*
X168234368Y-99088393D01*
X168219753Y-99108099D01*
X168203277Y-99126277D01*
X168185099Y-99142753D01*
X168165393Y-99157368D01*
X168144350Y-99169980D01*
X168122171Y-99180470D01*
X168099072Y-99188735D01*
X168075273Y-99194696D01*
X168051005Y-99198296D01*
X168026501Y-99199500D01*
X167126499Y-99199500D01*
X167101995Y-99198296D01*
X167077727Y-99194696D01*
X167053928Y-99188735D01*
X167030829Y-99180470D01*
X167008650Y-99169980D01*
X166987607Y-99157368D01*
X166967901Y-99142753D01*
X166949723Y-99126277D01*
X166933247Y-99108099D01*
X166918632Y-99088393D01*
X166906020Y-99067350D01*
X166895530Y-99045171D01*
X166887265Y-99022072D01*
X166881304Y-98998273D01*
X166877704Y-98974005D01*
X166876500Y-98949501D01*
X166876500Y-98299499D01*
X166877704Y-98274995D01*
X166881304Y-98250727D01*
X166887265Y-98226928D01*
X166895530Y-98203829D01*
X166906020Y-98181650D01*
X166918632Y-98160607D01*
X166933247Y-98140901D01*
X166949723Y-98122723D01*
X166967901Y-98106247D01*
X166987607Y-98091632D01*
X167008650Y-98079020D01*
X167030829Y-98068530D01*
X167053928Y-98060265D01*
X167077727Y-98054304D01*
X167101995Y-98050704D01*
X167126499Y-98049500D01*
X168026501Y-98049500D01*
X168051005Y-98050704D01*
X168051005Y-98050704D01*
G37*
D11*
X167576500Y-98624500D03*
D10*
G36*
X166130504Y-103455704D02*
G01*
X166154773Y-103459304D01*
X166178571Y-103465265D01*
X166201671Y-103473530D01*
X166223849Y-103484020D01*
X166244893Y-103496633D01*
X166264598Y-103511247D01*
X166282777Y-103527723D01*
X166299253Y-103545902D01*
X166313867Y-103565607D01*
X166326480Y-103586651D01*
X166336970Y-103608829D01*
X166345235Y-103631929D01*
X166351196Y-103655727D01*
X166354796Y-103679996D01*
X166356000Y-103704500D01*
X166356000Y-104629500D01*
X166354796Y-104654004D01*
X166351196Y-104678273D01*
X166345235Y-104702071D01*
X166336970Y-104725171D01*
X166326480Y-104747349D01*
X166313867Y-104768393D01*
X166299253Y-104788098D01*
X166282777Y-104806277D01*
X166264598Y-104822753D01*
X166244893Y-104837367D01*
X166223849Y-104849980D01*
X166201671Y-104860470D01*
X166178571Y-104868735D01*
X166154773Y-104874696D01*
X166130504Y-104878296D01*
X166106000Y-104879500D01*
X164856000Y-104879500D01*
X164831496Y-104878296D01*
X164807227Y-104874696D01*
X164783429Y-104868735D01*
X164760329Y-104860470D01*
X164738151Y-104849980D01*
X164717107Y-104837367D01*
X164697402Y-104822753D01*
X164679223Y-104806277D01*
X164662747Y-104788098D01*
X164648133Y-104768393D01*
X164635520Y-104747349D01*
X164625030Y-104725171D01*
X164616765Y-104702071D01*
X164610804Y-104678273D01*
X164607204Y-104654004D01*
X164606000Y-104629500D01*
X164606000Y-103704500D01*
X164607204Y-103679996D01*
X164610804Y-103655727D01*
X164616765Y-103631929D01*
X164625030Y-103608829D01*
X164635520Y-103586651D01*
X164648133Y-103565607D01*
X164662747Y-103545902D01*
X164679223Y-103527723D01*
X164697402Y-103511247D01*
X164717107Y-103496633D01*
X164738151Y-103484020D01*
X164760329Y-103473530D01*
X164783429Y-103465265D01*
X164807227Y-103459304D01*
X164831496Y-103455704D01*
X164856000Y-103454500D01*
X166106000Y-103454500D01*
X166130504Y-103455704D01*
X166130504Y-103455704D01*
G37*
D12*
X165481000Y-104167000D03*
D10*
G36*
X166130504Y-100480704D02*
G01*
X166154773Y-100484304D01*
X166178571Y-100490265D01*
X166201671Y-100498530D01*
X166223849Y-100509020D01*
X166244893Y-100521633D01*
X166264598Y-100536247D01*
X166282777Y-100552723D01*
X166299253Y-100570902D01*
X166313867Y-100590607D01*
X166326480Y-100611651D01*
X166336970Y-100633829D01*
X166345235Y-100656929D01*
X166351196Y-100680727D01*
X166354796Y-100704996D01*
X166356000Y-100729500D01*
X166356000Y-101654500D01*
X166354796Y-101679004D01*
X166351196Y-101703273D01*
X166345235Y-101727071D01*
X166336970Y-101750171D01*
X166326480Y-101772349D01*
X166313867Y-101793393D01*
X166299253Y-101813098D01*
X166282777Y-101831277D01*
X166264598Y-101847753D01*
X166244893Y-101862367D01*
X166223849Y-101874980D01*
X166201671Y-101885470D01*
X166178571Y-101893735D01*
X166154773Y-101899696D01*
X166130504Y-101903296D01*
X166106000Y-101904500D01*
X164856000Y-101904500D01*
X164831496Y-101903296D01*
X164807227Y-101899696D01*
X164783429Y-101893735D01*
X164760329Y-101885470D01*
X164738151Y-101874980D01*
X164717107Y-101862367D01*
X164697402Y-101847753D01*
X164679223Y-101831277D01*
X164662747Y-101813098D01*
X164648133Y-101793393D01*
X164635520Y-101772349D01*
X164625030Y-101750171D01*
X164616765Y-101727071D01*
X164610804Y-101703273D01*
X164607204Y-101679004D01*
X164606000Y-101654500D01*
X164606000Y-100729500D01*
X164607204Y-100704996D01*
X164610804Y-100680727D01*
X164616765Y-100656929D01*
X164625030Y-100633829D01*
X164635520Y-100611651D01*
X164648133Y-100590607D01*
X164662747Y-100570902D01*
X164679223Y-100552723D01*
X164697402Y-100536247D01*
X164717107Y-100521633D01*
X164738151Y-100509020D01*
X164760329Y-100498530D01*
X164783429Y-100490265D01*
X164807227Y-100484304D01*
X164831496Y-100480704D01*
X164856000Y-100479500D01*
X166106000Y-100479500D01*
X166130504Y-100480704D01*
X166130504Y-100480704D01*
G37*
D12*
X165481000Y-101192000D03*
D10*
G36*
X166130504Y-95527704D02*
G01*
X166154773Y-95531304D01*
X166178571Y-95537265D01*
X166201671Y-95545530D01*
X166223849Y-95556020D01*
X166244893Y-95568633D01*
X166264598Y-95583247D01*
X166282777Y-95599723D01*
X166299253Y-95617902D01*
X166313867Y-95637607D01*
X166326480Y-95658651D01*
X166336970Y-95680829D01*
X166345235Y-95703929D01*
X166351196Y-95727727D01*
X166354796Y-95751996D01*
X166356000Y-95776500D01*
X166356000Y-96701500D01*
X166354796Y-96726004D01*
X166351196Y-96750273D01*
X166345235Y-96774071D01*
X166336970Y-96797171D01*
X166326480Y-96819349D01*
X166313867Y-96840393D01*
X166299253Y-96860098D01*
X166282777Y-96878277D01*
X166264598Y-96894753D01*
X166244893Y-96909367D01*
X166223849Y-96921980D01*
X166201671Y-96932470D01*
X166178571Y-96940735D01*
X166154773Y-96946696D01*
X166130504Y-96950296D01*
X166106000Y-96951500D01*
X164856000Y-96951500D01*
X164831496Y-96950296D01*
X164807227Y-96946696D01*
X164783429Y-96940735D01*
X164760329Y-96932470D01*
X164738151Y-96921980D01*
X164717107Y-96909367D01*
X164697402Y-96894753D01*
X164679223Y-96878277D01*
X164662747Y-96860098D01*
X164648133Y-96840393D01*
X164635520Y-96819349D01*
X164625030Y-96797171D01*
X164616765Y-96774071D01*
X164610804Y-96750273D01*
X164607204Y-96726004D01*
X164606000Y-96701500D01*
X164606000Y-95776500D01*
X164607204Y-95751996D01*
X164610804Y-95727727D01*
X164616765Y-95703929D01*
X164625030Y-95680829D01*
X164635520Y-95658651D01*
X164648133Y-95637607D01*
X164662747Y-95617902D01*
X164679223Y-95599723D01*
X164697402Y-95583247D01*
X164717107Y-95568633D01*
X164738151Y-95556020D01*
X164760329Y-95545530D01*
X164783429Y-95537265D01*
X164807227Y-95531304D01*
X164831496Y-95527704D01*
X164856000Y-95526500D01*
X166106000Y-95526500D01*
X166130504Y-95527704D01*
X166130504Y-95527704D01*
G37*
D12*
X165481000Y-96239000D03*
D10*
G36*
X166130504Y-98502704D02*
G01*
X166154773Y-98506304D01*
X166178571Y-98512265D01*
X166201671Y-98520530D01*
X166223849Y-98531020D01*
X166244893Y-98543633D01*
X166264598Y-98558247D01*
X166282777Y-98574723D01*
X166299253Y-98592902D01*
X166313867Y-98612607D01*
X166326480Y-98633651D01*
X166336970Y-98655829D01*
X166345235Y-98678929D01*
X166351196Y-98702727D01*
X166354796Y-98726996D01*
X166356000Y-98751500D01*
X166356000Y-99676500D01*
X166354796Y-99701004D01*
X166351196Y-99725273D01*
X166345235Y-99749071D01*
X166336970Y-99772171D01*
X166326480Y-99794349D01*
X166313867Y-99815393D01*
X166299253Y-99835098D01*
X166282777Y-99853277D01*
X166264598Y-99869753D01*
X166244893Y-99884367D01*
X166223849Y-99896980D01*
X166201671Y-99907470D01*
X166178571Y-99915735D01*
X166154773Y-99921696D01*
X166130504Y-99925296D01*
X166106000Y-99926500D01*
X164856000Y-99926500D01*
X164831496Y-99925296D01*
X164807227Y-99921696D01*
X164783429Y-99915735D01*
X164760329Y-99907470D01*
X164738151Y-99896980D01*
X164717107Y-99884367D01*
X164697402Y-99869753D01*
X164679223Y-99853277D01*
X164662747Y-99835098D01*
X164648133Y-99815393D01*
X164635520Y-99794349D01*
X164625030Y-99772171D01*
X164616765Y-99749071D01*
X164610804Y-99725273D01*
X164607204Y-99701004D01*
X164606000Y-99676500D01*
X164606000Y-98751500D01*
X164607204Y-98726996D01*
X164610804Y-98702727D01*
X164616765Y-98678929D01*
X164625030Y-98655829D01*
X164635520Y-98633651D01*
X164648133Y-98612607D01*
X164662747Y-98592902D01*
X164679223Y-98574723D01*
X164697402Y-98558247D01*
X164717107Y-98543633D01*
X164738151Y-98531020D01*
X164760329Y-98520530D01*
X164783429Y-98512265D01*
X164807227Y-98506304D01*
X164831496Y-98502704D01*
X164856000Y-98501500D01*
X166106000Y-98501500D01*
X166130504Y-98502704D01*
X166130504Y-98502704D01*
G37*
D12*
X165481000Y-99214000D03*
D10*
G36*
X226468105Y-106573104D02*
G01*
X226492373Y-106576704D01*
X226516172Y-106582665D01*
X226539271Y-106590930D01*
X226561450Y-106601420D01*
X226582493Y-106614032D01*
X226602199Y-106628647D01*
X226620377Y-106645123D01*
X226636853Y-106663301D01*
X226651468Y-106683007D01*
X226664080Y-106704050D01*
X226674570Y-106726229D01*
X226682835Y-106749328D01*
X226688796Y-106773127D01*
X226692396Y-106797395D01*
X226693600Y-106821899D01*
X226693600Y-107846901D01*
X226692396Y-107871405D01*
X226688796Y-107895673D01*
X226682835Y-107919472D01*
X226674570Y-107942571D01*
X226664080Y-107964750D01*
X226651468Y-107985793D01*
X226636853Y-108005499D01*
X226620377Y-108023677D01*
X226602199Y-108040153D01*
X226582493Y-108054768D01*
X226561450Y-108067380D01*
X226539271Y-108077870D01*
X226516172Y-108086135D01*
X226492373Y-108092096D01*
X226468105Y-108095696D01*
X226443601Y-108096900D01*
X223593599Y-108096900D01*
X223569095Y-108095696D01*
X223544827Y-108092096D01*
X223521028Y-108086135D01*
X223497929Y-108077870D01*
X223475750Y-108067380D01*
X223454707Y-108054768D01*
X223435001Y-108040153D01*
X223416823Y-108023677D01*
X223400347Y-108005499D01*
X223385732Y-107985793D01*
X223373120Y-107964750D01*
X223362630Y-107942571D01*
X223354365Y-107919472D01*
X223348404Y-107895673D01*
X223344804Y-107871405D01*
X223343600Y-107846901D01*
X223343600Y-106821899D01*
X223344804Y-106797395D01*
X223348404Y-106773127D01*
X223354365Y-106749328D01*
X223362630Y-106726229D01*
X223373120Y-106704050D01*
X223385732Y-106683007D01*
X223400347Y-106663301D01*
X223416823Y-106645123D01*
X223435001Y-106628647D01*
X223454707Y-106614032D01*
X223475750Y-106601420D01*
X223497929Y-106590930D01*
X223521028Y-106582665D01*
X223544827Y-106576704D01*
X223569095Y-106573104D01*
X223593599Y-106571900D01*
X226443601Y-106571900D01*
X226468105Y-106573104D01*
X226468105Y-106573104D01*
G37*
D13*
X225018600Y-107334400D03*
D10*
G36*
X226468105Y-112548104D02*
G01*
X226492373Y-112551704D01*
X226516172Y-112557665D01*
X226539271Y-112565930D01*
X226561450Y-112576420D01*
X226582493Y-112589032D01*
X226602199Y-112603647D01*
X226620377Y-112620123D01*
X226636853Y-112638301D01*
X226651468Y-112658007D01*
X226664080Y-112679050D01*
X226674570Y-112701229D01*
X226682835Y-112724328D01*
X226688796Y-112748127D01*
X226692396Y-112772395D01*
X226693600Y-112796899D01*
X226693600Y-113821901D01*
X226692396Y-113846405D01*
X226688796Y-113870673D01*
X226682835Y-113894472D01*
X226674570Y-113917571D01*
X226664080Y-113939750D01*
X226651468Y-113960793D01*
X226636853Y-113980499D01*
X226620377Y-113998677D01*
X226602199Y-114015153D01*
X226582493Y-114029768D01*
X226561450Y-114042380D01*
X226539271Y-114052870D01*
X226516172Y-114061135D01*
X226492373Y-114067096D01*
X226468105Y-114070696D01*
X226443601Y-114071900D01*
X223593599Y-114071900D01*
X223569095Y-114070696D01*
X223544827Y-114067096D01*
X223521028Y-114061135D01*
X223497929Y-114052870D01*
X223475750Y-114042380D01*
X223454707Y-114029768D01*
X223435001Y-114015153D01*
X223416823Y-113998677D01*
X223400347Y-113980499D01*
X223385732Y-113960793D01*
X223373120Y-113939750D01*
X223362630Y-113917571D01*
X223354365Y-113894472D01*
X223348404Y-113870673D01*
X223344804Y-113846405D01*
X223343600Y-113821901D01*
X223343600Y-112796899D01*
X223344804Y-112772395D01*
X223348404Y-112748127D01*
X223354365Y-112724328D01*
X223362630Y-112701229D01*
X223373120Y-112679050D01*
X223385732Y-112658007D01*
X223400347Y-112638301D01*
X223416823Y-112620123D01*
X223435001Y-112603647D01*
X223454707Y-112589032D01*
X223475750Y-112576420D01*
X223497929Y-112565930D01*
X223521028Y-112557665D01*
X223544827Y-112551704D01*
X223569095Y-112548104D01*
X223593599Y-112546900D01*
X226443601Y-112546900D01*
X226468105Y-112548104D01*
X226468105Y-112548104D01*
G37*
D13*
X225018600Y-113309400D03*
D10*
G36*
X227063905Y-123649804D02*
G01*
X227088173Y-123653404D01*
X227111972Y-123659365D01*
X227135071Y-123667630D01*
X227157250Y-123678120D01*
X227178293Y-123690732D01*
X227197999Y-123705347D01*
X227216177Y-123721823D01*
X227232653Y-123740001D01*
X227247268Y-123759707D01*
X227259880Y-123780750D01*
X227270370Y-123802929D01*
X227278635Y-123826028D01*
X227284596Y-123849827D01*
X227288196Y-123874095D01*
X227289400Y-123898599D01*
X227289400Y-126748601D01*
X227288196Y-126773105D01*
X227284596Y-126797373D01*
X227278635Y-126821172D01*
X227270370Y-126844271D01*
X227259880Y-126866450D01*
X227247268Y-126887493D01*
X227232653Y-126907199D01*
X227216177Y-126925377D01*
X227197999Y-126941853D01*
X227178293Y-126956468D01*
X227157250Y-126969080D01*
X227135071Y-126979570D01*
X227111972Y-126987835D01*
X227088173Y-126993796D01*
X227063905Y-126997396D01*
X227039401Y-126998600D01*
X226014399Y-126998600D01*
X225989895Y-126997396D01*
X225965627Y-126993796D01*
X225941828Y-126987835D01*
X225918729Y-126979570D01*
X225896550Y-126969080D01*
X225875507Y-126956468D01*
X225855801Y-126941853D01*
X225837623Y-126925377D01*
X225821147Y-126907199D01*
X225806532Y-126887493D01*
X225793920Y-126866450D01*
X225783430Y-126844271D01*
X225775165Y-126821172D01*
X225769204Y-126797373D01*
X225765604Y-126773105D01*
X225764400Y-126748601D01*
X225764400Y-123898599D01*
X225765604Y-123874095D01*
X225769204Y-123849827D01*
X225775165Y-123826028D01*
X225783430Y-123802929D01*
X225793920Y-123780750D01*
X225806532Y-123759707D01*
X225821147Y-123740001D01*
X225837623Y-123721823D01*
X225855801Y-123705347D01*
X225875507Y-123690732D01*
X225896550Y-123678120D01*
X225918729Y-123667630D01*
X225941828Y-123659365D01*
X225965627Y-123653404D01*
X225989895Y-123649804D01*
X226014399Y-123648600D01*
X227039401Y-123648600D01*
X227063905Y-123649804D01*
X227063905Y-123649804D01*
G37*
D13*
X226526900Y-125323600D03*
D10*
G36*
X233038905Y-123649804D02*
G01*
X233063173Y-123653404D01*
X233086972Y-123659365D01*
X233110071Y-123667630D01*
X233132250Y-123678120D01*
X233153293Y-123690732D01*
X233172999Y-123705347D01*
X233191177Y-123721823D01*
X233207653Y-123740001D01*
X233222268Y-123759707D01*
X233234880Y-123780750D01*
X233245370Y-123802929D01*
X233253635Y-123826028D01*
X233259596Y-123849827D01*
X233263196Y-123874095D01*
X233264400Y-123898599D01*
X233264400Y-126748601D01*
X233263196Y-126773105D01*
X233259596Y-126797373D01*
X233253635Y-126821172D01*
X233245370Y-126844271D01*
X233234880Y-126866450D01*
X233222268Y-126887493D01*
X233207653Y-126907199D01*
X233191177Y-126925377D01*
X233172999Y-126941853D01*
X233153293Y-126956468D01*
X233132250Y-126969080D01*
X233110071Y-126979570D01*
X233086972Y-126987835D01*
X233063173Y-126993796D01*
X233038905Y-126997396D01*
X233014401Y-126998600D01*
X231989399Y-126998600D01*
X231964895Y-126997396D01*
X231940627Y-126993796D01*
X231916828Y-126987835D01*
X231893729Y-126979570D01*
X231871550Y-126969080D01*
X231850507Y-126956468D01*
X231830801Y-126941853D01*
X231812623Y-126925377D01*
X231796147Y-126907199D01*
X231781532Y-126887493D01*
X231768920Y-126866450D01*
X231758430Y-126844271D01*
X231750165Y-126821172D01*
X231744204Y-126797373D01*
X231740604Y-126773105D01*
X231739400Y-126748601D01*
X231739400Y-123898599D01*
X231740604Y-123874095D01*
X231744204Y-123849827D01*
X231750165Y-123826028D01*
X231758430Y-123802929D01*
X231768920Y-123780750D01*
X231781532Y-123759707D01*
X231796147Y-123740001D01*
X231812623Y-123721823D01*
X231830801Y-123705347D01*
X231850507Y-123690732D01*
X231871550Y-123678120D01*
X231893729Y-123667630D01*
X231916828Y-123659365D01*
X231940627Y-123653404D01*
X231964895Y-123649804D01*
X231989399Y-123648600D01*
X233014401Y-123648600D01*
X233038905Y-123649804D01*
X233038905Y-123649804D01*
G37*
D13*
X232501900Y-125323600D03*
D14*
X230122000Y-75501500D03*
X230122000Y-74231500D03*
X230122000Y-72961500D03*
X230122000Y-71691500D03*
D15*
X224422000Y-71691500D03*
X224422000Y-72961500D03*
X224422000Y-74231500D03*
X224422000Y-75501500D03*
D16*
X226822000Y-73596500D03*
X226822000Y-61976000D03*
D15*
X224422000Y-63881000D03*
X224422000Y-62611000D03*
X224422000Y-61341000D03*
X224422000Y-60071000D03*
D14*
X230122000Y-60071000D03*
X230122000Y-61341000D03*
X230122000Y-62611000D03*
X230122000Y-63881000D03*
X208218500Y-76708000D03*
X208218500Y-77978000D03*
X208218500Y-79248000D03*
X208218500Y-80518000D03*
D15*
X213918500Y-80518000D03*
X213918500Y-79248000D03*
X213918500Y-77978000D03*
X213918500Y-76708000D03*
D16*
X211518500Y-78613000D03*
X211518500Y-65278000D03*
D15*
X213918500Y-63373000D03*
X213918500Y-64643000D03*
X213918500Y-65913000D03*
X213918500Y-67183000D03*
D14*
X208218500Y-67183000D03*
X208218500Y-65913000D03*
X208218500Y-64643000D03*
X208218500Y-63373000D03*
D10*
G36*
X229805142Y-83121174D02*
G01*
X229828803Y-83124684D01*
X229852007Y-83130496D01*
X229874529Y-83138554D01*
X229896153Y-83148782D01*
X229916670Y-83161079D01*
X229935883Y-83175329D01*
X229953607Y-83191393D01*
X229969671Y-83209117D01*
X229983921Y-83228330D01*
X229996218Y-83248847D01*
X230006446Y-83270471D01*
X230014504Y-83292993D01*
X230020316Y-83316197D01*
X230023826Y-83339858D01*
X230025000Y-83363750D01*
X230025000Y-84276250D01*
X230023826Y-84300142D01*
X230020316Y-84323803D01*
X230014504Y-84347007D01*
X230006446Y-84369529D01*
X229996218Y-84391153D01*
X229983921Y-84411670D01*
X229969671Y-84430883D01*
X229953607Y-84448607D01*
X229935883Y-84464671D01*
X229916670Y-84478921D01*
X229896153Y-84491218D01*
X229874529Y-84501446D01*
X229852007Y-84509504D01*
X229828803Y-84515316D01*
X229805142Y-84518826D01*
X229781250Y-84520000D01*
X229293750Y-84520000D01*
X229269858Y-84518826D01*
X229246197Y-84515316D01*
X229222993Y-84509504D01*
X229200471Y-84501446D01*
X229178847Y-84491218D01*
X229158330Y-84478921D01*
X229139117Y-84464671D01*
X229121393Y-84448607D01*
X229105329Y-84430883D01*
X229091079Y-84411670D01*
X229078782Y-84391153D01*
X229068554Y-84369529D01*
X229060496Y-84347007D01*
X229054684Y-84323803D01*
X229051174Y-84300142D01*
X229050000Y-84276250D01*
X229050000Y-83363750D01*
X229051174Y-83339858D01*
X229054684Y-83316197D01*
X229060496Y-83292993D01*
X229068554Y-83270471D01*
X229078782Y-83248847D01*
X229091079Y-83228330D01*
X229105329Y-83209117D01*
X229121393Y-83191393D01*
X229139117Y-83175329D01*
X229158330Y-83161079D01*
X229178847Y-83148782D01*
X229200471Y-83138554D01*
X229222993Y-83130496D01*
X229246197Y-83124684D01*
X229269858Y-83121174D01*
X229293750Y-83120000D01*
X229781250Y-83120000D01*
X229805142Y-83121174D01*
X229805142Y-83121174D01*
G37*
D17*
X229537500Y-83820000D03*
D10*
G36*
X227930142Y-83121174D02*
G01*
X227953803Y-83124684D01*
X227977007Y-83130496D01*
X227999529Y-83138554D01*
X228021153Y-83148782D01*
X228041670Y-83161079D01*
X228060883Y-83175329D01*
X228078607Y-83191393D01*
X228094671Y-83209117D01*
X228108921Y-83228330D01*
X228121218Y-83248847D01*
X228131446Y-83270471D01*
X228139504Y-83292993D01*
X228145316Y-83316197D01*
X228148826Y-83339858D01*
X228150000Y-83363750D01*
X228150000Y-84276250D01*
X228148826Y-84300142D01*
X228145316Y-84323803D01*
X228139504Y-84347007D01*
X228131446Y-84369529D01*
X228121218Y-84391153D01*
X228108921Y-84411670D01*
X228094671Y-84430883D01*
X228078607Y-84448607D01*
X228060883Y-84464671D01*
X228041670Y-84478921D01*
X228021153Y-84491218D01*
X227999529Y-84501446D01*
X227977007Y-84509504D01*
X227953803Y-84515316D01*
X227930142Y-84518826D01*
X227906250Y-84520000D01*
X227418750Y-84520000D01*
X227394858Y-84518826D01*
X227371197Y-84515316D01*
X227347993Y-84509504D01*
X227325471Y-84501446D01*
X227303847Y-84491218D01*
X227283330Y-84478921D01*
X227264117Y-84464671D01*
X227246393Y-84448607D01*
X227230329Y-84430883D01*
X227216079Y-84411670D01*
X227203782Y-84391153D01*
X227193554Y-84369529D01*
X227185496Y-84347007D01*
X227179684Y-84323803D01*
X227176174Y-84300142D01*
X227175000Y-84276250D01*
X227175000Y-83363750D01*
X227176174Y-83339858D01*
X227179684Y-83316197D01*
X227185496Y-83292993D01*
X227193554Y-83270471D01*
X227203782Y-83248847D01*
X227216079Y-83228330D01*
X227230329Y-83209117D01*
X227246393Y-83191393D01*
X227264117Y-83175329D01*
X227283330Y-83161079D01*
X227303847Y-83148782D01*
X227325471Y-83138554D01*
X227347993Y-83130496D01*
X227371197Y-83124684D01*
X227394858Y-83121174D01*
X227418750Y-83120000D01*
X227906250Y-83120000D01*
X227930142Y-83121174D01*
X227930142Y-83121174D01*
G37*
D17*
X227662500Y-83820000D03*
D10*
G36*
X202410142Y-94920674D02*
G01*
X202433803Y-94924184D01*
X202457007Y-94929996D01*
X202479529Y-94938054D01*
X202501153Y-94948282D01*
X202521670Y-94960579D01*
X202540883Y-94974829D01*
X202558607Y-94990893D01*
X202574671Y-95008617D01*
X202588921Y-95027830D01*
X202601218Y-95048347D01*
X202611446Y-95069971D01*
X202619504Y-95092493D01*
X202625316Y-95115697D01*
X202628826Y-95139358D01*
X202630000Y-95163250D01*
X202630000Y-95650750D01*
X202628826Y-95674642D01*
X202625316Y-95698303D01*
X202619504Y-95721507D01*
X202611446Y-95744029D01*
X202601218Y-95765653D01*
X202588921Y-95786170D01*
X202574671Y-95805383D01*
X202558607Y-95823107D01*
X202540883Y-95839171D01*
X202521670Y-95853421D01*
X202501153Y-95865718D01*
X202479529Y-95875946D01*
X202457007Y-95884004D01*
X202433803Y-95889816D01*
X202410142Y-95893326D01*
X202386250Y-95894500D01*
X201473750Y-95894500D01*
X201449858Y-95893326D01*
X201426197Y-95889816D01*
X201402993Y-95884004D01*
X201380471Y-95875946D01*
X201358847Y-95865718D01*
X201338330Y-95853421D01*
X201319117Y-95839171D01*
X201301393Y-95823107D01*
X201285329Y-95805383D01*
X201271079Y-95786170D01*
X201258782Y-95765653D01*
X201248554Y-95744029D01*
X201240496Y-95721507D01*
X201234684Y-95698303D01*
X201231174Y-95674642D01*
X201230000Y-95650750D01*
X201230000Y-95163250D01*
X201231174Y-95139358D01*
X201234684Y-95115697D01*
X201240496Y-95092493D01*
X201248554Y-95069971D01*
X201258782Y-95048347D01*
X201271079Y-95027830D01*
X201285329Y-95008617D01*
X201301393Y-94990893D01*
X201319117Y-94974829D01*
X201338330Y-94960579D01*
X201358847Y-94948282D01*
X201380471Y-94938054D01*
X201402993Y-94929996D01*
X201426197Y-94924184D01*
X201449858Y-94920674D01*
X201473750Y-94919500D01*
X202386250Y-94919500D01*
X202410142Y-94920674D01*
X202410142Y-94920674D01*
G37*
D17*
X201930000Y-95407000D03*
D10*
G36*
X202410142Y-96795674D02*
G01*
X202433803Y-96799184D01*
X202457007Y-96804996D01*
X202479529Y-96813054D01*
X202501153Y-96823282D01*
X202521670Y-96835579D01*
X202540883Y-96849829D01*
X202558607Y-96865893D01*
X202574671Y-96883617D01*
X202588921Y-96902830D01*
X202601218Y-96923347D01*
X202611446Y-96944971D01*
X202619504Y-96967493D01*
X202625316Y-96990697D01*
X202628826Y-97014358D01*
X202630000Y-97038250D01*
X202630000Y-97525750D01*
X202628826Y-97549642D01*
X202625316Y-97573303D01*
X202619504Y-97596507D01*
X202611446Y-97619029D01*
X202601218Y-97640653D01*
X202588921Y-97661170D01*
X202574671Y-97680383D01*
X202558607Y-97698107D01*
X202540883Y-97714171D01*
X202521670Y-97728421D01*
X202501153Y-97740718D01*
X202479529Y-97750946D01*
X202457007Y-97759004D01*
X202433803Y-97764816D01*
X202410142Y-97768326D01*
X202386250Y-97769500D01*
X201473750Y-97769500D01*
X201449858Y-97768326D01*
X201426197Y-97764816D01*
X201402993Y-97759004D01*
X201380471Y-97750946D01*
X201358847Y-97740718D01*
X201338330Y-97728421D01*
X201319117Y-97714171D01*
X201301393Y-97698107D01*
X201285329Y-97680383D01*
X201271079Y-97661170D01*
X201258782Y-97640653D01*
X201248554Y-97619029D01*
X201240496Y-97596507D01*
X201234684Y-97573303D01*
X201231174Y-97549642D01*
X201230000Y-97525750D01*
X201230000Y-97038250D01*
X201231174Y-97014358D01*
X201234684Y-96990697D01*
X201240496Y-96967493D01*
X201248554Y-96944971D01*
X201258782Y-96923347D01*
X201271079Y-96902830D01*
X201285329Y-96883617D01*
X201301393Y-96865893D01*
X201319117Y-96849829D01*
X201338330Y-96835579D01*
X201358847Y-96823282D01*
X201380471Y-96813054D01*
X201402993Y-96804996D01*
X201426197Y-96799184D01*
X201449858Y-96795674D01*
X201473750Y-96794500D01*
X202386250Y-96794500D01*
X202410142Y-96795674D01*
X202410142Y-96795674D01*
G37*
D17*
X201930000Y-97282000D03*
D18*
X179444440Y-101966600D03*
X179444440Y-102616600D03*
X179444440Y-103266600D03*
X179444440Y-103916600D03*
X179444440Y-104566600D03*
X179444440Y-105216600D03*
X179444440Y-105866600D03*
X179444440Y-106516600D03*
X173544440Y-106516600D03*
X173544440Y-105866600D03*
X173544440Y-105216600D03*
X173544440Y-104566600D03*
X173544440Y-103916600D03*
X173544440Y-103266600D03*
X173544440Y-102616600D03*
X173544440Y-101966600D03*
D10*
G36*
X227054205Y-119636604D02*
G01*
X227078473Y-119640204D01*
X227102272Y-119646165D01*
X227125371Y-119654430D01*
X227147550Y-119664920D01*
X227168593Y-119677532D01*
X227188299Y-119692147D01*
X227206477Y-119708623D01*
X227222953Y-119726801D01*
X227237568Y-119746507D01*
X227250180Y-119767550D01*
X227260670Y-119789729D01*
X227268935Y-119812828D01*
X227274896Y-119836627D01*
X227278496Y-119860895D01*
X227279700Y-119885399D01*
X227279700Y-122735401D01*
X227278496Y-122759905D01*
X227274896Y-122784173D01*
X227268935Y-122807972D01*
X227260670Y-122831071D01*
X227250180Y-122853250D01*
X227237568Y-122874293D01*
X227222953Y-122893999D01*
X227206477Y-122912177D01*
X227188299Y-122928653D01*
X227168593Y-122943268D01*
X227147550Y-122955880D01*
X227125371Y-122966370D01*
X227102272Y-122974635D01*
X227078473Y-122980596D01*
X227054205Y-122984196D01*
X227029701Y-122985400D01*
X226004699Y-122985400D01*
X225980195Y-122984196D01*
X225955927Y-122980596D01*
X225932128Y-122974635D01*
X225909029Y-122966370D01*
X225886850Y-122955880D01*
X225865807Y-122943268D01*
X225846101Y-122928653D01*
X225827923Y-122912177D01*
X225811447Y-122893999D01*
X225796832Y-122874293D01*
X225784220Y-122853250D01*
X225773730Y-122831071D01*
X225765465Y-122807972D01*
X225759504Y-122784173D01*
X225755904Y-122759905D01*
X225754700Y-122735401D01*
X225754700Y-119885399D01*
X225755904Y-119860895D01*
X225759504Y-119836627D01*
X225765465Y-119812828D01*
X225773730Y-119789729D01*
X225784220Y-119767550D01*
X225796832Y-119746507D01*
X225811447Y-119726801D01*
X225827923Y-119708623D01*
X225846101Y-119692147D01*
X225865807Y-119677532D01*
X225886850Y-119664920D01*
X225909029Y-119654430D01*
X225932128Y-119646165D01*
X225955927Y-119640204D01*
X225980195Y-119636604D01*
X226004699Y-119635400D01*
X227029701Y-119635400D01*
X227054205Y-119636604D01*
X227054205Y-119636604D01*
G37*
D13*
X226517200Y-121310400D03*
D10*
G36*
X233029205Y-119636604D02*
G01*
X233053473Y-119640204D01*
X233077272Y-119646165D01*
X233100371Y-119654430D01*
X233122550Y-119664920D01*
X233143593Y-119677532D01*
X233163299Y-119692147D01*
X233181477Y-119708623D01*
X233197953Y-119726801D01*
X233212568Y-119746507D01*
X233225180Y-119767550D01*
X233235670Y-119789729D01*
X233243935Y-119812828D01*
X233249896Y-119836627D01*
X233253496Y-119860895D01*
X233254700Y-119885399D01*
X233254700Y-122735401D01*
X233253496Y-122759905D01*
X233249896Y-122784173D01*
X233243935Y-122807972D01*
X233235670Y-122831071D01*
X233225180Y-122853250D01*
X233212568Y-122874293D01*
X233197953Y-122893999D01*
X233181477Y-122912177D01*
X233163299Y-122928653D01*
X233143593Y-122943268D01*
X233122550Y-122955880D01*
X233100371Y-122966370D01*
X233077272Y-122974635D01*
X233053473Y-122980596D01*
X233029205Y-122984196D01*
X233004701Y-122985400D01*
X231979699Y-122985400D01*
X231955195Y-122984196D01*
X231930927Y-122980596D01*
X231907128Y-122974635D01*
X231884029Y-122966370D01*
X231861850Y-122955880D01*
X231840807Y-122943268D01*
X231821101Y-122928653D01*
X231802923Y-122912177D01*
X231786447Y-122893999D01*
X231771832Y-122874293D01*
X231759220Y-122853250D01*
X231748730Y-122831071D01*
X231740465Y-122807972D01*
X231734504Y-122784173D01*
X231730904Y-122759905D01*
X231729700Y-122735401D01*
X231729700Y-119885399D01*
X231730904Y-119860895D01*
X231734504Y-119836627D01*
X231740465Y-119812828D01*
X231748730Y-119789729D01*
X231759220Y-119767550D01*
X231771832Y-119746507D01*
X231786447Y-119726801D01*
X231802923Y-119708623D01*
X231821101Y-119692147D01*
X231840807Y-119677532D01*
X231861850Y-119664920D01*
X231884029Y-119654430D01*
X231907128Y-119646165D01*
X231930927Y-119640204D01*
X231955195Y-119636604D01*
X231979699Y-119635400D01*
X233004701Y-119635400D01*
X233029205Y-119636604D01*
X233029205Y-119636604D01*
G37*
D13*
X232492200Y-121310400D03*
D19*
X178197000Y-116976000D03*
X178697000Y-116976000D03*
X179197000Y-116976000D03*
X179697000Y-116976000D03*
X180197000Y-116976000D03*
X180197000Y-121276000D03*
X179697000Y-121276000D03*
X179197000Y-121276000D03*
X178697000Y-121276000D03*
X178197000Y-121276000D03*
D10*
G36*
X181455142Y-110082174D02*
G01*
X181478803Y-110085684D01*
X181502007Y-110091496D01*
X181524529Y-110099554D01*
X181546153Y-110109782D01*
X181566670Y-110122079D01*
X181585883Y-110136329D01*
X181603607Y-110152393D01*
X181619671Y-110170117D01*
X181633921Y-110189330D01*
X181646218Y-110209847D01*
X181656446Y-110231471D01*
X181664504Y-110253993D01*
X181670316Y-110277197D01*
X181673826Y-110300858D01*
X181675000Y-110324750D01*
X181675000Y-110812250D01*
X181673826Y-110836142D01*
X181670316Y-110859803D01*
X181664504Y-110883007D01*
X181656446Y-110905529D01*
X181646218Y-110927153D01*
X181633921Y-110947670D01*
X181619671Y-110966883D01*
X181603607Y-110984607D01*
X181585883Y-111000671D01*
X181566670Y-111014921D01*
X181546153Y-111027218D01*
X181524529Y-111037446D01*
X181502007Y-111045504D01*
X181478803Y-111051316D01*
X181455142Y-111054826D01*
X181431250Y-111056000D01*
X180518750Y-111056000D01*
X180494858Y-111054826D01*
X180471197Y-111051316D01*
X180447993Y-111045504D01*
X180425471Y-111037446D01*
X180403847Y-111027218D01*
X180383330Y-111014921D01*
X180364117Y-111000671D01*
X180346393Y-110984607D01*
X180330329Y-110966883D01*
X180316079Y-110947670D01*
X180303782Y-110927153D01*
X180293554Y-110905529D01*
X180285496Y-110883007D01*
X180279684Y-110859803D01*
X180276174Y-110836142D01*
X180275000Y-110812250D01*
X180275000Y-110324750D01*
X180276174Y-110300858D01*
X180279684Y-110277197D01*
X180285496Y-110253993D01*
X180293554Y-110231471D01*
X180303782Y-110209847D01*
X180316079Y-110189330D01*
X180330329Y-110170117D01*
X180346393Y-110152393D01*
X180364117Y-110136329D01*
X180383330Y-110122079D01*
X180403847Y-110109782D01*
X180425471Y-110099554D01*
X180447993Y-110091496D01*
X180471197Y-110085684D01*
X180494858Y-110082174D01*
X180518750Y-110081000D01*
X181431250Y-110081000D01*
X181455142Y-110082174D01*
X181455142Y-110082174D01*
G37*
D17*
X180975000Y-110568500D03*
D10*
G36*
X181455142Y-111957174D02*
G01*
X181478803Y-111960684D01*
X181502007Y-111966496D01*
X181524529Y-111974554D01*
X181546153Y-111984782D01*
X181566670Y-111997079D01*
X181585883Y-112011329D01*
X181603607Y-112027393D01*
X181619671Y-112045117D01*
X181633921Y-112064330D01*
X181646218Y-112084847D01*
X181656446Y-112106471D01*
X181664504Y-112128993D01*
X181670316Y-112152197D01*
X181673826Y-112175858D01*
X181675000Y-112199750D01*
X181675000Y-112687250D01*
X181673826Y-112711142D01*
X181670316Y-112734803D01*
X181664504Y-112758007D01*
X181656446Y-112780529D01*
X181646218Y-112802153D01*
X181633921Y-112822670D01*
X181619671Y-112841883D01*
X181603607Y-112859607D01*
X181585883Y-112875671D01*
X181566670Y-112889921D01*
X181546153Y-112902218D01*
X181524529Y-112912446D01*
X181502007Y-112920504D01*
X181478803Y-112926316D01*
X181455142Y-112929826D01*
X181431250Y-112931000D01*
X180518750Y-112931000D01*
X180494858Y-112929826D01*
X180471197Y-112926316D01*
X180447993Y-112920504D01*
X180425471Y-112912446D01*
X180403847Y-112902218D01*
X180383330Y-112889921D01*
X180364117Y-112875671D01*
X180346393Y-112859607D01*
X180330329Y-112841883D01*
X180316079Y-112822670D01*
X180303782Y-112802153D01*
X180293554Y-112780529D01*
X180285496Y-112758007D01*
X180279684Y-112734803D01*
X180276174Y-112711142D01*
X180275000Y-112687250D01*
X180275000Y-112199750D01*
X180276174Y-112175858D01*
X180279684Y-112152197D01*
X180285496Y-112128993D01*
X180293554Y-112106471D01*
X180303782Y-112084847D01*
X180316079Y-112064330D01*
X180330329Y-112045117D01*
X180346393Y-112027393D01*
X180364117Y-112011329D01*
X180383330Y-111997079D01*
X180403847Y-111984782D01*
X180425471Y-111974554D01*
X180447993Y-111966496D01*
X180471197Y-111960684D01*
X180494858Y-111957174D01*
X180518750Y-111956000D01*
X181431250Y-111956000D01*
X181455142Y-111957174D01*
X181455142Y-111957174D01*
G37*
D17*
X180975000Y-112443500D03*
D10*
G36*
X179677142Y-126943174D02*
G01*
X179700803Y-126946684D01*
X179724007Y-126952496D01*
X179746529Y-126960554D01*
X179768153Y-126970782D01*
X179788670Y-126983079D01*
X179807883Y-126997329D01*
X179825607Y-127013393D01*
X179841671Y-127031117D01*
X179855921Y-127050330D01*
X179868218Y-127070847D01*
X179878446Y-127092471D01*
X179886504Y-127114993D01*
X179892316Y-127138197D01*
X179895826Y-127161858D01*
X179897000Y-127185750D01*
X179897000Y-127673250D01*
X179895826Y-127697142D01*
X179892316Y-127720803D01*
X179886504Y-127744007D01*
X179878446Y-127766529D01*
X179868218Y-127788153D01*
X179855921Y-127808670D01*
X179841671Y-127827883D01*
X179825607Y-127845607D01*
X179807883Y-127861671D01*
X179788670Y-127875921D01*
X179768153Y-127888218D01*
X179746529Y-127898446D01*
X179724007Y-127906504D01*
X179700803Y-127912316D01*
X179677142Y-127915826D01*
X179653250Y-127917000D01*
X178740750Y-127917000D01*
X178716858Y-127915826D01*
X178693197Y-127912316D01*
X178669993Y-127906504D01*
X178647471Y-127898446D01*
X178625847Y-127888218D01*
X178605330Y-127875921D01*
X178586117Y-127861671D01*
X178568393Y-127845607D01*
X178552329Y-127827883D01*
X178538079Y-127808670D01*
X178525782Y-127788153D01*
X178515554Y-127766529D01*
X178507496Y-127744007D01*
X178501684Y-127720803D01*
X178498174Y-127697142D01*
X178497000Y-127673250D01*
X178497000Y-127185750D01*
X178498174Y-127161858D01*
X178501684Y-127138197D01*
X178507496Y-127114993D01*
X178515554Y-127092471D01*
X178525782Y-127070847D01*
X178538079Y-127050330D01*
X178552329Y-127031117D01*
X178568393Y-127013393D01*
X178586117Y-126997329D01*
X178605330Y-126983079D01*
X178625847Y-126970782D01*
X178647471Y-126960554D01*
X178669993Y-126952496D01*
X178693197Y-126946684D01*
X178716858Y-126943174D01*
X178740750Y-126942000D01*
X179653250Y-126942000D01*
X179677142Y-126943174D01*
X179677142Y-126943174D01*
G37*
D17*
X179197000Y-127429500D03*
D10*
G36*
X179677142Y-125068174D02*
G01*
X179700803Y-125071684D01*
X179724007Y-125077496D01*
X179746529Y-125085554D01*
X179768153Y-125095782D01*
X179788670Y-125108079D01*
X179807883Y-125122329D01*
X179825607Y-125138393D01*
X179841671Y-125156117D01*
X179855921Y-125175330D01*
X179868218Y-125195847D01*
X179878446Y-125217471D01*
X179886504Y-125239993D01*
X179892316Y-125263197D01*
X179895826Y-125286858D01*
X179897000Y-125310750D01*
X179897000Y-125798250D01*
X179895826Y-125822142D01*
X179892316Y-125845803D01*
X179886504Y-125869007D01*
X179878446Y-125891529D01*
X179868218Y-125913153D01*
X179855921Y-125933670D01*
X179841671Y-125952883D01*
X179825607Y-125970607D01*
X179807883Y-125986671D01*
X179788670Y-126000921D01*
X179768153Y-126013218D01*
X179746529Y-126023446D01*
X179724007Y-126031504D01*
X179700803Y-126037316D01*
X179677142Y-126040826D01*
X179653250Y-126042000D01*
X178740750Y-126042000D01*
X178716858Y-126040826D01*
X178693197Y-126037316D01*
X178669993Y-126031504D01*
X178647471Y-126023446D01*
X178625847Y-126013218D01*
X178605330Y-126000921D01*
X178586117Y-125986671D01*
X178568393Y-125970607D01*
X178552329Y-125952883D01*
X178538079Y-125933670D01*
X178525782Y-125913153D01*
X178515554Y-125891529D01*
X178507496Y-125869007D01*
X178501684Y-125845803D01*
X178498174Y-125822142D01*
X178497000Y-125798250D01*
X178497000Y-125310750D01*
X178498174Y-125286858D01*
X178501684Y-125263197D01*
X178507496Y-125239993D01*
X178515554Y-125217471D01*
X178525782Y-125195847D01*
X178538079Y-125175330D01*
X178552329Y-125156117D01*
X178568393Y-125138393D01*
X178586117Y-125122329D01*
X178605330Y-125108079D01*
X178625847Y-125095782D01*
X178647471Y-125085554D01*
X178669993Y-125077496D01*
X178693197Y-125071684D01*
X178716858Y-125068174D01*
X178740750Y-125067000D01*
X179653250Y-125067000D01*
X179677142Y-125068174D01*
X179677142Y-125068174D01*
G37*
D17*
X179197000Y-125554500D03*
D10*
G36*
X179169142Y-110082174D02*
G01*
X179192803Y-110085684D01*
X179216007Y-110091496D01*
X179238529Y-110099554D01*
X179260153Y-110109782D01*
X179280670Y-110122079D01*
X179299883Y-110136329D01*
X179317607Y-110152393D01*
X179333671Y-110170117D01*
X179347921Y-110189330D01*
X179360218Y-110209847D01*
X179370446Y-110231471D01*
X179378504Y-110253993D01*
X179384316Y-110277197D01*
X179387826Y-110300858D01*
X179389000Y-110324750D01*
X179389000Y-110812250D01*
X179387826Y-110836142D01*
X179384316Y-110859803D01*
X179378504Y-110883007D01*
X179370446Y-110905529D01*
X179360218Y-110927153D01*
X179347921Y-110947670D01*
X179333671Y-110966883D01*
X179317607Y-110984607D01*
X179299883Y-111000671D01*
X179280670Y-111014921D01*
X179260153Y-111027218D01*
X179238529Y-111037446D01*
X179216007Y-111045504D01*
X179192803Y-111051316D01*
X179169142Y-111054826D01*
X179145250Y-111056000D01*
X178232750Y-111056000D01*
X178208858Y-111054826D01*
X178185197Y-111051316D01*
X178161993Y-111045504D01*
X178139471Y-111037446D01*
X178117847Y-111027218D01*
X178097330Y-111014921D01*
X178078117Y-111000671D01*
X178060393Y-110984607D01*
X178044329Y-110966883D01*
X178030079Y-110947670D01*
X178017782Y-110927153D01*
X178007554Y-110905529D01*
X177999496Y-110883007D01*
X177993684Y-110859803D01*
X177990174Y-110836142D01*
X177989000Y-110812250D01*
X177989000Y-110324750D01*
X177990174Y-110300858D01*
X177993684Y-110277197D01*
X177999496Y-110253993D01*
X178007554Y-110231471D01*
X178017782Y-110209847D01*
X178030079Y-110189330D01*
X178044329Y-110170117D01*
X178060393Y-110152393D01*
X178078117Y-110136329D01*
X178097330Y-110122079D01*
X178117847Y-110109782D01*
X178139471Y-110099554D01*
X178161993Y-110091496D01*
X178185197Y-110085684D01*
X178208858Y-110082174D01*
X178232750Y-110081000D01*
X179145250Y-110081000D01*
X179169142Y-110082174D01*
X179169142Y-110082174D01*
G37*
D17*
X178689000Y-110568500D03*
D10*
G36*
X179169142Y-111957174D02*
G01*
X179192803Y-111960684D01*
X179216007Y-111966496D01*
X179238529Y-111974554D01*
X179260153Y-111984782D01*
X179280670Y-111997079D01*
X179299883Y-112011329D01*
X179317607Y-112027393D01*
X179333671Y-112045117D01*
X179347921Y-112064330D01*
X179360218Y-112084847D01*
X179370446Y-112106471D01*
X179378504Y-112128993D01*
X179384316Y-112152197D01*
X179387826Y-112175858D01*
X179389000Y-112199750D01*
X179389000Y-112687250D01*
X179387826Y-112711142D01*
X179384316Y-112734803D01*
X179378504Y-112758007D01*
X179370446Y-112780529D01*
X179360218Y-112802153D01*
X179347921Y-112822670D01*
X179333671Y-112841883D01*
X179317607Y-112859607D01*
X179299883Y-112875671D01*
X179280670Y-112889921D01*
X179260153Y-112902218D01*
X179238529Y-112912446D01*
X179216007Y-112920504D01*
X179192803Y-112926316D01*
X179169142Y-112929826D01*
X179145250Y-112931000D01*
X178232750Y-112931000D01*
X178208858Y-112929826D01*
X178185197Y-112926316D01*
X178161993Y-112920504D01*
X178139471Y-112912446D01*
X178117847Y-112902218D01*
X178097330Y-112889921D01*
X178078117Y-112875671D01*
X178060393Y-112859607D01*
X178044329Y-112841883D01*
X178030079Y-112822670D01*
X178017782Y-112802153D01*
X178007554Y-112780529D01*
X177999496Y-112758007D01*
X177993684Y-112734803D01*
X177990174Y-112711142D01*
X177989000Y-112687250D01*
X177989000Y-112199750D01*
X177990174Y-112175858D01*
X177993684Y-112152197D01*
X177999496Y-112128993D01*
X178007554Y-112106471D01*
X178017782Y-112084847D01*
X178030079Y-112064330D01*
X178044329Y-112045117D01*
X178060393Y-112027393D01*
X178078117Y-112011329D01*
X178097330Y-111997079D01*
X178117847Y-111984782D01*
X178139471Y-111974554D01*
X178161993Y-111966496D01*
X178185197Y-111960684D01*
X178208858Y-111957174D01*
X178232750Y-111956000D01*
X179145250Y-111956000D01*
X179169142Y-111957174D01*
X179169142Y-111957174D01*
G37*
D17*
X178689000Y-112443500D03*
D10*
G36*
X181709142Y-126943174D02*
G01*
X181732803Y-126946684D01*
X181756007Y-126952496D01*
X181778529Y-126960554D01*
X181800153Y-126970782D01*
X181820670Y-126983079D01*
X181839883Y-126997329D01*
X181857607Y-127013393D01*
X181873671Y-127031117D01*
X181887921Y-127050330D01*
X181900218Y-127070847D01*
X181910446Y-127092471D01*
X181918504Y-127114993D01*
X181924316Y-127138197D01*
X181927826Y-127161858D01*
X181929000Y-127185750D01*
X181929000Y-127673250D01*
X181927826Y-127697142D01*
X181924316Y-127720803D01*
X181918504Y-127744007D01*
X181910446Y-127766529D01*
X181900218Y-127788153D01*
X181887921Y-127808670D01*
X181873671Y-127827883D01*
X181857607Y-127845607D01*
X181839883Y-127861671D01*
X181820670Y-127875921D01*
X181800153Y-127888218D01*
X181778529Y-127898446D01*
X181756007Y-127906504D01*
X181732803Y-127912316D01*
X181709142Y-127915826D01*
X181685250Y-127917000D01*
X180772750Y-127917000D01*
X180748858Y-127915826D01*
X180725197Y-127912316D01*
X180701993Y-127906504D01*
X180679471Y-127898446D01*
X180657847Y-127888218D01*
X180637330Y-127875921D01*
X180618117Y-127861671D01*
X180600393Y-127845607D01*
X180584329Y-127827883D01*
X180570079Y-127808670D01*
X180557782Y-127788153D01*
X180547554Y-127766529D01*
X180539496Y-127744007D01*
X180533684Y-127720803D01*
X180530174Y-127697142D01*
X180529000Y-127673250D01*
X180529000Y-127185750D01*
X180530174Y-127161858D01*
X180533684Y-127138197D01*
X180539496Y-127114993D01*
X180547554Y-127092471D01*
X180557782Y-127070847D01*
X180570079Y-127050330D01*
X180584329Y-127031117D01*
X180600393Y-127013393D01*
X180618117Y-126997329D01*
X180637330Y-126983079D01*
X180657847Y-126970782D01*
X180679471Y-126960554D01*
X180701993Y-126952496D01*
X180725197Y-126946684D01*
X180748858Y-126943174D01*
X180772750Y-126942000D01*
X181685250Y-126942000D01*
X181709142Y-126943174D01*
X181709142Y-126943174D01*
G37*
D17*
X181229000Y-127429500D03*
D10*
G36*
X181709142Y-125068174D02*
G01*
X181732803Y-125071684D01*
X181756007Y-125077496D01*
X181778529Y-125085554D01*
X181800153Y-125095782D01*
X181820670Y-125108079D01*
X181839883Y-125122329D01*
X181857607Y-125138393D01*
X181873671Y-125156117D01*
X181887921Y-125175330D01*
X181900218Y-125195847D01*
X181910446Y-125217471D01*
X181918504Y-125239993D01*
X181924316Y-125263197D01*
X181927826Y-125286858D01*
X181929000Y-125310750D01*
X181929000Y-125798250D01*
X181927826Y-125822142D01*
X181924316Y-125845803D01*
X181918504Y-125869007D01*
X181910446Y-125891529D01*
X181900218Y-125913153D01*
X181887921Y-125933670D01*
X181873671Y-125952883D01*
X181857607Y-125970607D01*
X181839883Y-125986671D01*
X181820670Y-126000921D01*
X181800153Y-126013218D01*
X181778529Y-126023446D01*
X181756007Y-126031504D01*
X181732803Y-126037316D01*
X181709142Y-126040826D01*
X181685250Y-126042000D01*
X180772750Y-126042000D01*
X180748858Y-126040826D01*
X180725197Y-126037316D01*
X180701993Y-126031504D01*
X180679471Y-126023446D01*
X180657847Y-126013218D01*
X180637330Y-126000921D01*
X180618117Y-125986671D01*
X180600393Y-125970607D01*
X180584329Y-125952883D01*
X180570079Y-125933670D01*
X180557782Y-125913153D01*
X180547554Y-125891529D01*
X180539496Y-125869007D01*
X180533684Y-125845803D01*
X180530174Y-125822142D01*
X180529000Y-125798250D01*
X180529000Y-125310750D01*
X180530174Y-125286858D01*
X180533684Y-125263197D01*
X180539496Y-125239993D01*
X180547554Y-125217471D01*
X180557782Y-125195847D01*
X180570079Y-125175330D01*
X180584329Y-125156117D01*
X180600393Y-125138393D01*
X180618117Y-125122329D01*
X180637330Y-125108079D01*
X180657847Y-125095782D01*
X180679471Y-125085554D01*
X180701993Y-125077496D01*
X180725197Y-125071684D01*
X180748858Y-125068174D01*
X180772750Y-125067000D01*
X181685250Y-125067000D01*
X181709142Y-125068174D01*
X181709142Y-125068174D01*
G37*
D17*
X181229000Y-125554500D03*
D10*
G36*
X173164582Y-94953934D02*
G01*
X173188243Y-94957444D01*
X173211447Y-94963256D01*
X173233969Y-94971314D01*
X173255593Y-94981542D01*
X173276110Y-94993839D01*
X173295323Y-95008089D01*
X173313047Y-95024153D01*
X173329111Y-95041877D01*
X173343361Y-95061090D01*
X173355658Y-95081607D01*
X173365886Y-95103231D01*
X173373944Y-95125753D01*
X173379756Y-95148957D01*
X173383266Y-95172618D01*
X173384440Y-95196510D01*
X173384440Y-95684010D01*
X173383266Y-95707902D01*
X173379756Y-95731563D01*
X173373944Y-95754767D01*
X173365886Y-95777289D01*
X173355658Y-95798913D01*
X173343361Y-95819430D01*
X173329111Y-95838643D01*
X173313047Y-95856367D01*
X173295323Y-95872431D01*
X173276110Y-95886681D01*
X173255593Y-95898978D01*
X173233969Y-95909206D01*
X173211447Y-95917264D01*
X173188243Y-95923076D01*
X173164582Y-95926586D01*
X173140690Y-95927760D01*
X172228190Y-95927760D01*
X172204298Y-95926586D01*
X172180637Y-95923076D01*
X172157433Y-95917264D01*
X172134911Y-95909206D01*
X172113287Y-95898978D01*
X172092770Y-95886681D01*
X172073557Y-95872431D01*
X172055833Y-95856367D01*
X172039769Y-95838643D01*
X172025519Y-95819430D01*
X172013222Y-95798913D01*
X172002994Y-95777289D01*
X171994936Y-95754767D01*
X171989124Y-95731563D01*
X171985614Y-95707902D01*
X171984440Y-95684010D01*
X171984440Y-95196510D01*
X171985614Y-95172618D01*
X171989124Y-95148957D01*
X171994936Y-95125753D01*
X172002994Y-95103231D01*
X172013222Y-95081607D01*
X172025519Y-95061090D01*
X172039769Y-95041877D01*
X172055833Y-95024153D01*
X172073557Y-95008089D01*
X172092770Y-94993839D01*
X172113287Y-94981542D01*
X172134911Y-94971314D01*
X172157433Y-94963256D01*
X172180637Y-94957444D01*
X172204298Y-94953934D01*
X172228190Y-94952760D01*
X173140690Y-94952760D01*
X173164582Y-94953934D01*
X173164582Y-94953934D01*
G37*
D17*
X172684440Y-95440260D03*
D10*
G36*
X173164582Y-96828934D02*
G01*
X173188243Y-96832444D01*
X173211447Y-96838256D01*
X173233969Y-96846314D01*
X173255593Y-96856542D01*
X173276110Y-96868839D01*
X173295323Y-96883089D01*
X173313047Y-96899153D01*
X173329111Y-96916877D01*
X173343361Y-96936090D01*
X173355658Y-96956607D01*
X173365886Y-96978231D01*
X173373944Y-97000753D01*
X173379756Y-97023957D01*
X173383266Y-97047618D01*
X173384440Y-97071510D01*
X173384440Y-97559010D01*
X173383266Y-97582902D01*
X173379756Y-97606563D01*
X173373944Y-97629767D01*
X173365886Y-97652289D01*
X173355658Y-97673913D01*
X173343361Y-97694430D01*
X173329111Y-97713643D01*
X173313047Y-97731367D01*
X173295323Y-97747431D01*
X173276110Y-97761681D01*
X173255593Y-97773978D01*
X173233969Y-97784206D01*
X173211447Y-97792264D01*
X173188243Y-97798076D01*
X173164582Y-97801586D01*
X173140690Y-97802760D01*
X172228190Y-97802760D01*
X172204298Y-97801586D01*
X172180637Y-97798076D01*
X172157433Y-97792264D01*
X172134911Y-97784206D01*
X172113287Y-97773978D01*
X172092770Y-97761681D01*
X172073557Y-97747431D01*
X172055833Y-97731367D01*
X172039769Y-97713643D01*
X172025519Y-97694430D01*
X172013222Y-97673913D01*
X172002994Y-97652289D01*
X171994936Y-97629767D01*
X171989124Y-97606563D01*
X171985614Y-97582902D01*
X171984440Y-97559010D01*
X171984440Y-97071510D01*
X171985614Y-97047618D01*
X171989124Y-97023957D01*
X171994936Y-97000753D01*
X172002994Y-96978231D01*
X172013222Y-96956607D01*
X172025519Y-96936090D01*
X172039769Y-96916877D01*
X172055833Y-96899153D01*
X172073557Y-96883089D01*
X172092770Y-96868839D01*
X172113287Y-96856542D01*
X172134911Y-96846314D01*
X172157433Y-96838256D01*
X172180637Y-96832444D01*
X172204298Y-96828934D01*
X172228190Y-96827760D01*
X173140690Y-96827760D01*
X173164582Y-96828934D01*
X173164582Y-96828934D01*
G37*
D17*
X172684440Y-97315260D03*
D10*
G36*
X230430505Y-106563404D02*
G01*
X230454773Y-106567004D01*
X230478572Y-106572965D01*
X230501671Y-106581230D01*
X230523850Y-106591720D01*
X230544893Y-106604332D01*
X230564599Y-106618947D01*
X230582777Y-106635423D01*
X230599253Y-106653601D01*
X230613868Y-106673307D01*
X230626480Y-106694350D01*
X230636970Y-106716529D01*
X230645235Y-106739628D01*
X230651196Y-106763427D01*
X230654796Y-106787695D01*
X230656000Y-106812199D01*
X230656000Y-107837201D01*
X230654796Y-107861705D01*
X230651196Y-107885973D01*
X230645235Y-107909772D01*
X230636970Y-107932871D01*
X230626480Y-107955050D01*
X230613868Y-107976093D01*
X230599253Y-107995799D01*
X230582777Y-108013977D01*
X230564599Y-108030453D01*
X230544893Y-108045068D01*
X230523850Y-108057680D01*
X230501671Y-108068170D01*
X230478572Y-108076435D01*
X230454773Y-108082396D01*
X230430505Y-108085996D01*
X230406001Y-108087200D01*
X227555999Y-108087200D01*
X227531495Y-108085996D01*
X227507227Y-108082396D01*
X227483428Y-108076435D01*
X227460329Y-108068170D01*
X227438150Y-108057680D01*
X227417107Y-108045068D01*
X227397401Y-108030453D01*
X227379223Y-108013977D01*
X227362747Y-107995799D01*
X227348132Y-107976093D01*
X227335520Y-107955050D01*
X227325030Y-107932871D01*
X227316765Y-107909772D01*
X227310804Y-107885973D01*
X227307204Y-107861705D01*
X227306000Y-107837201D01*
X227306000Y-106812199D01*
X227307204Y-106787695D01*
X227310804Y-106763427D01*
X227316765Y-106739628D01*
X227325030Y-106716529D01*
X227335520Y-106694350D01*
X227348132Y-106673307D01*
X227362747Y-106653601D01*
X227379223Y-106635423D01*
X227397401Y-106618947D01*
X227417107Y-106604332D01*
X227438150Y-106591720D01*
X227460329Y-106581230D01*
X227483428Y-106572965D01*
X227507227Y-106567004D01*
X227531495Y-106563404D01*
X227555999Y-106562200D01*
X230406001Y-106562200D01*
X230430505Y-106563404D01*
X230430505Y-106563404D01*
G37*
D13*
X228981000Y-107324700D03*
D10*
G36*
X230430505Y-112538404D02*
G01*
X230454773Y-112542004D01*
X230478572Y-112547965D01*
X230501671Y-112556230D01*
X230523850Y-112566720D01*
X230544893Y-112579332D01*
X230564599Y-112593947D01*
X230582777Y-112610423D01*
X230599253Y-112628601D01*
X230613868Y-112648307D01*
X230626480Y-112669350D01*
X230636970Y-112691529D01*
X230645235Y-112714628D01*
X230651196Y-112738427D01*
X230654796Y-112762695D01*
X230656000Y-112787199D01*
X230656000Y-113812201D01*
X230654796Y-113836705D01*
X230651196Y-113860973D01*
X230645235Y-113884772D01*
X230636970Y-113907871D01*
X230626480Y-113930050D01*
X230613868Y-113951093D01*
X230599253Y-113970799D01*
X230582777Y-113988977D01*
X230564599Y-114005453D01*
X230544893Y-114020068D01*
X230523850Y-114032680D01*
X230501671Y-114043170D01*
X230478572Y-114051435D01*
X230454773Y-114057396D01*
X230430505Y-114060996D01*
X230406001Y-114062200D01*
X227555999Y-114062200D01*
X227531495Y-114060996D01*
X227507227Y-114057396D01*
X227483428Y-114051435D01*
X227460329Y-114043170D01*
X227438150Y-114032680D01*
X227417107Y-114020068D01*
X227397401Y-114005453D01*
X227379223Y-113988977D01*
X227362747Y-113970799D01*
X227348132Y-113951093D01*
X227335520Y-113930050D01*
X227325030Y-113907871D01*
X227316765Y-113884772D01*
X227310804Y-113860973D01*
X227307204Y-113836705D01*
X227306000Y-113812201D01*
X227306000Y-112787199D01*
X227307204Y-112762695D01*
X227310804Y-112738427D01*
X227316765Y-112714628D01*
X227325030Y-112691529D01*
X227335520Y-112669350D01*
X227348132Y-112648307D01*
X227362747Y-112628601D01*
X227379223Y-112610423D01*
X227397401Y-112593947D01*
X227417107Y-112579332D01*
X227438150Y-112566720D01*
X227460329Y-112556230D01*
X227483428Y-112547965D01*
X227507227Y-112542004D01*
X227531495Y-112538404D01*
X227555999Y-112537200D01*
X230406001Y-112537200D01*
X230430505Y-112538404D01*
X230430505Y-112538404D01*
G37*
D13*
X228981000Y-113299700D03*
D10*
G36*
X176623505Y-119323204D02*
G01*
X176647773Y-119326804D01*
X176671572Y-119332765D01*
X176694671Y-119341030D01*
X176716850Y-119351520D01*
X176737893Y-119364132D01*
X176757599Y-119378747D01*
X176775777Y-119395223D01*
X176792253Y-119413401D01*
X176806868Y-119433107D01*
X176819480Y-119454150D01*
X176829970Y-119476329D01*
X176838235Y-119499428D01*
X176844196Y-119523227D01*
X176847796Y-119547495D01*
X176849000Y-119571999D01*
X176849000Y-120222001D01*
X176847796Y-120246505D01*
X176844196Y-120270773D01*
X176838235Y-120294572D01*
X176829970Y-120317671D01*
X176819480Y-120339850D01*
X176806868Y-120360893D01*
X176792253Y-120380599D01*
X176775777Y-120398777D01*
X176757599Y-120415253D01*
X176737893Y-120429868D01*
X176716850Y-120442480D01*
X176694671Y-120452970D01*
X176671572Y-120461235D01*
X176647773Y-120467196D01*
X176623505Y-120470796D01*
X176599001Y-120472000D01*
X175698999Y-120472000D01*
X175674495Y-120470796D01*
X175650227Y-120467196D01*
X175626428Y-120461235D01*
X175603329Y-120452970D01*
X175581150Y-120442480D01*
X175560107Y-120429868D01*
X175540401Y-120415253D01*
X175522223Y-120398777D01*
X175505747Y-120380599D01*
X175491132Y-120360893D01*
X175478520Y-120339850D01*
X175468030Y-120317671D01*
X175459765Y-120294572D01*
X175453804Y-120270773D01*
X175450204Y-120246505D01*
X175449000Y-120222001D01*
X175449000Y-119571999D01*
X175450204Y-119547495D01*
X175453804Y-119523227D01*
X175459765Y-119499428D01*
X175468030Y-119476329D01*
X175478520Y-119454150D01*
X175491132Y-119433107D01*
X175505747Y-119413401D01*
X175522223Y-119395223D01*
X175540401Y-119378747D01*
X175560107Y-119364132D01*
X175581150Y-119351520D01*
X175603329Y-119341030D01*
X175626428Y-119332765D01*
X175650227Y-119326804D01*
X175674495Y-119323204D01*
X175698999Y-119322000D01*
X176599001Y-119322000D01*
X176623505Y-119323204D01*
X176623505Y-119323204D01*
G37*
D11*
X176149000Y-119897000D03*
D10*
G36*
X176623505Y-117273204D02*
G01*
X176647773Y-117276804D01*
X176671572Y-117282765D01*
X176694671Y-117291030D01*
X176716850Y-117301520D01*
X176737893Y-117314132D01*
X176757599Y-117328747D01*
X176775777Y-117345223D01*
X176792253Y-117363401D01*
X176806868Y-117383107D01*
X176819480Y-117404150D01*
X176829970Y-117426329D01*
X176838235Y-117449428D01*
X176844196Y-117473227D01*
X176847796Y-117497495D01*
X176849000Y-117521999D01*
X176849000Y-118172001D01*
X176847796Y-118196505D01*
X176844196Y-118220773D01*
X176838235Y-118244572D01*
X176829970Y-118267671D01*
X176819480Y-118289850D01*
X176806868Y-118310893D01*
X176792253Y-118330599D01*
X176775777Y-118348777D01*
X176757599Y-118365253D01*
X176737893Y-118379868D01*
X176716850Y-118392480D01*
X176694671Y-118402970D01*
X176671572Y-118411235D01*
X176647773Y-118417196D01*
X176623505Y-118420796D01*
X176599001Y-118422000D01*
X175698999Y-118422000D01*
X175674495Y-118420796D01*
X175650227Y-118417196D01*
X175626428Y-118411235D01*
X175603329Y-118402970D01*
X175581150Y-118392480D01*
X175560107Y-118379868D01*
X175540401Y-118365253D01*
X175522223Y-118348777D01*
X175505747Y-118330599D01*
X175491132Y-118310893D01*
X175478520Y-118289850D01*
X175468030Y-118267671D01*
X175459765Y-118244572D01*
X175453804Y-118220773D01*
X175450204Y-118196505D01*
X175449000Y-118172001D01*
X175449000Y-117521999D01*
X175450204Y-117497495D01*
X175453804Y-117473227D01*
X175459765Y-117449428D01*
X175468030Y-117426329D01*
X175478520Y-117404150D01*
X175491132Y-117383107D01*
X175505747Y-117363401D01*
X175522223Y-117345223D01*
X175540401Y-117328747D01*
X175560107Y-117314132D01*
X175581150Y-117301520D01*
X175603329Y-117291030D01*
X175626428Y-117282765D01*
X175650227Y-117276804D01*
X175674495Y-117273204D01*
X175698999Y-117272000D01*
X176599001Y-117272000D01*
X176623505Y-117273204D01*
X176623505Y-117273204D01*
G37*
D11*
X176149000Y-117847000D03*
D10*
G36*
X179283505Y-113855204D02*
G01*
X179307773Y-113858804D01*
X179331572Y-113864765D01*
X179354671Y-113873030D01*
X179376850Y-113883520D01*
X179397893Y-113896132D01*
X179417599Y-113910747D01*
X179435777Y-113927223D01*
X179452253Y-113945401D01*
X179466868Y-113965107D01*
X179479480Y-113986150D01*
X179489970Y-114008329D01*
X179498235Y-114031428D01*
X179504196Y-114055227D01*
X179507796Y-114079495D01*
X179509000Y-114103999D01*
X179509000Y-115004001D01*
X179507796Y-115028505D01*
X179504196Y-115052773D01*
X179498235Y-115076572D01*
X179489970Y-115099671D01*
X179479480Y-115121850D01*
X179466868Y-115142893D01*
X179452253Y-115162599D01*
X179435777Y-115180777D01*
X179417599Y-115197253D01*
X179397893Y-115211868D01*
X179376850Y-115224480D01*
X179354671Y-115234970D01*
X179331572Y-115243235D01*
X179307773Y-115249196D01*
X179283505Y-115252796D01*
X179259001Y-115254000D01*
X178608999Y-115254000D01*
X178584495Y-115252796D01*
X178560227Y-115249196D01*
X178536428Y-115243235D01*
X178513329Y-115234970D01*
X178491150Y-115224480D01*
X178470107Y-115211868D01*
X178450401Y-115197253D01*
X178432223Y-115180777D01*
X178415747Y-115162599D01*
X178401132Y-115142893D01*
X178388520Y-115121850D01*
X178378030Y-115099671D01*
X178369765Y-115076572D01*
X178363804Y-115052773D01*
X178360204Y-115028505D01*
X178359000Y-115004001D01*
X178359000Y-114103999D01*
X178360204Y-114079495D01*
X178363804Y-114055227D01*
X178369765Y-114031428D01*
X178378030Y-114008329D01*
X178388520Y-113986150D01*
X178401132Y-113965107D01*
X178415747Y-113945401D01*
X178432223Y-113927223D01*
X178450401Y-113910747D01*
X178470107Y-113896132D01*
X178491150Y-113883520D01*
X178513329Y-113873030D01*
X178536428Y-113864765D01*
X178560227Y-113858804D01*
X178584495Y-113855204D01*
X178608999Y-113854000D01*
X179259001Y-113854000D01*
X179283505Y-113855204D01*
X179283505Y-113855204D01*
G37*
D11*
X178934000Y-114554000D03*
D10*
G36*
X181333505Y-113855204D02*
G01*
X181357773Y-113858804D01*
X181381572Y-113864765D01*
X181404671Y-113873030D01*
X181426850Y-113883520D01*
X181447893Y-113896132D01*
X181467599Y-113910747D01*
X181485777Y-113927223D01*
X181502253Y-113945401D01*
X181516868Y-113965107D01*
X181529480Y-113986150D01*
X181539970Y-114008329D01*
X181548235Y-114031428D01*
X181554196Y-114055227D01*
X181557796Y-114079495D01*
X181559000Y-114103999D01*
X181559000Y-115004001D01*
X181557796Y-115028505D01*
X181554196Y-115052773D01*
X181548235Y-115076572D01*
X181539970Y-115099671D01*
X181529480Y-115121850D01*
X181516868Y-115142893D01*
X181502253Y-115162599D01*
X181485777Y-115180777D01*
X181467599Y-115197253D01*
X181447893Y-115211868D01*
X181426850Y-115224480D01*
X181404671Y-115234970D01*
X181381572Y-115243235D01*
X181357773Y-115249196D01*
X181333505Y-115252796D01*
X181309001Y-115254000D01*
X180658999Y-115254000D01*
X180634495Y-115252796D01*
X180610227Y-115249196D01*
X180586428Y-115243235D01*
X180563329Y-115234970D01*
X180541150Y-115224480D01*
X180520107Y-115211868D01*
X180500401Y-115197253D01*
X180482223Y-115180777D01*
X180465747Y-115162599D01*
X180451132Y-115142893D01*
X180438520Y-115121850D01*
X180428030Y-115099671D01*
X180419765Y-115076572D01*
X180413804Y-115052773D01*
X180410204Y-115028505D01*
X180409000Y-115004001D01*
X180409000Y-114103999D01*
X180410204Y-114079495D01*
X180413804Y-114055227D01*
X180419765Y-114031428D01*
X180428030Y-114008329D01*
X180438520Y-113986150D01*
X180451132Y-113965107D01*
X180465747Y-113945401D01*
X180482223Y-113927223D01*
X180500401Y-113910747D01*
X180520107Y-113896132D01*
X180541150Y-113883520D01*
X180563329Y-113873030D01*
X180586428Y-113864765D01*
X180610227Y-113858804D01*
X180634495Y-113855204D01*
X180658999Y-113854000D01*
X181309001Y-113854000D01*
X181333505Y-113855204D01*
X181333505Y-113855204D01*
G37*
D11*
X180984000Y-114554000D03*
D10*
G36*
X181587505Y-122745204D02*
G01*
X181611773Y-122748804D01*
X181635572Y-122754765D01*
X181658671Y-122763030D01*
X181680850Y-122773520D01*
X181701893Y-122786132D01*
X181721599Y-122800747D01*
X181739777Y-122817223D01*
X181756253Y-122835401D01*
X181770868Y-122855107D01*
X181783480Y-122876150D01*
X181793970Y-122898329D01*
X181802235Y-122921428D01*
X181808196Y-122945227D01*
X181811796Y-122969495D01*
X181813000Y-122993999D01*
X181813000Y-123894001D01*
X181811796Y-123918505D01*
X181808196Y-123942773D01*
X181802235Y-123966572D01*
X181793970Y-123989671D01*
X181783480Y-124011850D01*
X181770868Y-124032893D01*
X181756253Y-124052599D01*
X181739777Y-124070777D01*
X181721599Y-124087253D01*
X181701893Y-124101868D01*
X181680850Y-124114480D01*
X181658671Y-124124970D01*
X181635572Y-124133235D01*
X181611773Y-124139196D01*
X181587505Y-124142796D01*
X181563001Y-124144000D01*
X180912999Y-124144000D01*
X180888495Y-124142796D01*
X180864227Y-124139196D01*
X180840428Y-124133235D01*
X180817329Y-124124970D01*
X180795150Y-124114480D01*
X180774107Y-124101868D01*
X180754401Y-124087253D01*
X180736223Y-124070777D01*
X180719747Y-124052599D01*
X180705132Y-124032893D01*
X180692520Y-124011850D01*
X180682030Y-123989671D01*
X180673765Y-123966572D01*
X180667804Y-123942773D01*
X180664204Y-123918505D01*
X180663000Y-123894001D01*
X180663000Y-122993999D01*
X180664204Y-122969495D01*
X180667804Y-122945227D01*
X180673765Y-122921428D01*
X180682030Y-122898329D01*
X180692520Y-122876150D01*
X180705132Y-122855107D01*
X180719747Y-122835401D01*
X180736223Y-122817223D01*
X180754401Y-122800747D01*
X180774107Y-122786132D01*
X180795150Y-122773520D01*
X180817329Y-122763030D01*
X180840428Y-122754765D01*
X180864227Y-122748804D01*
X180888495Y-122745204D01*
X180912999Y-122744000D01*
X181563001Y-122744000D01*
X181587505Y-122745204D01*
X181587505Y-122745204D01*
G37*
D11*
X181238000Y-123444000D03*
D10*
G36*
X179537505Y-122745204D02*
G01*
X179561773Y-122748804D01*
X179585572Y-122754765D01*
X179608671Y-122763030D01*
X179630850Y-122773520D01*
X179651893Y-122786132D01*
X179671599Y-122800747D01*
X179689777Y-122817223D01*
X179706253Y-122835401D01*
X179720868Y-122855107D01*
X179733480Y-122876150D01*
X179743970Y-122898329D01*
X179752235Y-122921428D01*
X179758196Y-122945227D01*
X179761796Y-122969495D01*
X179763000Y-122993999D01*
X179763000Y-123894001D01*
X179761796Y-123918505D01*
X179758196Y-123942773D01*
X179752235Y-123966572D01*
X179743970Y-123989671D01*
X179733480Y-124011850D01*
X179720868Y-124032893D01*
X179706253Y-124052599D01*
X179689777Y-124070777D01*
X179671599Y-124087253D01*
X179651893Y-124101868D01*
X179630850Y-124114480D01*
X179608671Y-124124970D01*
X179585572Y-124133235D01*
X179561773Y-124139196D01*
X179537505Y-124142796D01*
X179513001Y-124144000D01*
X178862999Y-124144000D01*
X178838495Y-124142796D01*
X178814227Y-124139196D01*
X178790428Y-124133235D01*
X178767329Y-124124970D01*
X178745150Y-124114480D01*
X178724107Y-124101868D01*
X178704401Y-124087253D01*
X178686223Y-124070777D01*
X178669747Y-124052599D01*
X178655132Y-124032893D01*
X178642520Y-124011850D01*
X178632030Y-123989671D01*
X178623765Y-123966572D01*
X178617804Y-123942773D01*
X178614204Y-123918505D01*
X178613000Y-123894001D01*
X178613000Y-122993999D01*
X178614204Y-122969495D01*
X178617804Y-122945227D01*
X178623765Y-122921428D01*
X178632030Y-122898329D01*
X178642520Y-122876150D01*
X178655132Y-122855107D01*
X178669747Y-122835401D01*
X178686223Y-122817223D01*
X178704401Y-122800747D01*
X178724107Y-122786132D01*
X178745150Y-122773520D01*
X178767329Y-122763030D01*
X178790428Y-122754765D01*
X178814227Y-122748804D01*
X178838495Y-122745204D01*
X178862999Y-122744000D01*
X179513001Y-122744000D01*
X179537505Y-122745204D01*
X179537505Y-122745204D01*
G37*
D11*
X179188000Y-123444000D03*
D10*
G36*
X171848305Y-102695204D02*
G01*
X171872573Y-102698804D01*
X171896372Y-102704765D01*
X171919471Y-102713030D01*
X171941650Y-102723520D01*
X171962693Y-102736132D01*
X171982399Y-102750747D01*
X172000577Y-102767223D01*
X172017053Y-102785401D01*
X172031668Y-102805107D01*
X172044280Y-102826150D01*
X172054770Y-102848329D01*
X172063035Y-102871428D01*
X172068996Y-102895227D01*
X172072596Y-102919495D01*
X172073800Y-102943999D01*
X172073800Y-103594001D01*
X172072596Y-103618505D01*
X172068996Y-103642773D01*
X172063035Y-103666572D01*
X172054770Y-103689671D01*
X172044280Y-103711850D01*
X172031668Y-103732893D01*
X172017053Y-103752599D01*
X172000577Y-103770777D01*
X171982399Y-103787253D01*
X171962693Y-103801868D01*
X171941650Y-103814480D01*
X171919471Y-103824970D01*
X171896372Y-103833235D01*
X171872573Y-103839196D01*
X171848305Y-103842796D01*
X171823801Y-103844000D01*
X170923799Y-103844000D01*
X170899295Y-103842796D01*
X170875027Y-103839196D01*
X170851228Y-103833235D01*
X170828129Y-103824970D01*
X170805950Y-103814480D01*
X170784907Y-103801868D01*
X170765201Y-103787253D01*
X170747023Y-103770777D01*
X170730547Y-103752599D01*
X170715932Y-103732893D01*
X170703320Y-103711850D01*
X170692830Y-103689671D01*
X170684565Y-103666572D01*
X170678604Y-103642773D01*
X170675004Y-103618505D01*
X170673800Y-103594001D01*
X170673800Y-102943999D01*
X170675004Y-102919495D01*
X170678604Y-102895227D01*
X170684565Y-102871428D01*
X170692830Y-102848329D01*
X170703320Y-102826150D01*
X170715932Y-102805107D01*
X170730547Y-102785401D01*
X170747023Y-102767223D01*
X170765201Y-102750747D01*
X170784907Y-102736132D01*
X170805950Y-102723520D01*
X170828129Y-102713030D01*
X170851228Y-102704765D01*
X170875027Y-102698804D01*
X170899295Y-102695204D01*
X170923799Y-102694000D01*
X171823801Y-102694000D01*
X171848305Y-102695204D01*
X171848305Y-102695204D01*
G37*
D11*
X171373800Y-103269000D03*
D10*
G36*
X171848305Y-100645204D02*
G01*
X171872573Y-100648804D01*
X171896372Y-100654765D01*
X171919471Y-100663030D01*
X171941650Y-100673520D01*
X171962693Y-100686132D01*
X171982399Y-100700747D01*
X172000577Y-100717223D01*
X172017053Y-100735401D01*
X172031668Y-100755107D01*
X172044280Y-100776150D01*
X172054770Y-100798329D01*
X172063035Y-100821428D01*
X172068996Y-100845227D01*
X172072596Y-100869495D01*
X172073800Y-100893999D01*
X172073800Y-101544001D01*
X172072596Y-101568505D01*
X172068996Y-101592773D01*
X172063035Y-101616572D01*
X172054770Y-101639671D01*
X172044280Y-101661850D01*
X172031668Y-101682893D01*
X172017053Y-101702599D01*
X172000577Y-101720777D01*
X171982399Y-101737253D01*
X171962693Y-101751868D01*
X171941650Y-101764480D01*
X171919471Y-101774970D01*
X171896372Y-101783235D01*
X171872573Y-101789196D01*
X171848305Y-101792796D01*
X171823801Y-101794000D01*
X170923799Y-101794000D01*
X170899295Y-101792796D01*
X170875027Y-101789196D01*
X170851228Y-101783235D01*
X170828129Y-101774970D01*
X170805950Y-101764480D01*
X170784907Y-101751868D01*
X170765201Y-101737253D01*
X170747023Y-101720777D01*
X170730547Y-101702599D01*
X170715932Y-101682893D01*
X170703320Y-101661850D01*
X170692830Y-101639671D01*
X170684565Y-101616572D01*
X170678604Y-101592773D01*
X170675004Y-101568505D01*
X170673800Y-101544001D01*
X170673800Y-100893999D01*
X170675004Y-100869495D01*
X170678604Y-100845227D01*
X170684565Y-100821428D01*
X170692830Y-100798329D01*
X170703320Y-100776150D01*
X170715932Y-100755107D01*
X170730547Y-100735401D01*
X170747023Y-100717223D01*
X170765201Y-100700747D01*
X170784907Y-100686132D01*
X170805950Y-100673520D01*
X170828129Y-100663030D01*
X170851228Y-100654765D01*
X170875027Y-100648804D01*
X170899295Y-100645204D01*
X170923799Y-100644000D01*
X171823801Y-100644000D01*
X171848305Y-100645204D01*
X171848305Y-100645204D01*
G37*
D11*
X171373800Y-101219000D03*
M02*
