%TF.GenerationSoftware,KiCad,Pcbnew,5.1.4*%
%TF.CreationDate,2019-11-11T17:18:17+01:00*%
%TF.ProjectId,shunt-board,7368756e-742d-4626-9f61-72642e6b6963,rev?*%
%TF.SameCoordinates,Original*%
%TF.FileFunction,Soldermask,Top*%
%TF.FilePolarity,Negative*%
%FSLAX46Y46*%
G04 Gerber Fmt 4.6, Leading zero omitted, Abs format (unit mm)*
G04 Created by KiCad (PCBNEW 5.1.4) date 2019-11-11 17:18:17*
%MOMM*%
%LPD*%
G04 APERTURE LIST*
%ADD10C,0.100000*%
G04 APERTURE END LIST*
D10*
G36*
X179581119Y-130600554D02*
G01*
X179593370Y-130601156D01*
X179611789Y-130601156D01*
X179634069Y-130603350D01*
X179718153Y-130620076D01*
X179739580Y-130626576D01*
X179818778Y-130659380D01*
X179824223Y-130662291D01*
X179824229Y-130662293D01*
X179833089Y-130667029D01*
X179833093Y-130667032D01*
X179838534Y-130669940D01*
X179909819Y-130717571D01*
X179927124Y-130731772D01*
X179987748Y-130792396D01*
X180001949Y-130809701D01*
X180049580Y-130880986D01*
X180052488Y-130886427D01*
X180052491Y-130886431D01*
X180057227Y-130895291D01*
X180057229Y-130895297D01*
X180060140Y-130900742D01*
X180092944Y-130979940D01*
X180099444Y-131001367D01*
X180116170Y-131085451D01*
X180118364Y-131107731D01*
X180118364Y-131126150D01*
X180118966Y-131138401D01*
X180120772Y-131156739D01*
X180120772Y-131644460D01*
X180119183Y-131660599D01*
X180116268Y-131670208D01*
X180111530Y-131679072D01*
X180105157Y-131686837D01*
X180092714Y-131697048D01*
X180082345Y-131703978D01*
X180065018Y-131721305D01*
X180051405Y-131741680D01*
X180042029Y-131764320D01*
X180037249Y-131788353D01*
X180037250Y-131812857D01*
X180042032Y-131836890D01*
X180051410Y-131859529D01*
X180065025Y-131879902D01*
X180082352Y-131897229D01*
X180092722Y-131904158D01*
X180105157Y-131914363D01*
X180111530Y-131922128D01*
X180116268Y-131930992D01*
X180119183Y-131940601D01*
X180120772Y-131956740D01*
X180120772Y-132444462D01*
X180118966Y-132462799D01*
X180118364Y-132475050D01*
X180118364Y-132493469D01*
X180116170Y-132515749D01*
X180099444Y-132599833D01*
X180092944Y-132621260D01*
X180060140Y-132700458D01*
X180057229Y-132705903D01*
X180057227Y-132705909D01*
X180052491Y-132714769D01*
X180052488Y-132714773D01*
X180049580Y-132720214D01*
X180001949Y-132791499D01*
X179987748Y-132808804D01*
X179927124Y-132869428D01*
X179909819Y-132883629D01*
X179838534Y-132931260D01*
X179833093Y-132934168D01*
X179833089Y-132934171D01*
X179824229Y-132938907D01*
X179824223Y-132938909D01*
X179818778Y-132941820D01*
X179739580Y-132974624D01*
X179718153Y-132981124D01*
X179634069Y-132997850D01*
X179611789Y-133000044D01*
X179593370Y-133000044D01*
X179581119Y-133000646D01*
X179562782Y-133002452D01*
X179075058Y-133002452D01*
X179056721Y-133000646D01*
X179044470Y-133000044D01*
X179026051Y-133000044D01*
X179003771Y-132997850D01*
X178919687Y-132981124D01*
X178898260Y-132974624D01*
X178819062Y-132941820D01*
X178813617Y-132938909D01*
X178813611Y-132938907D01*
X178804751Y-132934171D01*
X178804747Y-132934168D01*
X178799306Y-132931260D01*
X178728021Y-132883629D01*
X178710716Y-132869428D01*
X178650092Y-132808804D01*
X178635891Y-132791499D01*
X178588260Y-132720214D01*
X178585352Y-132714773D01*
X178585349Y-132714769D01*
X178580613Y-132705909D01*
X178580611Y-132705903D01*
X178577700Y-132700458D01*
X178544896Y-132621260D01*
X178538396Y-132599833D01*
X178521670Y-132515749D01*
X178519476Y-132493469D01*
X178519476Y-132475050D01*
X178518874Y-132462799D01*
X178517068Y-132444462D01*
X178517068Y-131956740D01*
X178518657Y-131940601D01*
X178521572Y-131930992D01*
X178526310Y-131922128D01*
X178532683Y-131914363D01*
X178545126Y-131904152D01*
X178555495Y-131897222D01*
X178572822Y-131879895D01*
X178586435Y-131859520D01*
X178595811Y-131836880D01*
X178600591Y-131812847D01*
X178600590Y-131788343D01*
X178595808Y-131764310D01*
X178586430Y-131741671D01*
X178572815Y-131721298D01*
X178555488Y-131703971D01*
X178545118Y-131697042D01*
X178532683Y-131686837D01*
X178526310Y-131679072D01*
X178521572Y-131670208D01*
X178518657Y-131660599D01*
X178517068Y-131644460D01*
X178517068Y-131156739D01*
X178518874Y-131138401D01*
X178519476Y-131126150D01*
X178519476Y-131107731D01*
X178521670Y-131085451D01*
X178538396Y-131001367D01*
X178544896Y-130979940D01*
X178577700Y-130900742D01*
X178580611Y-130895297D01*
X178580613Y-130895291D01*
X178585349Y-130886431D01*
X178585352Y-130886427D01*
X178588260Y-130880986D01*
X178635891Y-130809701D01*
X178650092Y-130792396D01*
X178710716Y-130731772D01*
X178728021Y-130717571D01*
X178799306Y-130669940D01*
X178804747Y-130667032D01*
X178804751Y-130667029D01*
X178813611Y-130662293D01*
X178813617Y-130662291D01*
X178819062Y-130659380D01*
X178898260Y-130626576D01*
X178919687Y-130620076D01*
X179003771Y-130603350D01*
X179026051Y-130601156D01*
X179044470Y-130601156D01*
X179056721Y-130600554D01*
X179075059Y-130598748D01*
X179562781Y-130598748D01*
X179581119Y-130600554D01*
X179581119Y-130600554D01*
G37*
G36*
X177564359Y-130600554D02*
G01*
X177576610Y-130601156D01*
X177595029Y-130601156D01*
X177617309Y-130603350D01*
X177701393Y-130620076D01*
X177722820Y-130626576D01*
X177802018Y-130659380D01*
X177807463Y-130662291D01*
X177807469Y-130662293D01*
X177816329Y-130667029D01*
X177816333Y-130667032D01*
X177821774Y-130669940D01*
X177893059Y-130717571D01*
X177910364Y-130731772D01*
X177970988Y-130792396D01*
X177985189Y-130809701D01*
X178032820Y-130880986D01*
X178035728Y-130886427D01*
X178035731Y-130886431D01*
X178040467Y-130895291D01*
X178040469Y-130895297D01*
X178043380Y-130900742D01*
X178076184Y-130979940D01*
X178082684Y-131001367D01*
X178099410Y-131085451D01*
X178101604Y-131107731D01*
X178101604Y-131126150D01*
X178102206Y-131138401D01*
X178104012Y-131156739D01*
X178104012Y-131644460D01*
X178102423Y-131660599D01*
X178099508Y-131670208D01*
X178094770Y-131679072D01*
X178088397Y-131686837D01*
X178075954Y-131697048D01*
X178065585Y-131703978D01*
X178048258Y-131721305D01*
X178034645Y-131741680D01*
X178025269Y-131764320D01*
X178020489Y-131788353D01*
X178020490Y-131812857D01*
X178025272Y-131836890D01*
X178034650Y-131859529D01*
X178048265Y-131879902D01*
X178065592Y-131897229D01*
X178075962Y-131904158D01*
X178088397Y-131914363D01*
X178094770Y-131922128D01*
X178099508Y-131930992D01*
X178102423Y-131940601D01*
X178104012Y-131956740D01*
X178104012Y-132444462D01*
X178102206Y-132462799D01*
X178101604Y-132475050D01*
X178101604Y-132493469D01*
X178099410Y-132515749D01*
X178082684Y-132599833D01*
X178076184Y-132621260D01*
X178043380Y-132700458D01*
X178040469Y-132705903D01*
X178040467Y-132705909D01*
X178035731Y-132714769D01*
X178035728Y-132714773D01*
X178032820Y-132720214D01*
X177985189Y-132791499D01*
X177970988Y-132808804D01*
X177910364Y-132869428D01*
X177893059Y-132883629D01*
X177821774Y-132931260D01*
X177816333Y-132934168D01*
X177816329Y-132934171D01*
X177807469Y-132938907D01*
X177807463Y-132938909D01*
X177802018Y-132941820D01*
X177722820Y-132974624D01*
X177701393Y-132981124D01*
X177617309Y-132997850D01*
X177595029Y-133000044D01*
X177576610Y-133000044D01*
X177564359Y-133000646D01*
X177546022Y-133002452D01*
X177058298Y-133002452D01*
X177039961Y-133000646D01*
X177027710Y-133000044D01*
X177009291Y-133000044D01*
X176987011Y-132997850D01*
X176902927Y-132981124D01*
X176881500Y-132974624D01*
X176802302Y-132941820D01*
X176796857Y-132938909D01*
X176796851Y-132938907D01*
X176787991Y-132934171D01*
X176787987Y-132934168D01*
X176782546Y-132931260D01*
X176711261Y-132883629D01*
X176693956Y-132869428D01*
X176633332Y-132808804D01*
X176619131Y-132791499D01*
X176571500Y-132720214D01*
X176568592Y-132714773D01*
X176568589Y-132714769D01*
X176563853Y-132705909D01*
X176563851Y-132705903D01*
X176560940Y-132700458D01*
X176528136Y-132621260D01*
X176521636Y-132599833D01*
X176504910Y-132515749D01*
X176502716Y-132493469D01*
X176502716Y-132475050D01*
X176502114Y-132462799D01*
X176500308Y-132444462D01*
X176500308Y-131956740D01*
X176501897Y-131940601D01*
X176504812Y-131930992D01*
X176509550Y-131922128D01*
X176515923Y-131914363D01*
X176528366Y-131904152D01*
X176538735Y-131897222D01*
X176556062Y-131879895D01*
X176569675Y-131859520D01*
X176579051Y-131836880D01*
X176583831Y-131812847D01*
X176583830Y-131788343D01*
X176579048Y-131764310D01*
X176569670Y-131741671D01*
X176556055Y-131721298D01*
X176538728Y-131703971D01*
X176528358Y-131697042D01*
X176515923Y-131686837D01*
X176509550Y-131679072D01*
X176504812Y-131670208D01*
X176501897Y-131660599D01*
X176500308Y-131644460D01*
X176500308Y-131156739D01*
X176502114Y-131138401D01*
X176502716Y-131126150D01*
X176502716Y-131107731D01*
X176504910Y-131085451D01*
X176521636Y-131001367D01*
X176528136Y-130979940D01*
X176560940Y-130900742D01*
X176563851Y-130895297D01*
X176563853Y-130895291D01*
X176568589Y-130886431D01*
X176568592Y-130886427D01*
X176571500Y-130880986D01*
X176619131Y-130809701D01*
X176633332Y-130792396D01*
X176693956Y-130731772D01*
X176711261Y-130717571D01*
X176782546Y-130669940D01*
X176787987Y-130667032D01*
X176787991Y-130667029D01*
X176796851Y-130662293D01*
X176796857Y-130662291D01*
X176802302Y-130659380D01*
X176881500Y-130626576D01*
X176902927Y-130620076D01*
X176987011Y-130603350D01*
X177009291Y-130601156D01*
X177027710Y-130601156D01*
X177039961Y-130600554D01*
X177058299Y-130598748D01*
X177546021Y-130598748D01*
X177564359Y-130600554D01*
X177564359Y-130600554D01*
G37*
G36*
X173551159Y-130600314D02*
G01*
X173563410Y-130600916D01*
X173581829Y-130600916D01*
X173604109Y-130603110D01*
X173688193Y-130619836D01*
X173709620Y-130626336D01*
X173788818Y-130659140D01*
X173794263Y-130662051D01*
X173794269Y-130662053D01*
X173803129Y-130666789D01*
X173803133Y-130666792D01*
X173808574Y-130669700D01*
X173879859Y-130717331D01*
X173897164Y-130731532D01*
X173957788Y-130792156D01*
X173971989Y-130809461D01*
X174019620Y-130880746D01*
X174022528Y-130886187D01*
X174022531Y-130886191D01*
X174027267Y-130895051D01*
X174027269Y-130895057D01*
X174030180Y-130900502D01*
X174062984Y-130979700D01*
X174069484Y-131001127D01*
X174086210Y-131085211D01*
X174088404Y-131107491D01*
X174088404Y-131125910D01*
X174089006Y-131138161D01*
X174090812Y-131156499D01*
X174090812Y-131644220D01*
X174089223Y-131660359D01*
X174086308Y-131669968D01*
X174081570Y-131678832D01*
X174075197Y-131686597D01*
X174062754Y-131696808D01*
X174052385Y-131703738D01*
X174035058Y-131721065D01*
X174021445Y-131741440D01*
X174012069Y-131764080D01*
X174007289Y-131788113D01*
X174007290Y-131812617D01*
X174012072Y-131836650D01*
X174021450Y-131859289D01*
X174035065Y-131879662D01*
X174052392Y-131896989D01*
X174062762Y-131903918D01*
X174075197Y-131914123D01*
X174081570Y-131921888D01*
X174086308Y-131930752D01*
X174089223Y-131940361D01*
X174090812Y-131956500D01*
X174090812Y-132444222D01*
X174089006Y-132462559D01*
X174088404Y-132474810D01*
X174088404Y-132493229D01*
X174086210Y-132515509D01*
X174069484Y-132599593D01*
X174062984Y-132621020D01*
X174030180Y-132700218D01*
X174027269Y-132705663D01*
X174027267Y-132705669D01*
X174022531Y-132714529D01*
X174022528Y-132714533D01*
X174019620Y-132719974D01*
X173971989Y-132791259D01*
X173957788Y-132808564D01*
X173897164Y-132869188D01*
X173879859Y-132883389D01*
X173808574Y-132931020D01*
X173803133Y-132933928D01*
X173803129Y-132933931D01*
X173794269Y-132938667D01*
X173794263Y-132938669D01*
X173788818Y-132941580D01*
X173709620Y-132974384D01*
X173688193Y-132980884D01*
X173604109Y-132997610D01*
X173581829Y-132999804D01*
X173563410Y-132999804D01*
X173551159Y-133000406D01*
X173532822Y-133002212D01*
X173045098Y-133002212D01*
X173026761Y-133000406D01*
X173014510Y-132999804D01*
X172996091Y-132999804D01*
X172973811Y-132997610D01*
X172889727Y-132980884D01*
X172868300Y-132974384D01*
X172789102Y-132941580D01*
X172783657Y-132938669D01*
X172783651Y-132938667D01*
X172774791Y-132933931D01*
X172774787Y-132933928D01*
X172769346Y-132931020D01*
X172698061Y-132883389D01*
X172680756Y-132869188D01*
X172620132Y-132808564D01*
X172605931Y-132791259D01*
X172558300Y-132719974D01*
X172555392Y-132714533D01*
X172555389Y-132714529D01*
X172550653Y-132705669D01*
X172550651Y-132705663D01*
X172547740Y-132700218D01*
X172514936Y-132621020D01*
X172508436Y-132599593D01*
X172491710Y-132515509D01*
X172489516Y-132493229D01*
X172489516Y-132474810D01*
X172488914Y-132462559D01*
X172487108Y-132444222D01*
X172487108Y-131956500D01*
X172488697Y-131940361D01*
X172491612Y-131930752D01*
X172496350Y-131921888D01*
X172502723Y-131914123D01*
X172515166Y-131903912D01*
X172525535Y-131896982D01*
X172542862Y-131879655D01*
X172556475Y-131859280D01*
X172565851Y-131836640D01*
X172570631Y-131812607D01*
X172570630Y-131788103D01*
X172565848Y-131764070D01*
X172556470Y-131741431D01*
X172542855Y-131721058D01*
X172525528Y-131703731D01*
X172515158Y-131696802D01*
X172502723Y-131686597D01*
X172496350Y-131678832D01*
X172491612Y-131669968D01*
X172488697Y-131660359D01*
X172487108Y-131644220D01*
X172487108Y-131156499D01*
X172488914Y-131138161D01*
X172489516Y-131125910D01*
X172489516Y-131107491D01*
X172491710Y-131085211D01*
X172508436Y-131001127D01*
X172514936Y-130979700D01*
X172547740Y-130900502D01*
X172550651Y-130895057D01*
X172550653Y-130895051D01*
X172555389Y-130886191D01*
X172555392Y-130886187D01*
X172558300Y-130880746D01*
X172605931Y-130809461D01*
X172620132Y-130792156D01*
X172680756Y-130731532D01*
X172698061Y-130717331D01*
X172769346Y-130669700D01*
X172774787Y-130666792D01*
X172774791Y-130666789D01*
X172783651Y-130662053D01*
X172783657Y-130662051D01*
X172789102Y-130659140D01*
X172868300Y-130626336D01*
X172889727Y-130619836D01*
X172973811Y-130603110D01*
X172996091Y-130600916D01*
X173014510Y-130600916D01*
X173026761Y-130600314D01*
X173045099Y-130598508D01*
X173532821Y-130598508D01*
X173551159Y-130600314D01*
X173551159Y-130600314D01*
G37*
G36*
X175562839Y-130595474D02*
G01*
X175575090Y-130596076D01*
X175593509Y-130596076D01*
X175615789Y-130598270D01*
X175699873Y-130614996D01*
X175721300Y-130621496D01*
X175800498Y-130654300D01*
X175805943Y-130657211D01*
X175805949Y-130657213D01*
X175814809Y-130661949D01*
X175814813Y-130661952D01*
X175820254Y-130664860D01*
X175891539Y-130712491D01*
X175908844Y-130726692D01*
X175969468Y-130787316D01*
X175983669Y-130804621D01*
X176031300Y-130875906D01*
X176034208Y-130881347D01*
X176034211Y-130881351D01*
X176038947Y-130890211D01*
X176038949Y-130890217D01*
X176041860Y-130895662D01*
X176074664Y-130974860D01*
X176081164Y-130996287D01*
X176097890Y-131080371D01*
X176100084Y-131102651D01*
X176100084Y-131121070D01*
X176100686Y-131133321D01*
X176102492Y-131151659D01*
X176102492Y-131639380D01*
X176100903Y-131655519D01*
X176097988Y-131665128D01*
X176093250Y-131673992D01*
X176086877Y-131681757D01*
X176074434Y-131691968D01*
X176064065Y-131698898D01*
X176046738Y-131716225D01*
X176033125Y-131736600D01*
X176023749Y-131759240D01*
X176018969Y-131783273D01*
X176018970Y-131807777D01*
X176023752Y-131831810D01*
X176033130Y-131854449D01*
X176046745Y-131874822D01*
X176064072Y-131892149D01*
X176074442Y-131899078D01*
X176086877Y-131909283D01*
X176093250Y-131917048D01*
X176097988Y-131925912D01*
X176100903Y-131935521D01*
X176102492Y-131951660D01*
X176102492Y-132439382D01*
X176100686Y-132457719D01*
X176100084Y-132469970D01*
X176100084Y-132488389D01*
X176097890Y-132510669D01*
X176081164Y-132594753D01*
X176074664Y-132616180D01*
X176041860Y-132695378D01*
X176038949Y-132700823D01*
X176038947Y-132700829D01*
X176034211Y-132709689D01*
X176034208Y-132709693D01*
X176031300Y-132715134D01*
X175983669Y-132786419D01*
X175969468Y-132803724D01*
X175908844Y-132864348D01*
X175891539Y-132878549D01*
X175820254Y-132926180D01*
X175814813Y-132929088D01*
X175814809Y-132929091D01*
X175805949Y-132933827D01*
X175805943Y-132933829D01*
X175800498Y-132936740D01*
X175721300Y-132969544D01*
X175699873Y-132976044D01*
X175615789Y-132992770D01*
X175593509Y-132994964D01*
X175575090Y-132994964D01*
X175562839Y-132995566D01*
X175544502Y-132997372D01*
X175056778Y-132997372D01*
X175038441Y-132995566D01*
X175026190Y-132994964D01*
X175007771Y-132994964D01*
X174985491Y-132992770D01*
X174901407Y-132976044D01*
X174879980Y-132969544D01*
X174800782Y-132936740D01*
X174795337Y-132933829D01*
X174795331Y-132933827D01*
X174786471Y-132929091D01*
X174786467Y-132929088D01*
X174781026Y-132926180D01*
X174709741Y-132878549D01*
X174692436Y-132864348D01*
X174631812Y-132803724D01*
X174617611Y-132786419D01*
X174569980Y-132715134D01*
X174567072Y-132709693D01*
X174567069Y-132709689D01*
X174562333Y-132700829D01*
X174562331Y-132700823D01*
X174559420Y-132695378D01*
X174526616Y-132616180D01*
X174520116Y-132594753D01*
X174503390Y-132510669D01*
X174501196Y-132488389D01*
X174501196Y-132469970D01*
X174500594Y-132457719D01*
X174498788Y-132439382D01*
X174498788Y-131951660D01*
X174500377Y-131935521D01*
X174503292Y-131925912D01*
X174508030Y-131917048D01*
X174514403Y-131909283D01*
X174526846Y-131899072D01*
X174537215Y-131892142D01*
X174554542Y-131874815D01*
X174568155Y-131854440D01*
X174577531Y-131831800D01*
X174582311Y-131807767D01*
X174582310Y-131783263D01*
X174577528Y-131759230D01*
X174568150Y-131736591D01*
X174554535Y-131716218D01*
X174537208Y-131698891D01*
X174526838Y-131691962D01*
X174514403Y-131681757D01*
X174508030Y-131673992D01*
X174503292Y-131665128D01*
X174500377Y-131655519D01*
X174498788Y-131639380D01*
X174498788Y-131151659D01*
X174500594Y-131133321D01*
X174501196Y-131121070D01*
X174501196Y-131102651D01*
X174503390Y-131080371D01*
X174520116Y-130996287D01*
X174526616Y-130974860D01*
X174559420Y-130895662D01*
X174562331Y-130890217D01*
X174562333Y-130890211D01*
X174567069Y-130881351D01*
X174567072Y-130881347D01*
X174569980Y-130875906D01*
X174617611Y-130804621D01*
X174631812Y-130787316D01*
X174692436Y-130726692D01*
X174709741Y-130712491D01*
X174781026Y-130664860D01*
X174786467Y-130661952D01*
X174786471Y-130661949D01*
X174795331Y-130657213D01*
X174795337Y-130657211D01*
X174800782Y-130654300D01*
X174879980Y-130621496D01*
X174901407Y-130614996D01*
X174985491Y-130598270D01*
X175007771Y-130596076D01*
X175026190Y-130596076D01*
X175038441Y-130595474D01*
X175056779Y-130593668D01*
X175544501Y-130593668D01*
X175562839Y-130595474D01*
X175562839Y-130595474D01*
G37*
G36*
X169932032Y-124128717D02*
G01*
X170237405Y-124255207D01*
X170669268Y-124434090D01*
X171332762Y-124877423D01*
X171897017Y-125441678D01*
X172340350Y-126105172D01*
X172388778Y-126222089D01*
X172645723Y-126842408D01*
X172801400Y-127625050D01*
X172801400Y-128423030D01*
X172645723Y-129205672D01*
X172519233Y-129511045D01*
X172340350Y-129942908D01*
X171897017Y-130606402D01*
X171332762Y-131170657D01*
X170669268Y-131613990D01*
X170306338Y-131764320D01*
X169932032Y-131919363D01*
X169149390Y-132075040D01*
X168351410Y-132075040D01*
X167568768Y-131919363D01*
X167194462Y-131764320D01*
X166831532Y-131613990D01*
X166168038Y-131170657D01*
X165603783Y-130606402D01*
X165160450Y-129942908D01*
X164981567Y-129511045D01*
X164855077Y-129205672D01*
X164699400Y-128423030D01*
X164699400Y-127625050D01*
X164855077Y-126842408D01*
X165112022Y-126222089D01*
X165160450Y-126105172D01*
X165603783Y-125441678D01*
X166168038Y-124877423D01*
X166831532Y-124434090D01*
X167263395Y-124255207D01*
X167568768Y-124128717D01*
X168351410Y-123973040D01*
X169149390Y-123973040D01*
X169932032Y-124128717D01*
X169932032Y-124128717D01*
G37*
G36*
X248341254Y-127603318D02*
G01*
X248698461Y-127751278D01*
X248714513Y-127757927D01*
X249050436Y-127982384D01*
X249336116Y-128268064D01*
X249494958Y-128505787D01*
X249560574Y-128603989D01*
X249715182Y-128977246D01*
X249794000Y-129373493D01*
X249794000Y-129777507D01*
X249715182Y-130173754D01*
X249628645Y-130382672D01*
X249560573Y-130547013D01*
X249336116Y-130882936D01*
X249050436Y-131168616D01*
X248714513Y-131393073D01*
X248714512Y-131393074D01*
X248714511Y-131393074D01*
X248341254Y-131547682D01*
X247945007Y-131626500D01*
X247540993Y-131626500D01*
X247144746Y-131547682D01*
X246771489Y-131393074D01*
X246771488Y-131393074D01*
X246771487Y-131393073D01*
X246435564Y-131168616D01*
X246149884Y-130882936D01*
X245925427Y-130547013D01*
X245857355Y-130382672D01*
X245770818Y-130173754D01*
X245692000Y-129777507D01*
X245692000Y-129373493D01*
X245770818Y-128977246D01*
X245925426Y-128603989D01*
X245991043Y-128505787D01*
X246149884Y-128268064D01*
X246435564Y-127982384D01*
X246771487Y-127757927D01*
X246787539Y-127751278D01*
X247144746Y-127603318D01*
X247540993Y-127524500D01*
X247945007Y-127524500D01*
X248341254Y-127603318D01*
X248341254Y-127603318D01*
G37*
G36*
X242041254Y-127603318D02*
G01*
X242398461Y-127751278D01*
X242414513Y-127757927D01*
X242750436Y-127982384D01*
X243036116Y-128268064D01*
X243194958Y-128505787D01*
X243260574Y-128603989D01*
X243415182Y-128977246D01*
X243494000Y-129373493D01*
X243494000Y-129777507D01*
X243415182Y-130173754D01*
X243328645Y-130382672D01*
X243260573Y-130547013D01*
X243036116Y-130882936D01*
X242750436Y-131168616D01*
X242414513Y-131393073D01*
X242414512Y-131393074D01*
X242414511Y-131393074D01*
X242041254Y-131547682D01*
X241645007Y-131626500D01*
X241240993Y-131626500D01*
X240844746Y-131547682D01*
X240471489Y-131393074D01*
X240471488Y-131393074D01*
X240471487Y-131393073D01*
X240135564Y-131168616D01*
X239849884Y-130882936D01*
X239625427Y-130547013D01*
X239557355Y-130382672D01*
X239470818Y-130173754D01*
X239392000Y-129777507D01*
X239392000Y-129373493D01*
X239470818Y-128977246D01*
X239625426Y-128603989D01*
X239691043Y-128505787D01*
X239849884Y-128268064D01*
X240135564Y-127982384D01*
X240471487Y-127757927D01*
X240487539Y-127751278D01*
X240844746Y-127603318D01*
X241240993Y-127524500D01*
X241645007Y-127524500D01*
X242041254Y-127603318D01*
X242041254Y-127603318D01*
G37*
G36*
X235741254Y-127603318D02*
G01*
X236098461Y-127751278D01*
X236114513Y-127757927D01*
X236450436Y-127982384D01*
X236736116Y-128268064D01*
X236894958Y-128505787D01*
X236960574Y-128603989D01*
X237115182Y-128977246D01*
X237194000Y-129373493D01*
X237194000Y-129777507D01*
X237115182Y-130173754D01*
X237028645Y-130382672D01*
X236960573Y-130547013D01*
X236736116Y-130882936D01*
X236450436Y-131168616D01*
X236114513Y-131393073D01*
X236114512Y-131393074D01*
X236114511Y-131393074D01*
X235741254Y-131547682D01*
X235345007Y-131626500D01*
X234940993Y-131626500D01*
X234544746Y-131547682D01*
X234171489Y-131393074D01*
X234171488Y-131393074D01*
X234171487Y-131393073D01*
X233835564Y-131168616D01*
X233549884Y-130882936D01*
X233325427Y-130547013D01*
X233257355Y-130382672D01*
X233170818Y-130173754D01*
X233092000Y-129777507D01*
X233092000Y-129373493D01*
X233170818Y-128977246D01*
X233325426Y-128603989D01*
X233391043Y-128505787D01*
X233549884Y-128268064D01*
X233835564Y-127982384D01*
X234171487Y-127757927D01*
X234187539Y-127751278D01*
X234544746Y-127603318D01*
X234940993Y-127524500D01*
X235345007Y-127524500D01*
X235741254Y-127603318D01*
X235741254Y-127603318D01*
G37*
G36*
X174756900Y-128376500D02*
G01*
X173654900Y-128376500D01*
X173654900Y-127274500D01*
X174756900Y-127274500D01*
X174756900Y-128376500D01*
X174756900Y-128376500D01*
G37*
G36*
X179781468Y-126895565D02*
G01*
X179820138Y-126907296D01*
X179855777Y-126926346D01*
X179887017Y-126951983D01*
X179912654Y-126983223D01*
X179931704Y-127018862D01*
X179943435Y-127057532D01*
X179948000Y-127103888D01*
X179948000Y-127755112D01*
X179943435Y-127801468D01*
X179931704Y-127840138D01*
X179912654Y-127875777D01*
X179887017Y-127907017D01*
X179855777Y-127932654D01*
X179820138Y-127951704D01*
X179781468Y-127963435D01*
X179735112Y-127968000D01*
X178658888Y-127968000D01*
X178612532Y-127963435D01*
X178573862Y-127951704D01*
X178538223Y-127932654D01*
X178506983Y-127907017D01*
X178481346Y-127875777D01*
X178462296Y-127840138D01*
X178450565Y-127801468D01*
X178446000Y-127755112D01*
X178446000Y-127103888D01*
X178450565Y-127057532D01*
X178462296Y-127018862D01*
X178481346Y-126983223D01*
X178506983Y-126951983D01*
X178538223Y-126926346D01*
X178573862Y-126907296D01*
X178612532Y-126895565D01*
X178658888Y-126891000D01*
X179735112Y-126891000D01*
X179781468Y-126895565D01*
X179781468Y-126895565D01*
G37*
G36*
X181813468Y-126895565D02*
G01*
X181852138Y-126907296D01*
X181887777Y-126926346D01*
X181919017Y-126951983D01*
X181944654Y-126983223D01*
X181963704Y-127018862D01*
X181975435Y-127057532D01*
X181980000Y-127103888D01*
X181980000Y-127755112D01*
X181975435Y-127801468D01*
X181963704Y-127840138D01*
X181944654Y-127875777D01*
X181919017Y-127907017D01*
X181887777Y-127932654D01*
X181852138Y-127951704D01*
X181813468Y-127963435D01*
X181767112Y-127968000D01*
X180690888Y-127968000D01*
X180644532Y-127963435D01*
X180605862Y-127951704D01*
X180570223Y-127932654D01*
X180538983Y-127907017D01*
X180513346Y-127875777D01*
X180494296Y-127840138D01*
X180482565Y-127801468D01*
X180478000Y-127755112D01*
X180478000Y-127103888D01*
X180482565Y-127057532D01*
X180494296Y-127018862D01*
X180513346Y-126983223D01*
X180538983Y-126951983D01*
X180570223Y-126926346D01*
X180605862Y-126907296D01*
X180644532Y-126895565D01*
X180690888Y-126891000D01*
X181767112Y-126891000D01*
X181813468Y-126895565D01*
X181813468Y-126895565D01*
G37*
G36*
X207328054Y-123626018D02*
G01*
X207701311Y-123780626D01*
X207701313Y-123780627D01*
X208037236Y-124005084D01*
X208322916Y-124290764D01*
X208516218Y-124580060D01*
X208547374Y-124626689D01*
X208701982Y-124999946D01*
X208780800Y-125396193D01*
X208780800Y-125800207D01*
X208701982Y-126196454D01*
X208547374Y-126569711D01*
X208547373Y-126569713D01*
X208322916Y-126905636D01*
X208037236Y-127191316D01*
X207701313Y-127415773D01*
X207701312Y-127415774D01*
X207701311Y-127415774D01*
X207328054Y-127570382D01*
X206931807Y-127649200D01*
X206527793Y-127649200D01*
X206131546Y-127570382D01*
X205758289Y-127415774D01*
X205758288Y-127415774D01*
X205758287Y-127415773D01*
X205422364Y-127191316D01*
X205136684Y-126905636D01*
X204912227Y-126569713D01*
X204912226Y-126569711D01*
X204757618Y-126196454D01*
X204678800Y-125800207D01*
X204678800Y-125396193D01*
X204757618Y-124999946D01*
X204912226Y-124626689D01*
X204943383Y-124580060D01*
X205136684Y-124290764D01*
X205422364Y-124005084D01*
X205758287Y-123780627D01*
X205758289Y-123780626D01*
X206131546Y-123626018D01*
X206527793Y-123547200D01*
X206931807Y-123547200D01*
X207328054Y-123626018D01*
X207328054Y-123626018D01*
G37*
G36*
X219928054Y-123626018D02*
G01*
X220301311Y-123780626D01*
X220301313Y-123780627D01*
X220637236Y-124005084D01*
X220922916Y-124290764D01*
X221116218Y-124580060D01*
X221147374Y-124626689D01*
X221301982Y-124999946D01*
X221380800Y-125396193D01*
X221380800Y-125800207D01*
X221301982Y-126196454D01*
X221147374Y-126569711D01*
X221147373Y-126569713D01*
X220922916Y-126905636D01*
X220637236Y-127191316D01*
X220301313Y-127415773D01*
X220301312Y-127415774D01*
X220301311Y-127415774D01*
X219928054Y-127570382D01*
X219531807Y-127649200D01*
X219127793Y-127649200D01*
X218731546Y-127570382D01*
X218358289Y-127415774D01*
X218358288Y-127415774D01*
X218358287Y-127415773D01*
X218022364Y-127191316D01*
X217736684Y-126905636D01*
X217512227Y-126569713D01*
X217512226Y-126569711D01*
X217357618Y-126196454D01*
X217278800Y-125800207D01*
X217278800Y-125396193D01*
X217357618Y-124999946D01*
X217512226Y-124626689D01*
X217543383Y-124580060D01*
X217736684Y-124290764D01*
X218022364Y-124005084D01*
X218358287Y-123780627D01*
X218358289Y-123780626D01*
X218731546Y-123626018D01*
X219127793Y-123547200D01*
X219531807Y-123547200D01*
X219928054Y-123626018D01*
X219928054Y-123626018D01*
G37*
G36*
X213628054Y-123626018D02*
G01*
X214001311Y-123780626D01*
X214001313Y-123780627D01*
X214337236Y-124005084D01*
X214622916Y-124290764D01*
X214816218Y-124580060D01*
X214847374Y-124626689D01*
X215001982Y-124999946D01*
X215080800Y-125396193D01*
X215080800Y-125800207D01*
X215001982Y-126196454D01*
X214847374Y-126569711D01*
X214847373Y-126569713D01*
X214622916Y-126905636D01*
X214337236Y-127191316D01*
X214001313Y-127415773D01*
X214001312Y-127415774D01*
X214001311Y-127415774D01*
X213628054Y-127570382D01*
X213231807Y-127649200D01*
X212827793Y-127649200D01*
X212431546Y-127570382D01*
X212058289Y-127415774D01*
X212058288Y-127415774D01*
X212058287Y-127415773D01*
X211722364Y-127191316D01*
X211436684Y-126905636D01*
X211212227Y-126569713D01*
X211212226Y-126569711D01*
X211057618Y-126196454D01*
X210978800Y-125800207D01*
X210978800Y-125396193D01*
X211057618Y-124999946D01*
X211212226Y-124626689D01*
X211243383Y-124580060D01*
X211436684Y-124290764D01*
X211722364Y-124005084D01*
X212058287Y-123780627D01*
X212058289Y-123780626D01*
X212431546Y-123626018D01*
X212827793Y-123547200D01*
X213231807Y-123547200D01*
X213628054Y-123626018D01*
X213628054Y-123626018D01*
G37*
G36*
X233168220Y-123601703D02*
G01*
X233202385Y-123612067D01*
X233233864Y-123628893D01*
X233261460Y-123651540D01*
X233284107Y-123679136D01*
X233300933Y-123710615D01*
X233311297Y-123744780D01*
X233315400Y-123786442D01*
X233315400Y-126860758D01*
X233311297Y-126902420D01*
X233300933Y-126936585D01*
X233284107Y-126968064D01*
X233261460Y-126995660D01*
X233233864Y-127018307D01*
X233202385Y-127035133D01*
X233168220Y-127045497D01*
X233126558Y-127049600D01*
X231877242Y-127049600D01*
X231835580Y-127045497D01*
X231801415Y-127035133D01*
X231769936Y-127018307D01*
X231742340Y-126995660D01*
X231719693Y-126968064D01*
X231702867Y-126936585D01*
X231692503Y-126902420D01*
X231688400Y-126860758D01*
X231688400Y-123786442D01*
X231692503Y-123744780D01*
X231702867Y-123710615D01*
X231719693Y-123679136D01*
X231742340Y-123651540D01*
X231769936Y-123628893D01*
X231801415Y-123612067D01*
X231835580Y-123601703D01*
X231877242Y-123597600D01*
X233126558Y-123597600D01*
X233168220Y-123601703D01*
X233168220Y-123601703D01*
G37*
G36*
X227193220Y-123601703D02*
G01*
X227227385Y-123612067D01*
X227258864Y-123628893D01*
X227286460Y-123651540D01*
X227309107Y-123679136D01*
X227325933Y-123710615D01*
X227336297Y-123744780D01*
X227340400Y-123786442D01*
X227340400Y-126860758D01*
X227336297Y-126902420D01*
X227325933Y-126936585D01*
X227309107Y-126968064D01*
X227286460Y-126995660D01*
X227258864Y-127018307D01*
X227227385Y-127035133D01*
X227193220Y-127045497D01*
X227151558Y-127049600D01*
X225902242Y-127049600D01*
X225860580Y-127045497D01*
X225826415Y-127035133D01*
X225794936Y-127018307D01*
X225767340Y-126995660D01*
X225744693Y-126968064D01*
X225727867Y-126936585D01*
X225717503Y-126902420D01*
X225713400Y-126860758D01*
X225713400Y-123786442D01*
X225717503Y-123744780D01*
X225727867Y-123710615D01*
X225744693Y-123679136D01*
X225767340Y-123651540D01*
X225794936Y-123628893D01*
X225826415Y-123612067D01*
X225860580Y-123601703D01*
X225902242Y-123597600D01*
X227151558Y-123597600D01*
X227193220Y-123601703D01*
X227193220Y-123601703D01*
G37*
G36*
X174761980Y-126281000D02*
G01*
X173659980Y-126281000D01*
X173659980Y-125179000D01*
X174761980Y-125179000D01*
X174761980Y-126281000D01*
X174761980Y-126281000D01*
G37*
G36*
X179781468Y-125020565D02*
G01*
X179820138Y-125032296D01*
X179855777Y-125051346D01*
X179887017Y-125076983D01*
X179912654Y-125108223D01*
X179931704Y-125143862D01*
X179943435Y-125182532D01*
X179948000Y-125228888D01*
X179948000Y-125880112D01*
X179943435Y-125926468D01*
X179931704Y-125965138D01*
X179912654Y-126000777D01*
X179887017Y-126032017D01*
X179855777Y-126057654D01*
X179820138Y-126076704D01*
X179781468Y-126088435D01*
X179735112Y-126093000D01*
X178658888Y-126093000D01*
X178612532Y-126088435D01*
X178573862Y-126076704D01*
X178538223Y-126057654D01*
X178506983Y-126032017D01*
X178481346Y-126000777D01*
X178462296Y-125965138D01*
X178450565Y-125926468D01*
X178446000Y-125880112D01*
X178446000Y-125228888D01*
X178450565Y-125182532D01*
X178462296Y-125143862D01*
X178481346Y-125108223D01*
X178506983Y-125076983D01*
X178538223Y-125051346D01*
X178573862Y-125032296D01*
X178612532Y-125020565D01*
X178658888Y-125016000D01*
X179735112Y-125016000D01*
X179781468Y-125020565D01*
X179781468Y-125020565D01*
G37*
G36*
X181813468Y-125020565D02*
G01*
X181852138Y-125032296D01*
X181887777Y-125051346D01*
X181919017Y-125076983D01*
X181944654Y-125108223D01*
X181963704Y-125143862D01*
X181975435Y-125182532D01*
X181980000Y-125228888D01*
X181980000Y-125880112D01*
X181975435Y-125926468D01*
X181963704Y-125965138D01*
X181944654Y-126000777D01*
X181919017Y-126032017D01*
X181887777Y-126057654D01*
X181852138Y-126076704D01*
X181813468Y-126088435D01*
X181767112Y-126093000D01*
X180690888Y-126093000D01*
X180644532Y-126088435D01*
X180605862Y-126076704D01*
X180570223Y-126057654D01*
X180538983Y-126032017D01*
X180513346Y-126000777D01*
X180494296Y-125965138D01*
X180482565Y-125926468D01*
X180478000Y-125880112D01*
X180478000Y-125228888D01*
X180482565Y-125182532D01*
X180494296Y-125143862D01*
X180513346Y-125108223D01*
X180538983Y-125076983D01*
X180570223Y-125051346D01*
X180605862Y-125032296D01*
X180644532Y-125020565D01*
X180690888Y-125016000D01*
X181767112Y-125016000D01*
X181813468Y-125020565D01*
X181813468Y-125020565D01*
G37*
G36*
X174756900Y-124205820D02*
G01*
X173654900Y-124205820D01*
X173654900Y-123103820D01*
X174756900Y-123103820D01*
X174756900Y-124205820D01*
X174756900Y-124205820D01*
G37*
G36*
X179651674Y-122697465D02*
G01*
X179689367Y-122708899D01*
X179724103Y-122727466D01*
X179754548Y-122752452D01*
X179779534Y-122782897D01*
X179798101Y-122817633D01*
X179809535Y-122855326D01*
X179814000Y-122900661D01*
X179814000Y-123987339D01*
X179809535Y-124032674D01*
X179798101Y-124070367D01*
X179779534Y-124105103D01*
X179754548Y-124135548D01*
X179724103Y-124160534D01*
X179689367Y-124179101D01*
X179651674Y-124190535D01*
X179606339Y-124195000D01*
X178769661Y-124195000D01*
X178724326Y-124190535D01*
X178686633Y-124179101D01*
X178651897Y-124160534D01*
X178621452Y-124135548D01*
X178596466Y-124105103D01*
X178577899Y-124070367D01*
X178566465Y-124032674D01*
X178562000Y-123987339D01*
X178562000Y-122900661D01*
X178566465Y-122855326D01*
X178577899Y-122817633D01*
X178596466Y-122782897D01*
X178621452Y-122752452D01*
X178651897Y-122727466D01*
X178686633Y-122708899D01*
X178724326Y-122697465D01*
X178769661Y-122693000D01*
X179606339Y-122693000D01*
X179651674Y-122697465D01*
X179651674Y-122697465D01*
G37*
G36*
X181701674Y-122697465D02*
G01*
X181739367Y-122708899D01*
X181774103Y-122727466D01*
X181804548Y-122752452D01*
X181829534Y-122782897D01*
X181848101Y-122817633D01*
X181859535Y-122855326D01*
X181864000Y-122900661D01*
X181864000Y-123987339D01*
X181859535Y-124032674D01*
X181848101Y-124070367D01*
X181829534Y-124105103D01*
X181804548Y-124135548D01*
X181774103Y-124160534D01*
X181739367Y-124179101D01*
X181701674Y-124190535D01*
X181656339Y-124195000D01*
X180819661Y-124195000D01*
X180774326Y-124190535D01*
X180736633Y-124179101D01*
X180701897Y-124160534D01*
X180671452Y-124135548D01*
X180646466Y-124105103D01*
X180627899Y-124070367D01*
X180616465Y-124032674D01*
X180612000Y-123987339D01*
X180612000Y-122900661D01*
X180616465Y-122855326D01*
X180627899Y-122817633D01*
X180646466Y-122782897D01*
X180671452Y-122752452D01*
X180701897Y-122727466D01*
X180736633Y-122708899D01*
X180774326Y-122697465D01*
X180819661Y-122693000D01*
X181656339Y-122693000D01*
X181701674Y-122697465D01*
X181701674Y-122697465D01*
G37*
G36*
X214160632Y-115230677D02*
G01*
X214340063Y-115305000D01*
X214897868Y-115536050D01*
X215561362Y-115979383D01*
X216125617Y-116543638D01*
X216568950Y-117207132D01*
X216692612Y-117505680D01*
X216874323Y-117944368D01*
X217030000Y-118727010D01*
X217030000Y-119524990D01*
X216874323Y-120307632D01*
X216761072Y-120581043D01*
X216568950Y-121044868D01*
X216125617Y-121708362D01*
X215561362Y-122272617D01*
X214897868Y-122715950D01*
X214547644Y-122861017D01*
X214160632Y-123021323D01*
X213377990Y-123177000D01*
X212580010Y-123177000D01*
X211797368Y-123021323D01*
X211410356Y-122861017D01*
X211060132Y-122715950D01*
X210396638Y-122272617D01*
X209832383Y-121708362D01*
X209389050Y-121044868D01*
X209196928Y-120581043D01*
X209083677Y-120307632D01*
X208928000Y-119524990D01*
X208928000Y-118727010D01*
X209083677Y-117944368D01*
X209265388Y-117505680D01*
X209389050Y-117207132D01*
X209832383Y-116543638D01*
X210396638Y-115979383D01*
X211060132Y-115536050D01*
X211617937Y-115305000D01*
X211797368Y-115230677D01*
X212580010Y-115075000D01*
X213377990Y-115075000D01*
X214160632Y-115230677D01*
X214160632Y-115230677D01*
G37*
G36*
X227183520Y-119588503D02*
G01*
X227217685Y-119598867D01*
X227249164Y-119615693D01*
X227276760Y-119638340D01*
X227299407Y-119665936D01*
X227316233Y-119697415D01*
X227326597Y-119731580D01*
X227330700Y-119773242D01*
X227330700Y-122847558D01*
X227326597Y-122889220D01*
X227316233Y-122923385D01*
X227299407Y-122954864D01*
X227276760Y-122982460D01*
X227249164Y-123005107D01*
X227217685Y-123021933D01*
X227183520Y-123032297D01*
X227141858Y-123036400D01*
X225892542Y-123036400D01*
X225850880Y-123032297D01*
X225816715Y-123021933D01*
X225785236Y-123005107D01*
X225757640Y-122982460D01*
X225734993Y-122954864D01*
X225718167Y-122923385D01*
X225707803Y-122889220D01*
X225703700Y-122847558D01*
X225703700Y-119773242D01*
X225707803Y-119731580D01*
X225718167Y-119697415D01*
X225734993Y-119665936D01*
X225757640Y-119638340D01*
X225785236Y-119615693D01*
X225816715Y-119598867D01*
X225850880Y-119588503D01*
X225892542Y-119584400D01*
X227141858Y-119584400D01*
X227183520Y-119588503D01*
X227183520Y-119588503D01*
G37*
G36*
X233158520Y-119588503D02*
G01*
X233192685Y-119598867D01*
X233224164Y-119615693D01*
X233251760Y-119638340D01*
X233274407Y-119665936D01*
X233291233Y-119697415D01*
X233301597Y-119731580D01*
X233305700Y-119773242D01*
X233305700Y-122847558D01*
X233301597Y-122889220D01*
X233291233Y-122923385D01*
X233274407Y-122954864D01*
X233251760Y-122982460D01*
X233224164Y-123005107D01*
X233192685Y-123021933D01*
X233158520Y-123032297D01*
X233116858Y-123036400D01*
X231867542Y-123036400D01*
X231825880Y-123032297D01*
X231791715Y-123021933D01*
X231760236Y-123005107D01*
X231732640Y-122982460D01*
X231709993Y-122954864D01*
X231693167Y-122923385D01*
X231682803Y-122889220D01*
X231678700Y-122847558D01*
X231678700Y-119773242D01*
X231682803Y-119731580D01*
X231693167Y-119697415D01*
X231709993Y-119665936D01*
X231732640Y-119638340D01*
X231760236Y-119615693D01*
X231791715Y-119598867D01*
X231825880Y-119588503D01*
X231867542Y-119584400D01*
X233116858Y-119584400D01*
X233158520Y-119588503D01*
X233158520Y-119588503D01*
G37*
G36*
X180373000Y-121877000D02*
G01*
X178021000Y-121877000D01*
X178021000Y-120675000D01*
X180373000Y-120675000D01*
X180373000Y-121877000D01*
X180373000Y-121877000D01*
G37*
G36*
X167773843Y-118798599D02*
G01*
X167840027Y-118805117D01*
X168009866Y-118856637D01*
X168166391Y-118940302D01*
X168202129Y-118969632D01*
X168303586Y-119052894D01*
X168386848Y-119154351D01*
X168416178Y-119190089D01*
X168499843Y-119346614D01*
X168551363Y-119516453D01*
X168568759Y-119693080D01*
X168551363Y-119869707D01*
X168499843Y-120039546D01*
X168416178Y-120196071D01*
X168386848Y-120231809D01*
X168303586Y-120333266D01*
X168202129Y-120416528D01*
X168166391Y-120445858D01*
X168009866Y-120529523D01*
X167840027Y-120581043D01*
X167773843Y-120587561D01*
X167707660Y-120594080D01*
X167369140Y-120594080D01*
X167302957Y-120587561D01*
X167236773Y-120581043D01*
X167066934Y-120529523D01*
X166910409Y-120445858D01*
X166874671Y-120416528D01*
X166773214Y-120333266D01*
X166689952Y-120231809D01*
X166660622Y-120196071D01*
X166576957Y-120039546D01*
X166525437Y-119869707D01*
X166508041Y-119693080D01*
X166525437Y-119516453D01*
X166576957Y-119346614D01*
X166660622Y-119190089D01*
X166689952Y-119154351D01*
X166773214Y-119052894D01*
X166874671Y-118969632D01*
X166910409Y-118940302D01*
X167066934Y-118856637D01*
X167236773Y-118805117D01*
X167302957Y-118798599D01*
X167369140Y-118792080D01*
X167707660Y-118792080D01*
X167773843Y-118798599D01*
X167773843Y-118798599D01*
G37*
G36*
X176737674Y-119275465D02*
G01*
X176775367Y-119286899D01*
X176810103Y-119305466D01*
X176840548Y-119330452D01*
X176865534Y-119360897D01*
X176884101Y-119395633D01*
X176895535Y-119433326D01*
X176900000Y-119478661D01*
X176900000Y-120315339D01*
X176895535Y-120360674D01*
X176884101Y-120398367D01*
X176865534Y-120433103D01*
X176840548Y-120463548D01*
X176810103Y-120488534D01*
X176775367Y-120507101D01*
X176737674Y-120518535D01*
X176692339Y-120523000D01*
X175605661Y-120523000D01*
X175560326Y-120518535D01*
X175522633Y-120507101D01*
X175487897Y-120488534D01*
X175457452Y-120463548D01*
X175432466Y-120433103D01*
X175413899Y-120398367D01*
X175402465Y-120360674D01*
X175398000Y-120315339D01*
X175398000Y-119478661D01*
X175402465Y-119433326D01*
X175413899Y-119395633D01*
X175432466Y-119360897D01*
X175457452Y-119330452D01*
X175487897Y-119305466D01*
X175522633Y-119286899D01*
X175560326Y-119275465D01*
X175605661Y-119271000D01*
X176692339Y-119271000D01*
X176737674Y-119275465D01*
X176737674Y-119275465D01*
G37*
G36*
X172001000Y-118661000D02*
G01*
X170899000Y-118661000D01*
X170899000Y-117559000D01*
X172001000Y-117559000D01*
X172001000Y-118661000D01*
X172001000Y-118661000D01*
G37*
G36*
X248341254Y-114603318D02*
G01*
X248714511Y-114757926D01*
X248714513Y-114757927D01*
X249050436Y-114982384D01*
X249336116Y-115268064D01*
X249510818Y-115529523D01*
X249560574Y-115603989D01*
X249715182Y-115977246D01*
X249794000Y-116373493D01*
X249794000Y-116777507D01*
X249715182Y-117173754D01*
X249582874Y-117493173D01*
X249560573Y-117547013D01*
X249336116Y-117882936D01*
X249050436Y-118168616D01*
X248714513Y-118393073D01*
X248714512Y-118393074D01*
X248714511Y-118393074D01*
X248341254Y-118547682D01*
X247945007Y-118626500D01*
X247540993Y-118626500D01*
X247144746Y-118547682D01*
X246771489Y-118393074D01*
X246771488Y-118393074D01*
X246771487Y-118393073D01*
X246435564Y-118168616D01*
X246149884Y-117882936D01*
X245925427Y-117547013D01*
X245903126Y-117493173D01*
X245770818Y-117173754D01*
X245692000Y-116777507D01*
X245692000Y-116373493D01*
X245770818Y-115977246D01*
X245925426Y-115603989D01*
X245975183Y-115529523D01*
X246149884Y-115268064D01*
X246435564Y-114982384D01*
X246771487Y-114757927D01*
X246771489Y-114757926D01*
X247144746Y-114603318D01*
X247540993Y-114524500D01*
X247945007Y-114524500D01*
X248341254Y-114603318D01*
X248341254Y-114603318D01*
G37*
G36*
X242041254Y-114603318D02*
G01*
X242414511Y-114757926D01*
X242414513Y-114757927D01*
X242750436Y-114982384D01*
X243036116Y-115268064D01*
X243210818Y-115529523D01*
X243260574Y-115603989D01*
X243415182Y-115977246D01*
X243494000Y-116373493D01*
X243494000Y-116777507D01*
X243415182Y-117173754D01*
X243282874Y-117493173D01*
X243260573Y-117547013D01*
X243036116Y-117882936D01*
X242750436Y-118168616D01*
X242414513Y-118393073D01*
X242414512Y-118393074D01*
X242414511Y-118393074D01*
X242041254Y-118547682D01*
X241645007Y-118626500D01*
X241240993Y-118626500D01*
X240844746Y-118547682D01*
X240471489Y-118393074D01*
X240471488Y-118393074D01*
X240471487Y-118393073D01*
X240135564Y-118168616D01*
X239849884Y-117882936D01*
X239625427Y-117547013D01*
X239603126Y-117493173D01*
X239470818Y-117173754D01*
X239392000Y-116777507D01*
X239392000Y-116373493D01*
X239470818Y-115977246D01*
X239625426Y-115603989D01*
X239675183Y-115529523D01*
X239849884Y-115268064D01*
X240135564Y-114982384D01*
X240471487Y-114757927D01*
X240471489Y-114757926D01*
X240844746Y-114603318D01*
X241240993Y-114524500D01*
X241645007Y-114524500D01*
X242041254Y-114603318D01*
X242041254Y-114603318D01*
G37*
G36*
X235741254Y-114603318D02*
G01*
X236114511Y-114757926D01*
X236114513Y-114757927D01*
X236450436Y-114982384D01*
X236736116Y-115268064D01*
X236910818Y-115529523D01*
X236960574Y-115603989D01*
X237115182Y-115977246D01*
X237194000Y-116373493D01*
X237194000Y-116777507D01*
X237115182Y-117173754D01*
X236982874Y-117493173D01*
X236960573Y-117547013D01*
X236736116Y-117882936D01*
X236450436Y-118168616D01*
X236114513Y-118393073D01*
X236114512Y-118393074D01*
X236114511Y-118393074D01*
X235741254Y-118547682D01*
X235345007Y-118626500D01*
X234940993Y-118626500D01*
X234544746Y-118547682D01*
X234171489Y-118393074D01*
X234171488Y-118393074D01*
X234171487Y-118393073D01*
X233835564Y-118168616D01*
X233549884Y-117882936D01*
X233325427Y-117547013D01*
X233303126Y-117493173D01*
X233170818Y-117173754D01*
X233092000Y-116777507D01*
X233092000Y-116373493D01*
X233170818Y-115977246D01*
X233325426Y-115603989D01*
X233375183Y-115529523D01*
X233549884Y-115268064D01*
X233835564Y-114982384D01*
X234171487Y-114757927D01*
X234171489Y-114757926D01*
X234544746Y-114603318D01*
X234940993Y-114524500D01*
X235345007Y-114524500D01*
X235741254Y-114603318D01*
X235741254Y-114603318D01*
G37*
G36*
X176737674Y-117225465D02*
G01*
X176775367Y-117236899D01*
X176810103Y-117255466D01*
X176840548Y-117280452D01*
X176865534Y-117310897D01*
X176884101Y-117345633D01*
X176895535Y-117383326D01*
X176900000Y-117428661D01*
X176900000Y-118265339D01*
X176895535Y-118310674D01*
X176884101Y-118348367D01*
X176865534Y-118383103D01*
X176840548Y-118413548D01*
X176810103Y-118438534D01*
X176775367Y-118457101D01*
X176737674Y-118468535D01*
X176692339Y-118473000D01*
X175605661Y-118473000D01*
X175560326Y-118468535D01*
X175522633Y-118457101D01*
X175487897Y-118438534D01*
X175457452Y-118413548D01*
X175432466Y-118383103D01*
X175413899Y-118348367D01*
X175402465Y-118310674D01*
X175398000Y-118265339D01*
X175398000Y-117428661D01*
X175402465Y-117383326D01*
X175413899Y-117345633D01*
X175432466Y-117310897D01*
X175457452Y-117280452D01*
X175487897Y-117255466D01*
X175522633Y-117236899D01*
X175560326Y-117225465D01*
X175605661Y-117221000D01*
X176692339Y-117221000D01*
X176737674Y-117225465D01*
X176737674Y-117225465D01*
G37*
G36*
X167773842Y-116298598D02*
G01*
X167840027Y-116305117D01*
X168009866Y-116356637D01*
X168009868Y-116356638D01*
X168088128Y-116398469D01*
X168166391Y-116440302D01*
X168202129Y-116469632D01*
X168303586Y-116552894D01*
X168364402Y-116627000D01*
X168416178Y-116690089D01*
X168499843Y-116846614D01*
X168551363Y-117016453D01*
X168568759Y-117193080D01*
X168551363Y-117369707D01*
X168499843Y-117539546D01*
X168416178Y-117696071D01*
X168386848Y-117731809D01*
X168303586Y-117833266D01*
X168202129Y-117916528D01*
X168166391Y-117945858D01*
X168009866Y-118029523D01*
X167840027Y-118081043D01*
X167773843Y-118087561D01*
X167707660Y-118094080D01*
X167369140Y-118094080D01*
X167302957Y-118087561D01*
X167236773Y-118081043D01*
X167066934Y-118029523D01*
X166910409Y-117945858D01*
X166874671Y-117916528D01*
X166773214Y-117833266D01*
X166689952Y-117731809D01*
X166660622Y-117696071D01*
X166576957Y-117539546D01*
X166525437Y-117369707D01*
X166508041Y-117193080D01*
X166525437Y-117016453D01*
X166576957Y-116846614D01*
X166660622Y-116690089D01*
X166712398Y-116627000D01*
X166773214Y-116552894D01*
X166874671Y-116469632D01*
X166910409Y-116440302D01*
X166988672Y-116398469D01*
X167066932Y-116356638D01*
X167066934Y-116356637D01*
X167236773Y-116305117D01*
X167302958Y-116298598D01*
X167369140Y-116292080D01*
X167707660Y-116292080D01*
X167773842Y-116298598D01*
X167773842Y-116298598D01*
G37*
G36*
X180373000Y-117577000D02*
G01*
X178021000Y-117577000D01*
X178021000Y-116375000D01*
X180373000Y-116375000D01*
X180373000Y-117577000D01*
X180373000Y-117577000D01*
G37*
G36*
X172001000Y-117137000D02*
G01*
X170899000Y-117137000D01*
X170899000Y-116035000D01*
X172001000Y-116035000D01*
X172001000Y-117137000D01*
X172001000Y-117137000D01*
G37*
G36*
X172001000Y-115613000D02*
G01*
X170899000Y-115613000D01*
X170899000Y-114511000D01*
X172001000Y-114511000D01*
X172001000Y-115613000D01*
X172001000Y-115613000D01*
G37*
G36*
X167773843Y-113798599D02*
G01*
X167840027Y-113805117D01*
X168009866Y-113856637D01*
X168166391Y-113940302D01*
X168188259Y-113958249D01*
X168303586Y-114052894D01*
X168386848Y-114154351D01*
X168416178Y-114190089D01*
X168499843Y-114346614D01*
X168551363Y-114516453D01*
X168568759Y-114693080D01*
X168551363Y-114869707D01*
X168499843Y-115039546D01*
X168416178Y-115196071D01*
X168392205Y-115225282D01*
X168303586Y-115333266D01*
X168202129Y-115416528D01*
X168166391Y-115445858D01*
X168009866Y-115529523D01*
X167840027Y-115581043D01*
X167773842Y-115587562D01*
X167707660Y-115594080D01*
X167369140Y-115594080D01*
X167302958Y-115587562D01*
X167236773Y-115581043D01*
X167066934Y-115529523D01*
X166910409Y-115445858D01*
X166874671Y-115416528D01*
X166773214Y-115333266D01*
X166684595Y-115225282D01*
X166660622Y-115196071D01*
X166576957Y-115039546D01*
X166525437Y-114869707D01*
X166508041Y-114693080D01*
X166525437Y-114516453D01*
X166576957Y-114346614D01*
X166660622Y-114190089D01*
X166689952Y-114154351D01*
X166773214Y-114052894D01*
X166888541Y-113958249D01*
X166910409Y-113940302D01*
X167066934Y-113856637D01*
X167236773Y-113805117D01*
X167302957Y-113798599D01*
X167369140Y-113792080D01*
X167707660Y-113792080D01*
X167773843Y-113798599D01*
X167773843Y-113798599D01*
G37*
G36*
X179397674Y-113807465D02*
G01*
X179435367Y-113818899D01*
X179470103Y-113837466D01*
X179500548Y-113862452D01*
X179525534Y-113892897D01*
X179544101Y-113927633D01*
X179555535Y-113965326D01*
X179560000Y-114010661D01*
X179560000Y-115097339D01*
X179555535Y-115142674D01*
X179544101Y-115180367D01*
X179525534Y-115215103D01*
X179500548Y-115245548D01*
X179470103Y-115270534D01*
X179435367Y-115289101D01*
X179397674Y-115300535D01*
X179352339Y-115305000D01*
X178515661Y-115305000D01*
X178470326Y-115300535D01*
X178432633Y-115289101D01*
X178397897Y-115270534D01*
X178367452Y-115245548D01*
X178342466Y-115215103D01*
X178323899Y-115180367D01*
X178312465Y-115142674D01*
X178308000Y-115097339D01*
X178308000Y-114010661D01*
X178312465Y-113965326D01*
X178323899Y-113927633D01*
X178342466Y-113892897D01*
X178367452Y-113862452D01*
X178397897Y-113837466D01*
X178432633Y-113818899D01*
X178470326Y-113807465D01*
X178515661Y-113803000D01*
X179352339Y-113803000D01*
X179397674Y-113807465D01*
X179397674Y-113807465D01*
G37*
G36*
X181447674Y-113807465D02*
G01*
X181485367Y-113818899D01*
X181520103Y-113837466D01*
X181550548Y-113862452D01*
X181575534Y-113892897D01*
X181594101Y-113927633D01*
X181605535Y-113965326D01*
X181610000Y-114010661D01*
X181610000Y-115097339D01*
X181605535Y-115142674D01*
X181594101Y-115180367D01*
X181575534Y-115215103D01*
X181550548Y-115245548D01*
X181520103Y-115270534D01*
X181485367Y-115289101D01*
X181447674Y-115300535D01*
X181402339Y-115305000D01*
X180565661Y-115305000D01*
X180520326Y-115300535D01*
X180482633Y-115289101D01*
X180447897Y-115270534D01*
X180417452Y-115245548D01*
X180392466Y-115215103D01*
X180373899Y-115180367D01*
X180362465Y-115142674D01*
X180358000Y-115097339D01*
X180358000Y-114010661D01*
X180362465Y-113965326D01*
X180373899Y-113927633D01*
X180392466Y-113892897D01*
X180417452Y-113862452D01*
X180447897Y-113837466D01*
X180482633Y-113818899D01*
X180520326Y-113807465D01*
X180565661Y-113803000D01*
X181402339Y-113803000D01*
X181447674Y-113807465D01*
X181447674Y-113807465D01*
G37*
G36*
X219928054Y-110626018D02*
G01*
X220155125Y-110720074D01*
X220301313Y-110780627D01*
X220637236Y-111005084D01*
X220922916Y-111290764D01*
X221098067Y-111552895D01*
X221147374Y-111626689D01*
X221301982Y-111999946D01*
X221380800Y-112396193D01*
X221380800Y-112800207D01*
X221301982Y-113196454D01*
X221147374Y-113569711D01*
X221147373Y-113569713D01*
X220922916Y-113905636D01*
X220637236Y-114191316D01*
X220301313Y-114415773D01*
X220301312Y-114415774D01*
X220301311Y-114415774D01*
X219928054Y-114570382D01*
X219531807Y-114649200D01*
X219127793Y-114649200D01*
X218731546Y-114570382D01*
X218358289Y-114415774D01*
X218358288Y-114415774D01*
X218358287Y-114415773D01*
X218022364Y-114191316D01*
X217736684Y-113905636D01*
X217512227Y-113569713D01*
X217512226Y-113569711D01*
X217357618Y-113196454D01*
X217278800Y-112800207D01*
X217278800Y-112396193D01*
X217357618Y-111999946D01*
X217512226Y-111626689D01*
X217561534Y-111552895D01*
X217736684Y-111290764D01*
X218022364Y-111005084D01*
X218358287Y-110780627D01*
X218504475Y-110720074D01*
X218731546Y-110626018D01*
X219127793Y-110547200D01*
X219531807Y-110547200D01*
X219928054Y-110626018D01*
X219928054Y-110626018D01*
G37*
G36*
X213628054Y-110626018D02*
G01*
X213855125Y-110720074D01*
X214001313Y-110780627D01*
X214337236Y-111005084D01*
X214622916Y-111290764D01*
X214798067Y-111552895D01*
X214847374Y-111626689D01*
X215001982Y-111999946D01*
X215080800Y-112396193D01*
X215080800Y-112800207D01*
X215001982Y-113196454D01*
X214847374Y-113569711D01*
X214847373Y-113569713D01*
X214622916Y-113905636D01*
X214337236Y-114191316D01*
X214001313Y-114415773D01*
X214001312Y-114415774D01*
X214001311Y-114415774D01*
X213628054Y-114570382D01*
X213231807Y-114649200D01*
X212827793Y-114649200D01*
X212431546Y-114570382D01*
X212058289Y-114415774D01*
X212058288Y-114415774D01*
X212058287Y-114415773D01*
X211722364Y-114191316D01*
X211436684Y-113905636D01*
X211212227Y-113569713D01*
X211212226Y-113569711D01*
X211057618Y-113196454D01*
X210978800Y-112800207D01*
X210978800Y-112396193D01*
X211057618Y-111999946D01*
X211212226Y-111626689D01*
X211261534Y-111552895D01*
X211436684Y-111290764D01*
X211722364Y-111005084D01*
X212058287Y-110780627D01*
X212204475Y-110720074D01*
X212431546Y-110626018D01*
X212827793Y-110547200D01*
X213231807Y-110547200D01*
X213628054Y-110626018D01*
X213628054Y-110626018D01*
G37*
G36*
X207328054Y-110626018D02*
G01*
X207555125Y-110720074D01*
X207701313Y-110780627D01*
X208037236Y-111005084D01*
X208322916Y-111290764D01*
X208498067Y-111552895D01*
X208547374Y-111626689D01*
X208701982Y-111999946D01*
X208780800Y-112396193D01*
X208780800Y-112800207D01*
X208701982Y-113196454D01*
X208547374Y-113569711D01*
X208547373Y-113569713D01*
X208322916Y-113905636D01*
X208037236Y-114191316D01*
X207701313Y-114415773D01*
X207701312Y-114415774D01*
X207701311Y-114415774D01*
X207328054Y-114570382D01*
X206931807Y-114649200D01*
X206527793Y-114649200D01*
X206131546Y-114570382D01*
X205758289Y-114415774D01*
X205758288Y-114415774D01*
X205758287Y-114415773D01*
X205422364Y-114191316D01*
X205136684Y-113905636D01*
X204912227Y-113569713D01*
X204912226Y-113569711D01*
X204757618Y-113196454D01*
X204678800Y-112800207D01*
X204678800Y-112396193D01*
X204757618Y-111999946D01*
X204912226Y-111626689D01*
X204961534Y-111552895D01*
X205136684Y-111290764D01*
X205422364Y-111005084D01*
X205758287Y-110780627D01*
X205904475Y-110720074D01*
X206131546Y-110626018D01*
X206527793Y-110547200D01*
X206931807Y-110547200D01*
X207328054Y-110626018D01*
X207328054Y-110626018D01*
G37*
G36*
X226597420Y-112500003D02*
G01*
X226631585Y-112510367D01*
X226663064Y-112527193D01*
X226690660Y-112549840D01*
X226713307Y-112577436D01*
X226730133Y-112608915D01*
X226740497Y-112643080D01*
X226744600Y-112684742D01*
X226744600Y-113934058D01*
X226740497Y-113975720D01*
X226730133Y-114009885D01*
X226713307Y-114041364D01*
X226690660Y-114068960D01*
X226663064Y-114091607D01*
X226631585Y-114108433D01*
X226597420Y-114118797D01*
X226555758Y-114122900D01*
X223481442Y-114122900D01*
X223439780Y-114118797D01*
X223405615Y-114108433D01*
X223374136Y-114091607D01*
X223346540Y-114068960D01*
X223323893Y-114041364D01*
X223307067Y-114009885D01*
X223296703Y-113975720D01*
X223292600Y-113934058D01*
X223292600Y-112684742D01*
X223296703Y-112643080D01*
X223307067Y-112608915D01*
X223323893Y-112577436D01*
X223346540Y-112549840D01*
X223374136Y-112527193D01*
X223405615Y-112510367D01*
X223439780Y-112500003D01*
X223481442Y-112495900D01*
X226555758Y-112495900D01*
X226597420Y-112500003D01*
X226597420Y-112500003D01*
G37*
G36*
X230559820Y-112490303D02*
G01*
X230593985Y-112500667D01*
X230625464Y-112517493D01*
X230653060Y-112540140D01*
X230675707Y-112567736D01*
X230692533Y-112599215D01*
X230702897Y-112633380D01*
X230707000Y-112675042D01*
X230707000Y-113924358D01*
X230702897Y-113966020D01*
X230692533Y-114000185D01*
X230675707Y-114031664D01*
X230653060Y-114059260D01*
X230625464Y-114081907D01*
X230593985Y-114098733D01*
X230559820Y-114109097D01*
X230518158Y-114113200D01*
X227443842Y-114113200D01*
X227402180Y-114109097D01*
X227368015Y-114098733D01*
X227336536Y-114081907D01*
X227308940Y-114059260D01*
X227286293Y-114031664D01*
X227269467Y-114000185D01*
X227259103Y-113966020D01*
X227255000Y-113924358D01*
X227255000Y-112675042D01*
X227259103Y-112633380D01*
X227269467Y-112599215D01*
X227286293Y-112567736D01*
X227308940Y-112540140D01*
X227336536Y-112517493D01*
X227368015Y-112500667D01*
X227402180Y-112490303D01*
X227443842Y-112486200D01*
X230518158Y-112486200D01*
X230559820Y-112490303D01*
X230559820Y-112490303D01*
G37*
G36*
X172001000Y-114089000D02*
G01*
X170899000Y-114089000D01*
X170899000Y-112987000D01*
X172001000Y-112987000D01*
X172001000Y-114089000D01*
X172001000Y-114089000D01*
G37*
G36*
X167773843Y-111298599D02*
G01*
X167840027Y-111305117D01*
X168009866Y-111356637D01*
X168166391Y-111440302D01*
X168194048Y-111463000D01*
X168303586Y-111552894D01*
X168364145Y-111626687D01*
X168416178Y-111690089D01*
X168499843Y-111846614D01*
X168551363Y-112016453D01*
X168568759Y-112193080D01*
X168551363Y-112369707D01*
X168499843Y-112539546D01*
X168499842Y-112539548D01*
X168499146Y-112540850D01*
X168416178Y-112696071D01*
X168386848Y-112731809D01*
X168303586Y-112833266D01*
X168218444Y-112903139D01*
X168166391Y-112945858D01*
X168009866Y-113029523D01*
X167840027Y-113081043D01*
X167773843Y-113087561D01*
X167707660Y-113094080D01*
X167369140Y-113094080D01*
X167302957Y-113087561D01*
X167236773Y-113081043D01*
X167066934Y-113029523D01*
X166910409Y-112945858D01*
X166858356Y-112903139D01*
X166773214Y-112833266D01*
X166689952Y-112731809D01*
X166660622Y-112696071D01*
X166577654Y-112540850D01*
X166576958Y-112539548D01*
X166576957Y-112539546D01*
X166525437Y-112369707D01*
X166508041Y-112193080D01*
X166525437Y-112016453D01*
X166576957Y-111846614D01*
X166660622Y-111690089D01*
X166712655Y-111626687D01*
X166773214Y-111552894D01*
X166882752Y-111463000D01*
X166910409Y-111440302D01*
X167066934Y-111356637D01*
X167236773Y-111305117D01*
X167302957Y-111298599D01*
X167369140Y-111292080D01*
X167707660Y-111292080D01*
X167773843Y-111298599D01*
X167773843Y-111298599D01*
G37*
G36*
X181559468Y-111909565D02*
G01*
X181598138Y-111921296D01*
X181633777Y-111940346D01*
X181665017Y-111965983D01*
X181690654Y-111997223D01*
X181709704Y-112032862D01*
X181721435Y-112071532D01*
X181726000Y-112117888D01*
X181726000Y-112769112D01*
X181721435Y-112815468D01*
X181709704Y-112854138D01*
X181690654Y-112889777D01*
X181665017Y-112921017D01*
X181633777Y-112946654D01*
X181598138Y-112965704D01*
X181559468Y-112977435D01*
X181513112Y-112982000D01*
X180436888Y-112982000D01*
X180390532Y-112977435D01*
X180351862Y-112965704D01*
X180316223Y-112946654D01*
X180284983Y-112921017D01*
X180259346Y-112889777D01*
X180240296Y-112854138D01*
X180228565Y-112815468D01*
X180224000Y-112769112D01*
X180224000Y-112117888D01*
X180228565Y-112071532D01*
X180240296Y-112032862D01*
X180259346Y-111997223D01*
X180284983Y-111965983D01*
X180316223Y-111940346D01*
X180351862Y-111921296D01*
X180390532Y-111909565D01*
X180436888Y-111905000D01*
X181513112Y-111905000D01*
X181559468Y-111909565D01*
X181559468Y-111909565D01*
G37*
G36*
X179273468Y-111909565D02*
G01*
X179312138Y-111921296D01*
X179347777Y-111940346D01*
X179379017Y-111965983D01*
X179404654Y-111997223D01*
X179423704Y-112032862D01*
X179435435Y-112071532D01*
X179440000Y-112117888D01*
X179440000Y-112769112D01*
X179435435Y-112815468D01*
X179423704Y-112854138D01*
X179404654Y-112889777D01*
X179379017Y-112921017D01*
X179347777Y-112946654D01*
X179312138Y-112965704D01*
X179273468Y-112977435D01*
X179227112Y-112982000D01*
X178150888Y-112982000D01*
X178104532Y-112977435D01*
X178065862Y-112965704D01*
X178030223Y-112946654D01*
X177998983Y-112921017D01*
X177973346Y-112889777D01*
X177954296Y-112854138D01*
X177942565Y-112815468D01*
X177938000Y-112769112D01*
X177938000Y-112117888D01*
X177942565Y-112071532D01*
X177954296Y-112032862D01*
X177973346Y-111997223D01*
X177998983Y-111965983D01*
X178030223Y-111940346D01*
X178065862Y-111921296D01*
X178104532Y-111909565D01*
X178150888Y-111905000D01*
X179227112Y-111905000D01*
X179273468Y-111909565D01*
X179273468Y-111909565D01*
G37*
G36*
X172001000Y-112565000D02*
G01*
X170899000Y-112565000D01*
X170899000Y-111463000D01*
X172001000Y-111463000D01*
X172001000Y-112565000D01*
X172001000Y-112565000D01*
G37*
G36*
X179273468Y-110034565D02*
G01*
X179312138Y-110046296D01*
X179347777Y-110065346D01*
X179379017Y-110090983D01*
X179404654Y-110122223D01*
X179423704Y-110157862D01*
X179435435Y-110196532D01*
X179440000Y-110242888D01*
X179440000Y-110894112D01*
X179435435Y-110940468D01*
X179423704Y-110979138D01*
X179404654Y-111014777D01*
X179379017Y-111046017D01*
X179347777Y-111071654D01*
X179312138Y-111090704D01*
X179273468Y-111102435D01*
X179227112Y-111107000D01*
X178150888Y-111107000D01*
X178104532Y-111102435D01*
X178065862Y-111090704D01*
X178030223Y-111071654D01*
X177998983Y-111046017D01*
X177973346Y-111014777D01*
X177954296Y-110979138D01*
X177942565Y-110940468D01*
X177938000Y-110894112D01*
X177938000Y-110242888D01*
X177942565Y-110196532D01*
X177954296Y-110157862D01*
X177973346Y-110122223D01*
X177998983Y-110090983D01*
X178030223Y-110065346D01*
X178065862Y-110046296D01*
X178104532Y-110034565D01*
X178150888Y-110030000D01*
X179227112Y-110030000D01*
X179273468Y-110034565D01*
X179273468Y-110034565D01*
G37*
G36*
X181559468Y-110034565D02*
G01*
X181598138Y-110046296D01*
X181633777Y-110065346D01*
X181665017Y-110090983D01*
X181690654Y-110122223D01*
X181709704Y-110157862D01*
X181721435Y-110196532D01*
X181726000Y-110242888D01*
X181726000Y-110894112D01*
X181721435Y-110940468D01*
X181709704Y-110979138D01*
X181690654Y-111014777D01*
X181665017Y-111046017D01*
X181633777Y-111071654D01*
X181598138Y-111090704D01*
X181559468Y-111102435D01*
X181513112Y-111107000D01*
X180436888Y-111107000D01*
X180390532Y-111102435D01*
X180351862Y-111090704D01*
X180316223Y-111071654D01*
X180284983Y-111046017D01*
X180259346Y-111014777D01*
X180240296Y-110979138D01*
X180228565Y-110940468D01*
X180224000Y-110894112D01*
X180224000Y-110242888D01*
X180228565Y-110196532D01*
X180240296Y-110157862D01*
X180259346Y-110122223D01*
X180284983Y-110090983D01*
X180316223Y-110065346D01*
X180351862Y-110046296D01*
X180390532Y-110034565D01*
X180436888Y-110030000D01*
X181513112Y-110030000D01*
X181559468Y-110034565D01*
X181559468Y-110034565D01*
G37*
G36*
X242265754Y-106930318D02*
G01*
X242639011Y-107084926D01*
X242639013Y-107084927D01*
X242974936Y-107309384D01*
X243260616Y-107595064D01*
X243484742Y-107930491D01*
X243485074Y-107930989D01*
X243639682Y-108304246D01*
X243718500Y-108700493D01*
X243718500Y-109104507D01*
X243639682Y-109500754D01*
X243486857Y-109869707D01*
X243485073Y-109874013D01*
X243260616Y-110209936D01*
X242974936Y-110495616D01*
X242639013Y-110720073D01*
X242639012Y-110720074D01*
X242639011Y-110720074D01*
X242265754Y-110874682D01*
X241869507Y-110953500D01*
X241465493Y-110953500D01*
X241069246Y-110874682D01*
X240695989Y-110720074D01*
X240695988Y-110720074D01*
X240695987Y-110720073D01*
X240360064Y-110495616D01*
X240074384Y-110209936D01*
X239849927Y-109874013D01*
X239848143Y-109869707D01*
X239695318Y-109500754D01*
X239616500Y-109104507D01*
X239616500Y-108700493D01*
X239695318Y-108304246D01*
X239849926Y-107930989D01*
X239850259Y-107930491D01*
X240074384Y-107595064D01*
X240360064Y-107309384D01*
X240695987Y-107084927D01*
X240695989Y-107084926D01*
X241069246Y-106930318D01*
X241465493Y-106851500D01*
X241869507Y-106851500D01*
X242265754Y-106930318D01*
X242265754Y-106930318D01*
G37*
G36*
X235965754Y-106930318D02*
G01*
X236339011Y-107084926D01*
X236339013Y-107084927D01*
X236674936Y-107309384D01*
X236960616Y-107595064D01*
X237184742Y-107930491D01*
X237185074Y-107930989D01*
X237339682Y-108304246D01*
X237418500Y-108700493D01*
X237418500Y-109104507D01*
X237339682Y-109500754D01*
X237186857Y-109869707D01*
X237185073Y-109874013D01*
X236960616Y-110209936D01*
X236674936Y-110495616D01*
X236339013Y-110720073D01*
X236339012Y-110720074D01*
X236339011Y-110720074D01*
X235965754Y-110874682D01*
X235569507Y-110953500D01*
X235165493Y-110953500D01*
X234769246Y-110874682D01*
X234395989Y-110720074D01*
X234395988Y-110720074D01*
X234395987Y-110720073D01*
X234060064Y-110495616D01*
X233774384Y-110209936D01*
X233549927Y-109874013D01*
X233548143Y-109869707D01*
X233395318Y-109500754D01*
X233316500Y-109104507D01*
X233316500Y-108700493D01*
X233395318Y-108304246D01*
X233549926Y-107930989D01*
X233550259Y-107930491D01*
X233774384Y-107595064D01*
X234060064Y-107309384D01*
X234395987Y-107084927D01*
X234395989Y-107084926D01*
X234769246Y-106930318D01*
X235165493Y-106851500D01*
X235569507Y-106851500D01*
X235965754Y-106930318D01*
X235965754Y-106930318D01*
G37*
G36*
X248565754Y-106930318D02*
G01*
X248939011Y-107084926D01*
X248939013Y-107084927D01*
X249274936Y-107309384D01*
X249560616Y-107595064D01*
X249784742Y-107930491D01*
X249785074Y-107930989D01*
X249939682Y-108304246D01*
X250018500Y-108700493D01*
X250018500Y-109104507D01*
X249939682Y-109500754D01*
X249786857Y-109869707D01*
X249785073Y-109874013D01*
X249560616Y-110209936D01*
X249274936Y-110495616D01*
X248939013Y-110720073D01*
X248939012Y-110720074D01*
X248939011Y-110720074D01*
X248565754Y-110874682D01*
X248169507Y-110953500D01*
X247765493Y-110953500D01*
X247369246Y-110874682D01*
X246995989Y-110720074D01*
X246995988Y-110720074D01*
X246995987Y-110720073D01*
X246660064Y-110495616D01*
X246374384Y-110209936D01*
X246149927Y-109874013D01*
X246148143Y-109869707D01*
X245995318Y-109500754D01*
X245916500Y-109104507D01*
X245916500Y-108700493D01*
X245995318Y-108304246D01*
X246149926Y-107930989D01*
X246150259Y-107930491D01*
X246374384Y-107595064D01*
X246660064Y-107309384D01*
X246995987Y-107084927D01*
X246995989Y-107084926D01*
X247369246Y-106930318D01*
X247765493Y-106851500D01*
X248169507Y-106851500D01*
X248565754Y-106930318D01*
X248565754Y-106930318D01*
G37*
G36*
X167773842Y-108798598D02*
G01*
X167840027Y-108805117D01*
X168009866Y-108856637D01*
X168166391Y-108940302D01*
X168200143Y-108968002D01*
X168303586Y-109052894D01*
X168368778Y-109132332D01*
X168416178Y-109190089D01*
X168499843Y-109346614D01*
X168551363Y-109516453D01*
X168568759Y-109693080D01*
X168551363Y-109869707D01*
X168499843Y-110039546D01*
X168416178Y-110196071D01*
X168404799Y-110209936D01*
X168303586Y-110333266D01*
X168226134Y-110396828D01*
X168166391Y-110445858D01*
X168009866Y-110529523D01*
X167840027Y-110581043D01*
X167773843Y-110587561D01*
X167707660Y-110594080D01*
X167369140Y-110594080D01*
X167302957Y-110587561D01*
X167236773Y-110581043D01*
X167066934Y-110529523D01*
X166910409Y-110445858D01*
X166850666Y-110396828D01*
X166773214Y-110333266D01*
X166672001Y-110209936D01*
X166660622Y-110196071D01*
X166576957Y-110039546D01*
X166525437Y-109869707D01*
X166508041Y-109693080D01*
X166525437Y-109516453D01*
X166576957Y-109346614D01*
X166660622Y-109190089D01*
X166708022Y-109132332D01*
X166773214Y-109052894D01*
X166876657Y-108968002D01*
X166910409Y-108940302D01*
X167066934Y-108856637D01*
X167236773Y-108805117D01*
X167302958Y-108798598D01*
X167369140Y-108792080D01*
X167707660Y-108792080D01*
X167773842Y-108798598D01*
X167773842Y-108798598D01*
G37*
G36*
X170103499Y-108927737D02*
G01*
X170113108Y-108930652D01*
X170121972Y-108935390D01*
X170129737Y-108941763D01*
X170139948Y-108954206D01*
X170146878Y-108964575D01*
X170164205Y-108981902D01*
X170184580Y-108995515D01*
X170207220Y-109004891D01*
X170231253Y-109009671D01*
X170255757Y-109009670D01*
X170279790Y-109004888D01*
X170302429Y-108995510D01*
X170322802Y-108981895D01*
X170340129Y-108964568D01*
X170347058Y-108954198D01*
X170357263Y-108941763D01*
X170365028Y-108935390D01*
X170373892Y-108930652D01*
X170383501Y-108927737D01*
X170399640Y-108926148D01*
X170887361Y-108926148D01*
X170905699Y-108927954D01*
X170917950Y-108928556D01*
X170936369Y-108928556D01*
X170958649Y-108930750D01*
X171042733Y-108947476D01*
X171064160Y-108953976D01*
X171143358Y-108986780D01*
X171148803Y-108989691D01*
X171148809Y-108989693D01*
X171157669Y-108994429D01*
X171157673Y-108994432D01*
X171163114Y-108997340D01*
X171234399Y-109044971D01*
X171251704Y-109059172D01*
X171312328Y-109119796D01*
X171326529Y-109137101D01*
X171374160Y-109208386D01*
X171377068Y-109213827D01*
X171377071Y-109213831D01*
X171381807Y-109222691D01*
X171381809Y-109222697D01*
X171384720Y-109228142D01*
X171417524Y-109307340D01*
X171424024Y-109328767D01*
X171440750Y-109412851D01*
X171442944Y-109435131D01*
X171442944Y-109453550D01*
X171443546Y-109465801D01*
X171445352Y-109484139D01*
X171445352Y-109971862D01*
X171443546Y-109990199D01*
X171442944Y-110002450D01*
X171442944Y-110020869D01*
X171440750Y-110043149D01*
X171424024Y-110127233D01*
X171417524Y-110148660D01*
X171384720Y-110227858D01*
X171381809Y-110233303D01*
X171381807Y-110233309D01*
X171377071Y-110242169D01*
X171377068Y-110242173D01*
X171374160Y-110247614D01*
X171326529Y-110318899D01*
X171312328Y-110336204D01*
X171251704Y-110396828D01*
X171234399Y-110411029D01*
X171163114Y-110458660D01*
X171157673Y-110461568D01*
X171157669Y-110461571D01*
X171148809Y-110466307D01*
X171148803Y-110466309D01*
X171143358Y-110469220D01*
X171064160Y-110502024D01*
X171042733Y-110508524D01*
X170958649Y-110525250D01*
X170936369Y-110527444D01*
X170917950Y-110527444D01*
X170905699Y-110528046D01*
X170887362Y-110529852D01*
X170399640Y-110529852D01*
X170383501Y-110528263D01*
X170373892Y-110525348D01*
X170365028Y-110520610D01*
X170357263Y-110514237D01*
X170347052Y-110501794D01*
X170340122Y-110491425D01*
X170322795Y-110474098D01*
X170302420Y-110460485D01*
X170279780Y-110451109D01*
X170255747Y-110446329D01*
X170231243Y-110446330D01*
X170207210Y-110451112D01*
X170184571Y-110460490D01*
X170164198Y-110474105D01*
X170146871Y-110491432D01*
X170139942Y-110501802D01*
X170129737Y-110514237D01*
X170121972Y-110520610D01*
X170113108Y-110525348D01*
X170103499Y-110528263D01*
X170087360Y-110529852D01*
X169599638Y-110529852D01*
X169581301Y-110528046D01*
X169569050Y-110527444D01*
X169550631Y-110527444D01*
X169528351Y-110525250D01*
X169444267Y-110508524D01*
X169422840Y-110502024D01*
X169343642Y-110469220D01*
X169338197Y-110466309D01*
X169338191Y-110466307D01*
X169329331Y-110461571D01*
X169329327Y-110461568D01*
X169323886Y-110458660D01*
X169252601Y-110411029D01*
X169235296Y-110396828D01*
X169174672Y-110336204D01*
X169160471Y-110318899D01*
X169112840Y-110247614D01*
X169109932Y-110242173D01*
X169109929Y-110242169D01*
X169105193Y-110233309D01*
X169105191Y-110233303D01*
X169102280Y-110227858D01*
X169069476Y-110148660D01*
X169062976Y-110127233D01*
X169046250Y-110043149D01*
X169044056Y-110020869D01*
X169044056Y-110002450D01*
X169043454Y-109990199D01*
X169041648Y-109971862D01*
X169041648Y-109484139D01*
X169043454Y-109465801D01*
X169044056Y-109453550D01*
X169044056Y-109435131D01*
X169046250Y-109412851D01*
X169062976Y-109328767D01*
X169069476Y-109307340D01*
X169102280Y-109228142D01*
X169105191Y-109222697D01*
X169105193Y-109222691D01*
X169109929Y-109213831D01*
X169109932Y-109213827D01*
X169112840Y-109208386D01*
X169160471Y-109137101D01*
X169174672Y-109119796D01*
X169235296Y-109059172D01*
X169252601Y-109044971D01*
X169323886Y-108997340D01*
X169329327Y-108994432D01*
X169329331Y-108994429D01*
X169338191Y-108989693D01*
X169338197Y-108989691D01*
X169343642Y-108986780D01*
X169422840Y-108953976D01*
X169444267Y-108947476D01*
X169528351Y-108930750D01*
X169550631Y-108928556D01*
X169569050Y-108928556D01*
X169581301Y-108927954D01*
X169599639Y-108926148D01*
X170087360Y-108926148D01*
X170103499Y-108927737D01*
X170103499Y-108927737D01*
G37*
G36*
X173080500Y-109771000D02*
G01*
X171978500Y-109771000D01*
X171978500Y-108669000D01*
X173080500Y-108669000D01*
X173080500Y-109771000D01*
X173080500Y-109771000D01*
G37*
G36*
X226597420Y-106525003D02*
G01*
X226631585Y-106535367D01*
X226663064Y-106552193D01*
X226690660Y-106574840D01*
X226713307Y-106602436D01*
X226730133Y-106633915D01*
X226740497Y-106668080D01*
X226744600Y-106709742D01*
X226744600Y-107959058D01*
X226740497Y-108000720D01*
X226730133Y-108034885D01*
X226713307Y-108066364D01*
X226690660Y-108093960D01*
X226663064Y-108116607D01*
X226631585Y-108133433D01*
X226597420Y-108143797D01*
X226555758Y-108147900D01*
X223481442Y-108147900D01*
X223439780Y-108143797D01*
X223405615Y-108133433D01*
X223374136Y-108116607D01*
X223346540Y-108093960D01*
X223323893Y-108066364D01*
X223307067Y-108034885D01*
X223296703Y-108000720D01*
X223292600Y-107959058D01*
X223292600Y-106709742D01*
X223296703Y-106668080D01*
X223307067Y-106633915D01*
X223323893Y-106602436D01*
X223346540Y-106574840D01*
X223374136Y-106552193D01*
X223405615Y-106535367D01*
X223439780Y-106525003D01*
X223481442Y-106520900D01*
X226555758Y-106520900D01*
X226597420Y-106525003D01*
X226597420Y-106525003D01*
G37*
G36*
X230559820Y-106515303D02*
G01*
X230593985Y-106525667D01*
X230625464Y-106542493D01*
X230653060Y-106565140D01*
X230675707Y-106592736D01*
X230692533Y-106624215D01*
X230702897Y-106658380D01*
X230707000Y-106700042D01*
X230707000Y-107949358D01*
X230702897Y-107991020D01*
X230692533Y-108025185D01*
X230675707Y-108056664D01*
X230653060Y-108084260D01*
X230625464Y-108106907D01*
X230593985Y-108123733D01*
X230559820Y-108134097D01*
X230518158Y-108138200D01*
X227443842Y-108138200D01*
X227402180Y-108134097D01*
X227368015Y-108123733D01*
X227336536Y-108106907D01*
X227308940Y-108084260D01*
X227286293Y-108056664D01*
X227269467Y-108025185D01*
X227259103Y-107991020D01*
X227255000Y-107949358D01*
X227255000Y-106700042D01*
X227259103Y-106658380D01*
X227269467Y-106624215D01*
X227286293Y-106592736D01*
X227308940Y-106565140D01*
X227336536Y-106542493D01*
X227368015Y-106525667D01*
X227402180Y-106515303D01*
X227443842Y-106511200D01*
X230518158Y-106511200D01*
X230559820Y-106515303D01*
X230559820Y-106515303D01*
G37*
G36*
X168422000Y-106296069D02*
G01*
X168455052Y-106306095D01*
X168485503Y-106322372D01*
X168512199Y-106344281D01*
X168534108Y-106370977D01*
X168550385Y-106401428D01*
X168560411Y-106434480D01*
X168564400Y-106474983D01*
X168564400Y-107911177D01*
X168560411Y-107951680D01*
X168550385Y-107984732D01*
X168534108Y-108015183D01*
X168512199Y-108041879D01*
X168485503Y-108063788D01*
X168455052Y-108080065D01*
X168422000Y-108090091D01*
X168381497Y-108094080D01*
X166695303Y-108094080D01*
X166654800Y-108090091D01*
X166621748Y-108080065D01*
X166591297Y-108063788D01*
X166564601Y-108041879D01*
X166542692Y-108015183D01*
X166526415Y-107984732D01*
X166516389Y-107951680D01*
X166512400Y-107911177D01*
X166512400Y-106474983D01*
X166516389Y-106434480D01*
X166526415Y-106401428D01*
X166542692Y-106370977D01*
X166564601Y-106344281D01*
X166591297Y-106322372D01*
X166621748Y-106306095D01*
X166654800Y-106296069D01*
X166695303Y-106292080D01*
X168381497Y-106292080D01*
X168422000Y-106296069D01*
X168422000Y-106296069D01*
G37*
G36*
X180245440Y-106792600D02*
G01*
X178643440Y-106792600D01*
X178643440Y-101690600D01*
X180245440Y-101690600D01*
X180245440Y-106792600D01*
X180245440Y-106792600D01*
G37*
G36*
X174345440Y-106792600D02*
G01*
X172743440Y-106792600D01*
X172743440Y-101690600D01*
X174345440Y-101690600D01*
X174345440Y-106792600D01*
X174345440Y-106792600D01*
G37*
G36*
X166256562Y-103407681D02*
G01*
X166291481Y-103418274D01*
X166323663Y-103435476D01*
X166351873Y-103458627D01*
X166375024Y-103486837D01*
X166392226Y-103519019D01*
X166402819Y-103553938D01*
X166407000Y-103596395D01*
X166407000Y-104737605D01*
X166402819Y-104780062D01*
X166392226Y-104814981D01*
X166375024Y-104847163D01*
X166351873Y-104875373D01*
X166323663Y-104898524D01*
X166291481Y-104915726D01*
X166256562Y-104926319D01*
X166214105Y-104930500D01*
X164747895Y-104930500D01*
X164705438Y-104926319D01*
X164670519Y-104915726D01*
X164638337Y-104898524D01*
X164610127Y-104875373D01*
X164586976Y-104847163D01*
X164569774Y-104814981D01*
X164559181Y-104780062D01*
X164555000Y-104737605D01*
X164555000Y-103596395D01*
X164559181Y-103553938D01*
X164569774Y-103519019D01*
X164586976Y-103486837D01*
X164610127Y-103458627D01*
X164638337Y-103435476D01*
X164670519Y-103418274D01*
X164705438Y-103407681D01*
X164747895Y-103403500D01*
X166214105Y-103403500D01*
X166256562Y-103407681D01*
X166256562Y-103407681D01*
G37*
G36*
X168228674Y-102765465D02*
G01*
X168266367Y-102776899D01*
X168301103Y-102795466D01*
X168331548Y-102820452D01*
X168356534Y-102850897D01*
X168375101Y-102885633D01*
X168386535Y-102923326D01*
X168391000Y-102968661D01*
X168391000Y-103805339D01*
X168386535Y-103850674D01*
X168375101Y-103888367D01*
X168356534Y-103923103D01*
X168331548Y-103953548D01*
X168301103Y-103978534D01*
X168266367Y-103997101D01*
X168228674Y-104008535D01*
X168183339Y-104013000D01*
X167096661Y-104013000D01*
X167051326Y-104008535D01*
X167013633Y-103997101D01*
X166978897Y-103978534D01*
X166948452Y-103953548D01*
X166923466Y-103923103D01*
X166904899Y-103888367D01*
X166893465Y-103850674D01*
X166889000Y-103805339D01*
X166889000Y-102968661D01*
X166893465Y-102923326D01*
X166904899Y-102885633D01*
X166923466Y-102850897D01*
X166948452Y-102820452D01*
X166978897Y-102795466D01*
X167013633Y-102776899D01*
X167051326Y-102765465D01*
X167096661Y-102761000D01*
X168183339Y-102761000D01*
X168228674Y-102765465D01*
X168228674Y-102765465D01*
G37*
G36*
X171962474Y-102647465D02*
G01*
X172000167Y-102658899D01*
X172034903Y-102677466D01*
X172065348Y-102702452D01*
X172090334Y-102732897D01*
X172108901Y-102767633D01*
X172120335Y-102805326D01*
X172124800Y-102850661D01*
X172124800Y-103687339D01*
X172120335Y-103732674D01*
X172108901Y-103770367D01*
X172090334Y-103805103D01*
X172065348Y-103835548D01*
X172034903Y-103860534D01*
X172000167Y-103879101D01*
X171962474Y-103890535D01*
X171917139Y-103895000D01*
X170830461Y-103895000D01*
X170785126Y-103890535D01*
X170747433Y-103879101D01*
X170712697Y-103860534D01*
X170682252Y-103835548D01*
X170657266Y-103805103D01*
X170638699Y-103770367D01*
X170627265Y-103732674D01*
X170622800Y-103687339D01*
X170622800Y-102850661D01*
X170627265Y-102805326D01*
X170638699Y-102767633D01*
X170657266Y-102732897D01*
X170682252Y-102702452D01*
X170712697Y-102677466D01*
X170747433Y-102658899D01*
X170785126Y-102647465D01*
X170830461Y-102643000D01*
X171917139Y-102643000D01*
X171962474Y-102647465D01*
X171962474Y-102647465D01*
G37*
G36*
X168228674Y-100715465D02*
G01*
X168266367Y-100726899D01*
X168301103Y-100745466D01*
X168331548Y-100770452D01*
X168356534Y-100800897D01*
X168375101Y-100835633D01*
X168386535Y-100873326D01*
X168391000Y-100918661D01*
X168391000Y-101755339D01*
X168386535Y-101800674D01*
X168375101Y-101838367D01*
X168356534Y-101873103D01*
X168331548Y-101903548D01*
X168301103Y-101928534D01*
X168266367Y-101947101D01*
X168228674Y-101958535D01*
X168183339Y-101963000D01*
X167096661Y-101963000D01*
X167051326Y-101958535D01*
X167013633Y-101947101D01*
X166978897Y-101928534D01*
X166948452Y-101903548D01*
X166923466Y-101873103D01*
X166904899Y-101838367D01*
X166893465Y-101800674D01*
X166889000Y-101755339D01*
X166889000Y-100918661D01*
X166893465Y-100873326D01*
X166904899Y-100835633D01*
X166923466Y-100800897D01*
X166948452Y-100770452D01*
X166978897Y-100745466D01*
X167013633Y-100726899D01*
X167051326Y-100715465D01*
X167096661Y-100711000D01*
X168183339Y-100711000D01*
X168228674Y-100715465D01*
X168228674Y-100715465D01*
G37*
G36*
X166256562Y-100432681D02*
G01*
X166291481Y-100443274D01*
X166323663Y-100460476D01*
X166351873Y-100483627D01*
X166375024Y-100511837D01*
X166392226Y-100544019D01*
X166402819Y-100578938D01*
X166407000Y-100621395D01*
X166407000Y-101762605D01*
X166402819Y-101805062D01*
X166392226Y-101839981D01*
X166375024Y-101872163D01*
X166351873Y-101900373D01*
X166323663Y-101923524D01*
X166291481Y-101940726D01*
X166256562Y-101951319D01*
X166214105Y-101955500D01*
X164747895Y-101955500D01*
X164705438Y-101951319D01*
X164670519Y-101940726D01*
X164638337Y-101923524D01*
X164610127Y-101900373D01*
X164586976Y-101872163D01*
X164569774Y-101839981D01*
X164559181Y-101805062D01*
X164555000Y-101762605D01*
X164555000Y-100621395D01*
X164559181Y-100578938D01*
X164569774Y-100544019D01*
X164586976Y-100511837D01*
X164610127Y-100483627D01*
X164638337Y-100460476D01*
X164670519Y-100443274D01*
X164705438Y-100432681D01*
X164747895Y-100428500D01*
X166214105Y-100428500D01*
X166256562Y-100432681D01*
X166256562Y-100432681D01*
G37*
G36*
X171962474Y-100597465D02*
G01*
X172000167Y-100608899D01*
X172034903Y-100627466D01*
X172065348Y-100652452D01*
X172090334Y-100682897D01*
X172108901Y-100717633D01*
X172120335Y-100755326D01*
X172124800Y-100800661D01*
X172124800Y-101637339D01*
X172120335Y-101682674D01*
X172108901Y-101720367D01*
X172090334Y-101755103D01*
X172065348Y-101785548D01*
X172034903Y-101810534D01*
X172000167Y-101829101D01*
X171962474Y-101840535D01*
X171917139Y-101845000D01*
X170830461Y-101845000D01*
X170785126Y-101840535D01*
X170747433Y-101829101D01*
X170712697Y-101810534D01*
X170682252Y-101785548D01*
X170657266Y-101755103D01*
X170638699Y-101720367D01*
X170627265Y-101682674D01*
X170622800Y-101637339D01*
X170622800Y-100800661D01*
X170627265Y-100755326D01*
X170638699Y-100717633D01*
X170657266Y-100682897D01*
X170682252Y-100652452D01*
X170712697Y-100627466D01*
X170747433Y-100608899D01*
X170785126Y-100597465D01*
X170830461Y-100593000D01*
X171917139Y-100593000D01*
X171962474Y-100597465D01*
X171962474Y-100597465D01*
G37*
G36*
X175959674Y-99532665D02*
G01*
X175997367Y-99544099D01*
X176032103Y-99562666D01*
X176062548Y-99587652D01*
X176087534Y-99618097D01*
X176106101Y-99652833D01*
X176117535Y-99690526D01*
X176122000Y-99735861D01*
X176122000Y-100822539D01*
X176117535Y-100867874D01*
X176106101Y-100905567D01*
X176087534Y-100940303D01*
X176062548Y-100970748D01*
X176032103Y-100995734D01*
X175997367Y-101014301D01*
X175959674Y-101025735D01*
X175914339Y-101030200D01*
X175077661Y-101030200D01*
X175032326Y-101025735D01*
X174994633Y-101014301D01*
X174959897Y-100995734D01*
X174929452Y-100970748D01*
X174904466Y-100940303D01*
X174885899Y-100905567D01*
X174874465Y-100867874D01*
X174870000Y-100822539D01*
X174870000Y-99735861D01*
X174874465Y-99690526D01*
X174885899Y-99652833D01*
X174904466Y-99618097D01*
X174929452Y-99587652D01*
X174959897Y-99562666D01*
X174994633Y-99544099D01*
X175032326Y-99532665D01*
X175077661Y-99528200D01*
X175914339Y-99528200D01*
X175959674Y-99532665D01*
X175959674Y-99532665D01*
G37*
G36*
X178009674Y-99532665D02*
G01*
X178047367Y-99544099D01*
X178082103Y-99562666D01*
X178112548Y-99587652D01*
X178137534Y-99618097D01*
X178156101Y-99652833D01*
X178167535Y-99690526D01*
X178172000Y-99735861D01*
X178172000Y-100822539D01*
X178167535Y-100867874D01*
X178156101Y-100905567D01*
X178137534Y-100940303D01*
X178112548Y-100970748D01*
X178082103Y-100995734D01*
X178047367Y-101014301D01*
X178009674Y-101025735D01*
X177964339Y-101030200D01*
X177127661Y-101030200D01*
X177082326Y-101025735D01*
X177044633Y-101014301D01*
X177009897Y-100995734D01*
X176979452Y-100970748D01*
X176954466Y-100940303D01*
X176935899Y-100905567D01*
X176924465Y-100867874D01*
X176920000Y-100822539D01*
X176920000Y-99735861D01*
X176924465Y-99690526D01*
X176935899Y-99652833D01*
X176954466Y-99618097D01*
X176979452Y-99587652D01*
X177009897Y-99562666D01*
X177044633Y-99544099D01*
X177082326Y-99532665D01*
X177127661Y-99528200D01*
X177964339Y-99528200D01*
X178009674Y-99532665D01*
X178009674Y-99532665D01*
G37*
G36*
X166256562Y-98454681D02*
G01*
X166291481Y-98465274D01*
X166323663Y-98482476D01*
X166351873Y-98505627D01*
X166375024Y-98533837D01*
X166392226Y-98566019D01*
X166402819Y-98600938D01*
X166407000Y-98643395D01*
X166407000Y-99784605D01*
X166402819Y-99827062D01*
X166392226Y-99861981D01*
X166375024Y-99894163D01*
X166351873Y-99922373D01*
X166323663Y-99945524D01*
X166291481Y-99962726D01*
X166256562Y-99973319D01*
X166214105Y-99977500D01*
X164747895Y-99977500D01*
X164705438Y-99973319D01*
X164670519Y-99962726D01*
X164638337Y-99945524D01*
X164610127Y-99922373D01*
X164586976Y-99894163D01*
X164569774Y-99861981D01*
X164559181Y-99827062D01*
X164555000Y-99784605D01*
X164555000Y-98643395D01*
X164559181Y-98600938D01*
X164569774Y-98566019D01*
X164586976Y-98533837D01*
X164610127Y-98505627D01*
X164638337Y-98482476D01*
X164670519Y-98465274D01*
X164705438Y-98454681D01*
X164747895Y-98450500D01*
X166214105Y-98450500D01*
X166256562Y-98454681D01*
X166256562Y-98454681D01*
G37*
G36*
X168165174Y-98002965D02*
G01*
X168202867Y-98014399D01*
X168237603Y-98032966D01*
X168268048Y-98057952D01*
X168293034Y-98088397D01*
X168311601Y-98123133D01*
X168323035Y-98160826D01*
X168327500Y-98206161D01*
X168327500Y-99042839D01*
X168323035Y-99088174D01*
X168311601Y-99125867D01*
X168293034Y-99160603D01*
X168268048Y-99191048D01*
X168237603Y-99216034D01*
X168202867Y-99234601D01*
X168165174Y-99246035D01*
X168119839Y-99250500D01*
X167033161Y-99250500D01*
X166987826Y-99246035D01*
X166950133Y-99234601D01*
X166915397Y-99216034D01*
X166884952Y-99191048D01*
X166859966Y-99160603D01*
X166841399Y-99125867D01*
X166829965Y-99088174D01*
X166825500Y-99042839D01*
X166825500Y-98206161D01*
X166829965Y-98160826D01*
X166841399Y-98123133D01*
X166859966Y-98088397D01*
X166884952Y-98057952D01*
X166915397Y-98032966D01*
X166950133Y-98014399D01*
X166987826Y-98002965D01*
X167033161Y-97998500D01*
X168119839Y-97998500D01*
X168165174Y-98002965D01*
X168165174Y-98002965D01*
G37*
G36*
X242265754Y-93930318D02*
G01*
X242639011Y-94084926D01*
X242639013Y-94084927D01*
X242974936Y-94309384D01*
X243260616Y-94595064D01*
X243476433Y-94918056D01*
X243485074Y-94930989D01*
X243639682Y-95304246D01*
X243718500Y-95700493D01*
X243718500Y-96104507D01*
X243639682Y-96500754D01*
X243486171Y-96871362D01*
X243485073Y-96874013D01*
X243260616Y-97209936D01*
X242974936Y-97495616D01*
X242639013Y-97720073D01*
X242639012Y-97720074D01*
X242639011Y-97720074D01*
X242265754Y-97874682D01*
X241869507Y-97953500D01*
X241465493Y-97953500D01*
X241069246Y-97874682D01*
X240695989Y-97720074D01*
X240695988Y-97720074D01*
X240695987Y-97720073D01*
X240360064Y-97495616D01*
X240074384Y-97209936D01*
X239849927Y-96874013D01*
X239848829Y-96871362D01*
X239695318Y-96500754D01*
X239616500Y-96104507D01*
X239616500Y-95700493D01*
X239695318Y-95304246D01*
X239849926Y-94930989D01*
X239858568Y-94918056D01*
X240074384Y-94595064D01*
X240360064Y-94309384D01*
X240695987Y-94084927D01*
X240695989Y-94084926D01*
X241069246Y-93930318D01*
X241465493Y-93851500D01*
X241869507Y-93851500D01*
X242265754Y-93930318D01*
X242265754Y-93930318D01*
G37*
G36*
X248565754Y-93930318D02*
G01*
X248939011Y-94084926D01*
X248939013Y-94084927D01*
X249274936Y-94309384D01*
X249560616Y-94595064D01*
X249776433Y-94918056D01*
X249785074Y-94930989D01*
X249939682Y-95304246D01*
X250018500Y-95700493D01*
X250018500Y-96104507D01*
X249939682Y-96500754D01*
X249786171Y-96871362D01*
X249785073Y-96874013D01*
X249560616Y-97209936D01*
X249274936Y-97495616D01*
X248939013Y-97720073D01*
X248939012Y-97720074D01*
X248939011Y-97720074D01*
X248565754Y-97874682D01*
X248169507Y-97953500D01*
X247765493Y-97953500D01*
X247369246Y-97874682D01*
X246995989Y-97720074D01*
X246995988Y-97720074D01*
X246995987Y-97720073D01*
X246660064Y-97495616D01*
X246374384Y-97209936D01*
X246149927Y-96874013D01*
X246148829Y-96871362D01*
X245995318Y-96500754D01*
X245916500Y-96104507D01*
X245916500Y-95700493D01*
X245995318Y-95304246D01*
X246149926Y-94930989D01*
X246158568Y-94918056D01*
X246374384Y-94595064D01*
X246660064Y-94309384D01*
X246995987Y-94084927D01*
X246995989Y-94084926D01*
X247369246Y-93930318D01*
X247765493Y-93851500D01*
X248169507Y-93851500D01*
X248565754Y-93930318D01*
X248565754Y-93930318D01*
G37*
G36*
X235965754Y-93930318D02*
G01*
X236339011Y-94084926D01*
X236339013Y-94084927D01*
X236674936Y-94309384D01*
X236960616Y-94595064D01*
X237176433Y-94918056D01*
X237185074Y-94930989D01*
X237339682Y-95304246D01*
X237418500Y-95700493D01*
X237418500Y-96104507D01*
X237339682Y-96500754D01*
X237186171Y-96871362D01*
X237185073Y-96874013D01*
X236960616Y-97209936D01*
X236674936Y-97495616D01*
X236339013Y-97720073D01*
X236339012Y-97720074D01*
X236339011Y-97720074D01*
X235965754Y-97874682D01*
X235569507Y-97953500D01*
X235165493Y-97953500D01*
X234769246Y-97874682D01*
X234395989Y-97720074D01*
X234395988Y-97720074D01*
X234395987Y-97720073D01*
X234060064Y-97495616D01*
X233774384Y-97209936D01*
X233549927Y-96874013D01*
X233548829Y-96871362D01*
X233395318Y-96500754D01*
X233316500Y-96104507D01*
X233316500Y-95700493D01*
X233395318Y-95304246D01*
X233549926Y-94930989D01*
X233558568Y-94918056D01*
X233774384Y-94595064D01*
X234060064Y-94309384D01*
X234395987Y-94084927D01*
X234395989Y-94084926D01*
X234769246Y-93930318D01*
X235165493Y-93851500D01*
X235569507Y-93851500D01*
X235965754Y-93930318D01*
X235965754Y-93930318D01*
G37*
G36*
X173268908Y-96781325D02*
G01*
X173307578Y-96793056D01*
X173343217Y-96812106D01*
X173374457Y-96837743D01*
X173400094Y-96868983D01*
X173419144Y-96904622D01*
X173430875Y-96943292D01*
X173435440Y-96989648D01*
X173435440Y-97640872D01*
X173430875Y-97687228D01*
X173419144Y-97725898D01*
X173400094Y-97761537D01*
X173374457Y-97792777D01*
X173343217Y-97818414D01*
X173307578Y-97837464D01*
X173268908Y-97849195D01*
X173222552Y-97853760D01*
X172146328Y-97853760D01*
X172099972Y-97849195D01*
X172061302Y-97837464D01*
X172025663Y-97818414D01*
X171994423Y-97792777D01*
X171968786Y-97761537D01*
X171949736Y-97725898D01*
X171938005Y-97687228D01*
X171933440Y-97640872D01*
X171933440Y-96989648D01*
X171938005Y-96943292D01*
X171949736Y-96904622D01*
X171968786Y-96868983D01*
X171994423Y-96837743D01*
X172025663Y-96812106D01*
X172061302Y-96793056D01*
X172099972Y-96781325D01*
X172146328Y-96776760D01*
X173222552Y-96776760D01*
X173268908Y-96781325D01*
X173268908Y-96781325D01*
G37*
G36*
X202514468Y-96748065D02*
G01*
X202553138Y-96759796D01*
X202588777Y-96778846D01*
X202620017Y-96804483D01*
X202645654Y-96835723D01*
X202664704Y-96871362D01*
X202676435Y-96910032D01*
X202681000Y-96956388D01*
X202681000Y-97607612D01*
X202676435Y-97653968D01*
X202664704Y-97692638D01*
X202645654Y-97728277D01*
X202620017Y-97759517D01*
X202588777Y-97785154D01*
X202553138Y-97804204D01*
X202514468Y-97815935D01*
X202468112Y-97820500D01*
X201391888Y-97820500D01*
X201345532Y-97815935D01*
X201306862Y-97804204D01*
X201271223Y-97785154D01*
X201239983Y-97759517D01*
X201214346Y-97728277D01*
X201195296Y-97692638D01*
X201183565Y-97653968D01*
X201179000Y-97607612D01*
X201179000Y-96956388D01*
X201183565Y-96910032D01*
X201195296Y-96871362D01*
X201214346Y-96835723D01*
X201239983Y-96804483D01*
X201271223Y-96778846D01*
X201306862Y-96759796D01*
X201345532Y-96748065D01*
X201391888Y-96743500D01*
X202468112Y-96743500D01*
X202514468Y-96748065D01*
X202514468Y-96748065D01*
G37*
G36*
X168165174Y-95952965D02*
G01*
X168202867Y-95964399D01*
X168237603Y-95982966D01*
X168268048Y-96007952D01*
X168293034Y-96038397D01*
X168311601Y-96073133D01*
X168323035Y-96110826D01*
X168327500Y-96156161D01*
X168327500Y-96992839D01*
X168323035Y-97038174D01*
X168311601Y-97075867D01*
X168293034Y-97110603D01*
X168268048Y-97141048D01*
X168237603Y-97166034D01*
X168202867Y-97184601D01*
X168165174Y-97196035D01*
X168119839Y-97200500D01*
X167033161Y-97200500D01*
X166987826Y-97196035D01*
X166950133Y-97184601D01*
X166915397Y-97166034D01*
X166884952Y-97141048D01*
X166859966Y-97110603D01*
X166841399Y-97075867D01*
X166829965Y-97038174D01*
X166825500Y-96992839D01*
X166825500Y-96156161D01*
X166829965Y-96110826D01*
X166841399Y-96073133D01*
X166859966Y-96038397D01*
X166884952Y-96007952D01*
X166915397Y-95982966D01*
X166950133Y-95964399D01*
X166987826Y-95952965D01*
X167033161Y-95948500D01*
X168119839Y-95948500D01*
X168165174Y-95952965D01*
X168165174Y-95952965D01*
G37*
G36*
X166256562Y-95479681D02*
G01*
X166291481Y-95490274D01*
X166323663Y-95507476D01*
X166351873Y-95530627D01*
X166375024Y-95558837D01*
X166392226Y-95591019D01*
X166402819Y-95625938D01*
X166407000Y-95668395D01*
X166407000Y-96809605D01*
X166402819Y-96852062D01*
X166392226Y-96886981D01*
X166375024Y-96919163D01*
X166351873Y-96947373D01*
X166323663Y-96970524D01*
X166291481Y-96987726D01*
X166256562Y-96998319D01*
X166214105Y-97002500D01*
X164747895Y-97002500D01*
X164705438Y-96998319D01*
X164670519Y-96987726D01*
X164638337Y-96970524D01*
X164610127Y-96947373D01*
X164586976Y-96919163D01*
X164569774Y-96886981D01*
X164559181Y-96852062D01*
X164555000Y-96809605D01*
X164555000Y-95668395D01*
X164559181Y-95625938D01*
X164569774Y-95591019D01*
X164586976Y-95558837D01*
X164610127Y-95530627D01*
X164638337Y-95507476D01*
X164670519Y-95490274D01*
X164705438Y-95479681D01*
X164747895Y-95475500D01*
X166214105Y-95475500D01*
X166256562Y-95479681D01*
X166256562Y-95479681D01*
G37*
G36*
X173268908Y-94906325D02*
G01*
X173307578Y-94918056D01*
X173343217Y-94937106D01*
X173374457Y-94962743D01*
X173400094Y-94993983D01*
X173419144Y-95029622D01*
X173430875Y-95068292D01*
X173435440Y-95114648D01*
X173435440Y-95765872D01*
X173430875Y-95812228D01*
X173419144Y-95850898D01*
X173400094Y-95886537D01*
X173374457Y-95917777D01*
X173343217Y-95943414D01*
X173307578Y-95962464D01*
X173268908Y-95974195D01*
X173222552Y-95978760D01*
X172146328Y-95978760D01*
X172099972Y-95974195D01*
X172061302Y-95962464D01*
X172025663Y-95943414D01*
X171994423Y-95917777D01*
X171968786Y-95886537D01*
X171949736Y-95850898D01*
X171938005Y-95812228D01*
X171933440Y-95765872D01*
X171933440Y-95114648D01*
X171938005Y-95068292D01*
X171949736Y-95029622D01*
X171968786Y-94993983D01*
X171994423Y-94962743D01*
X172025663Y-94937106D01*
X172061302Y-94918056D01*
X172099972Y-94906325D01*
X172146328Y-94901760D01*
X173222552Y-94901760D01*
X173268908Y-94906325D01*
X173268908Y-94906325D01*
G37*
G36*
X202514468Y-94873065D02*
G01*
X202553138Y-94884796D01*
X202588777Y-94903846D01*
X202620017Y-94929483D01*
X202645654Y-94960723D01*
X202664704Y-94996362D01*
X202676435Y-95035032D01*
X202681000Y-95081388D01*
X202681000Y-95732612D01*
X202676435Y-95778968D01*
X202664704Y-95817638D01*
X202645654Y-95853277D01*
X202620017Y-95884517D01*
X202588777Y-95910154D01*
X202553138Y-95929204D01*
X202514468Y-95940935D01*
X202468112Y-95945500D01*
X201391888Y-95945500D01*
X201345532Y-95940935D01*
X201306862Y-95929204D01*
X201271223Y-95910154D01*
X201239983Y-95884517D01*
X201214346Y-95853277D01*
X201195296Y-95817638D01*
X201183565Y-95778968D01*
X201179000Y-95732612D01*
X201179000Y-95081388D01*
X201183565Y-95035032D01*
X201195296Y-94996362D01*
X201214346Y-94960723D01*
X201239983Y-94929483D01*
X201271223Y-94903846D01*
X201306862Y-94884796D01*
X201345532Y-94873065D01*
X201391888Y-94868500D01*
X202468112Y-94868500D01*
X202514468Y-94873065D01*
X202514468Y-94873065D01*
G37*
G36*
X202403934Y-84906778D02*
G01*
X202777191Y-85061386D01*
X202777193Y-85061387D01*
X203113116Y-85285844D01*
X203398796Y-85571524D01*
X203623254Y-85907449D01*
X203777862Y-86280706D01*
X203856680Y-86676953D01*
X203856680Y-87080967D01*
X203777862Y-87477214D01*
X203623254Y-87850471D01*
X203623253Y-87850473D01*
X203398796Y-88186396D01*
X203113116Y-88472076D01*
X202777193Y-88696533D01*
X202777192Y-88696534D01*
X202777191Y-88696534D01*
X202403934Y-88851142D01*
X202007687Y-88929960D01*
X201603673Y-88929960D01*
X201207426Y-88851142D01*
X200834169Y-88696534D01*
X200834168Y-88696534D01*
X200834167Y-88696533D01*
X200498244Y-88472076D01*
X200212564Y-88186396D01*
X199988107Y-87850473D01*
X199988106Y-87850471D01*
X199833498Y-87477214D01*
X199754680Y-87080967D01*
X199754680Y-86676953D01*
X199833498Y-86280706D01*
X199988106Y-85907449D01*
X200212564Y-85571524D01*
X200498244Y-85285844D01*
X200834167Y-85061387D01*
X200834169Y-85061386D01*
X201207426Y-84906778D01*
X201603673Y-84827960D01*
X202007687Y-84827960D01*
X202403934Y-84906778D01*
X202403934Y-84906778D01*
G37*
G36*
X189803934Y-84906778D02*
G01*
X190177191Y-85061386D01*
X190177193Y-85061387D01*
X190513116Y-85285844D01*
X190798796Y-85571524D01*
X191023254Y-85907449D01*
X191177862Y-86280706D01*
X191256680Y-86676953D01*
X191256680Y-87080967D01*
X191177862Y-87477214D01*
X191023254Y-87850471D01*
X191023253Y-87850473D01*
X190798796Y-88186396D01*
X190513116Y-88472076D01*
X190177193Y-88696533D01*
X190177192Y-88696534D01*
X190177191Y-88696534D01*
X189803934Y-88851142D01*
X189407687Y-88929960D01*
X189003673Y-88929960D01*
X188607426Y-88851142D01*
X188234169Y-88696534D01*
X188234168Y-88696534D01*
X188234167Y-88696533D01*
X187898244Y-88472076D01*
X187612564Y-88186396D01*
X187388107Y-87850473D01*
X187388106Y-87850471D01*
X187233498Y-87477214D01*
X187154680Y-87080967D01*
X187154680Y-86676953D01*
X187233498Y-86280706D01*
X187388106Y-85907449D01*
X187612564Y-85571524D01*
X187898244Y-85285844D01*
X188234167Y-85061387D01*
X188234169Y-85061386D01*
X188607426Y-84906778D01*
X189003673Y-84827960D01*
X189407687Y-84827960D01*
X189803934Y-84906778D01*
X189803934Y-84906778D01*
G37*
G36*
X196103934Y-84906778D02*
G01*
X196477191Y-85061386D01*
X196477193Y-85061387D01*
X196813116Y-85285844D01*
X197098796Y-85571524D01*
X197323254Y-85907449D01*
X197477862Y-86280706D01*
X197556680Y-86676953D01*
X197556680Y-87080967D01*
X197477862Y-87477214D01*
X197323254Y-87850471D01*
X197323253Y-87850473D01*
X197098796Y-88186396D01*
X196813116Y-88472076D01*
X196477193Y-88696533D01*
X196477192Y-88696534D01*
X196477191Y-88696534D01*
X196103934Y-88851142D01*
X195707687Y-88929960D01*
X195303673Y-88929960D01*
X194907426Y-88851142D01*
X194534169Y-88696534D01*
X194534168Y-88696534D01*
X194534167Y-88696533D01*
X194198244Y-88472076D01*
X193912564Y-88186396D01*
X193688107Y-87850473D01*
X193688106Y-87850471D01*
X193533498Y-87477214D01*
X193454680Y-87080967D01*
X193454680Y-86676953D01*
X193533498Y-86280706D01*
X193688106Y-85907449D01*
X193912564Y-85571524D01*
X194198244Y-85285844D01*
X194534167Y-85061387D01*
X194534169Y-85061386D01*
X194907426Y-84906778D01*
X195303673Y-84827960D01*
X195707687Y-84827960D01*
X196103934Y-84906778D01*
X196103934Y-84906778D01*
G37*
G36*
X229909468Y-83073565D02*
G01*
X229948138Y-83085296D01*
X229983777Y-83104346D01*
X230015017Y-83129983D01*
X230040654Y-83161223D01*
X230059704Y-83196862D01*
X230071435Y-83235532D01*
X230076000Y-83281888D01*
X230076000Y-84358112D01*
X230071435Y-84404468D01*
X230059704Y-84443138D01*
X230040654Y-84478777D01*
X230015017Y-84510017D01*
X229983777Y-84535654D01*
X229948138Y-84554704D01*
X229909468Y-84566435D01*
X229863112Y-84571000D01*
X229211888Y-84571000D01*
X229165532Y-84566435D01*
X229126862Y-84554704D01*
X229091223Y-84535654D01*
X229059983Y-84510017D01*
X229034346Y-84478777D01*
X229015296Y-84443138D01*
X229003565Y-84404468D01*
X228999000Y-84358112D01*
X228999000Y-83281888D01*
X229003565Y-83235532D01*
X229015296Y-83196862D01*
X229034346Y-83161223D01*
X229059983Y-83129983D01*
X229091223Y-83104346D01*
X229126862Y-83085296D01*
X229165532Y-83073565D01*
X229211888Y-83069000D01*
X229863112Y-83069000D01*
X229909468Y-83073565D01*
X229909468Y-83073565D01*
G37*
G36*
X228034468Y-83073565D02*
G01*
X228073138Y-83085296D01*
X228108777Y-83104346D01*
X228140017Y-83129983D01*
X228165654Y-83161223D01*
X228184704Y-83196862D01*
X228196435Y-83235532D01*
X228201000Y-83281888D01*
X228201000Y-84358112D01*
X228196435Y-84404468D01*
X228184704Y-84443138D01*
X228165654Y-84478777D01*
X228140017Y-84510017D01*
X228108777Y-84535654D01*
X228073138Y-84554704D01*
X228034468Y-84566435D01*
X227988112Y-84571000D01*
X227336888Y-84571000D01*
X227290532Y-84566435D01*
X227251862Y-84554704D01*
X227216223Y-84535654D01*
X227184983Y-84510017D01*
X227159346Y-84478777D01*
X227140296Y-84443138D01*
X227128565Y-84404468D01*
X227124000Y-84358112D01*
X227124000Y-83281888D01*
X227128565Y-83235532D01*
X227140296Y-83196862D01*
X227159346Y-83161223D01*
X227184983Y-83129983D01*
X227216223Y-83104346D01*
X227251862Y-83085296D01*
X227290532Y-83073565D01*
X227336888Y-83069000D01*
X227988112Y-83069000D01*
X228034468Y-83073565D01*
X228034468Y-83073565D01*
G37*
G36*
X213521664Y-76222485D02*
G01*
X213545113Y-76229598D01*
X213569499Y-76232000D01*
X214494500Y-76232000D01*
X214494500Y-77184000D01*
X213569499Y-77184000D01*
X213545113Y-77186402D01*
X213521664Y-77193515D01*
X213500053Y-77205066D01*
X213481111Y-77220611D01*
X213465566Y-77239553D01*
X213454015Y-77261164D01*
X213446902Y-77284613D01*
X213444500Y-77308999D01*
X213444500Y-77377001D01*
X213446902Y-77401387D01*
X213454015Y-77424836D01*
X213465566Y-77446447D01*
X213481111Y-77465389D01*
X213500053Y-77480934D01*
X213521664Y-77492485D01*
X213545113Y-77499598D01*
X213569499Y-77502000D01*
X214494500Y-77502000D01*
X214494500Y-78454000D01*
X213569499Y-78454000D01*
X213545113Y-78456402D01*
X213521664Y-78463515D01*
X213500053Y-78475066D01*
X213481111Y-78490611D01*
X213465566Y-78509553D01*
X213454015Y-78531164D01*
X213446902Y-78554613D01*
X213444500Y-78578999D01*
X213444500Y-78647001D01*
X213446902Y-78671387D01*
X213454015Y-78694836D01*
X213465566Y-78716447D01*
X213481111Y-78735389D01*
X213500053Y-78750934D01*
X213521664Y-78762485D01*
X213545113Y-78769598D01*
X213569499Y-78772000D01*
X214494500Y-78772000D01*
X214494500Y-79724000D01*
X213569499Y-79724000D01*
X213545113Y-79726402D01*
X213521664Y-79733515D01*
X213500053Y-79745066D01*
X213481111Y-79760611D01*
X213465566Y-79779553D01*
X213454015Y-79801164D01*
X213446902Y-79824613D01*
X213444500Y-79848999D01*
X213444500Y-79917001D01*
X213446902Y-79941387D01*
X213454015Y-79964836D01*
X213465566Y-79986447D01*
X213481111Y-80005389D01*
X213500053Y-80020934D01*
X213521664Y-80032485D01*
X213545113Y-80039598D01*
X213569499Y-80042000D01*
X214494500Y-80042000D01*
X214494500Y-80994000D01*
X213569499Y-80994000D01*
X213545113Y-80996402D01*
X213521664Y-81003515D01*
X213502047Y-81014000D01*
X209592500Y-81014000D01*
X209592500Y-76212000D01*
X213502047Y-76212000D01*
X213521664Y-76222485D01*
X213521664Y-76222485D01*
G37*
G36*
X208994500Y-80994000D02*
G01*
X207442500Y-80994000D01*
X207442500Y-80042000D01*
X208994500Y-80042000D01*
X208994500Y-80994000D01*
X208994500Y-80994000D01*
G37*
G36*
X208994500Y-79724000D02*
G01*
X207442500Y-79724000D01*
X207442500Y-78772000D01*
X208994500Y-78772000D01*
X208994500Y-79724000D01*
X208994500Y-79724000D01*
G37*
G36*
X208994500Y-78454000D02*
G01*
X207442500Y-78454000D01*
X207442500Y-77502000D01*
X208994500Y-77502000D01*
X208994500Y-78454000D01*
X208994500Y-78454000D01*
G37*
G36*
X208994500Y-77184000D02*
G01*
X207442500Y-77184000D01*
X207442500Y-76232000D01*
X208994500Y-76232000D01*
X208994500Y-77184000D01*
X208994500Y-77184000D01*
G37*
G36*
X228748000Y-75997500D02*
G01*
X224838453Y-75997500D01*
X224818836Y-75987015D01*
X224795387Y-75979902D01*
X224771001Y-75977500D01*
X223846000Y-75977500D01*
X223846000Y-75025500D01*
X224771001Y-75025500D01*
X224795387Y-75023098D01*
X224818836Y-75015985D01*
X224840447Y-75004434D01*
X224859389Y-74988889D01*
X224874934Y-74969947D01*
X224886485Y-74948336D01*
X224893598Y-74924887D01*
X224896000Y-74900501D01*
X224896000Y-74832499D01*
X224893598Y-74808113D01*
X224886485Y-74784664D01*
X224874934Y-74763053D01*
X224859389Y-74744111D01*
X224840447Y-74728566D01*
X224818836Y-74717015D01*
X224795387Y-74709902D01*
X224771001Y-74707500D01*
X223846000Y-74707500D01*
X223846000Y-73755500D01*
X224771001Y-73755500D01*
X224795387Y-73753098D01*
X224818836Y-73745985D01*
X224840447Y-73734434D01*
X224859389Y-73718889D01*
X224874934Y-73699947D01*
X224886485Y-73678336D01*
X224893598Y-73654887D01*
X224896000Y-73630501D01*
X224896000Y-73562499D01*
X224893598Y-73538113D01*
X224886485Y-73514664D01*
X224874934Y-73493053D01*
X224859389Y-73474111D01*
X224840447Y-73458566D01*
X224818836Y-73447015D01*
X224795387Y-73439902D01*
X224771001Y-73437500D01*
X223846000Y-73437500D01*
X223846000Y-72485500D01*
X224771001Y-72485500D01*
X224795387Y-72483098D01*
X224818836Y-72475985D01*
X224840447Y-72464434D01*
X224859389Y-72448889D01*
X224874934Y-72429947D01*
X224886485Y-72408336D01*
X224893598Y-72384887D01*
X224896000Y-72360501D01*
X224896000Y-72292499D01*
X224893598Y-72268113D01*
X224886485Y-72244664D01*
X224874934Y-72223053D01*
X224859389Y-72204111D01*
X224840447Y-72188566D01*
X224818836Y-72177015D01*
X224795387Y-72169902D01*
X224771001Y-72167500D01*
X223846000Y-72167500D01*
X223846000Y-71215500D01*
X224771001Y-71215500D01*
X224795387Y-71213098D01*
X224818836Y-71205985D01*
X224838453Y-71195500D01*
X228748000Y-71195500D01*
X228748000Y-75997500D01*
X228748000Y-75997500D01*
G37*
G36*
X230898000Y-75977500D02*
G01*
X229346000Y-75977500D01*
X229346000Y-75025500D01*
X230898000Y-75025500D01*
X230898000Y-75977500D01*
X230898000Y-75977500D01*
G37*
G36*
X189803934Y-71906778D02*
G01*
X190177191Y-72061386D01*
X190177193Y-72061387D01*
X190513116Y-72285844D01*
X190798796Y-72571524D01*
X190992545Y-72861489D01*
X191023254Y-72907449D01*
X191177862Y-73280706D01*
X191256680Y-73676953D01*
X191256680Y-74080967D01*
X191177862Y-74477214D01*
X191050512Y-74784664D01*
X191023253Y-74850473D01*
X190798796Y-75186396D01*
X190513116Y-75472076D01*
X190177193Y-75696533D01*
X190177192Y-75696534D01*
X190177191Y-75696534D01*
X189803934Y-75851142D01*
X189407687Y-75929960D01*
X189003673Y-75929960D01*
X188607426Y-75851142D01*
X188234169Y-75696534D01*
X188234168Y-75696534D01*
X188234167Y-75696533D01*
X187898244Y-75472076D01*
X187612564Y-75186396D01*
X187388107Y-74850473D01*
X187360848Y-74784664D01*
X187233498Y-74477214D01*
X187154680Y-74080967D01*
X187154680Y-73676953D01*
X187233498Y-73280706D01*
X187388106Y-72907449D01*
X187418816Y-72861489D01*
X187612564Y-72571524D01*
X187898244Y-72285844D01*
X188234167Y-72061387D01*
X188234169Y-72061386D01*
X188607426Y-71906778D01*
X189003673Y-71827960D01*
X189407687Y-71827960D01*
X189803934Y-71906778D01*
X189803934Y-71906778D01*
G37*
G36*
X202403934Y-71906778D02*
G01*
X202777191Y-72061386D01*
X202777193Y-72061387D01*
X203113116Y-72285844D01*
X203398796Y-72571524D01*
X203592545Y-72861489D01*
X203623254Y-72907449D01*
X203777862Y-73280706D01*
X203856680Y-73676953D01*
X203856680Y-74080967D01*
X203777862Y-74477214D01*
X203650512Y-74784664D01*
X203623253Y-74850473D01*
X203398796Y-75186396D01*
X203113116Y-75472076D01*
X202777193Y-75696533D01*
X202777192Y-75696534D01*
X202777191Y-75696534D01*
X202403934Y-75851142D01*
X202007687Y-75929960D01*
X201603673Y-75929960D01*
X201207426Y-75851142D01*
X200834169Y-75696534D01*
X200834168Y-75696534D01*
X200834167Y-75696533D01*
X200498244Y-75472076D01*
X200212564Y-75186396D01*
X199988107Y-74850473D01*
X199960848Y-74784664D01*
X199833498Y-74477214D01*
X199754680Y-74080967D01*
X199754680Y-73676953D01*
X199833498Y-73280706D01*
X199988106Y-72907449D01*
X200018816Y-72861489D01*
X200212564Y-72571524D01*
X200498244Y-72285844D01*
X200834167Y-72061387D01*
X200834169Y-72061386D01*
X201207426Y-71906778D01*
X201603673Y-71827960D01*
X202007687Y-71827960D01*
X202403934Y-71906778D01*
X202403934Y-71906778D01*
G37*
G36*
X196103934Y-71906778D02*
G01*
X196477191Y-72061386D01*
X196477193Y-72061387D01*
X196813116Y-72285844D01*
X197098796Y-72571524D01*
X197292545Y-72861489D01*
X197323254Y-72907449D01*
X197477862Y-73280706D01*
X197556680Y-73676953D01*
X197556680Y-74080967D01*
X197477862Y-74477214D01*
X197350512Y-74784664D01*
X197323253Y-74850473D01*
X197098796Y-75186396D01*
X196813116Y-75472076D01*
X196477193Y-75696533D01*
X196477192Y-75696534D01*
X196477191Y-75696534D01*
X196103934Y-75851142D01*
X195707687Y-75929960D01*
X195303673Y-75929960D01*
X194907426Y-75851142D01*
X194534169Y-75696534D01*
X194534168Y-75696534D01*
X194534167Y-75696533D01*
X194198244Y-75472076D01*
X193912564Y-75186396D01*
X193688107Y-74850473D01*
X193660848Y-74784664D01*
X193533498Y-74477214D01*
X193454680Y-74080967D01*
X193454680Y-73676953D01*
X193533498Y-73280706D01*
X193688106Y-72907449D01*
X193718816Y-72861489D01*
X193912564Y-72571524D01*
X194198244Y-72285844D01*
X194534167Y-72061387D01*
X194534169Y-72061386D01*
X194907426Y-71906778D01*
X195303673Y-71827960D01*
X195707687Y-71827960D01*
X196103934Y-71906778D01*
X196103934Y-71906778D01*
G37*
G36*
X249037254Y-71860818D02*
G01*
X249410511Y-72015426D01*
X249410513Y-72015427D01*
X249638106Y-72167500D01*
X249746436Y-72239884D01*
X250032116Y-72525564D01*
X250256574Y-72861489D01*
X250411182Y-73234746D01*
X250490000Y-73630993D01*
X250490000Y-74035007D01*
X250411182Y-74431254D01*
X250392144Y-74477215D01*
X250256573Y-74804513D01*
X250032116Y-75140436D01*
X249746436Y-75426116D01*
X249410513Y-75650573D01*
X249410512Y-75650574D01*
X249410511Y-75650574D01*
X249037254Y-75805182D01*
X248641007Y-75884000D01*
X248236993Y-75884000D01*
X247840746Y-75805182D01*
X247467489Y-75650574D01*
X247467488Y-75650574D01*
X247467487Y-75650573D01*
X247131564Y-75426116D01*
X246845884Y-75140436D01*
X246621427Y-74804513D01*
X246485856Y-74477215D01*
X246466818Y-74431254D01*
X246388000Y-74035007D01*
X246388000Y-73630993D01*
X246466818Y-73234746D01*
X246621426Y-72861489D01*
X246845884Y-72525564D01*
X247131564Y-72239884D01*
X247239894Y-72167500D01*
X247467487Y-72015427D01*
X247467489Y-72015426D01*
X247840746Y-71860818D01*
X248236993Y-71782000D01*
X248641007Y-71782000D01*
X249037254Y-71860818D01*
X249037254Y-71860818D01*
G37*
G36*
X236437254Y-71860818D02*
G01*
X236810511Y-72015426D01*
X236810513Y-72015427D01*
X237038106Y-72167500D01*
X237146436Y-72239884D01*
X237432116Y-72525564D01*
X237656574Y-72861489D01*
X237811182Y-73234746D01*
X237890000Y-73630993D01*
X237890000Y-74035007D01*
X237811182Y-74431254D01*
X237792144Y-74477215D01*
X237656573Y-74804513D01*
X237432116Y-75140436D01*
X237146436Y-75426116D01*
X236810513Y-75650573D01*
X236810512Y-75650574D01*
X236810511Y-75650574D01*
X236437254Y-75805182D01*
X236041007Y-75884000D01*
X235636993Y-75884000D01*
X235240746Y-75805182D01*
X234867489Y-75650574D01*
X234867488Y-75650574D01*
X234867487Y-75650573D01*
X234531564Y-75426116D01*
X234245884Y-75140436D01*
X234021427Y-74804513D01*
X233885856Y-74477215D01*
X233866818Y-74431254D01*
X233788000Y-74035007D01*
X233788000Y-73630993D01*
X233866818Y-73234746D01*
X234021426Y-72861489D01*
X234245884Y-72525564D01*
X234531564Y-72239884D01*
X234639894Y-72167500D01*
X234867487Y-72015427D01*
X234867489Y-72015426D01*
X235240746Y-71860818D01*
X235636993Y-71782000D01*
X236041007Y-71782000D01*
X236437254Y-71860818D01*
X236437254Y-71860818D01*
G37*
G36*
X242737254Y-71860818D02*
G01*
X243110511Y-72015426D01*
X243110513Y-72015427D01*
X243338106Y-72167500D01*
X243446436Y-72239884D01*
X243732116Y-72525564D01*
X243956574Y-72861489D01*
X244111182Y-73234746D01*
X244190000Y-73630993D01*
X244190000Y-74035007D01*
X244111182Y-74431254D01*
X244092144Y-74477215D01*
X243956573Y-74804513D01*
X243732116Y-75140436D01*
X243446436Y-75426116D01*
X243110513Y-75650573D01*
X243110512Y-75650574D01*
X243110511Y-75650574D01*
X242737254Y-75805182D01*
X242341007Y-75884000D01*
X241936993Y-75884000D01*
X241540746Y-75805182D01*
X241167489Y-75650574D01*
X241167488Y-75650574D01*
X241167487Y-75650573D01*
X240831564Y-75426116D01*
X240545884Y-75140436D01*
X240321427Y-74804513D01*
X240185856Y-74477215D01*
X240166818Y-74431254D01*
X240088000Y-74035007D01*
X240088000Y-73630993D01*
X240166818Y-73234746D01*
X240321426Y-72861489D01*
X240545884Y-72525564D01*
X240831564Y-72239884D01*
X240939894Y-72167500D01*
X241167487Y-72015427D01*
X241167489Y-72015426D01*
X241540746Y-71860818D01*
X241936993Y-71782000D01*
X242341007Y-71782000D01*
X242737254Y-71860818D01*
X242737254Y-71860818D01*
G37*
G36*
X230898000Y-74707500D02*
G01*
X229346000Y-74707500D01*
X229346000Y-73755500D01*
X230898000Y-73755500D01*
X230898000Y-74707500D01*
X230898000Y-74707500D01*
G37*
G36*
X230898000Y-73437500D02*
G01*
X229346000Y-73437500D01*
X229346000Y-72485500D01*
X230898000Y-72485500D01*
X230898000Y-73437500D01*
X230898000Y-73437500D01*
G37*
G36*
X230898000Y-72167500D02*
G01*
X229346000Y-72167500D01*
X229346000Y-71215500D01*
X230898000Y-71215500D01*
X230898000Y-72167500D01*
X230898000Y-72167500D01*
G37*
G36*
X213521664Y-62887485D02*
G01*
X213545113Y-62894598D01*
X213569499Y-62897000D01*
X214494500Y-62897000D01*
X214494500Y-63849000D01*
X213569499Y-63849000D01*
X213545113Y-63851402D01*
X213521664Y-63858515D01*
X213500053Y-63870066D01*
X213481111Y-63885611D01*
X213465566Y-63904553D01*
X213454015Y-63926164D01*
X213446902Y-63949613D01*
X213444500Y-63973999D01*
X213444500Y-64042001D01*
X213446902Y-64066387D01*
X213454015Y-64089836D01*
X213465566Y-64111447D01*
X213481111Y-64130389D01*
X213500053Y-64145934D01*
X213521664Y-64157485D01*
X213545113Y-64164598D01*
X213569499Y-64167000D01*
X214494500Y-64167000D01*
X214494500Y-65119000D01*
X213569499Y-65119000D01*
X213545113Y-65121402D01*
X213521664Y-65128515D01*
X213500053Y-65140066D01*
X213481111Y-65155611D01*
X213465566Y-65174553D01*
X213454015Y-65196164D01*
X213446902Y-65219613D01*
X213444500Y-65243999D01*
X213444500Y-65312001D01*
X213446902Y-65336387D01*
X213454015Y-65359836D01*
X213465566Y-65381447D01*
X213481111Y-65400389D01*
X213500053Y-65415934D01*
X213521664Y-65427485D01*
X213545113Y-65434598D01*
X213569499Y-65437000D01*
X214494500Y-65437000D01*
X214494500Y-66389000D01*
X213569499Y-66389000D01*
X213545113Y-66391402D01*
X213521664Y-66398515D01*
X213500053Y-66410066D01*
X213481111Y-66425611D01*
X213465566Y-66444553D01*
X213454015Y-66466164D01*
X213446902Y-66489613D01*
X213444500Y-66513999D01*
X213444500Y-66582001D01*
X213446902Y-66606387D01*
X213454015Y-66629836D01*
X213465566Y-66651447D01*
X213481111Y-66670389D01*
X213500053Y-66685934D01*
X213521664Y-66697485D01*
X213545113Y-66704598D01*
X213569499Y-66707000D01*
X214494500Y-66707000D01*
X214494500Y-67659000D01*
X213569499Y-67659000D01*
X213545113Y-67661402D01*
X213521664Y-67668515D01*
X213502047Y-67679000D01*
X209592500Y-67679000D01*
X209592500Y-62877000D01*
X213502047Y-62877000D01*
X213521664Y-62887485D01*
X213521664Y-62887485D01*
G37*
G36*
X208994500Y-67659000D02*
G01*
X207442500Y-67659000D01*
X207442500Y-66707000D01*
X208994500Y-66707000D01*
X208994500Y-67659000D01*
X208994500Y-67659000D01*
G37*
G36*
X208994500Y-66389000D02*
G01*
X207442500Y-66389000D01*
X207442500Y-65437000D01*
X208994500Y-65437000D01*
X208994500Y-66389000D01*
X208994500Y-66389000D01*
G37*
G36*
X208994500Y-65119000D02*
G01*
X207442500Y-65119000D01*
X207442500Y-64167000D01*
X208994500Y-64167000D01*
X208994500Y-65119000D01*
X208994500Y-65119000D01*
G37*
G36*
X228748000Y-64377000D02*
G01*
X224838453Y-64377000D01*
X224818836Y-64366515D01*
X224795387Y-64359402D01*
X224771001Y-64357000D01*
X223846000Y-64357000D01*
X223846000Y-63405000D01*
X224771001Y-63405000D01*
X224795387Y-63402598D01*
X224818836Y-63395485D01*
X224840447Y-63383934D01*
X224859389Y-63368389D01*
X224874934Y-63349447D01*
X224886485Y-63327836D01*
X224893598Y-63304387D01*
X224896000Y-63280001D01*
X224896000Y-63211999D01*
X224893598Y-63187613D01*
X224886485Y-63164164D01*
X224874934Y-63142553D01*
X224859389Y-63123611D01*
X224840447Y-63108066D01*
X224818836Y-63096515D01*
X224795387Y-63089402D01*
X224771001Y-63087000D01*
X223846000Y-63087000D01*
X223846000Y-62135000D01*
X224771001Y-62135000D01*
X224795387Y-62132598D01*
X224818836Y-62125485D01*
X224840447Y-62113934D01*
X224859389Y-62098389D01*
X224874934Y-62079447D01*
X224886485Y-62057836D01*
X224893598Y-62034387D01*
X224896000Y-62010001D01*
X224896000Y-61941999D01*
X224893598Y-61917613D01*
X224886485Y-61894164D01*
X224874934Y-61872553D01*
X224859389Y-61853611D01*
X224840447Y-61838066D01*
X224818836Y-61826515D01*
X224795387Y-61819402D01*
X224771001Y-61817000D01*
X223846000Y-61817000D01*
X223846000Y-60865000D01*
X224771001Y-60865000D01*
X224795387Y-60862598D01*
X224818836Y-60855485D01*
X224840447Y-60843934D01*
X224859389Y-60828389D01*
X224874934Y-60809447D01*
X224886485Y-60787836D01*
X224893598Y-60764387D01*
X224896000Y-60740001D01*
X224896000Y-60671999D01*
X224893598Y-60647613D01*
X224886485Y-60624164D01*
X224874934Y-60602553D01*
X224859389Y-60583611D01*
X224840447Y-60568066D01*
X224818836Y-60556515D01*
X224795387Y-60549402D01*
X224771001Y-60547000D01*
X223846000Y-60547000D01*
X223846000Y-59595000D01*
X224771001Y-59595000D01*
X224795387Y-59592598D01*
X224818836Y-59585485D01*
X224838453Y-59575000D01*
X228748000Y-59575000D01*
X228748000Y-64377000D01*
X228748000Y-64377000D01*
G37*
G36*
X230898000Y-64357000D02*
G01*
X229346000Y-64357000D01*
X229346000Y-63405000D01*
X230898000Y-63405000D01*
X230898000Y-64357000D01*
X230898000Y-64357000D01*
G37*
G36*
X208994500Y-63849000D02*
G01*
X207442500Y-63849000D01*
X207442500Y-62897000D01*
X208994500Y-62897000D01*
X208994500Y-63849000D01*
X208994500Y-63849000D01*
G37*
G36*
X230898000Y-63087000D02*
G01*
X229346000Y-63087000D01*
X229346000Y-62135000D01*
X230898000Y-62135000D01*
X230898000Y-63087000D01*
X230898000Y-63087000D01*
G37*
G36*
X249037254Y-58860818D02*
G01*
X249410511Y-59015426D01*
X249410513Y-59015427D01*
X249746436Y-59239884D01*
X250032116Y-59525564D01*
X250256574Y-59861489D01*
X250411182Y-60234746D01*
X250490000Y-60630993D01*
X250490000Y-61035007D01*
X250411182Y-61431254D01*
X250256574Y-61804511D01*
X250256573Y-61804513D01*
X250032116Y-62140436D01*
X249746436Y-62426116D01*
X249410513Y-62650573D01*
X249410512Y-62650574D01*
X249410511Y-62650574D01*
X249037254Y-62805182D01*
X248641007Y-62884000D01*
X248236993Y-62884000D01*
X247840746Y-62805182D01*
X247467489Y-62650574D01*
X247467488Y-62650574D01*
X247467487Y-62650573D01*
X247131564Y-62426116D01*
X246845884Y-62140436D01*
X246621427Y-61804513D01*
X246621426Y-61804511D01*
X246466818Y-61431254D01*
X246388000Y-61035007D01*
X246388000Y-60630993D01*
X246466818Y-60234746D01*
X246621426Y-59861489D01*
X246845884Y-59525564D01*
X247131564Y-59239884D01*
X247467487Y-59015427D01*
X247467489Y-59015426D01*
X247840746Y-58860818D01*
X248236993Y-58782000D01*
X248641007Y-58782000D01*
X249037254Y-58860818D01*
X249037254Y-58860818D01*
G37*
G36*
X242737254Y-58860818D02*
G01*
X243110511Y-59015426D01*
X243110513Y-59015427D01*
X243446436Y-59239884D01*
X243732116Y-59525564D01*
X243956574Y-59861489D01*
X244111182Y-60234746D01*
X244190000Y-60630993D01*
X244190000Y-61035007D01*
X244111182Y-61431254D01*
X243956574Y-61804511D01*
X243956573Y-61804513D01*
X243732116Y-62140436D01*
X243446436Y-62426116D01*
X243110513Y-62650573D01*
X243110512Y-62650574D01*
X243110511Y-62650574D01*
X242737254Y-62805182D01*
X242341007Y-62884000D01*
X241936993Y-62884000D01*
X241540746Y-62805182D01*
X241167489Y-62650574D01*
X241167488Y-62650574D01*
X241167487Y-62650573D01*
X240831564Y-62426116D01*
X240545884Y-62140436D01*
X240321427Y-61804513D01*
X240321426Y-61804511D01*
X240166818Y-61431254D01*
X240088000Y-61035007D01*
X240088000Y-60630993D01*
X240166818Y-60234746D01*
X240321426Y-59861489D01*
X240545884Y-59525564D01*
X240831564Y-59239884D01*
X241167487Y-59015427D01*
X241167489Y-59015426D01*
X241540746Y-58860818D01*
X241936993Y-58782000D01*
X242341007Y-58782000D01*
X242737254Y-58860818D01*
X242737254Y-58860818D01*
G37*
G36*
X236437254Y-58860818D02*
G01*
X236810511Y-59015426D01*
X236810513Y-59015427D01*
X237146436Y-59239884D01*
X237432116Y-59525564D01*
X237656574Y-59861489D01*
X237811182Y-60234746D01*
X237890000Y-60630993D01*
X237890000Y-61035007D01*
X237811182Y-61431254D01*
X237656574Y-61804511D01*
X237656573Y-61804513D01*
X237432116Y-62140436D01*
X237146436Y-62426116D01*
X236810513Y-62650573D01*
X236810512Y-62650574D01*
X236810511Y-62650574D01*
X236437254Y-62805182D01*
X236041007Y-62884000D01*
X235636993Y-62884000D01*
X235240746Y-62805182D01*
X234867489Y-62650574D01*
X234867488Y-62650574D01*
X234867487Y-62650573D01*
X234531564Y-62426116D01*
X234245884Y-62140436D01*
X234021427Y-61804513D01*
X234021426Y-61804511D01*
X233866818Y-61431254D01*
X233788000Y-61035007D01*
X233788000Y-60630993D01*
X233866818Y-60234746D01*
X234021426Y-59861489D01*
X234245884Y-59525564D01*
X234531564Y-59239884D01*
X234867487Y-59015427D01*
X234867489Y-59015426D01*
X235240746Y-58860818D01*
X235636993Y-58782000D01*
X236041007Y-58782000D01*
X236437254Y-58860818D01*
X236437254Y-58860818D01*
G37*
G36*
X230898000Y-61817000D02*
G01*
X229346000Y-61817000D01*
X229346000Y-60865000D01*
X230898000Y-60865000D01*
X230898000Y-61817000D01*
X230898000Y-61817000D01*
G37*
G36*
X230898000Y-60547000D02*
G01*
X229346000Y-60547000D01*
X229346000Y-59595000D01*
X230898000Y-59595000D01*
X230898000Y-60547000D01*
X230898000Y-60547000D01*
G37*
G36*
X202431934Y-54906778D02*
G01*
X202805191Y-55061386D01*
X202805193Y-55061387D01*
X203141116Y-55285844D01*
X203426796Y-55571524D01*
X203597799Y-55827447D01*
X203651254Y-55907449D01*
X203805862Y-56280706D01*
X203884680Y-56676953D01*
X203884680Y-57080967D01*
X203805862Y-57477214D01*
X203684391Y-57770471D01*
X203651253Y-57850473D01*
X203426796Y-58186396D01*
X203141116Y-58472076D01*
X202805193Y-58696533D01*
X202805192Y-58696534D01*
X202805191Y-58696534D01*
X202431934Y-58851142D01*
X202035687Y-58929960D01*
X201631673Y-58929960D01*
X201235426Y-58851142D01*
X200862169Y-58696534D01*
X200862168Y-58696534D01*
X200862167Y-58696533D01*
X200526244Y-58472076D01*
X200240564Y-58186396D01*
X200016107Y-57850473D01*
X199982969Y-57770471D01*
X199861498Y-57477214D01*
X199782680Y-57080967D01*
X199782680Y-56676953D01*
X199861498Y-56280706D01*
X200016106Y-55907449D01*
X200069562Y-55827447D01*
X200240564Y-55571524D01*
X200526244Y-55285844D01*
X200862167Y-55061387D01*
X200862169Y-55061386D01*
X201235426Y-54906778D01*
X201631673Y-54827960D01*
X202035687Y-54827960D01*
X202431934Y-54906778D01*
X202431934Y-54906778D01*
G37*
G36*
X196131934Y-54906778D02*
G01*
X196505191Y-55061386D01*
X196505193Y-55061387D01*
X196841116Y-55285844D01*
X197126796Y-55571524D01*
X197297799Y-55827447D01*
X197351254Y-55907449D01*
X197505862Y-56280706D01*
X197584680Y-56676953D01*
X197584680Y-57080967D01*
X197505862Y-57477214D01*
X197384391Y-57770471D01*
X197351253Y-57850473D01*
X197126796Y-58186396D01*
X196841116Y-58472076D01*
X196505193Y-58696533D01*
X196505192Y-58696534D01*
X196505191Y-58696534D01*
X196131934Y-58851142D01*
X195735687Y-58929960D01*
X195331673Y-58929960D01*
X194935426Y-58851142D01*
X194562169Y-58696534D01*
X194562168Y-58696534D01*
X194562167Y-58696533D01*
X194226244Y-58472076D01*
X193940564Y-58186396D01*
X193716107Y-57850473D01*
X193682969Y-57770471D01*
X193561498Y-57477214D01*
X193482680Y-57080967D01*
X193482680Y-56676953D01*
X193561498Y-56280706D01*
X193716106Y-55907449D01*
X193769562Y-55827447D01*
X193940564Y-55571524D01*
X194226244Y-55285844D01*
X194562167Y-55061387D01*
X194562169Y-55061386D01*
X194935426Y-54906778D01*
X195331673Y-54827960D01*
X195735687Y-54827960D01*
X196131934Y-54906778D01*
X196131934Y-54906778D01*
G37*
G36*
X189831934Y-54906778D02*
G01*
X190205191Y-55061386D01*
X190205193Y-55061387D01*
X190541116Y-55285844D01*
X190826796Y-55571524D01*
X190997799Y-55827447D01*
X191051254Y-55907449D01*
X191205862Y-56280706D01*
X191284680Y-56676953D01*
X191284680Y-57080967D01*
X191205862Y-57477214D01*
X191084391Y-57770471D01*
X191051253Y-57850473D01*
X190826796Y-58186396D01*
X190541116Y-58472076D01*
X190205193Y-58696533D01*
X190205192Y-58696534D01*
X190205191Y-58696534D01*
X189831934Y-58851142D01*
X189435687Y-58929960D01*
X189031673Y-58929960D01*
X188635426Y-58851142D01*
X188262169Y-58696534D01*
X188262168Y-58696534D01*
X188262167Y-58696533D01*
X187926244Y-58472076D01*
X187640564Y-58186396D01*
X187416107Y-57850473D01*
X187382969Y-57770471D01*
X187261498Y-57477214D01*
X187182680Y-57080967D01*
X187182680Y-56676953D01*
X187261498Y-56280706D01*
X187416106Y-55907449D01*
X187469562Y-55827447D01*
X187640564Y-55571524D01*
X187926244Y-55285844D01*
X188262167Y-55061387D01*
X188262169Y-55061386D01*
X188635426Y-54906778D01*
X189031673Y-54827960D01*
X189435687Y-54827960D01*
X189831934Y-54906778D01*
X189831934Y-54906778D01*
G37*
G36*
X169591934Y-54826778D02*
G01*
X169965191Y-54981386D01*
X169965193Y-54981387D01*
X170084921Y-55061387D01*
X170301116Y-55205844D01*
X170586796Y-55491524D01*
X170811254Y-55827449D01*
X170965862Y-56200706D01*
X171044680Y-56596953D01*
X171044680Y-57000967D01*
X170965862Y-57397214D01*
X170811254Y-57770471D01*
X170811253Y-57770473D01*
X170586796Y-58106396D01*
X170301116Y-58392076D01*
X169965193Y-58616533D01*
X169965192Y-58616534D01*
X169965191Y-58616534D01*
X169591934Y-58771142D01*
X169195687Y-58849960D01*
X168791673Y-58849960D01*
X168395426Y-58771142D01*
X168022169Y-58616534D01*
X168022168Y-58616534D01*
X168022167Y-58616533D01*
X167686244Y-58392076D01*
X167400564Y-58106396D01*
X167176107Y-57770473D01*
X167176106Y-57770471D01*
X167021498Y-57397214D01*
X166942680Y-57000967D01*
X166942680Y-56596953D01*
X167021498Y-56200706D01*
X167176106Y-55827449D01*
X167400564Y-55491524D01*
X167686244Y-55205844D01*
X167902439Y-55061387D01*
X168022167Y-54981387D01*
X168022169Y-54981386D01*
X168395426Y-54826778D01*
X168791673Y-54747960D01*
X169195687Y-54747960D01*
X169591934Y-54826778D01*
X169591934Y-54826778D01*
G37*
G36*
X182191934Y-54826778D02*
G01*
X182565191Y-54981386D01*
X182565193Y-54981387D01*
X182684921Y-55061387D01*
X182901116Y-55205844D01*
X183186796Y-55491524D01*
X183411254Y-55827449D01*
X183565862Y-56200706D01*
X183644680Y-56596953D01*
X183644680Y-57000967D01*
X183565862Y-57397214D01*
X183411254Y-57770471D01*
X183411253Y-57770473D01*
X183186796Y-58106396D01*
X182901116Y-58392076D01*
X182565193Y-58616533D01*
X182565192Y-58616534D01*
X182565191Y-58616534D01*
X182191934Y-58771142D01*
X181795687Y-58849960D01*
X181391673Y-58849960D01*
X180995426Y-58771142D01*
X180622169Y-58616534D01*
X180622168Y-58616534D01*
X180622167Y-58616533D01*
X180286244Y-58392076D01*
X180000564Y-58106396D01*
X179776107Y-57770473D01*
X179776106Y-57770471D01*
X179621498Y-57397214D01*
X179542680Y-57000967D01*
X179542680Y-56596953D01*
X179621498Y-56200706D01*
X179776106Y-55827449D01*
X180000564Y-55491524D01*
X180286244Y-55205844D01*
X180502439Y-55061387D01*
X180622167Y-54981387D01*
X180622169Y-54981386D01*
X180995426Y-54826778D01*
X181391673Y-54747960D01*
X181795687Y-54747960D01*
X182191934Y-54826778D01*
X182191934Y-54826778D01*
G37*
G36*
X175891934Y-54826778D02*
G01*
X176265191Y-54981386D01*
X176265193Y-54981387D01*
X176384921Y-55061387D01*
X176601116Y-55205844D01*
X176886796Y-55491524D01*
X177111254Y-55827449D01*
X177265862Y-56200706D01*
X177344680Y-56596953D01*
X177344680Y-57000967D01*
X177265862Y-57397214D01*
X177111254Y-57770471D01*
X177111253Y-57770473D01*
X176886796Y-58106396D01*
X176601116Y-58392076D01*
X176265193Y-58616533D01*
X176265192Y-58616534D01*
X176265191Y-58616534D01*
X175891934Y-58771142D01*
X175495687Y-58849960D01*
X175091673Y-58849960D01*
X174695426Y-58771142D01*
X174322169Y-58616534D01*
X174322168Y-58616534D01*
X174322167Y-58616533D01*
X173986244Y-58392076D01*
X173700564Y-58106396D01*
X173476107Y-57770473D01*
X173476106Y-57770471D01*
X173321498Y-57397214D01*
X173242680Y-57000967D01*
X173242680Y-56596953D01*
X173321498Y-56200706D01*
X173476106Y-55827449D01*
X173700564Y-55491524D01*
X173986244Y-55205844D01*
X174202439Y-55061387D01*
X174322167Y-54981387D01*
X174322169Y-54981386D01*
X174695426Y-54826778D01*
X175091673Y-54747960D01*
X175495687Y-54747960D01*
X175891934Y-54826778D01*
X175891934Y-54826778D01*
G37*
G36*
X176373312Y-46457637D02*
G01*
X176678685Y-46584127D01*
X177110548Y-46763010D01*
X177774042Y-47206343D01*
X178338297Y-47770598D01*
X178781630Y-48434092D01*
X178830058Y-48551009D01*
X179087003Y-49171328D01*
X179242680Y-49953970D01*
X179242680Y-50751950D01*
X179087003Y-51534592D01*
X178960513Y-51839965D01*
X178781630Y-52271828D01*
X178338297Y-52935322D01*
X177774042Y-53499577D01*
X177110548Y-53942910D01*
X176678685Y-54121793D01*
X176373312Y-54248283D01*
X175590670Y-54403960D01*
X174792690Y-54403960D01*
X174010048Y-54248283D01*
X173704675Y-54121793D01*
X173272812Y-53942910D01*
X172609318Y-53499577D01*
X172045063Y-52935322D01*
X171601730Y-52271828D01*
X171422847Y-51839965D01*
X171296357Y-51534592D01*
X171140680Y-50751950D01*
X171140680Y-49953970D01*
X171296357Y-49171328D01*
X171553302Y-48551009D01*
X171601730Y-48434092D01*
X172045063Y-47770598D01*
X172609318Y-47206343D01*
X173272812Y-46763010D01*
X173704675Y-46584127D01*
X174010048Y-46457637D01*
X174792690Y-46301960D01*
X175590670Y-46301960D01*
X176373312Y-46457637D01*
X176373312Y-46457637D01*
G37*
G36*
X249847632Y-41951677D02*
G01*
X250112492Y-42061386D01*
X250584868Y-42257050D01*
X251248362Y-42700383D01*
X251812617Y-43264638D01*
X252255950Y-43928132D01*
X252319256Y-44080967D01*
X252561323Y-44665368D01*
X252717000Y-45448010D01*
X252717000Y-46245990D01*
X252561323Y-47028632D01*
X252487513Y-47206824D01*
X252255950Y-47765868D01*
X251812617Y-48429362D01*
X251248362Y-48993617D01*
X250584868Y-49436950D01*
X250153005Y-49615833D01*
X249847632Y-49742323D01*
X249064990Y-49898000D01*
X248267010Y-49898000D01*
X247484368Y-49742323D01*
X247178995Y-49615833D01*
X246747132Y-49436950D01*
X246083638Y-48993617D01*
X245519383Y-48429362D01*
X245076050Y-47765868D01*
X244844487Y-47206824D01*
X244770677Y-47028632D01*
X244615000Y-46245990D01*
X244615000Y-45448010D01*
X244770677Y-44665368D01*
X245012744Y-44080967D01*
X245076050Y-43928132D01*
X245519383Y-43264638D01*
X246083638Y-42700383D01*
X246747132Y-42257050D01*
X247219508Y-42061386D01*
X247484368Y-41951677D01*
X248267010Y-41796000D01*
X249064990Y-41796000D01*
X249847632Y-41951677D01*
X249847632Y-41951677D01*
G37*
G36*
X189831934Y-41906778D02*
G01*
X190205191Y-42061386D01*
X190205193Y-42061387D01*
X190541116Y-42285844D01*
X190826796Y-42571524D01*
X190997799Y-42827447D01*
X191051254Y-42907449D01*
X191205862Y-43280706D01*
X191284680Y-43676953D01*
X191284680Y-44080967D01*
X191205862Y-44477214D01*
X191127926Y-44665368D01*
X191051253Y-44850473D01*
X190826796Y-45186396D01*
X190541116Y-45472076D01*
X190205193Y-45696533D01*
X190205192Y-45696534D01*
X190205191Y-45696534D01*
X189831934Y-45851142D01*
X189435687Y-45929960D01*
X189031673Y-45929960D01*
X188635426Y-45851142D01*
X188262169Y-45696534D01*
X188262168Y-45696534D01*
X188262167Y-45696533D01*
X187926244Y-45472076D01*
X187640564Y-45186396D01*
X187416107Y-44850473D01*
X187339434Y-44665368D01*
X187261498Y-44477214D01*
X187182680Y-44080967D01*
X187182680Y-43676953D01*
X187261498Y-43280706D01*
X187416106Y-42907449D01*
X187469562Y-42827447D01*
X187640564Y-42571524D01*
X187926244Y-42285844D01*
X188262167Y-42061387D01*
X188262169Y-42061386D01*
X188635426Y-41906778D01*
X189031673Y-41827960D01*
X189435687Y-41827960D01*
X189831934Y-41906778D01*
X189831934Y-41906778D01*
G37*
G36*
X196131934Y-41906778D02*
G01*
X196505191Y-42061386D01*
X196505193Y-42061387D01*
X196841116Y-42285844D01*
X197126796Y-42571524D01*
X197297799Y-42827447D01*
X197351254Y-42907449D01*
X197505862Y-43280706D01*
X197584680Y-43676953D01*
X197584680Y-44080967D01*
X197505862Y-44477214D01*
X197427926Y-44665368D01*
X197351253Y-44850473D01*
X197126796Y-45186396D01*
X196841116Y-45472076D01*
X196505193Y-45696533D01*
X196505192Y-45696534D01*
X196505191Y-45696534D01*
X196131934Y-45851142D01*
X195735687Y-45929960D01*
X195331673Y-45929960D01*
X194935426Y-45851142D01*
X194562169Y-45696534D01*
X194562168Y-45696534D01*
X194562167Y-45696533D01*
X194226244Y-45472076D01*
X193940564Y-45186396D01*
X193716107Y-44850473D01*
X193639434Y-44665368D01*
X193561498Y-44477214D01*
X193482680Y-44080967D01*
X193482680Y-43676953D01*
X193561498Y-43280706D01*
X193716106Y-42907449D01*
X193769562Y-42827447D01*
X193940564Y-42571524D01*
X194226244Y-42285844D01*
X194562167Y-42061387D01*
X194562169Y-42061386D01*
X194935426Y-41906778D01*
X195331673Y-41827960D01*
X195735687Y-41827960D01*
X196131934Y-41906778D01*
X196131934Y-41906778D01*
G37*
G36*
X202431934Y-41906778D02*
G01*
X202805191Y-42061386D01*
X202805193Y-42061387D01*
X203141116Y-42285844D01*
X203426796Y-42571524D01*
X203597799Y-42827447D01*
X203651254Y-42907449D01*
X203805862Y-43280706D01*
X203884680Y-43676953D01*
X203884680Y-44080967D01*
X203805862Y-44477214D01*
X203727926Y-44665368D01*
X203651253Y-44850473D01*
X203426796Y-45186396D01*
X203141116Y-45472076D01*
X202805193Y-45696533D01*
X202805192Y-45696534D01*
X202805191Y-45696534D01*
X202431934Y-45851142D01*
X202035687Y-45929960D01*
X201631673Y-45929960D01*
X201235426Y-45851142D01*
X200862169Y-45696534D01*
X200862168Y-45696534D01*
X200862167Y-45696533D01*
X200526244Y-45472076D01*
X200240564Y-45186396D01*
X200016107Y-44850473D01*
X199939434Y-44665368D01*
X199861498Y-44477214D01*
X199782680Y-44080967D01*
X199782680Y-43676953D01*
X199861498Y-43280706D01*
X200016106Y-42907449D01*
X200069562Y-42827447D01*
X200240564Y-42571524D01*
X200526244Y-42285844D01*
X200862167Y-42061387D01*
X200862169Y-42061386D01*
X201235426Y-41906778D01*
X201631673Y-41827960D01*
X202035687Y-41827960D01*
X202431934Y-41906778D01*
X202431934Y-41906778D01*
G37*
G36*
X169591934Y-41826778D02*
G01*
X169893469Y-41951678D01*
X169965193Y-41981387D01*
X170084921Y-42061387D01*
X170301116Y-42205844D01*
X170586796Y-42491524D01*
X170811254Y-42827449D01*
X170965862Y-43200706D01*
X171044680Y-43596953D01*
X171044680Y-44000967D01*
X170965862Y-44397214D01*
X170854789Y-44665367D01*
X170811253Y-44770473D01*
X170586796Y-45106396D01*
X170301116Y-45392076D01*
X169965193Y-45616533D01*
X169965192Y-45616534D01*
X169965191Y-45616534D01*
X169591934Y-45771142D01*
X169195687Y-45849960D01*
X168791673Y-45849960D01*
X168395426Y-45771142D01*
X168022169Y-45616534D01*
X168022168Y-45616534D01*
X168022167Y-45616533D01*
X167686244Y-45392076D01*
X167400564Y-45106396D01*
X167176107Y-44770473D01*
X167132571Y-44665367D01*
X167021498Y-44397214D01*
X166942680Y-44000967D01*
X166942680Y-43596953D01*
X167021498Y-43200706D01*
X167176106Y-42827449D01*
X167400564Y-42491524D01*
X167686244Y-42205844D01*
X167902439Y-42061387D01*
X168022167Y-41981387D01*
X168093891Y-41951678D01*
X168395426Y-41826778D01*
X168791673Y-41747960D01*
X169195687Y-41747960D01*
X169591934Y-41826778D01*
X169591934Y-41826778D01*
G37*
G36*
X182191934Y-41826778D02*
G01*
X182493469Y-41951678D01*
X182565193Y-41981387D01*
X182684921Y-42061387D01*
X182901116Y-42205844D01*
X183186796Y-42491524D01*
X183411254Y-42827449D01*
X183565862Y-43200706D01*
X183644680Y-43596953D01*
X183644680Y-44000967D01*
X183565862Y-44397214D01*
X183454789Y-44665367D01*
X183411253Y-44770473D01*
X183186796Y-45106396D01*
X182901116Y-45392076D01*
X182565193Y-45616533D01*
X182565192Y-45616534D01*
X182565191Y-45616534D01*
X182191934Y-45771142D01*
X181795687Y-45849960D01*
X181391673Y-45849960D01*
X180995426Y-45771142D01*
X180622169Y-45616534D01*
X180622168Y-45616534D01*
X180622167Y-45616533D01*
X180286244Y-45392076D01*
X180000564Y-45106396D01*
X179776107Y-44770473D01*
X179732571Y-44665367D01*
X179621498Y-44397214D01*
X179542680Y-44000967D01*
X179542680Y-43596953D01*
X179621498Y-43200706D01*
X179776106Y-42827449D01*
X180000564Y-42491524D01*
X180286244Y-42205844D01*
X180502439Y-42061387D01*
X180622167Y-41981387D01*
X180693891Y-41951678D01*
X180995426Y-41826778D01*
X181391673Y-41747960D01*
X181795687Y-41747960D01*
X182191934Y-41826778D01*
X182191934Y-41826778D01*
G37*
G36*
X175891934Y-41826778D02*
G01*
X176193469Y-41951678D01*
X176265193Y-41981387D01*
X176384921Y-42061387D01*
X176601116Y-42205844D01*
X176886796Y-42491524D01*
X177111254Y-42827449D01*
X177265862Y-43200706D01*
X177344680Y-43596953D01*
X177344680Y-44000967D01*
X177265862Y-44397214D01*
X177154789Y-44665367D01*
X177111253Y-44770473D01*
X176886796Y-45106396D01*
X176601116Y-45392076D01*
X176265193Y-45616533D01*
X176265192Y-45616534D01*
X176265191Y-45616534D01*
X175891934Y-45771142D01*
X175495687Y-45849960D01*
X175091673Y-45849960D01*
X174695426Y-45771142D01*
X174322169Y-45616534D01*
X174322168Y-45616534D01*
X174322167Y-45616533D01*
X173986244Y-45392076D01*
X173700564Y-45106396D01*
X173476107Y-44770473D01*
X173432571Y-44665367D01*
X173321498Y-44397214D01*
X173242680Y-44000967D01*
X173242680Y-43596953D01*
X173321498Y-43200706D01*
X173476106Y-42827449D01*
X173700564Y-42491524D01*
X173986244Y-42205844D01*
X174202439Y-42061387D01*
X174322167Y-41981387D01*
X174393891Y-41951678D01*
X174695426Y-41826778D01*
X175091673Y-41747960D01*
X175495687Y-41747960D01*
X175891934Y-41826778D01*
X175891934Y-41826778D01*
G37*
M02*
