%TF.GenerationSoftware,KiCad,Pcbnew,5.1.4*%
%TF.CreationDate,2019-11-11T17:18:17+01:00*%
%TF.ProjectId,shunt-board,7368756e-742d-4626-9f61-72642e6b6963,rev?*%
%TF.SameCoordinates,Original*%
%TF.FileFunction,Copper,L1,Top*%
%TF.FilePolarity,Positive*%
%FSLAX46Y46*%
G04 Gerber Fmt 4.6, Leading zero omitted, Abs format (unit mm)*
G04 Created by KiCad (PCBNEW 5.1.4) date 2019-11-11 17:18:17*
%MOMM*%
%LPD*%
G04 APERTURE LIST*
%ADD10C,0.100000*%
%ADD11C,1.150000*%
%ADD12R,1.000000X1.000000*%
%ADD13C,1.425000*%
%ADD14C,0.500000*%
%ADD15C,8.000000*%
%ADD16C,0.900000*%
%ADD17C,1.525000*%
%ADD18R,1.450000X0.850000*%
%ADD19R,1.050000X0.850000*%
%ADD20R,3.750000X4.700000*%
%ADD21O,1.950000X1.700000*%
%ADD22C,1.700000*%
%ADD23C,0.975000*%
%ADD24R,1.500000X0.450000*%
%ADD25C,4.000000*%
%ADD26R,0.250000X1.100000*%
%ADD27C,0.800000*%
%ADD28C,0.250000*%
%ADD29C,0.500000*%
%ADD30C,0.254000*%
G04 APERTURE END LIST*
D10*
G36*
X169993500Y-109128000D02*
G01*
X170493500Y-109128000D01*
X170493500Y-109528000D01*
X169993500Y-109528000D01*
X169993500Y-109128000D01*
G37*
G36*
X169993500Y-109928000D02*
G01*
X170493500Y-109928000D01*
X170493500Y-110328000D01*
X169993500Y-110328000D01*
X169993500Y-109928000D01*
G37*
G36*
X179618920Y-132050600D02*
G01*
X179618920Y-131550600D01*
X179018920Y-131550600D01*
X179018920Y-132050600D01*
X179618920Y-132050600D01*
G37*
G36*
X173588960Y-132050360D02*
G01*
X173588960Y-131550360D01*
X172988960Y-131550360D01*
X172988960Y-132050360D01*
X173588960Y-132050360D01*
G37*
G36*
X177895505Y-99580404D02*
G01*
X177919773Y-99584004D01*
X177943572Y-99589965D01*
X177966671Y-99598230D01*
X177988850Y-99608720D01*
X178009893Y-99621332D01*
X178029599Y-99635947D01*
X178047777Y-99652423D01*
X178064253Y-99670601D01*
X178078868Y-99690307D01*
X178091480Y-99711350D01*
X178101970Y-99733529D01*
X178110235Y-99756628D01*
X178116196Y-99780427D01*
X178119796Y-99804695D01*
X178121000Y-99829199D01*
X178121000Y-100729201D01*
X178119796Y-100753705D01*
X178116196Y-100777973D01*
X178110235Y-100801772D01*
X178101970Y-100824871D01*
X178091480Y-100847050D01*
X178078868Y-100868093D01*
X178064253Y-100887799D01*
X178047777Y-100905977D01*
X178029599Y-100922453D01*
X178009893Y-100937068D01*
X177988850Y-100949680D01*
X177966671Y-100960170D01*
X177943572Y-100968435D01*
X177919773Y-100974396D01*
X177895505Y-100977996D01*
X177871001Y-100979200D01*
X177220999Y-100979200D01*
X177196495Y-100977996D01*
X177172227Y-100974396D01*
X177148428Y-100968435D01*
X177125329Y-100960170D01*
X177103150Y-100949680D01*
X177082107Y-100937068D01*
X177062401Y-100922453D01*
X177044223Y-100905977D01*
X177027747Y-100887799D01*
X177013132Y-100868093D01*
X177000520Y-100847050D01*
X176990030Y-100824871D01*
X176981765Y-100801772D01*
X176975804Y-100777973D01*
X176972204Y-100753705D01*
X176971000Y-100729201D01*
X176971000Y-99829199D01*
X176972204Y-99804695D01*
X176975804Y-99780427D01*
X176981765Y-99756628D01*
X176990030Y-99733529D01*
X177000520Y-99711350D01*
X177013132Y-99690307D01*
X177027747Y-99670601D01*
X177044223Y-99652423D01*
X177062401Y-99635947D01*
X177082107Y-99621332D01*
X177103150Y-99608720D01*
X177125329Y-99598230D01*
X177148428Y-99589965D01*
X177172227Y-99584004D01*
X177196495Y-99580404D01*
X177220999Y-99579200D01*
X177871001Y-99579200D01*
X177895505Y-99580404D01*
X177895505Y-99580404D01*
G37*
D11*
X177546000Y-100279200D03*
D10*
G36*
X175845505Y-99580404D02*
G01*
X175869773Y-99584004D01*
X175893572Y-99589965D01*
X175916671Y-99598230D01*
X175938850Y-99608720D01*
X175959893Y-99621332D01*
X175979599Y-99635947D01*
X175997777Y-99652423D01*
X176014253Y-99670601D01*
X176028868Y-99690307D01*
X176041480Y-99711350D01*
X176051970Y-99733529D01*
X176060235Y-99756628D01*
X176066196Y-99780427D01*
X176069796Y-99804695D01*
X176071000Y-99829199D01*
X176071000Y-100729201D01*
X176069796Y-100753705D01*
X176066196Y-100777973D01*
X176060235Y-100801772D01*
X176051970Y-100824871D01*
X176041480Y-100847050D01*
X176028868Y-100868093D01*
X176014253Y-100887799D01*
X175997777Y-100905977D01*
X175979599Y-100922453D01*
X175959893Y-100937068D01*
X175938850Y-100949680D01*
X175916671Y-100960170D01*
X175893572Y-100968435D01*
X175869773Y-100974396D01*
X175845505Y-100977996D01*
X175821001Y-100979200D01*
X175170999Y-100979200D01*
X175146495Y-100977996D01*
X175122227Y-100974396D01*
X175098428Y-100968435D01*
X175075329Y-100960170D01*
X175053150Y-100949680D01*
X175032107Y-100937068D01*
X175012401Y-100922453D01*
X174994223Y-100905977D01*
X174977747Y-100887799D01*
X174963132Y-100868093D01*
X174950520Y-100847050D01*
X174940030Y-100824871D01*
X174931765Y-100801772D01*
X174925804Y-100777973D01*
X174922204Y-100753705D01*
X174921000Y-100729201D01*
X174921000Y-99829199D01*
X174922204Y-99804695D01*
X174925804Y-99780427D01*
X174931765Y-99756628D01*
X174940030Y-99733529D01*
X174950520Y-99711350D01*
X174963132Y-99690307D01*
X174977747Y-99670601D01*
X174994223Y-99652423D01*
X175012401Y-99635947D01*
X175032107Y-99621332D01*
X175053150Y-99608720D01*
X175075329Y-99598230D01*
X175098428Y-99589965D01*
X175122227Y-99584004D01*
X175146495Y-99580404D01*
X175170999Y-99579200D01*
X175821001Y-99579200D01*
X175845505Y-99580404D01*
X175845505Y-99580404D01*
G37*
D11*
X175496000Y-100279200D03*
D12*
X171450000Y-115062000D03*
X172529500Y-109220000D03*
X171450000Y-113538000D03*
D10*
G36*
X168114505Y-102813204D02*
G01*
X168138773Y-102816804D01*
X168162572Y-102822765D01*
X168185671Y-102831030D01*
X168207850Y-102841520D01*
X168228893Y-102854132D01*
X168248599Y-102868747D01*
X168266777Y-102885223D01*
X168283253Y-102903401D01*
X168297868Y-102923107D01*
X168310480Y-102944150D01*
X168320970Y-102966329D01*
X168329235Y-102989428D01*
X168335196Y-103013227D01*
X168338796Y-103037495D01*
X168340000Y-103061999D01*
X168340000Y-103712001D01*
X168338796Y-103736505D01*
X168335196Y-103760773D01*
X168329235Y-103784572D01*
X168320970Y-103807671D01*
X168310480Y-103829850D01*
X168297868Y-103850893D01*
X168283253Y-103870599D01*
X168266777Y-103888777D01*
X168248599Y-103905253D01*
X168228893Y-103919868D01*
X168207850Y-103932480D01*
X168185671Y-103942970D01*
X168162572Y-103951235D01*
X168138773Y-103957196D01*
X168114505Y-103960796D01*
X168090001Y-103962000D01*
X167189999Y-103962000D01*
X167165495Y-103960796D01*
X167141227Y-103957196D01*
X167117428Y-103951235D01*
X167094329Y-103942970D01*
X167072150Y-103932480D01*
X167051107Y-103919868D01*
X167031401Y-103905253D01*
X167013223Y-103888777D01*
X166996747Y-103870599D01*
X166982132Y-103850893D01*
X166969520Y-103829850D01*
X166959030Y-103807671D01*
X166950765Y-103784572D01*
X166944804Y-103760773D01*
X166941204Y-103736505D01*
X166940000Y-103712001D01*
X166940000Y-103061999D01*
X166941204Y-103037495D01*
X166944804Y-103013227D01*
X166950765Y-102989428D01*
X166959030Y-102966329D01*
X166969520Y-102944150D01*
X166982132Y-102923107D01*
X166996747Y-102903401D01*
X167013223Y-102885223D01*
X167031401Y-102868747D01*
X167051107Y-102854132D01*
X167072150Y-102841520D01*
X167094329Y-102831030D01*
X167117428Y-102822765D01*
X167141227Y-102816804D01*
X167165495Y-102813204D01*
X167189999Y-102812000D01*
X168090001Y-102812000D01*
X168114505Y-102813204D01*
X168114505Y-102813204D01*
G37*
D11*
X167640000Y-103387000D03*
D10*
G36*
X168114505Y-100763204D02*
G01*
X168138773Y-100766804D01*
X168162572Y-100772765D01*
X168185671Y-100781030D01*
X168207850Y-100791520D01*
X168228893Y-100804132D01*
X168248599Y-100818747D01*
X168266777Y-100835223D01*
X168283253Y-100853401D01*
X168297868Y-100873107D01*
X168310480Y-100894150D01*
X168320970Y-100916329D01*
X168329235Y-100939428D01*
X168335196Y-100963227D01*
X168338796Y-100987495D01*
X168340000Y-101011999D01*
X168340000Y-101662001D01*
X168338796Y-101686505D01*
X168335196Y-101710773D01*
X168329235Y-101734572D01*
X168320970Y-101757671D01*
X168310480Y-101779850D01*
X168297868Y-101800893D01*
X168283253Y-101820599D01*
X168266777Y-101838777D01*
X168248599Y-101855253D01*
X168228893Y-101869868D01*
X168207850Y-101882480D01*
X168185671Y-101892970D01*
X168162572Y-101901235D01*
X168138773Y-101907196D01*
X168114505Y-101910796D01*
X168090001Y-101912000D01*
X167189999Y-101912000D01*
X167165495Y-101910796D01*
X167141227Y-101907196D01*
X167117428Y-101901235D01*
X167094329Y-101892970D01*
X167072150Y-101882480D01*
X167051107Y-101869868D01*
X167031401Y-101855253D01*
X167013223Y-101838777D01*
X166996747Y-101820599D01*
X166982132Y-101800893D01*
X166969520Y-101779850D01*
X166959030Y-101757671D01*
X166950765Y-101734572D01*
X166944804Y-101710773D01*
X166941204Y-101686505D01*
X166940000Y-101662001D01*
X166940000Y-101011999D01*
X166941204Y-100987495D01*
X166944804Y-100963227D01*
X166950765Y-100939428D01*
X166959030Y-100916329D01*
X166969520Y-100894150D01*
X166982132Y-100873107D01*
X166996747Y-100853401D01*
X167013223Y-100835223D01*
X167031401Y-100818747D01*
X167051107Y-100804132D01*
X167072150Y-100791520D01*
X167094329Y-100781030D01*
X167117428Y-100772765D01*
X167141227Y-100766804D01*
X167165495Y-100763204D01*
X167189999Y-100762000D01*
X168090001Y-100762000D01*
X168114505Y-100763204D01*
X168114505Y-100763204D01*
G37*
D11*
X167640000Y-101337000D03*
D10*
G36*
X168051005Y-96000704D02*
G01*
X168075273Y-96004304D01*
X168099072Y-96010265D01*
X168122171Y-96018530D01*
X168144350Y-96029020D01*
X168165393Y-96041632D01*
X168185099Y-96056247D01*
X168203277Y-96072723D01*
X168219753Y-96090901D01*
X168234368Y-96110607D01*
X168246980Y-96131650D01*
X168257470Y-96153829D01*
X168265735Y-96176928D01*
X168271696Y-96200727D01*
X168275296Y-96224995D01*
X168276500Y-96249499D01*
X168276500Y-96899501D01*
X168275296Y-96924005D01*
X168271696Y-96948273D01*
X168265735Y-96972072D01*
X168257470Y-96995171D01*
X168246980Y-97017350D01*
X168234368Y-97038393D01*
X168219753Y-97058099D01*
X168203277Y-97076277D01*
X168185099Y-97092753D01*
X168165393Y-97107368D01*
X168144350Y-97119980D01*
X168122171Y-97130470D01*
X168099072Y-97138735D01*
X168075273Y-97144696D01*
X168051005Y-97148296D01*
X168026501Y-97149500D01*
X167126499Y-97149500D01*
X167101995Y-97148296D01*
X167077727Y-97144696D01*
X167053928Y-97138735D01*
X167030829Y-97130470D01*
X167008650Y-97119980D01*
X166987607Y-97107368D01*
X166967901Y-97092753D01*
X166949723Y-97076277D01*
X166933247Y-97058099D01*
X166918632Y-97038393D01*
X166906020Y-97017350D01*
X166895530Y-96995171D01*
X166887265Y-96972072D01*
X166881304Y-96948273D01*
X166877704Y-96924005D01*
X166876500Y-96899501D01*
X166876500Y-96249499D01*
X166877704Y-96224995D01*
X166881304Y-96200727D01*
X166887265Y-96176928D01*
X166895530Y-96153829D01*
X166906020Y-96131650D01*
X166918632Y-96110607D01*
X166933247Y-96090901D01*
X166949723Y-96072723D01*
X166967901Y-96056247D01*
X166987607Y-96041632D01*
X167008650Y-96029020D01*
X167030829Y-96018530D01*
X167053928Y-96010265D01*
X167077727Y-96004304D01*
X167101995Y-96000704D01*
X167126499Y-95999500D01*
X168026501Y-95999500D01*
X168051005Y-96000704D01*
X168051005Y-96000704D01*
G37*
D11*
X167576500Y-96574500D03*
D10*
G36*
X168051005Y-98050704D02*
G01*
X168075273Y-98054304D01*
X168099072Y-98060265D01*
X168122171Y-98068530D01*
X168144350Y-98079020D01*
X168165393Y-98091632D01*
X168185099Y-98106247D01*
X168203277Y-98122723D01*
X168219753Y-98140901D01*
X168234368Y-98160607D01*
X168246980Y-98181650D01*
X168257470Y-98203829D01*
X168265735Y-98226928D01*
X168271696Y-98250727D01*
X168275296Y-98274995D01*
X168276500Y-98299499D01*
X168276500Y-98949501D01*
X168275296Y-98974005D01*
X168271696Y-98998273D01*
X168265735Y-99022072D01*
X168257470Y-99045171D01*
X168246980Y-99067350D01*
X168234368Y-99088393D01*
X168219753Y-99108099D01*
X168203277Y-99126277D01*
X168185099Y-99142753D01*
X168165393Y-99157368D01*
X168144350Y-99169980D01*
X168122171Y-99180470D01*
X168099072Y-99188735D01*
X168075273Y-99194696D01*
X168051005Y-99198296D01*
X168026501Y-99199500D01*
X167126499Y-99199500D01*
X167101995Y-99198296D01*
X167077727Y-99194696D01*
X167053928Y-99188735D01*
X167030829Y-99180470D01*
X167008650Y-99169980D01*
X166987607Y-99157368D01*
X166967901Y-99142753D01*
X166949723Y-99126277D01*
X166933247Y-99108099D01*
X166918632Y-99088393D01*
X166906020Y-99067350D01*
X166895530Y-99045171D01*
X166887265Y-99022072D01*
X166881304Y-98998273D01*
X166877704Y-98974005D01*
X166876500Y-98949501D01*
X166876500Y-98299499D01*
X166877704Y-98274995D01*
X166881304Y-98250727D01*
X166887265Y-98226928D01*
X166895530Y-98203829D01*
X166906020Y-98181650D01*
X166918632Y-98160607D01*
X166933247Y-98140901D01*
X166949723Y-98122723D01*
X166967901Y-98106247D01*
X166987607Y-98091632D01*
X167008650Y-98079020D01*
X167030829Y-98068530D01*
X167053928Y-98060265D01*
X167077727Y-98054304D01*
X167101995Y-98050704D01*
X167126499Y-98049500D01*
X168026501Y-98049500D01*
X168051005Y-98050704D01*
X168051005Y-98050704D01*
G37*
D11*
X167576500Y-98624500D03*
D10*
G36*
X166130504Y-103455704D02*
G01*
X166154773Y-103459304D01*
X166178571Y-103465265D01*
X166201671Y-103473530D01*
X166223849Y-103484020D01*
X166244893Y-103496633D01*
X166264598Y-103511247D01*
X166282777Y-103527723D01*
X166299253Y-103545902D01*
X166313867Y-103565607D01*
X166326480Y-103586651D01*
X166336970Y-103608829D01*
X166345235Y-103631929D01*
X166351196Y-103655727D01*
X166354796Y-103679996D01*
X166356000Y-103704500D01*
X166356000Y-104629500D01*
X166354796Y-104654004D01*
X166351196Y-104678273D01*
X166345235Y-104702071D01*
X166336970Y-104725171D01*
X166326480Y-104747349D01*
X166313867Y-104768393D01*
X166299253Y-104788098D01*
X166282777Y-104806277D01*
X166264598Y-104822753D01*
X166244893Y-104837367D01*
X166223849Y-104849980D01*
X166201671Y-104860470D01*
X166178571Y-104868735D01*
X166154773Y-104874696D01*
X166130504Y-104878296D01*
X166106000Y-104879500D01*
X164856000Y-104879500D01*
X164831496Y-104878296D01*
X164807227Y-104874696D01*
X164783429Y-104868735D01*
X164760329Y-104860470D01*
X164738151Y-104849980D01*
X164717107Y-104837367D01*
X164697402Y-104822753D01*
X164679223Y-104806277D01*
X164662747Y-104788098D01*
X164648133Y-104768393D01*
X164635520Y-104747349D01*
X164625030Y-104725171D01*
X164616765Y-104702071D01*
X164610804Y-104678273D01*
X164607204Y-104654004D01*
X164606000Y-104629500D01*
X164606000Y-103704500D01*
X164607204Y-103679996D01*
X164610804Y-103655727D01*
X164616765Y-103631929D01*
X164625030Y-103608829D01*
X164635520Y-103586651D01*
X164648133Y-103565607D01*
X164662747Y-103545902D01*
X164679223Y-103527723D01*
X164697402Y-103511247D01*
X164717107Y-103496633D01*
X164738151Y-103484020D01*
X164760329Y-103473530D01*
X164783429Y-103465265D01*
X164807227Y-103459304D01*
X164831496Y-103455704D01*
X164856000Y-103454500D01*
X166106000Y-103454500D01*
X166130504Y-103455704D01*
X166130504Y-103455704D01*
G37*
D13*
X165481000Y-104167000D03*
D10*
G36*
X166130504Y-100480704D02*
G01*
X166154773Y-100484304D01*
X166178571Y-100490265D01*
X166201671Y-100498530D01*
X166223849Y-100509020D01*
X166244893Y-100521633D01*
X166264598Y-100536247D01*
X166282777Y-100552723D01*
X166299253Y-100570902D01*
X166313867Y-100590607D01*
X166326480Y-100611651D01*
X166336970Y-100633829D01*
X166345235Y-100656929D01*
X166351196Y-100680727D01*
X166354796Y-100704996D01*
X166356000Y-100729500D01*
X166356000Y-101654500D01*
X166354796Y-101679004D01*
X166351196Y-101703273D01*
X166345235Y-101727071D01*
X166336970Y-101750171D01*
X166326480Y-101772349D01*
X166313867Y-101793393D01*
X166299253Y-101813098D01*
X166282777Y-101831277D01*
X166264598Y-101847753D01*
X166244893Y-101862367D01*
X166223849Y-101874980D01*
X166201671Y-101885470D01*
X166178571Y-101893735D01*
X166154773Y-101899696D01*
X166130504Y-101903296D01*
X166106000Y-101904500D01*
X164856000Y-101904500D01*
X164831496Y-101903296D01*
X164807227Y-101899696D01*
X164783429Y-101893735D01*
X164760329Y-101885470D01*
X164738151Y-101874980D01*
X164717107Y-101862367D01*
X164697402Y-101847753D01*
X164679223Y-101831277D01*
X164662747Y-101813098D01*
X164648133Y-101793393D01*
X164635520Y-101772349D01*
X164625030Y-101750171D01*
X164616765Y-101727071D01*
X164610804Y-101703273D01*
X164607204Y-101679004D01*
X164606000Y-101654500D01*
X164606000Y-100729500D01*
X164607204Y-100704996D01*
X164610804Y-100680727D01*
X164616765Y-100656929D01*
X164625030Y-100633829D01*
X164635520Y-100611651D01*
X164648133Y-100590607D01*
X164662747Y-100570902D01*
X164679223Y-100552723D01*
X164697402Y-100536247D01*
X164717107Y-100521633D01*
X164738151Y-100509020D01*
X164760329Y-100498530D01*
X164783429Y-100490265D01*
X164807227Y-100484304D01*
X164831496Y-100480704D01*
X164856000Y-100479500D01*
X166106000Y-100479500D01*
X166130504Y-100480704D01*
X166130504Y-100480704D01*
G37*
D13*
X165481000Y-101192000D03*
D10*
G36*
X166130504Y-95527704D02*
G01*
X166154773Y-95531304D01*
X166178571Y-95537265D01*
X166201671Y-95545530D01*
X166223849Y-95556020D01*
X166244893Y-95568633D01*
X166264598Y-95583247D01*
X166282777Y-95599723D01*
X166299253Y-95617902D01*
X166313867Y-95637607D01*
X166326480Y-95658651D01*
X166336970Y-95680829D01*
X166345235Y-95703929D01*
X166351196Y-95727727D01*
X166354796Y-95751996D01*
X166356000Y-95776500D01*
X166356000Y-96701500D01*
X166354796Y-96726004D01*
X166351196Y-96750273D01*
X166345235Y-96774071D01*
X166336970Y-96797171D01*
X166326480Y-96819349D01*
X166313867Y-96840393D01*
X166299253Y-96860098D01*
X166282777Y-96878277D01*
X166264598Y-96894753D01*
X166244893Y-96909367D01*
X166223849Y-96921980D01*
X166201671Y-96932470D01*
X166178571Y-96940735D01*
X166154773Y-96946696D01*
X166130504Y-96950296D01*
X166106000Y-96951500D01*
X164856000Y-96951500D01*
X164831496Y-96950296D01*
X164807227Y-96946696D01*
X164783429Y-96940735D01*
X164760329Y-96932470D01*
X164738151Y-96921980D01*
X164717107Y-96909367D01*
X164697402Y-96894753D01*
X164679223Y-96878277D01*
X164662747Y-96860098D01*
X164648133Y-96840393D01*
X164635520Y-96819349D01*
X164625030Y-96797171D01*
X164616765Y-96774071D01*
X164610804Y-96750273D01*
X164607204Y-96726004D01*
X164606000Y-96701500D01*
X164606000Y-95776500D01*
X164607204Y-95751996D01*
X164610804Y-95727727D01*
X164616765Y-95703929D01*
X164625030Y-95680829D01*
X164635520Y-95658651D01*
X164648133Y-95637607D01*
X164662747Y-95617902D01*
X164679223Y-95599723D01*
X164697402Y-95583247D01*
X164717107Y-95568633D01*
X164738151Y-95556020D01*
X164760329Y-95545530D01*
X164783429Y-95537265D01*
X164807227Y-95531304D01*
X164831496Y-95527704D01*
X164856000Y-95526500D01*
X166106000Y-95526500D01*
X166130504Y-95527704D01*
X166130504Y-95527704D01*
G37*
D13*
X165481000Y-96239000D03*
D10*
G36*
X166130504Y-98502704D02*
G01*
X166154773Y-98506304D01*
X166178571Y-98512265D01*
X166201671Y-98520530D01*
X166223849Y-98531020D01*
X166244893Y-98543633D01*
X166264598Y-98558247D01*
X166282777Y-98574723D01*
X166299253Y-98592902D01*
X166313867Y-98612607D01*
X166326480Y-98633651D01*
X166336970Y-98655829D01*
X166345235Y-98678929D01*
X166351196Y-98702727D01*
X166354796Y-98726996D01*
X166356000Y-98751500D01*
X166356000Y-99676500D01*
X166354796Y-99701004D01*
X166351196Y-99725273D01*
X166345235Y-99749071D01*
X166336970Y-99772171D01*
X166326480Y-99794349D01*
X166313867Y-99815393D01*
X166299253Y-99835098D01*
X166282777Y-99853277D01*
X166264598Y-99869753D01*
X166244893Y-99884367D01*
X166223849Y-99896980D01*
X166201671Y-99907470D01*
X166178571Y-99915735D01*
X166154773Y-99921696D01*
X166130504Y-99925296D01*
X166106000Y-99926500D01*
X164856000Y-99926500D01*
X164831496Y-99925296D01*
X164807227Y-99921696D01*
X164783429Y-99915735D01*
X164760329Y-99907470D01*
X164738151Y-99896980D01*
X164717107Y-99884367D01*
X164697402Y-99869753D01*
X164679223Y-99853277D01*
X164662747Y-99835098D01*
X164648133Y-99815393D01*
X164635520Y-99794349D01*
X164625030Y-99772171D01*
X164616765Y-99749071D01*
X164610804Y-99725273D01*
X164607204Y-99701004D01*
X164606000Y-99676500D01*
X164606000Y-98751500D01*
X164607204Y-98726996D01*
X164610804Y-98702727D01*
X164616765Y-98678929D01*
X164625030Y-98655829D01*
X164635520Y-98633651D01*
X164648133Y-98612607D01*
X164662747Y-98592902D01*
X164679223Y-98574723D01*
X164697402Y-98558247D01*
X164717107Y-98543633D01*
X164738151Y-98531020D01*
X164760329Y-98520530D01*
X164783429Y-98512265D01*
X164807227Y-98506304D01*
X164831496Y-98502704D01*
X164856000Y-98501500D01*
X166106000Y-98501500D01*
X166130504Y-98502704D01*
X166130504Y-98502704D01*
G37*
D13*
X165481000Y-99214000D03*
D14*
X169593500Y-109728000D03*
D10*
G36*
X170093500Y-110478000D02*
G01*
X169593500Y-110478000D01*
X169593500Y-110477398D01*
X169568966Y-110477398D01*
X169520135Y-110472588D01*
X169472010Y-110463016D01*
X169425055Y-110448772D01*
X169379722Y-110429995D01*
X169336449Y-110406864D01*
X169295650Y-110379604D01*
X169257721Y-110348476D01*
X169223024Y-110313779D01*
X169191896Y-110275850D01*
X169164636Y-110235051D01*
X169141505Y-110191778D01*
X169122728Y-110146445D01*
X169108484Y-110099490D01*
X169098912Y-110051365D01*
X169094102Y-110002534D01*
X169094102Y-109978000D01*
X169093500Y-109978000D01*
X169093500Y-109478000D01*
X169094102Y-109478000D01*
X169094102Y-109453466D01*
X169098912Y-109404635D01*
X169108484Y-109356510D01*
X169122728Y-109309555D01*
X169141505Y-109264222D01*
X169164636Y-109220949D01*
X169191896Y-109180150D01*
X169223024Y-109142221D01*
X169257721Y-109107524D01*
X169295650Y-109076396D01*
X169336449Y-109049136D01*
X169379722Y-109026005D01*
X169425055Y-109007228D01*
X169472010Y-108992984D01*
X169520135Y-108983412D01*
X169568966Y-108978602D01*
X169593500Y-108978602D01*
X169593500Y-108978000D01*
X170093500Y-108978000D01*
X170093500Y-110478000D01*
X170093500Y-110478000D01*
G37*
D14*
X170893500Y-109728000D03*
D10*
G36*
X170893500Y-108978602D02*
G01*
X170918034Y-108978602D01*
X170966865Y-108983412D01*
X171014990Y-108992984D01*
X171061945Y-109007228D01*
X171107278Y-109026005D01*
X171150551Y-109049136D01*
X171191350Y-109076396D01*
X171229279Y-109107524D01*
X171263976Y-109142221D01*
X171295104Y-109180150D01*
X171322364Y-109220949D01*
X171345495Y-109264222D01*
X171364272Y-109309555D01*
X171378516Y-109356510D01*
X171388088Y-109404635D01*
X171392898Y-109453466D01*
X171392898Y-109478000D01*
X171393500Y-109478000D01*
X171393500Y-109978000D01*
X171392898Y-109978000D01*
X171392898Y-110002534D01*
X171388088Y-110051365D01*
X171378516Y-110099490D01*
X171364272Y-110146445D01*
X171345495Y-110191778D01*
X171322364Y-110235051D01*
X171295104Y-110275850D01*
X171263976Y-110313779D01*
X171229279Y-110348476D01*
X171191350Y-110379604D01*
X171150551Y-110406864D01*
X171107278Y-110429995D01*
X171061945Y-110448772D01*
X171014990Y-110463016D01*
X170966865Y-110472588D01*
X170918034Y-110477398D01*
X170893500Y-110477398D01*
X170893500Y-110478000D01*
X170393500Y-110478000D01*
X170393500Y-108978000D01*
X170893500Y-108978000D01*
X170893500Y-108978602D01*
X170893500Y-108978602D01*
G37*
D14*
X179318920Y-131150600D03*
D10*
G36*
X178568920Y-131650600D02*
G01*
X178568920Y-131150600D01*
X178569522Y-131150600D01*
X178569522Y-131126066D01*
X178574332Y-131077235D01*
X178583904Y-131029110D01*
X178598148Y-130982155D01*
X178616925Y-130936822D01*
X178640056Y-130893549D01*
X178667316Y-130852750D01*
X178698444Y-130814821D01*
X178733141Y-130780124D01*
X178771070Y-130748996D01*
X178811869Y-130721736D01*
X178855142Y-130698605D01*
X178900475Y-130679828D01*
X178947430Y-130665584D01*
X178995555Y-130656012D01*
X179044386Y-130651202D01*
X179068920Y-130651202D01*
X179068920Y-130650600D01*
X179568920Y-130650600D01*
X179568920Y-130651202D01*
X179593454Y-130651202D01*
X179642285Y-130656012D01*
X179690410Y-130665584D01*
X179737365Y-130679828D01*
X179782698Y-130698605D01*
X179825971Y-130721736D01*
X179866770Y-130748996D01*
X179904699Y-130780124D01*
X179939396Y-130814821D01*
X179970524Y-130852750D01*
X179997784Y-130893549D01*
X180020915Y-130936822D01*
X180039692Y-130982155D01*
X180053936Y-131029110D01*
X180063508Y-131077235D01*
X180068318Y-131126066D01*
X180068318Y-131150600D01*
X180068920Y-131150600D01*
X180068920Y-131650600D01*
X178568920Y-131650600D01*
X178568920Y-131650600D01*
G37*
D14*
X179318920Y-132450600D03*
D10*
G36*
X180068318Y-132450600D02*
G01*
X180068318Y-132475134D01*
X180063508Y-132523965D01*
X180053936Y-132572090D01*
X180039692Y-132619045D01*
X180020915Y-132664378D01*
X179997784Y-132707651D01*
X179970524Y-132748450D01*
X179939396Y-132786379D01*
X179904699Y-132821076D01*
X179866770Y-132852204D01*
X179825971Y-132879464D01*
X179782698Y-132902595D01*
X179737365Y-132921372D01*
X179690410Y-132935616D01*
X179642285Y-132945188D01*
X179593454Y-132949998D01*
X179568920Y-132949998D01*
X179568920Y-132950600D01*
X179068920Y-132950600D01*
X179068920Y-132949998D01*
X179044386Y-132949998D01*
X178995555Y-132945188D01*
X178947430Y-132935616D01*
X178900475Y-132921372D01*
X178855142Y-132902595D01*
X178811869Y-132879464D01*
X178771070Y-132852204D01*
X178733141Y-132821076D01*
X178698444Y-132786379D01*
X178667316Y-132748450D01*
X178640056Y-132707651D01*
X178616925Y-132664378D01*
X178598148Y-132619045D01*
X178583904Y-132572090D01*
X178574332Y-132523965D01*
X178569522Y-132475134D01*
X178569522Y-132450600D01*
X178568920Y-132450600D01*
X178568920Y-131950600D01*
X180068920Y-131950600D01*
X180068920Y-132450600D01*
X180068318Y-132450600D01*
X180068318Y-132450600D01*
G37*
D15*
X248666000Y-45847000D03*
D16*
X251666000Y-45847000D03*
X250787320Y-47968320D03*
X248666000Y-48847000D03*
X246544680Y-47968320D03*
X245666000Y-45847000D03*
X246544680Y-43725680D03*
X248666000Y-42847000D03*
X250787320Y-43725680D03*
D15*
X212979000Y-119126000D03*
D16*
X215979000Y-119126000D03*
X215100320Y-121247320D03*
X212979000Y-122126000D03*
X210857680Y-121247320D03*
X209979000Y-119126000D03*
X210857680Y-117004680D03*
X212979000Y-116126000D03*
X215100320Y-117004680D03*
X170871720Y-125902720D03*
X168750400Y-125024040D03*
X166629080Y-125902720D03*
X165750400Y-128024040D03*
X166629080Y-130145360D03*
X168750400Y-131024040D03*
X170871720Y-130145360D03*
X171750400Y-128024040D03*
D15*
X168750400Y-128024040D03*
D16*
X177313000Y-48231640D03*
X175191680Y-47352960D03*
X173070360Y-48231640D03*
X172191680Y-50352960D03*
X173070360Y-52474280D03*
X175191680Y-53352960D03*
X177313000Y-52474280D03*
X178191680Y-50352960D03*
D15*
X175191680Y-50352960D03*
D10*
G36*
X226468105Y-106573104D02*
G01*
X226492373Y-106576704D01*
X226516172Y-106582665D01*
X226539271Y-106590930D01*
X226561450Y-106601420D01*
X226582493Y-106614032D01*
X226602199Y-106628647D01*
X226620377Y-106645123D01*
X226636853Y-106663301D01*
X226651468Y-106683007D01*
X226664080Y-106704050D01*
X226674570Y-106726229D01*
X226682835Y-106749328D01*
X226688796Y-106773127D01*
X226692396Y-106797395D01*
X226693600Y-106821899D01*
X226693600Y-107846901D01*
X226692396Y-107871405D01*
X226688796Y-107895673D01*
X226682835Y-107919472D01*
X226674570Y-107942571D01*
X226664080Y-107964750D01*
X226651468Y-107985793D01*
X226636853Y-108005499D01*
X226620377Y-108023677D01*
X226602199Y-108040153D01*
X226582493Y-108054768D01*
X226561450Y-108067380D01*
X226539271Y-108077870D01*
X226516172Y-108086135D01*
X226492373Y-108092096D01*
X226468105Y-108095696D01*
X226443601Y-108096900D01*
X223593599Y-108096900D01*
X223569095Y-108095696D01*
X223544827Y-108092096D01*
X223521028Y-108086135D01*
X223497929Y-108077870D01*
X223475750Y-108067380D01*
X223454707Y-108054768D01*
X223435001Y-108040153D01*
X223416823Y-108023677D01*
X223400347Y-108005499D01*
X223385732Y-107985793D01*
X223373120Y-107964750D01*
X223362630Y-107942571D01*
X223354365Y-107919472D01*
X223348404Y-107895673D01*
X223344804Y-107871405D01*
X223343600Y-107846901D01*
X223343600Y-106821899D01*
X223344804Y-106797395D01*
X223348404Y-106773127D01*
X223354365Y-106749328D01*
X223362630Y-106726229D01*
X223373120Y-106704050D01*
X223385732Y-106683007D01*
X223400347Y-106663301D01*
X223416823Y-106645123D01*
X223435001Y-106628647D01*
X223454707Y-106614032D01*
X223475750Y-106601420D01*
X223497929Y-106590930D01*
X223521028Y-106582665D01*
X223544827Y-106576704D01*
X223569095Y-106573104D01*
X223593599Y-106571900D01*
X226443601Y-106571900D01*
X226468105Y-106573104D01*
X226468105Y-106573104D01*
G37*
D17*
X225018600Y-107334400D03*
D10*
G36*
X226468105Y-112548104D02*
G01*
X226492373Y-112551704D01*
X226516172Y-112557665D01*
X226539271Y-112565930D01*
X226561450Y-112576420D01*
X226582493Y-112589032D01*
X226602199Y-112603647D01*
X226620377Y-112620123D01*
X226636853Y-112638301D01*
X226651468Y-112658007D01*
X226664080Y-112679050D01*
X226674570Y-112701229D01*
X226682835Y-112724328D01*
X226688796Y-112748127D01*
X226692396Y-112772395D01*
X226693600Y-112796899D01*
X226693600Y-113821901D01*
X226692396Y-113846405D01*
X226688796Y-113870673D01*
X226682835Y-113894472D01*
X226674570Y-113917571D01*
X226664080Y-113939750D01*
X226651468Y-113960793D01*
X226636853Y-113980499D01*
X226620377Y-113998677D01*
X226602199Y-114015153D01*
X226582493Y-114029768D01*
X226561450Y-114042380D01*
X226539271Y-114052870D01*
X226516172Y-114061135D01*
X226492373Y-114067096D01*
X226468105Y-114070696D01*
X226443601Y-114071900D01*
X223593599Y-114071900D01*
X223569095Y-114070696D01*
X223544827Y-114067096D01*
X223521028Y-114061135D01*
X223497929Y-114052870D01*
X223475750Y-114042380D01*
X223454707Y-114029768D01*
X223435001Y-114015153D01*
X223416823Y-113998677D01*
X223400347Y-113980499D01*
X223385732Y-113960793D01*
X223373120Y-113939750D01*
X223362630Y-113917571D01*
X223354365Y-113894472D01*
X223348404Y-113870673D01*
X223344804Y-113846405D01*
X223343600Y-113821901D01*
X223343600Y-112796899D01*
X223344804Y-112772395D01*
X223348404Y-112748127D01*
X223354365Y-112724328D01*
X223362630Y-112701229D01*
X223373120Y-112679050D01*
X223385732Y-112658007D01*
X223400347Y-112638301D01*
X223416823Y-112620123D01*
X223435001Y-112603647D01*
X223454707Y-112589032D01*
X223475750Y-112576420D01*
X223497929Y-112565930D01*
X223521028Y-112557665D01*
X223544827Y-112551704D01*
X223569095Y-112548104D01*
X223593599Y-112546900D01*
X226443601Y-112546900D01*
X226468105Y-112548104D01*
X226468105Y-112548104D01*
G37*
D17*
X225018600Y-113309400D03*
D10*
G36*
X227063905Y-123649804D02*
G01*
X227088173Y-123653404D01*
X227111972Y-123659365D01*
X227135071Y-123667630D01*
X227157250Y-123678120D01*
X227178293Y-123690732D01*
X227197999Y-123705347D01*
X227216177Y-123721823D01*
X227232653Y-123740001D01*
X227247268Y-123759707D01*
X227259880Y-123780750D01*
X227270370Y-123802929D01*
X227278635Y-123826028D01*
X227284596Y-123849827D01*
X227288196Y-123874095D01*
X227289400Y-123898599D01*
X227289400Y-126748601D01*
X227288196Y-126773105D01*
X227284596Y-126797373D01*
X227278635Y-126821172D01*
X227270370Y-126844271D01*
X227259880Y-126866450D01*
X227247268Y-126887493D01*
X227232653Y-126907199D01*
X227216177Y-126925377D01*
X227197999Y-126941853D01*
X227178293Y-126956468D01*
X227157250Y-126969080D01*
X227135071Y-126979570D01*
X227111972Y-126987835D01*
X227088173Y-126993796D01*
X227063905Y-126997396D01*
X227039401Y-126998600D01*
X226014399Y-126998600D01*
X225989895Y-126997396D01*
X225965627Y-126993796D01*
X225941828Y-126987835D01*
X225918729Y-126979570D01*
X225896550Y-126969080D01*
X225875507Y-126956468D01*
X225855801Y-126941853D01*
X225837623Y-126925377D01*
X225821147Y-126907199D01*
X225806532Y-126887493D01*
X225793920Y-126866450D01*
X225783430Y-126844271D01*
X225775165Y-126821172D01*
X225769204Y-126797373D01*
X225765604Y-126773105D01*
X225764400Y-126748601D01*
X225764400Y-123898599D01*
X225765604Y-123874095D01*
X225769204Y-123849827D01*
X225775165Y-123826028D01*
X225783430Y-123802929D01*
X225793920Y-123780750D01*
X225806532Y-123759707D01*
X225821147Y-123740001D01*
X225837623Y-123721823D01*
X225855801Y-123705347D01*
X225875507Y-123690732D01*
X225896550Y-123678120D01*
X225918729Y-123667630D01*
X225941828Y-123659365D01*
X225965627Y-123653404D01*
X225989895Y-123649804D01*
X226014399Y-123648600D01*
X227039401Y-123648600D01*
X227063905Y-123649804D01*
X227063905Y-123649804D01*
G37*
D17*
X226526900Y-125323600D03*
D10*
G36*
X233038905Y-123649804D02*
G01*
X233063173Y-123653404D01*
X233086972Y-123659365D01*
X233110071Y-123667630D01*
X233132250Y-123678120D01*
X233153293Y-123690732D01*
X233172999Y-123705347D01*
X233191177Y-123721823D01*
X233207653Y-123740001D01*
X233222268Y-123759707D01*
X233234880Y-123780750D01*
X233245370Y-123802929D01*
X233253635Y-123826028D01*
X233259596Y-123849827D01*
X233263196Y-123874095D01*
X233264400Y-123898599D01*
X233264400Y-126748601D01*
X233263196Y-126773105D01*
X233259596Y-126797373D01*
X233253635Y-126821172D01*
X233245370Y-126844271D01*
X233234880Y-126866450D01*
X233222268Y-126887493D01*
X233207653Y-126907199D01*
X233191177Y-126925377D01*
X233172999Y-126941853D01*
X233153293Y-126956468D01*
X233132250Y-126969080D01*
X233110071Y-126979570D01*
X233086972Y-126987835D01*
X233063173Y-126993796D01*
X233038905Y-126997396D01*
X233014401Y-126998600D01*
X231989399Y-126998600D01*
X231964895Y-126997396D01*
X231940627Y-126993796D01*
X231916828Y-126987835D01*
X231893729Y-126979570D01*
X231871550Y-126969080D01*
X231850507Y-126956468D01*
X231830801Y-126941853D01*
X231812623Y-126925377D01*
X231796147Y-126907199D01*
X231781532Y-126887493D01*
X231768920Y-126866450D01*
X231758430Y-126844271D01*
X231750165Y-126821172D01*
X231744204Y-126797373D01*
X231740604Y-126773105D01*
X231739400Y-126748601D01*
X231739400Y-123898599D01*
X231740604Y-123874095D01*
X231744204Y-123849827D01*
X231750165Y-123826028D01*
X231758430Y-123802929D01*
X231768920Y-123780750D01*
X231781532Y-123759707D01*
X231796147Y-123740001D01*
X231812623Y-123721823D01*
X231830801Y-123705347D01*
X231850507Y-123690732D01*
X231871550Y-123678120D01*
X231893729Y-123667630D01*
X231916828Y-123659365D01*
X231940627Y-123653404D01*
X231964895Y-123649804D01*
X231989399Y-123648600D01*
X233014401Y-123648600D01*
X233038905Y-123649804D01*
X233038905Y-123649804D01*
G37*
D17*
X232501900Y-125323600D03*
D18*
X230122000Y-75501500D03*
X230122000Y-74231500D03*
X230122000Y-72961500D03*
X230122000Y-71691500D03*
D19*
X224422000Y-71691500D03*
X224422000Y-72961500D03*
X224422000Y-74231500D03*
X224422000Y-75501500D03*
D20*
X226822000Y-73596500D03*
X226822000Y-61976000D03*
D19*
X224422000Y-63881000D03*
X224422000Y-62611000D03*
X224422000Y-61341000D03*
X224422000Y-60071000D03*
D18*
X230122000Y-60071000D03*
X230122000Y-61341000D03*
X230122000Y-62611000D03*
X230122000Y-63881000D03*
X208218500Y-76708000D03*
X208218500Y-77978000D03*
X208218500Y-79248000D03*
X208218500Y-80518000D03*
D19*
X213918500Y-80518000D03*
X213918500Y-79248000D03*
X213918500Y-77978000D03*
X213918500Y-76708000D03*
D20*
X211518500Y-78613000D03*
X211518500Y-65278000D03*
D19*
X213918500Y-63373000D03*
X213918500Y-64643000D03*
X213918500Y-65913000D03*
X213918500Y-67183000D03*
D18*
X208218500Y-67183000D03*
X208218500Y-65913000D03*
X208218500Y-64643000D03*
X208218500Y-63373000D03*
D12*
X174205900Y-123654820D03*
D21*
X167538400Y-119693080D03*
X167538400Y-117193080D03*
X167538400Y-114693080D03*
X167538400Y-112193080D03*
X167538400Y-109693080D03*
D10*
G36*
X168287904Y-106344284D02*
G01*
X168312173Y-106347884D01*
X168335971Y-106353845D01*
X168359071Y-106362110D01*
X168381249Y-106372600D01*
X168402293Y-106385213D01*
X168421998Y-106399827D01*
X168440177Y-106416303D01*
X168456653Y-106434482D01*
X168471267Y-106454187D01*
X168483880Y-106475231D01*
X168494370Y-106497409D01*
X168502635Y-106520509D01*
X168508596Y-106544307D01*
X168512196Y-106568576D01*
X168513400Y-106593080D01*
X168513400Y-107793080D01*
X168512196Y-107817584D01*
X168508596Y-107841853D01*
X168502635Y-107865651D01*
X168494370Y-107888751D01*
X168483880Y-107910929D01*
X168471267Y-107931973D01*
X168456653Y-107951678D01*
X168440177Y-107969857D01*
X168421998Y-107986333D01*
X168402293Y-108000947D01*
X168381249Y-108013560D01*
X168359071Y-108024050D01*
X168335971Y-108032315D01*
X168312173Y-108038276D01*
X168287904Y-108041876D01*
X168263400Y-108043080D01*
X166813400Y-108043080D01*
X166788896Y-108041876D01*
X166764627Y-108038276D01*
X166740829Y-108032315D01*
X166717729Y-108024050D01*
X166695551Y-108013560D01*
X166674507Y-108000947D01*
X166654802Y-107986333D01*
X166636623Y-107969857D01*
X166620147Y-107951678D01*
X166605533Y-107931973D01*
X166592920Y-107910929D01*
X166582430Y-107888751D01*
X166574165Y-107865651D01*
X166568204Y-107841853D01*
X166564604Y-107817584D01*
X166563400Y-107793080D01*
X166563400Y-106593080D01*
X166564604Y-106568576D01*
X166568204Y-106544307D01*
X166574165Y-106520509D01*
X166582430Y-106497409D01*
X166592920Y-106475231D01*
X166605533Y-106454187D01*
X166620147Y-106434482D01*
X166636623Y-106416303D01*
X166654802Y-106399827D01*
X166674507Y-106385213D01*
X166695551Y-106372600D01*
X166717729Y-106362110D01*
X166740829Y-106353845D01*
X166764627Y-106347884D01*
X166788896Y-106344284D01*
X166813400Y-106343080D01*
X168263400Y-106343080D01*
X168287904Y-106344284D01*
X168287904Y-106344284D01*
G37*
D22*
X167538400Y-107193080D03*
D10*
G36*
X229805142Y-83121174D02*
G01*
X229828803Y-83124684D01*
X229852007Y-83130496D01*
X229874529Y-83138554D01*
X229896153Y-83148782D01*
X229916670Y-83161079D01*
X229935883Y-83175329D01*
X229953607Y-83191393D01*
X229969671Y-83209117D01*
X229983921Y-83228330D01*
X229996218Y-83248847D01*
X230006446Y-83270471D01*
X230014504Y-83292993D01*
X230020316Y-83316197D01*
X230023826Y-83339858D01*
X230025000Y-83363750D01*
X230025000Y-84276250D01*
X230023826Y-84300142D01*
X230020316Y-84323803D01*
X230014504Y-84347007D01*
X230006446Y-84369529D01*
X229996218Y-84391153D01*
X229983921Y-84411670D01*
X229969671Y-84430883D01*
X229953607Y-84448607D01*
X229935883Y-84464671D01*
X229916670Y-84478921D01*
X229896153Y-84491218D01*
X229874529Y-84501446D01*
X229852007Y-84509504D01*
X229828803Y-84515316D01*
X229805142Y-84518826D01*
X229781250Y-84520000D01*
X229293750Y-84520000D01*
X229269858Y-84518826D01*
X229246197Y-84515316D01*
X229222993Y-84509504D01*
X229200471Y-84501446D01*
X229178847Y-84491218D01*
X229158330Y-84478921D01*
X229139117Y-84464671D01*
X229121393Y-84448607D01*
X229105329Y-84430883D01*
X229091079Y-84411670D01*
X229078782Y-84391153D01*
X229068554Y-84369529D01*
X229060496Y-84347007D01*
X229054684Y-84323803D01*
X229051174Y-84300142D01*
X229050000Y-84276250D01*
X229050000Y-83363750D01*
X229051174Y-83339858D01*
X229054684Y-83316197D01*
X229060496Y-83292993D01*
X229068554Y-83270471D01*
X229078782Y-83248847D01*
X229091079Y-83228330D01*
X229105329Y-83209117D01*
X229121393Y-83191393D01*
X229139117Y-83175329D01*
X229158330Y-83161079D01*
X229178847Y-83148782D01*
X229200471Y-83138554D01*
X229222993Y-83130496D01*
X229246197Y-83124684D01*
X229269858Y-83121174D01*
X229293750Y-83120000D01*
X229781250Y-83120000D01*
X229805142Y-83121174D01*
X229805142Y-83121174D01*
G37*
D23*
X229537500Y-83820000D03*
D10*
G36*
X227930142Y-83121174D02*
G01*
X227953803Y-83124684D01*
X227977007Y-83130496D01*
X227999529Y-83138554D01*
X228021153Y-83148782D01*
X228041670Y-83161079D01*
X228060883Y-83175329D01*
X228078607Y-83191393D01*
X228094671Y-83209117D01*
X228108921Y-83228330D01*
X228121218Y-83248847D01*
X228131446Y-83270471D01*
X228139504Y-83292993D01*
X228145316Y-83316197D01*
X228148826Y-83339858D01*
X228150000Y-83363750D01*
X228150000Y-84276250D01*
X228148826Y-84300142D01*
X228145316Y-84323803D01*
X228139504Y-84347007D01*
X228131446Y-84369529D01*
X228121218Y-84391153D01*
X228108921Y-84411670D01*
X228094671Y-84430883D01*
X228078607Y-84448607D01*
X228060883Y-84464671D01*
X228041670Y-84478921D01*
X228021153Y-84491218D01*
X227999529Y-84501446D01*
X227977007Y-84509504D01*
X227953803Y-84515316D01*
X227930142Y-84518826D01*
X227906250Y-84520000D01*
X227418750Y-84520000D01*
X227394858Y-84518826D01*
X227371197Y-84515316D01*
X227347993Y-84509504D01*
X227325471Y-84501446D01*
X227303847Y-84491218D01*
X227283330Y-84478921D01*
X227264117Y-84464671D01*
X227246393Y-84448607D01*
X227230329Y-84430883D01*
X227216079Y-84411670D01*
X227203782Y-84391153D01*
X227193554Y-84369529D01*
X227185496Y-84347007D01*
X227179684Y-84323803D01*
X227176174Y-84300142D01*
X227175000Y-84276250D01*
X227175000Y-83363750D01*
X227176174Y-83339858D01*
X227179684Y-83316197D01*
X227185496Y-83292993D01*
X227193554Y-83270471D01*
X227203782Y-83248847D01*
X227216079Y-83228330D01*
X227230329Y-83209117D01*
X227246393Y-83191393D01*
X227264117Y-83175329D01*
X227283330Y-83161079D01*
X227303847Y-83148782D01*
X227325471Y-83138554D01*
X227347993Y-83130496D01*
X227371197Y-83124684D01*
X227394858Y-83121174D01*
X227418750Y-83120000D01*
X227906250Y-83120000D01*
X227930142Y-83121174D01*
X227930142Y-83121174D01*
G37*
D23*
X227662500Y-83820000D03*
D10*
G36*
X202410142Y-94920674D02*
G01*
X202433803Y-94924184D01*
X202457007Y-94929996D01*
X202479529Y-94938054D01*
X202501153Y-94948282D01*
X202521670Y-94960579D01*
X202540883Y-94974829D01*
X202558607Y-94990893D01*
X202574671Y-95008617D01*
X202588921Y-95027830D01*
X202601218Y-95048347D01*
X202611446Y-95069971D01*
X202619504Y-95092493D01*
X202625316Y-95115697D01*
X202628826Y-95139358D01*
X202630000Y-95163250D01*
X202630000Y-95650750D01*
X202628826Y-95674642D01*
X202625316Y-95698303D01*
X202619504Y-95721507D01*
X202611446Y-95744029D01*
X202601218Y-95765653D01*
X202588921Y-95786170D01*
X202574671Y-95805383D01*
X202558607Y-95823107D01*
X202540883Y-95839171D01*
X202521670Y-95853421D01*
X202501153Y-95865718D01*
X202479529Y-95875946D01*
X202457007Y-95884004D01*
X202433803Y-95889816D01*
X202410142Y-95893326D01*
X202386250Y-95894500D01*
X201473750Y-95894500D01*
X201449858Y-95893326D01*
X201426197Y-95889816D01*
X201402993Y-95884004D01*
X201380471Y-95875946D01*
X201358847Y-95865718D01*
X201338330Y-95853421D01*
X201319117Y-95839171D01*
X201301393Y-95823107D01*
X201285329Y-95805383D01*
X201271079Y-95786170D01*
X201258782Y-95765653D01*
X201248554Y-95744029D01*
X201240496Y-95721507D01*
X201234684Y-95698303D01*
X201231174Y-95674642D01*
X201230000Y-95650750D01*
X201230000Y-95163250D01*
X201231174Y-95139358D01*
X201234684Y-95115697D01*
X201240496Y-95092493D01*
X201248554Y-95069971D01*
X201258782Y-95048347D01*
X201271079Y-95027830D01*
X201285329Y-95008617D01*
X201301393Y-94990893D01*
X201319117Y-94974829D01*
X201338330Y-94960579D01*
X201358847Y-94948282D01*
X201380471Y-94938054D01*
X201402993Y-94929996D01*
X201426197Y-94924184D01*
X201449858Y-94920674D01*
X201473750Y-94919500D01*
X202386250Y-94919500D01*
X202410142Y-94920674D01*
X202410142Y-94920674D01*
G37*
D23*
X201930000Y-95407000D03*
D10*
G36*
X202410142Y-96795674D02*
G01*
X202433803Y-96799184D01*
X202457007Y-96804996D01*
X202479529Y-96813054D01*
X202501153Y-96823282D01*
X202521670Y-96835579D01*
X202540883Y-96849829D01*
X202558607Y-96865893D01*
X202574671Y-96883617D01*
X202588921Y-96902830D01*
X202601218Y-96923347D01*
X202611446Y-96944971D01*
X202619504Y-96967493D01*
X202625316Y-96990697D01*
X202628826Y-97014358D01*
X202630000Y-97038250D01*
X202630000Y-97525750D01*
X202628826Y-97549642D01*
X202625316Y-97573303D01*
X202619504Y-97596507D01*
X202611446Y-97619029D01*
X202601218Y-97640653D01*
X202588921Y-97661170D01*
X202574671Y-97680383D01*
X202558607Y-97698107D01*
X202540883Y-97714171D01*
X202521670Y-97728421D01*
X202501153Y-97740718D01*
X202479529Y-97750946D01*
X202457007Y-97759004D01*
X202433803Y-97764816D01*
X202410142Y-97768326D01*
X202386250Y-97769500D01*
X201473750Y-97769500D01*
X201449858Y-97768326D01*
X201426197Y-97764816D01*
X201402993Y-97759004D01*
X201380471Y-97750946D01*
X201358847Y-97740718D01*
X201338330Y-97728421D01*
X201319117Y-97714171D01*
X201301393Y-97698107D01*
X201285329Y-97680383D01*
X201271079Y-97661170D01*
X201258782Y-97640653D01*
X201248554Y-97619029D01*
X201240496Y-97596507D01*
X201234684Y-97573303D01*
X201231174Y-97549642D01*
X201230000Y-97525750D01*
X201230000Y-97038250D01*
X201231174Y-97014358D01*
X201234684Y-96990697D01*
X201240496Y-96967493D01*
X201248554Y-96944971D01*
X201258782Y-96923347D01*
X201271079Y-96902830D01*
X201285329Y-96883617D01*
X201301393Y-96865893D01*
X201319117Y-96849829D01*
X201338330Y-96835579D01*
X201358847Y-96823282D01*
X201380471Y-96813054D01*
X201402993Y-96804996D01*
X201426197Y-96799184D01*
X201449858Y-96795674D01*
X201473750Y-96794500D01*
X202386250Y-96794500D01*
X202410142Y-96795674D01*
X202410142Y-96795674D01*
G37*
D23*
X201930000Y-97282000D03*
D24*
X179444440Y-101966600D03*
X179444440Y-102616600D03*
X179444440Y-103266600D03*
X179444440Y-103916600D03*
X179444440Y-104566600D03*
X179444440Y-105216600D03*
X179444440Y-105866600D03*
X179444440Y-106516600D03*
X173544440Y-106516600D03*
X173544440Y-105866600D03*
X173544440Y-105216600D03*
X173544440Y-104566600D03*
X173544440Y-103916600D03*
X173544440Y-103266600D03*
X173544440Y-102616600D03*
X173544440Y-101966600D03*
D25*
X201805680Y-86878960D03*
X189205680Y-86878960D03*
X195505680Y-86878960D03*
X189205680Y-73878960D03*
X195505680Y-73878960D03*
X201805680Y-73878960D03*
X201833680Y-56878960D03*
X201833680Y-43878960D03*
X195533680Y-43878960D03*
X189233680Y-43878960D03*
X195533680Y-56878960D03*
X189233680Y-56878960D03*
X168993680Y-56798960D03*
X175293680Y-56798960D03*
X181593680Y-56798960D03*
X175293680Y-43798960D03*
X181593680Y-43798960D03*
X168993680Y-43798960D03*
D14*
X173288960Y-131150360D03*
D10*
G36*
X172538960Y-131650360D02*
G01*
X172538960Y-131150360D01*
X172539562Y-131150360D01*
X172539562Y-131125826D01*
X172544372Y-131076995D01*
X172553944Y-131028870D01*
X172568188Y-130981915D01*
X172586965Y-130936582D01*
X172610096Y-130893309D01*
X172637356Y-130852510D01*
X172668484Y-130814581D01*
X172703181Y-130779884D01*
X172741110Y-130748756D01*
X172781909Y-130721496D01*
X172825182Y-130698365D01*
X172870515Y-130679588D01*
X172917470Y-130665344D01*
X172965595Y-130655772D01*
X173014426Y-130650962D01*
X173038960Y-130650962D01*
X173038960Y-130650360D01*
X173538960Y-130650360D01*
X173538960Y-130650962D01*
X173563494Y-130650962D01*
X173612325Y-130655772D01*
X173660450Y-130665344D01*
X173707405Y-130679588D01*
X173752738Y-130698365D01*
X173796011Y-130721496D01*
X173836810Y-130748756D01*
X173874739Y-130779884D01*
X173909436Y-130814581D01*
X173940564Y-130852510D01*
X173967824Y-130893309D01*
X173990955Y-130936582D01*
X174009732Y-130981915D01*
X174023976Y-131028870D01*
X174033548Y-131076995D01*
X174038358Y-131125826D01*
X174038358Y-131150360D01*
X174038960Y-131150360D01*
X174038960Y-131650360D01*
X172538960Y-131650360D01*
X172538960Y-131650360D01*
G37*
D14*
X173288960Y-132450360D03*
D10*
G36*
X174038358Y-132450360D02*
G01*
X174038358Y-132474894D01*
X174033548Y-132523725D01*
X174023976Y-132571850D01*
X174009732Y-132618805D01*
X173990955Y-132664138D01*
X173967824Y-132707411D01*
X173940564Y-132748210D01*
X173909436Y-132786139D01*
X173874739Y-132820836D01*
X173836810Y-132851964D01*
X173796011Y-132879224D01*
X173752738Y-132902355D01*
X173707405Y-132921132D01*
X173660450Y-132935376D01*
X173612325Y-132944948D01*
X173563494Y-132949758D01*
X173538960Y-132949758D01*
X173538960Y-132950360D01*
X173038960Y-132950360D01*
X173038960Y-132949758D01*
X173014426Y-132949758D01*
X172965595Y-132944948D01*
X172917470Y-132935376D01*
X172870515Y-132921132D01*
X172825182Y-132902355D01*
X172781909Y-132879224D01*
X172741110Y-132851964D01*
X172703181Y-132820836D01*
X172668484Y-132786139D01*
X172637356Y-132748210D01*
X172610096Y-132707411D01*
X172586965Y-132664138D01*
X172568188Y-132618805D01*
X172553944Y-132571850D01*
X172544372Y-132523725D01*
X172539562Y-132474894D01*
X172539562Y-132450360D01*
X172538960Y-132450360D01*
X172538960Y-131950360D01*
X174038960Y-131950360D01*
X174038960Y-132450360D01*
X174038358Y-132450360D01*
X174038358Y-132450360D01*
G37*
D14*
X175300640Y-132445520D03*
D10*
G36*
X176050038Y-132445520D02*
G01*
X176050038Y-132470054D01*
X176045228Y-132518885D01*
X176035656Y-132567010D01*
X176021412Y-132613965D01*
X176002635Y-132659298D01*
X175979504Y-132702571D01*
X175952244Y-132743370D01*
X175921116Y-132781299D01*
X175886419Y-132815996D01*
X175848490Y-132847124D01*
X175807691Y-132874384D01*
X175764418Y-132897515D01*
X175719085Y-132916292D01*
X175672130Y-132930536D01*
X175624005Y-132940108D01*
X175575174Y-132944918D01*
X175550640Y-132944918D01*
X175550640Y-132945520D01*
X175050640Y-132945520D01*
X175050640Y-132944918D01*
X175026106Y-132944918D01*
X174977275Y-132940108D01*
X174929150Y-132930536D01*
X174882195Y-132916292D01*
X174836862Y-132897515D01*
X174793589Y-132874384D01*
X174752790Y-132847124D01*
X174714861Y-132815996D01*
X174680164Y-132781299D01*
X174649036Y-132743370D01*
X174621776Y-132702571D01*
X174598645Y-132659298D01*
X174579868Y-132613965D01*
X174565624Y-132567010D01*
X174556052Y-132518885D01*
X174551242Y-132470054D01*
X174551242Y-132445520D01*
X174550640Y-132445520D01*
X174550640Y-131945520D01*
X176050640Y-131945520D01*
X176050640Y-132445520D01*
X176050038Y-132445520D01*
X176050038Y-132445520D01*
G37*
D14*
X175300640Y-131145520D03*
D10*
G36*
X174550640Y-131645520D02*
G01*
X174550640Y-131145520D01*
X174551242Y-131145520D01*
X174551242Y-131120986D01*
X174556052Y-131072155D01*
X174565624Y-131024030D01*
X174579868Y-130977075D01*
X174598645Y-130931742D01*
X174621776Y-130888469D01*
X174649036Y-130847670D01*
X174680164Y-130809741D01*
X174714861Y-130775044D01*
X174752790Y-130743916D01*
X174793589Y-130716656D01*
X174836862Y-130693525D01*
X174882195Y-130674748D01*
X174929150Y-130660504D01*
X174977275Y-130650932D01*
X175026106Y-130646122D01*
X175050640Y-130646122D01*
X175050640Y-130645520D01*
X175550640Y-130645520D01*
X175550640Y-130646122D01*
X175575174Y-130646122D01*
X175624005Y-130650932D01*
X175672130Y-130660504D01*
X175719085Y-130674748D01*
X175764418Y-130693525D01*
X175807691Y-130716656D01*
X175848490Y-130743916D01*
X175886419Y-130775044D01*
X175921116Y-130809741D01*
X175952244Y-130847670D01*
X175979504Y-130888469D01*
X176002635Y-130931742D01*
X176021412Y-130977075D01*
X176035656Y-131024030D01*
X176045228Y-131072155D01*
X176050038Y-131120986D01*
X176050038Y-131145520D01*
X176050640Y-131145520D01*
X176050640Y-131645520D01*
X174550640Y-131645520D01*
X174550640Y-131645520D01*
G37*
D14*
X177302160Y-132450600D03*
D10*
G36*
X178051558Y-132450600D02*
G01*
X178051558Y-132475134D01*
X178046748Y-132523965D01*
X178037176Y-132572090D01*
X178022932Y-132619045D01*
X178004155Y-132664378D01*
X177981024Y-132707651D01*
X177953764Y-132748450D01*
X177922636Y-132786379D01*
X177887939Y-132821076D01*
X177850010Y-132852204D01*
X177809211Y-132879464D01*
X177765938Y-132902595D01*
X177720605Y-132921372D01*
X177673650Y-132935616D01*
X177625525Y-132945188D01*
X177576694Y-132949998D01*
X177552160Y-132949998D01*
X177552160Y-132950600D01*
X177052160Y-132950600D01*
X177052160Y-132949998D01*
X177027626Y-132949998D01*
X176978795Y-132945188D01*
X176930670Y-132935616D01*
X176883715Y-132921372D01*
X176838382Y-132902595D01*
X176795109Y-132879464D01*
X176754310Y-132852204D01*
X176716381Y-132821076D01*
X176681684Y-132786379D01*
X176650556Y-132748450D01*
X176623296Y-132707651D01*
X176600165Y-132664378D01*
X176581388Y-132619045D01*
X176567144Y-132572090D01*
X176557572Y-132523965D01*
X176552762Y-132475134D01*
X176552762Y-132450600D01*
X176552160Y-132450600D01*
X176552160Y-131950600D01*
X178052160Y-131950600D01*
X178052160Y-132450600D01*
X178051558Y-132450600D01*
X178051558Y-132450600D01*
G37*
D14*
X177302160Y-131150600D03*
D10*
G36*
X176552160Y-131650600D02*
G01*
X176552160Y-131150600D01*
X176552762Y-131150600D01*
X176552762Y-131126066D01*
X176557572Y-131077235D01*
X176567144Y-131029110D01*
X176581388Y-130982155D01*
X176600165Y-130936822D01*
X176623296Y-130893549D01*
X176650556Y-130852750D01*
X176681684Y-130814821D01*
X176716381Y-130780124D01*
X176754310Y-130748996D01*
X176795109Y-130721736D01*
X176838382Y-130698605D01*
X176883715Y-130679828D01*
X176930670Y-130665584D01*
X176978795Y-130656012D01*
X177027626Y-130651202D01*
X177052160Y-130651202D01*
X177052160Y-130650600D01*
X177552160Y-130650600D01*
X177552160Y-130651202D01*
X177576694Y-130651202D01*
X177625525Y-130656012D01*
X177673650Y-130665584D01*
X177720605Y-130679828D01*
X177765938Y-130698605D01*
X177809211Y-130721736D01*
X177850010Y-130748996D01*
X177887939Y-130780124D01*
X177922636Y-130814821D01*
X177953764Y-130852750D01*
X177981024Y-130893549D01*
X178004155Y-130936822D01*
X178022932Y-130982155D01*
X178037176Y-131029110D01*
X178046748Y-131077235D01*
X178051558Y-131126066D01*
X178051558Y-131150600D01*
X178052160Y-131150600D01*
X178052160Y-131650600D01*
X176552160Y-131650600D01*
X176552160Y-131650600D01*
G37*
D25*
X235839000Y-73833000D03*
X242139000Y-73833000D03*
X248439000Y-73833000D03*
X242139000Y-60833000D03*
X248439000Y-60833000D03*
X235839000Y-60833000D03*
D10*
G36*
X227054205Y-119636604D02*
G01*
X227078473Y-119640204D01*
X227102272Y-119646165D01*
X227125371Y-119654430D01*
X227147550Y-119664920D01*
X227168593Y-119677532D01*
X227188299Y-119692147D01*
X227206477Y-119708623D01*
X227222953Y-119726801D01*
X227237568Y-119746507D01*
X227250180Y-119767550D01*
X227260670Y-119789729D01*
X227268935Y-119812828D01*
X227274896Y-119836627D01*
X227278496Y-119860895D01*
X227279700Y-119885399D01*
X227279700Y-122735401D01*
X227278496Y-122759905D01*
X227274896Y-122784173D01*
X227268935Y-122807972D01*
X227260670Y-122831071D01*
X227250180Y-122853250D01*
X227237568Y-122874293D01*
X227222953Y-122893999D01*
X227206477Y-122912177D01*
X227188299Y-122928653D01*
X227168593Y-122943268D01*
X227147550Y-122955880D01*
X227125371Y-122966370D01*
X227102272Y-122974635D01*
X227078473Y-122980596D01*
X227054205Y-122984196D01*
X227029701Y-122985400D01*
X226004699Y-122985400D01*
X225980195Y-122984196D01*
X225955927Y-122980596D01*
X225932128Y-122974635D01*
X225909029Y-122966370D01*
X225886850Y-122955880D01*
X225865807Y-122943268D01*
X225846101Y-122928653D01*
X225827923Y-122912177D01*
X225811447Y-122893999D01*
X225796832Y-122874293D01*
X225784220Y-122853250D01*
X225773730Y-122831071D01*
X225765465Y-122807972D01*
X225759504Y-122784173D01*
X225755904Y-122759905D01*
X225754700Y-122735401D01*
X225754700Y-119885399D01*
X225755904Y-119860895D01*
X225759504Y-119836627D01*
X225765465Y-119812828D01*
X225773730Y-119789729D01*
X225784220Y-119767550D01*
X225796832Y-119746507D01*
X225811447Y-119726801D01*
X225827923Y-119708623D01*
X225846101Y-119692147D01*
X225865807Y-119677532D01*
X225886850Y-119664920D01*
X225909029Y-119654430D01*
X225932128Y-119646165D01*
X225955927Y-119640204D01*
X225980195Y-119636604D01*
X226004699Y-119635400D01*
X227029701Y-119635400D01*
X227054205Y-119636604D01*
X227054205Y-119636604D01*
G37*
D17*
X226517200Y-121310400D03*
D10*
G36*
X233029205Y-119636604D02*
G01*
X233053473Y-119640204D01*
X233077272Y-119646165D01*
X233100371Y-119654430D01*
X233122550Y-119664920D01*
X233143593Y-119677532D01*
X233163299Y-119692147D01*
X233181477Y-119708623D01*
X233197953Y-119726801D01*
X233212568Y-119746507D01*
X233225180Y-119767550D01*
X233235670Y-119789729D01*
X233243935Y-119812828D01*
X233249896Y-119836627D01*
X233253496Y-119860895D01*
X233254700Y-119885399D01*
X233254700Y-122735401D01*
X233253496Y-122759905D01*
X233249896Y-122784173D01*
X233243935Y-122807972D01*
X233235670Y-122831071D01*
X233225180Y-122853250D01*
X233212568Y-122874293D01*
X233197953Y-122893999D01*
X233181477Y-122912177D01*
X233163299Y-122928653D01*
X233143593Y-122943268D01*
X233122550Y-122955880D01*
X233100371Y-122966370D01*
X233077272Y-122974635D01*
X233053473Y-122980596D01*
X233029205Y-122984196D01*
X233004701Y-122985400D01*
X231979699Y-122985400D01*
X231955195Y-122984196D01*
X231930927Y-122980596D01*
X231907128Y-122974635D01*
X231884029Y-122966370D01*
X231861850Y-122955880D01*
X231840807Y-122943268D01*
X231821101Y-122928653D01*
X231802923Y-122912177D01*
X231786447Y-122893999D01*
X231771832Y-122874293D01*
X231759220Y-122853250D01*
X231748730Y-122831071D01*
X231740465Y-122807972D01*
X231734504Y-122784173D01*
X231730904Y-122759905D01*
X231729700Y-122735401D01*
X231729700Y-119885399D01*
X231730904Y-119860895D01*
X231734504Y-119836627D01*
X231740465Y-119812828D01*
X231748730Y-119789729D01*
X231759220Y-119767550D01*
X231771832Y-119746507D01*
X231786447Y-119726801D01*
X231802923Y-119708623D01*
X231821101Y-119692147D01*
X231840807Y-119677532D01*
X231861850Y-119664920D01*
X231884029Y-119654430D01*
X231907128Y-119646165D01*
X231930927Y-119640204D01*
X231955195Y-119636604D01*
X231979699Y-119635400D01*
X233004701Y-119635400D01*
X233029205Y-119636604D01*
X233029205Y-119636604D01*
G37*
D17*
X232492200Y-121310400D03*
D25*
X235367500Y-108902500D03*
X241667500Y-108902500D03*
X247967500Y-108902500D03*
X241667500Y-95902500D03*
X247967500Y-95902500D03*
X235367500Y-95902500D03*
X235143000Y-129575500D03*
X241443000Y-129575500D03*
X247743000Y-129575500D03*
X241443000Y-116575500D03*
X247743000Y-116575500D03*
X235143000Y-116575500D03*
X206729800Y-112598200D03*
X219329800Y-112598200D03*
X213029800Y-112598200D03*
X219329800Y-125598200D03*
X213029800Y-125598200D03*
X206729800Y-125598200D03*
D26*
X178197000Y-116976000D03*
X178697000Y-116976000D03*
X179197000Y-116976000D03*
X179697000Y-116976000D03*
X180197000Y-116976000D03*
X180197000Y-121276000D03*
X179697000Y-121276000D03*
X179197000Y-121276000D03*
X178697000Y-121276000D03*
X178197000Y-121276000D03*
D12*
X171450000Y-116586000D03*
X171450000Y-118110000D03*
X171450000Y-112014000D03*
X174210980Y-125730000D03*
X174205900Y-127825500D03*
D10*
G36*
X181455142Y-110082174D02*
G01*
X181478803Y-110085684D01*
X181502007Y-110091496D01*
X181524529Y-110099554D01*
X181546153Y-110109782D01*
X181566670Y-110122079D01*
X181585883Y-110136329D01*
X181603607Y-110152393D01*
X181619671Y-110170117D01*
X181633921Y-110189330D01*
X181646218Y-110209847D01*
X181656446Y-110231471D01*
X181664504Y-110253993D01*
X181670316Y-110277197D01*
X181673826Y-110300858D01*
X181675000Y-110324750D01*
X181675000Y-110812250D01*
X181673826Y-110836142D01*
X181670316Y-110859803D01*
X181664504Y-110883007D01*
X181656446Y-110905529D01*
X181646218Y-110927153D01*
X181633921Y-110947670D01*
X181619671Y-110966883D01*
X181603607Y-110984607D01*
X181585883Y-111000671D01*
X181566670Y-111014921D01*
X181546153Y-111027218D01*
X181524529Y-111037446D01*
X181502007Y-111045504D01*
X181478803Y-111051316D01*
X181455142Y-111054826D01*
X181431250Y-111056000D01*
X180518750Y-111056000D01*
X180494858Y-111054826D01*
X180471197Y-111051316D01*
X180447993Y-111045504D01*
X180425471Y-111037446D01*
X180403847Y-111027218D01*
X180383330Y-111014921D01*
X180364117Y-111000671D01*
X180346393Y-110984607D01*
X180330329Y-110966883D01*
X180316079Y-110947670D01*
X180303782Y-110927153D01*
X180293554Y-110905529D01*
X180285496Y-110883007D01*
X180279684Y-110859803D01*
X180276174Y-110836142D01*
X180275000Y-110812250D01*
X180275000Y-110324750D01*
X180276174Y-110300858D01*
X180279684Y-110277197D01*
X180285496Y-110253993D01*
X180293554Y-110231471D01*
X180303782Y-110209847D01*
X180316079Y-110189330D01*
X180330329Y-110170117D01*
X180346393Y-110152393D01*
X180364117Y-110136329D01*
X180383330Y-110122079D01*
X180403847Y-110109782D01*
X180425471Y-110099554D01*
X180447993Y-110091496D01*
X180471197Y-110085684D01*
X180494858Y-110082174D01*
X180518750Y-110081000D01*
X181431250Y-110081000D01*
X181455142Y-110082174D01*
X181455142Y-110082174D01*
G37*
D23*
X180975000Y-110568500D03*
D10*
G36*
X181455142Y-111957174D02*
G01*
X181478803Y-111960684D01*
X181502007Y-111966496D01*
X181524529Y-111974554D01*
X181546153Y-111984782D01*
X181566670Y-111997079D01*
X181585883Y-112011329D01*
X181603607Y-112027393D01*
X181619671Y-112045117D01*
X181633921Y-112064330D01*
X181646218Y-112084847D01*
X181656446Y-112106471D01*
X181664504Y-112128993D01*
X181670316Y-112152197D01*
X181673826Y-112175858D01*
X181675000Y-112199750D01*
X181675000Y-112687250D01*
X181673826Y-112711142D01*
X181670316Y-112734803D01*
X181664504Y-112758007D01*
X181656446Y-112780529D01*
X181646218Y-112802153D01*
X181633921Y-112822670D01*
X181619671Y-112841883D01*
X181603607Y-112859607D01*
X181585883Y-112875671D01*
X181566670Y-112889921D01*
X181546153Y-112902218D01*
X181524529Y-112912446D01*
X181502007Y-112920504D01*
X181478803Y-112926316D01*
X181455142Y-112929826D01*
X181431250Y-112931000D01*
X180518750Y-112931000D01*
X180494858Y-112929826D01*
X180471197Y-112926316D01*
X180447993Y-112920504D01*
X180425471Y-112912446D01*
X180403847Y-112902218D01*
X180383330Y-112889921D01*
X180364117Y-112875671D01*
X180346393Y-112859607D01*
X180330329Y-112841883D01*
X180316079Y-112822670D01*
X180303782Y-112802153D01*
X180293554Y-112780529D01*
X180285496Y-112758007D01*
X180279684Y-112734803D01*
X180276174Y-112711142D01*
X180275000Y-112687250D01*
X180275000Y-112199750D01*
X180276174Y-112175858D01*
X180279684Y-112152197D01*
X180285496Y-112128993D01*
X180293554Y-112106471D01*
X180303782Y-112084847D01*
X180316079Y-112064330D01*
X180330329Y-112045117D01*
X180346393Y-112027393D01*
X180364117Y-112011329D01*
X180383330Y-111997079D01*
X180403847Y-111984782D01*
X180425471Y-111974554D01*
X180447993Y-111966496D01*
X180471197Y-111960684D01*
X180494858Y-111957174D01*
X180518750Y-111956000D01*
X181431250Y-111956000D01*
X181455142Y-111957174D01*
X181455142Y-111957174D01*
G37*
D23*
X180975000Y-112443500D03*
D10*
G36*
X179677142Y-126943174D02*
G01*
X179700803Y-126946684D01*
X179724007Y-126952496D01*
X179746529Y-126960554D01*
X179768153Y-126970782D01*
X179788670Y-126983079D01*
X179807883Y-126997329D01*
X179825607Y-127013393D01*
X179841671Y-127031117D01*
X179855921Y-127050330D01*
X179868218Y-127070847D01*
X179878446Y-127092471D01*
X179886504Y-127114993D01*
X179892316Y-127138197D01*
X179895826Y-127161858D01*
X179897000Y-127185750D01*
X179897000Y-127673250D01*
X179895826Y-127697142D01*
X179892316Y-127720803D01*
X179886504Y-127744007D01*
X179878446Y-127766529D01*
X179868218Y-127788153D01*
X179855921Y-127808670D01*
X179841671Y-127827883D01*
X179825607Y-127845607D01*
X179807883Y-127861671D01*
X179788670Y-127875921D01*
X179768153Y-127888218D01*
X179746529Y-127898446D01*
X179724007Y-127906504D01*
X179700803Y-127912316D01*
X179677142Y-127915826D01*
X179653250Y-127917000D01*
X178740750Y-127917000D01*
X178716858Y-127915826D01*
X178693197Y-127912316D01*
X178669993Y-127906504D01*
X178647471Y-127898446D01*
X178625847Y-127888218D01*
X178605330Y-127875921D01*
X178586117Y-127861671D01*
X178568393Y-127845607D01*
X178552329Y-127827883D01*
X178538079Y-127808670D01*
X178525782Y-127788153D01*
X178515554Y-127766529D01*
X178507496Y-127744007D01*
X178501684Y-127720803D01*
X178498174Y-127697142D01*
X178497000Y-127673250D01*
X178497000Y-127185750D01*
X178498174Y-127161858D01*
X178501684Y-127138197D01*
X178507496Y-127114993D01*
X178515554Y-127092471D01*
X178525782Y-127070847D01*
X178538079Y-127050330D01*
X178552329Y-127031117D01*
X178568393Y-127013393D01*
X178586117Y-126997329D01*
X178605330Y-126983079D01*
X178625847Y-126970782D01*
X178647471Y-126960554D01*
X178669993Y-126952496D01*
X178693197Y-126946684D01*
X178716858Y-126943174D01*
X178740750Y-126942000D01*
X179653250Y-126942000D01*
X179677142Y-126943174D01*
X179677142Y-126943174D01*
G37*
D23*
X179197000Y-127429500D03*
D10*
G36*
X179677142Y-125068174D02*
G01*
X179700803Y-125071684D01*
X179724007Y-125077496D01*
X179746529Y-125085554D01*
X179768153Y-125095782D01*
X179788670Y-125108079D01*
X179807883Y-125122329D01*
X179825607Y-125138393D01*
X179841671Y-125156117D01*
X179855921Y-125175330D01*
X179868218Y-125195847D01*
X179878446Y-125217471D01*
X179886504Y-125239993D01*
X179892316Y-125263197D01*
X179895826Y-125286858D01*
X179897000Y-125310750D01*
X179897000Y-125798250D01*
X179895826Y-125822142D01*
X179892316Y-125845803D01*
X179886504Y-125869007D01*
X179878446Y-125891529D01*
X179868218Y-125913153D01*
X179855921Y-125933670D01*
X179841671Y-125952883D01*
X179825607Y-125970607D01*
X179807883Y-125986671D01*
X179788670Y-126000921D01*
X179768153Y-126013218D01*
X179746529Y-126023446D01*
X179724007Y-126031504D01*
X179700803Y-126037316D01*
X179677142Y-126040826D01*
X179653250Y-126042000D01*
X178740750Y-126042000D01*
X178716858Y-126040826D01*
X178693197Y-126037316D01*
X178669993Y-126031504D01*
X178647471Y-126023446D01*
X178625847Y-126013218D01*
X178605330Y-126000921D01*
X178586117Y-125986671D01*
X178568393Y-125970607D01*
X178552329Y-125952883D01*
X178538079Y-125933670D01*
X178525782Y-125913153D01*
X178515554Y-125891529D01*
X178507496Y-125869007D01*
X178501684Y-125845803D01*
X178498174Y-125822142D01*
X178497000Y-125798250D01*
X178497000Y-125310750D01*
X178498174Y-125286858D01*
X178501684Y-125263197D01*
X178507496Y-125239993D01*
X178515554Y-125217471D01*
X178525782Y-125195847D01*
X178538079Y-125175330D01*
X178552329Y-125156117D01*
X178568393Y-125138393D01*
X178586117Y-125122329D01*
X178605330Y-125108079D01*
X178625847Y-125095782D01*
X178647471Y-125085554D01*
X178669993Y-125077496D01*
X178693197Y-125071684D01*
X178716858Y-125068174D01*
X178740750Y-125067000D01*
X179653250Y-125067000D01*
X179677142Y-125068174D01*
X179677142Y-125068174D01*
G37*
D23*
X179197000Y-125554500D03*
D10*
G36*
X179169142Y-110082174D02*
G01*
X179192803Y-110085684D01*
X179216007Y-110091496D01*
X179238529Y-110099554D01*
X179260153Y-110109782D01*
X179280670Y-110122079D01*
X179299883Y-110136329D01*
X179317607Y-110152393D01*
X179333671Y-110170117D01*
X179347921Y-110189330D01*
X179360218Y-110209847D01*
X179370446Y-110231471D01*
X179378504Y-110253993D01*
X179384316Y-110277197D01*
X179387826Y-110300858D01*
X179389000Y-110324750D01*
X179389000Y-110812250D01*
X179387826Y-110836142D01*
X179384316Y-110859803D01*
X179378504Y-110883007D01*
X179370446Y-110905529D01*
X179360218Y-110927153D01*
X179347921Y-110947670D01*
X179333671Y-110966883D01*
X179317607Y-110984607D01*
X179299883Y-111000671D01*
X179280670Y-111014921D01*
X179260153Y-111027218D01*
X179238529Y-111037446D01*
X179216007Y-111045504D01*
X179192803Y-111051316D01*
X179169142Y-111054826D01*
X179145250Y-111056000D01*
X178232750Y-111056000D01*
X178208858Y-111054826D01*
X178185197Y-111051316D01*
X178161993Y-111045504D01*
X178139471Y-111037446D01*
X178117847Y-111027218D01*
X178097330Y-111014921D01*
X178078117Y-111000671D01*
X178060393Y-110984607D01*
X178044329Y-110966883D01*
X178030079Y-110947670D01*
X178017782Y-110927153D01*
X178007554Y-110905529D01*
X177999496Y-110883007D01*
X177993684Y-110859803D01*
X177990174Y-110836142D01*
X177989000Y-110812250D01*
X177989000Y-110324750D01*
X177990174Y-110300858D01*
X177993684Y-110277197D01*
X177999496Y-110253993D01*
X178007554Y-110231471D01*
X178017782Y-110209847D01*
X178030079Y-110189330D01*
X178044329Y-110170117D01*
X178060393Y-110152393D01*
X178078117Y-110136329D01*
X178097330Y-110122079D01*
X178117847Y-110109782D01*
X178139471Y-110099554D01*
X178161993Y-110091496D01*
X178185197Y-110085684D01*
X178208858Y-110082174D01*
X178232750Y-110081000D01*
X179145250Y-110081000D01*
X179169142Y-110082174D01*
X179169142Y-110082174D01*
G37*
D23*
X178689000Y-110568500D03*
D10*
G36*
X179169142Y-111957174D02*
G01*
X179192803Y-111960684D01*
X179216007Y-111966496D01*
X179238529Y-111974554D01*
X179260153Y-111984782D01*
X179280670Y-111997079D01*
X179299883Y-112011329D01*
X179317607Y-112027393D01*
X179333671Y-112045117D01*
X179347921Y-112064330D01*
X179360218Y-112084847D01*
X179370446Y-112106471D01*
X179378504Y-112128993D01*
X179384316Y-112152197D01*
X179387826Y-112175858D01*
X179389000Y-112199750D01*
X179389000Y-112687250D01*
X179387826Y-112711142D01*
X179384316Y-112734803D01*
X179378504Y-112758007D01*
X179370446Y-112780529D01*
X179360218Y-112802153D01*
X179347921Y-112822670D01*
X179333671Y-112841883D01*
X179317607Y-112859607D01*
X179299883Y-112875671D01*
X179280670Y-112889921D01*
X179260153Y-112902218D01*
X179238529Y-112912446D01*
X179216007Y-112920504D01*
X179192803Y-112926316D01*
X179169142Y-112929826D01*
X179145250Y-112931000D01*
X178232750Y-112931000D01*
X178208858Y-112929826D01*
X178185197Y-112926316D01*
X178161993Y-112920504D01*
X178139471Y-112912446D01*
X178117847Y-112902218D01*
X178097330Y-112889921D01*
X178078117Y-112875671D01*
X178060393Y-112859607D01*
X178044329Y-112841883D01*
X178030079Y-112822670D01*
X178017782Y-112802153D01*
X178007554Y-112780529D01*
X177999496Y-112758007D01*
X177993684Y-112734803D01*
X177990174Y-112711142D01*
X177989000Y-112687250D01*
X177989000Y-112199750D01*
X177990174Y-112175858D01*
X177993684Y-112152197D01*
X177999496Y-112128993D01*
X178007554Y-112106471D01*
X178017782Y-112084847D01*
X178030079Y-112064330D01*
X178044329Y-112045117D01*
X178060393Y-112027393D01*
X178078117Y-112011329D01*
X178097330Y-111997079D01*
X178117847Y-111984782D01*
X178139471Y-111974554D01*
X178161993Y-111966496D01*
X178185197Y-111960684D01*
X178208858Y-111957174D01*
X178232750Y-111956000D01*
X179145250Y-111956000D01*
X179169142Y-111957174D01*
X179169142Y-111957174D01*
G37*
D23*
X178689000Y-112443500D03*
D10*
G36*
X181709142Y-126943174D02*
G01*
X181732803Y-126946684D01*
X181756007Y-126952496D01*
X181778529Y-126960554D01*
X181800153Y-126970782D01*
X181820670Y-126983079D01*
X181839883Y-126997329D01*
X181857607Y-127013393D01*
X181873671Y-127031117D01*
X181887921Y-127050330D01*
X181900218Y-127070847D01*
X181910446Y-127092471D01*
X181918504Y-127114993D01*
X181924316Y-127138197D01*
X181927826Y-127161858D01*
X181929000Y-127185750D01*
X181929000Y-127673250D01*
X181927826Y-127697142D01*
X181924316Y-127720803D01*
X181918504Y-127744007D01*
X181910446Y-127766529D01*
X181900218Y-127788153D01*
X181887921Y-127808670D01*
X181873671Y-127827883D01*
X181857607Y-127845607D01*
X181839883Y-127861671D01*
X181820670Y-127875921D01*
X181800153Y-127888218D01*
X181778529Y-127898446D01*
X181756007Y-127906504D01*
X181732803Y-127912316D01*
X181709142Y-127915826D01*
X181685250Y-127917000D01*
X180772750Y-127917000D01*
X180748858Y-127915826D01*
X180725197Y-127912316D01*
X180701993Y-127906504D01*
X180679471Y-127898446D01*
X180657847Y-127888218D01*
X180637330Y-127875921D01*
X180618117Y-127861671D01*
X180600393Y-127845607D01*
X180584329Y-127827883D01*
X180570079Y-127808670D01*
X180557782Y-127788153D01*
X180547554Y-127766529D01*
X180539496Y-127744007D01*
X180533684Y-127720803D01*
X180530174Y-127697142D01*
X180529000Y-127673250D01*
X180529000Y-127185750D01*
X180530174Y-127161858D01*
X180533684Y-127138197D01*
X180539496Y-127114993D01*
X180547554Y-127092471D01*
X180557782Y-127070847D01*
X180570079Y-127050330D01*
X180584329Y-127031117D01*
X180600393Y-127013393D01*
X180618117Y-126997329D01*
X180637330Y-126983079D01*
X180657847Y-126970782D01*
X180679471Y-126960554D01*
X180701993Y-126952496D01*
X180725197Y-126946684D01*
X180748858Y-126943174D01*
X180772750Y-126942000D01*
X181685250Y-126942000D01*
X181709142Y-126943174D01*
X181709142Y-126943174D01*
G37*
D23*
X181229000Y-127429500D03*
D10*
G36*
X181709142Y-125068174D02*
G01*
X181732803Y-125071684D01*
X181756007Y-125077496D01*
X181778529Y-125085554D01*
X181800153Y-125095782D01*
X181820670Y-125108079D01*
X181839883Y-125122329D01*
X181857607Y-125138393D01*
X181873671Y-125156117D01*
X181887921Y-125175330D01*
X181900218Y-125195847D01*
X181910446Y-125217471D01*
X181918504Y-125239993D01*
X181924316Y-125263197D01*
X181927826Y-125286858D01*
X181929000Y-125310750D01*
X181929000Y-125798250D01*
X181927826Y-125822142D01*
X181924316Y-125845803D01*
X181918504Y-125869007D01*
X181910446Y-125891529D01*
X181900218Y-125913153D01*
X181887921Y-125933670D01*
X181873671Y-125952883D01*
X181857607Y-125970607D01*
X181839883Y-125986671D01*
X181820670Y-126000921D01*
X181800153Y-126013218D01*
X181778529Y-126023446D01*
X181756007Y-126031504D01*
X181732803Y-126037316D01*
X181709142Y-126040826D01*
X181685250Y-126042000D01*
X180772750Y-126042000D01*
X180748858Y-126040826D01*
X180725197Y-126037316D01*
X180701993Y-126031504D01*
X180679471Y-126023446D01*
X180657847Y-126013218D01*
X180637330Y-126000921D01*
X180618117Y-125986671D01*
X180600393Y-125970607D01*
X180584329Y-125952883D01*
X180570079Y-125933670D01*
X180557782Y-125913153D01*
X180547554Y-125891529D01*
X180539496Y-125869007D01*
X180533684Y-125845803D01*
X180530174Y-125822142D01*
X180529000Y-125798250D01*
X180529000Y-125310750D01*
X180530174Y-125286858D01*
X180533684Y-125263197D01*
X180539496Y-125239993D01*
X180547554Y-125217471D01*
X180557782Y-125195847D01*
X180570079Y-125175330D01*
X180584329Y-125156117D01*
X180600393Y-125138393D01*
X180618117Y-125122329D01*
X180637330Y-125108079D01*
X180657847Y-125095782D01*
X180679471Y-125085554D01*
X180701993Y-125077496D01*
X180725197Y-125071684D01*
X180748858Y-125068174D01*
X180772750Y-125067000D01*
X181685250Y-125067000D01*
X181709142Y-125068174D01*
X181709142Y-125068174D01*
G37*
D23*
X181229000Y-125554500D03*
D10*
G36*
X173164582Y-94953934D02*
G01*
X173188243Y-94957444D01*
X173211447Y-94963256D01*
X173233969Y-94971314D01*
X173255593Y-94981542D01*
X173276110Y-94993839D01*
X173295323Y-95008089D01*
X173313047Y-95024153D01*
X173329111Y-95041877D01*
X173343361Y-95061090D01*
X173355658Y-95081607D01*
X173365886Y-95103231D01*
X173373944Y-95125753D01*
X173379756Y-95148957D01*
X173383266Y-95172618D01*
X173384440Y-95196510D01*
X173384440Y-95684010D01*
X173383266Y-95707902D01*
X173379756Y-95731563D01*
X173373944Y-95754767D01*
X173365886Y-95777289D01*
X173355658Y-95798913D01*
X173343361Y-95819430D01*
X173329111Y-95838643D01*
X173313047Y-95856367D01*
X173295323Y-95872431D01*
X173276110Y-95886681D01*
X173255593Y-95898978D01*
X173233969Y-95909206D01*
X173211447Y-95917264D01*
X173188243Y-95923076D01*
X173164582Y-95926586D01*
X173140690Y-95927760D01*
X172228190Y-95927760D01*
X172204298Y-95926586D01*
X172180637Y-95923076D01*
X172157433Y-95917264D01*
X172134911Y-95909206D01*
X172113287Y-95898978D01*
X172092770Y-95886681D01*
X172073557Y-95872431D01*
X172055833Y-95856367D01*
X172039769Y-95838643D01*
X172025519Y-95819430D01*
X172013222Y-95798913D01*
X172002994Y-95777289D01*
X171994936Y-95754767D01*
X171989124Y-95731563D01*
X171985614Y-95707902D01*
X171984440Y-95684010D01*
X171984440Y-95196510D01*
X171985614Y-95172618D01*
X171989124Y-95148957D01*
X171994936Y-95125753D01*
X172002994Y-95103231D01*
X172013222Y-95081607D01*
X172025519Y-95061090D01*
X172039769Y-95041877D01*
X172055833Y-95024153D01*
X172073557Y-95008089D01*
X172092770Y-94993839D01*
X172113287Y-94981542D01*
X172134911Y-94971314D01*
X172157433Y-94963256D01*
X172180637Y-94957444D01*
X172204298Y-94953934D01*
X172228190Y-94952760D01*
X173140690Y-94952760D01*
X173164582Y-94953934D01*
X173164582Y-94953934D01*
G37*
D23*
X172684440Y-95440260D03*
D10*
G36*
X173164582Y-96828934D02*
G01*
X173188243Y-96832444D01*
X173211447Y-96838256D01*
X173233969Y-96846314D01*
X173255593Y-96856542D01*
X173276110Y-96868839D01*
X173295323Y-96883089D01*
X173313047Y-96899153D01*
X173329111Y-96916877D01*
X173343361Y-96936090D01*
X173355658Y-96956607D01*
X173365886Y-96978231D01*
X173373944Y-97000753D01*
X173379756Y-97023957D01*
X173383266Y-97047618D01*
X173384440Y-97071510D01*
X173384440Y-97559010D01*
X173383266Y-97582902D01*
X173379756Y-97606563D01*
X173373944Y-97629767D01*
X173365886Y-97652289D01*
X173355658Y-97673913D01*
X173343361Y-97694430D01*
X173329111Y-97713643D01*
X173313047Y-97731367D01*
X173295323Y-97747431D01*
X173276110Y-97761681D01*
X173255593Y-97773978D01*
X173233969Y-97784206D01*
X173211447Y-97792264D01*
X173188243Y-97798076D01*
X173164582Y-97801586D01*
X173140690Y-97802760D01*
X172228190Y-97802760D01*
X172204298Y-97801586D01*
X172180637Y-97798076D01*
X172157433Y-97792264D01*
X172134911Y-97784206D01*
X172113287Y-97773978D01*
X172092770Y-97761681D01*
X172073557Y-97747431D01*
X172055833Y-97731367D01*
X172039769Y-97713643D01*
X172025519Y-97694430D01*
X172013222Y-97673913D01*
X172002994Y-97652289D01*
X171994936Y-97629767D01*
X171989124Y-97606563D01*
X171985614Y-97582902D01*
X171984440Y-97559010D01*
X171984440Y-97071510D01*
X171985614Y-97047618D01*
X171989124Y-97023957D01*
X171994936Y-97000753D01*
X172002994Y-96978231D01*
X172013222Y-96956607D01*
X172025519Y-96936090D01*
X172039769Y-96916877D01*
X172055833Y-96899153D01*
X172073557Y-96883089D01*
X172092770Y-96868839D01*
X172113287Y-96856542D01*
X172134911Y-96846314D01*
X172157433Y-96838256D01*
X172180637Y-96832444D01*
X172204298Y-96828934D01*
X172228190Y-96827760D01*
X173140690Y-96827760D01*
X173164582Y-96828934D01*
X173164582Y-96828934D01*
G37*
D23*
X172684440Y-97315260D03*
D10*
G36*
X230430505Y-106563404D02*
G01*
X230454773Y-106567004D01*
X230478572Y-106572965D01*
X230501671Y-106581230D01*
X230523850Y-106591720D01*
X230544893Y-106604332D01*
X230564599Y-106618947D01*
X230582777Y-106635423D01*
X230599253Y-106653601D01*
X230613868Y-106673307D01*
X230626480Y-106694350D01*
X230636970Y-106716529D01*
X230645235Y-106739628D01*
X230651196Y-106763427D01*
X230654796Y-106787695D01*
X230656000Y-106812199D01*
X230656000Y-107837201D01*
X230654796Y-107861705D01*
X230651196Y-107885973D01*
X230645235Y-107909772D01*
X230636970Y-107932871D01*
X230626480Y-107955050D01*
X230613868Y-107976093D01*
X230599253Y-107995799D01*
X230582777Y-108013977D01*
X230564599Y-108030453D01*
X230544893Y-108045068D01*
X230523850Y-108057680D01*
X230501671Y-108068170D01*
X230478572Y-108076435D01*
X230454773Y-108082396D01*
X230430505Y-108085996D01*
X230406001Y-108087200D01*
X227555999Y-108087200D01*
X227531495Y-108085996D01*
X227507227Y-108082396D01*
X227483428Y-108076435D01*
X227460329Y-108068170D01*
X227438150Y-108057680D01*
X227417107Y-108045068D01*
X227397401Y-108030453D01*
X227379223Y-108013977D01*
X227362747Y-107995799D01*
X227348132Y-107976093D01*
X227335520Y-107955050D01*
X227325030Y-107932871D01*
X227316765Y-107909772D01*
X227310804Y-107885973D01*
X227307204Y-107861705D01*
X227306000Y-107837201D01*
X227306000Y-106812199D01*
X227307204Y-106787695D01*
X227310804Y-106763427D01*
X227316765Y-106739628D01*
X227325030Y-106716529D01*
X227335520Y-106694350D01*
X227348132Y-106673307D01*
X227362747Y-106653601D01*
X227379223Y-106635423D01*
X227397401Y-106618947D01*
X227417107Y-106604332D01*
X227438150Y-106591720D01*
X227460329Y-106581230D01*
X227483428Y-106572965D01*
X227507227Y-106567004D01*
X227531495Y-106563404D01*
X227555999Y-106562200D01*
X230406001Y-106562200D01*
X230430505Y-106563404D01*
X230430505Y-106563404D01*
G37*
D17*
X228981000Y-107324700D03*
D10*
G36*
X230430505Y-112538404D02*
G01*
X230454773Y-112542004D01*
X230478572Y-112547965D01*
X230501671Y-112556230D01*
X230523850Y-112566720D01*
X230544893Y-112579332D01*
X230564599Y-112593947D01*
X230582777Y-112610423D01*
X230599253Y-112628601D01*
X230613868Y-112648307D01*
X230626480Y-112669350D01*
X230636970Y-112691529D01*
X230645235Y-112714628D01*
X230651196Y-112738427D01*
X230654796Y-112762695D01*
X230656000Y-112787199D01*
X230656000Y-113812201D01*
X230654796Y-113836705D01*
X230651196Y-113860973D01*
X230645235Y-113884772D01*
X230636970Y-113907871D01*
X230626480Y-113930050D01*
X230613868Y-113951093D01*
X230599253Y-113970799D01*
X230582777Y-113988977D01*
X230564599Y-114005453D01*
X230544893Y-114020068D01*
X230523850Y-114032680D01*
X230501671Y-114043170D01*
X230478572Y-114051435D01*
X230454773Y-114057396D01*
X230430505Y-114060996D01*
X230406001Y-114062200D01*
X227555999Y-114062200D01*
X227531495Y-114060996D01*
X227507227Y-114057396D01*
X227483428Y-114051435D01*
X227460329Y-114043170D01*
X227438150Y-114032680D01*
X227417107Y-114020068D01*
X227397401Y-114005453D01*
X227379223Y-113988977D01*
X227362747Y-113970799D01*
X227348132Y-113951093D01*
X227335520Y-113930050D01*
X227325030Y-113907871D01*
X227316765Y-113884772D01*
X227310804Y-113860973D01*
X227307204Y-113836705D01*
X227306000Y-113812201D01*
X227306000Y-112787199D01*
X227307204Y-112762695D01*
X227310804Y-112738427D01*
X227316765Y-112714628D01*
X227325030Y-112691529D01*
X227335520Y-112669350D01*
X227348132Y-112648307D01*
X227362747Y-112628601D01*
X227379223Y-112610423D01*
X227397401Y-112593947D01*
X227417107Y-112579332D01*
X227438150Y-112566720D01*
X227460329Y-112556230D01*
X227483428Y-112547965D01*
X227507227Y-112542004D01*
X227531495Y-112538404D01*
X227555999Y-112537200D01*
X230406001Y-112537200D01*
X230430505Y-112538404D01*
X230430505Y-112538404D01*
G37*
D17*
X228981000Y-113299700D03*
D10*
G36*
X176623505Y-119323204D02*
G01*
X176647773Y-119326804D01*
X176671572Y-119332765D01*
X176694671Y-119341030D01*
X176716850Y-119351520D01*
X176737893Y-119364132D01*
X176757599Y-119378747D01*
X176775777Y-119395223D01*
X176792253Y-119413401D01*
X176806868Y-119433107D01*
X176819480Y-119454150D01*
X176829970Y-119476329D01*
X176838235Y-119499428D01*
X176844196Y-119523227D01*
X176847796Y-119547495D01*
X176849000Y-119571999D01*
X176849000Y-120222001D01*
X176847796Y-120246505D01*
X176844196Y-120270773D01*
X176838235Y-120294572D01*
X176829970Y-120317671D01*
X176819480Y-120339850D01*
X176806868Y-120360893D01*
X176792253Y-120380599D01*
X176775777Y-120398777D01*
X176757599Y-120415253D01*
X176737893Y-120429868D01*
X176716850Y-120442480D01*
X176694671Y-120452970D01*
X176671572Y-120461235D01*
X176647773Y-120467196D01*
X176623505Y-120470796D01*
X176599001Y-120472000D01*
X175698999Y-120472000D01*
X175674495Y-120470796D01*
X175650227Y-120467196D01*
X175626428Y-120461235D01*
X175603329Y-120452970D01*
X175581150Y-120442480D01*
X175560107Y-120429868D01*
X175540401Y-120415253D01*
X175522223Y-120398777D01*
X175505747Y-120380599D01*
X175491132Y-120360893D01*
X175478520Y-120339850D01*
X175468030Y-120317671D01*
X175459765Y-120294572D01*
X175453804Y-120270773D01*
X175450204Y-120246505D01*
X175449000Y-120222001D01*
X175449000Y-119571999D01*
X175450204Y-119547495D01*
X175453804Y-119523227D01*
X175459765Y-119499428D01*
X175468030Y-119476329D01*
X175478520Y-119454150D01*
X175491132Y-119433107D01*
X175505747Y-119413401D01*
X175522223Y-119395223D01*
X175540401Y-119378747D01*
X175560107Y-119364132D01*
X175581150Y-119351520D01*
X175603329Y-119341030D01*
X175626428Y-119332765D01*
X175650227Y-119326804D01*
X175674495Y-119323204D01*
X175698999Y-119322000D01*
X176599001Y-119322000D01*
X176623505Y-119323204D01*
X176623505Y-119323204D01*
G37*
D11*
X176149000Y-119897000D03*
D10*
G36*
X176623505Y-117273204D02*
G01*
X176647773Y-117276804D01*
X176671572Y-117282765D01*
X176694671Y-117291030D01*
X176716850Y-117301520D01*
X176737893Y-117314132D01*
X176757599Y-117328747D01*
X176775777Y-117345223D01*
X176792253Y-117363401D01*
X176806868Y-117383107D01*
X176819480Y-117404150D01*
X176829970Y-117426329D01*
X176838235Y-117449428D01*
X176844196Y-117473227D01*
X176847796Y-117497495D01*
X176849000Y-117521999D01*
X176849000Y-118172001D01*
X176847796Y-118196505D01*
X176844196Y-118220773D01*
X176838235Y-118244572D01*
X176829970Y-118267671D01*
X176819480Y-118289850D01*
X176806868Y-118310893D01*
X176792253Y-118330599D01*
X176775777Y-118348777D01*
X176757599Y-118365253D01*
X176737893Y-118379868D01*
X176716850Y-118392480D01*
X176694671Y-118402970D01*
X176671572Y-118411235D01*
X176647773Y-118417196D01*
X176623505Y-118420796D01*
X176599001Y-118422000D01*
X175698999Y-118422000D01*
X175674495Y-118420796D01*
X175650227Y-118417196D01*
X175626428Y-118411235D01*
X175603329Y-118402970D01*
X175581150Y-118392480D01*
X175560107Y-118379868D01*
X175540401Y-118365253D01*
X175522223Y-118348777D01*
X175505747Y-118330599D01*
X175491132Y-118310893D01*
X175478520Y-118289850D01*
X175468030Y-118267671D01*
X175459765Y-118244572D01*
X175453804Y-118220773D01*
X175450204Y-118196505D01*
X175449000Y-118172001D01*
X175449000Y-117521999D01*
X175450204Y-117497495D01*
X175453804Y-117473227D01*
X175459765Y-117449428D01*
X175468030Y-117426329D01*
X175478520Y-117404150D01*
X175491132Y-117383107D01*
X175505747Y-117363401D01*
X175522223Y-117345223D01*
X175540401Y-117328747D01*
X175560107Y-117314132D01*
X175581150Y-117301520D01*
X175603329Y-117291030D01*
X175626428Y-117282765D01*
X175650227Y-117276804D01*
X175674495Y-117273204D01*
X175698999Y-117272000D01*
X176599001Y-117272000D01*
X176623505Y-117273204D01*
X176623505Y-117273204D01*
G37*
D11*
X176149000Y-117847000D03*
D10*
G36*
X179283505Y-113855204D02*
G01*
X179307773Y-113858804D01*
X179331572Y-113864765D01*
X179354671Y-113873030D01*
X179376850Y-113883520D01*
X179397893Y-113896132D01*
X179417599Y-113910747D01*
X179435777Y-113927223D01*
X179452253Y-113945401D01*
X179466868Y-113965107D01*
X179479480Y-113986150D01*
X179489970Y-114008329D01*
X179498235Y-114031428D01*
X179504196Y-114055227D01*
X179507796Y-114079495D01*
X179509000Y-114103999D01*
X179509000Y-115004001D01*
X179507796Y-115028505D01*
X179504196Y-115052773D01*
X179498235Y-115076572D01*
X179489970Y-115099671D01*
X179479480Y-115121850D01*
X179466868Y-115142893D01*
X179452253Y-115162599D01*
X179435777Y-115180777D01*
X179417599Y-115197253D01*
X179397893Y-115211868D01*
X179376850Y-115224480D01*
X179354671Y-115234970D01*
X179331572Y-115243235D01*
X179307773Y-115249196D01*
X179283505Y-115252796D01*
X179259001Y-115254000D01*
X178608999Y-115254000D01*
X178584495Y-115252796D01*
X178560227Y-115249196D01*
X178536428Y-115243235D01*
X178513329Y-115234970D01*
X178491150Y-115224480D01*
X178470107Y-115211868D01*
X178450401Y-115197253D01*
X178432223Y-115180777D01*
X178415747Y-115162599D01*
X178401132Y-115142893D01*
X178388520Y-115121850D01*
X178378030Y-115099671D01*
X178369765Y-115076572D01*
X178363804Y-115052773D01*
X178360204Y-115028505D01*
X178359000Y-115004001D01*
X178359000Y-114103999D01*
X178360204Y-114079495D01*
X178363804Y-114055227D01*
X178369765Y-114031428D01*
X178378030Y-114008329D01*
X178388520Y-113986150D01*
X178401132Y-113965107D01*
X178415747Y-113945401D01*
X178432223Y-113927223D01*
X178450401Y-113910747D01*
X178470107Y-113896132D01*
X178491150Y-113883520D01*
X178513329Y-113873030D01*
X178536428Y-113864765D01*
X178560227Y-113858804D01*
X178584495Y-113855204D01*
X178608999Y-113854000D01*
X179259001Y-113854000D01*
X179283505Y-113855204D01*
X179283505Y-113855204D01*
G37*
D11*
X178934000Y-114554000D03*
D10*
G36*
X181333505Y-113855204D02*
G01*
X181357773Y-113858804D01*
X181381572Y-113864765D01*
X181404671Y-113873030D01*
X181426850Y-113883520D01*
X181447893Y-113896132D01*
X181467599Y-113910747D01*
X181485777Y-113927223D01*
X181502253Y-113945401D01*
X181516868Y-113965107D01*
X181529480Y-113986150D01*
X181539970Y-114008329D01*
X181548235Y-114031428D01*
X181554196Y-114055227D01*
X181557796Y-114079495D01*
X181559000Y-114103999D01*
X181559000Y-115004001D01*
X181557796Y-115028505D01*
X181554196Y-115052773D01*
X181548235Y-115076572D01*
X181539970Y-115099671D01*
X181529480Y-115121850D01*
X181516868Y-115142893D01*
X181502253Y-115162599D01*
X181485777Y-115180777D01*
X181467599Y-115197253D01*
X181447893Y-115211868D01*
X181426850Y-115224480D01*
X181404671Y-115234970D01*
X181381572Y-115243235D01*
X181357773Y-115249196D01*
X181333505Y-115252796D01*
X181309001Y-115254000D01*
X180658999Y-115254000D01*
X180634495Y-115252796D01*
X180610227Y-115249196D01*
X180586428Y-115243235D01*
X180563329Y-115234970D01*
X180541150Y-115224480D01*
X180520107Y-115211868D01*
X180500401Y-115197253D01*
X180482223Y-115180777D01*
X180465747Y-115162599D01*
X180451132Y-115142893D01*
X180438520Y-115121850D01*
X180428030Y-115099671D01*
X180419765Y-115076572D01*
X180413804Y-115052773D01*
X180410204Y-115028505D01*
X180409000Y-115004001D01*
X180409000Y-114103999D01*
X180410204Y-114079495D01*
X180413804Y-114055227D01*
X180419765Y-114031428D01*
X180428030Y-114008329D01*
X180438520Y-113986150D01*
X180451132Y-113965107D01*
X180465747Y-113945401D01*
X180482223Y-113927223D01*
X180500401Y-113910747D01*
X180520107Y-113896132D01*
X180541150Y-113883520D01*
X180563329Y-113873030D01*
X180586428Y-113864765D01*
X180610227Y-113858804D01*
X180634495Y-113855204D01*
X180658999Y-113854000D01*
X181309001Y-113854000D01*
X181333505Y-113855204D01*
X181333505Y-113855204D01*
G37*
D11*
X180984000Y-114554000D03*
D10*
G36*
X181587505Y-122745204D02*
G01*
X181611773Y-122748804D01*
X181635572Y-122754765D01*
X181658671Y-122763030D01*
X181680850Y-122773520D01*
X181701893Y-122786132D01*
X181721599Y-122800747D01*
X181739777Y-122817223D01*
X181756253Y-122835401D01*
X181770868Y-122855107D01*
X181783480Y-122876150D01*
X181793970Y-122898329D01*
X181802235Y-122921428D01*
X181808196Y-122945227D01*
X181811796Y-122969495D01*
X181813000Y-122993999D01*
X181813000Y-123894001D01*
X181811796Y-123918505D01*
X181808196Y-123942773D01*
X181802235Y-123966572D01*
X181793970Y-123989671D01*
X181783480Y-124011850D01*
X181770868Y-124032893D01*
X181756253Y-124052599D01*
X181739777Y-124070777D01*
X181721599Y-124087253D01*
X181701893Y-124101868D01*
X181680850Y-124114480D01*
X181658671Y-124124970D01*
X181635572Y-124133235D01*
X181611773Y-124139196D01*
X181587505Y-124142796D01*
X181563001Y-124144000D01*
X180912999Y-124144000D01*
X180888495Y-124142796D01*
X180864227Y-124139196D01*
X180840428Y-124133235D01*
X180817329Y-124124970D01*
X180795150Y-124114480D01*
X180774107Y-124101868D01*
X180754401Y-124087253D01*
X180736223Y-124070777D01*
X180719747Y-124052599D01*
X180705132Y-124032893D01*
X180692520Y-124011850D01*
X180682030Y-123989671D01*
X180673765Y-123966572D01*
X180667804Y-123942773D01*
X180664204Y-123918505D01*
X180663000Y-123894001D01*
X180663000Y-122993999D01*
X180664204Y-122969495D01*
X180667804Y-122945227D01*
X180673765Y-122921428D01*
X180682030Y-122898329D01*
X180692520Y-122876150D01*
X180705132Y-122855107D01*
X180719747Y-122835401D01*
X180736223Y-122817223D01*
X180754401Y-122800747D01*
X180774107Y-122786132D01*
X180795150Y-122773520D01*
X180817329Y-122763030D01*
X180840428Y-122754765D01*
X180864227Y-122748804D01*
X180888495Y-122745204D01*
X180912999Y-122744000D01*
X181563001Y-122744000D01*
X181587505Y-122745204D01*
X181587505Y-122745204D01*
G37*
D11*
X181238000Y-123444000D03*
D10*
G36*
X179537505Y-122745204D02*
G01*
X179561773Y-122748804D01*
X179585572Y-122754765D01*
X179608671Y-122763030D01*
X179630850Y-122773520D01*
X179651893Y-122786132D01*
X179671599Y-122800747D01*
X179689777Y-122817223D01*
X179706253Y-122835401D01*
X179720868Y-122855107D01*
X179733480Y-122876150D01*
X179743970Y-122898329D01*
X179752235Y-122921428D01*
X179758196Y-122945227D01*
X179761796Y-122969495D01*
X179763000Y-122993999D01*
X179763000Y-123894001D01*
X179761796Y-123918505D01*
X179758196Y-123942773D01*
X179752235Y-123966572D01*
X179743970Y-123989671D01*
X179733480Y-124011850D01*
X179720868Y-124032893D01*
X179706253Y-124052599D01*
X179689777Y-124070777D01*
X179671599Y-124087253D01*
X179651893Y-124101868D01*
X179630850Y-124114480D01*
X179608671Y-124124970D01*
X179585572Y-124133235D01*
X179561773Y-124139196D01*
X179537505Y-124142796D01*
X179513001Y-124144000D01*
X178862999Y-124144000D01*
X178838495Y-124142796D01*
X178814227Y-124139196D01*
X178790428Y-124133235D01*
X178767329Y-124124970D01*
X178745150Y-124114480D01*
X178724107Y-124101868D01*
X178704401Y-124087253D01*
X178686223Y-124070777D01*
X178669747Y-124052599D01*
X178655132Y-124032893D01*
X178642520Y-124011850D01*
X178632030Y-123989671D01*
X178623765Y-123966572D01*
X178617804Y-123942773D01*
X178614204Y-123918505D01*
X178613000Y-123894001D01*
X178613000Y-122993999D01*
X178614204Y-122969495D01*
X178617804Y-122945227D01*
X178623765Y-122921428D01*
X178632030Y-122898329D01*
X178642520Y-122876150D01*
X178655132Y-122855107D01*
X178669747Y-122835401D01*
X178686223Y-122817223D01*
X178704401Y-122800747D01*
X178724107Y-122786132D01*
X178745150Y-122773520D01*
X178767329Y-122763030D01*
X178790428Y-122754765D01*
X178814227Y-122748804D01*
X178838495Y-122745204D01*
X178862999Y-122744000D01*
X179513001Y-122744000D01*
X179537505Y-122745204D01*
X179537505Y-122745204D01*
G37*
D11*
X179188000Y-123444000D03*
D10*
G36*
X171848305Y-102695204D02*
G01*
X171872573Y-102698804D01*
X171896372Y-102704765D01*
X171919471Y-102713030D01*
X171941650Y-102723520D01*
X171962693Y-102736132D01*
X171982399Y-102750747D01*
X172000577Y-102767223D01*
X172017053Y-102785401D01*
X172031668Y-102805107D01*
X172044280Y-102826150D01*
X172054770Y-102848329D01*
X172063035Y-102871428D01*
X172068996Y-102895227D01*
X172072596Y-102919495D01*
X172073800Y-102943999D01*
X172073800Y-103594001D01*
X172072596Y-103618505D01*
X172068996Y-103642773D01*
X172063035Y-103666572D01*
X172054770Y-103689671D01*
X172044280Y-103711850D01*
X172031668Y-103732893D01*
X172017053Y-103752599D01*
X172000577Y-103770777D01*
X171982399Y-103787253D01*
X171962693Y-103801868D01*
X171941650Y-103814480D01*
X171919471Y-103824970D01*
X171896372Y-103833235D01*
X171872573Y-103839196D01*
X171848305Y-103842796D01*
X171823801Y-103844000D01*
X170923799Y-103844000D01*
X170899295Y-103842796D01*
X170875027Y-103839196D01*
X170851228Y-103833235D01*
X170828129Y-103824970D01*
X170805950Y-103814480D01*
X170784907Y-103801868D01*
X170765201Y-103787253D01*
X170747023Y-103770777D01*
X170730547Y-103752599D01*
X170715932Y-103732893D01*
X170703320Y-103711850D01*
X170692830Y-103689671D01*
X170684565Y-103666572D01*
X170678604Y-103642773D01*
X170675004Y-103618505D01*
X170673800Y-103594001D01*
X170673800Y-102943999D01*
X170675004Y-102919495D01*
X170678604Y-102895227D01*
X170684565Y-102871428D01*
X170692830Y-102848329D01*
X170703320Y-102826150D01*
X170715932Y-102805107D01*
X170730547Y-102785401D01*
X170747023Y-102767223D01*
X170765201Y-102750747D01*
X170784907Y-102736132D01*
X170805950Y-102723520D01*
X170828129Y-102713030D01*
X170851228Y-102704765D01*
X170875027Y-102698804D01*
X170899295Y-102695204D01*
X170923799Y-102694000D01*
X171823801Y-102694000D01*
X171848305Y-102695204D01*
X171848305Y-102695204D01*
G37*
D11*
X171373800Y-103269000D03*
D10*
G36*
X171848305Y-100645204D02*
G01*
X171872573Y-100648804D01*
X171896372Y-100654765D01*
X171919471Y-100663030D01*
X171941650Y-100673520D01*
X171962693Y-100686132D01*
X171982399Y-100700747D01*
X172000577Y-100717223D01*
X172017053Y-100735401D01*
X172031668Y-100755107D01*
X172044280Y-100776150D01*
X172054770Y-100798329D01*
X172063035Y-100821428D01*
X172068996Y-100845227D01*
X172072596Y-100869495D01*
X172073800Y-100893999D01*
X172073800Y-101544001D01*
X172072596Y-101568505D01*
X172068996Y-101592773D01*
X172063035Y-101616572D01*
X172054770Y-101639671D01*
X172044280Y-101661850D01*
X172031668Y-101682893D01*
X172017053Y-101702599D01*
X172000577Y-101720777D01*
X171982399Y-101737253D01*
X171962693Y-101751868D01*
X171941650Y-101764480D01*
X171919471Y-101774970D01*
X171896372Y-101783235D01*
X171872573Y-101789196D01*
X171848305Y-101792796D01*
X171823801Y-101794000D01*
X170923799Y-101794000D01*
X170899295Y-101792796D01*
X170875027Y-101789196D01*
X170851228Y-101783235D01*
X170828129Y-101774970D01*
X170805950Y-101764480D01*
X170784907Y-101751868D01*
X170765201Y-101737253D01*
X170747023Y-101720777D01*
X170730547Y-101702599D01*
X170715932Y-101682893D01*
X170703320Y-101661850D01*
X170692830Y-101639671D01*
X170684565Y-101616572D01*
X170678604Y-101592773D01*
X170675004Y-101568505D01*
X170673800Y-101544001D01*
X170673800Y-100893999D01*
X170675004Y-100869495D01*
X170678604Y-100845227D01*
X170684565Y-100821428D01*
X170692830Y-100798329D01*
X170703320Y-100776150D01*
X170715932Y-100755107D01*
X170730547Y-100735401D01*
X170747023Y-100717223D01*
X170765201Y-100700747D01*
X170784907Y-100686132D01*
X170805950Y-100673520D01*
X170828129Y-100663030D01*
X170851228Y-100654765D01*
X170875027Y-100648804D01*
X170899295Y-100645204D01*
X170923799Y-100644000D01*
X171823801Y-100644000D01*
X171848305Y-100645204D01*
X171848305Y-100645204D01*
G37*
D11*
X171373800Y-101219000D03*
D27*
X227965000Y-75692000D03*
X226949000Y-75692000D03*
X225933000Y-75692000D03*
X225933000Y-74676000D03*
X226949000Y-74676000D03*
X227965000Y-74676000D03*
X227965000Y-73660000D03*
X226949000Y-73660000D03*
X225933000Y-73660000D03*
X225933000Y-72644000D03*
X226949000Y-72644000D03*
X227965000Y-72644000D03*
X227965000Y-71628000D03*
X226949000Y-71628000D03*
X225933000Y-71628000D03*
X225933000Y-64008000D03*
X225933000Y-62992000D03*
X225933000Y-61976000D03*
X225933000Y-60960000D03*
X226949000Y-60960000D03*
X226949000Y-61976000D03*
X226949000Y-62992000D03*
X226949000Y-64008000D03*
X227965000Y-64008000D03*
X227965000Y-62992000D03*
X227965000Y-61976000D03*
X227965000Y-60960000D03*
X227965000Y-59944000D03*
X226949000Y-59944000D03*
X225933000Y-59944000D03*
X213106000Y-66294000D03*
X213106000Y-65278000D03*
X213106000Y-64262000D03*
X213106000Y-63246000D03*
X212090000Y-63246000D03*
X212090000Y-64262000D03*
X212090000Y-65278000D03*
X211074000Y-65278000D03*
X211074000Y-64262000D03*
X211074000Y-63246000D03*
X210058000Y-64262000D03*
X210058000Y-65278000D03*
X212090000Y-66294000D03*
X211074000Y-66294000D03*
X210058000Y-66294000D03*
X213106000Y-67310000D03*
X212090000Y-67310000D03*
X211074000Y-67310000D03*
X210058000Y-67310000D03*
X213233000Y-80772000D03*
X212217000Y-80772000D03*
X211201000Y-80772000D03*
X210185000Y-80772000D03*
X210185000Y-79756000D03*
X211201000Y-79756000D03*
X212217000Y-79756000D03*
X213233000Y-79756000D03*
X213233000Y-78740000D03*
X212217000Y-78740000D03*
X211201000Y-78740000D03*
X210185000Y-78740000D03*
X210185000Y-77724000D03*
X211201000Y-77724000D03*
X212217000Y-77724000D03*
X213233000Y-77724000D03*
X213233000Y-76708000D03*
X212217000Y-76708000D03*
X211201000Y-76708000D03*
X210185000Y-76708000D03*
X210058000Y-63246000D03*
X174180500Y-128968500D03*
X179318920Y-133032500D03*
X176104440Y-119897000D03*
X165481000Y-100266500D03*
X179514500Y-106870500D03*
X177571400Y-100482400D03*
X232918000Y-120142000D03*
X231902000Y-120142000D03*
X232918000Y-121158000D03*
X231902000Y-121158000D03*
X231902000Y-122174000D03*
X232918000Y-122174000D03*
X232918000Y-126238000D03*
X231902000Y-126238000D03*
X232918000Y-125222000D03*
X231902000Y-125222000D03*
X232918000Y-124206000D03*
X231902000Y-124206000D03*
X233934000Y-120142000D03*
X233934000Y-121158000D03*
X233934000Y-122174000D03*
X233934000Y-124206000D03*
X233934000Y-125222000D03*
X233934000Y-126238000D03*
X231902000Y-123190000D03*
X232918000Y-123190000D03*
X233934000Y-123190000D03*
X232410000Y-127000000D03*
X233426000Y-127000000D03*
X234950000Y-126238000D03*
X234950000Y-125222000D03*
X234950000Y-124206000D03*
X234950000Y-123190000D03*
X234950000Y-122174000D03*
X234950000Y-121158000D03*
X234950000Y-120142000D03*
X232410000Y-119126000D03*
X233426000Y-119126000D03*
X234442000Y-119126000D03*
X234442000Y-127000000D03*
X229870000Y-106680000D03*
X228854000Y-106680000D03*
X227838000Y-106680000D03*
X225806000Y-106680000D03*
X224790000Y-106680000D03*
X223774000Y-106680000D03*
X229870000Y-107696000D03*
X228854000Y-107696000D03*
X227838000Y-107696000D03*
X225806000Y-107696000D03*
X224790000Y-107696000D03*
X223774000Y-107696000D03*
X226822000Y-107696000D03*
X230886000Y-107696000D03*
X226822000Y-106680000D03*
X230886000Y-106680000D03*
X223774000Y-105664000D03*
X224790000Y-105664000D03*
X225806000Y-105664000D03*
X226822000Y-105664000D03*
X227838000Y-105664000D03*
X228854000Y-105664000D03*
X229870000Y-105664000D03*
X230886000Y-105664000D03*
X231902000Y-106172000D03*
X231902000Y-107188000D03*
X231902000Y-108204000D03*
X232918000Y-107696000D03*
X232918000Y-106680000D03*
X232918000Y-105664000D03*
X230886000Y-104648000D03*
X229870000Y-104648000D03*
X228854000Y-104648000D03*
X227838000Y-104648000D03*
X226822000Y-104648000D03*
X225806000Y-104648000D03*
X224790000Y-104648000D03*
X223774000Y-104648000D03*
X231902000Y-105156000D03*
X207899000Y-76962000D03*
X207899000Y-77978000D03*
X207899000Y-78994000D03*
X207518000Y-65786000D03*
X207518000Y-64770000D03*
X207518000Y-63754000D03*
X208534000Y-63754000D03*
X208534000Y-64770000D03*
X208534000Y-65786000D03*
X208534000Y-62738000D03*
X207518000Y-62738000D03*
X206883000Y-78994000D03*
X206883000Y-77978000D03*
X206883000Y-76962000D03*
X207899000Y-75946000D03*
X206883000Y-75946000D03*
X205867000Y-78486000D03*
X205867000Y-77470000D03*
X205867000Y-76454000D03*
X206502000Y-65278000D03*
X206502000Y-64262000D03*
X206502000Y-63246000D03*
X206502000Y-66294000D03*
X205867000Y-79502000D03*
X205867000Y-80518000D03*
X206502000Y-67310000D03*
X204851000Y-80010000D03*
X204851000Y-78994000D03*
X204851000Y-77978000D03*
X204851000Y-76962000D03*
X204851000Y-75946000D03*
X205867000Y-75438000D03*
X204851000Y-81026000D03*
X205486000Y-66802000D03*
X205486000Y-65786000D03*
X205486000Y-64770000D03*
X205486000Y-63754000D03*
X206502000Y-62230000D03*
X205486000Y-62738000D03*
X205486000Y-67818000D03*
X205867000Y-81534000D03*
X206502000Y-68326000D03*
X206883000Y-74930000D03*
X207899000Y-74930000D03*
X208534000Y-61722000D03*
X207518000Y-61722000D03*
X226822000Y-126492000D03*
X225806000Y-126492000D03*
X229870000Y-114046000D03*
X228854000Y-114046000D03*
X227838000Y-114046000D03*
X225806000Y-114046000D03*
X224790000Y-114046000D03*
X223774000Y-114046000D03*
X229870000Y-113030000D03*
X228854000Y-113030000D03*
X227838000Y-113030000D03*
X225806000Y-113030000D03*
X224790000Y-113030000D03*
X223774000Y-113030000D03*
X226822000Y-120396000D03*
X225806000Y-120396000D03*
X226822000Y-121412000D03*
X225806000Y-121412000D03*
X226822000Y-122428000D03*
X225806000Y-122428000D03*
X226822000Y-123444000D03*
X225806000Y-123444000D03*
X226822000Y-124460000D03*
X225806000Y-124460000D03*
X225806000Y-125476000D03*
X226822000Y-125476000D03*
X224790000Y-125476000D03*
X224790000Y-124460000D03*
X224790000Y-123444000D03*
X224790000Y-122428000D03*
X224790000Y-121412000D03*
X224790000Y-120396000D03*
X226822000Y-113030000D03*
X226822000Y-114046000D03*
X223774000Y-115062000D03*
X224790000Y-115062000D03*
X225806000Y-115062000D03*
X222758000Y-114554000D03*
X222758000Y-113538000D03*
X222250000Y-112522000D03*
X226822000Y-115062000D03*
X227838000Y-115062000D03*
X224790000Y-119380000D03*
X225806000Y-119380000D03*
X226822000Y-119380000D03*
X228854000Y-115062000D03*
X229870000Y-115062000D03*
X229870000Y-116078000D03*
X228854000Y-116078000D03*
X227838000Y-116078000D03*
X226822000Y-116078000D03*
X225806000Y-116078000D03*
X224790000Y-116078000D03*
X223774000Y-116078000D03*
X222758000Y-115570000D03*
X224790000Y-126492000D03*
X223774000Y-126492000D03*
X223774000Y-125476000D03*
X223774000Y-124460000D03*
X223774000Y-123444000D03*
X223774000Y-122428000D03*
X223774000Y-121412000D03*
X223774000Y-120396000D03*
X223774000Y-119380000D03*
X226314000Y-127254000D03*
X225298000Y-127254000D03*
X224282000Y-127254000D03*
X230251000Y-63500000D03*
X230251000Y-62484000D03*
X230251000Y-61468000D03*
X231267000Y-61468000D03*
X231267000Y-62484000D03*
X231267000Y-63500000D03*
X231267000Y-64516000D03*
X230251000Y-64516000D03*
X232283000Y-64008000D03*
X232283000Y-62992000D03*
X232283000Y-61976000D03*
X232283000Y-60960000D03*
X231267000Y-73025000D03*
X231267000Y-74041000D03*
X231267000Y-75057000D03*
X231267000Y-76073000D03*
X232283000Y-75565000D03*
X232283000Y-74549000D03*
X232283000Y-73533000D03*
X232283000Y-72517000D03*
X231775000Y-60198000D03*
X232410000Y-59563000D03*
X233299000Y-63500000D03*
X233299000Y-62484000D03*
X233299000Y-61468000D03*
X233299000Y-60452000D03*
X232283000Y-71374000D03*
X233299000Y-72009000D03*
X233299000Y-75057000D03*
X233299000Y-74041000D03*
X233299000Y-73025000D03*
X230251000Y-73025000D03*
X230251000Y-76073000D03*
X230251000Y-74041000D03*
X230251000Y-75057000D03*
X231521000Y-58801000D03*
X233299000Y-70993000D03*
X231648000Y-70485000D03*
X232537000Y-70485000D03*
X208070000Y-80518000D03*
X208218500Y-67183000D03*
X201930000Y-97282000D03*
X229931500Y-71691500D03*
X230122000Y-59880500D03*
X227662500Y-83820000D03*
X201863960Y-98552000D03*
X224917000Y-75692000D03*
X224917000Y-74676000D03*
X224917000Y-73660000D03*
X224917000Y-72644000D03*
X224917000Y-71628000D03*
X224917000Y-64008000D03*
X224917000Y-62992000D03*
X224917000Y-61976000D03*
X224917000Y-60960000D03*
X224917000Y-59944000D03*
D28*
X178118000Y-119897000D02*
X176949000Y-119897000D01*
X176949000Y-119897000D02*
X176149000Y-119897000D01*
X176149000Y-119897000D02*
X176104440Y-119897000D01*
X179197000Y-120098820D02*
X179197000Y-120476000D01*
X179197000Y-120476000D02*
X179197000Y-121276000D01*
X178995180Y-119897000D02*
X179197000Y-120098820D01*
X178118000Y-119897000D02*
X178995180Y-119897000D01*
X179318920Y-133032500D02*
X179318920Y-132450600D01*
X174180500Y-127850900D02*
X174205900Y-127825500D01*
X174180500Y-128968500D02*
X174180500Y-127850900D01*
X165481000Y-101192000D02*
X165481000Y-100266500D01*
X165481000Y-100266500D02*
X165481000Y-99214000D01*
X179444440Y-106516600D02*
X179444440Y-106800440D01*
X179444440Y-106800440D02*
X179514500Y-106870500D01*
X171533440Y-102616600D02*
X170906440Y-103243600D01*
X173544440Y-102616600D02*
X171533440Y-102616600D01*
X173544440Y-102616600D02*
X174751400Y-102616600D01*
X174751400Y-102616600D02*
X175270160Y-102097840D01*
X175270160Y-102097840D02*
X175260000Y-102087680D01*
X174719220Y-97315260D02*
X175260000Y-97856040D01*
X172684440Y-97315260D02*
X174719220Y-97315260D01*
X175496000Y-101079200D02*
X175496000Y-100279200D01*
X175407000Y-101168200D02*
X175496000Y-101079200D01*
X175260000Y-101168200D02*
X175407000Y-101168200D01*
X175260000Y-101168200D02*
X175260000Y-97856040D01*
X175260000Y-102087680D02*
X175260000Y-101168200D01*
X171679440Y-101966600D02*
X170906440Y-101193600D01*
X173544440Y-101966600D02*
X171679440Y-101966600D01*
X181238000Y-125545500D02*
X181229000Y-125554500D01*
X181238000Y-123444000D02*
X181238000Y-125545500D01*
X181238000Y-121942000D02*
X180572000Y-121276000D01*
X180572000Y-121276000D02*
X180197000Y-121276000D01*
X181238000Y-123444000D02*
X181238000Y-121942000D01*
X179697000Y-122935000D02*
X179188000Y-123444000D01*
X179697000Y-121276000D02*
X179697000Y-122935000D01*
X179197000Y-123453000D02*
X179188000Y-123444000D01*
X179197000Y-125554500D02*
X179197000Y-123453000D01*
X179697000Y-115317000D02*
X178934000Y-114554000D01*
X179697000Y-116976000D02*
X179697000Y-115317000D01*
X178689000Y-114309000D02*
X178934000Y-114554000D01*
X178689000Y-112522000D02*
X178689000Y-114309000D01*
X180984000Y-115354000D02*
X180984000Y-114554000D01*
X180984000Y-116564000D02*
X180984000Y-115354000D01*
X180572000Y-116976000D02*
X180984000Y-116564000D01*
X180197000Y-116976000D02*
X180572000Y-116976000D01*
X180984000Y-112452500D02*
X180975000Y-112443500D01*
X180984000Y-114554000D02*
X180984000Y-112452500D01*
X178502628Y-118470372D02*
X176772372Y-118470372D01*
X176772372Y-118470372D02*
X176149000Y-117847000D01*
X179197000Y-117776000D02*
X178502628Y-118470372D01*
X179197000Y-116976000D02*
X179197000Y-117776000D01*
X164425399Y-123906081D02*
X167538400Y-120793080D01*
X164425399Y-130100041D02*
X164425399Y-123906081D01*
X173278800Y-132440440D02*
X172735000Y-132984240D01*
X167300492Y-132975134D02*
X166463879Y-132138521D01*
X173288960Y-132450360D02*
X172764186Y-132975134D01*
X172764186Y-132975134D02*
X167300492Y-132975134D01*
X166781278Y-132455920D02*
X166463879Y-132138521D01*
X166463879Y-132138521D02*
X164425399Y-130100041D01*
X167502840Y-119728640D02*
X167538400Y-119693080D01*
X167538400Y-119693080D02*
X167538400Y-120793080D01*
X170064860Y-123319540D02*
X167538400Y-120793080D01*
X170662600Y-123319540D02*
X170064860Y-123319540D01*
X174401480Y-125732540D02*
X173075600Y-125732540D01*
X173075600Y-125732540D02*
X170662600Y-123319540D01*
X175509500Y-118486500D02*
X174942500Y-119053500D01*
X175509500Y-118486500D02*
X176149000Y-117847000D01*
X169148820Y-120078500D02*
X168763400Y-119693080D01*
X173917500Y-120078500D02*
X169148820Y-120078500D01*
X174461750Y-119534250D02*
X173917500Y-120078500D01*
X168763400Y-119693080D02*
X167538400Y-119693080D01*
X174302920Y-119693080D02*
X174461750Y-119534250D01*
X174461750Y-119534250D02*
X175509500Y-118486500D01*
X167413400Y-117193080D02*
X167538400Y-117193080D01*
X163975389Y-120631091D02*
X167413400Y-117193080D01*
X163975389Y-130286441D02*
X163975389Y-120631091D01*
X166594877Y-132905929D02*
X165518294Y-131829346D01*
X165518294Y-131829346D02*
X163975389Y-130286441D01*
X174775866Y-132970294D02*
X175300640Y-132445520D01*
X174311911Y-133434249D02*
X174775866Y-132970294D01*
X167123197Y-133434249D02*
X174311911Y-133434249D01*
X165518294Y-131829346D02*
X167123197Y-133434249D01*
X177792990Y-116946990D02*
X177822000Y-116976000D01*
X177822000Y-116976000D02*
X178197000Y-116976000D01*
X172395903Y-119385509D02*
X174834422Y-116946990D01*
X175874990Y-116946990D02*
X177792990Y-116946990D01*
X175460820Y-116946990D02*
X175874990Y-116946990D01*
X167538400Y-117193080D02*
X168311668Y-117193080D01*
X170504098Y-119385510D02*
X172395903Y-119385509D01*
X174834422Y-116946990D02*
X175874990Y-116946990D01*
X168311668Y-117193080D02*
X170504098Y-119385510D01*
X178746999Y-116926001D02*
X178697000Y-116976000D01*
X175868501Y-133884259D02*
X176777386Y-132975374D01*
X167538400Y-114693080D02*
X167413400Y-114693080D01*
X163525379Y-118581101D02*
X163525379Y-130472841D01*
X167413400Y-114693080D02*
X163525379Y-118581101D01*
X163525379Y-130472841D02*
X166936797Y-133884259D01*
X176777386Y-132975374D02*
X177302160Y-132450600D01*
X166936797Y-133884259D02*
X175868501Y-133884259D01*
X178697000Y-116176000D02*
X178621999Y-116100999D01*
X167663400Y-114693080D02*
X169048320Y-116078000D01*
X178697000Y-116176000D02*
X178697000Y-116976000D01*
X178599000Y-116078000D02*
X178697000Y-116176000D01*
X175067002Y-116078000D02*
X172209502Y-118935500D01*
X178599000Y-116078000D02*
X175067002Y-116078000D01*
X170690498Y-118935500D02*
X169799000Y-118044002D01*
X172209502Y-118935500D02*
X170690498Y-118935500D01*
X167663400Y-114693080D02*
X167538400Y-114693080D01*
X169799000Y-116828680D02*
X167663400Y-114693080D01*
X169799000Y-118044002D02*
X169799000Y-116828680D01*
X173544440Y-103916600D02*
X172544440Y-103916600D01*
X166238390Y-111018070D02*
X167413400Y-112193080D01*
X168112930Y-104480360D02*
X166238390Y-106354900D01*
X172544440Y-103916600D02*
X171980680Y-104480360D01*
X167413400Y-112193080D02*
X167538400Y-112193080D01*
X166238390Y-106354900D02*
X166238390Y-111018070D01*
X169585640Y-100951140D02*
X169585640Y-104480360D01*
X167259000Y-98624500D02*
X169585640Y-100951140D01*
X171980680Y-104480360D02*
X169585640Y-104480360D01*
X169585640Y-104480360D02*
X168112930Y-104480360D01*
X173444441Y-105316599D02*
X173544440Y-105216600D01*
X172534439Y-105316599D02*
X173444441Y-105316599D01*
X170893500Y-106957538D02*
X172534439Y-105316599D01*
X170893500Y-107554000D02*
X170893500Y-106957538D01*
X170893500Y-109728000D02*
X170893500Y-107554000D01*
X171211000Y-110575592D02*
X171211000Y-109728000D01*
X166926695Y-113368090D02*
X168418502Y-113368090D01*
X167513000Y-101337000D02*
X166620490Y-102229510D01*
X168418502Y-113368090D02*
X171211000Y-110575592D01*
X165517800Y-102229510D02*
X164280990Y-103466320D01*
X166620490Y-102229510D02*
X165517800Y-102229510D01*
X164280990Y-103466320D02*
X164280990Y-110722385D01*
X164280990Y-110722385D02*
X166926695Y-113368090D01*
D29*
X230736140Y-122203960D02*
X231629700Y-121310400D01*
X231629700Y-121310400D02*
X232492200Y-121310400D01*
X231336315Y-125222000D02*
X230736140Y-124621825D01*
X231902000Y-125222000D02*
X231336315Y-125222000D01*
D28*
X230736140Y-123149360D02*
X229974140Y-123149360D01*
D29*
X230736140Y-123149360D02*
X230736140Y-122203960D01*
X230736140Y-124621825D02*
X230736140Y-123149360D01*
D28*
X229974140Y-123149360D02*
X229253210Y-123870290D01*
X229253210Y-123870290D02*
X229253209Y-131722841D01*
X181432390Y-133173800D02*
X182368480Y-134109890D01*
X181432390Y-129664890D02*
X181432390Y-133173800D01*
X179197000Y-127429500D02*
X181432390Y-129664890D01*
X226866160Y-134109890D02*
X229253209Y-131722841D01*
X182941390Y-134109890D02*
X226866160Y-134109890D01*
X182941390Y-134109890D02*
X183385890Y-134109890D01*
X182368480Y-134109890D02*
X182941390Y-134109890D01*
D29*
X225018600Y-108196900D02*
X225044000Y-108222300D01*
X225018600Y-107334400D02*
X225018600Y-108196900D01*
X225044000Y-108222300D02*
X225044000Y-108585000D01*
X225044000Y-108585000D02*
X225552000Y-109093000D01*
X228981000Y-108585000D02*
X228981000Y-107324700D01*
X228473000Y-109093000D02*
X228981000Y-108585000D01*
X226949000Y-109093000D02*
X228473000Y-109093000D01*
X225552000Y-109093000D02*
X226949000Y-109093000D01*
D28*
X207704400Y-107245990D02*
X205936010Y-105477600D01*
X223013410Y-109855000D02*
X220404400Y-107245990D01*
X220404400Y-107245990D02*
X207704400Y-107245990D01*
X226949000Y-109093000D02*
X226949000Y-109347000D01*
X226949000Y-109347000D02*
X226441000Y-109855000D01*
X205936010Y-105477600D02*
X205936009Y-103064599D01*
X205936009Y-103064599D02*
X202243400Y-99371990D01*
X226441000Y-109855000D02*
X223013410Y-109855000D01*
X178689000Y-110568500D02*
X180184820Y-109072680D01*
X180919120Y-109072680D02*
X181591790Y-108400010D01*
X180184820Y-109072680D02*
X180919120Y-109072680D01*
X181591790Y-108400010D02*
X181591791Y-100138519D01*
X181817575Y-99912735D02*
X182358320Y-99371990D01*
X181817575Y-99912735D02*
X181931599Y-99798711D01*
X181591791Y-100138519D02*
X181817575Y-99912735D01*
X182358320Y-99371990D02*
X202243400Y-99371990D01*
X174619441Y-105941601D02*
X174544440Y-105866600D01*
X174619441Y-109594559D02*
X174619441Y-105941601D01*
X174544440Y-105866600D02*
X173544440Y-105866600D01*
X172200000Y-112014000D02*
X174619441Y-109594559D01*
X171450000Y-112014000D02*
X172200000Y-112014000D01*
X172200000Y-118110000D02*
X171450000Y-118110000D01*
X176795020Y-113514980D02*
X172200000Y-118110000D01*
X176795020Y-107606018D02*
X176795020Y-113514980D01*
X178534438Y-105866600D02*
X176795020Y-107606018D01*
X179444440Y-105866600D02*
X178534438Y-105866600D01*
X178444440Y-105216600D02*
X179444440Y-105216600D01*
X176345010Y-107316030D02*
X178444440Y-105216600D01*
X176345010Y-112440990D02*
X176345010Y-107316030D01*
X172200000Y-116586000D02*
X176345010Y-112440990D01*
X171450000Y-116586000D02*
X172200000Y-116586000D01*
D29*
X227379700Y-121310400D02*
X226517200Y-121310400D01*
X228081840Y-122012540D02*
X227379700Y-121310400D01*
X226822000Y-125222000D02*
X227387685Y-125222000D01*
X227387685Y-125222000D02*
X228081840Y-124527845D01*
D28*
X228081840Y-123121420D02*
X228152960Y-123121420D01*
D29*
X228081840Y-123121420D02*
X228081840Y-122012540D01*
X228081840Y-124527845D02*
X228081840Y-123121420D01*
D28*
X228152960Y-123121420D02*
X228803200Y-123771660D01*
X228803200Y-123771660D02*
X228803200Y-131536440D01*
X228803200Y-131536440D02*
X226679760Y-133659880D01*
D29*
X228854000Y-112014000D02*
X228854000Y-113030000D01*
X225018600Y-113309400D02*
X225018600Y-112446900D01*
X228600000Y-111760000D02*
X228854000Y-112014000D01*
X225018600Y-112446900D02*
X225705500Y-111760000D01*
X227076000Y-111760000D02*
X228600000Y-111760000D01*
X225705500Y-111760000D02*
X227076000Y-111760000D01*
D28*
X181229000Y-128017000D02*
X181229000Y-127429500D01*
X181991000Y-133096000D02*
X181991000Y-128779000D01*
X181991000Y-128779000D02*
X181229000Y-128017000D01*
X182554880Y-133659880D02*
X181991000Y-133096000D01*
X227076000Y-111379000D02*
X227076000Y-111760000D01*
X226060000Y-110363000D02*
X227076000Y-111379000D01*
X220218000Y-107696000D02*
X222885000Y-110363000D01*
X182041800Y-108625640D02*
X182041800Y-100324920D01*
X180975000Y-109692440D02*
X182041800Y-108625640D01*
X180975000Y-110568500D02*
X180975000Y-109692440D01*
X205486000Y-105664000D02*
X207518000Y-107696000D01*
X182544720Y-99822000D02*
X202057000Y-99822000D01*
X182041800Y-100324920D02*
X182544720Y-99822000D01*
X202057000Y-99822000D02*
X205486000Y-103251000D01*
X205486000Y-103251000D02*
X205486000Y-105664000D01*
X222885000Y-110363000D02*
X226060000Y-110363000D01*
X207518000Y-107696000D02*
X220218000Y-107696000D01*
X226679760Y-133659880D02*
X182554880Y-133659880D01*
X173283880Y-131135360D02*
X173278800Y-131140440D01*
X178450240Y-131135360D02*
X173283880Y-131135360D01*
X175305720Y-131150600D02*
X175300640Y-131145520D01*
X179318920Y-131150600D02*
X175305720Y-131150600D01*
X177822000Y-121276000D02*
X178197000Y-121276000D01*
X177302160Y-121795840D02*
X177822000Y-121276000D01*
X177302160Y-131150600D02*
X177302160Y-121795840D01*
X182187710Y-97282000D02*
X185099960Y-97282000D01*
X179444440Y-100025270D02*
X182187710Y-97282000D01*
X179444440Y-101966600D02*
X179444440Y-100025270D01*
X201930000Y-97282000D02*
X185099960Y-97282000D01*
X201298275Y-98552000D02*
X201863960Y-98552000D01*
X200566755Y-97820480D02*
X201298275Y-98552000D01*
X180837840Y-99268280D02*
X182285640Y-97820480D01*
X180837840Y-104173200D02*
X180837840Y-99268280D01*
X182285640Y-97820480D02*
X200566755Y-97820480D01*
X180444440Y-104566600D02*
X180837840Y-104173200D01*
X179444440Y-104566600D02*
X180444440Y-104566600D01*
X176069830Y-123654820D02*
X174396400Y-123654820D01*
X176852150Y-122872500D02*
X176069830Y-123654820D01*
X178697000Y-120476000D02*
X178568010Y-120347010D01*
X178568010Y-120347010D02*
X177865988Y-120347010D01*
X178697000Y-121276000D02*
X178697000Y-120476000D01*
X177865988Y-120347010D02*
X176852150Y-121360848D01*
X176852150Y-121360848D02*
X176852150Y-122872500D01*
X167663400Y-109693080D02*
X167538400Y-109693080D01*
X167573320Y-109728000D02*
X167538400Y-109693080D01*
X169593500Y-109728000D02*
X167573320Y-109728000D01*
X167241000Y-96239000D02*
X167576500Y-96574500D01*
X165481000Y-96239000D02*
X167241000Y-96239000D01*
X166733000Y-104167000D02*
X167513000Y-103387000D01*
X165481000Y-104167000D02*
X166733000Y-104167000D01*
X172200000Y-113538000D02*
X171450000Y-113538000D01*
X175069448Y-105091608D02*
X175069448Y-110668552D01*
X174544440Y-104566600D02*
X175069448Y-105091608D01*
X175069448Y-110668552D02*
X172200000Y-113538000D01*
X173544440Y-104566600D02*
X174544440Y-104566600D01*
X172339000Y-108470000D02*
X172339000Y-109220000D01*
X173019440Y-106516600D02*
X172339000Y-107197040D01*
X172339000Y-107197040D02*
X172339000Y-108470000D01*
X173544440Y-106516600D02*
X173019440Y-106516600D01*
X172200000Y-115062000D02*
X175895000Y-111367000D01*
X171450000Y-115062000D02*
X172200000Y-115062000D01*
X178444440Y-103266600D02*
X179444440Y-103266600D01*
X175895000Y-105816040D02*
X178444440Y-103266600D01*
X175895000Y-111367000D02*
X175895000Y-105816040D01*
D30*
G36*
X208966019Y-58253269D02*
G01*
X163695000Y-70892158D01*
X163695000Y-40782115D01*
X209040906Y-40767209D01*
X208966019Y-58253269D01*
X208966019Y-58253269D01*
G37*
X208966019Y-58253269D02*
X163695000Y-70892158D01*
X163695000Y-40782115D01*
X209040906Y-40767209D01*
X208966019Y-58253269D01*
G36*
X228599148Y-40766997D02*
G01*
X228600000Y-40767000D01*
X254254317Y-40767000D01*
X254268926Y-46610470D01*
X254254000Y-46609000D01*
X253240234Y-46609000D01*
X253301000Y-46303508D01*
X253301000Y-45390492D01*
X253122880Y-44495020D01*
X252773484Y-43651504D01*
X252266240Y-42892360D01*
X251620640Y-42246760D01*
X250861496Y-41739516D01*
X250017980Y-41390120D01*
X249122508Y-41212000D01*
X248209492Y-41212000D01*
X247314020Y-41390120D01*
X246470504Y-41739516D01*
X245711360Y-42246760D01*
X245065760Y-42892360D01*
X244558516Y-43651504D01*
X244209120Y-44495020D01*
X244031000Y-45390492D01*
X244031000Y-46303508D01*
X244091766Y-46609000D01*
X229108000Y-46609000D01*
X228984118Y-46621201D01*
X228864996Y-46657336D01*
X228755213Y-46716017D01*
X228658987Y-46794987D01*
X228580017Y-46891213D01*
X228521336Y-47000996D01*
X228485201Y-47120118D01*
X228473000Y-47244000D01*
X228473000Y-82693600D01*
X228396164Y-82630542D01*
X228243709Y-82549053D01*
X228078285Y-82498872D01*
X227906250Y-82481928D01*
X227418750Y-82481928D01*
X227246715Y-82498872D01*
X227081291Y-82549053D01*
X226928836Y-82630542D01*
X226795208Y-82740208D01*
X226685542Y-82873836D01*
X226604053Y-83026291D01*
X226553872Y-83191715D01*
X226536928Y-83363750D01*
X226536928Y-84276250D01*
X226553872Y-84448285D01*
X226604053Y-84613709D01*
X226685542Y-84766164D01*
X226795208Y-84899792D01*
X226928836Y-85009458D01*
X227081291Y-85090947D01*
X227246715Y-85141128D01*
X227418750Y-85158072D01*
X227906250Y-85158072D01*
X228078285Y-85141128D01*
X228243709Y-85090947D01*
X228396164Y-85009458D01*
X228473000Y-84946400D01*
X228473000Y-85598000D01*
X228486484Y-85728167D01*
X228523821Y-85846917D01*
X228583607Y-85956102D01*
X228663545Y-86051525D01*
X228760564Y-86129520D01*
X228870934Y-86187088D01*
X228990415Y-86222018D01*
X229114414Y-86232968D01*
X254260414Y-85978968D01*
X254305001Y-85974349D01*
X254305000Y-91313000D01*
X233553000Y-91313000D01*
X233528224Y-91315440D01*
X233511327Y-91320032D01*
X209550767Y-99643174D01*
X209803222Y-40695000D01*
X217871629Y-40695000D01*
X228599148Y-40766997D01*
X228599148Y-40766997D01*
G37*
X228599148Y-40766997D02*
X228600000Y-40767000D01*
X254254317Y-40767000D01*
X254268926Y-46610470D01*
X254254000Y-46609000D01*
X253240234Y-46609000D01*
X253301000Y-46303508D01*
X253301000Y-45390492D01*
X253122880Y-44495020D01*
X252773484Y-43651504D01*
X252266240Y-42892360D01*
X251620640Y-42246760D01*
X250861496Y-41739516D01*
X250017980Y-41390120D01*
X249122508Y-41212000D01*
X248209492Y-41212000D01*
X247314020Y-41390120D01*
X246470504Y-41739516D01*
X245711360Y-42246760D01*
X245065760Y-42892360D01*
X244558516Y-43651504D01*
X244209120Y-44495020D01*
X244031000Y-45390492D01*
X244031000Y-46303508D01*
X244091766Y-46609000D01*
X229108000Y-46609000D01*
X228984118Y-46621201D01*
X228864996Y-46657336D01*
X228755213Y-46716017D01*
X228658987Y-46794987D01*
X228580017Y-46891213D01*
X228521336Y-47000996D01*
X228485201Y-47120118D01*
X228473000Y-47244000D01*
X228473000Y-82693600D01*
X228396164Y-82630542D01*
X228243709Y-82549053D01*
X228078285Y-82498872D01*
X227906250Y-82481928D01*
X227418750Y-82481928D01*
X227246715Y-82498872D01*
X227081291Y-82549053D01*
X226928836Y-82630542D01*
X226795208Y-82740208D01*
X226685542Y-82873836D01*
X226604053Y-83026291D01*
X226553872Y-83191715D01*
X226536928Y-83363750D01*
X226536928Y-84276250D01*
X226553872Y-84448285D01*
X226604053Y-84613709D01*
X226685542Y-84766164D01*
X226795208Y-84899792D01*
X226928836Y-85009458D01*
X227081291Y-85090947D01*
X227246715Y-85141128D01*
X227418750Y-85158072D01*
X227906250Y-85158072D01*
X228078285Y-85141128D01*
X228243709Y-85090947D01*
X228396164Y-85009458D01*
X228473000Y-84946400D01*
X228473000Y-85598000D01*
X228486484Y-85728167D01*
X228523821Y-85846917D01*
X228583607Y-85956102D01*
X228663545Y-86051525D01*
X228760564Y-86129520D01*
X228870934Y-86187088D01*
X228990415Y-86222018D01*
X229114414Y-86232968D01*
X254260414Y-85978968D01*
X254305001Y-85974349D01*
X254305000Y-91313000D01*
X233553000Y-91313000D01*
X233528224Y-91315440D01*
X233511327Y-91320032D01*
X209550767Y-99643174D01*
X209803222Y-40695000D01*
X217871629Y-40695000D01*
X228599148Y-40766997D01*
G36*
X244558516Y-48042496D02*
G01*
X245065760Y-48801640D01*
X245711360Y-49447240D01*
X246470504Y-49954484D01*
X247314020Y-50303880D01*
X248209492Y-50482000D01*
X249122508Y-50482000D01*
X250017980Y-50303880D01*
X250861496Y-49954484D01*
X251620640Y-49447240D01*
X252266240Y-48801640D01*
X252773484Y-48042496D01*
X253051627Y-47371000D01*
X254127000Y-47371000D01*
X254127000Y-85218276D01*
X229235000Y-85469710D01*
X229235000Y-76287032D01*
X229286502Y-76190680D01*
X229322812Y-76070982D01*
X229335072Y-75946500D01*
X229335072Y-72748473D01*
X229397000Y-72754572D01*
X230847000Y-72754572D01*
X230971482Y-72742312D01*
X231091180Y-72706002D01*
X231201494Y-72647037D01*
X231298185Y-72567685D01*
X231377537Y-72470994D01*
X231436502Y-72360680D01*
X231472812Y-72240982D01*
X231485072Y-72116500D01*
X231485072Y-71266500D01*
X231472812Y-71142018D01*
X231436502Y-71022320D01*
X231377537Y-70912006D01*
X231298185Y-70815315D01*
X231201494Y-70735963D01*
X231091180Y-70676998D01*
X230971482Y-70640688D01*
X230847000Y-70628428D01*
X229397000Y-70628428D01*
X229272518Y-70640688D01*
X229235000Y-70652069D01*
X229235000Y-64666532D01*
X229286502Y-64570180D01*
X229322812Y-64450482D01*
X229335072Y-64326000D01*
X229335072Y-61127973D01*
X229397000Y-61134072D01*
X230847000Y-61134072D01*
X230971482Y-61121812D01*
X231091180Y-61085502D01*
X231201494Y-61026537D01*
X231298185Y-60947185D01*
X231377537Y-60850494D01*
X231436502Y-60740180D01*
X231472812Y-60620482D01*
X231485072Y-60496000D01*
X231485072Y-59646000D01*
X231472812Y-59521518D01*
X231436502Y-59401820D01*
X231377537Y-59291506D01*
X231298185Y-59194815D01*
X231201494Y-59115463D01*
X231091180Y-59056498D01*
X230971482Y-59020188D01*
X230847000Y-59007928D01*
X230679054Y-59007928D01*
X230612256Y-58963295D01*
X230423898Y-58885274D01*
X230223939Y-58845500D01*
X230020061Y-58845500D01*
X229820102Y-58885274D01*
X229631744Y-58963295D01*
X229564946Y-59007928D01*
X229397000Y-59007928D01*
X229272518Y-59020188D01*
X229235000Y-59031569D01*
X229235000Y-47371000D01*
X244280373Y-47371000D01*
X244558516Y-48042496D01*
X244558516Y-48042496D01*
G37*
X244558516Y-48042496D02*
X245065760Y-48801640D01*
X245711360Y-49447240D01*
X246470504Y-49954484D01*
X247314020Y-50303880D01*
X248209492Y-50482000D01*
X249122508Y-50482000D01*
X250017980Y-50303880D01*
X250861496Y-49954484D01*
X251620640Y-49447240D01*
X252266240Y-48801640D01*
X252773484Y-48042496D01*
X253051627Y-47371000D01*
X254127000Y-47371000D01*
X254127000Y-85218276D01*
X229235000Y-85469710D01*
X229235000Y-76287032D01*
X229286502Y-76190680D01*
X229322812Y-76070982D01*
X229335072Y-75946500D01*
X229335072Y-72748473D01*
X229397000Y-72754572D01*
X230847000Y-72754572D01*
X230971482Y-72742312D01*
X231091180Y-72706002D01*
X231201494Y-72647037D01*
X231298185Y-72567685D01*
X231377537Y-72470994D01*
X231436502Y-72360680D01*
X231472812Y-72240982D01*
X231485072Y-72116500D01*
X231485072Y-71266500D01*
X231472812Y-71142018D01*
X231436502Y-71022320D01*
X231377537Y-70912006D01*
X231298185Y-70815315D01*
X231201494Y-70735963D01*
X231091180Y-70676998D01*
X230971482Y-70640688D01*
X230847000Y-70628428D01*
X229397000Y-70628428D01*
X229272518Y-70640688D01*
X229235000Y-70652069D01*
X229235000Y-64666532D01*
X229286502Y-64570180D01*
X229322812Y-64450482D01*
X229335072Y-64326000D01*
X229335072Y-61127973D01*
X229397000Y-61134072D01*
X230847000Y-61134072D01*
X230971482Y-61121812D01*
X231091180Y-61085502D01*
X231201494Y-61026537D01*
X231298185Y-60947185D01*
X231377537Y-60850494D01*
X231436502Y-60740180D01*
X231472812Y-60620482D01*
X231485072Y-60496000D01*
X231485072Y-59646000D01*
X231472812Y-59521518D01*
X231436502Y-59401820D01*
X231377537Y-59291506D01*
X231298185Y-59194815D01*
X231201494Y-59115463D01*
X231091180Y-59056498D01*
X230971482Y-59020188D01*
X230847000Y-59007928D01*
X230679054Y-59007928D01*
X230612256Y-58963295D01*
X230423898Y-58885274D01*
X230223939Y-58845500D01*
X230020061Y-58845500D01*
X229820102Y-58885274D01*
X229631744Y-58963295D01*
X229564946Y-59007928D01*
X229397000Y-59007928D01*
X229272518Y-59020188D01*
X229235000Y-59031569D01*
X229235000Y-47371000D01*
X244280373Y-47371000D01*
X244558516Y-48042496D01*
G36*
X254305000Y-92962769D02*
G01*
X254305000Y-112395000D01*
X231509302Y-112395000D01*
X231508799Y-112386795D01*
X231504177Y-112371559D01*
X231012130Y-108189161D01*
X231006812Y-108164840D01*
X230996850Y-108142023D01*
X230982629Y-108121588D01*
X230964695Y-108104320D01*
X230943736Y-108090883D01*
X230920559Y-108081792D01*
X230886000Y-108077000D01*
X221921606Y-108077000D01*
X220561803Y-106717197D01*
X220542557Y-106701403D01*
X220520601Y-106689667D01*
X220496776Y-106682440D01*
X220470717Y-106680006D01*
X207954085Y-106806437D01*
X206502000Y-105233345D01*
X206502000Y-100965000D01*
X209423000Y-100965000D01*
X209447776Y-100962560D01*
X209463445Y-100958388D01*
X233636887Y-92837127D01*
X254305000Y-92962769D01*
X254305000Y-92962769D01*
G37*
X254305000Y-92962769D02*
X254305000Y-112395000D01*
X231509302Y-112395000D01*
X231508799Y-112386795D01*
X231504177Y-112371559D01*
X231012130Y-108189161D01*
X231006812Y-108164840D01*
X230996850Y-108142023D01*
X230982629Y-108121588D01*
X230964695Y-108104320D01*
X230943736Y-108090883D01*
X230920559Y-108081792D01*
X230886000Y-108077000D01*
X221921606Y-108077000D01*
X220561803Y-106717197D01*
X220542557Y-106701403D01*
X220520601Y-106689667D01*
X220496776Y-106682440D01*
X220470717Y-106680006D01*
X207954085Y-106806437D01*
X206502000Y-105233345D01*
X206502000Y-100965000D01*
X209423000Y-100965000D01*
X209447776Y-100962560D01*
X209463445Y-100958388D01*
X233636887Y-92837127D01*
X254305000Y-92962769D01*
G36*
X254305000Y-125465678D02*
G01*
X254255060Y-134305000D01*
X227588628Y-134305000D01*
X229766971Y-132235575D01*
X229783253Y-132216741D01*
X229795548Y-132195092D01*
X229803384Y-132171461D01*
X229806489Y-132141851D01*
X229744660Y-127381000D01*
X231648000Y-127381000D01*
X231672776Y-127378560D01*
X231696601Y-127371333D01*
X231718557Y-127359597D01*
X231737803Y-127343803D01*
X231753597Y-127324557D01*
X231765333Y-127302601D01*
X231772560Y-127278776D01*
X231775000Y-127254000D01*
X231775000Y-119380000D01*
X231772560Y-119355224D01*
X231765333Y-119331399D01*
X231753597Y-119309443D01*
X231737803Y-119290197D01*
X231718557Y-119274403D01*
X231696601Y-119262667D01*
X231672776Y-119255440D01*
X231648000Y-119253000D01*
X231024126Y-119253000D01*
X231474937Y-113157000D01*
X254305000Y-113157000D01*
X254305000Y-125465678D01*
X254305000Y-125465678D01*
G37*
X254305000Y-125465678D02*
X254255060Y-134305000D01*
X227588628Y-134305000D01*
X229766971Y-132235575D01*
X229783253Y-132216741D01*
X229795548Y-132195092D01*
X229803384Y-132171461D01*
X229806489Y-132141851D01*
X229744660Y-127381000D01*
X231648000Y-127381000D01*
X231672776Y-127378560D01*
X231696601Y-127371333D01*
X231718557Y-127359597D01*
X231737803Y-127343803D01*
X231753597Y-127324557D01*
X231765333Y-127302601D01*
X231772560Y-127278776D01*
X231775000Y-127254000D01*
X231775000Y-119380000D01*
X231772560Y-119355224D01*
X231765333Y-119331399D01*
X231753597Y-119309443D01*
X231737803Y-119290197D01*
X231718557Y-119274403D01*
X231696601Y-119262667D01*
X231672776Y-119255440D01*
X231648000Y-119253000D01*
X231024126Y-119253000D01*
X231474937Y-113157000D01*
X254305000Y-113157000D01*
X254305000Y-125465678D01*
G36*
X204580594Y-103294884D02*
G01*
X204705151Y-105786019D01*
X204708826Y-105810643D01*
X204717234Y-105834076D01*
X204730052Y-105855420D01*
X204744649Y-105871873D01*
X207157649Y-108157873D01*
X207177314Y-108173141D01*
X207199580Y-108184280D01*
X207223591Y-108190861D01*
X207244993Y-108192677D01*
X219768592Y-108192677D01*
X222738993Y-110915545D01*
X222738993Y-112510677D01*
X222741433Y-112535453D01*
X222748660Y-112559278D01*
X222760396Y-112581234D01*
X222776190Y-112600480D01*
X222795436Y-112616274D01*
X222817392Y-112628010D01*
X222841217Y-112635237D01*
X222865993Y-112637677D01*
X230749261Y-112637677D01*
X230259934Y-119254499D01*
X227289049Y-119292487D01*
X227264306Y-119295244D01*
X227240576Y-119302775D01*
X227218771Y-119314791D01*
X227199730Y-119330830D01*
X227184183Y-119350275D01*
X227172728Y-119372380D01*
X227165807Y-119396295D01*
X227163728Y-119415733D01*
X226930048Y-127337993D01*
X226931757Y-127362830D01*
X226938278Y-127386857D01*
X226949362Y-127409150D01*
X226964582Y-127428853D01*
X226983353Y-127445207D01*
X227004954Y-127457586D01*
X227028555Y-127465512D01*
X227061159Y-127468669D01*
X228244254Y-127429842D01*
X228200602Y-131377921D01*
X226371935Y-133084677D01*
X182606993Y-133084677D01*
X182606993Y-118669492D01*
X208344000Y-118669492D01*
X208344000Y-119582508D01*
X208522120Y-120477980D01*
X208871516Y-121321496D01*
X209378760Y-122080640D01*
X210024360Y-122726240D01*
X210783504Y-123233484D01*
X211627020Y-123582880D01*
X212522492Y-123761000D01*
X213435508Y-123761000D01*
X214330980Y-123582880D01*
X215174496Y-123233484D01*
X215933640Y-122726240D01*
X216579240Y-122080640D01*
X217086484Y-121321496D01*
X217435880Y-120477980D01*
X217614000Y-119582508D01*
X217614000Y-118669492D01*
X217435880Y-117774020D01*
X217086484Y-116930504D01*
X216579240Y-116171360D01*
X215933640Y-115525760D01*
X215174496Y-115018516D01*
X214330980Y-114669120D01*
X213435508Y-114491000D01*
X212522492Y-114491000D01*
X211627020Y-114669120D01*
X210783504Y-115018516D01*
X210024360Y-115525760D01*
X209378760Y-116171360D01*
X208871516Y-116930504D01*
X208522120Y-117774020D01*
X208344000Y-118669492D01*
X182606993Y-118669492D01*
X182606993Y-100754999D01*
X182941673Y-100329963D01*
X201604419Y-100318709D01*
X204580594Y-103294884D01*
X204580594Y-103294884D01*
G37*
X204580594Y-103294884D02*
X204705151Y-105786019D01*
X204708826Y-105810643D01*
X204717234Y-105834076D01*
X204730052Y-105855420D01*
X204744649Y-105871873D01*
X207157649Y-108157873D01*
X207177314Y-108173141D01*
X207199580Y-108184280D01*
X207223591Y-108190861D01*
X207244993Y-108192677D01*
X219768592Y-108192677D01*
X222738993Y-110915545D01*
X222738993Y-112510677D01*
X222741433Y-112535453D01*
X222748660Y-112559278D01*
X222760396Y-112581234D01*
X222776190Y-112600480D01*
X222795436Y-112616274D01*
X222817392Y-112628010D01*
X222841217Y-112635237D01*
X222865993Y-112637677D01*
X230749261Y-112637677D01*
X230259934Y-119254499D01*
X227289049Y-119292487D01*
X227264306Y-119295244D01*
X227240576Y-119302775D01*
X227218771Y-119314791D01*
X227199730Y-119330830D01*
X227184183Y-119350275D01*
X227172728Y-119372380D01*
X227165807Y-119396295D01*
X227163728Y-119415733D01*
X226930048Y-127337993D01*
X226931757Y-127362830D01*
X226938278Y-127386857D01*
X226949362Y-127409150D01*
X226964582Y-127428853D01*
X226983353Y-127445207D01*
X227004954Y-127457586D01*
X227028555Y-127465512D01*
X227061159Y-127468669D01*
X228244254Y-127429842D01*
X228200602Y-131377921D01*
X226371935Y-133084677D01*
X182606993Y-133084677D01*
X182606993Y-118669492D01*
X208344000Y-118669492D01*
X208344000Y-119582508D01*
X208522120Y-120477980D01*
X208871516Y-121321496D01*
X209378760Y-122080640D01*
X210024360Y-122726240D01*
X210783504Y-123233484D01*
X211627020Y-123582880D01*
X212522492Y-123761000D01*
X213435508Y-123761000D01*
X214330980Y-123582880D01*
X215174496Y-123233484D01*
X215933640Y-122726240D01*
X216579240Y-122080640D01*
X217086484Y-121321496D01*
X217435880Y-120477980D01*
X217614000Y-119582508D01*
X217614000Y-118669492D01*
X217435880Y-117774020D01*
X217086484Y-116930504D01*
X216579240Y-116171360D01*
X215933640Y-115525760D01*
X215174496Y-115018516D01*
X214330980Y-114669120D01*
X213435508Y-114491000D01*
X212522492Y-114491000D01*
X211627020Y-114669120D01*
X210783504Y-115018516D01*
X210024360Y-115525760D01*
X209378760Y-116171360D01*
X208871516Y-116930504D01*
X208522120Y-117774020D01*
X208344000Y-118669492D01*
X182606993Y-118669492D01*
X182606993Y-100754999D01*
X182941673Y-100329963D01*
X201604419Y-100318709D01*
X204580594Y-103294884D01*
G36*
X208932329Y-66119928D02*
G01*
X207493500Y-66119928D01*
X207369018Y-66132188D01*
X207249320Y-66168498D01*
X207139006Y-66227463D01*
X207042315Y-66306815D01*
X206962963Y-66403506D01*
X206903998Y-66513820D01*
X206867688Y-66633518D01*
X206855428Y-66758000D01*
X206855428Y-67608000D01*
X206867688Y-67732482D01*
X206903998Y-67852180D01*
X206962963Y-67962494D01*
X207042315Y-68059185D01*
X207139006Y-68138537D01*
X207249320Y-68197502D01*
X207369018Y-68233812D01*
X207493500Y-68246072D01*
X208923223Y-68246072D01*
X208875220Y-79454928D01*
X207493500Y-79454928D01*
X207369018Y-79467188D01*
X207249320Y-79503498D01*
X207139006Y-79562463D01*
X207042315Y-79641815D01*
X206962963Y-79738506D01*
X206903998Y-79848820D01*
X206867688Y-79968518D01*
X206855428Y-80093000D01*
X206855428Y-80943000D01*
X206867688Y-81067482D01*
X206903998Y-81187180D01*
X206962963Y-81297494D01*
X207042315Y-81394185D01*
X207139006Y-81473537D01*
X207249320Y-81532502D01*
X207369018Y-81568812D01*
X207493500Y-81581072D01*
X208866114Y-81581072D01*
X208804848Y-95886783D01*
X169278401Y-95965347D01*
X168235801Y-94967739D01*
X168216212Y-94952373D01*
X168194002Y-94941124D01*
X168170024Y-94934424D01*
X168148000Y-94932500D01*
X166368288Y-94932500D01*
X166279254Y-94905492D01*
X166106000Y-94888428D01*
X164856000Y-94888428D01*
X164682746Y-94905492D01*
X164593712Y-94932500D01*
X163824524Y-94932500D01*
X163752019Y-71667377D01*
X208962627Y-59045355D01*
X208932329Y-66119928D01*
X208932329Y-66119928D01*
G37*
X208932329Y-66119928D02*
X207493500Y-66119928D01*
X207369018Y-66132188D01*
X207249320Y-66168498D01*
X207139006Y-66227463D01*
X207042315Y-66306815D01*
X206962963Y-66403506D01*
X206903998Y-66513820D01*
X206867688Y-66633518D01*
X206855428Y-66758000D01*
X206855428Y-67608000D01*
X206867688Y-67732482D01*
X206903998Y-67852180D01*
X206962963Y-67962494D01*
X207042315Y-68059185D01*
X207139006Y-68138537D01*
X207249320Y-68197502D01*
X207369018Y-68233812D01*
X207493500Y-68246072D01*
X208923223Y-68246072D01*
X208875220Y-79454928D01*
X207493500Y-79454928D01*
X207369018Y-79467188D01*
X207249320Y-79503498D01*
X207139006Y-79562463D01*
X207042315Y-79641815D01*
X206962963Y-79738506D01*
X206903998Y-79848820D01*
X206867688Y-79968518D01*
X206855428Y-80093000D01*
X206855428Y-80943000D01*
X206867688Y-81067482D01*
X206903998Y-81187180D01*
X206962963Y-81297494D01*
X207042315Y-81394185D01*
X207139006Y-81473537D01*
X207249320Y-81532502D01*
X207369018Y-81568812D01*
X207493500Y-81581072D01*
X208866114Y-81581072D01*
X208804848Y-95886783D01*
X169278401Y-95965347D01*
X168235801Y-94967739D01*
X168216212Y-94952373D01*
X168194002Y-94941124D01*
X168170024Y-94934424D01*
X168148000Y-94932500D01*
X166368288Y-94932500D01*
X166279254Y-94905492D01*
X166106000Y-94888428D01*
X164856000Y-94888428D01*
X164682746Y-94905492D01*
X164593712Y-94932500D01*
X163824524Y-94932500D01*
X163752019Y-71667377D01*
X208962627Y-59045355D01*
X208932329Y-66119928D01*
M02*
