M48
; DRILL file {KiCad 5.1.4} date Mo 11 Nov 2019 17:18:14 CET
; FORMAT={-:-/ absolute / metric / decimal}
; #@! TF.CreationDate,2019-11-11T17:18:14+01:00
; #@! TF.GenerationSoftware,Kicad,Pcbnew,5.1.4
; #@! TF.FileFunction,Plated,1,2,PTH
FMAT,2
METRIC
T1C0.400
T2C0.600
T3C0.950
T4C2.100
T5C4.000
%
G90
G05
T1
X165.481Y-100.266
X174.18Y-128.969
X176.104Y-119.897
X177.571Y-100.482
X179.319Y-133.032
X179.514Y-106.87
X201.864Y-98.552
X201.93Y-97.282
X204.851Y-75.946
X204.851Y-76.962
X204.851Y-77.978
X204.851Y-78.994
X204.851Y-80.01
X204.851Y-81.026
X205.486Y-62.738
X205.486Y-63.754
X205.486Y-64.77
X205.486Y-65.786
X205.486Y-66.802
X205.486Y-67.818
X205.867Y-75.438
X205.867Y-76.454
X205.867Y-77.47
X205.867Y-78.486
X205.867Y-79.502
X205.867Y-80.518
X205.867Y-81.534
X206.502Y-62.23
X206.502Y-63.246
X206.502Y-64.262
X206.502Y-65.278
X206.502Y-66.294
X206.502Y-67.31
X206.502Y-68.326
X206.883Y-74.93
X206.883Y-75.946
X206.883Y-76.962
X206.883Y-77.978
X206.883Y-78.994
X207.518Y-61.722
X207.518Y-62.738
X207.518Y-63.754
X207.518Y-64.77
X207.518Y-65.786
X207.899Y-74.93
X207.899Y-75.946
X207.899Y-76.962
X207.899Y-77.978
X207.899Y-78.994
X208.07Y-80.518
X208.218Y-67.183
X208.534Y-61.722
X208.534Y-62.738
X208.534Y-63.754
X208.534Y-64.77
X208.534Y-65.786
X210.058Y-63.246
X210.058Y-64.262
X210.058Y-65.278
X210.058Y-66.294
X210.058Y-67.31
X210.185Y-76.708
X210.185Y-77.724
X210.185Y-78.74
X210.185Y-79.756
X210.185Y-80.772
X211.074Y-63.246
X211.074Y-64.262
X211.074Y-65.278
X211.074Y-66.294
X211.074Y-67.31
X211.201Y-76.708
X211.201Y-77.724
X211.201Y-78.74
X211.201Y-79.756
X211.201Y-80.772
X212.09Y-63.246
X212.09Y-64.262
X212.09Y-65.278
X212.09Y-66.294
X212.09Y-67.31
X212.217Y-76.708
X212.217Y-77.724
X212.217Y-78.74
X212.217Y-79.756
X212.217Y-80.772
X213.106Y-63.246
X213.106Y-64.262
X213.106Y-65.278
X213.106Y-66.294
X213.106Y-67.31
X213.233Y-76.708
X213.233Y-77.724
X213.233Y-78.74
X213.233Y-79.756
X213.233Y-80.772
X222.25Y-112.522
X222.758Y-113.538
X222.758Y-114.554
X222.758Y-115.57
X223.774Y-104.648
X223.774Y-105.664
X223.774Y-106.68
X223.774Y-107.696
X223.774Y-113.03
X223.774Y-114.046
X223.774Y-115.062
X223.774Y-116.078
X223.774Y-119.38
X223.774Y-120.396
X223.774Y-121.412
X223.774Y-122.428
X223.774Y-123.444
X223.774Y-124.46
X223.774Y-125.476
X223.774Y-126.492
X224.282Y-127.254
X224.79Y-104.648
X224.79Y-105.664
X224.79Y-106.68
X224.79Y-107.696
X224.79Y-113.03
X224.79Y-114.046
X224.79Y-115.062
X224.79Y-116.078
X224.79Y-119.38
X224.79Y-120.396
X224.79Y-121.412
X224.79Y-122.428
X224.79Y-123.444
X224.79Y-124.46
X224.79Y-125.476
X224.79Y-126.492
X224.917Y-59.944
X224.917Y-60.96
X224.917Y-61.976
X224.917Y-62.992
X224.917Y-64.008
X224.917Y-71.628
X224.917Y-72.644
X224.917Y-73.66
X224.917Y-74.676
X224.917Y-75.692
X225.298Y-127.254
X225.806Y-104.648
X225.806Y-105.664
X225.806Y-106.68
X225.806Y-107.696
X225.806Y-113.03
X225.806Y-114.046
X225.806Y-115.062
X225.806Y-116.078
X225.806Y-119.38
X225.806Y-120.396
X225.806Y-121.412
X225.806Y-122.428
X225.806Y-123.444
X225.806Y-124.46
X225.806Y-125.476
X225.806Y-126.492
X225.933Y-59.944
X225.933Y-60.96
X225.933Y-61.976
X225.933Y-62.992
X225.933Y-64.008
X225.933Y-71.628
X225.933Y-72.644
X225.933Y-73.66
X225.933Y-74.676
X225.933Y-75.692
X226.314Y-127.254
X226.822Y-104.648
X226.822Y-105.664
X226.822Y-106.68
X226.822Y-107.696
X226.822Y-113.03
X226.822Y-114.046
X226.822Y-115.062
X226.822Y-116.078
X226.822Y-119.38
X226.822Y-120.396
X226.822Y-121.412
X226.822Y-122.428
X226.822Y-123.444
X226.822Y-124.46
X226.822Y-125.476
X226.822Y-126.492
X226.949Y-59.944
X226.949Y-60.96
X226.949Y-61.976
X226.949Y-62.992
X226.949Y-64.008
X226.949Y-71.628
X226.949Y-72.644
X226.949Y-73.66
X226.949Y-74.676
X226.949Y-75.692
X227.662Y-83.82
X227.838Y-104.648
X227.838Y-105.664
X227.838Y-106.68
X227.838Y-107.696
X227.838Y-113.03
X227.838Y-114.046
X227.838Y-115.062
X227.838Y-116.078
X227.965Y-59.944
X227.965Y-60.96
X227.965Y-61.976
X227.965Y-62.992
X227.965Y-64.008
X227.965Y-71.628
X227.965Y-72.644
X227.965Y-73.66
X227.965Y-74.676
X227.965Y-75.692
X228.854Y-104.648
X228.854Y-105.664
X228.854Y-106.68
X228.854Y-107.696
X228.854Y-113.03
X228.854Y-114.046
X228.854Y-115.062
X228.854Y-116.078
X229.87Y-104.648
X229.87Y-105.664
X229.87Y-106.68
X229.87Y-107.696
X229.87Y-113.03
X229.87Y-114.046
X229.87Y-115.062
X229.87Y-116.078
X229.931Y-71.691
X230.122Y-59.88
X230.251Y-61.468
X230.251Y-62.484
X230.251Y-63.5
X230.251Y-64.516
X230.251Y-73.025
X230.251Y-74.041
X230.251Y-75.057
X230.251Y-76.073
X230.886Y-104.648
X230.886Y-105.664
X230.886Y-106.68
X230.886Y-107.696
X231.267Y-61.468
X231.267Y-62.484
X231.267Y-63.5
X231.267Y-64.516
X231.267Y-73.025
X231.267Y-74.041
X231.267Y-75.057
X231.267Y-76.073
X231.521Y-58.801
X231.648Y-70.485
X231.775Y-60.198
X231.902Y-105.156
X231.902Y-106.172
X231.902Y-107.188
X231.902Y-108.204
X231.902Y-120.142
X231.902Y-121.158
X231.902Y-122.174
X231.902Y-123.19
X231.902Y-124.206
X231.902Y-125.222
X231.902Y-126.238
X232.283Y-60.96
X232.283Y-61.976
X232.283Y-62.992
X232.283Y-64.008
X232.283Y-71.374
X232.283Y-72.517
X232.283Y-73.533
X232.283Y-74.549
X232.283Y-75.565
X232.41Y-59.563
X232.41Y-119.126
X232.41Y-127.0
X232.537Y-70.485
X232.918Y-105.664
X232.918Y-106.68
X232.918Y-107.696
X232.918Y-120.142
X232.918Y-121.158
X232.918Y-122.174
X232.918Y-123.19
X232.918Y-124.206
X232.918Y-125.222
X232.918Y-126.238
X233.299Y-60.452
X233.299Y-61.468
X233.299Y-62.484
X233.299Y-63.5
X233.299Y-70.993
X233.299Y-72.009
X233.299Y-73.025
X233.299Y-74.041
X233.299Y-75.057
X233.426Y-119.126
X233.426Y-127.0
X233.934Y-120.142
X233.934Y-121.158
X233.934Y-122.174
X233.934Y-123.19
X233.934Y-124.206
X233.934Y-125.222
X233.934Y-126.238
X234.442Y-119.126
X234.442Y-127.0
X234.95Y-120.142
X234.95Y-121.158
X234.95Y-122.174
X234.95Y-123.19
X234.95Y-124.206
X234.95Y-125.222
X234.95Y-126.238
T2
X245.666Y-45.847
X246.545Y-43.726
X246.545Y-47.968
X248.666Y-42.847
X248.666Y-48.847
X250.787Y-43.726
X250.787Y-47.968
X251.666Y-45.847
X172.192Y-50.353
X173.07Y-48.232
X173.07Y-52.474
X175.192Y-47.353
X175.192Y-53.353
X177.313Y-48.232
X177.313Y-52.474
X178.192Y-50.353
X165.75Y-128.024
X166.629Y-125.903
X166.629Y-130.145
X168.75Y-125.024
X168.75Y-131.024
X170.872Y-125.903
X170.872Y-130.145
X171.75Y-128.024
X209.979Y-119.126
X210.858Y-117.005
X210.858Y-121.247
X212.979Y-116.126
X212.979Y-122.126
X215.1Y-117.005
X215.1Y-121.247
X215.979Y-119.126
T3
X167.538Y-107.193
X167.538Y-109.693
X167.538Y-112.193
X167.538Y-114.693
X167.538Y-117.193
X167.538Y-119.693
T5
X248.666Y-45.847
X175.192Y-50.353
X168.75Y-128.024
X212.979Y-119.126
T4
G00X235.367Y-95.902
M15
G01X235.367Y-95.902
M16
G05
G00X235.367Y-108.902
M15
G01X235.367Y-108.902
M16
G05
G00X241.667Y-95.902
M15
G01X241.667Y-95.902
M16
G05
G00X241.667Y-108.902
M15
G01X241.667Y-108.902
M16
G05
G00X247.968Y-95.902
M15
G01X247.968Y-95.902
M16
G05
G00X247.968Y-108.902
M15
G01X247.968Y-108.902
M16
G05
G00X189.206Y-73.879
M15
G01X189.206Y-73.879
M16
G05
G00X189.206Y-86.879
M15
G01X189.206Y-86.879
M16
G05
G00X189.234Y-43.879
M15
G01X189.234Y-43.879
M16
G05
G00X189.234Y-56.879
M15
G01X189.234Y-56.879
M16
G05
G00X195.506Y-73.879
M15
G01X195.506Y-73.879
M16
G05
G00X195.506Y-86.879
M15
G01X195.506Y-86.879
M16
G05
G00X195.534Y-43.879
M15
G01X195.534Y-43.879
M16
G05
G00X195.534Y-56.879
M15
G01X195.534Y-56.879
M16
G05
G00X201.806Y-73.879
M15
G01X201.806Y-73.879
M16
G05
G00X201.806Y-86.879
M15
G01X201.806Y-86.879
M16
G05
G00X201.834Y-43.879
M15
G01X201.834Y-43.879
M16
G05
G00X201.834Y-56.879
M15
G01X201.834Y-56.879
M16
G05
G00X235.143Y-116.575
M15
G01X235.143Y-116.575
M16
G05
G00X235.143Y-129.576
M15
G01X235.143Y-129.576
M16
G05
G00X241.443Y-116.575
M15
G01X241.443Y-116.575
M16
G05
G00X241.443Y-129.576
M15
G01X241.443Y-129.576
M16
G05
G00X247.743Y-116.575
M15
G01X247.743Y-116.575
M16
G05
G00X247.743Y-129.576
M15
G01X247.743Y-129.576
M16
G05
G00X206.73Y-112.598
M15
G01X206.73Y-112.598
M16
G05
G00X206.73Y-125.598
M15
G01X206.73Y-125.598
M16
G05
G00X213.03Y-112.598
M15
G01X213.03Y-112.598
M16
G05
G00X213.03Y-125.598
M15
G01X213.03Y-125.598
M16
G05
G00X219.33Y-112.598
M15
G01X219.33Y-112.598
M16
G05
G00X219.33Y-125.598
M15
G01X219.33Y-125.598
M16
G05
G00X235.839Y-60.833
M15
G01X235.839Y-60.833
M16
G05
G00X235.839Y-73.833
M15
G01X235.839Y-73.833
M16
G05
G00X242.139Y-60.833
M15
G01X242.139Y-60.833
M16
G05
G00X242.139Y-73.833
M15
G01X242.139Y-73.833
M16
G05
G00X248.439Y-60.833
M15
G01X248.439Y-60.833
M16
G05
G00X248.439Y-73.833
M15
G01X248.439Y-73.833
M16
G05
G00X168.994Y-43.799
M15
G01X168.994Y-43.799
M16
G05
G00X168.994Y-56.799
M15
G01X168.994Y-56.799
M16
G05
G00X175.294Y-43.799
M15
G01X175.294Y-43.799
M16
G05
G00X175.294Y-56.799
M15
G01X175.294Y-56.799
M16
G05
G00X181.594Y-43.799
M15
G01X181.594Y-43.799
M16
G05
G00X181.594Y-56.799
M15
G01X181.594Y-56.799
M16
G05
T0
M30
