%TF.GenerationSoftware,KiCad,Pcbnew,5.1.4*%
%TF.CreationDate,2019-11-11T17:18:17+01:00*%
%TF.ProjectId,shunt-board,7368756e-742d-4626-9f61-72642e6b6963,rev?*%
%TF.SameCoordinates,Original*%
%TF.FileFunction,Legend,Bot*%
%TF.FilePolarity,Positive*%
%FSLAX46Y46*%
G04 Gerber Fmt 4.6, Leading zero omitted, Abs format (unit mm)*
G04 Created by KiCad (PCBNEW 5.1.4) date 2019-11-11 17:18:17*
%MOMM*%
%LPD*%
G04 APERTURE LIST*
%ADD10C,8.102000*%
%ADD11C,1.002000*%
%ADD12O,2.052000X1.802000*%
%ADD13C,0.100000*%
%ADD14C,1.802000*%
%ADD15C,4.102000*%
G04 APERTURE END LIST*
%LPC*%
D10*
X248666000Y-45847000D03*
D11*
X251666000Y-45847000D03*
X250787320Y-47968320D03*
X248666000Y-48847000D03*
X246544680Y-47968320D03*
X245666000Y-45847000D03*
X246544680Y-43725680D03*
X248666000Y-42847000D03*
X250787320Y-43725680D03*
D10*
X212979000Y-119126000D03*
D11*
X215979000Y-119126000D03*
X215100320Y-121247320D03*
X212979000Y-122126000D03*
X210857680Y-121247320D03*
X209979000Y-119126000D03*
X210857680Y-117004680D03*
X212979000Y-116126000D03*
X215100320Y-117004680D03*
X170871720Y-125902720D03*
X168750400Y-125024040D03*
X166629080Y-125902720D03*
X165750400Y-128024040D03*
X166629080Y-130145360D03*
X168750400Y-131024040D03*
X170871720Y-130145360D03*
X171750400Y-128024040D03*
D10*
X168750400Y-128024040D03*
D11*
X177313000Y-48231640D03*
X175191680Y-47352960D03*
X173070360Y-48231640D03*
X172191680Y-50352960D03*
X173070360Y-52474280D03*
X175191680Y-53352960D03*
X177313000Y-52474280D03*
X178191680Y-50352960D03*
D10*
X175191680Y-50352960D03*
D12*
X167538400Y-119693080D03*
X167538400Y-117193080D03*
X167538400Y-114693080D03*
X167538400Y-112193080D03*
X167538400Y-109693080D03*
D13*
G36*
X168325375Y-106293356D02*
G01*
X168351099Y-106297172D01*
X168376325Y-106303491D01*
X168400811Y-106312252D01*
X168424320Y-106323371D01*
X168446626Y-106336741D01*
X168467514Y-106352232D01*
X168486783Y-106369697D01*
X168504248Y-106388966D01*
X168519739Y-106409854D01*
X168533109Y-106432160D01*
X168544228Y-106455669D01*
X168552989Y-106480155D01*
X168559308Y-106505381D01*
X168563124Y-106531105D01*
X168564400Y-106557080D01*
X168564400Y-107829080D01*
X168563124Y-107855055D01*
X168559308Y-107880779D01*
X168552989Y-107906005D01*
X168544228Y-107930491D01*
X168533109Y-107954000D01*
X168519739Y-107976306D01*
X168504248Y-107997194D01*
X168486783Y-108016463D01*
X168467514Y-108033928D01*
X168446626Y-108049419D01*
X168424320Y-108062789D01*
X168400811Y-108073908D01*
X168376325Y-108082669D01*
X168351099Y-108088988D01*
X168325375Y-108092804D01*
X168299400Y-108094080D01*
X166777400Y-108094080D01*
X166751425Y-108092804D01*
X166725701Y-108088988D01*
X166700475Y-108082669D01*
X166675989Y-108073908D01*
X166652480Y-108062789D01*
X166630174Y-108049419D01*
X166609286Y-108033928D01*
X166590017Y-108016463D01*
X166572552Y-107997194D01*
X166557061Y-107976306D01*
X166543691Y-107954000D01*
X166532572Y-107930491D01*
X166523811Y-107906005D01*
X166517492Y-107880779D01*
X166513676Y-107855055D01*
X166512400Y-107829080D01*
X166512400Y-106557080D01*
X166513676Y-106531105D01*
X166517492Y-106505381D01*
X166523811Y-106480155D01*
X166532572Y-106455669D01*
X166543691Y-106432160D01*
X166557061Y-106409854D01*
X166572552Y-106388966D01*
X166590017Y-106369697D01*
X166609286Y-106352232D01*
X166630174Y-106336741D01*
X166652480Y-106323371D01*
X166675989Y-106312252D01*
X166700475Y-106303491D01*
X166725701Y-106297172D01*
X166751425Y-106293356D01*
X166777400Y-106292080D01*
X168299400Y-106292080D01*
X168325375Y-106293356D01*
X168325375Y-106293356D01*
G37*
D14*
X167538400Y-107193080D03*
D15*
X201805680Y-86878960D03*
X189205680Y-86878960D03*
X195505680Y-86878960D03*
X189205680Y-73878960D03*
X195505680Y-73878960D03*
X201805680Y-73878960D03*
X201833680Y-56878960D03*
X201833680Y-43878960D03*
X195533680Y-43878960D03*
X189233680Y-43878960D03*
X195533680Y-56878960D03*
X189233680Y-56878960D03*
X168993680Y-56798960D03*
X175293680Y-56798960D03*
X181593680Y-56798960D03*
X175293680Y-43798960D03*
X181593680Y-43798960D03*
X168993680Y-43798960D03*
X235839000Y-73833000D03*
X242139000Y-73833000D03*
X248439000Y-73833000D03*
X242139000Y-60833000D03*
X248439000Y-60833000D03*
X235839000Y-60833000D03*
X235367500Y-108902500D03*
X241667500Y-108902500D03*
X247967500Y-108902500D03*
X241667500Y-95902500D03*
X247967500Y-95902500D03*
X235367500Y-95902500D03*
X235143000Y-129575500D03*
X241443000Y-129575500D03*
X247743000Y-129575500D03*
X241443000Y-116575500D03*
X247743000Y-116575500D03*
X235143000Y-116575500D03*
X206729800Y-112598200D03*
X219329800Y-112598200D03*
X213029800Y-112598200D03*
X219329800Y-125598200D03*
X213029800Y-125598200D03*
X206729800Y-125598200D03*
M02*
