%TF.GenerationSoftware,KiCad,Pcbnew,5.1.4*%
%TF.CreationDate,2019-11-11T16:17:41+01:00*%
%TF.ProjectId,main-board,6d61696e-2d62-46f6-9172-642e6b696361,rev?*%
%TF.SameCoordinates,Original*%
%TF.FileFunction,Legend,Bot*%
%TF.FilePolarity,Positive*%
%FSLAX46Y46*%
G04 Gerber Fmt 4.6, Leading zero omitted, Abs format (unit mm)*
G04 Created by KiCad (PCBNEW 5.1.4) date 2019-11-11 16:17:41*
%MOMM*%
%LPD*%
G04 APERTURE LIST*
%ADD10C,0.150000*%
%ADD11C,0.120000*%
%ADD12O,2.102000X1.802000*%
%ADD13C,0.100000*%
%ADD14C,1.802000*%
%ADD15O,2.052000X1.802000*%
%ADD16C,5.702000*%
%ADD17C,2.502000*%
%ADD18R,2.502000X2.502000*%
%ADD19R,2.102000X2.102000*%
%ADD20O,1.802000X1.802000*%
%ADD21R,1.802000X1.802000*%
%ADD22R,2.602000X2.602000*%
%ADD23C,1.902000*%
%ADD24R,1.902000X1.902000*%
%ADD25C,3.602000*%
%ADD26C,6.000000*%
%ADD27C,2.202000*%
%ADD28R,2.202000X2.202000*%
G04 APERTURE END LIST*
D10*
X160543714Y-136358380D02*
X160210380Y-137358380D01*
X159877047Y-136358380D01*
X159019904Y-137358380D02*
X159591333Y-137358380D01*
X159305619Y-137358380D02*
X159305619Y-136358380D01*
X159400857Y-136501238D01*
X159496095Y-136596476D01*
X159591333Y-136644095D01*
X158638952Y-136453619D02*
X158591333Y-136406000D01*
X158496095Y-136358380D01*
X158258000Y-136358380D01*
X158162761Y-136406000D01*
X158115142Y-136453619D01*
X158067523Y-136548857D01*
X158067523Y-136644095D01*
X158115142Y-136786952D01*
X158686571Y-137358380D01*
X158067523Y-137358380D01*
X133143523Y-136358380D02*
X132810190Y-137358380D01*
X132476857Y-136358380D01*
X132238761Y-136358380D02*
X131572095Y-136358380D01*
X132000666Y-137358380D01*
X107743523Y-136358380D02*
X107410190Y-137358380D01*
X107076857Y-136358380D01*
X106791142Y-136453619D02*
X106743523Y-136406000D01*
X106648285Y-136358380D01*
X106410190Y-136358380D01*
X106314952Y-136406000D01*
X106267333Y-136453619D01*
X106219714Y-136548857D01*
X106219714Y-136644095D01*
X106267333Y-136786952D01*
X106838761Y-137358380D01*
X106219714Y-137358380D01*
X170703714Y-136358380D02*
X170370380Y-137358380D01*
X170037047Y-136358380D01*
X169179904Y-137358380D02*
X169751333Y-137358380D01*
X169465619Y-137358380D02*
X169465619Y-136358380D01*
X169560857Y-136501238D01*
X169656095Y-136596476D01*
X169751333Y-136644095D01*
X168322761Y-136691714D02*
X168322761Y-137358380D01*
X168560857Y-136310761D02*
X168798952Y-137025047D01*
X168179904Y-137025047D01*
X144573523Y-136358380D02*
X144240190Y-137358380D01*
X143906857Y-136358380D01*
X143525904Y-137358380D02*
X143335428Y-137358380D01*
X143240190Y-137310761D01*
X143192571Y-137263142D01*
X143097333Y-137120285D01*
X143049714Y-136929809D01*
X143049714Y-136548857D01*
X143097333Y-136453619D01*
X143144952Y-136406000D01*
X143240190Y-136358380D01*
X143430666Y-136358380D01*
X143525904Y-136406000D01*
X143573523Y-136453619D01*
X143621142Y-136548857D01*
X143621142Y-136786952D01*
X143573523Y-136882190D01*
X143525904Y-136929809D01*
X143430666Y-136977428D01*
X143240190Y-136977428D01*
X143144952Y-136929809D01*
X143097333Y-136882190D01*
X143049714Y-136786952D01*
X150129714Y-136358380D02*
X149796380Y-137358380D01*
X149463047Y-136358380D01*
X148605904Y-137358380D02*
X149177333Y-137358380D01*
X148891619Y-137358380D02*
X148891619Y-136358380D01*
X148986857Y-136501238D01*
X149082095Y-136596476D01*
X149177333Y-136644095D01*
X147986857Y-136358380D02*
X147891619Y-136358380D01*
X147796380Y-136406000D01*
X147748761Y-136453619D01*
X147701142Y-136548857D01*
X147653523Y-136739333D01*
X147653523Y-136977428D01*
X147701142Y-137167904D01*
X147748761Y-137263142D01*
X147796380Y-137310761D01*
X147891619Y-137358380D01*
X147986857Y-137358380D01*
X148082095Y-137310761D01*
X148129714Y-137263142D01*
X148177333Y-137167904D01*
X148224952Y-136977428D01*
X148224952Y-136739333D01*
X148177333Y-136548857D01*
X148129714Y-136453619D01*
X148082095Y-136406000D01*
X147986857Y-136358380D01*
X128063523Y-136358380D02*
X127730190Y-137358380D01*
X127396857Y-136358380D01*
X126634952Y-136358380D02*
X126825428Y-136358380D01*
X126920666Y-136406000D01*
X126968285Y-136453619D01*
X127063523Y-136596476D01*
X127111142Y-136786952D01*
X127111142Y-137167904D01*
X127063523Y-137263142D01*
X127015904Y-137310761D01*
X126920666Y-137358380D01*
X126730190Y-137358380D01*
X126634952Y-137310761D01*
X126587333Y-137263142D01*
X126539714Y-137167904D01*
X126539714Y-136929809D01*
X126587333Y-136834571D01*
X126634952Y-136786952D01*
X126730190Y-136739333D01*
X126920666Y-136739333D01*
X127015904Y-136786952D01*
X127063523Y-136834571D01*
X127111142Y-136929809D01*
X97583523Y-136358380D02*
X97250190Y-137358380D01*
X96916857Y-136358380D01*
X96393047Y-136358380D02*
X96297809Y-136358380D01*
X96202571Y-136406000D01*
X96154952Y-136453619D01*
X96107333Y-136548857D01*
X96059714Y-136739333D01*
X96059714Y-136977428D01*
X96107333Y-137167904D01*
X96154952Y-137263142D01*
X96202571Y-137310761D01*
X96297809Y-137358380D01*
X96393047Y-137358380D01*
X96488285Y-137310761D01*
X96535904Y-137263142D01*
X96583523Y-137167904D01*
X96631142Y-136977428D01*
X96631142Y-136739333D01*
X96583523Y-136548857D01*
X96535904Y-136453619D01*
X96488285Y-136406000D01*
X96393047Y-136358380D01*
X175529714Y-136358380D02*
X175196380Y-137358380D01*
X174863047Y-136358380D01*
X174005904Y-137358380D02*
X174577333Y-137358380D01*
X174291619Y-137358380D02*
X174291619Y-136358380D01*
X174386857Y-136501238D01*
X174482095Y-136596476D01*
X174577333Y-136644095D01*
X173101142Y-136358380D02*
X173577333Y-136358380D01*
X173624952Y-136834571D01*
X173577333Y-136786952D01*
X173482095Y-136739333D01*
X173244000Y-136739333D01*
X173148761Y-136786952D01*
X173101142Y-136834571D01*
X173053523Y-136929809D01*
X173053523Y-137167904D01*
X173101142Y-137263142D01*
X173148761Y-137310761D01*
X173244000Y-137358380D01*
X173482095Y-137358380D01*
X173577333Y-137310761D01*
X173624952Y-137263142D01*
X180863714Y-136358380D02*
X180530380Y-137358380D01*
X180197047Y-136358380D01*
X179339904Y-137358380D02*
X179911333Y-137358380D01*
X179625619Y-137358380D02*
X179625619Y-136358380D01*
X179720857Y-136501238D01*
X179816095Y-136596476D01*
X179911333Y-136644095D01*
X178482761Y-136358380D02*
X178673238Y-136358380D01*
X178768476Y-136406000D01*
X178816095Y-136453619D01*
X178911333Y-136596476D01*
X178958952Y-136786952D01*
X178958952Y-137167904D01*
X178911333Y-137263142D01*
X178863714Y-137310761D01*
X178768476Y-137358380D01*
X178578000Y-137358380D01*
X178482761Y-137310761D01*
X178435142Y-137263142D01*
X178387523Y-137167904D01*
X178387523Y-136929809D01*
X178435142Y-136834571D01*
X178482761Y-136786952D01*
X178578000Y-136739333D01*
X178768476Y-136739333D01*
X178863714Y-136786952D01*
X178911333Y-136834571D01*
X178958952Y-136929809D01*
X138223523Y-136358380D02*
X137890190Y-137358380D01*
X137556857Y-136358380D01*
X137080666Y-136786952D02*
X137175904Y-136739333D01*
X137223523Y-136691714D01*
X137271142Y-136596476D01*
X137271142Y-136548857D01*
X137223523Y-136453619D01*
X137175904Y-136406000D01*
X137080666Y-136358380D01*
X136890190Y-136358380D01*
X136794952Y-136406000D01*
X136747333Y-136453619D01*
X136699714Y-136548857D01*
X136699714Y-136596476D01*
X136747333Y-136691714D01*
X136794952Y-136739333D01*
X136890190Y-136786952D01*
X137080666Y-136786952D01*
X137175904Y-136834571D01*
X137223523Y-136882190D01*
X137271142Y-136977428D01*
X137271142Y-137167904D01*
X137223523Y-137263142D01*
X137175904Y-137310761D01*
X137080666Y-137358380D01*
X136890190Y-137358380D01*
X136794952Y-137310761D01*
X136747333Y-137263142D01*
X136699714Y-137167904D01*
X136699714Y-136977428D01*
X136747333Y-136882190D01*
X136794952Y-136834571D01*
X136890190Y-136786952D01*
X165623714Y-136358380D02*
X165290380Y-137358380D01*
X164957047Y-136358380D01*
X164099904Y-137358380D02*
X164671333Y-137358380D01*
X164385619Y-137358380D02*
X164385619Y-136358380D01*
X164480857Y-136501238D01*
X164576095Y-136596476D01*
X164671333Y-136644095D01*
X163766571Y-136358380D02*
X163147523Y-136358380D01*
X163480857Y-136739333D01*
X163338000Y-136739333D01*
X163242761Y-136786952D01*
X163195142Y-136834571D01*
X163147523Y-136929809D01*
X163147523Y-137167904D01*
X163195142Y-137263142D01*
X163242761Y-137310761D01*
X163338000Y-137358380D01*
X163623714Y-137358380D01*
X163718952Y-137310761D01*
X163766571Y-137263142D01*
X122983523Y-136358380D02*
X122650190Y-137358380D01*
X122316857Y-136358380D01*
X121507333Y-136358380D02*
X121983523Y-136358380D01*
X122031142Y-136834571D01*
X121983523Y-136786952D01*
X121888285Y-136739333D01*
X121650190Y-136739333D01*
X121554952Y-136786952D01*
X121507333Y-136834571D01*
X121459714Y-136929809D01*
X121459714Y-137167904D01*
X121507333Y-137263142D01*
X121554952Y-137310761D01*
X121650190Y-137358380D01*
X121888285Y-137358380D01*
X121983523Y-137310761D01*
X122031142Y-137263142D01*
X155463714Y-136358380D02*
X155130380Y-137358380D01*
X154797047Y-136358380D01*
X153939904Y-137358380D02*
X154511333Y-137358380D01*
X154225619Y-137358380D02*
X154225619Y-136358380D01*
X154320857Y-136501238D01*
X154416095Y-136596476D01*
X154511333Y-136644095D01*
X152987523Y-137358380D02*
X153558952Y-137358380D01*
X153273238Y-137358380D02*
X153273238Y-136358380D01*
X153368476Y-136501238D01*
X153463714Y-136596476D01*
X153558952Y-136644095D01*
X102663523Y-136358380D02*
X102330190Y-137358380D01*
X101996857Y-136358380D01*
X101139714Y-137358380D02*
X101711142Y-137358380D01*
X101425428Y-137358380D02*
X101425428Y-136358380D01*
X101520666Y-136501238D01*
X101615904Y-136596476D01*
X101711142Y-136644095D01*
X118157523Y-136358380D02*
X117824190Y-137358380D01*
X117490857Y-136358380D01*
X116728952Y-136691714D02*
X116728952Y-137358380D01*
X116967047Y-136310761D02*
X117205142Y-137025047D01*
X116586095Y-137025047D01*
X112823523Y-136358380D02*
X112490190Y-137358380D01*
X112156857Y-136358380D01*
X111918761Y-136358380D02*
X111299714Y-136358380D01*
X111633047Y-136739333D01*
X111490190Y-136739333D01*
X111394952Y-136786952D01*
X111347333Y-136834571D01*
X111299714Y-136929809D01*
X111299714Y-137167904D01*
X111347333Y-137263142D01*
X111394952Y-137310761D01*
X111490190Y-137358380D01*
X111775904Y-137358380D01*
X111871142Y-137310761D01*
X111918761Y-137263142D01*
D11*
X165922000Y-50098000D02*
X165922000Y-48768000D01*
X164592000Y-50098000D02*
X165922000Y-50098000D01*
X163322000Y-50098000D02*
X163322000Y-47438000D01*
X163322000Y-47438000D02*
X145482000Y-47438000D01*
X163322000Y-50098000D02*
X145482000Y-50098000D01*
X145482000Y-50098000D02*
X145482000Y-47438000D01*
X116907000Y-119878800D02*
X116907000Y-121208800D01*
X118237000Y-119878800D02*
X116907000Y-119878800D01*
X119507000Y-119878800D02*
X119507000Y-122538800D01*
X119507000Y-122538800D02*
X160207000Y-122538800D01*
X119507000Y-119878800D02*
X160207000Y-119878800D01*
X160207000Y-119878800D02*
X160207000Y-122538800D01*
D10*
X167469619Y-49101333D02*
X166755333Y-49101333D01*
X166612476Y-49148952D01*
X166517238Y-49244190D01*
X166469619Y-49387047D01*
X166469619Y-49482285D01*
X166469619Y-48101333D02*
X166469619Y-48672761D01*
X166469619Y-48387047D02*
X167469619Y-48387047D01*
X167326761Y-48482285D01*
X167231523Y-48577523D01*
X167183904Y-48672761D01*
X115359380Y-120875466D02*
X116073666Y-120875466D01*
X116216523Y-120827847D01*
X116311761Y-120732609D01*
X116359380Y-120589752D01*
X116359380Y-120494514D01*
X115359380Y-121780228D02*
X115359380Y-121589752D01*
X115407000Y-121494514D01*
X115454619Y-121446895D01*
X115597476Y-121351657D01*
X115787952Y-121304038D01*
X116168904Y-121304038D01*
X116264142Y-121351657D01*
X116311761Y-121399276D01*
X116359380Y-121494514D01*
X116359380Y-121684990D01*
X116311761Y-121780228D01*
X116264142Y-121827847D01*
X116168904Y-121875466D01*
X115930809Y-121875466D01*
X115835571Y-121827847D01*
X115787952Y-121780228D01*
X115740333Y-121684990D01*
X115740333Y-121494514D01*
X115787952Y-121399276D01*
X115835571Y-121351657D01*
X115930809Y-121304038D01*
%LPC*%
D12*
X97942400Y-105522400D03*
D13*
G36*
X98754375Y-102122676D02*
G01*
X98780099Y-102126492D01*
X98805325Y-102132811D01*
X98829811Y-102141572D01*
X98853320Y-102152691D01*
X98875626Y-102166061D01*
X98896514Y-102181552D01*
X98915783Y-102199017D01*
X98933248Y-102218286D01*
X98948739Y-102239174D01*
X98962109Y-102261480D01*
X98973228Y-102284989D01*
X98981989Y-102309475D01*
X98988308Y-102334701D01*
X98992124Y-102360425D01*
X98993400Y-102386400D01*
X98993400Y-103658400D01*
X98992124Y-103684375D01*
X98988308Y-103710099D01*
X98981989Y-103735325D01*
X98973228Y-103759811D01*
X98962109Y-103783320D01*
X98948739Y-103805626D01*
X98933248Y-103826514D01*
X98915783Y-103845783D01*
X98896514Y-103863248D01*
X98875626Y-103878739D01*
X98853320Y-103892109D01*
X98829811Y-103903228D01*
X98805325Y-103911989D01*
X98780099Y-103918308D01*
X98754375Y-103922124D01*
X98728400Y-103923400D01*
X97156400Y-103923400D01*
X97130425Y-103922124D01*
X97104701Y-103918308D01*
X97079475Y-103911989D01*
X97054989Y-103903228D01*
X97031480Y-103892109D01*
X97009174Y-103878739D01*
X96988286Y-103863248D01*
X96969017Y-103845783D01*
X96951552Y-103826514D01*
X96936061Y-103805626D01*
X96922691Y-103783320D01*
X96911572Y-103759811D01*
X96902811Y-103735325D01*
X96896492Y-103710099D01*
X96892676Y-103684375D01*
X96891400Y-103658400D01*
X96891400Y-102386400D01*
X96892676Y-102360425D01*
X96896492Y-102334701D01*
X96902811Y-102309475D01*
X96911572Y-102284989D01*
X96922691Y-102261480D01*
X96936061Y-102239174D01*
X96951552Y-102218286D01*
X96969017Y-102199017D01*
X96988286Y-102181552D01*
X97009174Y-102166061D01*
X97031480Y-102152691D01*
X97054989Y-102141572D01*
X97079475Y-102132811D01*
X97104701Y-102126492D01*
X97130425Y-102122676D01*
X97156400Y-102121400D01*
X98728400Y-102121400D01*
X98754375Y-102122676D01*
X98754375Y-102122676D01*
G37*
D14*
X97942400Y-103022400D03*
D12*
X97942400Y-114158400D03*
D13*
G36*
X98754375Y-110758676D02*
G01*
X98780099Y-110762492D01*
X98805325Y-110768811D01*
X98829811Y-110777572D01*
X98853320Y-110788691D01*
X98875626Y-110802061D01*
X98896514Y-110817552D01*
X98915783Y-110835017D01*
X98933248Y-110854286D01*
X98948739Y-110875174D01*
X98962109Y-110897480D01*
X98973228Y-110920989D01*
X98981989Y-110945475D01*
X98988308Y-110970701D01*
X98992124Y-110996425D01*
X98993400Y-111022400D01*
X98993400Y-112294400D01*
X98992124Y-112320375D01*
X98988308Y-112346099D01*
X98981989Y-112371325D01*
X98973228Y-112395811D01*
X98962109Y-112419320D01*
X98948739Y-112441626D01*
X98933248Y-112462514D01*
X98915783Y-112481783D01*
X98896514Y-112499248D01*
X98875626Y-112514739D01*
X98853320Y-112528109D01*
X98829811Y-112539228D01*
X98805325Y-112547989D01*
X98780099Y-112554308D01*
X98754375Y-112558124D01*
X98728400Y-112559400D01*
X97156400Y-112559400D01*
X97130425Y-112558124D01*
X97104701Y-112554308D01*
X97079475Y-112547989D01*
X97054989Y-112539228D01*
X97031480Y-112528109D01*
X97009174Y-112514739D01*
X96988286Y-112499248D01*
X96969017Y-112481783D01*
X96951552Y-112462514D01*
X96936061Y-112441626D01*
X96922691Y-112419320D01*
X96911572Y-112395811D01*
X96902811Y-112371325D01*
X96896492Y-112346099D01*
X96892676Y-112320375D01*
X96891400Y-112294400D01*
X96891400Y-111022400D01*
X96892676Y-110996425D01*
X96896492Y-110970701D01*
X96902811Y-110945475D01*
X96911572Y-110920989D01*
X96922691Y-110897480D01*
X96936061Y-110875174D01*
X96951552Y-110854286D01*
X96969017Y-110835017D01*
X96988286Y-110817552D01*
X97009174Y-110802061D01*
X97031480Y-110788691D01*
X97054989Y-110777572D01*
X97079475Y-110768811D01*
X97104701Y-110762492D01*
X97130425Y-110758676D01*
X97156400Y-110757400D01*
X98728400Y-110757400D01*
X98754375Y-110758676D01*
X98754375Y-110758676D01*
G37*
D14*
X97942400Y-111658400D03*
D12*
X97942400Y-96886400D03*
D13*
G36*
X98754375Y-93486676D02*
G01*
X98780099Y-93490492D01*
X98805325Y-93496811D01*
X98829811Y-93505572D01*
X98853320Y-93516691D01*
X98875626Y-93530061D01*
X98896514Y-93545552D01*
X98915783Y-93563017D01*
X98933248Y-93582286D01*
X98948739Y-93603174D01*
X98962109Y-93625480D01*
X98973228Y-93648989D01*
X98981989Y-93673475D01*
X98988308Y-93698701D01*
X98992124Y-93724425D01*
X98993400Y-93750400D01*
X98993400Y-95022400D01*
X98992124Y-95048375D01*
X98988308Y-95074099D01*
X98981989Y-95099325D01*
X98973228Y-95123811D01*
X98962109Y-95147320D01*
X98948739Y-95169626D01*
X98933248Y-95190514D01*
X98915783Y-95209783D01*
X98896514Y-95227248D01*
X98875626Y-95242739D01*
X98853320Y-95256109D01*
X98829811Y-95267228D01*
X98805325Y-95275989D01*
X98780099Y-95282308D01*
X98754375Y-95286124D01*
X98728400Y-95287400D01*
X97156400Y-95287400D01*
X97130425Y-95286124D01*
X97104701Y-95282308D01*
X97079475Y-95275989D01*
X97054989Y-95267228D01*
X97031480Y-95256109D01*
X97009174Y-95242739D01*
X96988286Y-95227248D01*
X96969017Y-95209783D01*
X96951552Y-95190514D01*
X96936061Y-95169626D01*
X96922691Y-95147320D01*
X96911572Y-95123811D01*
X96902811Y-95099325D01*
X96896492Y-95074099D01*
X96892676Y-95048375D01*
X96891400Y-95022400D01*
X96891400Y-93750400D01*
X96892676Y-93724425D01*
X96896492Y-93698701D01*
X96902811Y-93673475D01*
X96911572Y-93648989D01*
X96922691Y-93625480D01*
X96936061Y-93603174D01*
X96951552Y-93582286D01*
X96969017Y-93563017D01*
X96988286Y-93545552D01*
X97009174Y-93530061D01*
X97031480Y-93516691D01*
X97054989Y-93505572D01*
X97079475Y-93496811D01*
X97104701Y-93490492D01*
X97130425Y-93486676D01*
X97156400Y-93485400D01*
X98728400Y-93485400D01*
X98754375Y-93486676D01*
X98754375Y-93486676D01*
G37*
D14*
X97942400Y-94386400D03*
D15*
X97917000Y-86668000D03*
X97917000Y-84168000D03*
X97917000Y-81668000D03*
X97917000Y-79168000D03*
X97917000Y-76668000D03*
D13*
G36*
X98703975Y-73268276D02*
G01*
X98729699Y-73272092D01*
X98754925Y-73278411D01*
X98779411Y-73287172D01*
X98802920Y-73298291D01*
X98825226Y-73311661D01*
X98846114Y-73327152D01*
X98865383Y-73344617D01*
X98882848Y-73363886D01*
X98898339Y-73384774D01*
X98911709Y-73407080D01*
X98922828Y-73430589D01*
X98931589Y-73455075D01*
X98937908Y-73480301D01*
X98941724Y-73506025D01*
X98943000Y-73532000D01*
X98943000Y-74804000D01*
X98941724Y-74829975D01*
X98937908Y-74855699D01*
X98931589Y-74880925D01*
X98922828Y-74905411D01*
X98911709Y-74928920D01*
X98898339Y-74951226D01*
X98882848Y-74972114D01*
X98865383Y-74991383D01*
X98846114Y-75008848D01*
X98825226Y-75024339D01*
X98802920Y-75037709D01*
X98779411Y-75048828D01*
X98754925Y-75057589D01*
X98729699Y-75063908D01*
X98703975Y-75067724D01*
X98678000Y-75069000D01*
X97156000Y-75069000D01*
X97130025Y-75067724D01*
X97104301Y-75063908D01*
X97079075Y-75057589D01*
X97054589Y-75048828D01*
X97031080Y-75037709D01*
X97008774Y-75024339D01*
X96987886Y-75008848D01*
X96968617Y-74991383D01*
X96951152Y-74972114D01*
X96935661Y-74951226D01*
X96922291Y-74928920D01*
X96911172Y-74905411D01*
X96902411Y-74880925D01*
X96896092Y-74855699D01*
X96892276Y-74829975D01*
X96891000Y-74804000D01*
X96891000Y-73532000D01*
X96892276Y-73506025D01*
X96896092Y-73480301D01*
X96902411Y-73455075D01*
X96911172Y-73430589D01*
X96922291Y-73407080D01*
X96935661Y-73384774D01*
X96951152Y-73363886D01*
X96968617Y-73344617D01*
X96987886Y-73327152D01*
X97008774Y-73311661D01*
X97031080Y-73298291D01*
X97054589Y-73287172D01*
X97079075Y-73278411D01*
X97104301Y-73272092D01*
X97130025Y-73268276D01*
X97156000Y-73267000D01*
X98678000Y-73267000D01*
X98703975Y-73268276D01*
X98703975Y-73268276D01*
G37*
D14*
X97917000Y-74168000D03*
D15*
X97917000Y-68253000D03*
X97917000Y-65753000D03*
X97917000Y-63253000D03*
X97917000Y-60753000D03*
X97917000Y-58253000D03*
D13*
G36*
X98703975Y-54853276D02*
G01*
X98729699Y-54857092D01*
X98754925Y-54863411D01*
X98779411Y-54872172D01*
X98802920Y-54883291D01*
X98825226Y-54896661D01*
X98846114Y-54912152D01*
X98865383Y-54929617D01*
X98882848Y-54948886D01*
X98898339Y-54969774D01*
X98911709Y-54992080D01*
X98922828Y-55015589D01*
X98931589Y-55040075D01*
X98937908Y-55065301D01*
X98941724Y-55091025D01*
X98943000Y-55117000D01*
X98943000Y-56389000D01*
X98941724Y-56414975D01*
X98937908Y-56440699D01*
X98931589Y-56465925D01*
X98922828Y-56490411D01*
X98911709Y-56513920D01*
X98898339Y-56536226D01*
X98882848Y-56557114D01*
X98865383Y-56576383D01*
X98846114Y-56593848D01*
X98825226Y-56609339D01*
X98802920Y-56622709D01*
X98779411Y-56633828D01*
X98754925Y-56642589D01*
X98729699Y-56648908D01*
X98703975Y-56652724D01*
X98678000Y-56654000D01*
X97156000Y-56654000D01*
X97130025Y-56652724D01*
X97104301Y-56648908D01*
X97079075Y-56642589D01*
X97054589Y-56633828D01*
X97031080Y-56622709D01*
X97008774Y-56609339D01*
X96987886Y-56593848D01*
X96968617Y-56576383D01*
X96951152Y-56557114D01*
X96935661Y-56536226D01*
X96922291Y-56513920D01*
X96911172Y-56490411D01*
X96902411Y-56465925D01*
X96896092Y-56440699D01*
X96892276Y-56414975D01*
X96891000Y-56389000D01*
X96891000Y-55117000D01*
X96892276Y-55091025D01*
X96896092Y-55065301D01*
X96902411Y-55040075D01*
X96911172Y-55015589D01*
X96922291Y-54992080D01*
X96935661Y-54969774D01*
X96951152Y-54948886D01*
X96968617Y-54929617D01*
X96987886Y-54912152D01*
X97008774Y-54896661D01*
X97031080Y-54883291D01*
X97054589Y-54872172D01*
X97079075Y-54863411D01*
X97104301Y-54857092D01*
X97130025Y-54853276D01*
X97156000Y-54852000D01*
X98678000Y-54852000D01*
X98703975Y-54853276D01*
X98703975Y-54853276D01*
G37*
D14*
X97917000Y-55753000D03*
D16*
X189992000Y-121666000D03*
X188468000Y-49530000D03*
X97282000Y-122174000D03*
X96735900Y-49202340D03*
D17*
X179006500Y-110143300D03*
D18*
X179006500Y-105143300D03*
D19*
X129159000Y-81102200D03*
X108077000Y-89395300D03*
X117373400Y-92862400D03*
X117373400Y-97942400D03*
X129209800Y-89052400D03*
X126619000Y-81100000D03*
X124127000Y-85166200D03*
X110617000Y-89395300D03*
X110617000Y-91935300D03*
X110617000Y-94475300D03*
X126667000Y-85166200D03*
X129207000Y-85166200D03*
X126669800Y-89052400D03*
X124129800Y-89052400D03*
X117373400Y-95402400D03*
X147497800Y-83134200D03*
X161671000Y-83693000D03*
X108077000Y-94475300D03*
X108077000Y-91935300D03*
D20*
X159359600Y-112064800D03*
D21*
X159359600Y-109524800D03*
D22*
X109613700Y-65887600D03*
D20*
X143007080Y-79969360D03*
X140467080Y-79969360D03*
X137927080Y-79969360D03*
D21*
X135387080Y-79969360D03*
D23*
X186690000Y-140462000D03*
D24*
X189230000Y-140462000D03*
D25*
X117125000Y-55843600D03*
X105085000Y-55843600D03*
D14*
X109855000Y-58553600D03*
X112355000Y-58553600D03*
X112355000Y-60553600D03*
D21*
X109855000Y-60553600D03*
D20*
X134620000Y-73888600D03*
X132080000Y-71348600D03*
X147320000Y-71348600D03*
X147320000Y-73888600D03*
X132080000Y-73888600D03*
X134620000Y-71348600D03*
X129540000Y-73888600D03*
D21*
X129540000Y-71348600D03*
D20*
X157480000Y-71348600D03*
X157480000Y-73888600D03*
X142240000Y-71348600D03*
X142240000Y-73888600D03*
X162560000Y-71348600D03*
X162560000Y-73888600D03*
X144780000Y-71348600D03*
X144780000Y-73888600D03*
X139700000Y-71348600D03*
X139700000Y-73888600D03*
X152400000Y-71348600D03*
X152400000Y-73888600D03*
X175260000Y-71348600D03*
X175260000Y-73888600D03*
X170180000Y-71348600D03*
X170180000Y-73888600D03*
X172720000Y-71348600D03*
X172720000Y-73888600D03*
X149860000Y-71348600D03*
X149860000Y-73888600D03*
X167640000Y-71348600D03*
X167640000Y-73888600D03*
X137160000Y-71348600D03*
X137160000Y-73888600D03*
X165100000Y-71348600D03*
X165100000Y-73888600D03*
X154940000Y-71348600D03*
X154940000Y-73888600D03*
X160020000Y-71348600D03*
X160020000Y-73888600D03*
X177800000Y-71348600D03*
X177800000Y-73888600D03*
D26*
X124670000Y-72618600D03*
X182670000Y-49618600D03*
X124670000Y-49618600D03*
X182670000Y-72618600D03*
D20*
X146812000Y-48768000D03*
X149352000Y-48768000D03*
X151892000Y-48768000D03*
X154432000Y-48768000D03*
X156972000Y-48768000D03*
X159512000Y-48768000D03*
X162052000Y-48768000D03*
D21*
X164592000Y-48768000D03*
D27*
X96951800Y-139242800D03*
X102031800Y-139242800D03*
X107111800Y-139242800D03*
X112191800Y-139242800D03*
X117271800Y-139242800D03*
X122351800Y-139242800D03*
X127431800Y-139242800D03*
X132511800Y-139242800D03*
D28*
X137591800Y-139242800D03*
D27*
X143941800Y-139242800D03*
X149021800Y-139242800D03*
X154101800Y-139242800D03*
X159181800Y-139242800D03*
X164261800Y-139242800D03*
X169341800Y-139242800D03*
X174421800Y-139242800D03*
D28*
X179501800Y-139242800D03*
D20*
X158877000Y-121208800D03*
X156337000Y-121208800D03*
X153797000Y-121208800D03*
X151257000Y-121208800D03*
X148717000Y-121208800D03*
X146177000Y-121208800D03*
X143637000Y-121208800D03*
X141097000Y-121208800D03*
X138557000Y-121208800D03*
X136017000Y-121208800D03*
X133477000Y-121208800D03*
X130937000Y-121208800D03*
X128397000Y-121208800D03*
X125857000Y-121208800D03*
X123317000Y-121208800D03*
X120777000Y-121208800D03*
D21*
X118237000Y-121208800D03*
M02*
