M48
; DRILL file {KiCad 5.1.4} date Mo 11 Nov 2019 16:15:24 CET
; FORMAT={-:-/ absolute / metric / decimal}
; #@! TF.CreationDate,2019-11-11T16:15:24+01:00
; #@! TF.GenerationSoftware,Kicad,Pcbnew,5.1.4
; #@! TF.FileFunction,Plated,1,2,PTH
FMAT,2
METRIC
T1C0.400
T2C0.900
T3C0.920
T4C0.950
T5C1.000
T6C1.100
T7C1.200
T8C2.330
T9C3.200
%
G90
G05
T1
X93.853Y-124.46
X95.442Y-70.155
X95.656Y-91.796
X96.952Y-136.22
X97.028Y-127.0
X97.028Y-128.524
X97.028Y-130.048
X97.028Y-131.572
X97.028Y-133.096
X97.028Y-134.62
X97.536Y-71.628
X100.33Y-78.029
X105.41Y-85.471
X105.524Y-82.393
X106.743Y-79.997
X106.883Y-77.572
X107.909Y-76.859
X108.077Y-83.515
X108.242Y-71.387
X108.509Y-80.213
X109.383Y-78.895
X110.004Y-79.745
X110.541Y-86.03
X110.678Y-82.897
X111.608Y-73.546
X111.887Y-77.51
X113.424Y-82.22
X113.424Y-83.426
X113.995Y-73.52
X114.3Y-108.204
X114.325Y-74.676
X114.402Y-76.022
X114.503Y-121.209
X116.137Y-82.811
X116.155Y-77.521
X116.416Y-81.281
X116.88Y-100.596
X117.805Y-82.271
X117.856Y-100.813
X118.808Y-83.897
X118.923Y-113.195
X119.126Y-77.724
X119.532Y-115.037
X120.015Y-77.153
X120.332Y-76.136
X120.599Y-91.745
X120.777Y-114.986
X121.841Y-82.858
X122.847Y-57.493
X123.139Y-108.483
X123.228Y-104.902
X123.317Y-115.113
X123.419Y-80.543
X123.622Y-58.268
X124.384Y-101.524
X124.612Y-107.564
X124.638Y-104.939
X125.832Y-114.973
X126.143Y-106.839
X126.93Y-61.576
X127.711Y-91.477
X127.737Y-62.382
X128.369Y-114.943
X130.338Y-91.477
X130.683Y-115.062
X130.728Y-105.359
X131.446Y-98.399
X131.453Y-100.382
X131.572Y-94.463
X131.699Y-96.368
X132.017Y-115.062
X133.032Y-114.935
X133.477Y-92.812
X133.83Y-67.592
X134.62Y-92.812
X134.998Y-67.592
X135.382Y-101.524
X135.687Y-92.812
X135.953Y-109.982
X136.271Y-102.235
X136.779Y-109.982
X137.35Y-113.157
X138.374Y-113.284
X138.557Y-109.317
X139.189Y-92.964
X140.335Y-92.964
X141.796Y-111.697
X142.088Y-115.265
X142.24Y-93.955
X142.24Y-95.86
X142.24Y-97.892
X142.24Y-99.924
X142.24Y-101.956
X143.154Y-115.468
X144.399Y-115.316
X145.186Y-104.851
X146.177Y-106.629
X146.177Y-114.986
X146.558Y-105.689
X148.717Y-115.113
X150.101Y-55.321
X150.101Y-59.251
X151.257Y-115.113
X153.797Y-115.113
X154.516Y-108.822
X156.007Y-115.062
X156.845Y-90.043
X156.872Y-91.44
X158.521Y-115.087
X159.704Y-98.334
X160.35Y-115.341
X161.163Y-90.297
X161.163Y-91.821
X161.163Y-93.334
X161.163Y-99.593
X161.214Y-97.18
X161.544Y-88.9
X164.084Y-87.884
X164.084Y-89.408
X166.624Y-91.597
X168.3Y-103.886
X168.656Y-97.028
X168.656Y-98.298
X168.99Y-99.568
X170.434Y-99.568
X170.99Y-96.726
X183.388Y-114.808
X183.388Y-115.824
X184.404Y-114.808
X184.404Y-115.824
X185.42Y-114.808
X185.42Y-115.57
X187.198Y-132.74
T2
X186.69Y-140.462
X189.23Y-140.462
T3
X109.855Y-58.554
X109.855Y-60.554
X112.355Y-58.554
X112.355Y-60.554
T4
X97.917Y-74.168
X97.917Y-76.668
X97.917Y-79.168
X97.917Y-81.668
X97.917Y-84.168
X97.917Y-86.668
X97.917Y-55.753
X97.917Y-58.253
X97.917Y-60.753
X97.917Y-63.253
X97.917Y-65.753
X97.917Y-68.253
T5
X126.67Y-89.052
X146.812Y-48.768
X149.352Y-48.768
X151.892Y-48.768
X154.432Y-48.768
X156.972Y-48.768
X159.512Y-48.768
X162.052Y-48.768
X164.592Y-48.768
X129.21Y-89.052
X126.619Y-81.1
X126.667Y-85.166
X129.159Y-81.102
X108.077Y-94.475
X124.127Y-85.166
X110.617Y-94.475
X159.36Y-109.525
X159.36Y-112.065
X97.942Y-111.658
X97.942Y-114.158
X117.373Y-95.402
X118.237Y-121.209
X120.777Y-121.209
X123.317Y-121.209
X125.857Y-121.209
X128.397Y-121.209
X130.937Y-121.209
X133.477Y-121.209
X136.017Y-121.209
X138.557Y-121.209
X141.097Y-121.209
X143.637Y-121.209
X146.177Y-121.209
X148.717Y-121.209
X151.257Y-121.209
X153.797Y-121.209
X156.337Y-121.209
X158.877Y-121.209
X110.617Y-89.395
X110.617Y-91.935
X124.13Y-89.052
X129.207Y-85.166
X97.942Y-103.022
X97.942Y-105.522
X108.077Y-89.395
X161.671Y-83.693
X147.498Y-83.134
X129.54Y-71.349
X129.54Y-73.889
X132.08Y-71.349
X132.08Y-73.889
X134.62Y-71.349
X134.62Y-73.889
X137.16Y-71.349
X137.16Y-73.889
X139.7Y-71.349
X139.7Y-73.889
X142.24Y-71.349
X142.24Y-73.889
X144.78Y-71.349
X144.78Y-73.889
X147.32Y-71.349
X147.32Y-73.889
X149.86Y-71.349
X149.86Y-73.889
X152.4Y-71.349
X152.4Y-73.889
X154.94Y-71.349
X154.94Y-73.889
X157.48Y-71.349
X157.48Y-73.889
X160.02Y-71.349
X160.02Y-73.889
X162.56Y-71.349
X162.56Y-73.889
X165.1Y-71.349
X165.1Y-73.889
X167.64Y-71.349
X167.64Y-73.889
X170.18Y-71.349
X170.18Y-73.889
X172.72Y-71.349
X172.72Y-73.889
X175.26Y-71.349
X175.26Y-73.889
X177.8Y-71.349
X177.8Y-73.889
X97.942Y-94.386
X97.942Y-96.886
X108.077Y-91.935
X117.373Y-97.942
X135.387Y-79.969
X137.927Y-79.969
X140.467Y-79.969
X143.007Y-79.969
X117.373Y-92.862
T6
X96.952Y-139.243
X102.032Y-139.243
X107.112Y-139.243
X112.192Y-139.243
X117.272Y-139.243
X122.352Y-139.243
X127.432Y-139.243
X132.512Y-139.243
X137.592Y-139.243
X143.942Y-139.243
X149.022Y-139.243
X154.102Y-139.243
X159.182Y-139.243
X164.262Y-139.243
X169.342Y-139.243
X174.422Y-139.243
X179.502Y-139.243
T7
X109.614Y-65.888
X179.006Y-105.143
X179.006Y-110.143
T8
X105.085Y-55.844
X117.125Y-55.844
T9
X96.736Y-49.202
X189.992Y-121.666
X97.282Y-122.174
X188.468Y-49.53
T0
M30
