%TF.GenerationSoftware,KiCad,Pcbnew,5.1.4*%
%TF.CreationDate,2019-11-11T16:17:41+01:00*%
%TF.ProjectId,main-board,6d61696e-2d62-46f6-9172-642e6b696361,rev?*%
%TF.SameCoordinates,Original*%
%TF.FileFunction,Copper,L2,Bot*%
%TF.FilePolarity,Positive*%
%FSLAX46Y46*%
G04 Gerber Fmt 4.6, Leading zero omitted, Abs format (unit mm)*
G04 Created by KiCad (PCBNEW 5.1.4) date 2019-11-11 16:17:41*
%MOMM*%
%LPD*%
G04 APERTURE LIST*
%ADD10O,2.000000X1.700000*%
%ADD11C,0.100000*%
%ADD12C,1.700000*%
%ADD13O,1.950000X1.700000*%
%ADD14C,5.600000*%
%ADD15C,2.400000*%
%ADD16R,2.400000X2.400000*%
%ADD17R,2.000000X2.000000*%
%ADD18O,1.700000X1.700000*%
%ADD19R,1.700000X1.700000*%
%ADD20R,2.500000X2.500000*%
%ADD21C,1.800000*%
%ADD22R,1.800000X1.800000*%
%ADD23C,3.500000*%
%ADD24C,2.100000*%
%ADD25R,2.100000X2.100000*%
%ADD26C,0.800000*%
%ADD27C,2.000000*%
%ADD28C,0.250000*%
%ADD29C,1.500000*%
%ADD30C,0.500000*%
%ADD31C,1.000000*%
%ADD32C,0.254000*%
G04 APERTURE END LIST*
D10*
X97942400Y-105522400D03*
D11*
G36*
X98716904Y-102173604D02*
G01*
X98741173Y-102177204D01*
X98764971Y-102183165D01*
X98788071Y-102191430D01*
X98810249Y-102201920D01*
X98831293Y-102214533D01*
X98850998Y-102229147D01*
X98869177Y-102245623D01*
X98885653Y-102263802D01*
X98900267Y-102283507D01*
X98912880Y-102304551D01*
X98923370Y-102326729D01*
X98931635Y-102349829D01*
X98937596Y-102373627D01*
X98941196Y-102397896D01*
X98942400Y-102422400D01*
X98942400Y-103622400D01*
X98941196Y-103646904D01*
X98937596Y-103671173D01*
X98931635Y-103694971D01*
X98923370Y-103718071D01*
X98912880Y-103740249D01*
X98900267Y-103761293D01*
X98885653Y-103780998D01*
X98869177Y-103799177D01*
X98850998Y-103815653D01*
X98831293Y-103830267D01*
X98810249Y-103842880D01*
X98788071Y-103853370D01*
X98764971Y-103861635D01*
X98741173Y-103867596D01*
X98716904Y-103871196D01*
X98692400Y-103872400D01*
X97192400Y-103872400D01*
X97167896Y-103871196D01*
X97143627Y-103867596D01*
X97119829Y-103861635D01*
X97096729Y-103853370D01*
X97074551Y-103842880D01*
X97053507Y-103830267D01*
X97033802Y-103815653D01*
X97015623Y-103799177D01*
X96999147Y-103780998D01*
X96984533Y-103761293D01*
X96971920Y-103740249D01*
X96961430Y-103718071D01*
X96953165Y-103694971D01*
X96947204Y-103671173D01*
X96943604Y-103646904D01*
X96942400Y-103622400D01*
X96942400Y-102422400D01*
X96943604Y-102397896D01*
X96947204Y-102373627D01*
X96953165Y-102349829D01*
X96961430Y-102326729D01*
X96971920Y-102304551D01*
X96984533Y-102283507D01*
X96999147Y-102263802D01*
X97015623Y-102245623D01*
X97033802Y-102229147D01*
X97053507Y-102214533D01*
X97074551Y-102201920D01*
X97096729Y-102191430D01*
X97119829Y-102183165D01*
X97143627Y-102177204D01*
X97167896Y-102173604D01*
X97192400Y-102172400D01*
X98692400Y-102172400D01*
X98716904Y-102173604D01*
X98716904Y-102173604D01*
G37*
D12*
X97942400Y-103022400D03*
D10*
X97942400Y-114158400D03*
D11*
G36*
X98716904Y-110809604D02*
G01*
X98741173Y-110813204D01*
X98764971Y-110819165D01*
X98788071Y-110827430D01*
X98810249Y-110837920D01*
X98831293Y-110850533D01*
X98850998Y-110865147D01*
X98869177Y-110881623D01*
X98885653Y-110899802D01*
X98900267Y-110919507D01*
X98912880Y-110940551D01*
X98923370Y-110962729D01*
X98931635Y-110985829D01*
X98937596Y-111009627D01*
X98941196Y-111033896D01*
X98942400Y-111058400D01*
X98942400Y-112258400D01*
X98941196Y-112282904D01*
X98937596Y-112307173D01*
X98931635Y-112330971D01*
X98923370Y-112354071D01*
X98912880Y-112376249D01*
X98900267Y-112397293D01*
X98885653Y-112416998D01*
X98869177Y-112435177D01*
X98850998Y-112451653D01*
X98831293Y-112466267D01*
X98810249Y-112478880D01*
X98788071Y-112489370D01*
X98764971Y-112497635D01*
X98741173Y-112503596D01*
X98716904Y-112507196D01*
X98692400Y-112508400D01*
X97192400Y-112508400D01*
X97167896Y-112507196D01*
X97143627Y-112503596D01*
X97119829Y-112497635D01*
X97096729Y-112489370D01*
X97074551Y-112478880D01*
X97053507Y-112466267D01*
X97033802Y-112451653D01*
X97015623Y-112435177D01*
X96999147Y-112416998D01*
X96984533Y-112397293D01*
X96971920Y-112376249D01*
X96961430Y-112354071D01*
X96953165Y-112330971D01*
X96947204Y-112307173D01*
X96943604Y-112282904D01*
X96942400Y-112258400D01*
X96942400Y-111058400D01*
X96943604Y-111033896D01*
X96947204Y-111009627D01*
X96953165Y-110985829D01*
X96961430Y-110962729D01*
X96971920Y-110940551D01*
X96984533Y-110919507D01*
X96999147Y-110899802D01*
X97015623Y-110881623D01*
X97033802Y-110865147D01*
X97053507Y-110850533D01*
X97074551Y-110837920D01*
X97096729Y-110827430D01*
X97119829Y-110819165D01*
X97143627Y-110813204D01*
X97167896Y-110809604D01*
X97192400Y-110808400D01*
X98692400Y-110808400D01*
X98716904Y-110809604D01*
X98716904Y-110809604D01*
G37*
D12*
X97942400Y-111658400D03*
D10*
X97942400Y-96886400D03*
D11*
G36*
X98716904Y-93537604D02*
G01*
X98741173Y-93541204D01*
X98764971Y-93547165D01*
X98788071Y-93555430D01*
X98810249Y-93565920D01*
X98831293Y-93578533D01*
X98850998Y-93593147D01*
X98869177Y-93609623D01*
X98885653Y-93627802D01*
X98900267Y-93647507D01*
X98912880Y-93668551D01*
X98923370Y-93690729D01*
X98931635Y-93713829D01*
X98937596Y-93737627D01*
X98941196Y-93761896D01*
X98942400Y-93786400D01*
X98942400Y-94986400D01*
X98941196Y-95010904D01*
X98937596Y-95035173D01*
X98931635Y-95058971D01*
X98923370Y-95082071D01*
X98912880Y-95104249D01*
X98900267Y-95125293D01*
X98885653Y-95144998D01*
X98869177Y-95163177D01*
X98850998Y-95179653D01*
X98831293Y-95194267D01*
X98810249Y-95206880D01*
X98788071Y-95217370D01*
X98764971Y-95225635D01*
X98741173Y-95231596D01*
X98716904Y-95235196D01*
X98692400Y-95236400D01*
X97192400Y-95236400D01*
X97167896Y-95235196D01*
X97143627Y-95231596D01*
X97119829Y-95225635D01*
X97096729Y-95217370D01*
X97074551Y-95206880D01*
X97053507Y-95194267D01*
X97033802Y-95179653D01*
X97015623Y-95163177D01*
X96999147Y-95144998D01*
X96984533Y-95125293D01*
X96971920Y-95104249D01*
X96961430Y-95082071D01*
X96953165Y-95058971D01*
X96947204Y-95035173D01*
X96943604Y-95010904D01*
X96942400Y-94986400D01*
X96942400Y-93786400D01*
X96943604Y-93761896D01*
X96947204Y-93737627D01*
X96953165Y-93713829D01*
X96961430Y-93690729D01*
X96971920Y-93668551D01*
X96984533Y-93647507D01*
X96999147Y-93627802D01*
X97015623Y-93609623D01*
X97033802Y-93593147D01*
X97053507Y-93578533D01*
X97074551Y-93565920D01*
X97096729Y-93555430D01*
X97119829Y-93547165D01*
X97143627Y-93541204D01*
X97167896Y-93537604D01*
X97192400Y-93536400D01*
X98692400Y-93536400D01*
X98716904Y-93537604D01*
X98716904Y-93537604D01*
G37*
D12*
X97942400Y-94386400D03*
D13*
X97917000Y-86668000D03*
X97917000Y-84168000D03*
X97917000Y-81668000D03*
X97917000Y-79168000D03*
X97917000Y-76668000D03*
D11*
G36*
X98666504Y-73319204D02*
G01*
X98690773Y-73322804D01*
X98714571Y-73328765D01*
X98737671Y-73337030D01*
X98759849Y-73347520D01*
X98780893Y-73360133D01*
X98800598Y-73374747D01*
X98818777Y-73391223D01*
X98835253Y-73409402D01*
X98849867Y-73429107D01*
X98862480Y-73450151D01*
X98872970Y-73472329D01*
X98881235Y-73495429D01*
X98887196Y-73519227D01*
X98890796Y-73543496D01*
X98892000Y-73568000D01*
X98892000Y-74768000D01*
X98890796Y-74792504D01*
X98887196Y-74816773D01*
X98881235Y-74840571D01*
X98872970Y-74863671D01*
X98862480Y-74885849D01*
X98849867Y-74906893D01*
X98835253Y-74926598D01*
X98818777Y-74944777D01*
X98800598Y-74961253D01*
X98780893Y-74975867D01*
X98759849Y-74988480D01*
X98737671Y-74998970D01*
X98714571Y-75007235D01*
X98690773Y-75013196D01*
X98666504Y-75016796D01*
X98642000Y-75018000D01*
X97192000Y-75018000D01*
X97167496Y-75016796D01*
X97143227Y-75013196D01*
X97119429Y-75007235D01*
X97096329Y-74998970D01*
X97074151Y-74988480D01*
X97053107Y-74975867D01*
X97033402Y-74961253D01*
X97015223Y-74944777D01*
X96998747Y-74926598D01*
X96984133Y-74906893D01*
X96971520Y-74885849D01*
X96961030Y-74863671D01*
X96952765Y-74840571D01*
X96946804Y-74816773D01*
X96943204Y-74792504D01*
X96942000Y-74768000D01*
X96942000Y-73568000D01*
X96943204Y-73543496D01*
X96946804Y-73519227D01*
X96952765Y-73495429D01*
X96961030Y-73472329D01*
X96971520Y-73450151D01*
X96984133Y-73429107D01*
X96998747Y-73409402D01*
X97015223Y-73391223D01*
X97033402Y-73374747D01*
X97053107Y-73360133D01*
X97074151Y-73347520D01*
X97096329Y-73337030D01*
X97119429Y-73328765D01*
X97143227Y-73322804D01*
X97167496Y-73319204D01*
X97192000Y-73318000D01*
X98642000Y-73318000D01*
X98666504Y-73319204D01*
X98666504Y-73319204D01*
G37*
D12*
X97917000Y-74168000D03*
D13*
X97917000Y-68253000D03*
X97917000Y-65753000D03*
X97917000Y-63253000D03*
X97917000Y-60753000D03*
X97917000Y-58253000D03*
D11*
G36*
X98666504Y-54904204D02*
G01*
X98690773Y-54907804D01*
X98714571Y-54913765D01*
X98737671Y-54922030D01*
X98759849Y-54932520D01*
X98780893Y-54945133D01*
X98800598Y-54959747D01*
X98818777Y-54976223D01*
X98835253Y-54994402D01*
X98849867Y-55014107D01*
X98862480Y-55035151D01*
X98872970Y-55057329D01*
X98881235Y-55080429D01*
X98887196Y-55104227D01*
X98890796Y-55128496D01*
X98892000Y-55153000D01*
X98892000Y-56353000D01*
X98890796Y-56377504D01*
X98887196Y-56401773D01*
X98881235Y-56425571D01*
X98872970Y-56448671D01*
X98862480Y-56470849D01*
X98849867Y-56491893D01*
X98835253Y-56511598D01*
X98818777Y-56529777D01*
X98800598Y-56546253D01*
X98780893Y-56560867D01*
X98759849Y-56573480D01*
X98737671Y-56583970D01*
X98714571Y-56592235D01*
X98690773Y-56598196D01*
X98666504Y-56601796D01*
X98642000Y-56603000D01*
X97192000Y-56603000D01*
X97167496Y-56601796D01*
X97143227Y-56598196D01*
X97119429Y-56592235D01*
X97096329Y-56583970D01*
X97074151Y-56573480D01*
X97053107Y-56560867D01*
X97033402Y-56546253D01*
X97015223Y-56529777D01*
X96998747Y-56511598D01*
X96984133Y-56491893D01*
X96971520Y-56470849D01*
X96961030Y-56448671D01*
X96952765Y-56425571D01*
X96946804Y-56401773D01*
X96943204Y-56377504D01*
X96942000Y-56353000D01*
X96942000Y-55153000D01*
X96943204Y-55128496D01*
X96946804Y-55104227D01*
X96952765Y-55080429D01*
X96961030Y-55057329D01*
X96971520Y-55035151D01*
X96984133Y-55014107D01*
X96998747Y-54994402D01*
X97015223Y-54976223D01*
X97033402Y-54959747D01*
X97053107Y-54945133D01*
X97074151Y-54932520D01*
X97096329Y-54922030D01*
X97119429Y-54913765D01*
X97143227Y-54907804D01*
X97167496Y-54904204D01*
X97192000Y-54903000D01*
X98642000Y-54903000D01*
X98666504Y-54904204D01*
X98666504Y-54904204D01*
G37*
D12*
X97917000Y-55753000D03*
D14*
X189992000Y-121666000D03*
X188468000Y-49530000D03*
X97282000Y-122174000D03*
X96735900Y-49202340D03*
D15*
X179006500Y-110143300D03*
D16*
X179006500Y-105143300D03*
D17*
X129159000Y-81102200D03*
X108077000Y-89395300D03*
X117373400Y-92862400D03*
X117373400Y-97942400D03*
X129209800Y-89052400D03*
X126619000Y-81100000D03*
X124127000Y-85166200D03*
X110617000Y-89395300D03*
X110617000Y-91935300D03*
X110617000Y-94475300D03*
X126667000Y-85166200D03*
X129207000Y-85166200D03*
X126669800Y-89052400D03*
X124129800Y-89052400D03*
X117373400Y-95402400D03*
X147497800Y-83134200D03*
X161671000Y-83693000D03*
X108077000Y-94475300D03*
X108077000Y-91935300D03*
D18*
X159359600Y-112064800D03*
D19*
X159359600Y-109524800D03*
D20*
X109613700Y-65887600D03*
D18*
X143007080Y-79969360D03*
X140467080Y-79969360D03*
X137927080Y-79969360D03*
D19*
X135387080Y-79969360D03*
D21*
X186690000Y-140462000D03*
D22*
X189230000Y-140462000D03*
D23*
X117125000Y-55843600D03*
X105085000Y-55843600D03*
D12*
X109855000Y-58553600D03*
X112355000Y-58553600D03*
X112355000Y-60553600D03*
D19*
X109855000Y-60553600D03*
D18*
X134620000Y-73888600D03*
X132080000Y-71348600D03*
X147320000Y-71348600D03*
X147320000Y-73888600D03*
X132080000Y-73888600D03*
X134620000Y-71348600D03*
X129540000Y-73888600D03*
D19*
X129540000Y-71348600D03*
D18*
X157480000Y-71348600D03*
X157480000Y-73888600D03*
X142240000Y-71348600D03*
X142240000Y-73888600D03*
X162560000Y-71348600D03*
X162560000Y-73888600D03*
X144780000Y-71348600D03*
X144780000Y-73888600D03*
X139700000Y-71348600D03*
X139700000Y-73888600D03*
X152400000Y-71348600D03*
X152400000Y-73888600D03*
X175260000Y-71348600D03*
X175260000Y-73888600D03*
X170180000Y-71348600D03*
X170180000Y-73888600D03*
X172720000Y-71348600D03*
X172720000Y-73888600D03*
X149860000Y-71348600D03*
X149860000Y-73888600D03*
X167640000Y-71348600D03*
X167640000Y-73888600D03*
X137160000Y-71348600D03*
X137160000Y-73888600D03*
X165100000Y-71348600D03*
X165100000Y-73888600D03*
X154940000Y-71348600D03*
X154940000Y-73888600D03*
X160020000Y-71348600D03*
X160020000Y-73888600D03*
X177800000Y-71348600D03*
X177800000Y-73888600D03*
X146812000Y-48768000D03*
X149352000Y-48768000D03*
X151892000Y-48768000D03*
X154432000Y-48768000D03*
X156972000Y-48768000D03*
X159512000Y-48768000D03*
X162052000Y-48768000D03*
D19*
X164592000Y-48768000D03*
D24*
X96951800Y-139242800D03*
X102031800Y-139242800D03*
X107111800Y-139242800D03*
X112191800Y-139242800D03*
X117271800Y-139242800D03*
X122351800Y-139242800D03*
X127431800Y-139242800D03*
X132511800Y-139242800D03*
D25*
X137591800Y-139242800D03*
D24*
X143941800Y-139242800D03*
X149021800Y-139242800D03*
X154101800Y-139242800D03*
X159181800Y-139242800D03*
X164261800Y-139242800D03*
X169341800Y-139242800D03*
X174421800Y-139242800D03*
D25*
X179501800Y-139242800D03*
D18*
X158877000Y-121208800D03*
X156337000Y-121208800D03*
X153797000Y-121208800D03*
X151257000Y-121208800D03*
X148717000Y-121208800D03*
X146177000Y-121208800D03*
X143637000Y-121208800D03*
X141097000Y-121208800D03*
X138557000Y-121208800D03*
X136017000Y-121208800D03*
X133477000Y-121208800D03*
X130937000Y-121208800D03*
X128397000Y-121208800D03*
X125857000Y-121208800D03*
X123317000Y-121208800D03*
X120777000Y-121208800D03*
D19*
X118237000Y-121208800D03*
D26*
X135953500Y-109982000D03*
X185420000Y-115570000D03*
X185420000Y-114808000D03*
X170434000Y-99568000D03*
X161213800Y-97180400D03*
X159704400Y-98334200D03*
X161163000Y-99593400D03*
X154516100Y-108821500D03*
X124383800Y-101523800D03*
X123418600Y-80543400D03*
X120599200Y-91744800D03*
X108077000Y-83515200D03*
X108242100Y-71386700D03*
X133829820Y-67592180D03*
X134998220Y-67592180D03*
X97028000Y-127000000D03*
X97028000Y-128524000D03*
X97028000Y-130048000D03*
X97028000Y-131572000D03*
X136779000Y-109982000D03*
X138557000Y-109317000D03*
X114300000Y-108204000D03*
X168656000Y-97028000D03*
X170989800Y-96726200D03*
X168656000Y-98298000D03*
X168990000Y-99568000D03*
X96951800Y-136220200D03*
X97028000Y-134620000D03*
X97028000Y-133096000D03*
X114503200Y-121208800D03*
X111887000Y-77510400D03*
X105410000Y-85471000D03*
X184404000Y-114808000D03*
X184404000Y-115824000D03*
X183388000Y-115824000D03*
X183388000Y-114808000D03*
X141795500Y-111696500D03*
X164084000Y-87884000D03*
X164084000Y-89408000D03*
X150101300Y-59250580D03*
X150101300Y-55321200D03*
X156872190Y-91440000D03*
X161163000Y-93334200D03*
X161163000Y-91821000D03*
X161163000Y-90297000D03*
X156845000Y-90043000D03*
X161544000Y-88900000D03*
X122847100Y-57492900D03*
X123621800Y-58267600D03*
X127736600Y-62382400D03*
X126930150Y-61575950D03*
X95441980Y-70154800D03*
X95656400Y-91795600D03*
X145186400Y-104851200D03*
X160350200Y-115341400D03*
X121840647Y-82857953D03*
X109382537Y-78894963D03*
X107908603Y-76858805D03*
X117805200Y-82270600D03*
X114325400Y-74676000D03*
X114401600Y-76022200D03*
X116136519Y-82811306D03*
X146558000Y-105689400D03*
X158521400Y-115087400D03*
X146177000Y-106629200D03*
X156006800Y-115062000D03*
X153797000Y-115112800D03*
X142240000Y-101955600D03*
X142240000Y-99923600D03*
X151257000Y-115112800D03*
X142240000Y-97891600D03*
X148717000Y-115112800D03*
X131452850Y-100381967D03*
X120777000Y-114985800D03*
X131445793Y-98399039D03*
X123317000Y-115112800D03*
X131699000Y-96367600D03*
X125831600Y-114973100D03*
X131572000Y-94462600D03*
X128369060Y-114942620D03*
X133477000Y-92811600D03*
X130683000Y-115062000D03*
X134620000Y-92811600D03*
X132016500Y-115062000D03*
X135686800Y-92811600D03*
X133032500Y-114935000D03*
X113423700Y-83426300D03*
X110678297Y-82896600D03*
X110540800Y-86029800D03*
X130727850Y-105359200D03*
X126143009Y-106839009D03*
X124637800Y-104939000D03*
X124612400Y-107564009D03*
X142240000Y-95859600D03*
X146177000Y-114985800D03*
X142240000Y-93954600D03*
X144399000Y-115316000D03*
X139189398Y-92964000D03*
X142087600Y-115265200D03*
X140335000Y-92964000D03*
X143154400Y-115468400D03*
X116154600Y-77520800D03*
X120332500Y-76136500D03*
X116415885Y-81280925D03*
X120015000Y-77152500D03*
X118808500Y-83896600D03*
X119126000Y-77724000D03*
X113995200Y-73520300D03*
X111607600Y-73545700D03*
X168300400Y-103886000D03*
X166624000Y-91597000D03*
X187198000Y-132740400D03*
X93853000Y-124460000D03*
X130337849Y-91477200D03*
X127711200Y-91477200D03*
X123228100Y-104902000D03*
X123139200Y-108483400D03*
X136271000Y-102235000D03*
X118922800Y-113195100D03*
X135382000Y-101523800D03*
X119532400Y-115036600D03*
X97536000Y-71628000D03*
X106743500Y-79997300D03*
X108508800Y-80213200D03*
X110004277Y-79744963D03*
X106883200Y-77571600D03*
X113423700Y-82219800D03*
X105524300Y-82393000D03*
X116879811Y-100595669D03*
X138373826Y-113284000D03*
X100330000Y-78028800D03*
X117856000Y-100812600D03*
X137350500Y-113157000D03*
D27*
X183845200Y-134924800D02*
X182880000Y-135890000D01*
D28*
X189230000Y-139312000D02*
X189407800Y-139134200D01*
X189230000Y-140462000D02*
X189230000Y-139312000D01*
X189407800Y-139134200D02*
X189407800Y-131851400D01*
X186893200Y-129336800D02*
X183845200Y-129336800D01*
X189407800Y-131851400D02*
X186893200Y-129336800D01*
D27*
X183845200Y-129336800D02*
X183845200Y-134924800D01*
D29*
X139674600Y-110185200D02*
X139750800Y-110261400D01*
D27*
X97028000Y-127000000D02*
X97028000Y-128524000D01*
X97028000Y-128524000D02*
X97028000Y-130048000D01*
X97028000Y-130048000D02*
X97028000Y-131572000D01*
X97028000Y-131572000D02*
X97028000Y-133096000D01*
X139750800Y-116230400D02*
X141884400Y-118364000D01*
X141884400Y-118364000D02*
X163830000Y-118364000D01*
D30*
X139471400Y-109982000D02*
X139750800Y-110261400D01*
X139750800Y-110261400D02*
X139501400Y-110261400D01*
D31*
X136461500Y-109982000D02*
X139547600Y-109982000D01*
X139547600Y-109982000D02*
X139750800Y-110185200D01*
D30*
X139750800Y-110185200D02*
X139674600Y-110185200D01*
D31*
X138634500Y-109982000D02*
X139547600Y-109982000D01*
X138557000Y-109904500D02*
X138634500Y-109982000D01*
X138557000Y-109317000D02*
X138557000Y-109904500D01*
X139547600Y-109982000D02*
X140208000Y-109982000D01*
X140028030Y-109992530D02*
X141732000Y-111696500D01*
D30*
X124383800Y-101523800D02*
X124383800Y-98729800D01*
X120599200Y-94945200D02*
X120599200Y-89357200D01*
X124383800Y-98729800D02*
X120599200Y-94945200D01*
X120599200Y-89357200D02*
X119634000Y-88392000D01*
D27*
X97028000Y-134620000D02*
X97028000Y-135890000D01*
X97028000Y-133096000D02*
X97028000Y-134620000D01*
D31*
X149352000Y-48768000D02*
X151892000Y-48768000D01*
X151892000Y-48768000D02*
X151892000Y-51727100D01*
X149352000Y-48768000D02*
X149352000Y-51866800D01*
D27*
X183845200Y-124790200D02*
X184404000Y-115824000D01*
X183845200Y-124790200D02*
X183845200Y-129336800D01*
X183845200Y-122275600D02*
X183845200Y-124790200D01*
X97028000Y-135890000D02*
X182880000Y-135890000D01*
X184404000Y-114808000D02*
X183845200Y-114223800D01*
X184404000Y-115824000D02*
X184404000Y-114808000D01*
D29*
X113367309Y-118447309D02*
X113284000Y-118364000D01*
X141884400Y-118364000D02*
X141801091Y-118447309D01*
X141801091Y-118447309D02*
X113367309Y-118447309D01*
X139750800Y-110261400D02*
X139750800Y-116230400D01*
D30*
X150101300Y-59250580D02*
X150101300Y-55321200D01*
D29*
X160879200Y-90043000D02*
X161163000Y-89759200D01*
X156819600Y-90043000D02*
X156845000Y-90043000D01*
X156872190Y-90095590D02*
X156819600Y-90043000D01*
X156872190Y-92047810D02*
X156872190Y-90095590D01*
X161163000Y-93334200D02*
X161163000Y-90297000D01*
X161163000Y-89759200D02*
X163732800Y-89759200D01*
X164084000Y-89408000D02*
X164084000Y-87884000D01*
X163732800Y-89759200D02*
X164084000Y-89408000D01*
X162052000Y-87884000D02*
X161666600Y-88269400D01*
X164084000Y-87884000D02*
X162052000Y-87884000D01*
X162297200Y-88900000D02*
X161666600Y-88269400D01*
X164084000Y-88900000D02*
X162297200Y-88900000D01*
X161163000Y-89759200D02*
X161163000Y-89281000D01*
X161163000Y-90297000D02*
X161163000Y-89759200D01*
X156845000Y-90043000D02*
X160879200Y-90043000D01*
D31*
X123215400Y-57861200D02*
X126930150Y-61575950D01*
X123215400Y-57861200D02*
X123621800Y-58267600D01*
X122847100Y-57492900D02*
X123215400Y-57861200D01*
D28*
X98815372Y-73269628D02*
X98815372Y-71332572D01*
X97917000Y-74168000D02*
X98815372Y-73269628D01*
X98815372Y-71332572D02*
X97637600Y-70154800D01*
X97637600Y-70154800D02*
X95441980Y-70154800D01*
X95656400Y-70369220D02*
X95441980Y-70154800D01*
X95656400Y-91795600D02*
X95656400Y-70369220D01*
X156815771Y-111806971D02*
X160350200Y-115341400D01*
X146792802Y-104851200D02*
X147352011Y-105410409D01*
X145186400Y-104851200D02*
X146792802Y-104851200D01*
X147570170Y-111806970D02*
X156815771Y-111806971D01*
X147352011Y-105410409D02*
X147352011Y-111588811D01*
X147352011Y-111588811D02*
X147570170Y-111806970D01*
X135038487Y-82857953D02*
X137927080Y-79969360D01*
X121840647Y-82857953D02*
X135038487Y-82857953D01*
X109382537Y-78894963D02*
X107908603Y-77421029D01*
X107908603Y-77421029D02*
X107908603Y-76858805D01*
X117620905Y-82086305D02*
X117805200Y-82270600D01*
X116047928Y-82086305D02*
X117620905Y-82086305D01*
X115239324Y-81277701D02*
X116047928Y-82086305D01*
X115239324Y-75589924D02*
X115239324Y-81277701D01*
X114325400Y-74676000D02*
X115239324Y-75589924D01*
X114401600Y-76022200D02*
X114401600Y-81076387D01*
X114401600Y-81076387D02*
X116136519Y-82811306D01*
X147383769Y-112256979D02*
X155690980Y-112256980D01*
X146902001Y-111775211D02*
X147383769Y-112256979D01*
X146558000Y-105689400D02*
X146902001Y-106033401D01*
X155690980Y-112256980D02*
X158521400Y-115087400D01*
X146902001Y-106033401D02*
X146902001Y-111775211D01*
X153651790Y-112706990D02*
X156006800Y-115062000D01*
X147197368Y-112706988D02*
X148405010Y-112706990D01*
X146177000Y-111686620D02*
X147197368Y-112706988D01*
X148405010Y-112706990D02*
X153651790Y-112706990D01*
X146177000Y-106629200D02*
X146177000Y-111686620D01*
X142240000Y-103352600D02*
X142240000Y-101955600D01*
X153797000Y-115112800D02*
X151841200Y-113157000D01*
X146278600Y-113157000D02*
X145437040Y-112315440D01*
X151841200Y-113157000D02*
X146278600Y-113157000D01*
X145437039Y-106549639D02*
X142240000Y-103352600D01*
X145437040Y-112315440D02*
X145437039Y-106549639D01*
X141514999Y-100648601D02*
X141840001Y-100323599D01*
X144987030Y-112501840D02*
X144987030Y-106736040D01*
X141840001Y-100323599D02*
X142240000Y-99923600D01*
X146170971Y-113685781D02*
X144987030Y-112501840D01*
X149829981Y-113685781D02*
X146170971Y-113685781D01*
X141514999Y-103264009D02*
X141514999Y-100648601D01*
X144987030Y-106736040D02*
X141514999Y-103264009D01*
X151257000Y-115112800D02*
X149829981Y-113685781D01*
X141840001Y-98291599D02*
X142240000Y-97891600D01*
X141064989Y-99066611D02*
X141840001Y-98291599D01*
X144537020Y-106922440D02*
X141064989Y-103450409D01*
X141064989Y-103450409D02*
X141064989Y-99066611D01*
X144537020Y-112688240D02*
X144537020Y-106922440D01*
X145984570Y-114135790D02*
X144537020Y-112688240D01*
X147739991Y-114135791D02*
X145984570Y-114135790D01*
X148717000Y-115112800D02*
X147739991Y-114135791D01*
X131452850Y-110482150D02*
X131452850Y-100381967D01*
X124036050Y-111726750D02*
X130208250Y-111726750D01*
X130208250Y-111726750D02*
X131452850Y-110482150D01*
X120777000Y-114985800D02*
X124036050Y-111726750D01*
X131902859Y-106071151D02*
X131902860Y-101004959D01*
X131845792Y-98799038D02*
X131445793Y-98399039D01*
X132177851Y-99131097D02*
X131845792Y-98799038D01*
X132177851Y-100729968D02*
X132177851Y-99131097D01*
X131902860Y-101004959D02*
X132177851Y-100729968D01*
X123317000Y-115112800D02*
X126253040Y-112176760D01*
X130394651Y-112176759D02*
X131902860Y-110668550D01*
X126253040Y-112176760D02*
X130394651Y-112176759D01*
X123716999Y-114712801D02*
X123317000Y-115112800D01*
X131902860Y-110668550D02*
X131902860Y-109931860D01*
X131902860Y-109931860D02*
X131902860Y-101004959D01*
X132352868Y-112170112D02*
X132352869Y-101191360D01*
X131543780Y-112979200D02*
X132352868Y-112170112D01*
X128066800Y-112979200D02*
X131543780Y-112979200D01*
X132627860Y-100916369D02*
X132627861Y-97296461D01*
X125831600Y-114973100D02*
X128066800Y-112979200D01*
X132352869Y-101191360D02*
X132627860Y-100916369D01*
X132627861Y-97296461D02*
X131699000Y-96367600D01*
X133077869Y-95968469D02*
X131572000Y-94462600D01*
X133077869Y-101102770D02*
X133077869Y-95968469D01*
X128369060Y-114942620D02*
X130055190Y-113429210D01*
X131730180Y-113429210D02*
X132802877Y-112356513D01*
X132802878Y-101377761D02*
X133077869Y-101102770D01*
X130055190Y-113429210D02*
X131730180Y-113429210D01*
X132802877Y-112356513D02*
X132802878Y-101377761D01*
X133527879Y-94106921D02*
X133477000Y-94056042D01*
X133477000Y-94056042D02*
X133477000Y-92811600D01*
X133527879Y-101289170D02*
X133527879Y-94106921D01*
X130683000Y-115062000D02*
X133252886Y-112669914D01*
X133252886Y-101564163D02*
X133527879Y-101289170D01*
X133252886Y-112542914D02*
X131916580Y-113879220D01*
X133252886Y-112428614D02*
X133252886Y-101564163D01*
X133252886Y-112428614D02*
X133252886Y-112542914D01*
X133252886Y-112669914D02*
X133252886Y-112428614D01*
X133702896Y-102644104D02*
X133702896Y-106936704D01*
X134220001Y-93211599D02*
X134620000Y-92811600D01*
X134206989Y-93224611D02*
X134220001Y-93211599D01*
X134206989Y-101246470D02*
X134206989Y-93224611D01*
X133702896Y-101750563D02*
X134206989Y-101246470D01*
X133702896Y-102644104D02*
X133702896Y-101750563D01*
X133702896Y-112856314D02*
X133702896Y-111922396D01*
X132016500Y-114542710D02*
X133702896Y-112856314D01*
X132016500Y-115062000D02*
X132016500Y-114542710D01*
X133702896Y-111922396D02*
X133702896Y-102644104D01*
X134239000Y-106883200D02*
X134239000Y-107037010D01*
X135686800Y-93377285D02*
X135686800Y-92811600D01*
X135686800Y-95048210D02*
X135686800Y-93377285D01*
X134656999Y-96078011D02*
X135686800Y-95048210D01*
X134656999Y-101539011D02*
X134656999Y-96078011D01*
X134239000Y-101957010D02*
X134656999Y-101539011D01*
X134239000Y-106883200D02*
X134239000Y-101957010D01*
X134152906Y-106969294D02*
X134239000Y-106883200D01*
X134152906Y-113814594D02*
X134152906Y-106969294D01*
X133032500Y-114935000D02*
X134152906Y-113814594D01*
X113423700Y-83426300D02*
X111696500Y-83426300D01*
X111696500Y-83426300D02*
X111295898Y-83426300D01*
X111429800Y-83426300D02*
X111696500Y-83426300D01*
X106751999Y-88104101D02*
X111429800Y-83426300D01*
X106751999Y-91860299D02*
X106751999Y-88104101D01*
X106827000Y-91935300D02*
X106751999Y-91860299D01*
X108077000Y-91935300D02*
X106827000Y-91935300D01*
X110678297Y-83541393D02*
X110678297Y-82896600D01*
X106301990Y-87917700D02*
X110678297Y-83541393D01*
X108077000Y-94475300D02*
X107395588Y-94475300D01*
X106301990Y-93381702D02*
X106301990Y-87917700D01*
X107395588Y-94475300D02*
X106301990Y-93381702D01*
X110540800Y-86029800D02*
X112069001Y-87558001D01*
X111867000Y-94475300D02*
X110617000Y-94475300D01*
X112069001Y-94273299D02*
X111867000Y-94475300D01*
X112069001Y-87558001D02*
X112069001Y-94273299D01*
X129248041Y-106839009D02*
X130727850Y-105359200D01*
X126143009Y-106839009D02*
X129248041Y-106839009D01*
X124637800Y-104939000D02*
X124637800Y-107538609D01*
X124637800Y-107538609D02*
X124612400Y-107564009D01*
X140614981Y-97484619D02*
X141840001Y-96259599D01*
X146177000Y-114985800D02*
X146177000Y-114964630D01*
X146177000Y-114964630D02*
X144087010Y-112874640D01*
X144087010Y-112874640D02*
X144087010Y-107108840D01*
X144087010Y-107108840D02*
X140614981Y-103636811D01*
X141840001Y-96259599D02*
X142240000Y-95859600D01*
X140614981Y-103636811D02*
X140614981Y-97484619D01*
X143637000Y-114554000D02*
X144399000Y-115316000D01*
X143637000Y-107418010D02*
X143637000Y-114554000D01*
X142240000Y-93954600D02*
X140164971Y-96029629D01*
X140164971Y-96029629D02*
X140164971Y-103823211D01*
X140791495Y-104449735D02*
X140791495Y-104572505D01*
X140164971Y-103823211D02*
X140791495Y-104449735D01*
X140791495Y-104572505D02*
X143637000Y-107418010D01*
X142736980Y-107790810D02*
X139189398Y-104243228D01*
X142736980Y-114615820D02*
X142736980Y-107790810D01*
X139189398Y-104243228D02*
X139189398Y-92964000D01*
X142087600Y-115265200D02*
X142736980Y-114615820D01*
X143154400Y-114902715D02*
X143154400Y-115468400D01*
X143186990Y-114870125D02*
X143154400Y-114902715D01*
X139714963Y-104132383D02*
X140917791Y-105335209D01*
X140917791Y-105335209D02*
X143186990Y-107604410D01*
X140335000Y-92964000D02*
X139714963Y-93584037D01*
X139714963Y-93584037D02*
X139714963Y-104132383D01*
X143186990Y-107604410D02*
X143186990Y-114870125D01*
X120332500Y-76136500D02*
X117306217Y-76369183D01*
X117306217Y-76369183D02*
X116154600Y-77520800D01*
X116415885Y-78427515D02*
X116415885Y-81280925D01*
X118190878Y-76752501D02*
X118082572Y-76760828D01*
X119615001Y-76752501D02*
X118190878Y-76752501D01*
X118082572Y-76760828D02*
X116415885Y-78427515D01*
X120015000Y-77152500D02*
X119615001Y-76752501D01*
X118808500Y-78607185D02*
X118808500Y-79756000D01*
X119126000Y-78289685D02*
X118808500Y-78607185D01*
X119126000Y-77724000D02*
X119126000Y-78289685D01*
X118808500Y-79756000D02*
X118808500Y-83896600D01*
X111820500Y-73520300D02*
X113995200Y-73520300D01*
X111607600Y-73545700D02*
X111820500Y-73520300D01*
X168300400Y-103886000D02*
X168300400Y-102514400D01*
X168300400Y-102514400D02*
X166624000Y-100838000D01*
X166624000Y-100838000D02*
X166624000Y-91597000D01*
X96672400Y-142417800D02*
X94411800Y-140157200D01*
X181241700Y-142417800D02*
X96672400Y-142417800D01*
X187198000Y-132740400D02*
X187198000Y-136461500D01*
X187198000Y-136461500D02*
X181241700Y-142417800D01*
X94411800Y-125018800D02*
X93853000Y-124460000D01*
X94411800Y-140157200D02*
X94411800Y-125018800D01*
X130337849Y-91477200D02*
X127711200Y-91477200D01*
X123228100Y-104902000D02*
X123228100Y-108394500D01*
X123228100Y-108394500D02*
X123139200Y-108483400D01*
X118807399Y-115384601D02*
X118807399Y-113310501D01*
X135139019Y-103366981D02*
X135139019Y-114671391D01*
X136271000Y-102235000D02*
X135139019Y-103366981D01*
X118807399Y-113310501D02*
X118922800Y-113195100D01*
X119773008Y-116350210D02*
X118807399Y-115384601D01*
X135139019Y-114671391D02*
X133460200Y-116350210D01*
X133460200Y-116350210D02*
X119773008Y-116350210D01*
X135483600Y-101625400D02*
X134689010Y-102419990D01*
X134689010Y-102419990D02*
X134689010Y-114484990D01*
X134689010Y-114484990D02*
X133273800Y-115900200D01*
X133273800Y-115900200D02*
X120396000Y-115900200D01*
X120396000Y-115900200D02*
X119532400Y-115036600D01*
X97792000Y-81668000D02*
X96139000Y-80015000D01*
X97917000Y-81668000D02*
X97792000Y-81668000D01*
X96139000Y-80015000D02*
X96139000Y-73025000D01*
X96139000Y-73025000D02*
X97536000Y-71628000D01*
X108292900Y-79997300D02*
X108508800Y-80213200D01*
X106743500Y-79997300D02*
X108292900Y-79997300D01*
X98115100Y-65951100D02*
X97917000Y-65753000D01*
X109081963Y-79744963D02*
X110004277Y-79744963D01*
X106908600Y-77571600D02*
X109081963Y-79744963D01*
X106883200Y-77571600D02*
X106908600Y-77571600D01*
X112142101Y-80938201D02*
X113423700Y-82219800D01*
X105524300Y-82393000D02*
X106979099Y-80938201D01*
X106979099Y-80938201D02*
X112142101Y-80938201D01*
X117231773Y-104684173D02*
X117231773Y-104916627D01*
X116879811Y-101161354D02*
X117231773Y-101513316D01*
X117231773Y-101513316D02*
X117231773Y-104916627D01*
X116879811Y-100595669D02*
X116879811Y-101161354D01*
X137864010Y-113793816D02*
X138373826Y-113284000D01*
X117231773Y-104916627D02*
X117231773Y-115603971D01*
X117231773Y-115603971D02*
X119000101Y-117372299D01*
X137864010Y-116391400D02*
X137864010Y-113793816D01*
X119000101Y-117372299D02*
X136919801Y-117372299D01*
X136919801Y-117372299D02*
X137623550Y-116668550D01*
X137623550Y-116668550D02*
X137623550Y-116631860D01*
X137623550Y-116631860D02*
X137864010Y-116391400D01*
X100330000Y-78028800D02*
X98223700Y-76974700D01*
X98223700Y-76974700D02*
X97917000Y-76668000D01*
X98042000Y-76668000D02*
X97917000Y-76668000D01*
X99265382Y-75444618D02*
X98042000Y-76668000D01*
X99265382Y-59476382D02*
X99265382Y-75444618D01*
X98042000Y-58253000D02*
X99265382Y-59476382D01*
X97917000Y-58253000D02*
X98042000Y-58253000D01*
X117856000Y-105079800D02*
X117856000Y-105384600D01*
X117856000Y-100812600D02*
X117856000Y-105079800D01*
X137350500Y-113157000D02*
X137414000Y-116205000D01*
X119360689Y-116922289D02*
X117856000Y-115417600D01*
X137414000Y-116205000D02*
X136696711Y-116922289D01*
X117856000Y-115417600D02*
X117856000Y-100812600D01*
X136696711Y-116922289D02*
X119360689Y-116922289D01*
D32*
G36*
X145008654Y-50473506D02*
G01*
X145011816Y-50498201D01*
X145019736Y-50521804D01*
X145032108Y-50543409D01*
X145048457Y-50562185D01*
X145068154Y-50577411D01*
X145090444Y-50588501D01*
X145114469Y-50595030D01*
X145136654Y-50596796D01*
X148196295Y-50571405D01*
X166470541Y-50723796D01*
X166495337Y-50721562D01*
X166519221Y-50714534D01*
X166541274Y-50702981D01*
X166560651Y-50687348D01*
X166576605Y-50668236D01*
X166588523Y-50646378D01*
X166595949Y-50622614D01*
X166598546Y-50600506D01*
X166696529Y-47244604D01*
X182418527Y-47321522D01*
X181998531Y-47405065D01*
X181579594Y-47578594D01*
X181202561Y-47830520D01*
X180881920Y-48151161D01*
X180629994Y-48528194D01*
X180456465Y-48947131D01*
X180368000Y-49391873D01*
X180368000Y-49845327D01*
X180456465Y-50290069D01*
X180629994Y-50709006D01*
X180881920Y-51086039D01*
X181202561Y-51406680D01*
X181579594Y-51658606D01*
X181998531Y-51832135D01*
X182443273Y-51920600D01*
X182896727Y-51920600D01*
X183341469Y-51832135D01*
X183760406Y-51658606D01*
X184137439Y-51406680D01*
X184458080Y-51086039D01*
X184710006Y-50709006D01*
X184840052Y-50395046D01*
X184884227Y-50617126D01*
X185165176Y-51295396D01*
X185573050Y-51905824D01*
X186092176Y-52424950D01*
X186702604Y-52832824D01*
X187380874Y-53113773D01*
X188100923Y-53257000D01*
X188835077Y-53257000D01*
X189555126Y-53113773D01*
X190233396Y-52832824D01*
X190843824Y-52424950D01*
X191362950Y-51905824D01*
X191770824Y-51295396D01*
X192051773Y-50617126D01*
X192116752Y-50290455D01*
X192116753Y-102235000D01*
X176530000Y-102235000D01*
X176505224Y-102237440D01*
X176481399Y-102244667D01*
X176459443Y-102256403D01*
X176440197Y-102272197D01*
X176424403Y-102291443D01*
X176412667Y-102313399D01*
X176405440Y-102337224D01*
X176403000Y-102362000D01*
X176403000Y-107657900D01*
X176405440Y-107682676D01*
X176412667Y-107706501D01*
X176424403Y-107728457D01*
X176440197Y-107747703D01*
X176459443Y-107763497D01*
X176481399Y-107775233D01*
X176505224Y-107782460D01*
X176529577Y-107784899D01*
X187833000Y-107822577D01*
X187833000Y-118626173D01*
X187616176Y-118771050D01*
X187097050Y-119290176D01*
X186689176Y-119900604D01*
X186408227Y-120578874D01*
X186265000Y-121298923D01*
X186265000Y-122033077D01*
X186408227Y-122753126D01*
X186689176Y-123431396D01*
X187097050Y-124041824D01*
X187616176Y-124560950D01*
X187833000Y-124705827D01*
X187833000Y-130683000D01*
X185674000Y-130683000D01*
X185649224Y-130685440D01*
X185625399Y-130692667D01*
X185603443Y-130704403D01*
X185584197Y-130720197D01*
X185568403Y-130739443D01*
X185556667Y-130761399D01*
X185549440Y-130785224D01*
X185547000Y-130810000D01*
X185547000Y-136624748D01*
X185140236Y-137031512D01*
X95463800Y-136781717D01*
X95463800Y-125441542D01*
X95516604Y-125476824D01*
X96194874Y-125757773D01*
X96914923Y-125901000D01*
X97649077Y-125901000D01*
X98369126Y-125757773D01*
X99047396Y-125476824D01*
X99657824Y-125068950D01*
X100176950Y-124549824D01*
X100584824Y-123939396D01*
X100865773Y-123261126D01*
X101009000Y-122541077D01*
X101009000Y-121806923D01*
X100865773Y-121086874D01*
X100584824Y-120408604D01*
X100176950Y-119798176D01*
X99657824Y-119279050D01*
X99047396Y-118871176D01*
X98369126Y-118590227D01*
X97649077Y-118447000D01*
X96914923Y-118447000D01*
X96194874Y-118590227D01*
X95516604Y-118871176D01*
X94906176Y-119279050D01*
X94664250Y-119520976D01*
X94678430Y-114515290D01*
X96350924Y-114515290D01*
X96352846Y-114527661D01*
X96452546Y-114801409D01*
X96603736Y-115050446D01*
X96800605Y-115265202D01*
X97035588Y-115437425D01*
X97299655Y-115560496D01*
X97582658Y-115629685D01*
X97815400Y-115485632D01*
X97815400Y-114285400D01*
X98069400Y-114285400D01*
X98069400Y-115485632D01*
X98302142Y-115629685D01*
X98585145Y-115560496D01*
X98849212Y-115437425D01*
X99084195Y-115265202D01*
X99281064Y-115050446D01*
X99432254Y-114801409D01*
X99531954Y-114527661D01*
X99533876Y-114515290D01*
X99412555Y-114285400D01*
X98069400Y-114285400D01*
X97815400Y-114285400D01*
X96472245Y-114285400D01*
X96350924Y-114515290D01*
X94678430Y-114515290D01*
X94688223Y-111058400D01*
X96010915Y-111058400D01*
X96010915Y-112258400D01*
X96033617Y-112488896D01*
X96100850Y-112710535D01*
X96210031Y-112914798D01*
X96356964Y-113093836D01*
X96536002Y-113240769D01*
X96598868Y-113274372D01*
X96452546Y-113515391D01*
X96352846Y-113789139D01*
X96350924Y-113801510D01*
X96472245Y-114031400D01*
X97815400Y-114031400D01*
X97815400Y-114011400D01*
X98069400Y-114011400D01*
X98069400Y-114031400D01*
X99412555Y-114031400D01*
X99533876Y-113801510D01*
X99531954Y-113789139D01*
X99432254Y-113515391D01*
X99285932Y-113274372D01*
X99348798Y-113240769D01*
X99527836Y-113093836D01*
X99674769Y-112914798D01*
X99783950Y-112710535D01*
X99851183Y-112488896D01*
X99873885Y-112258400D01*
X99873885Y-111058400D01*
X99851183Y-110827904D01*
X99783950Y-110606265D01*
X99674769Y-110402002D01*
X99527836Y-110222964D01*
X99348798Y-110076031D01*
X99144535Y-109966850D01*
X98922896Y-109899617D01*
X98692400Y-109876915D01*
X97192400Y-109876915D01*
X96961904Y-109899617D01*
X96740265Y-109966850D01*
X96536002Y-110076031D01*
X96356964Y-110222964D01*
X96210031Y-110402002D01*
X96100850Y-110606265D01*
X96033617Y-110827904D01*
X96010915Y-111058400D01*
X94688223Y-111058400D01*
X94702894Y-105879290D01*
X96350924Y-105879290D01*
X96352846Y-105891661D01*
X96452546Y-106165409D01*
X96603736Y-106414446D01*
X96800605Y-106629202D01*
X97035588Y-106801425D01*
X97299655Y-106924496D01*
X97582658Y-106993685D01*
X97815400Y-106849632D01*
X97815400Y-105649400D01*
X98069400Y-105649400D01*
X98069400Y-106849632D01*
X98302142Y-106993685D01*
X98585145Y-106924496D01*
X98849212Y-106801425D01*
X99084195Y-106629202D01*
X99281064Y-106414446D01*
X99432254Y-106165409D01*
X99531954Y-105891661D01*
X99533876Y-105879290D01*
X99412555Y-105649400D01*
X98069400Y-105649400D01*
X97815400Y-105649400D01*
X96472245Y-105649400D01*
X96350924Y-105879290D01*
X94702894Y-105879290D01*
X94712687Y-102422400D01*
X96010915Y-102422400D01*
X96010915Y-103622400D01*
X96033617Y-103852896D01*
X96100850Y-104074535D01*
X96210031Y-104278798D01*
X96356964Y-104457836D01*
X96536002Y-104604769D01*
X96598868Y-104638372D01*
X96452546Y-104879391D01*
X96352846Y-105153139D01*
X96350924Y-105165510D01*
X96472245Y-105395400D01*
X97815400Y-105395400D01*
X97815400Y-105375400D01*
X98069400Y-105375400D01*
X98069400Y-105395400D01*
X99412555Y-105395400D01*
X99533876Y-105165510D01*
X99531954Y-105153139D01*
X99432254Y-104879391D01*
X99285932Y-104638372D01*
X99348798Y-104604769D01*
X99527836Y-104457836D01*
X99674769Y-104278798D01*
X99783950Y-104074535D01*
X99851183Y-103852896D01*
X99873885Y-103622400D01*
X99873885Y-102422400D01*
X99851183Y-102191904D01*
X99783950Y-101970265D01*
X99674769Y-101766002D01*
X99527836Y-101586964D01*
X99348798Y-101440031D01*
X99144535Y-101330850D01*
X98922896Y-101263617D01*
X98692400Y-101240915D01*
X97192400Y-101240915D01*
X96961904Y-101263617D01*
X96740265Y-101330850D01*
X96536002Y-101440031D01*
X96356964Y-101586964D01*
X96210031Y-101766002D01*
X96100850Y-101970265D01*
X96033617Y-102191904D01*
X96010915Y-102422400D01*
X94712687Y-102422400D01*
X94727358Y-97243290D01*
X96350924Y-97243290D01*
X96352846Y-97255661D01*
X96452546Y-97529409D01*
X96603736Y-97778446D01*
X96800605Y-97993202D01*
X97035588Y-98165425D01*
X97299655Y-98288496D01*
X97582658Y-98357685D01*
X97815400Y-98213632D01*
X97815400Y-97013400D01*
X98069400Y-97013400D01*
X98069400Y-98213632D01*
X98302142Y-98357685D01*
X98585145Y-98288496D01*
X98849212Y-98165425D01*
X99084195Y-97993202D01*
X99281064Y-97778446D01*
X99432254Y-97529409D01*
X99531954Y-97255661D01*
X99533876Y-97243290D01*
X99412555Y-97013400D01*
X98069400Y-97013400D01*
X97815400Y-97013400D01*
X96472245Y-97013400D01*
X96350924Y-97243290D01*
X94727358Y-97243290D01*
X94737151Y-93786400D01*
X96010915Y-93786400D01*
X96010915Y-94986400D01*
X96033617Y-95216896D01*
X96100850Y-95438535D01*
X96210031Y-95642798D01*
X96356964Y-95821836D01*
X96536002Y-95968769D01*
X96598868Y-96002372D01*
X96452546Y-96243391D01*
X96352846Y-96517139D01*
X96350924Y-96529510D01*
X96472245Y-96759400D01*
X97815400Y-96759400D01*
X97815400Y-96739400D01*
X98069400Y-96739400D01*
X98069400Y-96759400D01*
X99412555Y-96759400D01*
X99533876Y-96529510D01*
X99531954Y-96517139D01*
X99432254Y-96243391D01*
X99285932Y-96002372D01*
X99348798Y-95968769D01*
X99527836Y-95821836D01*
X99674769Y-95642798D01*
X99783950Y-95438535D01*
X99851183Y-95216896D01*
X99873885Y-94986400D01*
X99873885Y-93786400D01*
X99851183Y-93555904D01*
X99783950Y-93334265D01*
X99674769Y-93130002D01*
X99527836Y-92950964D01*
X99348798Y-92804031D01*
X99144535Y-92694850D01*
X98922896Y-92627617D01*
X98692400Y-92604915D01*
X97192400Y-92604915D01*
X96961904Y-92627617D01*
X96740265Y-92694850D01*
X96536002Y-92804031D01*
X96356964Y-92950964D01*
X96210031Y-93130002D01*
X96100850Y-93334265D01*
X96033617Y-93555904D01*
X96010915Y-93786400D01*
X94737151Y-93786400D01*
X94740071Y-92755932D01*
X94810487Y-92826348D01*
X95027830Y-92971572D01*
X95269328Y-93071604D01*
X95525702Y-93122600D01*
X95787098Y-93122600D01*
X96043472Y-93071604D01*
X96284970Y-92971572D01*
X96502313Y-92826348D01*
X96687148Y-92641513D01*
X96832372Y-92424170D01*
X96932404Y-92182672D01*
X96983400Y-91926298D01*
X96983400Y-91664902D01*
X96932404Y-91408528D01*
X96832372Y-91167030D01*
X96708400Y-90981493D01*
X96708400Y-87673355D01*
X96782571Y-87757049D01*
X97014430Y-87933053D01*
X97276170Y-88060442D01*
X97557733Y-88134320D01*
X97790000Y-87994165D01*
X97790000Y-86795000D01*
X98044000Y-86795000D01*
X98044000Y-87994165D01*
X98276267Y-88134320D01*
X98557830Y-88060442D01*
X98819570Y-87933053D01*
X99051429Y-87757049D01*
X99244496Y-87539193D01*
X99391352Y-87287858D01*
X99483476Y-87024890D01*
X99362155Y-86795000D01*
X98044000Y-86795000D01*
X97790000Y-86795000D01*
X97770000Y-86795000D01*
X97770000Y-86541000D01*
X97790000Y-86541000D01*
X97790000Y-86521000D01*
X98044000Y-86521000D01*
X98044000Y-86541000D01*
X99362155Y-86541000D01*
X99483476Y-86311110D01*
X99391352Y-86048142D01*
X99244496Y-85796807D01*
X99081923Y-85613361D01*
X99304608Y-85430608D01*
X99526670Y-85160025D01*
X99691677Y-84851319D01*
X99793288Y-84516353D01*
X99827598Y-84168000D01*
X99793288Y-83819647D01*
X99691677Y-83484681D01*
X99526670Y-83175975D01*
X99314955Y-82918000D01*
X99526670Y-82660025D01*
X99691677Y-82351319D01*
X99718680Y-82262302D01*
X104197300Y-82262302D01*
X104197300Y-82523698D01*
X104248296Y-82780072D01*
X104348328Y-83021570D01*
X104493552Y-83238913D01*
X104678387Y-83423748D01*
X104895730Y-83568972D01*
X105137228Y-83669004D01*
X105393602Y-83720000D01*
X105654998Y-83720000D01*
X105911372Y-83669004D01*
X106152870Y-83568972D01*
X106370213Y-83423748D01*
X106555048Y-83238913D01*
X106700272Y-83021570D01*
X106800304Y-82780072D01*
X106843838Y-82561214D01*
X107414852Y-81990201D01*
X109708035Y-81990201D01*
X109647549Y-82050687D01*
X109502325Y-82268030D01*
X109402293Y-82509528D01*
X109351297Y-82765902D01*
X109351297Y-83027298D01*
X109402293Y-83283672D01*
X109415758Y-83316179D01*
X105594665Y-87137274D01*
X105554515Y-87170224D01*
X105423053Y-87330412D01*
X105389203Y-87393741D01*
X105325366Y-87513170D01*
X105265212Y-87711473D01*
X105244900Y-87917700D01*
X105249991Y-87969389D01*
X105249990Y-93330023D01*
X105244900Y-93381702D01*
X105249990Y-93433380D01*
X105265212Y-93587929D01*
X105325366Y-93786232D01*
X105423052Y-93968990D01*
X105554514Y-94129178D01*
X105594669Y-94162132D01*
X106145515Y-94712979D01*
X106145515Y-95475300D01*
X106163413Y-95657024D01*
X106216420Y-95831764D01*
X106302499Y-95992805D01*
X106418341Y-96133959D01*
X106559495Y-96249801D01*
X106720536Y-96335880D01*
X106895276Y-96388887D01*
X107077000Y-96406785D01*
X109077000Y-96406785D01*
X109258724Y-96388887D01*
X109347000Y-96362109D01*
X109435276Y-96388887D01*
X109617000Y-96406785D01*
X111617000Y-96406785D01*
X111798724Y-96388887D01*
X111973464Y-96335880D01*
X112134505Y-96249801D01*
X112275659Y-96133959D01*
X112391501Y-95992805D01*
X112477580Y-95831764D01*
X112530587Y-95657024D01*
X112548485Y-95475300D01*
X112548485Y-95276933D01*
X112614476Y-95222776D01*
X112647430Y-95182622D01*
X112776325Y-95053726D01*
X112816477Y-95020775D01*
X112947939Y-94860587D01*
X113045625Y-94677830D01*
X113105779Y-94479527D01*
X113112227Y-94414063D01*
X113126092Y-94273299D01*
X113121001Y-94221613D01*
X113121001Y-91862400D01*
X115441915Y-91862400D01*
X115441915Y-93862400D01*
X115443000Y-93873416D01*
X115443000Y-94391384D01*
X115441915Y-94402400D01*
X115441915Y-96402400D01*
X115443000Y-96413416D01*
X115443000Y-96931384D01*
X115441915Y-96942400D01*
X115441915Y-98942400D01*
X115443000Y-98953416D01*
X115443000Y-122936000D01*
X115445440Y-122960776D01*
X115452667Y-122984601D01*
X115464403Y-123006557D01*
X115480197Y-123025803D01*
X115499443Y-123041597D01*
X115521399Y-123053333D01*
X115545224Y-123060560D01*
X115570000Y-123063000D01*
X162052000Y-123063000D01*
X162076776Y-123060560D01*
X162100601Y-123053333D01*
X162122557Y-123041597D01*
X162141803Y-123025803D01*
X162157597Y-123006557D01*
X162169333Y-122984601D01*
X162176560Y-122960776D01*
X162178983Y-122933952D01*
X161993296Y-111421280D01*
X177908126Y-111421280D01*
X178028014Y-111706136D01*
X178351710Y-111866999D01*
X178700569Y-111961622D01*
X179061184Y-111986367D01*
X179419698Y-111940285D01*
X179762333Y-111825146D01*
X179984986Y-111706136D01*
X180104874Y-111421280D01*
X179006500Y-110322905D01*
X177908126Y-111421280D01*
X161993296Y-111421280D01*
X161973565Y-110197984D01*
X177163433Y-110197984D01*
X177209515Y-110556498D01*
X177324654Y-110899133D01*
X177443664Y-111121786D01*
X177728520Y-111241674D01*
X178826895Y-110143300D01*
X179186105Y-110143300D01*
X180284480Y-111241674D01*
X180569336Y-111121786D01*
X180730199Y-110798090D01*
X180824822Y-110449231D01*
X180849567Y-110088616D01*
X180803485Y-109730102D01*
X180688346Y-109387467D01*
X180569336Y-109164814D01*
X180284480Y-109044926D01*
X179186105Y-110143300D01*
X178826895Y-110143300D01*
X177728520Y-109044926D01*
X177443664Y-109164814D01*
X177282801Y-109488510D01*
X177188178Y-109837369D01*
X177163433Y-110197984D01*
X161973565Y-110197984D01*
X161952071Y-108865320D01*
X177908126Y-108865320D01*
X179006500Y-109963695D01*
X180104874Y-108865320D01*
X179984986Y-108580464D01*
X179661290Y-108419601D01*
X179312431Y-108324978D01*
X178951816Y-108300233D01*
X178593302Y-108346315D01*
X178250667Y-108461454D01*
X178028014Y-108580464D01*
X177908126Y-108865320D01*
X161952071Y-108865320D01*
X161924983Y-107185952D01*
X161922144Y-107161218D01*
X161914534Y-107137513D01*
X161902445Y-107115749D01*
X161886343Y-107096761D01*
X161866845Y-107081279D01*
X161844702Y-107069899D01*
X161820764Y-107063057D01*
X161798000Y-107061000D01*
X157226000Y-107061000D01*
X157201224Y-107063440D01*
X157177399Y-107070667D01*
X157155443Y-107082403D01*
X157136197Y-107098197D01*
X157120403Y-107117443D01*
X157108667Y-107139399D01*
X157101440Y-107163224D01*
X157099000Y-107188000D01*
X157099000Y-110109000D01*
X152747369Y-110109000D01*
X151511000Y-106152618D01*
X151511000Y-90043000D01*
X155134486Y-90043000D01*
X155166865Y-90371749D01*
X155195191Y-90465126D01*
X155195190Y-92130192D01*
X155219455Y-92376558D01*
X155315348Y-92692674D01*
X155471069Y-92984008D01*
X155680634Y-93239366D01*
X155935991Y-93448931D01*
X156227325Y-93604652D01*
X156543441Y-93700545D01*
X156872190Y-93732924D01*
X157200938Y-93700545D01*
X157517054Y-93604652D01*
X157808388Y-93448931D01*
X158063746Y-93239366D01*
X158273311Y-92984009D01*
X158429032Y-92692675D01*
X158524925Y-92376559D01*
X158549190Y-92130193D01*
X158549190Y-91720000D01*
X159486001Y-91720000D01*
X159486000Y-93416582D01*
X159510265Y-93662948D01*
X159606158Y-93979064D01*
X159761879Y-94270398D01*
X159971444Y-94525756D01*
X160226801Y-94735321D01*
X160518135Y-94891042D01*
X160834251Y-94986935D01*
X161163000Y-95019314D01*
X161491748Y-94986935D01*
X161807864Y-94891042D01*
X162099198Y-94735321D01*
X162354556Y-94525756D01*
X162564121Y-94270399D01*
X162719842Y-93979065D01*
X162815735Y-93662949D01*
X162840000Y-93416583D01*
X162840000Y-91466302D01*
X165297000Y-91466302D01*
X165297000Y-91727698D01*
X165347996Y-91984072D01*
X165448028Y-92225570D01*
X165572001Y-92411109D01*
X165572000Y-100786321D01*
X165566910Y-100838000D01*
X165572000Y-100889678D01*
X165587222Y-101044227D01*
X165647376Y-101242530D01*
X165745062Y-101425288D01*
X165876524Y-101585476D01*
X165916679Y-101618430D01*
X167248400Y-102950153D01*
X167248400Y-103071893D01*
X167124428Y-103257430D01*
X167024396Y-103498928D01*
X166973400Y-103755302D01*
X166973400Y-104016698D01*
X167024396Y-104273072D01*
X167124428Y-104514570D01*
X167269652Y-104731913D01*
X167454487Y-104916748D01*
X167671830Y-105061972D01*
X167913328Y-105162004D01*
X168169702Y-105213000D01*
X168431098Y-105213000D01*
X168687472Y-105162004D01*
X168928970Y-105061972D01*
X169146313Y-104916748D01*
X169331148Y-104731913D01*
X169476372Y-104514570D01*
X169576404Y-104273072D01*
X169627400Y-104016698D01*
X169627400Y-103755302D01*
X169576404Y-103498928D01*
X169476372Y-103257430D01*
X169352400Y-103071893D01*
X169352400Y-102566079D01*
X169357490Y-102514400D01*
X169337178Y-102308172D01*
X169277024Y-102109869D01*
X169179338Y-101927112D01*
X169160306Y-101903921D01*
X169047876Y-101766924D01*
X169007731Y-101733978D01*
X167676000Y-100402249D01*
X167676000Y-92411107D01*
X167799972Y-92225570D01*
X167900004Y-91984072D01*
X167951000Y-91727698D01*
X167951000Y-91466302D01*
X167900004Y-91209928D01*
X167799972Y-90968430D01*
X167654748Y-90751087D01*
X167469913Y-90566252D01*
X167252570Y-90421028D01*
X167011072Y-90320996D01*
X166754698Y-90270000D01*
X166493302Y-90270000D01*
X166236928Y-90320996D01*
X165995430Y-90421028D01*
X165778087Y-90566252D01*
X165593252Y-90751087D01*
X165448028Y-90968430D01*
X165347996Y-91209928D01*
X165297000Y-91466302D01*
X162840000Y-91466302D01*
X162840000Y-91436200D01*
X163650420Y-91436200D01*
X163732800Y-91444314D01*
X163815180Y-91436200D01*
X163815183Y-91436200D01*
X164061549Y-91411935D01*
X164377665Y-91316042D01*
X164668999Y-91160321D01*
X164924356Y-90950756D01*
X164976880Y-90886755D01*
X165211556Y-90652079D01*
X165275556Y-90599556D01*
X165485121Y-90344199D01*
X165640842Y-90052865D01*
X165736735Y-89736749D01*
X165761000Y-89490383D01*
X165761000Y-89490380D01*
X165769114Y-89408000D01*
X165761000Y-89325620D01*
X165761000Y-88982383D01*
X165769114Y-88900000D01*
X165761000Y-88817617D01*
X165761000Y-87966383D01*
X165769114Y-87884000D01*
X165736735Y-87555251D01*
X165640842Y-87239135D01*
X165485121Y-86947801D01*
X165275556Y-86692444D01*
X165020199Y-86482879D01*
X164728865Y-86327158D01*
X164412749Y-86231265D01*
X164166383Y-86207000D01*
X164084000Y-86198886D01*
X164001618Y-86207000D01*
X162134380Y-86207000D01*
X162052000Y-86198886D01*
X161969620Y-86207000D01*
X161969617Y-86207000D01*
X161723251Y-86231265D01*
X161407135Y-86327158D01*
X161115801Y-86482879D01*
X160860444Y-86692444D01*
X160807920Y-86756445D01*
X160539036Y-87025329D01*
X160475045Y-87077845D01*
X160422529Y-87141836D01*
X160265480Y-87333201D01*
X160109759Y-87624535D01*
X160013866Y-87940651D01*
X160001652Y-88064653D01*
X159971444Y-88089444D01*
X159761879Y-88344801D01*
X159750548Y-88366000D01*
X156901980Y-88366000D01*
X156819600Y-88357886D01*
X156737220Y-88366000D01*
X156737217Y-88366000D01*
X156490851Y-88390265D01*
X156174735Y-88486158D01*
X155883401Y-88641879D01*
X155628044Y-88851444D01*
X155418479Y-89106801D01*
X155262758Y-89398135D01*
X155166865Y-89714251D01*
X155134486Y-90043000D01*
X151511000Y-90043000D01*
X151511000Y-89662000D01*
X151508560Y-89637224D01*
X151501333Y-89613399D01*
X151489597Y-89591443D01*
X151473803Y-89572197D01*
X151454557Y-89556403D01*
X151432601Y-89544667D01*
X151408776Y-89537440D01*
X151384000Y-89535000D01*
X130845647Y-89535000D01*
X130844800Y-89338150D01*
X130686050Y-89179400D01*
X129336800Y-89179400D01*
X129336800Y-89199400D01*
X129082800Y-89199400D01*
X129082800Y-89179400D01*
X129062800Y-89179400D01*
X129062800Y-88925400D01*
X129082800Y-88925400D01*
X129082800Y-87576150D01*
X129336800Y-87576150D01*
X129336800Y-88925400D01*
X130686050Y-88925400D01*
X130844800Y-88766650D01*
X130847872Y-88052400D01*
X130835612Y-87927918D01*
X130799302Y-87808220D01*
X130740337Y-87697906D01*
X130660985Y-87601215D01*
X130564294Y-87521863D01*
X130453980Y-87462898D01*
X130334282Y-87426588D01*
X130209800Y-87414328D01*
X129495550Y-87417400D01*
X129336800Y-87576150D01*
X129082800Y-87576150D01*
X128924050Y-87417400D01*
X128345834Y-87414913D01*
X128328459Y-87393741D01*
X128187305Y-87277899D01*
X128026264Y-87191820D01*
X127851524Y-87138813D01*
X127669800Y-87120915D01*
X125669800Y-87120915D01*
X125488076Y-87138813D01*
X125399800Y-87165591D01*
X125311524Y-87138813D01*
X125129800Y-87120915D01*
X123129800Y-87120915D01*
X122948076Y-87138813D01*
X122773336Y-87191820D01*
X122612295Y-87277899D01*
X122471141Y-87393741D01*
X122355299Y-87534895D01*
X122269220Y-87695936D01*
X122216213Y-87870676D01*
X122198315Y-88052400D01*
X122198315Y-89535000D01*
X115570000Y-89535000D01*
X115545224Y-89537440D01*
X115521399Y-89544667D01*
X115499443Y-89556403D01*
X115480197Y-89572197D01*
X115464403Y-89591443D01*
X115452667Y-89613399D01*
X115445440Y-89637224D01*
X115443000Y-89662000D01*
X115443000Y-91851384D01*
X115441915Y-91862400D01*
X113121001Y-91862400D01*
X113121001Y-87609680D01*
X113126091Y-87558001D01*
X113105779Y-87351773D01*
X113045625Y-87153470D01*
X112947939Y-86970713D01*
X112857580Y-86860610D01*
X112816477Y-86810525D01*
X112776332Y-86777579D01*
X111860338Y-85861586D01*
X111816804Y-85642728D01*
X111716772Y-85401230D01*
X111571548Y-85183887D01*
X111386713Y-84999052D01*
X111361588Y-84982264D01*
X111865553Y-84478300D01*
X112609593Y-84478300D01*
X112795130Y-84602272D01*
X113036628Y-84702304D01*
X113293002Y-84753300D01*
X113554398Y-84753300D01*
X113810772Y-84702304D01*
X114052270Y-84602272D01*
X114269613Y-84457048D01*
X114454448Y-84272213D01*
X114599672Y-84054870D01*
X114699704Y-83813372D01*
X114750700Y-83556998D01*
X114750700Y-83295602D01*
X114699704Y-83039228D01*
X114610160Y-82823050D01*
X114624908Y-82787446D01*
X114816981Y-82979520D01*
X114860515Y-83198378D01*
X114960547Y-83439876D01*
X115105771Y-83657219D01*
X115290606Y-83842054D01*
X115507949Y-83987278D01*
X115749447Y-84087310D01*
X116005821Y-84138306D01*
X116267217Y-84138306D01*
X116523591Y-84087310D01*
X116765089Y-83987278D01*
X116982432Y-83842054D01*
X117167267Y-83657219D01*
X117279536Y-83489197D01*
X117418128Y-83546604D01*
X117521049Y-83567076D01*
X117481500Y-83765902D01*
X117481500Y-84027298D01*
X117532496Y-84283672D01*
X117632528Y-84525170D01*
X117777752Y-84742513D01*
X117962587Y-84927348D01*
X118179930Y-85072572D01*
X118421428Y-85172604D01*
X118677802Y-85223600D01*
X118939198Y-85223600D01*
X119195572Y-85172604D01*
X119437070Y-85072572D01*
X119654413Y-84927348D01*
X119839248Y-84742513D01*
X119984472Y-84525170D01*
X120084504Y-84283672D01*
X120135500Y-84027298D01*
X120135500Y-83765902D01*
X120084504Y-83509528D01*
X119984472Y-83268030D01*
X119860500Y-83082493D01*
X119860500Y-82727255D01*
X120513647Y-82727255D01*
X120513647Y-82988651D01*
X120564643Y-83245025D01*
X120664675Y-83486523D01*
X120809899Y-83703866D01*
X120994734Y-83888701D01*
X121212077Y-84033925D01*
X121453575Y-84133957D01*
X121709949Y-84184953D01*
X121971345Y-84184953D01*
X122198111Y-84139846D01*
X122195515Y-84166200D01*
X122195515Y-86166200D01*
X122213413Y-86347924D01*
X122266420Y-86522664D01*
X122352499Y-86683705D01*
X122468341Y-86824859D01*
X122609495Y-86940701D01*
X122770536Y-87026780D01*
X122945276Y-87079787D01*
X123127000Y-87097685D01*
X125127000Y-87097685D01*
X125308724Y-87079787D01*
X125397000Y-87053009D01*
X125485276Y-87079787D01*
X125667000Y-87097685D01*
X127667000Y-87097685D01*
X127848724Y-87079787D01*
X127937000Y-87053009D01*
X128025276Y-87079787D01*
X128207000Y-87097685D01*
X130207000Y-87097685D01*
X130388724Y-87079787D01*
X130563464Y-87026780D01*
X130724505Y-86940701D01*
X130865659Y-86824859D01*
X130981501Y-86683705D01*
X131067580Y-86522664D01*
X131120587Y-86347924D01*
X131138485Y-86166200D01*
X131138485Y-84166200D01*
X131120587Y-83984476D01*
X131097981Y-83909953D01*
X134986808Y-83909953D01*
X135038487Y-83915043D01*
X135090166Y-83909953D01*
X135244715Y-83894731D01*
X135443018Y-83834577D01*
X135625775Y-83736891D01*
X135785963Y-83605429D01*
X135818918Y-83565274D01*
X137249992Y-82134200D01*
X145566315Y-82134200D01*
X145566315Y-84134200D01*
X145584213Y-84315924D01*
X145637220Y-84490664D01*
X145723299Y-84651705D01*
X145839141Y-84792859D01*
X145980295Y-84908701D01*
X146141336Y-84994780D01*
X146316076Y-85047787D01*
X146497800Y-85065685D01*
X148497800Y-85065685D01*
X148679524Y-85047787D01*
X148854264Y-84994780D01*
X149015305Y-84908701D01*
X149156459Y-84792859D01*
X149272301Y-84651705D01*
X149358380Y-84490664D01*
X149411387Y-84315924D01*
X149429285Y-84134200D01*
X149429285Y-82693000D01*
X159739515Y-82693000D01*
X159739515Y-84693000D01*
X159757413Y-84874724D01*
X159810420Y-85049464D01*
X159896499Y-85210505D01*
X160012341Y-85351659D01*
X160153495Y-85467501D01*
X160314536Y-85553580D01*
X160489276Y-85606587D01*
X160671000Y-85624485D01*
X162671000Y-85624485D01*
X162852724Y-85606587D01*
X163027464Y-85553580D01*
X163188505Y-85467501D01*
X163329659Y-85351659D01*
X163445501Y-85210505D01*
X163531580Y-85049464D01*
X163584587Y-84874724D01*
X163602485Y-84693000D01*
X163602485Y-82693000D01*
X163584587Y-82511276D01*
X163531580Y-82336536D01*
X163445501Y-82175495D01*
X163329659Y-82034341D01*
X163188505Y-81918499D01*
X163027464Y-81832420D01*
X162852724Y-81779413D01*
X162671000Y-81761515D01*
X160671000Y-81761515D01*
X160489276Y-81779413D01*
X160314536Y-81832420D01*
X160153495Y-81918499D01*
X160012341Y-82034341D01*
X159896499Y-82175495D01*
X159810420Y-82336536D01*
X159757413Y-82511276D01*
X159739515Y-82693000D01*
X149429285Y-82693000D01*
X149429285Y-82134200D01*
X149411387Y-81952476D01*
X149358380Y-81777736D01*
X149272301Y-81616695D01*
X149156459Y-81475541D01*
X149015305Y-81359699D01*
X148854264Y-81273620D01*
X148679524Y-81220613D01*
X148497800Y-81202715D01*
X146497800Y-81202715D01*
X146316076Y-81220613D01*
X146141336Y-81273620D01*
X145980295Y-81359699D01*
X145839141Y-81475541D01*
X145723299Y-81616695D01*
X145637220Y-81777736D01*
X145584213Y-81952476D01*
X145566315Y-82134200D01*
X137249992Y-82134200D01*
X137655939Y-81728253D01*
X137839784Y-81746360D01*
X138014376Y-81746360D01*
X138275433Y-81720648D01*
X138610399Y-81619037D01*
X138919105Y-81454030D01*
X139189688Y-81231968D01*
X139197080Y-81222961D01*
X139204472Y-81231968D01*
X139475055Y-81454030D01*
X139783761Y-81619037D01*
X140118727Y-81720648D01*
X140379784Y-81746360D01*
X140554376Y-81746360D01*
X140815433Y-81720648D01*
X141150399Y-81619037D01*
X141459105Y-81454030D01*
X141729688Y-81231968D01*
X141932644Y-80984666D01*
X142006811Y-81066948D01*
X142240160Y-81241001D01*
X142502981Y-81366185D01*
X142650190Y-81410836D01*
X142880080Y-81289515D01*
X142880080Y-80096360D01*
X143134080Y-80096360D01*
X143134080Y-81289515D01*
X143363970Y-81410836D01*
X143511179Y-81366185D01*
X143774000Y-81241001D01*
X144007349Y-81066948D01*
X144202258Y-80850715D01*
X144351237Y-80600612D01*
X144448561Y-80326251D01*
X144327894Y-80096360D01*
X143134080Y-80096360D01*
X142880080Y-80096360D01*
X142860080Y-80096360D01*
X142860080Y-79842360D01*
X142880080Y-79842360D01*
X142880080Y-78649205D01*
X143134080Y-78649205D01*
X143134080Y-79842360D01*
X144327894Y-79842360D01*
X144448561Y-79612469D01*
X144351237Y-79338108D01*
X144202258Y-79088005D01*
X144007349Y-78871772D01*
X143774000Y-78697719D01*
X143511179Y-78572535D01*
X143363970Y-78527884D01*
X143134080Y-78649205D01*
X142880080Y-78649205D01*
X142650190Y-78527884D01*
X142502981Y-78572535D01*
X142240160Y-78697719D01*
X142006811Y-78871772D01*
X141932644Y-78954054D01*
X141729688Y-78706752D01*
X141459105Y-78484690D01*
X141150399Y-78319683D01*
X140815433Y-78218072D01*
X140554376Y-78192360D01*
X140379784Y-78192360D01*
X140118727Y-78218072D01*
X139783761Y-78319683D01*
X139475055Y-78484690D01*
X139204472Y-78706752D01*
X139197080Y-78715759D01*
X139189688Y-78706752D01*
X138919105Y-78484690D01*
X138610399Y-78319683D01*
X138275433Y-78218072D01*
X138014376Y-78192360D01*
X137839784Y-78192360D01*
X137578727Y-78218072D01*
X137243761Y-78319683D01*
X136935055Y-78484690D01*
X136923326Y-78494316D01*
X136895739Y-78460701D01*
X136754585Y-78344859D01*
X136593544Y-78258780D01*
X136418804Y-78205773D01*
X136237080Y-78187875D01*
X134537080Y-78187875D01*
X134355356Y-78205773D01*
X134180616Y-78258780D01*
X134019575Y-78344859D01*
X133878421Y-78460701D01*
X133762579Y-78601855D01*
X133676500Y-78762896D01*
X133623493Y-78937636D01*
X133605595Y-79119360D01*
X133605595Y-80819360D01*
X133623493Y-81001084D01*
X133676500Y-81175824D01*
X133762579Y-81336865D01*
X133878421Y-81478019D01*
X134019575Y-81593861D01*
X134180616Y-81679940D01*
X134355356Y-81732947D01*
X134537080Y-81750845D01*
X134657844Y-81750845D01*
X134602736Y-81805953D01*
X130795798Y-81805953D01*
X130794000Y-81387950D01*
X130635250Y-81229200D01*
X129286000Y-81229200D01*
X129286000Y-81249200D01*
X129032000Y-81249200D01*
X129032000Y-81229200D01*
X129012000Y-81229200D01*
X129012000Y-80975200D01*
X129032000Y-80975200D01*
X129032000Y-79625950D01*
X129286000Y-79625950D01*
X129286000Y-80975200D01*
X130635250Y-80975200D01*
X130794000Y-80816450D01*
X130797072Y-80102200D01*
X130784812Y-79977718D01*
X130748502Y-79858020D01*
X130689537Y-79747706D01*
X130610185Y-79651015D01*
X130513494Y-79571663D01*
X130403180Y-79512698D01*
X130283482Y-79476388D01*
X130159000Y-79464128D01*
X129444750Y-79467200D01*
X129286000Y-79625950D01*
X129032000Y-79625950D01*
X128873250Y-79467200D01*
X128296846Y-79464721D01*
X128277659Y-79441341D01*
X128136505Y-79325499D01*
X127975464Y-79239420D01*
X127800724Y-79186413D01*
X127619000Y-79168515D01*
X125619000Y-79168515D01*
X125437276Y-79186413D01*
X125262536Y-79239420D01*
X125101495Y-79325499D01*
X124960341Y-79441341D01*
X124844499Y-79582495D01*
X124758420Y-79743536D01*
X124705413Y-79918276D01*
X124687515Y-80100000D01*
X124687515Y-81805953D01*
X122654754Y-81805953D01*
X122469217Y-81681981D01*
X122227719Y-81581949D01*
X121971345Y-81530953D01*
X121709949Y-81530953D01*
X121453575Y-81581949D01*
X121212077Y-81681981D01*
X120994734Y-81827205D01*
X120809899Y-82012040D01*
X120664675Y-82229383D01*
X120564643Y-82470881D01*
X120513647Y-82727255D01*
X119860500Y-82727255D01*
X119860500Y-79047810D01*
X119873476Y-79037161D01*
X120004938Y-78876973D01*
X120102624Y-78694215D01*
X120107780Y-78677218D01*
X120133182Y-78593479D01*
X120156748Y-78569913D01*
X120228114Y-78463106D01*
X120402072Y-78428504D01*
X120643570Y-78328472D01*
X120860913Y-78183248D01*
X121045748Y-77998413D01*
X121190972Y-77781070D01*
X121291004Y-77539572D01*
X121342000Y-77283198D01*
X121342000Y-77021802D01*
X121338990Y-77006671D01*
X121363248Y-76982413D01*
X121508472Y-76765070D01*
X121608504Y-76523572D01*
X121659500Y-76267198D01*
X121659500Y-76005802D01*
X121608504Y-75749428D01*
X121508472Y-75507930D01*
X121363248Y-75290587D01*
X121178413Y-75105752D01*
X120961070Y-74960528D01*
X120719572Y-74860496D01*
X120463198Y-74809500D01*
X120201802Y-74809500D01*
X119945428Y-74860496D01*
X119703930Y-74960528D01*
X119486587Y-75105752D01*
X119442515Y-75149824D01*
X117317538Y-75313208D01*
X117306216Y-75312093D01*
X117214317Y-75321144D01*
X117174043Y-75324241D01*
X117162919Y-75326207D01*
X117099989Y-75332405D01*
X117061114Y-75344198D01*
X117021116Y-75351266D01*
X116962196Y-75374204D01*
X116901685Y-75392560D01*
X116865862Y-75411708D01*
X116828008Y-75426445D01*
X116774689Y-75460442D01*
X116718929Y-75490246D01*
X116687530Y-75516014D01*
X116653277Y-75537854D01*
X116607622Y-75581592D01*
X116598882Y-75588765D01*
X116570289Y-75617358D01*
X116503639Y-75681210D01*
X116497121Y-75690526D01*
X116291324Y-75896324D01*
X116291324Y-75641603D01*
X116296414Y-75589924D01*
X116276102Y-75383696D01*
X116215948Y-75185393D01*
X116118262Y-75002636D01*
X116019743Y-74882590D01*
X115986800Y-74842448D01*
X115946655Y-74809502D01*
X115644937Y-74507785D01*
X115601404Y-74288928D01*
X115501372Y-74047430D01*
X115356148Y-73830087D01*
X115298120Y-73772059D01*
X115322200Y-73650998D01*
X115322200Y-73389602D01*
X115271204Y-73133228D01*
X115171172Y-72891730D01*
X115025948Y-72674387D01*
X114841113Y-72489552D01*
X114694927Y-72391873D01*
X122368000Y-72391873D01*
X122368000Y-72845327D01*
X122456465Y-73290069D01*
X122629994Y-73709006D01*
X122881920Y-74086039D01*
X123202561Y-74406680D01*
X123579594Y-74658606D01*
X123998531Y-74832135D01*
X124443273Y-74920600D01*
X124896727Y-74920600D01*
X125341469Y-74832135D01*
X125760406Y-74658606D01*
X126137439Y-74406680D01*
X126458080Y-74086039D01*
X126590004Y-73888600D01*
X127754402Y-73888600D01*
X127788712Y-74236953D01*
X127890323Y-74571919D01*
X128055330Y-74880625D01*
X128277392Y-75151208D01*
X128547975Y-75373270D01*
X128856681Y-75538277D01*
X129191647Y-75639888D01*
X129452704Y-75665600D01*
X129627296Y-75665600D01*
X129888353Y-75639888D01*
X130223319Y-75538277D01*
X130532025Y-75373270D01*
X130802608Y-75151208D01*
X130810000Y-75142201D01*
X130817392Y-75151208D01*
X131087975Y-75373270D01*
X131396681Y-75538277D01*
X131731647Y-75639888D01*
X131992704Y-75665600D01*
X132167296Y-75665600D01*
X132428353Y-75639888D01*
X132763319Y-75538277D01*
X133072025Y-75373270D01*
X133342608Y-75151208D01*
X133350000Y-75142201D01*
X133357392Y-75151208D01*
X133627975Y-75373270D01*
X133936681Y-75538277D01*
X134271647Y-75639888D01*
X134532704Y-75665600D01*
X134707296Y-75665600D01*
X134968353Y-75639888D01*
X135303319Y-75538277D01*
X135612025Y-75373270D01*
X135882608Y-75151208D01*
X135890000Y-75142201D01*
X135897392Y-75151208D01*
X136167975Y-75373270D01*
X136476681Y-75538277D01*
X136811647Y-75639888D01*
X137072704Y-75665600D01*
X137247296Y-75665600D01*
X137508353Y-75639888D01*
X137843319Y-75538277D01*
X138152025Y-75373270D01*
X138422608Y-75151208D01*
X138430000Y-75142201D01*
X138437392Y-75151208D01*
X138707975Y-75373270D01*
X139016681Y-75538277D01*
X139351647Y-75639888D01*
X139612704Y-75665600D01*
X139787296Y-75665600D01*
X140048353Y-75639888D01*
X140383319Y-75538277D01*
X140692025Y-75373270D01*
X140962608Y-75151208D01*
X140970000Y-75142201D01*
X140977392Y-75151208D01*
X141247975Y-75373270D01*
X141556681Y-75538277D01*
X141891647Y-75639888D01*
X142152704Y-75665600D01*
X142327296Y-75665600D01*
X142588353Y-75639888D01*
X142923319Y-75538277D01*
X143232025Y-75373270D01*
X143502608Y-75151208D01*
X143510000Y-75142201D01*
X143517392Y-75151208D01*
X143787975Y-75373270D01*
X144096681Y-75538277D01*
X144431647Y-75639888D01*
X144692704Y-75665600D01*
X144867296Y-75665600D01*
X145128353Y-75639888D01*
X145463319Y-75538277D01*
X145772025Y-75373270D01*
X146042608Y-75151208D01*
X146050000Y-75142201D01*
X146057392Y-75151208D01*
X146327975Y-75373270D01*
X146636681Y-75538277D01*
X146971647Y-75639888D01*
X147232704Y-75665600D01*
X147407296Y-75665600D01*
X147668353Y-75639888D01*
X148003319Y-75538277D01*
X148312025Y-75373270D01*
X148582608Y-75151208D01*
X148590000Y-75142201D01*
X148597392Y-75151208D01*
X148867975Y-75373270D01*
X149176681Y-75538277D01*
X149511647Y-75639888D01*
X149772704Y-75665600D01*
X149947296Y-75665600D01*
X150208353Y-75639888D01*
X150543319Y-75538277D01*
X150852025Y-75373270D01*
X151122608Y-75151208D01*
X151130000Y-75142201D01*
X151137392Y-75151208D01*
X151407975Y-75373270D01*
X151716681Y-75538277D01*
X152051647Y-75639888D01*
X152312704Y-75665600D01*
X152487296Y-75665600D01*
X152748353Y-75639888D01*
X153083319Y-75538277D01*
X153392025Y-75373270D01*
X153662608Y-75151208D01*
X153670000Y-75142201D01*
X153677392Y-75151208D01*
X153947975Y-75373270D01*
X154256681Y-75538277D01*
X154591647Y-75639888D01*
X154852704Y-75665600D01*
X155027296Y-75665600D01*
X155288353Y-75639888D01*
X155623319Y-75538277D01*
X155932025Y-75373270D01*
X156202608Y-75151208D01*
X156210000Y-75142201D01*
X156217392Y-75151208D01*
X156487975Y-75373270D01*
X156796681Y-75538277D01*
X157131647Y-75639888D01*
X157392704Y-75665600D01*
X157567296Y-75665600D01*
X157828353Y-75639888D01*
X158163319Y-75538277D01*
X158472025Y-75373270D01*
X158742608Y-75151208D01*
X158750000Y-75142201D01*
X158757392Y-75151208D01*
X159027975Y-75373270D01*
X159336681Y-75538277D01*
X159671647Y-75639888D01*
X159932704Y-75665600D01*
X160107296Y-75665600D01*
X160368353Y-75639888D01*
X160703319Y-75538277D01*
X161012025Y-75373270D01*
X161282608Y-75151208D01*
X161290000Y-75142201D01*
X161297392Y-75151208D01*
X161567975Y-75373270D01*
X161876681Y-75538277D01*
X162211647Y-75639888D01*
X162472704Y-75665600D01*
X162647296Y-75665600D01*
X162908353Y-75639888D01*
X163243319Y-75538277D01*
X163552025Y-75373270D01*
X163822608Y-75151208D01*
X163830000Y-75142201D01*
X163837392Y-75151208D01*
X164107975Y-75373270D01*
X164416681Y-75538277D01*
X164751647Y-75639888D01*
X165012704Y-75665600D01*
X165187296Y-75665600D01*
X165448353Y-75639888D01*
X165783319Y-75538277D01*
X166092025Y-75373270D01*
X166362608Y-75151208D01*
X166370000Y-75142201D01*
X166377392Y-75151208D01*
X166647975Y-75373270D01*
X166956681Y-75538277D01*
X167291647Y-75639888D01*
X167552704Y-75665600D01*
X167727296Y-75665600D01*
X167988353Y-75639888D01*
X168323319Y-75538277D01*
X168632025Y-75373270D01*
X168902608Y-75151208D01*
X168910000Y-75142201D01*
X168917392Y-75151208D01*
X169187975Y-75373270D01*
X169496681Y-75538277D01*
X169831647Y-75639888D01*
X170092704Y-75665600D01*
X170267296Y-75665600D01*
X170528353Y-75639888D01*
X170863319Y-75538277D01*
X171172025Y-75373270D01*
X171442608Y-75151208D01*
X171450000Y-75142201D01*
X171457392Y-75151208D01*
X171727975Y-75373270D01*
X172036681Y-75538277D01*
X172371647Y-75639888D01*
X172632704Y-75665600D01*
X172807296Y-75665600D01*
X173068353Y-75639888D01*
X173403319Y-75538277D01*
X173712025Y-75373270D01*
X173982608Y-75151208D01*
X173990000Y-75142201D01*
X173997392Y-75151208D01*
X174267975Y-75373270D01*
X174576681Y-75538277D01*
X174911647Y-75639888D01*
X175172704Y-75665600D01*
X175347296Y-75665600D01*
X175608353Y-75639888D01*
X175943319Y-75538277D01*
X176252025Y-75373270D01*
X176522608Y-75151208D01*
X176530000Y-75142201D01*
X176537392Y-75151208D01*
X176807975Y-75373270D01*
X177116681Y-75538277D01*
X177451647Y-75639888D01*
X177712704Y-75665600D01*
X177887296Y-75665600D01*
X178148353Y-75639888D01*
X178483319Y-75538277D01*
X178792025Y-75373270D01*
X179062608Y-75151208D01*
X179284670Y-74880625D01*
X179449677Y-74571919D01*
X179551288Y-74236953D01*
X179585598Y-73888600D01*
X179551288Y-73540247D01*
X179449677Y-73205281D01*
X179284670Y-72896575D01*
X179062608Y-72625992D01*
X179053601Y-72618600D01*
X179062608Y-72611208D01*
X179242611Y-72391873D01*
X180368000Y-72391873D01*
X180368000Y-72845327D01*
X180456465Y-73290069D01*
X180629994Y-73709006D01*
X180881920Y-74086039D01*
X181202561Y-74406680D01*
X181579594Y-74658606D01*
X181998531Y-74832135D01*
X182443273Y-74920600D01*
X182896727Y-74920600D01*
X183341469Y-74832135D01*
X183760406Y-74658606D01*
X184137439Y-74406680D01*
X184458080Y-74086039D01*
X184710006Y-73709006D01*
X184883535Y-73290069D01*
X184972000Y-72845327D01*
X184972000Y-72391873D01*
X184883535Y-71947131D01*
X184710006Y-71528194D01*
X184458080Y-71151161D01*
X184137439Y-70830520D01*
X183760406Y-70578594D01*
X183341469Y-70405065D01*
X182896727Y-70316600D01*
X182443273Y-70316600D01*
X181998531Y-70405065D01*
X181579594Y-70578594D01*
X181202561Y-70830520D01*
X180881920Y-71151161D01*
X180629994Y-71528194D01*
X180456465Y-71947131D01*
X180368000Y-72391873D01*
X179242611Y-72391873D01*
X179284670Y-72340625D01*
X179449677Y-72031919D01*
X179551288Y-71696953D01*
X179585598Y-71348600D01*
X179551288Y-71000247D01*
X179449677Y-70665281D01*
X179284670Y-70356575D01*
X179062608Y-70085992D01*
X178792025Y-69863930D01*
X178483319Y-69698923D01*
X178148353Y-69597312D01*
X177887296Y-69571600D01*
X177712704Y-69571600D01*
X177451647Y-69597312D01*
X177116681Y-69698923D01*
X176807975Y-69863930D01*
X176537392Y-70085992D01*
X176530000Y-70094999D01*
X176522608Y-70085992D01*
X176252025Y-69863930D01*
X175943319Y-69698923D01*
X175608353Y-69597312D01*
X175347296Y-69571600D01*
X175172704Y-69571600D01*
X174911647Y-69597312D01*
X174576681Y-69698923D01*
X174267975Y-69863930D01*
X173997392Y-70085992D01*
X173990000Y-70094999D01*
X173982608Y-70085992D01*
X173712025Y-69863930D01*
X173403319Y-69698923D01*
X173068353Y-69597312D01*
X172807296Y-69571600D01*
X172632704Y-69571600D01*
X172371647Y-69597312D01*
X172036681Y-69698923D01*
X171727975Y-69863930D01*
X171457392Y-70085992D01*
X171450000Y-70094999D01*
X171442608Y-70085992D01*
X171172025Y-69863930D01*
X170863319Y-69698923D01*
X170528353Y-69597312D01*
X170267296Y-69571600D01*
X170092704Y-69571600D01*
X169831647Y-69597312D01*
X169496681Y-69698923D01*
X169187975Y-69863930D01*
X168917392Y-70085992D01*
X168910000Y-70094999D01*
X168902608Y-70085992D01*
X168632025Y-69863930D01*
X168323319Y-69698923D01*
X167988353Y-69597312D01*
X167727296Y-69571600D01*
X167552704Y-69571600D01*
X167291647Y-69597312D01*
X166956681Y-69698923D01*
X166647975Y-69863930D01*
X166377392Y-70085992D01*
X166370000Y-70094999D01*
X166362608Y-70085992D01*
X166092025Y-69863930D01*
X165783319Y-69698923D01*
X165448353Y-69597312D01*
X165187296Y-69571600D01*
X165012704Y-69571600D01*
X164751647Y-69597312D01*
X164416681Y-69698923D01*
X164107975Y-69863930D01*
X163837392Y-70085992D01*
X163830000Y-70094999D01*
X163822608Y-70085992D01*
X163552025Y-69863930D01*
X163243319Y-69698923D01*
X162908353Y-69597312D01*
X162647296Y-69571600D01*
X162472704Y-69571600D01*
X162211647Y-69597312D01*
X161876681Y-69698923D01*
X161567975Y-69863930D01*
X161297392Y-70085992D01*
X161290000Y-70094999D01*
X161282608Y-70085992D01*
X161012025Y-69863930D01*
X160703319Y-69698923D01*
X160368353Y-69597312D01*
X160107296Y-69571600D01*
X159932704Y-69571600D01*
X159671647Y-69597312D01*
X159336681Y-69698923D01*
X159027975Y-69863930D01*
X158757392Y-70085992D01*
X158750000Y-70094999D01*
X158742608Y-70085992D01*
X158472025Y-69863930D01*
X158163319Y-69698923D01*
X157828353Y-69597312D01*
X157567296Y-69571600D01*
X157392704Y-69571600D01*
X157131647Y-69597312D01*
X156796681Y-69698923D01*
X156487975Y-69863930D01*
X156217392Y-70085992D01*
X156210000Y-70094999D01*
X156202608Y-70085992D01*
X155932025Y-69863930D01*
X155623319Y-69698923D01*
X155288353Y-69597312D01*
X155027296Y-69571600D01*
X154852704Y-69571600D01*
X154591647Y-69597312D01*
X154256681Y-69698923D01*
X153947975Y-69863930D01*
X153677392Y-70085992D01*
X153670000Y-70094999D01*
X153662608Y-70085992D01*
X153392025Y-69863930D01*
X153083319Y-69698923D01*
X152748353Y-69597312D01*
X152487296Y-69571600D01*
X152312704Y-69571600D01*
X152051647Y-69597312D01*
X151716681Y-69698923D01*
X151407975Y-69863930D01*
X151137392Y-70085992D01*
X151130000Y-70094999D01*
X151122608Y-70085992D01*
X150852025Y-69863930D01*
X150543319Y-69698923D01*
X150208353Y-69597312D01*
X149947296Y-69571600D01*
X149772704Y-69571600D01*
X149511647Y-69597312D01*
X149176681Y-69698923D01*
X148867975Y-69863930D01*
X148597392Y-70085992D01*
X148590000Y-70094999D01*
X148582608Y-70085992D01*
X148312025Y-69863930D01*
X148003319Y-69698923D01*
X147668353Y-69597312D01*
X147407296Y-69571600D01*
X147232704Y-69571600D01*
X146971647Y-69597312D01*
X146636681Y-69698923D01*
X146327975Y-69863930D01*
X146057392Y-70085992D01*
X146050000Y-70094999D01*
X146042608Y-70085992D01*
X145772025Y-69863930D01*
X145463319Y-69698923D01*
X145128353Y-69597312D01*
X144867296Y-69571600D01*
X144692704Y-69571600D01*
X144431647Y-69597312D01*
X144096681Y-69698923D01*
X143787975Y-69863930D01*
X143517392Y-70085992D01*
X143510000Y-70094999D01*
X143502608Y-70085992D01*
X143232025Y-69863930D01*
X142923319Y-69698923D01*
X142588353Y-69597312D01*
X142327296Y-69571600D01*
X142152704Y-69571600D01*
X141891647Y-69597312D01*
X141556681Y-69698923D01*
X141247975Y-69863930D01*
X140977392Y-70085992D01*
X140970000Y-70094999D01*
X140962608Y-70085992D01*
X140692025Y-69863930D01*
X140383319Y-69698923D01*
X140048353Y-69597312D01*
X139787296Y-69571600D01*
X139612704Y-69571600D01*
X139351647Y-69597312D01*
X139016681Y-69698923D01*
X138707975Y-69863930D01*
X138437392Y-70085992D01*
X138430000Y-70094999D01*
X138422608Y-70085992D01*
X138152025Y-69863930D01*
X137843319Y-69698923D01*
X137508353Y-69597312D01*
X137247296Y-69571600D01*
X137072704Y-69571600D01*
X136811647Y-69597312D01*
X136476681Y-69698923D01*
X136167975Y-69863930D01*
X135897392Y-70085992D01*
X135890000Y-70094999D01*
X135882608Y-70085992D01*
X135612025Y-69863930D01*
X135303319Y-69698923D01*
X134968353Y-69597312D01*
X134707296Y-69571600D01*
X134532704Y-69571600D01*
X134271647Y-69597312D01*
X133936681Y-69698923D01*
X133627975Y-69863930D01*
X133357392Y-70085992D01*
X133350000Y-70094999D01*
X133342608Y-70085992D01*
X133072025Y-69863930D01*
X132763319Y-69698923D01*
X132428353Y-69597312D01*
X132167296Y-69571600D01*
X131992704Y-69571600D01*
X131731647Y-69597312D01*
X131396681Y-69698923D01*
X131087975Y-69863930D01*
X131076246Y-69873556D01*
X131048659Y-69839941D01*
X130907505Y-69724099D01*
X130746464Y-69638020D01*
X130571724Y-69585013D01*
X130390000Y-69567115D01*
X128690000Y-69567115D01*
X128508276Y-69585013D01*
X128333536Y-69638020D01*
X128172495Y-69724099D01*
X128031341Y-69839941D01*
X127915499Y-69981095D01*
X127829420Y-70142136D01*
X127776413Y-70316876D01*
X127758515Y-70498600D01*
X127758515Y-72198600D01*
X127776413Y-72380324D01*
X127829420Y-72555064D01*
X127915499Y-72716105D01*
X128031341Y-72857259D01*
X128064956Y-72884846D01*
X128055330Y-72896575D01*
X127890323Y-73205281D01*
X127788712Y-73540247D01*
X127754402Y-73888600D01*
X126590004Y-73888600D01*
X126710006Y-73709006D01*
X126883535Y-73290069D01*
X126972000Y-72845327D01*
X126972000Y-72391873D01*
X126883535Y-71947131D01*
X126710006Y-71528194D01*
X126458080Y-71151161D01*
X126137439Y-70830520D01*
X125760406Y-70578594D01*
X125341469Y-70405065D01*
X124896727Y-70316600D01*
X124443273Y-70316600D01*
X123998531Y-70405065D01*
X123579594Y-70578594D01*
X123202561Y-70830520D01*
X122881920Y-71151161D01*
X122629994Y-71528194D01*
X122456465Y-71947131D01*
X122368000Y-72391873D01*
X114694927Y-72391873D01*
X114623770Y-72344328D01*
X114382272Y-72244296D01*
X114125898Y-72193300D01*
X113864502Y-72193300D01*
X113608128Y-72244296D01*
X113366630Y-72344328D01*
X113181093Y-72468300D01*
X112383693Y-72468300D01*
X112236170Y-72369728D01*
X111994672Y-72269696D01*
X111738298Y-72218700D01*
X111476902Y-72218700D01*
X111220528Y-72269696D01*
X110979030Y-72369728D01*
X110761687Y-72514952D01*
X110576852Y-72699787D01*
X110431628Y-72917130D01*
X110331596Y-73158628D01*
X110280600Y-73415002D01*
X110280600Y-73676398D01*
X110331596Y-73932772D01*
X110431628Y-74174270D01*
X110576852Y-74391613D01*
X110761687Y-74576448D01*
X110979030Y-74721672D01*
X111220528Y-74821704D01*
X111476902Y-74872700D01*
X111738298Y-74872700D01*
X111994672Y-74821704D01*
X112236170Y-74721672D01*
X112453513Y-74576448D01*
X112457661Y-74572300D01*
X112998400Y-74572300D01*
X112998400Y-74806698D01*
X113049396Y-75063072D01*
X113149428Y-75304570D01*
X113219240Y-75409051D01*
X113125596Y-75635128D01*
X113074600Y-75891502D01*
X113074600Y-76152898D01*
X113125596Y-76409272D01*
X113225628Y-76650770D01*
X113349600Y-76836307D01*
X113349601Y-80657949D01*
X112922531Y-80230880D01*
X112889577Y-80190725D01*
X112729389Y-80059263D01*
X112546632Y-79961577D01*
X112348329Y-79901423D01*
X112193780Y-79886201D01*
X112142101Y-79881111D01*
X112090422Y-79886201D01*
X111329180Y-79886201D01*
X111331277Y-79875661D01*
X111331277Y-79614265D01*
X111280281Y-79357891D01*
X111180249Y-79116393D01*
X111035025Y-78899050D01*
X110850190Y-78714215D01*
X110676496Y-78598156D01*
X110658541Y-78507891D01*
X110558509Y-78266393D01*
X110413285Y-78049050D01*
X110228450Y-77864215D01*
X110011107Y-77718991D01*
X109769609Y-77618959D01*
X109550752Y-77575426D01*
X109190679Y-77215353D01*
X109235603Y-76989503D01*
X109235603Y-76728107D01*
X109184607Y-76471733D01*
X109084575Y-76230235D01*
X108939351Y-76012892D01*
X108754516Y-75828057D01*
X108537173Y-75682833D01*
X108295675Y-75582801D01*
X108039301Y-75531805D01*
X107777905Y-75531805D01*
X107521531Y-75582801D01*
X107280033Y-75682833D01*
X107062690Y-75828057D01*
X106877855Y-76012892D01*
X106732631Y-76230235D01*
X106724362Y-76250197D01*
X106496128Y-76295596D01*
X106254630Y-76395628D01*
X106037287Y-76540852D01*
X105852452Y-76725687D01*
X105707228Y-76943030D01*
X105607196Y-77184528D01*
X105556200Y-77440902D01*
X105556200Y-77702298D01*
X105607196Y-77958672D01*
X105707228Y-78200170D01*
X105852452Y-78417513D01*
X106037287Y-78602348D01*
X106254630Y-78747572D01*
X106273811Y-78755517D01*
X106114930Y-78821328D01*
X105897587Y-78966552D01*
X105712752Y-79151387D01*
X105567528Y-79368730D01*
X105467496Y-79610228D01*
X105416500Y-79866602D01*
X105416500Y-80127998D01*
X105467496Y-80384372D01*
X105567528Y-80625870D01*
X105662116Y-80767431D01*
X105356086Y-81073462D01*
X105137228Y-81116996D01*
X104895730Y-81217028D01*
X104678387Y-81362252D01*
X104493552Y-81547087D01*
X104348328Y-81764430D01*
X104248296Y-82005928D01*
X104197300Y-82262302D01*
X99718680Y-82262302D01*
X99793288Y-82016353D01*
X99827598Y-81668000D01*
X99793288Y-81319647D01*
X99691677Y-80984681D01*
X99526670Y-80675975D01*
X99314955Y-80418000D01*
X99526670Y-80160025D01*
X99691677Y-79851319D01*
X99793288Y-79516353D01*
X99819173Y-79253543D01*
X99942928Y-79304804D01*
X100199302Y-79355800D01*
X100460698Y-79355800D01*
X100717072Y-79304804D01*
X100958570Y-79204772D01*
X101175913Y-79059548D01*
X101360748Y-78874713D01*
X101505972Y-78657370D01*
X101606004Y-78415872D01*
X101657000Y-78159498D01*
X101657000Y-77898102D01*
X101606004Y-77641728D01*
X101505972Y-77400230D01*
X101360748Y-77182887D01*
X101175913Y-76998052D01*
X100958570Y-76852828D01*
X100717072Y-76752796D01*
X100460698Y-76701800D01*
X100199302Y-76701800D01*
X100077465Y-76726035D01*
X99820656Y-76597515D01*
X99800893Y-76396860D01*
X99972713Y-76225040D01*
X100012858Y-76192094D01*
X100144320Y-76031906D01*
X100242006Y-75849149D01*
X100302160Y-75650846D01*
X100317382Y-75496297D01*
X100322472Y-75444619D01*
X100317382Y-75392940D01*
X100317382Y-64637600D01*
X107432215Y-64637600D01*
X107432215Y-67137600D01*
X107450113Y-67319324D01*
X107503120Y-67494064D01*
X107589199Y-67655105D01*
X107705041Y-67796259D01*
X107846195Y-67912101D01*
X108007236Y-67998180D01*
X108181976Y-68051187D01*
X108363700Y-68069085D01*
X110863700Y-68069085D01*
X111045424Y-68051187D01*
X111220164Y-67998180D01*
X111381205Y-67912101D01*
X111522359Y-67796259D01*
X111638201Y-67655105D01*
X111724280Y-67494064D01*
X111777287Y-67319324D01*
X111795185Y-67137600D01*
X111795185Y-64637600D01*
X111777287Y-64455876D01*
X111724280Y-64281136D01*
X111638201Y-64120095D01*
X111522359Y-63978941D01*
X111381205Y-63863099D01*
X111220164Y-63777020D01*
X111045424Y-63724013D01*
X110863700Y-63706115D01*
X108363700Y-63706115D01*
X108181976Y-63724013D01*
X108007236Y-63777020D01*
X107846195Y-63863099D01*
X107705041Y-63978941D01*
X107589199Y-64120095D01*
X107503120Y-64281136D01*
X107450113Y-64455876D01*
X107432215Y-64637600D01*
X100317382Y-64637600D01*
X100317382Y-59703600D01*
X108073515Y-59703600D01*
X108073515Y-61403600D01*
X108091413Y-61585324D01*
X108144420Y-61760064D01*
X108230499Y-61921105D01*
X108346341Y-62062259D01*
X108487495Y-62178101D01*
X108648536Y-62264180D01*
X108823276Y-62317187D01*
X109005000Y-62335085D01*
X110705000Y-62335085D01*
X110886724Y-62317187D01*
X111061464Y-62264180D01*
X111222505Y-62178101D01*
X111363659Y-62062259D01*
X111381612Y-62040383D01*
X111513275Y-62128357D01*
X111836668Y-62262311D01*
X112179981Y-62330600D01*
X112530019Y-62330600D01*
X112873332Y-62262311D01*
X113196725Y-62128357D01*
X113487771Y-61933886D01*
X113735286Y-61686371D01*
X113929757Y-61395325D01*
X114063711Y-61071932D01*
X114132000Y-60728619D01*
X114132000Y-60378581D01*
X114063711Y-60035268D01*
X113929757Y-59711875D01*
X113824001Y-59553600D01*
X113929757Y-59395325D01*
X114063711Y-59071932D01*
X114132000Y-58728619D01*
X114132000Y-58378581D01*
X114063711Y-58035268D01*
X113929757Y-57711875D01*
X113797013Y-57513209D01*
X115634997Y-57513209D01*
X115821073Y-57854366D01*
X116238409Y-58070113D01*
X116689815Y-58200296D01*
X117157946Y-58239913D01*
X117624811Y-58187442D01*
X118072468Y-58044897D01*
X118428927Y-57854366D01*
X118615003Y-57513209D01*
X118594695Y-57492900D01*
X121413197Y-57492900D01*
X121440749Y-57772641D01*
X121522346Y-58041631D01*
X121654853Y-58289534D01*
X121788492Y-58452374D01*
X122156792Y-58820674D01*
X125970675Y-62634558D01*
X126133515Y-62768197D01*
X126381418Y-62900704D01*
X126534145Y-62947034D01*
X126560628Y-63010970D01*
X126705852Y-63228313D01*
X126890687Y-63413148D01*
X127108030Y-63558372D01*
X127349528Y-63658404D01*
X127605902Y-63709400D01*
X127867298Y-63709400D01*
X128123672Y-63658404D01*
X128365170Y-63558372D01*
X128582513Y-63413148D01*
X128767348Y-63228313D01*
X128912572Y-63010970D01*
X129012604Y-62769472D01*
X129063600Y-62513098D01*
X129063600Y-62251702D01*
X129012604Y-61995328D01*
X128912572Y-61753830D01*
X128767348Y-61536487D01*
X128582513Y-61351652D01*
X128365170Y-61206428D01*
X128301234Y-61179945D01*
X128254904Y-61027218D01*
X128122397Y-60779315D01*
X127988758Y-60616475D01*
X124174874Y-56802592D01*
X123806574Y-56434292D01*
X123643734Y-56300653D01*
X123395831Y-56168146D01*
X123126841Y-56086549D01*
X122847100Y-56058997D01*
X122567359Y-56086549D01*
X122298369Y-56168146D01*
X122050466Y-56300653D01*
X121833177Y-56478977D01*
X121654853Y-56696266D01*
X121522346Y-56944169D01*
X121440749Y-57213159D01*
X121413197Y-57492900D01*
X118594695Y-57492900D01*
X117125000Y-56023205D01*
X115634997Y-57513209D01*
X113797013Y-57513209D01*
X113735286Y-57420829D01*
X113487771Y-57173314D01*
X113196725Y-56978843D01*
X112873332Y-56844889D01*
X112530019Y-56776600D01*
X112179981Y-56776600D01*
X111836668Y-56844889D01*
X111513275Y-56978843D01*
X111222229Y-57173314D01*
X110974714Y-57420829D01*
X110780243Y-57711875D01*
X110712299Y-57875906D01*
X110034605Y-58553600D01*
X110048748Y-58567743D01*
X109869143Y-58747348D01*
X109855000Y-58733205D01*
X109840858Y-58747348D01*
X109661253Y-58567743D01*
X109675395Y-58553600D01*
X108826603Y-57704808D01*
X108577528Y-57782443D01*
X108451629Y-58046483D01*
X108379661Y-58330011D01*
X108364389Y-58622131D01*
X108406401Y-58911619D01*
X108429465Y-58976723D01*
X108346341Y-59044941D01*
X108230499Y-59186095D01*
X108144420Y-59347136D01*
X108091413Y-59521876D01*
X108073515Y-59703600D01*
X100317382Y-59703600D01*
X100317382Y-59528060D01*
X100322472Y-59476381D01*
X100302160Y-59270154D01*
X100260233Y-59131938D01*
X100242006Y-59071851D01*
X100144320Y-58889094D01*
X100012858Y-58728906D01*
X99972713Y-58695960D01*
X99800893Y-58524140D01*
X99827598Y-58253000D01*
X99793288Y-57904647D01*
X99691677Y-57569681D01*
X99661493Y-57513209D01*
X103594997Y-57513209D01*
X103781073Y-57854366D01*
X104198409Y-58070113D01*
X104649815Y-58200296D01*
X105117946Y-58239913D01*
X105584811Y-58187442D01*
X106032468Y-58044897D01*
X106388927Y-57854366D01*
X106568461Y-57525203D01*
X109006208Y-57525203D01*
X109855000Y-58373995D01*
X110703792Y-57525203D01*
X110626157Y-57276128D01*
X110362117Y-57150229D01*
X110078589Y-57078261D01*
X109786469Y-57062989D01*
X109496981Y-57105001D01*
X109221253Y-57202681D01*
X109083843Y-57276128D01*
X109006208Y-57525203D01*
X106568461Y-57525203D01*
X106575003Y-57513209D01*
X105085000Y-56023205D01*
X103594997Y-57513209D01*
X99661493Y-57513209D01*
X99526670Y-57260975D01*
X99471283Y-57193486D01*
X99477436Y-57188436D01*
X99624369Y-57009398D01*
X99733550Y-56805135D01*
X99800783Y-56583496D01*
X99823485Y-56353000D01*
X99823485Y-55876546D01*
X102688687Y-55876546D01*
X102741158Y-56343411D01*
X102883703Y-56791068D01*
X103074234Y-57147527D01*
X103415391Y-57333603D01*
X104905395Y-55843600D01*
X105264605Y-55843600D01*
X106754609Y-57333603D01*
X107095766Y-57147527D01*
X107311513Y-56730191D01*
X107441696Y-56278785D01*
X107475736Y-55876546D01*
X114728687Y-55876546D01*
X114781158Y-56343411D01*
X114923703Y-56791068D01*
X115114234Y-57147527D01*
X115455391Y-57333603D01*
X116945395Y-55843600D01*
X117304605Y-55843600D01*
X118794609Y-57333603D01*
X119135766Y-57147527D01*
X119351513Y-56730191D01*
X119481696Y-56278785D01*
X119521313Y-55810654D01*
X119468842Y-55343789D01*
X119420032Y-55190502D01*
X148774300Y-55190502D01*
X148774300Y-55451898D01*
X148825296Y-55708272D01*
X148924301Y-55947290D01*
X148924300Y-58624491D01*
X148825296Y-58863508D01*
X148774300Y-59119882D01*
X148774300Y-59381278D01*
X148825296Y-59637652D01*
X148925328Y-59879150D01*
X149070552Y-60096493D01*
X149255387Y-60281328D01*
X149472730Y-60426552D01*
X149714228Y-60526584D01*
X149970602Y-60577580D01*
X150231998Y-60577580D01*
X150488372Y-60526584D01*
X150729870Y-60426552D01*
X150947213Y-60281328D01*
X151132048Y-60096493D01*
X151277272Y-59879150D01*
X151377304Y-59637652D01*
X151428300Y-59381278D01*
X151428300Y-59119882D01*
X151377304Y-58863508D01*
X151278300Y-58624492D01*
X151278300Y-55947288D01*
X151377304Y-55708272D01*
X151428300Y-55451898D01*
X151428300Y-55190502D01*
X151377304Y-54934128D01*
X151277272Y-54692630D01*
X151132048Y-54475287D01*
X150947213Y-54290452D01*
X150729870Y-54145228D01*
X150488372Y-54045196D01*
X150231998Y-53994200D01*
X149970602Y-53994200D01*
X149714228Y-54045196D01*
X149472730Y-54145228D01*
X149255387Y-54290452D01*
X149070552Y-54475287D01*
X148925328Y-54692630D01*
X148825296Y-54934128D01*
X148774300Y-55190502D01*
X119420032Y-55190502D01*
X119326297Y-54896132D01*
X119135766Y-54539673D01*
X118794609Y-54353597D01*
X117304605Y-55843600D01*
X116945395Y-55843600D01*
X115455391Y-54353597D01*
X115114234Y-54539673D01*
X114898487Y-54957009D01*
X114768304Y-55408415D01*
X114728687Y-55876546D01*
X107475736Y-55876546D01*
X107481313Y-55810654D01*
X107428842Y-55343789D01*
X107286297Y-54896132D01*
X107095766Y-54539673D01*
X106754609Y-54353597D01*
X105264605Y-55843600D01*
X104905395Y-55843600D01*
X103415391Y-54353597D01*
X103074234Y-54539673D01*
X102858487Y-54957009D01*
X102728304Y-55408415D01*
X102688687Y-55876546D01*
X99823485Y-55876546D01*
X99823485Y-55153000D01*
X99800783Y-54922504D01*
X99733550Y-54700865D01*
X99624369Y-54496602D01*
X99477436Y-54317564D01*
X99302493Y-54173991D01*
X103594997Y-54173991D01*
X105085000Y-55663995D01*
X106575003Y-54173991D01*
X115634997Y-54173991D01*
X117125000Y-55663995D01*
X118615003Y-54173991D01*
X118428927Y-53832834D01*
X118011591Y-53617087D01*
X117560185Y-53486904D01*
X117092054Y-53447287D01*
X116625189Y-53499758D01*
X116177532Y-53642303D01*
X115821073Y-53832834D01*
X115634997Y-54173991D01*
X106575003Y-54173991D01*
X106388927Y-53832834D01*
X105971591Y-53617087D01*
X105520185Y-53486904D01*
X105052054Y-53447287D01*
X104585189Y-53499758D01*
X104137532Y-53642303D01*
X103781073Y-53832834D01*
X103594997Y-54173991D01*
X99302493Y-54173991D01*
X99298398Y-54170631D01*
X99094135Y-54061450D01*
X98872496Y-53994217D01*
X98642000Y-53971515D01*
X97192000Y-53971515D01*
X96961504Y-53994217D01*
X96739865Y-54061450D01*
X96535602Y-54170631D01*
X96356564Y-54317564D01*
X96209631Y-54496602D01*
X96100450Y-54700865D01*
X96033217Y-54922504D01*
X96010515Y-55153000D01*
X96010515Y-56353000D01*
X96033217Y-56583496D01*
X96100450Y-56805135D01*
X96209631Y-57009398D01*
X96356564Y-57188436D01*
X96362717Y-57193486D01*
X96307330Y-57260975D01*
X96142323Y-57569681D01*
X96040712Y-57904647D01*
X96006402Y-58253000D01*
X96040712Y-58601353D01*
X96142323Y-58936319D01*
X96307330Y-59245025D01*
X96519045Y-59503000D01*
X96307330Y-59760975D01*
X96142323Y-60069681D01*
X96040712Y-60404647D01*
X96006402Y-60753000D01*
X96040712Y-61101353D01*
X96142323Y-61436319D01*
X96307330Y-61745025D01*
X96519045Y-62003000D01*
X96307330Y-62260975D01*
X96142323Y-62569681D01*
X96040712Y-62904647D01*
X96006402Y-63253000D01*
X96040712Y-63601353D01*
X96142323Y-63936319D01*
X96307330Y-64245025D01*
X96519045Y-64503000D01*
X96307330Y-64760975D01*
X96142323Y-65069681D01*
X96040712Y-65404647D01*
X96006402Y-65753000D01*
X96040712Y-66101353D01*
X96142323Y-66436319D01*
X96307330Y-66745025D01*
X96529392Y-67015608D01*
X96752077Y-67198361D01*
X96589504Y-67381807D01*
X96442648Y-67633142D01*
X96350524Y-67896110D01*
X96471845Y-68126000D01*
X97790000Y-68126000D01*
X97790000Y-68106000D01*
X98044000Y-68106000D01*
X98044000Y-68126000D01*
X98064000Y-68126000D01*
X98064000Y-68380000D01*
X98044000Y-68380000D01*
X98044000Y-68400000D01*
X97790000Y-68400000D01*
X97790000Y-68380000D01*
X96471845Y-68380000D01*
X96350524Y-68609890D01*
X96442648Y-68872858D01*
X96577004Y-69102800D01*
X96256087Y-69102800D01*
X96070550Y-68978828D01*
X95829052Y-68878796D01*
X95572678Y-68827800D01*
X95311282Y-68827800D01*
X95054908Y-68878796D01*
X94813410Y-68978828D01*
X94807417Y-68982832D01*
X94854316Y-52427530D01*
X94970504Y-52505164D01*
X95648774Y-52786113D01*
X96368823Y-52929340D01*
X97102977Y-52929340D01*
X97823026Y-52786113D01*
X98501296Y-52505164D01*
X99111724Y-52097290D01*
X99630850Y-51578164D01*
X100038724Y-50967736D01*
X100319673Y-50289466D01*
X100462900Y-49569417D01*
X100462900Y-49391873D01*
X122368000Y-49391873D01*
X122368000Y-49845327D01*
X122456465Y-50290069D01*
X122629994Y-50709006D01*
X122881920Y-51086039D01*
X123202561Y-51406680D01*
X123579594Y-51658606D01*
X123998531Y-51832135D01*
X124443273Y-51920600D01*
X124896727Y-51920600D01*
X125341469Y-51832135D01*
X125760406Y-51658606D01*
X126137439Y-51406680D01*
X126458080Y-51086039D01*
X126710006Y-50709006D01*
X126883535Y-50290069D01*
X126972000Y-49845327D01*
X126972000Y-49391873D01*
X126883535Y-48947131D01*
X126710006Y-48528194D01*
X126458080Y-48151161D01*
X126137439Y-47830520D01*
X125760406Y-47578594D01*
X125341469Y-47405065D01*
X124896727Y-47316600D01*
X124443273Y-47316600D01*
X123998531Y-47405065D01*
X123579594Y-47578594D01*
X123202561Y-47830520D01*
X122881920Y-48151161D01*
X122629994Y-48528194D01*
X122456465Y-48947131D01*
X122368000Y-49391873D01*
X100462900Y-49391873D01*
X100462900Y-48835263D01*
X100319673Y-48115214D01*
X100038724Y-47436944D01*
X99976997Y-47344562D01*
X144910672Y-47117624D01*
X145008654Y-50473506D01*
X145008654Y-50473506D01*
G37*
X145008654Y-50473506D02*
X145011816Y-50498201D01*
X145019736Y-50521804D01*
X145032108Y-50543409D01*
X145048457Y-50562185D01*
X145068154Y-50577411D01*
X145090444Y-50588501D01*
X145114469Y-50595030D01*
X145136654Y-50596796D01*
X148196295Y-50571405D01*
X166470541Y-50723796D01*
X166495337Y-50721562D01*
X166519221Y-50714534D01*
X166541274Y-50702981D01*
X166560651Y-50687348D01*
X166576605Y-50668236D01*
X166588523Y-50646378D01*
X166595949Y-50622614D01*
X166598546Y-50600506D01*
X166696529Y-47244604D01*
X182418527Y-47321522D01*
X181998531Y-47405065D01*
X181579594Y-47578594D01*
X181202561Y-47830520D01*
X180881920Y-48151161D01*
X180629994Y-48528194D01*
X180456465Y-48947131D01*
X180368000Y-49391873D01*
X180368000Y-49845327D01*
X180456465Y-50290069D01*
X180629994Y-50709006D01*
X180881920Y-51086039D01*
X181202561Y-51406680D01*
X181579594Y-51658606D01*
X181998531Y-51832135D01*
X182443273Y-51920600D01*
X182896727Y-51920600D01*
X183341469Y-51832135D01*
X183760406Y-51658606D01*
X184137439Y-51406680D01*
X184458080Y-51086039D01*
X184710006Y-50709006D01*
X184840052Y-50395046D01*
X184884227Y-50617126D01*
X185165176Y-51295396D01*
X185573050Y-51905824D01*
X186092176Y-52424950D01*
X186702604Y-52832824D01*
X187380874Y-53113773D01*
X188100923Y-53257000D01*
X188835077Y-53257000D01*
X189555126Y-53113773D01*
X190233396Y-52832824D01*
X190843824Y-52424950D01*
X191362950Y-51905824D01*
X191770824Y-51295396D01*
X192051773Y-50617126D01*
X192116752Y-50290455D01*
X192116753Y-102235000D01*
X176530000Y-102235000D01*
X176505224Y-102237440D01*
X176481399Y-102244667D01*
X176459443Y-102256403D01*
X176440197Y-102272197D01*
X176424403Y-102291443D01*
X176412667Y-102313399D01*
X176405440Y-102337224D01*
X176403000Y-102362000D01*
X176403000Y-107657900D01*
X176405440Y-107682676D01*
X176412667Y-107706501D01*
X176424403Y-107728457D01*
X176440197Y-107747703D01*
X176459443Y-107763497D01*
X176481399Y-107775233D01*
X176505224Y-107782460D01*
X176529577Y-107784899D01*
X187833000Y-107822577D01*
X187833000Y-118626173D01*
X187616176Y-118771050D01*
X187097050Y-119290176D01*
X186689176Y-119900604D01*
X186408227Y-120578874D01*
X186265000Y-121298923D01*
X186265000Y-122033077D01*
X186408227Y-122753126D01*
X186689176Y-123431396D01*
X187097050Y-124041824D01*
X187616176Y-124560950D01*
X187833000Y-124705827D01*
X187833000Y-130683000D01*
X185674000Y-130683000D01*
X185649224Y-130685440D01*
X185625399Y-130692667D01*
X185603443Y-130704403D01*
X185584197Y-130720197D01*
X185568403Y-130739443D01*
X185556667Y-130761399D01*
X185549440Y-130785224D01*
X185547000Y-130810000D01*
X185547000Y-136624748D01*
X185140236Y-137031512D01*
X95463800Y-136781717D01*
X95463800Y-125441542D01*
X95516604Y-125476824D01*
X96194874Y-125757773D01*
X96914923Y-125901000D01*
X97649077Y-125901000D01*
X98369126Y-125757773D01*
X99047396Y-125476824D01*
X99657824Y-125068950D01*
X100176950Y-124549824D01*
X100584824Y-123939396D01*
X100865773Y-123261126D01*
X101009000Y-122541077D01*
X101009000Y-121806923D01*
X100865773Y-121086874D01*
X100584824Y-120408604D01*
X100176950Y-119798176D01*
X99657824Y-119279050D01*
X99047396Y-118871176D01*
X98369126Y-118590227D01*
X97649077Y-118447000D01*
X96914923Y-118447000D01*
X96194874Y-118590227D01*
X95516604Y-118871176D01*
X94906176Y-119279050D01*
X94664250Y-119520976D01*
X94678430Y-114515290D01*
X96350924Y-114515290D01*
X96352846Y-114527661D01*
X96452546Y-114801409D01*
X96603736Y-115050446D01*
X96800605Y-115265202D01*
X97035588Y-115437425D01*
X97299655Y-115560496D01*
X97582658Y-115629685D01*
X97815400Y-115485632D01*
X97815400Y-114285400D01*
X98069400Y-114285400D01*
X98069400Y-115485632D01*
X98302142Y-115629685D01*
X98585145Y-115560496D01*
X98849212Y-115437425D01*
X99084195Y-115265202D01*
X99281064Y-115050446D01*
X99432254Y-114801409D01*
X99531954Y-114527661D01*
X99533876Y-114515290D01*
X99412555Y-114285400D01*
X98069400Y-114285400D01*
X97815400Y-114285400D01*
X96472245Y-114285400D01*
X96350924Y-114515290D01*
X94678430Y-114515290D01*
X94688223Y-111058400D01*
X96010915Y-111058400D01*
X96010915Y-112258400D01*
X96033617Y-112488896D01*
X96100850Y-112710535D01*
X96210031Y-112914798D01*
X96356964Y-113093836D01*
X96536002Y-113240769D01*
X96598868Y-113274372D01*
X96452546Y-113515391D01*
X96352846Y-113789139D01*
X96350924Y-113801510D01*
X96472245Y-114031400D01*
X97815400Y-114031400D01*
X97815400Y-114011400D01*
X98069400Y-114011400D01*
X98069400Y-114031400D01*
X99412555Y-114031400D01*
X99533876Y-113801510D01*
X99531954Y-113789139D01*
X99432254Y-113515391D01*
X99285932Y-113274372D01*
X99348798Y-113240769D01*
X99527836Y-113093836D01*
X99674769Y-112914798D01*
X99783950Y-112710535D01*
X99851183Y-112488896D01*
X99873885Y-112258400D01*
X99873885Y-111058400D01*
X99851183Y-110827904D01*
X99783950Y-110606265D01*
X99674769Y-110402002D01*
X99527836Y-110222964D01*
X99348798Y-110076031D01*
X99144535Y-109966850D01*
X98922896Y-109899617D01*
X98692400Y-109876915D01*
X97192400Y-109876915D01*
X96961904Y-109899617D01*
X96740265Y-109966850D01*
X96536002Y-110076031D01*
X96356964Y-110222964D01*
X96210031Y-110402002D01*
X96100850Y-110606265D01*
X96033617Y-110827904D01*
X96010915Y-111058400D01*
X94688223Y-111058400D01*
X94702894Y-105879290D01*
X96350924Y-105879290D01*
X96352846Y-105891661D01*
X96452546Y-106165409D01*
X96603736Y-106414446D01*
X96800605Y-106629202D01*
X97035588Y-106801425D01*
X97299655Y-106924496D01*
X97582658Y-106993685D01*
X97815400Y-106849632D01*
X97815400Y-105649400D01*
X98069400Y-105649400D01*
X98069400Y-106849632D01*
X98302142Y-106993685D01*
X98585145Y-106924496D01*
X98849212Y-106801425D01*
X99084195Y-106629202D01*
X99281064Y-106414446D01*
X99432254Y-106165409D01*
X99531954Y-105891661D01*
X99533876Y-105879290D01*
X99412555Y-105649400D01*
X98069400Y-105649400D01*
X97815400Y-105649400D01*
X96472245Y-105649400D01*
X96350924Y-105879290D01*
X94702894Y-105879290D01*
X94712687Y-102422400D01*
X96010915Y-102422400D01*
X96010915Y-103622400D01*
X96033617Y-103852896D01*
X96100850Y-104074535D01*
X96210031Y-104278798D01*
X96356964Y-104457836D01*
X96536002Y-104604769D01*
X96598868Y-104638372D01*
X96452546Y-104879391D01*
X96352846Y-105153139D01*
X96350924Y-105165510D01*
X96472245Y-105395400D01*
X97815400Y-105395400D01*
X97815400Y-105375400D01*
X98069400Y-105375400D01*
X98069400Y-105395400D01*
X99412555Y-105395400D01*
X99533876Y-105165510D01*
X99531954Y-105153139D01*
X99432254Y-104879391D01*
X99285932Y-104638372D01*
X99348798Y-104604769D01*
X99527836Y-104457836D01*
X99674769Y-104278798D01*
X99783950Y-104074535D01*
X99851183Y-103852896D01*
X99873885Y-103622400D01*
X99873885Y-102422400D01*
X99851183Y-102191904D01*
X99783950Y-101970265D01*
X99674769Y-101766002D01*
X99527836Y-101586964D01*
X99348798Y-101440031D01*
X99144535Y-101330850D01*
X98922896Y-101263617D01*
X98692400Y-101240915D01*
X97192400Y-101240915D01*
X96961904Y-101263617D01*
X96740265Y-101330850D01*
X96536002Y-101440031D01*
X96356964Y-101586964D01*
X96210031Y-101766002D01*
X96100850Y-101970265D01*
X96033617Y-102191904D01*
X96010915Y-102422400D01*
X94712687Y-102422400D01*
X94727358Y-97243290D01*
X96350924Y-97243290D01*
X96352846Y-97255661D01*
X96452546Y-97529409D01*
X96603736Y-97778446D01*
X96800605Y-97993202D01*
X97035588Y-98165425D01*
X97299655Y-98288496D01*
X97582658Y-98357685D01*
X97815400Y-98213632D01*
X97815400Y-97013400D01*
X98069400Y-97013400D01*
X98069400Y-98213632D01*
X98302142Y-98357685D01*
X98585145Y-98288496D01*
X98849212Y-98165425D01*
X99084195Y-97993202D01*
X99281064Y-97778446D01*
X99432254Y-97529409D01*
X99531954Y-97255661D01*
X99533876Y-97243290D01*
X99412555Y-97013400D01*
X98069400Y-97013400D01*
X97815400Y-97013400D01*
X96472245Y-97013400D01*
X96350924Y-97243290D01*
X94727358Y-97243290D01*
X94737151Y-93786400D01*
X96010915Y-93786400D01*
X96010915Y-94986400D01*
X96033617Y-95216896D01*
X96100850Y-95438535D01*
X96210031Y-95642798D01*
X96356964Y-95821836D01*
X96536002Y-95968769D01*
X96598868Y-96002372D01*
X96452546Y-96243391D01*
X96352846Y-96517139D01*
X96350924Y-96529510D01*
X96472245Y-96759400D01*
X97815400Y-96759400D01*
X97815400Y-96739400D01*
X98069400Y-96739400D01*
X98069400Y-96759400D01*
X99412555Y-96759400D01*
X99533876Y-96529510D01*
X99531954Y-96517139D01*
X99432254Y-96243391D01*
X99285932Y-96002372D01*
X99348798Y-95968769D01*
X99527836Y-95821836D01*
X99674769Y-95642798D01*
X99783950Y-95438535D01*
X99851183Y-95216896D01*
X99873885Y-94986400D01*
X99873885Y-93786400D01*
X99851183Y-93555904D01*
X99783950Y-93334265D01*
X99674769Y-93130002D01*
X99527836Y-92950964D01*
X99348798Y-92804031D01*
X99144535Y-92694850D01*
X98922896Y-92627617D01*
X98692400Y-92604915D01*
X97192400Y-92604915D01*
X96961904Y-92627617D01*
X96740265Y-92694850D01*
X96536002Y-92804031D01*
X96356964Y-92950964D01*
X96210031Y-93130002D01*
X96100850Y-93334265D01*
X96033617Y-93555904D01*
X96010915Y-93786400D01*
X94737151Y-93786400D01*
X94740071Y-92755932D01*
X94810487Y-92826348D01*
X95027830Y-92971572D01*
X95269328Y-93071604D01*
X95525702Y-93122600D01*
X95787098Y-93122600D01*
X96043472Y-93071604D01*
X96284970Y-92971572D01*
X96502313Y-92826348D01*
X96687148Y-92641513D01*
X96832372Y-92424170D01*
X96932404Y-92182672D01*
X96983400Y-91926298D01*
X96983400Y-91664902D01*
X96932404Y-91408528D01*
X96832372Y-91167030D01*
X96708400Y-90981493D01*
X96708400Y-87673355D01*
X96782571Y-87757049D01*
X97014430Y-87933053D01*
X97276170Y-88060442D01*
X97557733Y-88134320D01*
X97790000Y-87994165D01*
X97790000Y-86795000D01*
X98044000Y-86795000D01*
X98044000Y-87994165D01*
X98276267Y-88134320D01*
X98557830Y-88060442D01*
X98819570Y-87933053D01*
X99051429Y-87757049D01*
X99244496Y-87539193D01*
X99391352Y-87287858D01*
X99483476Y-87024890D01*
X99362155Y-86795000D01*
X98044000Y-86795000D01*
X97790000Y-86795000D01*
X97770000Y-86795000D01*
X97770000Y-86541000D01*
X97790000Y-86541000D01*
X97790000Y-86521000D01*
X98044000Y-86521000D01*
X98044000Y-86541000D01*
X99362155Y-86541000D01*
X99483476Y-86311110D01*
X99391352Y-86048142D01*
X99244496Y-85796807D01*
X99081923Y-85613361D01*
X99304608Y-85430608D01*
X99526670Y-85160025D01*
X99691677Y-84851319D01*
X99793288Y-84516353D01*
X99827598Y-84168000D01*
X99793288Y-83819647D01*
X99691677Y-83484681D01*
X99526670Y-83175975D01*
X99314955Y-82918000D01*
X99526670Y-82660025D01*
X99691677Y-82351319D01*
X99718680Y-82262302D01*
X104197300Y-82262302D01*
X104197300Y-82523698D01*
X104248296Y-82780072D01*
X104348328Y-83021570D01*
X104493552Y-83238913D01*
X104678387Y-83423748D01*
X104895730Y-83568972D01*
X105137228Y-83669004D01*
X105393602Y-83720000D01*
X105654998Y-83720000D01*
X105911372Y-83669004D01*
X106152870Y-83568972D01*
X106370213Y-83423748D01*
X106555048Y-83238913D01*
X106700272Y-83021570D01*
X106800304Y-82780072D01*
X106843838Y-82561214D01*
X107414852Y-81990201D01*
X109708035Y-81990201D01*
X109647549Y-82050687D01*
X109502325Y-82268030D01*
X109402293Y-82509528D01*
X109351297Y-82765902D01*
X109351297Y-83027298D01*
X109402293Y-83283672D01*
X109415758Y-83316179D01*
X105594665Y-87137274D01*
X105554515Y-87170224D01*
X105423053Y-87330412D01*
X105389203Y-87393741D01*
X105325366Y-87513170D01*
X105265212Y-87711473D01*
X105244900Y-87917700D01*
X105249991Y-87969389D01*
X105249990Y-93330023D01*
X105244900Y-93381702D01*
X105249990Y-93433380D01*
X105265212Y-93587929D01*
X105325366Y-93786232D01*
X105423052Y-93968990D01*
X105554514Y-94129178D01*
X105594669Y-94162132D01*
X106145515Y-94712979D01*
X106145515Y-95475300D01*
X106163413Y-95657024D01*
X106216420Y-95831764D01*
X106302499Y-95992805D01*
X106418341Y-96133959D01*
X106559495Y-96249801D01*
X106720536Y-96335880D01*
X106895276Y-96388887D01*
X107077000Y-96406785D01*
X109077000Y-96406785D01*
X109258724Y-96388887D01*
X109347000Y-96362109D01*
X109435276Y-96388887D01*
X109617000Y-96406785D01*
X111617000Y-96406785D01*
X111798724Y-96388887D01*
X111973464Y-96335880D01*
X112134505Y-96249801D01*
X112275659Y-96133959D01*
X112391501Y-95992805D01*
X112477580Y-95831764D01*
X112530587Y-95657024D01*
X112548485Y-95475300D01*
X112548485Y-95276933D01*
X112614476Y-95222776D01*
X112647430Y-95182622D01*
X112776325Y-95053726D01*
X112816477Y-95020775D01*
X112947939Y-94860587D01*
X113045625Y-94677830D01*
X113105779Y-94479527D01*
X113112227Y-94414063D01*
X113126092Y-94273299D01*
X113121001Y-94221613D01*
X113121001Y-91862400D01*
X115441915Y-91862400D01*
X115441915Y-93862400D01*
X115443000Y-93873416D01*
X115443000Y-94391384D01*
X115441915Y-94402400D01*
X115441915Y-96402400D01*
X115443000Y-96413416D01*
X115443000Y-96931384D01*
X115441915Y-96942400D01*
X115441915Y-98942400D01*
X115443000Y-98953416D01*
X115443000Y-122936000D01*
X115445440Y-122960776D01*
X115452667Y-122984601D01*
X115464403Y-123006557D01*
X115480197Y-123025803D01*
X115499443Y-123041597D01*
X115521399Y-123053333D01*
X115545224Y-123060560D01*
X115570000Y-123063000D01*
X162052000Y-123063000D01*
X162076776Y-123060560D01*
X162100601Y-123053333D01*
X162122557Y-123041597D01*
X162141803Y-123025803D01*
X162157597Y-123006557D01*
X162169333Y-122984601D01*
X162176560Y-122960776D01*
X162178983Y-122933952D01*
X161993296Y-111421280D01*
X177908126Y-111421280D01*
X178028014Y-111706136D01*
X178351710Y-111866999D01*
X178700569Y-111961622D01*
X179061184Y-111986367D01*
X179419698Y-111940285D01*
X179762333Y-111825146D01*
X179984986Y-111706136D01*
X180104874Y-111421280D01*
X179006500Y-110322905D01*
X177908126Y-111421280D01*
X161993296Y-111421280D01*
X161973565Y-110197984D01*
X177163433Y-110197984D01*
X177209515Y-110556498D01*
X177324654Y-110899133D01*
X177443664Y-111121786D01*
X177728520Y-111241674D01*
X178826895Y-110143300D01*
X179186105Y-110143300D01*
X180284480Y-111241674D01*
X180569336Y-111121786D01*
X180730199Y-110798090D01*
X180824822Y-110449231D01*
X180849567Y-110088616D01*
X180803485Y-109730102D01*
X180688346Y-109387467D01*
X180569336Y-109164814D01*
X180284480Y-109044926D01*
X179186105Y-110143300D01*
X178826895Y-110143300D01*
X177728520Y-109044926D01*
X177443664Y-109164814D01*
X177282801Y-109488510D01*
X177188178Y-109837369D01*
X177163433Y-110197984D01*
X161973565Y-110197984D01*
X161952071Y-108865320D01*
X177908126Y-108865320D01*
X179006500Y-109963695D01*
X180104874Y-108865320D01*
X179984986Y-108580464D01*
X179661290Y-108419601D01*
X179312431Y-108324978D01*
X178951816Y-108300233D01*
X178593302Y-108346315D01*
X178250667Y-108461454D01*
X178028014Y-108580464D01*
X177908126Y-108865320D01*
X161952071Y-108865320D01*
X161924983Y-107185952D01*
X161922144Y-107161218D01*
X161914534Y-107137513D01*
X161902445Y-107115749D01*
X161886343Y-107096761D01*
X161866845Y-107081279D01*
X161844702Y-107069899D01*
X161820764Y-107063057D01*
X161798000Y-107061000D01*
X157226000Y-107061000D01*
X157201224Y-107063440D01*
X157177399Y-107070667D01*
X157155443Y-107082403D01*
X157136197Y-107098197D01*
X157120403Y-107117443D01*
X157108667Y-107139399D01*
X157101440Y-107163224D01*
X157099000Y-107188000D01*
X157099000Y-110109000D01*
X152747369Y-110109000D01*
X151511000Y-106152618D01*
X151511000Y-90043000D01*
X155134486Y-90043000D01*
X155166865Y-90371749D01*
X155195191Y-90465126D01*
X155195190Y-92130192D01*
X155219455Y-92376558D01*
X155315348Y-92692674D01*
X155471069Y-92984008D01*
X155680634Y-93239366D01*
X155935991Y-93448931D01*
X156227325Y-93604652D01*
X156543441Y-93700545D01*
X156872190Y-93732924D01*
X157200938Y-93700545D01*
X157517054Y-93604652D01*
X157808388Y-93448931D01*
X158063746Y-93239366D01*
X158273311Y-92984009D01*
X158429032Y-92692675D01*
X158524925Y-92376559D01*
X158549190Y-92130193D01*
X158549190Y-91720000D01*
X159486001Y-91720000D01*
X159486000Y-93416582D01*
X159510265Y-93662948D01*
X159606158Y-93979064D01*
X159761879Y-94270398D01*
X159971444Y-94525756D01*
X160226801Y-94735321D01*
X160518135Y-94891042D01*
X160834251Y-94986935D01*
X161163000Y-95019314D01*
X161491748Y-94986935D01*
X161807864Y-94891042D01*
X162099198Y-94735321D01*
X162354556Y-94525756D01*
X162564121Y-94270399D01*
X162719842Y-93979065D01*
X162815735Y-93662949D01*
X162840000Y-93416583D01*
X162840000Y-91466302D01*
X165297000Y-91466302D01*
X165297000Y-91727698D01*
X165347996Y-91984072D01*
X165448028Y-92225570D01*
X165572001Y-92411109D01*
X165572000Y-100786321D01*
X165566910Y-100838000D01*
X165572000Y-100889678D01*
X165587222Y-101044227D01*
X165647376Y-101242530D01*
X165745062Y-101425288D01*
X165876524Y-101585476D01*
X165916679Y-101618430D01*
X167248400Y-102950153D01*
X167248400Y-103071893D01*
X167124428Y-103257430D01*
X167024396Y-103498928D01*
X166973400Y-103755302D01*
X166973400Y-104016698D01*
X167024396Y-104273072D01*
X167124428Y-104514570D01*
X167269652Y-104731913D01*
X167454487Y-104916748D01*
X167671830Y-105061972D01*
X167913328Y-105162004D01*
X168169702Y-105213000D01*
X168431098Y-105213000D01*
X168687472Y-105162004D01*
X168928970Y-105061972D01*
X169146313Y-104916748D01*
X169331148Y-104731913D01*
X169476372Y-104514570D01*
X169576404Y-104273072D01*
X169627400Y-104016698D01*
X169627400Y-103755302D01*
X169576404Y-103498928D01*
X169476372Y-103257430D01*
X169352400Y-103071893D01*
X169352400Y-102566079D01*
X169357490Y-102514400D01*
X169337178Y-102308172D01*
X169277024Y-102109869D01*
X169179338Y-101927112D01*
X169160306Y-101903921D01*
X169047876Y-101766924D01*
X169007731Y-101733978D01*
X167676000Y-100402249D01*
X167676000Y-92411107D01*
X167799972Y-92225570D01*
X167900004Y-91984072D01*
X167951000Y-91727698D01*
X167951000Y-91466302D01*
X167900004Y-91209928D01*
X167799972Y-90968430D01*
X167654748Y-90751087D01*
X167469913Y-90566252D01*
X167252570Y-90421028D01*
X167011072Y-90320996D01*
X166754698Y-90270000D01*
X166493302Y-90270000D01*
X166236928Y-90320996D01*
X165995430Y-90421028D01*
X165778087Y-90566252D01*
X165593252Y-90751087D01*
X165448028Y-90968430D01*
X165347996Y-91209928D01*
X165297000Y-91466302D01*
X162840000Y-91466302D01*
X162840000Y-91436200D01*
X163650420Y-91436200D01*
X163732800Y-91444314D01*
X163815180Y-91436200D01*
X163815183Y-91436200D01*
X164061549Y-91411935D01*
X164377665Y-91316042D01*
X164668999Y-91160321D01*
X164924356Y-90950756D01*
X164976880Y-90886755D01*
X165211556Y-90652079D01*
X165275556Y-90599556D01*
X165485121Y-90344199D01*
X165640842Y-90052865D01*
X165736735Y-89736749D01*
X165761000Y-89490383D01*
X165761000Y-89490380D01*
X165769114Y-89408000D01*
X165761000Y-89325620D01*
X165761000Y-88982383D01*
X165769114Y-88900000D01*
X165761000Y-88817617D01*
X165761000Y-87966383D01*
X165769114Y-87884000D01*
X165736735Y-87555251D01*
X165640842Y-87239135D01*
X165485121Y-86947801D01*
X165275556Y-86692444D01*
X165020199Y-86482879D01*
X164728865Y-86327158D01*
X164412749Y-86231265D01*
X164166383Y-86207000D01*
X164084000Y-86198886D01*
X164001618Y-86207000D01*
X162134380Y-86207000D01*
X162052000Y-86198886D01*
X161969620Y-86207000D01*
X161969617Y-86207000D01*
X161723251Y-86231265D01*
X161407135Y-86327158D01*
X161115801Y-86482879D01*
X160860444Y-86692444D01*
X160807920Y-86756445D01*
X160539036Y-87025329D01*
X160475045Y-87077845D01*
X160422529Y-87141836D01*
X160265480Y-87333201D01*
X160109759Y-87624535D01*
X160013866Y-87940651D01*
X160001652Y-88064653D01*
X159971444Y-88089444D01*
X159761879Y-88344801D01*
X159750548Y-88366000D01*
X156901980Y-88366000D01*
X156819600Y-88357886D01*
X156737220Y-88366000D01*
X156737217Y-88366000D01*
X156490851Y-88390265D01*
X156174735Y-88486158D01*
X155883401Y-88641879D01*
X155628044Y-88851444D01*
X155418479Y-89106801D01*
X155262758Y-89398135D01*
X155166865Y-89714251D01*
X155134486Y-90043000D01*
X151511000Y-90043000D01*
X151511000Y-89662000D01*
X151508560Y-89637224D01*
X151501333Y-89613399D01*
X151489597Y-89591443D01*
X151473803Y-89572197D01*
X151454557Y-89556403D01*
X151432601Y-89544667D01*
X151408776Y-89537440D01*
X151384000Y-89535000D01*
X130845647Y-89535000D01*
X130844800Y-89338150D01*
X130686050Y-89179400D01*
X129336800Y-89179400D01*
X129336800Y-89199400D01*
X129082800Y-89199400D01*
X129082800Y-89179400D01*
X129062800Y-89179400D01*
X129062800Y-88925400D01*
X129082800Y-88925400D01*
X129082800Y-87576150D01*
X129336800Y-87576150D01*
X129336800Y-88925400D01*
X130686050Y-88925400D01*
X130844800Y-88766650D01*
X130847872Y-88052400D01*
X130835612Y-87927918D01*
X130799302Y-87808220D01*
X130740337Y-87697906D01*
X130660985Y-87601215D01*
X130564294Y-87521863D01*
X130453980Y-87462898D01*
X130334282Y-87426588D01*
X130209800Y-87414328D01*
X129495550Y-87417400D01*
X129336800Y-87576150D01*
X129082800Y-87576150D01*
X128924050Y-87417400D01*
X128345834Y-87414913D01*
X128328459Y-87393741D01*
X128187305Y-87277899D01*
X128026264Y-87191820D01*
X127851524Y-87138813D01*
X127669800Y-87120915D01*
X125669800Y-87120915D01*
X125488076Y-87138813D01*
X125399800Y-87165591D01*
X125311524Y-87138813D01*
X125129800Y-87120915D01*
X123129800Y-87120915D01*
X122948076Y-87138813D01*
X122773336Y-87191820D01*
X122612295Y-87277899D01*
X122471141Y-87393741D01*
X122355299Y-87534895D01*
X122269220Y-87695936D01*
X122216213Y-87870676D01*
X122198315Y-88052400D01*
X122198315Y-89535000D01*
X115570000Y-89535000D01*
X115545224Y-89537440D01*
X115521399Y-89544667D01*
X115499443Y-89556403D01*
X115480197Y-89572197D01*
X115464403Y-89591443D01*
X115452667Y-89613399D01*
X115445440Y-89637224D01*
X115443000Y-89662000D01*
X115443000Y-91851384D01*
X115441915Y-91862400D01*
X113121001Y-91862400D01*
X113121001Y-87609680D01*
X113126091Y-87558001D01*
X113105779Y-87351773D01*
X113045625Y-87153470D01*
X112947939Y-86970713D01*
X112857580Y-86860610D01*
X112816477Y-86810525D01*
X112776332Y-86777579D01*
X111860338Y-85861586D01*
X111816804Y-85642728D01*
X111716772Y-85401230D01*
X111571548Y-85183887D01*
X111386713Y-84999052D01*
X111361588Y-84982264D01*
X111865553Y-84478300D01*
X112609593Y-84478300D01*
X112795130Y-84602272D01*
X113036628Y-84702304D01*
X113293002Y-84753300D01*
X113554398Y-84753300D01*
X113810772Y-84702304D01*
X114052270Y-84602272D01*
X114269613Y-84457048D01*
X114454448Y-84272213D01*
X114599672Y-84054870D01*
X114699704Y-83813372D01*
X114750700Y-83556998D01*
X114750700Y-83295602D01*
X114699704Y-83039228D01*
X114610160Y-82823050D01*
X114624908Y-82787446D01*
X114816981Y-82979520D01*
X114860515Y-83198378D01*
X114960547Y-83439876D01*
X115105771Y-83657219D01*
X115290606Y-83842054D01*
X115507949Y-83987278D01*
X115749447Y-84087310D01*
X116005821Y-84138306D01*
X116267217Y-84138306D01*
X116523591Y-84087310D01*
X116765089Y-83987278D01*
X116982432Y-83842054D01*
X117167267Y-83657219D01*
X117279536Y-83489197D01*
X117418128Y-83546604D01*
X117521049Y-83567076D01*
X117481500Y-83765902D01*
X117481500Y-84027298D01*
X117532496Y-84283672D01*
X117632528Y-84525170D01*
X117777752Y-84742513D01*
X117962587Y-84927348D01*
X118179930Y-85072572D01*
X118421428Y-85172604D01*
X118677802Y-85223600D01*
X118939198Y-85223600D01*
X119195572Y-85172604D01*
X119437070Y-85072572D01*
X119654413Y-84927348D01*
X119839248Y-84742513D01*
X119984472Y-84525170D01*
X120084504Y-84283672D01*
X120135500Y-84027298D01*
X120135500Y-83765902D01*
X120084504Y-83509528D01*
X119984472Y-83268030D01*
X119860500Y-83082493D01*
X119860500Y-82727255D01*
X120513647Y-82727255D01*
X120513647Y-82988651D01*
X120564643Y-83245025D01*
X120664675Y-83486523D01*
X120809899Y-83703866D01*
X120994734Y-83888701D01*
X121212077Y-84033925D01*
X121453575Y-84133957D01*
X121709949Y-84184953D01*
X121971345Y-84184953D01*
X122198111Y-84139846D01*
X122195515Y-84166200D01*
X122195515Y-86166200D01*
X122213413Y-86347924D01*
X122266420Y-86522664D01*
X122352499Y-86683705D01*
X122468341Y-86824859D01*
X122609495Y-86940701D01*
X122770536Y-87026780D01*
X122945276Y-87079787D01*
X123127000Y-87097685D01*
X125127000Y-87097685D01*
X125308724Y-87079787D01*
X125397000Y-87053009D01*
X125485276Y-87079787D01*
X125667000Y-87097685D01*
X127667000Y-87097685D01*
X127848724Y-87079787D01*
X127937000Y-87053009D01*
X128025276Y-87079787D01*
X128207000Y-87097685D01*
X130207000Y-87097685D01*
X130388724Y-87079787D01*
X130563464Y-87026780D01*
X130724505Y-86940701D01*
X130865659Y-86824859D01*
X130981501Y-86683705D01*
X131067580Y-86522664D01*
X131120587Y-86347924D01*
X131138485Y-86166200D01*
X131138485Y-84166200D01*
X131120587Y-83984476D01*
X131097981Y-83909953D01*
X134986808Y-83909953D01*
X135038487Y-83915043D01*
X135090166Y-83909953D01*
X135244715Y-83894731D01*
X135443018Y-83834577D01*
X135625775Y-83736891D01*
X135785963Y-83605429D01*
X135818918Y-83565274D01*
X137249992Y-82134200D01*
X145566315Y-82134200D01*
X145566315Y-84134200D01*
X145584213Y-84315924D01*
X145637220Y-84490664D01*
X145723299Y-84651705D01*
X145839141Y-84792859D01*
X145980295Y-84908701D01*
X146141336Y-84994780D01*
X146316076Y-85047787D01*
X146497800Y-85065685D01*
X148497800Y-85065685D01*
X148679524Y-85047787D01*
X148854264Y-84994780D01*
X149015305Y-84908701D01*
X149156459Y-84792859D01*
X149272301Y-84651705D01*
X149358380Y-84490664D01*
X149411387Y-84315924D01*
X149429285Y-84134200D01*
X149429285Y-82693000D01*
X159739515Y-82693000D01*
X159739515Y-84693000D01*
X159757413Y-84874724D01*
X159810420Y-85049464D01*
X159896499Y-85210505D01*
X160012341Y-85351659D01*
X160153495Y-85467501D01*
X160314536Y-85553580D01*
X160489276Y-85606587D01*
X160671000Y-85624485D01*
X162671000Y-85624485D01*
X162852724Y-85606587D01*
X163027464Y-85553580D01*
X163188505Y-85467501D01*
X163329659Y-85351659D01*
X163445501Y-85210505D01*
X163531580Y-85049464D01*
X163584587Y-84874724D01*
X163602485Y-84693000D01*
X163602485Y-82693000D01*
X163584587Y-82511276D01*
X163531580Y-82336536D01*
X163445501Y-82175495D01*
X163329659Y-82034341D01*
X163188505Y-81918499D01*
X163027464Y-81832420D01*
X162852724Y-81779413D01*
X162671000Y-81761515D01*
X160671000Y-81761515D01*
X160489276Y-81779413D01*
X160314536Y-81832420D01*
X160153495Y-81918499D01*
X160012341Y-82034341D01*
X159896499Y-82175495D01*
X159810420Y-82336536D01*
X159757413Y-82511276D01*
X159739515Y-82693000D01*
X149429285Y-82693000D01*
X149429285Y-82134200D01*
X149411387Y-81952476D01*
X149358380Y-81777736D01*
X149272301Y-81616695D01*
X149156459Y-81475541D01*
X149015305Y-81359699D01*
X148854264Y-81273620D01*
X148679524Y-81220613D01*
X148497800Y-81202715D01*
X146497800Y-81202715D01*
X146316076Y-81220613D01*
X146141336Y-81273620D01*
X145980295Y-81359699D01*
X145839141Y-81475541D01*
X145723299Y-81616695D01*
X145637220Y-81777736D01*
X145584213Y-81952476D01*
X145566315Y-82134200D01*
X137249992Y-82134200D01*
X137655939Y-81728253D01*
X137839784Y-81746360D01*
X138014376Y-81746360D01*
X138275433Y-81720648D01*
X138610399Y-81619037D01*
X138919105Y-81454030D01*
X139189688Y-81231968D01*
X139197080Y-81222961D01*
X139204472Y-81231968D01*
X139475055Y-81454030D01*
X139783761Y-81619037D01*
X140118727Y-81720648D01*
X140379784Y-81746360D01*
X140554376Y-81746360D01*
X140815433Y-81720648D01*
X141150399Y-81619037D01*
X141459105Y-81454030D01*
X141729688Y-81231968D01*
X141932644Y-80984666D01*
X142006811Y-81066948D01*
X142240160Y-81241001D01*
X142502981Y-81366185D01*
X142650190Y-81410836D01*
X142880080Y-81289515D01*
X142880080Y-80096360D01*
X143134080Y-80096360D01*
X143134080Y-81289515D01*
X143363970Y-81410836D01*
X143511179Y-81366185D01*
X143774000Y-81241001D01*
X144007349Y-81066948D01*
X144202258Y-80850715D01*
X144351237Y-80600612D01*
X144448561Y-80326251D01*
X144327894Y-80096360D01*
X143134080Y-80096360D01*
X142880080Y-80096360D01*
X142860080Y-80096360D01*
X142860080Y-79842360D01*
X142880080Y-79842360D01*
X142880080Y-78649205D01*
X143134080Y-78649205D01*
X143134080Y-79842360D01*
X144327894Y-79842360D01*
X144448561Y-79612469D01*
X144351237Y-79338108D01*
X144202258Y-79088005D01*
X144007349Y-78871772D01*
X143774000Y-78697719D01*
X143511179Y-78572535D01*
X143363970Y-78527884D01*
X143134080Y-78649205D01*
X142880080Y-78649205D01*
X142650190Y-78527884D01*
X142502981Y-78572535D01*
X142240160Y-78697719D01*
X142006811Y-78871772D01*
X141932644Y-78954054D01*
X141729688Y-78706752D01*
X141459105Y-78484690D01*
X141150399Y-78319683D01*
X140815433Y-78218072D01*
X140554376Y-78192360D01*
X140379784Y-78192360D01*
X140118727Y-78218072D01*
X139783761Y-78319683D01*
X139475055Y-78484690D01*
X139204472Y-78706752D01*
X139197080Y-78715759D01*
X139189688Y-78706752D01*
X138919105Y-78484690D01*
X138610399Y-78319683D01*
X138275433Y-78218072D01*
X138014376Y-78192360D01*
X137839784Y-78192360D01*
X137578727Y-78218072D01*
X137243761Y-78319683D01*
X136935055Y-78484690D01*
X136923326Y-78494316D01*
X136895739Y-78460701D01*
X136754585Y-78344859D01*
X136593544Y-78258780D01*
X136418804Y-78205773D01*
X136237080Y-78187875D01*
X134537080Y-78187875D01*
X134355356Y-78205773D01*
X134180616Y-78258780D01*
X134019575Y-78344859D01*
X133878421Y-78460701D01*
X133762579Y-78601855D01*
X133676500Y-78762896D01*
X133623493Y-78937636D01*
X133605595Y-79119360D01*
X133605595Y-80819360D01*
X133623493Y-81001084D01*
X133676500Y-81175824D01*
X133762579Y-81336865D01*
X133878421Y-81478019D01*
X134019575Y-81593861D01*
X134180616Y-81679940D01*
X134355356Y-81732947D01*
X134537080Y-81750845D01*
X134657844Y-81750845D01*
X134602736Y-81805953D01*
X130795798Y-81805953D01*
X130794000Y-81387950D01*
X130635250Y-81229200D01*
X129286000Y-81229200D01*
X129286000Y-81249200D01*
X129032000Y-81249200D01*
X129032000Y-81229200D01*
X129012000Y-81229200D01*
X129012000Y-80975200D01*
X129032000Y-80975200D01*
X129032000Y-79625950D01*
X129286000Y-79625950D01*
X129286000Y-80975200D01*
X130635250Y-80975200D01*
X130794000Y-80816450D01*
X130797072Y-80102200D01*
X130784812Y-79977718D01*
X130748502Y-79858020D01*
X130689537Y-79747706D01*
X130610185Y-79651015D01*
X130513494Y-79571663D01*
X130403180Y-79512698D01*
X130283482Y-79476388D01*
X130159000Y-79464128D01*
X129444750Y-79467200D01*
X129286000Y-79625950D01*
X129032000Y-79625950D01*
X128873250Y-79467200D01*
X128296846Y-79464721D01*
X128277659Y-79441341D01*
X128136505Y-79325499D01*
X127975464Y-79239420D01*
X127800724Y-79186413D01*
X127619000Y-79168515D01*
X125619000Y-79168515D01*
X125437276Y-79186413D01*
X125262536Y-79239420D01*
X125101495Y-79325499D01*
X124960341Y-79441341D01*
X124844499Y-79582495D01*
X124758420Y-79743536D01*
X124705413Y-79918276D01*
X124687515Y-80100000D01*
X124687515Y-81805953D01*
X122654754Y-81805953D01*
X122469217Y-81681981D01*
X122227719Y-81581949D01*
X121971345Y-81530953D01*
X121709949Y-81530953D01*
X121453575Y-81581949D01*
X121212077Y-81681981D01*
X120994734Y-81827205D01*
X120809899Y-82012040D01*
X120664675Y-82229383D01*
X120564643Y-82470881D01*
X120513647Y-82727255D01*
X119860500Y-82727255D01*
X119860500Y-79047810D01*
X119873476Y-79037161D01*
X120004938Y-78876973D01*
X120102624Y-78694215D01*
X120107780Y-78677218D01*
X120133182Y-78593479D01*
X120156748Y-78569913D01*
X120228114Y-78463106D01*
X120402072Y-78428504D01*
X120643570Y-78328472D01*
X120860913Y-78183248D01*
X121045748Y-77998413D01*
X121190972Y-77781070D01*
X121291004Y-77539572D01*
X121342000Y-77283198D01*
X121342000Y-77021802D01*
X121338990Y-77006671D01*
X121363248Y-76982413D01*
X121508472Y-76765070D01*
X121608504Y-76523572D01*
X121659500Y-76267198D01*
X121659500Y-76005802D01*
X121608504Y-75749428D01*
X121508472Y-75507930D01*
X121363248Y-75290587D01*
X121178413Y-75105752D01*
X120961070Y-74960528D01*
X120719572Y-74860496D01*
X120463198Y-74809500D01*
X120201802Y-74809500D01*
X119945428Y-74860496D01*
X119703930Y-74960528D01*
X119486587Y-75105752D01*
X119442515Y-75149824D01*
X117317538Y-75313208D01*
X117306216Y-75312093D01*
X117214317Y-75321144D01*
X117174043Y-75324241D01*
X117162919Y-75326207D01*
X117099989Y-75332405D01*
X117061114Y-75344198D01*
X117021116Y-75351266D01*
X116962196Y-75374204D01*
X116901685Y-75392560D01*
X116865862Y-75411708D01*
X116828008Y-75426445D01*
X116774689Y-75460442D01*
X116718929Y-75490246D01*
X116687530Y-75516014D01*
X116653277Y-75537854D01*
X116607622Y-75581592D01*
X116598882Y-75588765D01*
X116570289Y-75617358D01*
X116503639Y-75681210D01*
X116497121Y-75690526D01*
X116291324Y-75896324D01*
X116291324Y-75641603D01*
X116296414Y-75589924D01*
X116276102Y-75383696D01*
X116215948Y-75185393D01*
X116118262Y-75002636D01*
X116019743Y-74882590D01*
X115986800Y-74842448D01*
X115946655Y-74809502D01*
X115644937Y-74507785D01*
X115601404Y-74288928D01*
X115501372Y-74047430D01*
X115356148Y-73830087D01*
X115298120Y-73772059D01*
X115322200Y-73650998D01*
X115322200Y-73389602D01*
X115271204Y-73133228D01*
X115171172Y-72891730D01*
X115025948Y-72674387D01*
X114841113Y-72489552D01*
X114694927Y-72391873D01*
X122368000Y-72391873D01*
X122368000Y-72845327D01*
X122456465Y-73290069D01*
X122629994Y-73709006D01*
X122881920Y-74086039D01*
X123202561Y-74406680D01*
X123579594Y-74658606D01*
X123998531Y-74832135D01*
X124443273Y-74920600D01*
X124896727Y-74920600D01*
X125341469Y-74832135D01*
X125760406Y-74658606D01*
X126137439Y-74406680D01*
X126458080Y-74086039D01*
X126590004Y-73888600D01*
X127754402Y-73888600D01*
X127788712Y-74236953D01*
X127890323Y-74571919D01*
X128055330Y-74880625D01*
X128277392Y-75151208D01*
X128547975Y-75373270D01*
X128856681Y-75538277D01*
X129191647Y-75639888D01*
X129452704Y-75665600D01*
X129627296Y-75665600D01*
X129888353Y-75639888D01*
X130223319Y-75538277D01*
X130532025Y-75373270D01*
X130802608Y-75151208D01*
X130810000Y-75142201D01*
X130817392Y-75151208D01*
X131087975Y-75373270D01*
X131396681Y-75538277D01*
X131731647Y-75639888D01*
X131992704Y-75665600D01*
X132167296Y-75665600D01*
X132428353Y-75639888D01*
X132763319Y-75538277D01*
X133072025Y-75373270D01*
X133342608Y-75151208D01*
X133350000Y-75142201D01*
X133357392Y-75151208D01*
X133627975Y-75373270D01*
X133936681Y-75538277D01*
X134271647Y-75639888D01*
X134532704Y-75665600D01*
X134707296Y-75665600D01*
X134968353Y-75639888D01*
X135303319Y-75538277D01*
X135612025Y-75373270D01*
X135882608Y-75151208D01*
X135890000Y-75142201D01*
X135897392Y-75151208D01*
X136167975Y-75373270D01*
X136476681Y-75538277D01*
X136811647Y-75639888D01*
X137072704Y-75665600D01*
X137247296Y-75665600D01*
X137508353Y-75639888D01*
X137843319Y-75538277D01*
X138152025Y-75373270D01*
X138422608Y-75151208D01*
X138430000Y-75142201D01*
X138437392Y-75151208D01*
X138707975Y-75373270D01*
X139016681Y-75538277D01*
X139351647Y-75639888D01*
X139612704Y-75665600D01*
X139787296Y-75665600D01*
X140048353Y-75639888D01*
X140383319Y-75538277D01*
X140692025Y-75373270D01*
X140962608Y-75151208D01*
X140970000Y-75142201D01*
X140977392Y-75151208D01*
X141247975Y-75373270D01*
X141556681Y-75538277D01*
X141891647Y-75639888D01*
X142152704Y-75665600D01*
X142327296Y-75665600D01*
X142588353Y-75639888D01*
X142923319Y-75538277D01*
X143232025Y-75373270D01*
X143502608Y-75151208D01*
X143510000Y-75142201D01*
X143517392Y-75151208D01*
X143787975Y-75373270D01*
X144096681Y-75538277D01*
X144431647Y-75639888D01*
X144692704Y-75665600D01*
X144867296Y-75665600D01*
X145128353Y-75639888D01*
X145463319Y-75538277D01*
X145772025Y-75373270D01*
X146042608Y-75151208D01*
X146050000Y-75142201D01*
X146057392Y-75151208D01*
X146327975Y-75373270D01*
X146636681Y-75538277D01*
X146971647Y-75639888D01*
X147232704Y-75665600D01*
X147407296Y-75665600D01*
X147668353Y-75639888D01*
X148003319Y-75538277D01*
X148312025Y-75373270D01*
X148582608Y-75151208D01*
X148590000Y-75142201D01*
X148597392Y-75151208D01*
X148867975Y-75373270D01*
X149176681Y-75538277D01*
X149511647Y-75639888D01*
X149772704Y-75665600D01*
X149947296Y-75665600D01*
X150208353Y-75639888D01*
X150543319Y-75538277D01*
X150852025Y-75373270D01*
X151122608Y-75151208D01*
X151130000Y-75142201D01*
X151137392Y-75151208D01*
X151407975Y-75373270D01*
X151716681Y-75538277D01*
X152051647Y-75639888D01*
X152312704Y-75665600D01*
X152487296Y-75665600D01*
X152748353Y-75639888D01*
X153083319Y-75538277D01*
X153392025Y-75373270D01*
X153662608Y-75151208D01*
X153670000Y-75142201D01*
X153677392Y-75151208D01*
X153947975Y-75373270D01*
X154256681Y-75538277D01*
X154591647Y-75639888D01*
X154852704Y-75665600D01*
X155027296Y-75665600D01*
X155288353Y-75639888D01*
X155623319Y-75538277D01*
X155932025Y-75373270D01*
X156202608Y-75151208D01*
X156210000Y-75142201D01*
X156217392Y-75151208D01*
X156487975Y-75373270D01*
X156796681Y-75538277D01*
X157131647Y-75639888D01*
X157392704Y-75665600D01*
X157567296Y-75665600D01*
X157828353Y-75639888D01*
X158163319Y-75538277D01*
X158472025Y-75373270D01*
X158742608Y-75151208D01*
X158750000Y-75142201D01*
X158757392Y-75151208D01*
X159027975Y-75373270D01*
X159336681Y-75538277D01*
X159671647Y-75639888D01*
X159932704Y-75665600D01*
X160107296Y-75665600D01*
X160368353Y-75639888D01*
X160703319Y-75538277D01*
X161012025Y-75373270D01*
X161282608Y-75151208D01*
X161290000Y-75142201D01*
X161297392Y-75151208D01*
X161567975Y-75373270D01*
X161876681Y-75538277D01*
X162211647Y-75639888D01*
X162472704Y-75665600D01*
X162647296Y-75665600D01*
X162908353Y-75639888D01*
X163243319Y-75538277D01*
X163552025Y-75373270D01*
X163822608Y-75151208D01*
X163830000Y-75142201D01*
X163837392Y-75151208D01*
X164107975Y-75373270D01*
X164416681Y-75538277D01*
X164751647Y-75639888D01*
X165012704Y-75665600D01*
X165187296Y-75665600D01*
X165448353Y-75639888D01*
X165783319Y-75538277D01*
X166092025Y-75373270D01*
X166362608Y-75151208D01*
X166370000Y-75142201D01*
X166377392Y-75151208D01*
X166647975Y-75373270D01*
X166956681Y-75538277D01*
X167291647Y-75639888D01*
X167552704Y-75665600D01*
X167727296Y-75665600D01*
X167988353Y-75639888D01*
X168323319Y-75538277D01*
X168632025Y-75373270D01*
X168902608Y-75151208D01*
X168910000Y-75142201D01*
X168917392Y-75151208D01*
X169187975Y-75373270D01*
X169496681Y-75538277D01*
X169831647Y-75639888D01*
X170092704Y-75665600D01*
X170267296Y-75665600D01*
X170528353Y-75639888D01*
X170863319Y-75538277D01*
X171172025Y-75373270D01*
X171442608Y-75151208D01*
X171450000Y-75142201D01*
X171457392Y-75151208D01*
X171727975Y-75373270D01*
X172036681Y-75538277D01*
X172371647Y-75639888D01*
X172632704Y-75665600D01*
X172807296Y-75665600D01*
X173068353Y-75639888D01*
X173403319Y-75538277D01*
X173712025Y-75373270D01*
X173982608Y-75151208D01*
X173990000Y-75142201D01*
X173997392Y-75151208D01*
X174267975Y-75373270D01*
X174576681Y-75538277D01*
X174911647Y-75639888D01*
X175172704Y-75665600D01*
X175347296Y-75665600D01*
X175608353Y-75639888D01*
X175943319Y-75538277D01*
X176252025Y-75373270D01*
X176522608Y-75151208D01*
X176530000Y-75142201D01*
X176537392Y-75151208D01*
X176807975Y-75373270D01*
X177116681Y-75538277D01*
X177451647Y-75639888D01*
X177712704Y-75665600D01*
X177887296Y-75665600D01*
X178148353Y-75639888D01*
X178483319Y-75538277D01*
X178792025Y-75373270D01*
X179062608Y-75151208D01*
X179284670Y-74880625D01*
X179449677Y-74571919D01*
X179551288Y-74236953D01*
X179585598Y-73888600D01*
X179551288Y-73540247D01*
X179449677Y-73205281D01*
X179284670Y-72896575D01*
X179062608Y-72625992D01*
X179053601Y-72618600D01*
X179062608Y-72611208D01*
X179242611Y-72391873D01*
X180368000Y-72391873D01*
X180368000Y-72845327D01*
X180456465Y-73290069D01*
X180629994Y-73709006D01*
X180881920Y-74086039D01*
X181202561Y-74406680D01*
X181579594Y-74658606D01*
X181998531Y-74832135D01*
X182443273Y-74920600D01*
X182896727Y-74920600D01*
X183341469Y-74832135D01*
X183760406Y-74658606D01*
X184137439Y-74406680D01*
X184458080Y-74086039D01*
X184710006Y-73709006D01*
X184883535Y-73290069D01*
X184972000Y-72845327D01*
X184972000Y-72391873D01*
X184883535Y-71947131D01*
X184710006Y-71528194D01*
X184458080Y-71151161D01*
X184137439Y-70830520D01*
X183760406Y-70578594D01*
X183341469Y-70405065D01*
X182896727Y-70316600D01*
X182443273Y-70316600D01*
X181998531Y-70405065D01*
X181579594Y-70578594D01*
X181202561Y-70830520D01*
X180881920Y-71151161D01*
X180629994Y-71528194D01*
X180456465Y-71947131D01*
X180368000Y-72391873D01*
X179242611Y-72391873D01*
X179284670Y-72340625D01*
X179449677Y-72031919D01*
X179551288Y-71696953D01*
X179585598Y-71348600D01*
X179551288Y-71000247D01*
X179449677Y-70665281D01*
X179284670Y-70356575D01*
X179062608Y-70085992D01*
X178792025Y-69863930D01*
X178483319Y-69698923D01*
X178148353Y-69597312D01*
X177887296Y-69571600D01*
X177712704Y-69571600D01*
X177451647Y-69597312D01*
X177116681Y-69698923D01*
X176807975Y-69863930D01*
X176537392Y-70085992D01*
X176530000Y-70094999D01*
X176522608Y-70085992D01*
X176252025Y-69863930D01*
X175943319Y-69698923D01*
X175608353Y-69597312D01*
X175347296Y-69571600D01*
X175172704Y-69571600D01*
X174911647Y-69597312D01*
X174576681Y-69698923D01*
X174267975Y-69863930D01*
X173997392Y-70085992D01*
X173990000Y-70094999D01*
X173982608Y-70085992D01*
X173712025Y-69863930D01*
X173403319Y-69698923D01*
X173068353Y-69597312D01*
X172807296Y-69571600D01*
X172632704Y-69571600D01*
X172371647Y-69597312D01*
X172036681Y-69698923D01*
X171727975Y-69863930D01*
X171457392Y-70085992D01*
X171450000Y-70094999D01*
X171442608Y-70085992D01*
X171172025Y-69863930D01*
X170863319Y-69698923D01*
X170528353Y-69597312D01*
X170267296Y-69571600D01*
X170092704Y-69571600D01*
X169831647Y-69597312D01*
X169496681Y-69698923D01*
X169187975Y-69863930D01*
X168917392Y-70085992D01*
X168910000Y-70094999D01*
X168902608Y-70085992D01*
X168632025Y-69863930D01*
X168323319Y-69698923D01*
X167988353Y-69597312D01*
X167727296Y-69571600D01*
X167552704Y-69571600D01*
X167291647Y-69597312D01*
X166956681Y-69698923D01*
X166647975Y-69863930D01*
X166377392Y-70085992D01*
X166370000Y-70094999D01*
X166362608Y-70085992D01*
X166092025Y-69863930D01*
X165783319Y-69698923D01*
X165448353Y-69597312D01*
X165187296Y-69571600D01*
X165012704Y-69571600D01*
X164751647Y-69597312D01*
X164416681Y-69698923D01*
X164107975Y-69863930D01*
X163837392Y-70085992D01*
X163830000Y-70094999D01*
X163822608Y-70085992D01*
X163552025Y-69863930D01*
X163243319Y-69698923D01*
X162908353Y-69597312D01*
X162647296Y-69571600D01*
X162472704Y-69571600D01*
X162211647Y-69597312D01*
X161876681Y-69698923D01*
X161567975Y-69863930D01*
X161297392Y-70085992D01*
X161290000Y-70094999D01*
X161282608Y-70085992D01*
X161012025Y-69863930D01*
X160703319Y-69698923D01*
X160368353Y-69597312D01*
X160107296Y-69571600D01*
X159932704Y-69571600D01*
X159671647Y-69597312D01*
X159336681Y-69698923D01*
X159027975Y-69863930D01*
X158757392Y-70085992D01*
X158750000Y-70094999D01*
X158742608Y-70085992D01*
X158472025Y-69863930D01*
X158163319Y-69698923D01*
X157828353Y-69597312D01*
X157567296Y-69571600D01*
X157392704Y-69571600D01*
X157131647Y-69597312D01*
X156796681Y-69698923D01*
X156487975Y-69863930D01*
X156217392Y-70085992D01*
X156210000Y-70094999D01*
X156202608Y-70085992D01*
X155932025Y-69863930D01*
X155623319Y-69698923D01*
X155288353Y-69597312D01*
X155027296Y-69571600D01*
X154852704Y-69571600D01*
X154591647Y-69597312D01*
X154256681Y-69698923D01*
X153947975Y-69863930D01*
X153677392Y-70085992D01*
X153670000Y-70094999D01*
X153662608Y-70085992D01*
X153392025Y-69863930D01*
X153083319Y-69698923D01*
X152748353Y-69597312D01*
X152487296Y-69571600D01*
X152312704Y-69571600D01*
X152051647Y-69597312D01*
X151716681Y-69698923D01*
X151407975Y-69863930D01*
X151137392Y-70085992D01*
X151130000Y-70094999D01*
X151122608Y-70085992D01*
X150852025Y-69863930D01*
X150543319Y-69698923D01*
X150208353Y-69597312D01*
X149947296Y-69571600D01*
X149772704Y-69571600D01*
X149511647Y-69597312D01*
X149176681Y-69698923D01*
X148867975Y-69863930D01*
X148597392Y-70085992D01*
X148590000Y-70094999D01*
X148582608Y-70085992D01*
X148312025Y-69863930D01*
X148003319Y-69698923D01*
X147668353Y-69597312D01*
X147407296Y-69571600D01*
X147232704Y-69571600D01*
X146971647Y-69597312D01*
X146636681Y-69698923D01*
X146327975Y-69863930D01*
X146057392Y-70085992D01*
X146050000Y-70094999D01*
X146042608Y-70085992D01*
X145772025Y-69863930D01*
X145463319Y-69698923D01*
X145128353Y-69597312D01*
X144867296Y-69571600D01*
X144692704Y-69571600D01*
X144431647Y-69597312D01*
X144096681Y-69698923D01*
X143787975Y-69863930D01*
X143517392Y-70085992D01*
X143510000Y-70094999D01*
X143502608Y-70085992D01*
X143232025Y-69863930D01*
X142923319Y-69698923D01*
X142588353Y-69597312D01*
X142327296Y-69571600D01*
X142152704Y-69571600D01*
X141891647Y-69597312D01*
X141556681Y-69698923D01*
X141247975Y-69863930D01*
X140977392Y-70085992D01*
X140970000Y-70094999D01*
X140962608Y-70085992D01*
X140692025Y-69863930D01*
X140383319Y-69698923D01*
X140048353Y-69597312D01*
X139787296Y-69571600D01*
X139612704Y-69571600D01*
X139351647Y-69597312D01*
X139016681Y-69698923D01*
X138707975Y-69863930D01*
X138437392Y-70085992D01*
X138430000Y-70094999D01*
X138422608Y-70085992D01*
X138152025Y-69863930D01*
X137843319Y-69698923D01*
X137508353Y-69597312D01*
X137247296Y-69571600D01*
X137072704Y-69571600D01*
X136811647Y-69597312D01*
X136476681Y-69698923D01*
X136167975Y-69863930D01*
X135897392Y-70085992D01*
X135890000Y-70094999D01*
X135882608Y-70085992D01*
X135612025Y-69863930D01*
X135303319Y-69698923D01*
X134968353Y-69597312D01*
X134707296Y-69571600D01*
X134532704Y-69571600D01*
X134271647Y-69597312D01*
X133936681Y-69698923D01*
X133627975Y-69863930D01*
X133357392Y-70085992D01*
X133350000Y-70094999D01*
X133342608Y-70085992D01*
X133072025Y-69863930D01*
X132763319Y-69698923D01*
X132428353Y-69597312D01*
X132167296Y-69571600D01*
X131992704Y-69571600D01*
X131731647Y-69597312D01*
X131396681Y-69698923D01*
X131087975Y-69863930D01*
X131076246Y-69873556D01*
X131048659Y-69839941D01*
X130907505Y-69724099D01*
X130746464Y-69638020D01*
X130571724Y-69585013D01*
X130390000Y-69567115D01*
X128690000Y-69567115D01*
X128508276Y-69585013D01*
X128333536Y-69638020D01*
X128172495Y-69724099D01*
X128031341Y-69839941D01*
X127915499Y-69981095D01*
X127829420Y-70142136D01*
X127776413Y-70316876D01*
X127758515Y-70498600D01*
X127758515Y-72198600D01*
X127776413Y-72380324D01*
X127829420Y-72555064D01*
X127915499Y-72716105D01*
X128031341Y-72857259D01*
X128064956Y-72884846D01*
X128055330Y-72896575D01*
X127890323Y-73205281D01*
X127788712Y-73540247D01*
X127754402Y-73888600D01*
X126590004Y-73888600D01*
X126710006Y-73709006D01*
X126883535Y-73290069D01*
X126972000Y-72845327D01*
X126972000Y-72391873D01*
X126883535Y-71947131D01*
X126710006Y-71528194D01*
X126458080Y-71151161D01*
X126137439Y-70830520D01*
X125760406Y-70578594D01*
X125341469Y-70405065D01*
X124896727Y-70316600D01*
X124443273Y-70316600D01*
X123998531Y-70405065D01*
X123579594Y-70578594D01*
X123202561Y-70830520D01*
X122881920Y-71151161D01*
X122629994Y-71528194D01*
X122456465Y-71947131D01*
X122368000Y-72391873D01*
X114694927Y-72391873D01*
X114623770Y-72344328D01*
X114382272Y-72244296D01*
X114125898Y-72193300D01*
X113864502Y-72193300D01*
X113608128Y-72244296D01*
X113366630Y-72344328D01*
X113181093Y-72468300D01*
X112383693Y-72468300D01*
X112236170Y-72369728D01*
X111994672Y-72269696D01*
X111738298Y-72218700D01*
X111476902Y-72218700D01*
X111220528Y-72269696D01*
X110979030Y-72369728D01*
X110761687Y-72514952D01*
X110576852Y-72699787D01*
X110431628Y-72917130D01*
X110331596Y-73158628D01*
X110280600Y-73415002D01*
X110280600Y-73676398D01*
X110331596Y-73932772D01*
X110431628Y-74174270D01*
X110576852Y-74391613D01*
X110761687Y-74576448D01*
X110979030Y-74721672D01*
X111220528Y-74821704D01*
X111476902Y-74872700D01*
X111738298Y-74872700D01*
X111994672Y-74821704D01*
X112236170Y-74721672D01*
X112453513Y-74576448D01*
X112457661Y-74572300D01*
X112998400Y-74572300D01*
X112998400Y-74806698D01*
X113049396Y-75063072D01*
X113149428Y-75304570D01*
X113219240Y-75409051D01*
X113125596Y-75635128D01*
X113074600Y-75891502D01*
X113074600Y-76152898D01*
X113125596Y-76409272D01*
X113225628Y-76650770D01*
X113349600Y-76836307D01*
X113349601Y-80657949D01*
X112922531Y-80230880D01*
X112889577Y-80190725D01*
X112729389Y-80059263D01*
X112546632Y-79961577D01*
X112348329Y-79901423D01*
X112193780Y-79886201D01*
X112142101Y-79881111D01*
X112090422Y-79886201D01*
X111329180Y-79886201D01*
X111331277Y-79875661D01*
X111331277Y-79614265D01*
X111280281Y-79357891D01*
X111180249Y-79116393D01*
X111035025Y-78899050D01*
X110850190Y-78714215D01*
X110676496Y-78598156D01*
X110658541Y-78507891D01*
X110558509Y-78266393D01*
X110413285Y-78049050D01*
X110228450Y-77864215D01*
X110011107Y-77718991D01*
X109769609Y-77618959D01*
X109550752Y-77575426D01*
X109190679Y-77215353D01*
X109235603Y-76989503D01*
X109235603Y-76728107D01*
X109184607Y-76471733D01*
X109084575Y-76230235D01*
X108939351Y-76012892D01*
X108754516Y-75828057D01*
X108537173Y-75682833D01*
X108295675Y-75582801D01*
X108039301Y-75531805D01*
X107777905Y-75531805D01*
X107521531Y-75582801D01*
X107280033Y-75682833D01*
X107062690Y-75828057D01*
X106877855Y-76012892D01*
X106732631Y-76230235D01*
X106724362Y-76250197D01*
X106496128Y-76295596D01*
X106254630Y-76395628D01*
X106037287Y-76540852D01*
X105852452Y-76725687D01*
X105707228Y-76943030D01*
X105607196Y-77184528D01*
X105556200Y-77440902D01*
X105556200Y-77702298D01*
X105607196Y-77958672D01*
X105707228Y-78200170D01*
X105852452Y-78417513D01*
X106037287Y-78602348D01*
X106254630Y-78747572D01*
X106273811Y-78755517D01*
X106114930Y-78821328D01*
X105897587Y-78966552D01*
X105712752Y-79151387D01*
X105567528Y-79368730D01*
X105467496Y-79610228D01*
X105416500Y-79866602D01*
X105416500Y-80127998D01*
X105467496Y-80384372D01*
X105567528Y-80625870D01*
X105662116Y-80767431D01*
X105356086Y-81073462D01*
X105137228Y-81116996D01*
X104895730Y-81217028D01*
X104678387Y-81362252D01*
X104493552Y-81547087D01*
X104348328Y-81764430D01*
X104248296Y-82005928D01*
X104197300Y-82262302D01*
X99718680Y-82262302D01*
X99793288Y-82016353D01*
X99827598Y-81668000D01*
X99793288Y-81319647D01*
X99691677Y-80984681D01*
X99526670Y-80675975D01*
X99314955Y-80418000D01*
X99526670Y-80160025D01*
X99691677Y-79851319D01*
X99793288Y-79516353D01*
X99819173Y-79253543D01*
X99942928Y-79304804D01*
X100199302Y-79355800D01*
X100460698Y-79355800D01*
X100717072Y-79304804D01*
X100958570Y-79204772D01*
X101175913Y-79059548D01*
X101360748Y-78874713D01*
X101505972Y-78657370D01*
X101606004Y-78415872D01*
X101657000Y-78159498D01*
X101657000Y-77898102D01*
X101606004Y-77641728D01*
X101505972Y-77400230D01*
X101360748Y-77182887D01*
X101175913Y-76998052D01*
X100958570Y-76852828D01*
X100717072Y-76752796D01*
X100460698Y-76701800D01*
X100199302Y-76701800D01*
X100077465Y-76726035D01*
X99820656Y-76597515D01*
X99800893Y-76396860D01*
X99972713Y-76225040D01*
X100012858Y-76192094D01*
X100144320Y-76031906D01*
X100242006Y-75849149D01*
X100302160Y-75650846D01*
X100317382Y-75496297D01*
X100322472Y-75444619D01*
X100317382Y-75392940D01*
X100317382Y-64637600D01*
X107432215Y-64637600D01*
X107432215Y-67137600D01*
X107450113Y-67319324D01*
X107503120Y-67494064D01*
X107589199Y-67655105D01*
X107705041Y-67796259D01*
X107846195Y-67912101D01*
X108007236Y-67998180D01*
X108181976Y-68051187D01*
X108363700Y-68069085D01*
X110863700Y-68069085D01*
X111045424Y-68051187D01*
X111220164Y-67998180D01*
X111381205Y-67912101D01*
X111522359Y-67796259D01*
X111638201Y-67655105D01*
X111724280Y-67494064D01*
X111777287Y-67319324D01*
X111795185Y-67137600D01*
X111795185Y-64637600D01*
X111777287Y-64455876D01*
X111724280Y-64281136D01*
X111638201Y-64120095D01*
X111522359Y-63978941D01*
X111381205Y-63863099D01*
X111220164Y-63777020D01*
X111045424Y-63724013D01*
X110863700Y-63706115D01*
X108363700Y-63706115D01*
X108181976Y-63724013D01*
X108007236Y-63777020D01*
X107846195Y-63863099D01*
X107705041Y-63978941D01*
X107589199Y-64120095D01*
X107503120Y-64281136D01*
X107450113Y-64455876D01*
X107432215Y-64637600D01*
X100317382Y-64637600D01*
X100317382Y-59703600D01*
X108073515Y-59703600D01*
X108073515Y-61403600D01*
X108091413Y-61585324D01*
X108144420Y-61760064D01*
X108230499Y-61921105D01*
X108346341Y-62062259D01*
X108487495Y-62178101D01*
X108648536Y-62264180D01*
X108823276Y-62317187D01*
X109005000Y-62335085D01*
X110705000Y-62335085D01*
X110886724Y-62317187D01*
X111061464Y-62264180D01*
X111222505Y-62178101D01*
X111363659Y-62062259D01*
X111381612Y-62040383D01*
X111513275Y-62128357D01*
X111836668Y-62262311D01*
X112179981Y-62330600D01*
X112530019Y-62330600D01*
X112873332Y-62262311D01*
X113196725Y-62128357D01*
X113487771Y-61933886D01*
X113735286Y-61686371D01*
X113929757Y-61395325D01*
X114063711Y-61071932D01*
X114132000Y-60728619D01*
X114132000Y-60378581D01*
X114063711Y-60035268D01*
X113929757Y-59711875D01*
X113824001Y-59553600D01*
X113929757Y-59395325D01*
X114063711Y-59071932D01*
X114132000Y-58728619D01*
X114132000Y-58378581D01*
X114063711Y-58035268D01*
X113929757Y-57711875D01*
X113797013Y-57513209D01*
X115634997Y-57513209D01*
X115821073Y-57854366D01*
X116238409Y-58070113D01*
X116689815Y-58200296D01*
X117157946Y-58239913D01*
X117624811Y-58187442D01*
X118072468Y-58044897D01*
X118428927Y-57854366D01*
X118615003Y-57513209D01*
X118594695Y-57492900D01*
X121413197Y-57492900D01*
X121440749Y-57772641D01*
X121522346Y-58041631D01*
X121654853Y-58289534D01*
X121788492Y-58452374D01*
X122156792Y-58820674D01*
X125970675Y-62634558D01*
X126133515Y-62768197D01*
X126381418Y-62900704D01*
X126534145Y-62947034D01*
X126560628Y-63010970D01*
X126705852Y-63228313D01*
X126890687Y-63413148D01*
X127108030Y-63558372D01*
X127349528Y-63658404D01*
X127605902Y-63709400D01*
X127867298Y-63709400D01*
X128123672Y-63658404D01*
X128365170Y-63558372D01*
X128582513Y-63413148D01*
X128767348Y-63228313D01*
X128912572Y-63010970D01*
X129012604Y-62769472D01*
X129063600Y-62513098D01*
X129063600Y-62251702D01*
X129012604Y-61995328D01*
X128912572Y-61753830D01*
X128767348Y-61536487D01*
X128582513Y-61351652D01*
X128365170Y-61206428D01*
X128301234Y-61179945D01*
X128254904Y-61027218D01*
X128122397Y-60779315D01*
X127988758Y-60616475D01*
X124174874Y-56802592D01*
X123806574Y-56434292D01*
X123643734Y-56300653D01*
X123395831Y-56168146D01*
X123126841Y-56086549D01*
X122847100Y-56058997D01*
X122567359Y-56086549D01*
X122298369Y-56168146D01*
X122050466Y-56300653D01*
X121833177Y-56478977D01*
X121654853Y-56696266D01*
X121522346Y-56944169D01*
X121440749Y-57213159D01*
X121413197Y-57492900D01*
X118594695Y-57492900D01*
X117125000Y-56023205D01*
X115634997Y-57513209D01*
X113797013Y-57513209D01*
X113735286Y-57420829D01*
X113487771Y-57173314D01*
X113196725Y-56978843D01*
X112873332Y-56844889D01*
X112530019Y-56776600D01*
X112179981Y-56776600D01*
X111836668Y-56844889D01*
X111513275Y-56978843D01*
X111222229Y-57173314D01*
X110974714Y-57420829D01*
X110780243Y-57711875D01*
X110712299Y-57875906D01*
X110034605Y-58553600D01*
X110048748Y-58567743D01*
X109869143Y-58747348D01*
X109855000Y-58733205D01*
X109840858Y-58747348D01*
X109661253Y-58567743D01*
X109675395Y-58553600D01*
X108826603Y-57704808D01*
X108577528Y-57782443D01*
X108451629Y-58046483D01*
X108379661Y-58330011D01*
X108364389Y-58622131D01*
X108406401Y-58911619D01*
X108429465Y-58976723D01*
X108346341Y-59044941D01*
X108230499Y-59186095D01*
X108144420Y-59347136D01*
X108091413Y-59521876D01*
X108073515Y-59703600D01*
X100317382Y-59703600D01*
X100317382Y-59528060D01*
X100322472Y-59476381D01*
X100302160Y-59270154D01*
X100260233Y-59131938D01*
X100242006Y-59071851D01*
X100144320Y-58889094D01*
X100012858Y-58728906D01*
X99972713Y-58695960D01*
X99800893Y-58524140D01*
X99827598Y-58253000D01*
X99793288Y-57904647D01*
X99691677Y-57569681D01*
X99661493Y-57513209D01*
X103594997Y-57513209D01*
X103781073Y-57854366D01*
X104198409Y-58070113D01*
X104649815Y-58200296D01*
X105117946Y-58239913D01*
X105584811Y-58187442D01*
X106032468Y-58044897D01*
X106388927Y-57854366D01*
X106568461Y-57525203D01*
X109006208Y-57525203D01*
X109855000Y-58373995D01*
X110703792Y-57525203D01*
X110626157Y-57276128D01*
X110362117Y-57150229D01*
X110078589Y-57078261D01*
X109786469Y-57062989D01*
X109496981Y-57105001D01*
X109221253Y-57202681D01*
X109083843Y-57276128D01*
X109006208Y-57525203D01*
X106568461Y-57525203D01*
X106575003Y-57513209D01*
X105085000Y-56023205D01*
X103594997Y-57513209D01*
X99661493Y-57513209D01*
X99526670Y-57260975D01*
X99471283Y-57193486D01*
X99477436Y-57188436D01*
X99624369Y-57009398D01*
X99733550Y-56805135D01*
X99800783Y-56583496D01*
X99823485Y-56353000D01*
X99823485Y-55876546D01*
X102688687Y-55876546D01*
X102741158Y-56343411D01*
X102883703Y-56791068D01*
X103074234Y-57147527D01*
X103415391Y-57333603D01*
X104905395Y-55843600D01*
X105264605Y-55843600D01*
X106754609Y-57333603D01*
X107095766Y-57147527D01*
X107311513Y-56730191D01*
X107441696Y-56278785D01*
X107475736Y-55876546D01*
X114728687Y-55876546D01*
X114781158Y-56343411D01*
X114923703Y-56791068D01*
X115114234Y-57147527D01*
X115455391Y-57333603D01*
X116945395Y-55843600D01*
X117304605Y-55843600D01*
X118794609Y-57333603D01*
X119135766Y-57147527D01*
X119351513Y-56730191D01*
X119481696Y-56278785D01*
X119521313Y-55810654D01*
X119468842Y-55343789D01*
X119420032Y-55190502D01*
X148774300Y-55190502D01*
X148774300Y-55451898D01*
X148825296Y-55708272D01*
X148924301Y-55947290D01*
X148924300Y-58624491D01*
X148825296Y-58863508D01*
X148774300Y-59119882D01*
X148774300Y-59381278D01*
X148825296Y-59637652D01*
X148925328Y-59879150D01*
X149070552Y-60096493D01*
X149255387Y-60281328D01*
X149472730Y-60426552D01*
X149714228Y-60526584D01*
X149970602Y-60577580D01*
X150231998Y-60577580D01*
X150488372Y-60526584D01*
X150729870Y-60426552D01*
X150947213Y-60281328D01*
X151132048Y-60096493D01*
X151277272Y-59879150D01*
X151377304Y-59637652D01*
X151428300Y-59381278D01*
X151428300Y-59119882D01*
X151377304Y-58863508D01*
X151278300Y-58624492D01*
X151278300Y-55947288D01*
X151377304Y-55708272D01*
X151428300Y-55451898D01*
X151428300Y-55190502D01*
X151377304Y-54934128D01*
X151277272Y-54692630D01*
X151132048Y-54475287D01*
X150947213Y-54290452D01*
X150729870Y-54145228D01*
X150488372Y-54045196D01*
X150231998Y-53994200D01*
X149970602Y-53994200D01*
X149714228Y-54045196D01*
X149472730Y-54145228D01*
X149255387Y-54290452D01*
X149070552Y-54475287D01*
X148925328Y-54692630D01*
X148825296Y-54934128D01*
X148774300Y-55190502D01*
X119420032Y-55190502D01*
X119326297Y-54896132D01*
X119135766Y-54539673D01*
X118794609Y-54353597D01*
X117304605Y-55843600D01*
X116945395Y-55843600D01*
X115455391Y-54353597D01*
X115114234Y-54539673D01*
X114898487Y-54957009D01*
X114768304Y-55408415D01*
X114728687Y-55876546D01*
X107475736Y-55876546D01*
X107481313Y-55810654D01*
X107428842Y-55343789D01*
X107286297Y-54896132D01*
X107095766Y-54539673D01*
X106754609Y-54353597D01*
X105264605Y-55843600D01*
X104905395Y-55843600D01*
X103415391Y-54353597D01*
X103074234Y-54539673D01*
X102858487Y-54957009D01*
X102728304Y-55408415D01*
X102688687Y-55876546D01*
X99823485Y-55876546D01*
X99823485Y-55153000D01*
X99800783Y-54922504D01*
X99733550Y-54700865D01*
X99624369Y-54496602D01*
X99477436Y-54317564D01*
X99302493Y-54173991D01*
X103594997Y-54173991D01*
X105085000Y-55663995D01*
X106575003Y-54173991D01*
X115634997Y-54173991D01*
X117125000Y-55663995D01*
X118615003Y-54173991D01*
X118428927Y-53832834D01*
X118011591Y-53617087D01*
X117560185Y-53486904D01*
X117092054Y-53447287D01*
X116625189Y-53499758D01*
X116177532Y-53642303D01*
X115821073Y-53832834D01*
X115634997Y-54173991D01*
X106575003Y-54173991D01*
X106388927Y-53832834D01*
X105971591Y-53617087D01*
X105520185Y-53486904D01*
X105052054Y-53447287D01*
X104585189Y-53499758D01*
X104137532Y-53642303D01*
X103781073Y-53832834D01*
X103594997Y-54173991D01*
X99302493Y-54173991D01*
X99298398Y-54170631D01*
X99094135Y-54061450D01*
X98872496Y-53994217D01*
X98642000Y-53971515D01*
X97192000Y-53971515D01*
X96961504Y-53994217D01*
X96739865Y-54061450D01*
X96535602Y-54170631D01*
X96356564Y-54317564D01*
X96209631Y-54496602D01*
X96100450Y-54700865D01*
X96033217Y-54922504D01*
X96010515Y-55153000D01*
X96010515Y-56353000D01*
X96033217Y-56583496D01*
X96100450Y-56805135D01*
X96209631Y-57009398D01*
X96356564Y-57188436D01*
X96362717Y-57193486D01*
X96307330Y-57260975D01*
X96142323Y-57569681D01*
X96040712Y-57904647D01*
X96006402Y-58253000D01*
X96040712Y-58601353D01*
X96142323Y-58936319D01*
X96307330Y-59245025D01*
X96519045Y-59503000D01*
X96307330Y-59760975D01*
X96142323Y-60069681D01*
X96040712Y-60404647D01*
X96006402Y-60753000D01*
X96040712Y-61101353D01*
X96142323Y-61436319D01*
X96307330Y-61745025D01*
X96519045Y-62003000D01*
X96307330Y-62260975D01*
X96142323Y-62569681D01*
X96040712Y-62904647D01*
X96006402Y-63253000D01*
X96040712Y-63601353D01*
X96142323Y-63936319D01*
X96307330Y-64245025D01*
X96519045Y-64503000D01*
X96307330Y-64760975D01*
X96142323Y-65069681D01*
X96040712Y-65404647D01*
X96006402Y-65753000D01*
X96040712Y-66101353D01*
X96142323Y-66436319D01*
X96307330Y-66745025D01*
X96529392Y-67015608D01*
X96752077Y-67198361D01*
X96589504Y-67381807D01*
X96442648Y-67633142D01*
X96350524Y-67896110D01*
X96471845Y-68126000D01*
X97790000Y-68126000D01*
X97790000Y-68106000D01*
X98044000Y-68106000D01*
X98044000Y-68126000D01*
X98064000Y-68126000D01*
X98064000Y-68380000D01*
X98044000Y-68380000D01*
X98044000Y-68400000D01*
X97790000Y-68400000D01*
X97790000Y-68380000D01*
X96471845Y-68380000D01*
X96350524Y-68609890D01*
X96442648Y-68872858D01*
X96577004Y-69102800D01*
X96256087Y-69102800D01*
X96070550Y-68978828D01*
X95829052Y-68878796D01*
X95572678Y-68827800D01*
X95311282Y-68827800D01*
X95054908Y-68878796D01*
X94813410Y-68978828D01*
X94807417Y-68982832D01*
X94854316Y-52427530D01*
X94970504Y-52505164D01*
X95648774Y-52786113D01*
X96368823Y-52929340D01*
X97102977Y-52929340D01*
X97823026Y-52786113D01*
X98501296Y-52505164D01*
X99111724Y-52097290D01*
X99630850Y-51578164D01*
X100038724Y-50967736D01*
X100319673Y-50289466D01*
X100462900Y-49569417D01*
X100462900Y-49391873D01*
X122368000Y-49391873D01*
X122368000Y-49845327D01*
X122456465Y-50290069D01*
X122629994Y-50709006D01*
X122881920Y-51086039D01*
X123202561Y-51406680D01*
X123579594Y-51658606D01*
X123998531Y-51832135D01*
X124443273Y-51920600D01*
X124896727Y-51920600D01*
X125341469Y-51832135D01*
X125760406Y-51658606D01*
X126137439Y-51406680D01*
X126458080Y-51086039D01*
X126710006Y-50709006D01*
X126883535Y-50290069D01*
X126972000Y-49845327D01*
X126972000Y-49391873D01*
X126883535Y-48947131D01*
X126710006Y-48528194D01*
X126458080Y-48151161D01*
X126137439Y-47830520D01*
X125760406Y-47578594D01*
X125341469Y-47405065D01*
X124896727Y-47316600D01*
X124443273Y-47316600D01*
X123998531Y-47405065D01*
X123579594Y-47578594D01*
X123202561Y-47830520D01*
X122881920Y-48151161D01*
X122629994Y-48528194D01*
X122456465Y-48947131D01*
X122368000Y-49391873D01*
X100462900Y-49391873D01*
X100462900Y-48835263D01*
X100319673Y-48115214D01*
X100038724Y-47436944D01*
X99976997Y-47344562D01*
X144910672Y-47117624D01*
X145008654Y-50473506D01*
G36*
X108204000Y-89268300D02*
G01*
X108224000Y-89268300D01*
X108224000Y-89522300D01*
X108204000Y-89522300D01*
X108204000Y-89542300D01*
X107950000Y-89542300D01*
X107950000Y-89522300D01*
X107930000Y-89522300D01*
X107930000Y-89268300D01*
X107950000Y-89268300D01*
X107950000Y-89248300D01*
X108204000Y-89248300D01*
X108204000Y-89268300D01*
X108204000Y-89268300D01*
G37*
X108204000Y-89268300D02*
X108224000Y-89268300D01*
X108224000Y-89522300D01*
X108204000Y-89522300D01*
X108204000Y-89542300D01*
X107950000Y-89542300D01*
X107950000Y-89522300D01*
X107930000Y-89522300D01*
X107930000Y-89268300D01*
X107950000Y-89268300D01*
X107950000Y-89248300D01*
X108204000Y-89248300D01*
X108204000Y-89268300D01*
M02*
