%TF.GenerationSoftware,KiCad,Pcbnew,5.1.4*%
%TF.CreationDate,2019-11-11T15:35:15+01:00*%
%TF.ProjectId,balancer,62616c61-6e63-4657-922e-6b696361645f,rev?*%
%TF.SameCoordinates,Original*%
%TF.FileFunction,Soldermask,Bot*%
%TF.FilePolarity,Negative*%
%FSLAX46Y46*%
G04 Gerber Fmt 4.6, Leading zero omitted, Abs format (unit mm)*
G04 Created by KiCad (PCBNEW 5.1.4) date 2019-11-11 15:35:15*
%MOMM*%
%LPD*%
G04 APERTURE LIST*
%ADD10C,0.100000*%
G04 APERTURE END LIST*
D10*
G36*
X150255795Y-124340246D02*
G01*
X150428866Y-124411934D01*
X150428867Y-124411935D01*
X150584627Y-124516010D01*
X150717090Y-124648473D01*
X150717091Y-124648475D01*
X150821166Y-124804234D01*
X150892854Y-124977305D01*
X150929400Y-125161033D01*
X150929400Y-125348367D01*
X150892854Y-125532095D01*
X150821166Y-125705166D01*
X150821165Y-125705167D01*
X150717090Y-125860927D01*
X150584627Y-125993390D01*
X150506218Y-126045781D01*
X150428866Y-126097466D01*
X150255795Y-126169154D01*
X150072067Y-126205700D01*
X149884733Y-126205700D01*
X149701005Y-126169154D01*
X149527934Y-126097466D01*
X149450582Y-126045781D01*
X149372173Y-125993390D01*
X149239710Y-125860927D01*
X149135635Y-125705167D01*
X149135634Y-125705166D01*
X149063946Y-125532095D01*
X149027400Y-125348367D01*
X149027400Y-125161033D01*
X149063946Y-124977305D01*
X149135634Y-124804234D01*
X149239709Y-124648475D01*
X149239710Y-124648473D01*
X149372173Y-124516010D01*
X149527933Y-124411935D01*
X149527934Y-124411934D01*
X149701005Y-124340246D01*
X149884733Y-124303700D01*
X150072067Y-124303700D01*
X150255795Y-124340246D01*
X150255795Y-124340246D01*
G37*
G36*
X170255795Y-124340246D02*
G01*
X170428866Y-124411934D01*
X170428867Y-124411935D01*
X170584627Y-124516010D01*
X170717090Y-124648473D01*
X170717091Y-124648475D01*
X170821166Y-124804234D01*
X170892854Y-124977305D01*
X170929400Y-125161033D01*
X170929400Y-125348367D01*
X170892854Y-125532095D01*
X170821166Y-125705166D01*
X170821165Y-125705167D01*
X170717090Y-125860927D01*
X170584627Y-125993390D01*
X170506218Y-126045781D01*
X170428866Y-126097466D01*
X170255795Y-126169154D01*
X170072067Y-126205700D01*
X169884733Y-126205700D01*
X169701005Y-126169154D01*
X169527934Y-126097466D01*
X169450582Y-126045781D01*
X169372173Y-125993390D01*
X169239710Y-125860927D01*
X169135635Y-125705167D01*
X169135634Y-125705166D01*
X169063946Y-125532095D01*
X169027400Y-125348367D01*
X169027400Y-125161033D01*
X169063946Y-124977305D01*
X169135634Y-124804234D01*
X169239709Y-124648475D01*
X169239710Y-124648473D01*
X169372173Y-124516010D01*
X169527933Y-124411935D01*
X169527934Y-124411934D01*
X169701005Y-124340246D01*
X169884733Y-124303700D01*
X170072067Y-124303700D01*
X170255795Y-124340246D01*
X170255795Y-124340246D01*
G37*
G36*
X188471802Y-124283907D02*
G01*
X188469400Y-124308293D01*
X188469400Y-126205700D01*
X186567400Y-126205700D01*
X186567400Y-124303700D01*
X188395866Y-124303700D01*
X188420252Y-124301298D01*
X188443701Y-124294185D01*
X188465312Y-124282634D01*
X188474467Y-124275121D01*
X188471802Y-124283907D01*
X188471802Y-124283907D01*
G37*
G36*
X183469400Y-126205700D02*
G01*
X181567400Y-126205700D01*
X181567400Y-124303700D01*
X183469400Y-124303700D01*
X183469400Y-126205700D01*
X183469400Y-126205700D01*
G37*
G36*
X180255795Y-124340246D02*
G01*
X180428866Y-124411934D01*
X180428867Y-124411935D01*
X180584627Y-124516010D01*
X180717090Y-124648473D01*
X180717091Y-124648475D01*
X180821166Y-124804234D01*
X180892854Y-124977305D01*
X180929400Y-125161033D01*
X180929400Y-125348367D01*
X180892854Y-125532095D01*
X180821166Y-125705166D01*
X180821165Y-125705167D01*
X180717090Y-125860927D01*
X180584627Y-125993390D01*
X180506218Y-126045781D01*
X180428866Y-126097466D01*
X180255795Y-126169154D01*
X180072067Y-126205700D01*
X179884733Y-126205700D01*
X179701005Y-126169154D01*
X179527934Y-126097466D01*
X179450582Y-126045781D01*
X179372173Y-125993390D01*
X179239710Y-125860927D01*
X179135635Y-125705167D01*
X179135634Y-125705166D01*
X179063946Y-125532095D01*
X179027400Y-125348367D01*
X179027400Y-125161033D01*
X179063946Y-124977305D01*
X179135634Y-124804234D01*
X179239709Y-124648475D01*
X179239710Y-124648473D01*
X179372173Y-124516010D01*
X179527933Y-124411935D01*
X179527934Y-124411934D01*
X179701005Y-124340246D01*
X179884733Y-124303700D01*
X180072067Y-124303700D01*
X180255795Y-124340246D01*
X180255795Y-124340246D01*
G37*
G36*
X178469400Y-126205700D02*
G01*
X176567400Y-126205700D01*
X176567400Y-124303700D01*
X178469400Y-124303700D01*
X178469400Y-126205700D01*
X178469400Y-126205700D01*
G37*
G36*
X175255795Y-124340246D02*
G01*
X175428866Y-124411934D01*
X175428867Y-124411935D01*
X175584627Y-124516010D01*
X175717090Y-124648473D01*
X175717091Y-124648475D01*
X175821166Y-124804234D01*
X175892854Y-124977305D01*
X175929400Y-125161033D01*
X175929400Y-125348367D01*
X175892854Y-125532095D01*
X175821166Y-125705166D01*
X175821165Y-125705167D01*
X175717090Y-125860927D01*
X175584627Y-125993390D01*
X175506218Y-126045781D01*
X175428866Y-126097466D01*
X175255795Y-126169154D01*
X175072067Y-126205700D01*
X174884733Y-126205700D01*
X174701005Y-126169154D01*
X174527934Y-126097466D01*
X174450582Y-126045781D01*
X174372173Y-125993390D01*
X174239710Y-125860927D01*
X174135635Y-125705167D01*
X174135634Y-125705166D01*
X174063946Y-125532095D01*
X174027400Y-125348367D01*
X174027400Y-125161033D01*
X174063946Y-124977305D01*
X174135634Y-124804234D01*
X174239709Y-124648475D01*
X174239710Y-124648473D01*
X174372173Y-124516010D01*
X174527933Y-124411935D01*
X174527934Y-124411934D01*
X174701005Y-124340246D01*
X174884733Y-124303700D01*
X175072067Y-124303700D01*
X175255795Y-124340246D01*
X175255795Y-124340246D01*
G37*
G36*
X173469400Y-126205700D02*
G01*
X171567400Y-126205700D01*
X171567400Y-124303700D01*
X173469400Y-124303700D01*
X173469400Y-126205700D01*
X173469400Y-126205700D01*
G37*
G36*
X185255795Y-124340246D02*
G01*
X185428866Y-124411934D01*
X185428867Y-124411935D01*
X185584627Y-124516010D01*
X185717090Y-124648473D01*
X185717091Y-124648475D01*
X185821166Y-124804234D01*
X185892854Y-124977305D01*
X185929400Y-125161033D01*
X185929400Y-125348367D01*
X185892854Y-125532095D01*
X185821166Y-125705166D01*
X185821165Y-125705167D01*
X185717090Y-125860927D01*
X185584627Y-125993390D01*
X185506218Y-126045781D01*
X185428866Y-126097466D01*
X185255795Y-126169154D01*
X185072067Y-126205700D01*
X184884733Y-126205700D01*
X184701005Y-126169154D01*
X184527934Y-126097466D01*
X184450582Y-126045781D01*
X184372173Y-125993390D01*
X184239710Y-125860927D01*
X184135635Y-125705167D01*
X184135634Y-125705166D01*
X184063946Y-125532095D01*
X184027400Y-125348367D01*
X184027400Y-125161033D01*
X184063946Y-124977305D01*
X184135634Y-124804234D01*
X184239709Y-124648475D01*
X184239710Y-124648473D01*
X184372173Y-124516010D01*
X184527933Y-124411935D01*
X184527934Y-124411934D01*
X184701005Y-124340246D01*
X184884733Y-124303700D01*
X185072067Y-124303700D01*
X185255795Y-124340246D01*
X185255795Y-124340246D01*
G37*
G36*
X165255795Y-124340246D02*
G01*
X165428866Y-124411934D01*
X165428867Y-124411935D01*
X165584627Y-124516010D01*
X165717090Y-124648473D01*
X165717091Y-124648475D01*
X165821166Y-124804234D01*
X165892854Y-124977305D01*
X165929400Y-125161033D01*
X165929400Y-125348367D01*
X165892854Y-125532095D01*
X165821166Y-125705166D01*
X165821165Y-125705167D01*
X165717090Y-125860927D01*
X165584627Y-125993390D01*
X165506218Y-126045781D01*
X165428866Y-126097466D01*
X165255795Y-126169154D01*
X165072067Y-126205700D01*
X164884733Y-126205700D01*
X164701005Y-126169154D01*
X164527934Y-126097466D01*
X164450582Y-126045781D01*
X164372173Y-125993390D01*
X164239710Y-125860927D01*
X164135635Y-125705167D01*
X164135634Y-125705166D01*
X164063946Y-125532095D01*
X164027400Y-125348367D01*
X164027400Y-125161033D01*
X164063946Y-124977305D01*
X164135634Y-124804234D01*
X164239709Y-124648475D01*
X164239710Y-124648473D01*
X164372173Y-124516010D01*
X164527933Y-124411935D01*
X164527934Y-124411934D01*
X164701005Y-124340246D01*
X164884733Y-124303700D01*
X165072067Y-124303700D01*
X165255795Y-124340246D01*
X165255795Y-124340246D01*
G37*
G36*
X163469400Y-126205700D02*
G01*
X161567400Y-126205700D01*
X161567400Y-124303700D01*
X163469400Y-124303700D01*
X163469400Y-126205700D01*
X163469400Y-126205700D01*
G37*
G36*
X160255795Y-124340246D02*
G01*
X160428866Y-124411934D01*
X160428867Y-124411935D01*
X160584627Y-124516010D01*
X160717090Y-124648473D01*
X160717091Y-124648475D01*
X160821166Y-124804234D01*
X160892854Y-124977305D01*
X160929400Y-125161033D01*
X160929400Y-125348367D01*
X160892854Y-125532095D01*
X160821166Y-125705166D01*
X160821165Y-125705167D01*
X160717090Y-125860927D01*
X160584627Y-125993390D01*
X160506218Y-126045781D01*
X160428866Y-126097466D01*
X160255795Y-126169154D01*
X160072067Y-126205700D01*
X159884733Y-126205700D01*
X159701005Y-126169154D01*
X159527934Y-126097466D01*
X159450582Y-126045781D01*
X159372173Y-125993390D01*
X159239710Y-125860927D01*
X159135635Y-125705167D01*
X159135634Y-125705166D01*
X159063946Y-125532095D01*
X159027400Y-125348367D01*
X159027400Y-125161033D01*
X159063946Y-124977305D01*
X159135634Y-124804234D01*
X159239709Y-124648475D01*
X159239710Y-124648473D01*
X159372173Y-124516010D01*
X159527933Y-124411935D01*
X159527934Y-124411934D01*
X159701005Y-124340246D01*
X159884733Y-124303700D01*
X160072067Y-124303700D01*
X160255795Y-124340246D01*
X160255795Y-124340246D01*
G37*
G36*
X158469400Y-126205700D02*
G01*
X156567400Y-126205700D01*
X156567400Y-124303700D01*
X158469400Y-124303700D01*
X158469400Y-126205700D01*
X158469400Y-126205700D01*
G37*
G36*
X155255795Y-124340246D02*
G01*
X155428866Y-124411934D01*
X155428867Y-124411935D01*
X155584627Y-124516010D01*
X155717090Y-124648473D01*
X155717091Y-124648475D01*
X155821166Y-124804234D01*
X155892854Y-124977305D01*
X155929400Y-125161033D01*
X155929400Y-125348367D01*
X155892854Y-125532095D01*
X155821166Y-125705166D01*
X155821165Y-125705167D01*
X155717090Y-125860927D01*
X155584627Y-125993390D01*
X155506218Y-126045781D01*
X155428866Y-126097466D01*
X155255795Y-126169154D01*
X155072067Y-126205700D01*
X154884733Y-126205700D01*
X154701005Y-126169154D01*
X154527934Y-126097466D01*
X154450582Y-126045781D01*
X154372173Y-125993390D01*
X154239710Y-125860927D01*
X154135635Y-125705167D01*
X154135634Y-125705166D01*
X154063946Y-125532095D01*
X154027400Y-125348367D01*
X154027400Y-125161033D01*
X154063946Y-124977305D01*
X154135634Y-124804234D01*
X154239709Y-124648475D01*
X154239710Y-124648473D01*
X154372173Y-124516010D01*
X154527933Y-124411935D01*
X154527934Y-124411934D01*
X154701005Y-124340246D01*
X154884733Y-124303700D01*
X155072067Y-124303700D01*
X155255795Y-124340246D01*
X155255795Y-124340246D01*
G37*
G36*
X153469400Y-126205700D02*
G01*
X151567400Y-126205700D01*
X151567400Y-124303700D01*
X153469400Y-124303700D01*
X153469400Y-126205700D01*
X153469400Y-126205700D01*
G37*
G36*
X168469400Y-126205700D02*
G01*
X166567400Y-126205700D01*
X166567400Y-124303700D01*
X168469400Y-124303700D01*
X168469400Y-126205700D01*
X168469400Y-126205700D01*
G37*
G36*
X129375800Y-125345800D02*
G01*
X127773800Y-125345800D01*
X127773800Y-122943800D01*
X129375800Y-122943800D01*
X129375800Y-125345800D01*
X129375800Y-125345800D01*
G37*
G36*
X132068200Y-125341200D02*
G01*
X130466200Y-125341200D01*
X130466200Y-122939200D01*
X132068200Y-122939200D01*
X132068200Y-125341200D01*
X132068200Y-125341200D01*
G37*
G36*
X134735200Y-125330800D02*
G01*
X133133200Y-125330800D01*
X133133200Y-122928800D01*
X134735200Y-122928800D01*
X134735200Y-125330800D01*
X134735200Y-125330800D01*
G37*
G36*
X137427600Y-125330800D02*
G01*
X135825600Y-125330800D01*
X135825600Y-122928800D01*
X137427600Y-122928800D01*
X137427600Y-125330800D01*
X137427600Y-125330800D01*
G37*
G36*
X124016400Y-125315800D02*
G01*
X122414400Y-125315800D01*
X122414400Y-122913800D01*
X124016400Y-122913800D01*
X124016400Y-125315800D01*
X124016400Y-125315800D01*
G37*
G36*
X126683400Y-125315800D02*
G01*
X125081400Y-125315800D01*
X125081400Y-122913800D01*
X126683400Y-122913800D01*
X126683400Y-125315800D01*
X126683400Y-125315800D01*
G37*
G36*
X121324000Y-125315800D02*
G01*
X119722000Y-125315800D01*
X119722000Y-122913800D01*
X121324000Y-122913800D01*
X121324000Y-125315800D01*
X121324000Y-125315800D01*
G37*
G36*
X118682400Y-125315800D02*
G01*
X117080400Y-125315800D01*
X117080400Y-122913800D01*
X118682400Y-122913800D01*
X118682400Y-125315800D01*
X118682400Y-125315800D01*
G37*
G36*
X140094600Y-125315800D02*
G01*
X138492600Y-125315800D01*
X138492600Y-122913800D01*
X140094600Y-122913800D01*
X140094600Y-125315800D01*
X140094600Y-125315800D01*
G37*
G36*
X98113606Y-119432562D02*
G01*
X98632455Y-119647476D01*
X99099407Y-119959484D01*
X99496516Y-120356593D01*
X99808524Y-120823545D01*
X100023438Y-121342394D01*
X100031953Y-121385201D01*
X100133000Y-121893200D01*
X100133000Y-122454800D01*
X100124485Y-122497606D01*
X100023438Y-123005606D01*
X99808524Y-123524455D01*
X99570611Y-123880516D01*
X99496517Y-123991406D01*
X99099406Y-124388517D01*
X99064360Y-124411934D01*
X98632455Y-124700524D01*
X98113606Y-124915438D01*
X97562800Y-125025000D01*
X97001200Y-125025000D01*
X96450394Y-124915438D01*
X95931545Y-124700524D01*
X95499640Y-124411934D01*
X95464594Y-124388517D01*
X95067483Y-123991406D01*
X94993389Y-123880516D01*
X94755476Y-123524455D01*
X94540562Y-123005606D01*
X94439515Y-122497606D01*
X94431000Y-122454800D01*
X94431000Y-121893200D01*
X94532047Y-121385201D01*
X94540562Y-121342394D01*
X94755476Y-120823545D01*
X95067484Y-120356593D01*
X95464593Y-119959484D01*
X95931545Y-119647476D01*
X96450394Y-119432562D01*
X97001200Y-119323000D01*
X97562800Y-119323000D01*
X98113606Y-119432562D01*
X98113606Y-119432562D01*
G37*
G36*
X190823606Y-118924562D02*
G01*
X191342455Y-119139476D01*
X191716524Y-119389421D01*
X191781089Y-119432562D01*
X191809407Y-119451484D01*
X192206516Y-119848593D01*
X192518524Y-120315545D01*
X192733438Y-120834394D01*
X192772779Y-121032173D01*
X192834486Y-121342395D01*
X192843000Y-121385201D01*
X192843000Y-121946799D01*
X192733438Y-122497606D01*
X192518524Y-123016455D01*
X192206516Y-123483407D01*
X191809407Y-123880516D01*
X191342455Y-124192524D01*
X190823606Y-124407438D01*
X190272800Y-124517000D01*
X189711200Y-124517000D01*
X189160394Y-124407438D01*
X188642230Y-124192808D01*
X188618785Y-124185696D01*
X188594399Y-124183294D01*
X188570013Y-124185696D01*
X188546564Y-124192809D01*
X188524953Y-124204360D01*
X188515798Y-124211873D01*
X188518463Y-124203087D01*
X188520865Y-124178701D01*
X188518463Y-124154315D01*
X188511350Y-124130866D01*
X188499799Y-124109255D01*
X188484254Y-124090313D01*
X188465316Y-124074771D01*
X188174593Y-123880516D01*
X187777484Y-123483407D01*
X187465476Y-123016455D01*
X187250562Y-122497606D01*
X187141000Y-121946799D01*
X187141000Y-121385201D01*
X187149515Y-121342395D01*
X187211221Y-121032173D01*
X187250562Y-120834394D01*
X187465476Y-120315545D01*
X187777484Y-119848593D01*
X188174593Y-119451484D01*
X188202912Y-119432562D01*
X188267476Y-119389421D01*
X188641545Y-119139476D01*
X189160394Y-118924562D01*
X189711200Y-118815000D01*
X190272800Y-118815000D01*
X190823606Y-118924562D01*
X190823606Y-118924562D01*
G37*
G36*
X158987443Y-120314319D02*
G01*
X159053627Y-120320837D01*
X159223466Y-120372357D01*
X159379991Y-120456022D01*
X159415729Y-120485352D01*
X159517186Y-120568614D01*
X159600448Y-120670071D01*
X159629778Y-120705809D01*
X159713443Y-120862334D01*
X159764963Y-121032173D01*
X159782359Y-121208800D01*
X159764963Y-121385427D01*
X159713443Y-121555266D01*
X159629778Y-121711791D01*
X159600448Y-121747529D01*
X159517186Y-121848986D01*
X159415729Y-121932248D01*
X159379991Y-121961578D01*
X159223466Y-122045243D01*
X159053627Y-122096763D01*
X158987443Y-122103281D01*
X158921260Y-122109800D01*
X158832740Y-122109800D01*
X158766557Y-122103281D01*
X158700373Y-122096763D01*
X158530534Y-122045243D01*
X158374009Y-121961578D01*
X158338271Y-121932248D01*
X158236814Y-121848986D01*
X158153552Y-121747529D01*
X158124222Y-121711791D01*
X158040557Y-121555266D01*
X157989037Y-121385427D01*
X157971641Y-121208800D01*
X157989037Y-121032173D01*
X158040557Y-120862334D01*
X158124222Y-120705809D01*
X158153552Y-120670071D01*
X158236814Y-120568614D01*
X158338271Y-120485352D01*
X158374009Y-120456022D01*
X158530534Y-120372357D01*
X158700373Y-120320837D01*
X158766557Y-120314319D01*
X158832740Y-120307800D01*
X158921260Y-120307800D01*
X158987443Y-120314319D01*
X158987443Y-120314319D01*
G37*
G36*
X123427443Y-120314319D02*
G01*
X123493627Y-120320837D01*
X123663466Y-120372357D01*
X123819991Y-120456022D01*
X123855729Y-120485352D01*
X123957186Y-120568614D01*
X124040448Y-120670071D01*
X124069778Y-120705809D01*
X124153443Y-120862334D01*
X124204963Y-121032173D01*
X124222359Y-121208800D01*
X124204963Y-121385427D01*
X124153443Y-121555266D01*
X124069778Y-121711791D01*
X124040448Y-121747529D01*
X123957186Y-121848986D01*
X123855729Y-121932248D01*
X123819991Y-121961578D01*
X123663466Y-122045243D01*
X123493627Y-122096763D01*
X123427443Y-122103281D01*
X123361260Y-122109800D01*
X123272740Y-122109800D01*
X123206557Y-122103281D01*
X123140373Y-122096763D01*
X122970534Y-122045243D01*
X122814009Y-121961578D01*
X122778271Y-121932248D01*
X122676814Y-121848986D01*
X122593552Y-121747529D01*
X122564222Y-121711791D01*
X122480557Y-121555266D01*
X122429037Y-121385427D01*
X122411641Y-121208800D01*
X122429037Y-121032173D01*
X122480557Y-120862334D01*
X122564222Y-120705809D01*
X122593552Y-120670071D01*
X122676814Y-120568614D01*
X122778271Y-120485352D01*
X122814009Y-120456022D01*
X122970534Y-120372357D01*
X123140373Y-120320837D01*
X123206557Y-120314319D01*
X123272740Y-120307800D01*
X123361260Y-120307800D01*
X123427443Y-120314319D01*
X123427443Y-120314319D01*
G37*
G36*
X125967443Y-120314319D02*
G01*
X126033627Y-120320837D01*
X126203466Y-120372357D01*
X126359991Y-120456022D01*
X126395729Y-120485352D01*
X126497186Y-120568614D01*
X126580448Y-120670071D01*
X126609778Y-120705809D01*
X126693443Y-120862334D01*
X126744963Y-121032173D01*
X126762359Y-121208800D01*
X126744963Y-121385427D01*
X126693443Y-121555266D01*
X126609778Y-121711791D01*
X126580448Y-121747529D01*
X126497186Y-121848986D01*
X126395729Y-121932248D01*
X126359991Y-121961578D01*
X126203466Y-122045243D01*
X126033627Y-122096763D01*
X125967443Y-122103281D01*
X125901260Y-122109800D01*
X125812740Y-122109800D01*
X125746557Y-122103281D01*
X125680373Y-122096763D01*
X125510534Y-122045243D01*
X125354009Y-121961578D01*
X125318271Y-121932248D01*
X125216814Y-121848986D01*
X125133552Y-121747529D01*
X125104222Y-121711791D01*
X125020557Y-121555266D01*
X124969037Y-121385427D01*
X124951641Y-121208800D01*
X124969037Y-121032173D01*
X125020557Y-120862334D01*
X125104222Y-120705809D01*
X125133552Y-120670071D01*
X125216814Y-120568614D01*
X125318271Y-120485352D01*
X125354009Y-120456022D01*
X125510534Y-120372357D01*
X125680373Y-120320837D01*
X125746557Y-120314319D01*
X125812740Y-120307800D01*
X125901260Y-120307800D01*
X125967443Y-120314319D01*
X125967443Y-120314319D01*
G37*
G36*
X128507443Y-120314319D02*
G01*
X128573627Y-120320837D01*
X128743466Y-120372357D01*
X128899991Y-120456022D01*
X128935729Y-120485352D01*
X129037186Y-120568614D01*
X129120448Y-120670071D01*
X129149778Y-120705809D01*
X129233443Y-120862334D01*
X129284963Y-121032173D01*
X129302359Y-121208800D01*
X129284963Y-121385427D01*
X129233443Y-121555266D01*
X129149778Y-121711791D01*
X129120448Y-121747529D01*
X129037186Y-121848986D01*
X128935729Y-121932248D01*
X128899991Y-121961578D01*
X128743466Y-122045243D01*
X128573627Y-122096763D01*
X128507443Y-122103281D01*
X128441260Y-122109800D01*
X128352740Y-122109800D01*
X128286557Y-122103281D01*
X128220373Y-122096763D01*
X128050534Y-122045243D01*
X127894009Y-121961578D01*
X127858271Y-121932248D01*
X127756814Y-121848986D01*
X127673552Y-121747529D01*
X127644222Y-121711791D01*
X127560557Y-121555266D01*
X127509037Y-121385427D01*
X127491641Y-121208800D01*
X127509037Y-121032173D01*
X127560557Y-120862334D01*
X127644222Y-120705809D01*
X127673552Y-120670071D01*
X127756814Y-120568614D01*
X127858271Y-120485352D01*
X127894009Y-120456022D01*
X128050534Y-120372357D01*
X128220373Y-120320837D01*
X128286557Y-120314319D01*
X128352740Y-120307800D01*
X128441260Y-120307800D01*
X128507443Y-120314319D01*
X128507443Y-120314319D01*
G37*
G36*
X131047443Y-120314319D02*
G01*
X131113627Y-120320837D01*
X131283466Y-120372357D01*
X131439991Y-120456022D01*
X131475729Y-120485352D01*
X131577186Y-120568614D01*
X131660448Y-120670071D01*
X131689778Y-120705809D01*
X131773443Y-120862334D01*
X131824963Y-121032173D01*
X131842359Y-121208800D01*
X131824963Y-121385427D01*
X131773443Y-121555266D01*
X131689778Y-121711791D01*
X131660448Y-121747529D01*
X131577186Y-121848986D01*
X131475729Y-121932248D01*
X131439991Y-121961578D01*
X131283466Y-122045243D01*
X131113627Y-122096763D01*
X131047443Y-122103281D01*
X130981260Y-122109800D01*
X130892740Y-122109800D01*
X130826557Y-122103281D01*
X130760373Y-122096763D01*
X130590534Y-122045243D01*
X130434009Y-121961578D01*
X130398271Y-121932248D01*
X130296814Y-121848986D01*
X130213552Y-121747529D01*
X130184222Y-121711791D01*
X130100557Y-121555266D01*
X130049037Y-121385427D01*
X130031641Y-121208800D01*
X130049037Y-121032173D01*
X130100557Y-120862334D01*
X130184222Y-120705809D01*
X130213552Y-120670071D01*
X130296814Y-120568614D01*
X130398271Y-120485352D01*
X130434009Y-120456022D01*
X130590534Y-120372357D01*
X130760373Y-120320837D01*
X130826557Y-120314319D01*
X130892740Y-120307800D01*
X130981260Y-120307800D01*
X131047443Y-120314319D01*
X131047443Y-120314319D01*
G37*
G36*
X119138000Y-122109800D02*
G01*
X117336000Y-122109800D01*
X117336000Y-120307800D01*
X119138000Y-120307800D01*
X119138000Y-122109800D01*
X119138000Y-122109800D01*
G37*
G36*
X153907443Y-120314319D02*
G01*
X153973627Y-120320837D01*
X154143466Y-120372357D01*
X154299991Y-120456022D01*
X154335729Y-120485352D01*
X154437186Y-120568614D01*
X154520448Y-120670071D01*
X154549778Y-120705809D01*
X154633443Y-120862334D01*
X154684963Y-121032173D01*
X154702359Y-121208800D01*
X154684963Y-121385427D01*
X154633443Y-121555266D01*
X154549778Y-121711791D01*
X154520448Y-121747529D01*
X154437186Y-121848986D01*
X154335729Y-121932248D01*
X154299991Y-121961578D01*
X154143466Y-122045243D01*
X153973627Y-122096763D01*
X153907443Y-122103281D01*
X153841260Y-122109800D01*
X153752740Y-122109800D01*
X153686557Y-122103281D01*
X153620373Y-122096763D01*
X153450534Y-122045243D01*
X153294009Y-121961578D01*
X153258271Y-121932248D01*
X153156814Y-121848986D01*
X153073552Y-121747529D01*
X153044222Y-121711791D01*
X152960557Y-121555266D01*
X152909037Y-121385427D01*
X152891641Y-121208800D01*
X152909037Y-121032173D01*
X152960557Y-120862334D01*
X153044222Y-120705809D01*
X153073552Y-120670071D01*
X153156814Y-120568614D01*
X153258271Y-120485352D01*
X153294009Y-120456022D01*
X153450534Y-120372357D01*
X153620373Y-120320837D01*
X153686557Y-120314319D01*
X153752740Y-120307800D01*
X153841260Y-120307800D01*
X153907443Y-120314319D01*
X153907443Y-120314319D01*
G37*
G36*
X138667443Y-120314319D02*
G01*
X138733627Y-120320837D01*
X138903466Y-120372357D01*
X139059991Y-120456022D01*
X139095729Y-120485352D01*
X139197186Y-120568614D01*
X139280448Y-120670071D01*
X139309778Y-120705809D01*
X139393443Y-120862334D01*
X139444963Y-121032173D01*
X139462359Y-121208800D01*
X139444963Y-121385427D01*
X139393443Y-121555266D01*
X139309778Y-121711791D01*
X139280448Y-121747529D01*
X139197186Y-121848986D01*
X139095729Y-121932248D01*
X139059991Y-121961578D01*
X138903466Y-122045243D01*
X138733627Y-122096763D01*
X138667443Y-122103281D01*
X138601260Y-122109800D01*
X138512740Y-122109800D01*
X138446557Y-122103281D01*
X138380373Y-122096763D01*
X138210534Y-122045243D01*
X138054009Y-121961578D01*
X138018271Y-121932248D01*
X137916814Y-121848986D01*
X137833552Y-121747529D01*
X137804222Y-121711791D01*
X137720557Y-121555266D01*
X137669037Y-121385427D01*
X137651641Y-121208800D01*
X137669037Y-121032173D01*
X137720557Y-120862334D01*
X137804222Y-120705809D01*
X137833552Y-120670071D01*
X137916814Y-120568614D01*
X138018271Y-120485352D01*
X138054009Y-120456022D01*
X138210534Y-120372357D01*
X138380373Y-120320837D01*
X138446557Y-120314319D01*
X138512740Y-120307800D01*
X138601260Y-120307800D01*
X138667443Y-120314319D01*
X138667443Y-120314319D01*
G37*
G36*
X141207443Y-120314319D02*
G01*
X141273627Y-120320837D01*
X141443466Y-120372357D01*
X141599991Y-120456022D01*
X141635729Y-120485352D01*
X141737186Y-120568614D01*
X141820448Y-120670071D01*
X141849778Y-120705809D01*
X141933443Y-120862334D01*
X141984963Y-121032173D01*
X142002359Y-121208800D01*
X141984963Y-121385427D01*
X141933443Y-121555266D01*
X141849778Y-121711791D01*
X141820448Y-121747529D01*
X141737186Y-121848986D01*
X141635729Y-121932248D01*
X141599991Y-121961578D01*
X141443466Y-122045243D01*
X141273627Y-122096763D01*
X141207443Y-122103281D01*
X141141260Y-122109800D01*
X141052740Y-122109800D01*
X140986557Y-122103281D01*
X140920373Y-122096763D01*
X140750534Y-122045243D01*
X140594009Y-121961578D01*
X140558271Y-121932248D01*
X140456814Y-121848986D01*
X140373552Y-121747529D01*
X140344222Y-121711791D01*
X140260557Y-121555266D01*
X140209037Y-121385427D01*
X140191641Y-121208800D01*
X140209037Y-121032173D01*
X140260557Y-120862334D01*
X140344222Y-120705809D01*
X140373552Y-120670071D01*
X140456814Y-120568614D01*
X140558271Y-120485352D01*
X140594009Y-120456022D01*
X140750534Y-120372357D01*
X140920373Y-120320837D01*
X140986557Y-120314319D01*
X141052740Y-120307800D01*
X141141260Y-120307800D01*
X141207443Y-120314319D01*
X141207443Y-120314319D01*
G37*
G36*
X146287443Y-120314319D02*
G01*
X146353627Y-120320837D01*
X146523466Y-120372357D01*
X146679991Y-120456022D01*
X146715729Y-120485352D01*
X146817186Y-120568614D01*
X146900448Y-120670071D01*
X146929778Y-120705809D01*
X147013443Y-120862334D01*
X147064963Y-121032173D01*
X147082359Y-121208800D01*
X147064963Y-121385427D01*
X147013443Y-121555266D01*
X146929778Y-121711791D01*
X146900448Y-121747529D01*
X146817186Y-121848986D01*
X146715729Y-121932248D01*
X146679991Y-121961578D01*
X146523466Y-122045243D01*
X146353627Y-122096763D01*
X146287443Y-122103281D01*
X146221260Y-122109800D01*
X146132740Y-122109800D01*
X146066557Y-122103281D01*
X146000373Y-122096763D01*
X145830534Y-122045243D01*
X145674009Y-121961578D01*
X145638271Y-121932248D01*
X145536814Y-121848986D01*
X145453552Y-121747529D01*
X145424222Y-121711791D01*
X145340557Y-121555266D01*
X145289037Y-121385427D01*
X145271641Y-121208800D01*
X145289037Y-121032173D01*
X145340557Y-120862334D01*
X145424222Y-120705809D01*
X145453552Y-120670071D01*
X145536814Y-120568614D01*
X145638271Y-120485352D01*
X145674009Y-120456022D01*
X145830534Y-120372357D01*
X146000373Y-120320837D01*
X146066557Y-120314319D01*
X146132740Y-120307800D01*
X146221260Y-120307800D01*
X146287443Y-120314319D01*
X146287443Y-120314319D01*
G37*
G36*
X148827443Y-120314319D02*
G01*
X148893627Y-120320837D01*
X149063466Y-120372357D01*
X149219991Y-120456022D01*
X149255729Y-120485352D01*
X149357186Y-120568614D01*
X149440448Y-120670071D01*
X149469778Y-120705809D01*
X149553443Y-120862334D01*
X149604963Y-121032173D01*
X149622359Y-121208800D01*
X149604963Y-121385427D01*
X149553443Y-121555266D01*
X149469778Y-121711791D01*
X149440448Y-121747529D01*
X149357186Y-121848986D01*
X149255729Y-121932248D01*
X149219991Y-121961578D01*
X149063466Y-122045243D01*
X148893627Y-122096763D01*
X148827443Y-122103281D01*
X148761260Y-122109800D01*
X148672740Y-122109800D01*
X148606557Y-122103281D01*
X148540373Y-122096763D01*
X148370534Y-122045243D01*
X148214009Y-121961578D01*
X148178271Y-121932248D01*
X148076814Y-121848986D01*
X147993552Y-121747529D01*
X147964222Y-121711791D01*
X147880557Y-121555266D01*
X147829037Y-121385427D01*
X147811641Y-121208800D01*
X147829037Y-121032173D01*
X147880557Y-120862334D01*
X147964222Y-120705809D01*
X147993552Y-120670071D01*
X148076814Y-120568614D01*
X148178271Y-120485352D01*
X148214009Y-120456022D01*
X148370534Y-120372357D01*
X148540373Y-120320837D01*
X148606557Y-120314319D01*
X148672740Y-120307800D01*
X148761260Y-120307800D01*
X148827443Y-120314319D01*
X148827443Y-120314319D01*
G37*
G36*
X151367443Y-120314319D02*
G01*
X151433627Y-120320837D01*
X151603466Y-120372357D01*
X151759991Y-120456022D01*
X151795729Y-120485352D01*
X151897186Y-120568614D01*
X151980448Y-120670071D01*
X152009778Y-120705809D01*
X152093443Y-120862334D01*
X152144963Y-121032173D01*
X152162359Y-121208800D01*
X152144963Y-121385427D01*
X152093443Y-121555266D01*
X152009778Y-121711791D01*
X151980448Y-121747529D01*
X151897186Y-121848986D01*
X151795729Y-121932248D01*
X151759991Y-121961578D01*
X151603466Y-122045243D01*
X151433627Y-122096763D01*
X151367443Y-122103281D01*
X151301260Y-122109800D01*
X151212740Y-122109800D01*
X151146557Y-122103281D01*
X151080373Y-122096763D01*
X150910534Y-122045243D01*
X150754009Y-121961578D01*
X150718271Y-121932248D01*
X150616814Y-121848986D01*
X150533552Y-121747529D01*
X150504222Y-121711791D01*
X150420557Y-121555266D01*
X150369037Y-121385427D01*
X150351641Y-121208800D01*
X150369037Y-121032173D01*
X150420557Y-120862334D01*
X150504222Y-120705809D01*
X150533552Y-120670071D01*
X150616814Y-120568614D01*
X150718271Y-120485352D01*
X150754009Y-120456022D01*
X150910534Y-120372357D01*
X151080373Y-120320837D01*
X151146557Y-120314319D01*
X151212740Y-120307800D01*
X151301260Y-120307800D01*
X151367443Y-120314319D01*
X151367443Y-120314319D01*
G37*
G36*
X156447443Y-120314319D02*
G01*
X156513627Y-120320837D01*
X156683466Y-120372357D01*
X156839991Y-120456022D01*
X156875729Y-120485352D01*
X156977186Y-120568614D01*
X157060448Y-120670071D01*
X157089778Y-120705809D01*
X157173443Y-120862334D01*
X157224963Y-121032173D01*
X157242359Y-121208800D01*
X157224963Y-121385427D01*
X157173443Y-121555266D01*
X157089778Y-121711791D01*
X157060448Y-121747529D01*
X156977186Y-121848986D01*
X156875729Y-121932248D01*
X156839991Y-121961578D01*
X156683466Y-122045243D01*
X156513627Y-122096763D01*
X156447443Y-122103281D01*
X156381260Y-122109800D01*
X156292740Y-122109800D01*
X156226557Y-122103281D01*
X156160373Y-122096763D01*
X155990534Y-122045243D01*
X155834009Y-121961578D01*
X155798271Y-121932248D01*
X155696814Y-121848986D01*
X155613552Y-121747529D01*
X155584222Y-121711791D01*
X155500557Y-121555266D01*
X155449037Y-121385427D01*
X155431641Y-121208800D01*
X155449037Y-121032173D01*
X155500557Y-120862334D01*
X155584222Y-120705809D01*
X155613552Y-120670071D01*
X155696814Y-120568614D01*
X155798271Y-120485352D01*
X155834009Y-120456022D01*
X155990534Y-120372357D01*
X156160373Y-120320837D01*
X156226557Y-120314319D01*
X156292740Y-120307800D01*
X156381260Y-120307800D01*
X156447443Y-120314319D01*
X156447443Y-120314319D01*
G37*
G36*
X136127443Y-120314319D02*
G01*
X136193627Y-120320837D01*
X136363466Y-120372357D01*
X136519991Y-120456022D01*
X136555729Y-120485352D01*
X136657186Y-120568614D01*
X136740448Y-120670071D01*
X136769778Y-120705809D01*
X136853443Y-120862334D01*
X136904963Y-121032173D01*
X136922359Y-121208800D01*
X136904963Y-121385427D01*
X136853443Y-121555266D01*
X136769778Y-121711791D01*
X136740448Y-121747529D01*
X136657186Y-121848986D01*
X136555729Y-121932248D01*
X136519991Y-121961578D01*
X136363466Y-122045243D01*
X136193627Y-122096763D01*
X136127443Y-122103281D01*
X136061260Y-122109800D01*
X135972740Y-122109800D01*
X135906557Y-122103281D01*
X135840373Y-122096763D01*
X135670534Y-122045243D01*
X135514009Y-121961578D01*
X135478271Y-121932248D01*
X135376814Y-121848986D01*
X135293552Y-121747529D01*
X135264222Y-121711791D01*
X135180557Y-121555266D01*
X135129037Y-121385427D01*
X135111641Y-121208800D01*
X135129037Y-121032173D01*
X135180557Y-120862334D01*
X135264222Y-120705809D01*
X135293552Y-120670071D01*
X135376814Y-120568614D01*
X135478271Y-120485352D01*
X135514009Y-120456022D01*
X135670534Y-120372357D01*
X135840373Y-120320837D01*
X135906557Y-120314319D01*
X135972740Y-120307800D01*
X136061260Y-120307800D01*
X136127443Y-120314319D01*
X136127443Y-120314319D01*
G37*
G36*
X133587443Y-120314319D02*
G01*
X133653627Y-120320837D01*
X133823466Y-120372357D01*
X133979991Y-120456022D01*
X134015729Y-120485352D01*
X134117186Y-120568614D01*
X134200448Y-120670071D01*
X134229778Y-120705809D01*
X134313443Y-120862334D01*
X134364963Y-121032173D01*
X134382359Y-121208800D01*
X134364963Y-121385427D01*
X134313443Y-121555266D01*
X134229778Y-121711791D01*
X134200448Y-121747529D01*
X134117186Y-121848986D01*
X134015729Y-121932248D01*
X133979991Y-121961578D01*
X133823466Y-122045243D01*
X133653627Y-122096763D01*
X133587443Y-122103281D01*
X133521260Y-122109800D01*
X133432740Y-122109800D01*
X133366557Y-122103281D01*
X133300373Y-122096763D01*
X133130534Y-122045243D01*
X132974009Y-121961578D01*
X132938271Y-121932248D01*
X132836814Y-121848986D01*
X132753552Y-121747529D01*
X132724222Y-121711791D01*
X132640557Y-121555266D01*
X132589037Y-121385427D01*
X132571641Y-121208800D01*
X132589037Y-121032173D01*
X132640557Y-120862334D01*
X132724222Y-120705809D01*
X132753552Y-120670071D01*
X132836814Y-120568614D01*
X132938271Y-120485352D01*
X132974009Y-120456022D01*
X133130534Y-120372357D01*
X133300373Y-120320837D01*
X133366557Y-120314319D01*
X133432740Y-120307800D01*
X133521260Y-120307800D01*
X133587443Y-120314319D01*
X133587443Y-120314319D01*
G37*
G36*
X120887443Y-120314319D02*
G01*
X120953627Y-120320837D01*
X121123466Y-120372357D01*
X121279991Y-120456022D01*
X121315729Y-120485352D01*
X121417186Y-120568614D01*
X121500448Y-120670071D01*
X121529778Y-120705809D01*
X121613443Y-120862334D01*
X121664963Y-121032173D01*
X121682359Y-121208800D01*
X121664963Y-121385427D01*
X121613443Y-121555266D01*
X121529778Y-121711791D01*
X121500448Y-121747529D01*
X121417186Y-121848986D01*
X121315729Y-121932248D01*
X121279991Y-121961578D01*
X121123466Y-122045243D01*
X120953627Y-122096763D01*
X120887443Y-122103281D01*
X120821260Y-122109800D01*
X120732740Y-122109800D01*
X120666557Y-122103281D01*
X120600373Y-122096763D01*
X120430534Y-122045243D01*
X120274009Y-121961578D01*
X120238271Y-121932248D01*
X120136814Y-121848986D01*
X120053552Y-121747529D01*
X120024222Y-121711791D01*
X119940557Y-121555266D01*
X119889037Y-121385427D01*
X119871641Y-121208800D01*
X119889037Y-121032173D01*
X119940557Y-120862334D01*
X120024222Y-120705809D01*
X120053552Y-120670071D01*
X120136814Y-120568614D01*
X120238271Y-120485352D01*
X120274009Y-120456022D01*
X120430534Y-120372357D01*
X120600373Y-120320837D01*
X120666557Y-120314319D01*
X120732740Y-120307800D01*
X120821260Y-120307800D01*
X120887443Y-120314319D01*
X120887443Y-120314319D01*
G37*
G36*
X143747443Y-120314319D02*
G01*
X143813627Y-120320837D01*
X143983466Y-120372357D01*
X144139991Y-120456022D01*
X144175729Y-120485352D01*
X144277186Y-120568614D01*
X144360448Y-120670071D01*
X144389778Y-120705809D01*
X144473443Y-120862334D01*
X144524963Y-121032173D01*
X144542359Y-121208800D01*
X144524963Y-121385427D01*
X144473443Y-121555266D01*
X144389778Y-121711791D01*
X144360448Y-121747529D01*
X144277186Y-121848986D01*
X144175729Y-121932248D01*
X144139991Y-121961578D01*
X143983466Y-122045243D01*
X143813627Y-122096763D01*
X143747443Y-122103281D01*
X143681260Y-122109800D01*
X143592740Y-122109800D01*
X143526557Y-122103281D01*
X143460373Y-122096763D01*
X143290534Y-122045243D01*
X143134009Y-121961578D01*
X143098271Y-121932248D01*
X142996814Y-121848986D01*
X142913552Y-121747529D01*
X142884222Y-121711791D01*
X142800557Y-121555266D01*
X142749037Y-121385427D01*
X142731641Y-121208800D01*
X142749037Y-121032173D01*
X142800557Y-120862334D01*
X142884222Y-120705809D01*
X142913552Y-120670071D01*
X142996814Y-120568614D01*
X143098271Y-120485352D01*
X143134009Y-120456022D01*
X143290534Y-120372357D01*
X143460373Y-120320837D01*
X143526557Y-120314319D01*
X143592740Y-120307800D01*
X143681260Y-120307800D01*
X143747443Y-120314319D01*
X143747443Y-120314319D01*
G37*
G36*
X139383400Y-119626200D02*
G01*
X137781400Y-119626200D01*
X137781400Y-117224200D01*
X139383400Y-117224200D01*
X139383400Y-119626200D01*
X139383400Y-119626200D01*
G37*
G36*
X141999600Y-119615800D02*
G01*
X140397600Y-119615800D01*
X140397600Y-117213800D01*
X141999600Y-117213800D01*
X141999600Y-119615800D01*
X141999600Y-119615800D01*
G37*
G36*
X147181200Y-119600800D02*
G01*
X145579200Y-119600800D01*
X145579200Y-117198800D01*
X147181200Y-117198800D01*
X147181200Y-119600800D01*
X147181200Y-119600800D01*
G37*
G36*
X152362800Y-119600800D02*
G01*
X150760800Y-119600800D01*
X150760800Y-117198800D01*
X152362800Y-117198800D01*
X152362800Y-119600800D01*
X152362800Y-119600800D01*
G37*
G36*
X144590400Y-119600800D02*
G01*
X142988400Y-119600800D01*
X142988400Y-117198800D01*
X144590400Y-117198800D01*
X144590400Y-119600800D01*
X144590400Y-119600800D01*
G37*
G36*
X154979000Y-119600800D02*
G01*
X153377000Y-119600800D01*
X153377000Y-117198800D01*
X154979000Y-117198800D01*
X154979000Y-119600800D01*
X154979000Y-119600800D01*
G37*
G36*
X157620600Y-119590400D02*
G01*
X156018600Y-119590400D01*
X156018600Y-117188400D01*
X157620600Y-117188400D01*
X157620600Y-119590400D01*
X157620600Y-119590400D01*
G37*
G36*
X149772000Y-119590400D02*
G01*
X148170000Y-119590400D01*
X148170000Y-117188400D01*
X149772000Y-117188400D01*
X149772000Y-119590400D01*
X149772000Y-119590400D01*
G37*
G36*
X160287600Y-119575400D02*
G01*
X158685600Y-119575400D01*
X158685600Y-117173400D01*
X160287600Y-117173400D01*
X160287600Y-119575400D01*
X160287600Y-119575400D01*
G37*
G36*
X97194642Y-110801442D02*
G01*
X97342601Y-110862729D01*
X97475755Y-110951699D01*
X97589001Y-111064945D01*
X97677971Y-111198099D01*
X97739258Y-111346058D01*
X97770500Y-111503125D01*
X97770500Y-111663275D01*
X97739258Y-111820342D01*
X97677971Y-111968301D01*
X97589001Y-112101455D01*
X97475755Y-112214701D01*
X97342601Y-112303671D01*
X97194642Y-112364958D01*
X97037575Y-112396200D01*
X96877425Y-112396200D01*
X96720358Y-112364958D01*
X96572399Y-112303671D01*
X96439245Y-112214701D01*
X96325999Y-112101455D01*
X96237029Y-111968301D01*
X96175742Y-111820342D01*
X96144500Y-111663275D01*
X96144500Y-111503125D01*
X96175742Y-111346058D01*
X96237029Y-111198099D01*
X96325999Y-111064945D01*
X96439245Y-110951699D01*
X96572399Y-110862729D01*
X96720358Y-110801442D01*
X96877425Y-110770200D01*
X97037575Y-110770200D01*
X97194642Y-110801442D01*
X97194642Y-110801442D01*
G37*
G36*
X132524642Y-110801442D02*
G01*
X132672601Y-110862729D01*
X132805755Y-110951699D01*
X132919001Y-111064945D01*
X133007971Y-111198099D01*
X133069258Y-111346058D01*
X133100500Y-111503125D01*
X133100500Y-111663275D01*
X133069258Y-111820342D01*
X133007971Y-111968301D01*
X132919001Y-112101455D01*
X132805755Y-112214701D01*
X132672601Y-112303671D01*
X132524642Y-112364958D01*
X132367575Y-112396200D01*
X132207425Y-112396200D01*
X132050358Y-112364958D01*
X131902399Y-112303671D01*
X131769245Y-112214701D01*
X131655999Y-112101455D01*
X131567029Y-111968301D01*
X131505742Y-111820342D01*
X131474500Y-111663275D01*
X131474500Y-111503125D01*
X131505742Y-111346058D01*
X131567029Y-111198099D01*
X131655999Y-111064945D01*
X131769245Y-110951699D01*
X131902399Y-110862729D01*
X132050358Y-110801442D01*
X132207425Y-110770200D01*
X132367575Y-110770200D01*
X132524642Y-110801442D01*
X132524642Y-110801442D01*
G37*
G36*
X105854642Y-110801442D02*
G01*
X106002601Y-110862729D01*
X106135755Y-110951699D01*
X106249001Y-111064945D01*
X106337971Y-111198099D01*
X106399258Y-111346058D01*
X106430500Y-111503125D01*
X106430500Y-111663275D01*
X106399258Y-111820342D01*
X106337971Y-111968301D01*
X106249001Y-112101455D01*
X106135755Y-112214701D01*
X106002601Y-112303671D01*
X105854642Y-112364958D01*
X105697575Y-112396200D01*
X105537425Y-112396200D01*
X105380358Y-112364958D01*
X105232399Y-112303671D01*
X105099245Y-112214701D01*
X104985999Y-112101455D01*
X104897029Y-111968301D01*
X104835742Y-111820342D01*
X104804500Y-111663275D01*
X104804500Y-111503125D01*
X104835742Y-111346058D01*
X104897029Y-111198099D01*
X104985999Y-111064945D01*
X105099245Y-110951699D01*
X105232399Y-110862729D01*
X105380358Y-110801442D01*
X105537425Y-110770200D01*
X105697575Y-110770200D01*
X105854642Y-110801442D01*
X105854642Y-110801442D01*
G37*
G36*
X177204642Y-110801442D02*
G01*
X177352601Y-110862729D01*
X177485755Y-110951699D01*
X177599001Y-111064945D01*
X177687971Y-111198099D01*
X177749258Y-111346058D01*
X177780500Y-111503125D01*
X177780500Y-111663275D01*
X177749258Y-111820342D01*
X177687971Y-111968301D01*
X177599001Y-112101455D01*
X177485755Y-112214701D01*
X177352601Y-112303671D01*
X177204642Y-112364958D01*
X177047575Y-112396200D01*
X176887425Y-112396200D01*
X176730358Y-112364958D01*
X176582399Y-112303671D01*
X176449245Y-112214701D01*
X176335999Y-112101455D01*
X176247029Y-111968301D01*
X176185742Y-111820342D01*
X176154500Y-111663275D01*
X176154500Y-111503125D01*
X176185742Y-111346058D01*
X176247029Y-111198099D01*
X176335999Y-111064945D01*
X176449245Y-110951699D01*
X176582399Y-110862729D01*
X176730358Y-110801442D01*
X176887425Y-110770200D01*
X177047575Y-110770200D01*
X177204642Y-110801442D01*
X177204642Y-110801442D01*
G37*
G36*
X185864642Y-110801442D02*
G01*
X186012601Y-110862729D01*
X186145755Y-110951699D01*
X186259001Y-111064945D01*
X186347971Y-111198099D01*
X186409258Y-111346058D01*
X186440500Y-111503125D01*
X186440500Y-111663275D01*
X186409258Y-111820342D01*
X186347971Y-111968301D01*
X186259001Y-112101455D01*
X186145755Y-112214701D01*
X186012601Y-112303671D01*
X185864642Y-112364958D01*
X185707575Y-112396200D01*
X185547425Y-112396200D01*
X185390358Y-112364958D01*
X185242399Y-112303671D01*
X185109245Y-112214701D01*
X184995999Y-112101455D01*
X184907029Y-111968301D01*
X184845742Y-111820342D01*
X184814500Y-111663275D01*
X184814500Y-111503125D01*
X184845742Y-111346058D01*
X184907029Y-111198099D01*
X184995999Y-111064945D01*
X185109245Y-110951699D01*
X185242399Y-110862729D01*
X185390358Y-110801442D01*
X185547425Y-110770200D01*
X185707575Y-110770200D01*
X185864642Y-110801442D01*
X185864642Y-110801442D01*
G37*
G36*
X159194642Y-110801442D02*
G01*
X159342601Y-110862729D01*
X159475755Y-110951699D01*
X159589001Y-111064945D01*
X159677971Y-111198099D01*
X159739258Y-111346058D01*
X159770500Y-111503125D01*
X159770500Y-111663275D01*
X159739258Y-111820342D01*
X159677971Y-111968301D01*
X159589001Y-112101455D01*
X159475755Y-112214701D01*
X159342601Y-112303671D01*
X159194642Y-112364958D01*
X159037575Y-112396200D01*
X158877425Y-112396200D01*
X158720358Y-112364958D01*
X158572399Y-112303671D01*
X158439245Y-112214701D01*
X158325999Y-112101455D01*
X158237029Y-111968301D01*
X158175742Y-111820342D01*
X158144500Y-111663275D01*
X158144500Y-111503125D01*
X158175742Y-111346058D01*
X158237029Y-111198099D01*
X158325999Y-111064945D01*
X158439245Y-110951699D01*
X158572399Y-110862729D01*
X158720358Y-110801442D01*
X158877425Y-110770200D01*
X159037575Y-110770200D01*
X159194642Y-110801442D01*
X159194642Y-110801442D01*
G37*
G36*
X150534642Y-110801442D02*
G01*
X150682601Y-110862729D01*
X150815755Y-110951699D01*
X150929001Y-111064945D01*
X151017971Y-111198099D01*
X151079258Y-111346058D01*
X151110500Y-111503125D01*
X151110500Y-111663275D01*
X151079258Y-111820342D01*
X151017971Y-111968301D01*
X150929001Y-112101455D01*
X150815755Y-112214701D01*
X150682601Y-112303671D01*
X150534642Y-112364958D01*
X150377575Y-112396200D01*
X150217425Y-112396200D01*
X150060358Y-112364958D01*
X149912399Y-112303671D01*
X149779245Y-112214701D01*
X149665999Y-112101455D01*
X149577029Y-111968301D01*
X149515742Y-111820342D01*
X149484500Y-111663275D01*
X149484500Y-111503125D01*
X149515742Y-111346058D01*
X149577029Y-111198099D01*
X149665999Y-111064945D01*
X149779245Y-110951699D01*
X149912399Y-110862729D01*
X150060358Y-110801442D01*
X150217425Y-110770200D01*
X150377575Y-110770200D01*
X150534642Y-110801442D01*
X150534642Y-110801442D01*
G37*
G36*
X123864642Y-110801442D02*
G01*
X124012601Y-110862729D01*
X124145755Y-110951699D01*
X124259001Y-111064945D01*
X124347971Y-111198099D01*
X124409258Y-111346058D01*
X124440500Y-111503125D01*
X124440500Y-111663275D01*
X124409258Y-111820342D01*
X124347971Y-111968301D01*
X124259001Y-112101455D01*
X124145755Y-112214701D01*
X124012601Y-112303671D01*
X123864642Y-112364958D01*
X123707575Y-112396200D01*
X123547425Y-112396200D01*
X123390358Y-112364958D01*
X123242399Y-112303671D01*
X123109245Y-112214701D01*
X122995999Y-112101455D01*
X122907029Y-111968301D01*
X122845742Y-111820342D01*
X122814500Y-111663275D01*
X122814500Y-111503125D01*
X122845742Y-111346058D01*
X122907029Y-111198099D01*
X122995999Y-111064945D01*
X123109245Y-110951699D01*
X123242399Y-110862729D01*
X123390358Y-110801442D01*
X123547425Y-110770200D01*
X123707575Y-110770200D01*
X123864642Y-110801442D01*
X123864642Y-110801442D01*
G37*
G36*
X164130642Y-98911442D02*
G01*
X164278601Y-98972729D01*
X164411755Y-99061699D01*
X164525001Y-99174945D01*
X164613971Y-99308099D01*
X164675258Y-99456058D01*
X164706500Y-99613125D01*
X164706500Y-99773275D01*
X164675258Y-99930342D01*
X164613971Y-100078301D01*
X164525001Y-100211455D01*
X164411755Y-100324701D01*
X164278601Y-100413671D01*
X164130642Y-100474958D01*
X163973575Y-100506200D01*
X163813425Y-100506200D01*
X163656358Y-100474958D01*
X163508399Y-100413671D01*
X163375245Y-100324701D01*
X163261999Y-100211455D01*
X163173029Y-100078301D01*
X163111742Y-99930342D01*
X163080500Y-99773275D01*
X163080500Y-99613125D01*
X163111742Y-99456058D01*
X163173029Y-99308099D01*
X163261999Y-99174945D01*
X163375245Y-99061699D01*
X163508399Y-98972729D01*
X163656358Y-98911442D01*
X163813425Y-98880200D01*
X163973575Y-98880200D01*
X164130642Y-98911442D01*
X164130642Y-98911442D01*
G37*
G36*
X190800642Y-98911442D02*
G01*
X190948601Y-98972729D01*
X191081755Y-99061699D01*
X191195001Y-99174945D01*
X191283971Y-99308099D01*
X191345258Y-99456058D01*
X191376500Y-99613125D01*
X191376500Y-99773275D01*
X191345258Y-99930342D01*
X191283971Y-100078301D01*
X191195001Y-100211455D01*
X191081755Y-100324701D01*
X190948601Y-100413671D01*
X190800642Y-100474958D01*
X190643575Y-100506200D01*
X190483425Y-100506200D01*
X190326358Y-100474958D01*
X190178399Y-100413671D01*
X190045245Y-100324701D01*
X189931999Y-100211455D01*
X189843029Y-100078301D01*
X189781742Y-99930342D01*
X189750500Y-99773275D01*
X189750500Y-99613125D01*
X189781742Y-99456058D01*
X189843029Y-99308099D01*
X189931999Y-99174945D01*
X190045245Y-99061699D01*
X190178399Y-98972729D01*
X190326358Y-98911442D01*
X190483425Y-98880200D01*
X190643575Y-98880200D01*
X190800642Y-98911442D01*
X190800642Y-98911442D01*
G37*
G36*
X137460642Y-98911442D02*
G01*
X137608601Y-98972729D01*
X137741755Y-99061699D01*
X137855001Y-99174945D01*
X137943971Y-99308099D01*
X138005258Y-99456058D01*
X138036500Y-99613125D01*
X138036500Y-99773275D01*
X138005258Y-99930342D01*
X137943971Y-100078301D01*
X137855001Y-100211455D01*
X137741755Y-100324701D01*
X137608601Y-100413671D01*
X137460642Y-100474958D01*
X137303575Y-100506200D01*
X137143425Y-100506200D01*
X136986358Y-100474958D01*
X136838399Y-100413671D01*
X136705245Y-100324701D01*
X136591999Y-100211455D01*
X136503029Y-100078301D01*
X136441742Y-99930342D01*
X136410500Y-99773275D01*
X136410500Y-99613125D01*
X136441742Y-99456058D01*
X136503029Y-99308099D01*
X136591999Y-99174945D01*
X136705245Y-99061699D01*
X136838399Y-98972729D01*
X136986358Y-98911442D01*
X137143425Y-98880200D01*
X137303575Y-98880200D01*
X137460642Y-98911442D01*
X137460642Y-98911442D01*
G37*
G36*
X110790642Y-98911442D02*
G01*
X110938601Y-98972729D01*
X111071755Y-99061699D01*
X111185001Y-99174945D01*
X111273971Y-99308099D01*
X111335258Y-99456058D01*
X111366500Y-99613125D01*
X111366500Y-99773275D01*
X111335258Y-99930342D01*
X111273971Y-100078301D01*
X111185001Y-100211455D01*
X111071755Y-100324701D01*
X110938601Y-100413671D01*
X110790642Y-100474958D01*
X110633575Y-100506200D01*
X110473425Y-100506200D01*
X110316358Y-100474958D01*
X110168399Y-100413671D01*
X110035245Y-100324701D01*
X109921999Y-100211455D01*
X109833029Y-100078301D01*
X109771742Y-99930342D01*
X109740500Y-99773275D01*
X109740500Y-99613125D01*
X109771742Y-99456058D01*
X109833029Y-99308099D01*
X109921999Y-99174945D01*
X110035245Y-99061699D01*
X110168399Y-98972729D01*
X110316358Y-98911442D01*
X110473425Y-98880200D01*
X110633575Y-98880200D01*
X110790642Y-98911442D01*
X110790642Y-98911442D01*
G37*
G36*
X165834842Y-87205442D02*
G01*
X165982801Y-87266729D01*
X166115955Y-87355699D01*
X166229201Y-87468945D01*
X166318171Y-87602099D01*
X166379458Y-87750058D01*
X166410700Y-87907125D01*
X166410700Y-88067275D01*
X166379458Y-88224342D01*
X166318171Y-88372301D01*
X166229201Y-88505455D01*
X166115955Y-88618701D01*
X165982801Y-88707671D01*
X165834842Y-88768958D01*
X165677775Y-88800200D01*
X165517625Y-88800200D01*
X165360558Y-88768958D01*
X165212599Y-88707671D01*
X165079445Y-88618701D01*
X164966199Y-88505455D01*
X164877229Y-88372301D01*
X164815942Y-88224342D01*
X164784700Y-88067275D01*
X164784700Y-87907125D01*
X164815942Y-87750058D01*
X164877229Y-87602099D01*
X164966199Y-87468945D01*
X165079445Y-87355699D01*
X165212599Y-87266729D01*
X165360558Y-87205442D01*
X165517625Y-87174200D01*
X165677775Y-87174200D01*
X165834842Y-87205442D01*
X165834842Y-87205442D01*
G37*
G36*
X112494842Y-87205442D02*
G01*
X112642801Y-87266729D01*
X112775955Y-87355699D01*
X112889201Y-87468945D01*
X112978171Y-87602099D01*
X113039458Y-87750058D01*
X113070700Y-87907125D01*
X113070700Y-88067275D01*
X113039458Y-88224342D01*
X112978171Y-88372301D01*
X112889201Y-88505455D01*
X112775955Y-88618701D01*
X112642801Y-88707671D01*
X112494842Y-88768958D01*
X112337775Y-88800200D01*
X112177625Y-88800200D01*
X112020558Y-88768958D01*
X111872599Y-88707671D01*
X111739445Y-88618701D01*
X111626199Y-88505455D01*
X111537229Y-88372301D01*
X111475942Y-88224342D01*
X111444700Y-88067275D01*
X111444700Y-87907125D01*
X111475942Y-87750058D01*
X111537229Y-87602099D01*
X111626199Y-87468945D01*
X111739445Y-87355699D01*
X111872599Y-87266729D01*
X112020558Y-87205442D01*
X112177625Y-87174200D01*
X112337775Y-87174200D01*
X112494842Y-87205442D01*
X112494842Y-87205442D01*
G37*
G36*
X139164842Y-87205442D02*
G01*
X139312801Y-87266729D01*
X139445955Y-87355699D01*
X139559201Y-87468945D01*
X139648171Y-87602099D01*
X139709458Y-87750058D01*
X139740700Y-87907125D01*
X139740700Y-88067275D01*
X139709458Y-88224342D01*
X139648171Y-88372301D01*
X139559201Y-88505455D01*
X139445955Y-88618701D01*
X139312801Y-88707671D01*
X139164842Y-88768958D01*
X139007775Y-88800200D01*
X138847625Y-88800200D01*
X138690558Y-88768958D01*
X138542599Y-88707671D01*
X138409445Y-88618701D01*
X138296199Y-88505455D01*
X138207229Y-88372301D01*
X138145942Y-88224342D01*
X138114700Y-88067275D01*
X138114700Y-87907125D01*
X138145942Y-87750058D01*
X138207229Y-87602099D01*
X138296199Y-87468945D01*
X138409445Y-87355699D01*
X138542599Y-87266729D01*
X138690558Y-87205442D01*
X138847625Y-87174200D01*
X139007775Y-87174200D01*
X139164842Y-87205442D01*
X139164842Y-87205442D01*
G37*
G36*
X192504842Y-87205442D02*
G01*
X192652801Y-87266729D01*
X192785955Y-87355699D01*
X192899201Y-87468945D01*
X192988171Y-87602099D01*
X193049458Y-87750058D01*
X193080700Y-87907125D01*
X193080700Y-88067275D01*
X193049458Y-88224342D01*
X192988171Y-88372301D01*
X192899201Y-88505455D01*
X192785955Y-88618701D01*
X192652801Y-88707671D01*
X192504842Y-88768958D01*
X192347775Y-88800200D01*
X192187625Y-88800200D01*
X192030558Y-88768958D01*
X191882599Y-88707671D01*
X191749445Y-88618701D01*
X191636199Y-88505455D01*
X191547229Y-88372301D01*
X191485942Y-88224342D01*
X191454700Y-88067275D01*
X191454700Y-87907125D01*
X191485942Y-87750058D01*
X191547229Y-87602099D01*
X191636199Y-87468945D01*
X191749445Y-87355699D01*
X191882599Y-87266729D01*
X192030558Y-87205442D01*
X192187625Y-87174200D01*
X192347775Y-87174200D01*
X192504842Y-87205442D01*
X192504842Y-87205442D01*
G37*
G36*
X94049642Y-86353042D02*
G01*
X94197601Y-86414329D01*
X94330755Y-86503299D01*
X94444001Y-86616545D01*
X94532971Y-86749699D01*
X94594258Y-86897658D01*
X94625500Y-87054725D01*
X94625500Y-87214875D01*
X94594258Y-87371942D01*
X94532971Y-87519901D01*
X94444001Y-87653055D01*
X94330755Y-87766301D01*
X94197601Y-87855271D01*
X94049642Y-87916558D01*
X93892575Y-87947800D01*
X93732425Y-87947800D01*
X93575358Y-87916558D01*
X93427399Y-87855271D01*
X93294245Y-87766301D01*
X93180999Y-87653055D01*
X93092029Y-87519901D01*
X93030742Y-87371942D01*
X92999500Y-87214875D01*
X92999500Y-87054725D01*
X93030742Y-86897658D01*
X93092029Y-86749699D01*
X93180999Y-86616545D01*
X93294245Y-86503299D01*
X93427399Y-86414329D01*
X93575358Y-86353042D01*
X93732425Y-86321800D01*
X93892575Y-86321800D01*
X94049642Y-86353042D01*
X94049642Y-86353042D01*
G37*
G36*
X174059642Y-86353042D02*
G01*
X174207601Y-86414329D01*
X174340755Y-86503299D01*
X174454001Y-86616545D01*
X174542971Y-86749699D01*
X174604258Y-86897658D01*
X174635500Y-87054725D01*
X174635500Y-87214875D01*
X174604258Y-87371942D01*
X174542971Y-87519901D01*
X174454001Y-87653055D01*
X174340755Y-87766301D01*
X174207601Y-87855271D01*
X174059642Y-87916558D01*
X173902575Y-87947800D01*
X173742425Y-87947800D01*
X173585358Y-87916558D01*
X173437399Y-87855271D01*
X173304245Y-87766301D01*
X173190999Y-87653055D01*
X173102029Y-87519901D01*
X173040742Y-87371942D01*
X173009500Y-87214875D01*
X173009500Y-87054725D01*
X173040742Y-86897658D01*
X173102029Y-86749699D01*
X173190999Y-86616545D01*
X173304245Y-86503299D01*
X173437399Y-86414329D01*
X173585358Y-86353042D01*
X173742425Y-86321800D01*
X173902575Y-86321800D01*
X174059642Y-86353042D01*
X174059642Y-86353042D01*
G37*
G36*
X120719642Y-86353042D02*
G01*
X120867601Y-86414329D01*
X121000755Y-86503299D01*
X121114001Y-86616545D01*
X121202971Y-86749699D01*
X121264258Y-86897658D01*
X121295500Y-87054725D01*
X121295500Y-87214875D01*
X121264258Y-87371942D01*
X121202971Y-87519901D01*
X121114001Y-87653055D01*
X121000755Y-87766301D01*
X120867601Y-87855271D01*
X120719642Y-87916558D01*
X120562575Y-87947800D01*
X120402425Y-87947800D01*
X120245358Y-87916558D01*
X120097399Y-87855271D01*
X119964245Y-87766301D01*
X119850999Y-87653055D01*
X119762029Y-87519901D01*
X119700742Y-87371942D01*
X119669500Y-87214875D01*
X119669500Y-87054725D01*
X119700742Y-86897658D01*
X119762029Y-86749699D01*
X119850999Y-86616545D01*
X119964245Y-86503299D01*
X120097399Y-86414329D01*
X120245358Y-86353042D01*
X120402425Y-86321800D01*
X120562575Y-86321800D01*
X120719642Y-86353042D01*
X120719642Y-86353042D01*
G37*
G36*
X147389642Y-86353042D02*
G01*
X147537601Y-86414329D01*
X147670755Y-86503299D01*
X147784001Y-86616545D01*
X147872971Y-86749699D01*
X147934258Y-86897658D01*
X147965500Y-87054725D01*
X147965500Y-87214875D01*
X147934258Y-87371942D01*
X147872971Y-87519901D01*
X147784001Y-87653055D01*
X147670755Y-87766301D01*
X147537601Y-87855271D01*
X147389642Y-87916558D01*
X147232575Y-87947800D01*
X147072425Y-87947800D01*
X146915358Y-87916558D01*
X146767399Y-87855271D01*
X146634245Y-87766301D01*
X146520999Y-87653055D01*
X146432029Y-87519901D01*
X146370742Y-87371942D01*
X146339500Y-87214875D01*
X146339500Y-87054725D01*
X146370742Y-86897658D01*
X146432029Y-86749699D01*
X146520999Y-86616545D01*
X146634245Y-86503299D01*
X146767399Y-86414329D01*
X146915358Y-86353042D01*
X147072425Y-86321800D01*
X147232575Y-86321800D01*
X147389642Y-86353042D01*
X147389642Y-86353042D01*
G37*
G36*
X97194642Y-76511442D02*
G01*
X97342601Y-76572729D01*
X97475755Y-76661699D01*
X97589001Y-76774945D01*
X97677971Y-76908099D01*
X97739258Y-77056058D01*
X97770500Y-77213125D01*
X97770500Y-77373275D01*
X97739258Y-77530342D01*
X97677971Y-77678301D01*
X97589001Y-77811455D01*
X97475755Y-77924701D01*
X97342601Y-78013671D01*
X97194642Y-78074958D01*
X97037575Y-78106200D01*
X96877425Y-78106200D01*
X96720358Y-78074958D01*
X96572399Y-78013671D01*
X96439245Y-77924701D01*
X96325999Y-77811455D01*
X96237029Y-77678301D01*
X96175742Y-77530342D01*
X96144500Y-77373275D01*
X96144500Y-77213125D01*
X96175742Y-77056058D01*
X96237029Y-76908099D01*
X96325999Y-76774945D01*
X96439245Y-76661699D01*
X96572399Y-76572729D01*
X96720358Y-76511442D01*
X96877425Y-76480200D01*
X97037575Y-76480200D01*
X97194642Y-76511442D01*
X97194642Y-76511442D01*
G37*
G36*
X177204642Y-76511442D02*
G01*
X177352601Y-76572729D01*
X177485755Y-76661699D01*
X177599001Y-76774945D01*
X177687971Y-76908099D01*
X177749258Y-77056058D01*
X177780500Y-77213125D01*
X177780500Y-77373275D01*
X177749258Y-77530342D01*
X177687971Y-77678301D01*
X177599001Y-77811455D01*
X177485755Y-77924701D01*
X177352601Y-78013671D01*
X177204642Y-78074958D01*
X177047575Y-78106200D01*
X176887425Y-78106200D01*
X176730358Y-78074958D01*
X176582399Y-78013671D01*
X176449245Y-77924701D01*
X176335999Y-77811455D01*
X176247029Y-77678301D01*
X176185742Y-77530342D01*
X176154500Y-77373275D01*
X176154500Y-77213125D01*
X176185742Y-77056058D01*
X176247029Y-76908099D01*
X176335999Y-76774945D01*
X176449245Y-76661699D01*
X176582399Y-76572729D01*
X176730358Y-76511442D01*
X176887425Y-76480200D01*
X177047575Y-76480200D01*
X177204642Y-76511442D01*
X177204642Y-76511442D01*
G37*
G36*
X159194642Y-76511442D02*
G01*
X159342601Y-76572729D01*
X159475755Y-76661699D01*
X159589001Y-76774945D01*
X159677971Y-76908099D01*
X159739258Y-77056058D01*
X159770500Y-77213125D01*
X159770500Y-77373275D01*
X159739258Y-77530342D01*
X159677971Y-77678301D01*
X159589001Y-77811455D01*
X159475755Y-77924701D01*
X159342601Y-78013671D01*
X159194642Y-78074958D01*
X159037575Y-78106200D01*
X158877425Y-78106200D01*
X158720358Y-78074958D01*
X158572399Y-78013671D01*
X158439245Y-77924701D01*
X158325999Y-77811455D01*
X158237029Y-77678301D01*
X158175742Y-77530342D01*
X158144500Y-77373275D01*
X158144500Y-77213125D01*
X158175742Y-77056058D01*
X158237029Y-76908099D01*
X158325999Y-76774945D01*
X158439245Y-76661699D01*
X158572399Y-76572729D01*
X158720358Y-76511442D01*
X158877425Y-76480200D01*
X159037575Y-76480200D01*
X159194642Y-76511442D01*
X159194642Y-76511442D01*
G37*
G36*
X150534642Y-76511442D02*
G01*
X150682601Y-76572729D01*
X150815755Y-76661699D01*
X150929001Y-76774945D01*
X151017971Y-76908099D01*
X151079258Y-77056058D01*
X151110500Y-77213125D01*
X151110500Y-77373275D01*
X151079258Y-77530342D01*
X151017971Y-77678301D01*
X150929001Y-77811455D01*
X150815755Y-77924701D01*
X150682601Y-78013671D01*
X150534642Y-78074958D01*
X150377575Y-78106200D01*
X150217425Y-78106200D01*
X150060358Y-78074958D01*
X149912399Y-78013671D01*
X149779245Y-77924701D01*
X149665999Y-77811455D01*
X149577029Y-77678301D01*
X149515742Y-77530342D01*
X149484500Y-77373275D01*
X149484500Y-77213125D01*
X149515742Y-77056058D01*
X149577029Y-76908099D01*
X149665999Y-76774945D01*
X149779245Y-76661699D01*
X149912399Y-76572729D01*
X150060358Y-76511442D01*
X150217425Y-76480200D01*
X150377575Y-76480200D01*
X150534642Y-76511442D01*
X150534642Y-76511442D01*
G37*
G36*
X123864642Y-76511442D02*
G01*
X124012601Y-76572729D01*
X124145755Y-76661699D01*
X124259001Y-76774945D01*
X124347971Y-76908099D01*
X124409258Y-77056058D01*
X124440500Y-77213125D01*
X124440500Y-77373275D01*
X124409258Y-77530342D01*
X124347971Y-77678301D01*
X124259001Y-77811455D01*
X124145755Y-77924701D01*
X124012601Y-78013671D01*
X123864642Y-78074958D01*
X123707575Y-78106200D01*
X123547425Y-78106200D01*
X123390358Y-78074958D01*
X123242399Y-78013671D01*
X123109245Y-77924701D01*
X122995999Y-77811455D01*
X122907029Y-77678301D01*
X122845742Y-77530342D01*
X122814500Y-77373275D01*
X122814500Y-77213125D01*
X122845742Y-77056058D01*
X122907029Y-76908099D01*
X122995999Y-76774945D01*
X123109245Y-76661699D01*
X123242399Y-76572729D01*
X123390358Y-76511442D01*
X123547425Y-76480200D01*
X123707575Y-76480200D01*
X123864642Y-76511442D01*
X123864642Y-76511442D01*
G37*
G36*
X185864642Y-76511442D02*
G01*
X186012601Y-76572729D01*
X186145755Y-76661699D01*
X186259001Y-76774945D01*
X186347971Y-76908099D01*
X186409258Y-77056058D01*
X186440500Y-77213125D01*
X186440500Y-77373275D01*
X186409258Y-77530342D01*
X186347971Y-77678301D01*
X186259001Y-77811455D01*
X186145755Y-77924701D01*
X186012601Y-78013671D01*
X185864642Y-78074958D01*
X185707575Y-78106200D01*
X185547425Y-78106200D01*
X185390358Y-78074958D01*
X185242399Y-78013671D01*
X185109245Y-77924701D01*
X184995999Y-77811455D01*
X184907029Y-77678301D01*
X184845742Y-77530342D01*
X184814500Y-77373275D01*
X184814500Y-77213125D01*
X184845742Y-77056058D01*
X184907029Y-76908099D01*
X184995999Y-76774945D01*
X185109245Y-76661699D01*
X185242399Y-76572729D01*
X185390358Y-76511442D01*
X185547425Y-76480200D01*
X185707575Y-76480200D01*
X185864642Y-76511442D01*
X185864642Y-76511442D01*
G37*
G36*
X105854642Y-76511442D02*
G01*
X106002601Y-76572729D01*
X106135755Y-76661699D01*
X106249001Y-76774945D01*
X106337971Y-76908099D01*
X106399258Y-77056058D01*
X106430500Y-77213125D01*
X106430500Y-77373275D01*
X106399258Y-77530342D01*
X106337971Y-77678301D01*
X106249001Y-77811455D01*
X106135755Y-77924701D01*
X106002601Y-78013671D01*
X105854642Y-78074958D01*
X105697575Y-78106200D01*
X105537425Y-78106200D01*
X105380358Y-78074958D01*
X105232399Y-78013671D01*
X105099245Y-77924701D01*
X104985999Y-77811455D01*
X104897029Y-77678301D01*
X104835742Y-77530342D01*
X104804500Y-77373275D01*
X104804500Y-77213125D01*
X104835742Y-77056058D01*
X104897029Y-76908099D01*
X104985999Y-76774945D01*
X105099245Y-76661699D01*
X105232399Y-76572729D01*
X105380358Y-76511442D01*
X105537425Y-76480200D01*
X105697575Y-76480200D01*
X105854642Y-76511442D01*
X105854642Y-76511442D01*
G37*
G36*
X132524642Y-76511442D02*
G01*
X132672601Y-76572729D01*
X132805755Y-76661699D01*
X132919001Y-76774945D01*
X133007971Y-76908099D01*
X133069258Y-77056058D01*
X133100500Y-77213125D01*
X133100500Y-77373275D01*
X133069258Y-77530342D01*
X133007971Y-77678301D01*
X132919001Y-77811455D01*
X132805755Y-77924701D01*
X132672601Y-78013671D01*
X132524642Y-78074958D01*
X132367575Y-78106200D01*
X132207425Y-78106200D01*
X132050358Y-78074958D01*
X131902399Y-78013671D01*
X131769245Y-77924701D01*
X131655999Y-77811455D01*
X131567029Y-77678301D01*
X131505742Y-77530342D01*
X131474500Y-77373275D01*
X131474500Y-77213125D01*
X131505742Y-77056058D01*
X131567029Y-76908099D01*
X131655999Y-76774945D01*
X131769245Y-76661699D01*
X131902399Y-76572729D01*
X132050358Y-76511442D01*
X132207425Y-76480200D01*
X132367575Y-76480200D01*
X132524642Y-76511442D01*
X132524642Y-76511442D01*
G37*
G36*
X110790642Y-64621442D02*
G01*
X110938601Y-64682729D01*
X111071755Y-64771699D01*
X111185001Y-64884945D01*
X111273971Y-65018099D01*
X111335258Y-65166058D01*
X111366500Y-65323125D01*
X111366500Y-65483275D01*
X111335258Y-65640342D01*
X111273971Y-65788301D01*
X111185001Y-65921455D01*
X111071755Y-66034701D01*
X110938601Y-66123671D01*
X110790642Y-66184958D01*
X110633575Y-66216200D01*
X110473425Y-66216200D01*
X110316358Y-66184958D01*
X110168399Y-66123671D01*
X110035245Y-66034701D01*
X109921999Y-65921455D01*
X109833029Y-65788301D01*
X109771742Y-65640342D01*
X109740500Y-65483275D01*
X109740500Y-65323125D01*
X109771742Y-65166058D01*
X109833029Y-65018099D01*
X109921999Y-64884945D01*
X110035245Y-64771699D01*
X110168399Y-64682729D01*
X110316358Y-64621442D01*
X110473425Y-64590200D01*
X110633575Y-64590200D01*
X110790642Y-64621442D01*
X110790642Y-64621442D01*
G37*
G36*
X164130642Y-64621442D02*
G01*
X164278601Y-64682729D01*
X164411755Y-64771699D01*
X164525001Y-64884945D01*
X164613971Y-65018099D01*
X164675258Y-65166058D01*
X164706500Y-65323125D01*
X164706500Y-65483275D01*
X164675258Y-65640342D01*
X164613971Y-65788301D01*
X164525001Y-65921455D01*
X164411755Y-66034701D01*
X164278601Y-66123671D01*
X164130642Y-66184958D01*
X163973575Y-66216200D01*
X163813425Y-66216200D01*
X163656358Y-66184958D01*
X163508399Y-66123671D01*
X163375245Y-66034701D01*
X163261999Y-65921455D01*
X163173029Y-65788301D01*
X163111742Y-65640342D01*
X163080500Y-65483275D01*
X163080500Y-65323125D01*
X163111742Y-65166058D01*
X163173029Y-65018099D01*
X163261999Y-64884945D01*
X163375245Y-64771699D01*
X163508399Y-64682729D01*
X163656358Y-64621442D01*
X163813425Y-64590200D01*
X163973575Y-64590200D01*
X164130642Y-64621442D01*
X164130642Y-64621442D01*
G37*
G36*
X137460642Y-64621442D02*
G01*
X137608601Y-64682729D01*
X137741755Y-64771699D01*
X137855001Y-64884945D01*
X137943971Y-65018099D01*
X138005258Y-65166058D01*
X138036500Y-65323125D01*
X138036500Y-65483275D01*
X138005258Y-65640342D01*
X137943971Y-65788301D01*
X137855001Y-65921455D01*
X137741755Y-66034701D01*
X137608601Y-66123671D01*
X137460642Y-66184958D01*
X137303575Y-66216200D01*
X137143425Y-66216200D01*
X136986358Y-66184958D01*
X136838399Y-66123671D01*
X136705245Y-66034701D01*
X136591999Y-65921455D01*
X136503029Y-65788301D01*
X136441742Y-65640342D01*
X136410500Y-65483275D01*
X136410500Y-65323125D01*
X136441742Y-65166058D01*
X136503029Y-65018099D01*
X136591999Y-64884945D01*
X136705245Y-64771699D01*
X136838399Y-64682729D01*
X136986358Y-64621442D01*
X137143425Y-64590200D01*
X137303575Y-64590200D01*
X137460642Y-64621442D01*
X137460642Y-64621442D01*
G37*
G36*
X190800642Y-64621442D02*
G01*
X190948601Y-64682729D01*
X191081755Y-64771699D01*
X191195001Y-64884945D01*
X191283971Y-65018099D01*
X191345258Y-65166058D01*
X191376500Y-65323125D01*
X191376500Y-65483275D01*
X191345258Y-65640342D01*
X191283971Y-65788301D01*
X191195001Y-65921455D01*
X191081755Y-66034701D01*
X190948601Y-66123671D01*
X190800642Y-66184958D01*
X190643575Y-66216200D01*
X190483425Y-66216200D01*
X190326358Y-66184958D01*
X190178399Y-66123671D01*
X190045245Y-66034701D01*
X189931999Y-65921455D01*
X189843029Y-65788301D01*
X189781742Y-65640342D01*
X189750500Y-65483275D01*
X189750500Y-65323125D01*
X189781742Y-65166058D01*
X189843029Y-65018099D01*
X189931999Y-64884945D01*
X190045245Y-64771699D01*
X190178399Y-64682729D01*
X190326358Y-64621442D01*
X190483425Y-64590200D01*
X190643575Y-64590200D01*
X190800642Y-64621442D01*
X190800642Y-64621442D01*
G37*
G36*
X100869000Y-58705000D02*
G01*
X98267000Y-58705000D01*
X98267000Y-56103000D01*
X100869000Y-56103000D01*
X100869000Y-58705000D01*
X100869000Y-58705000D01*
G37*
G36*
X139164842Y-52915442D02*
G01*
X139312801Y-52976729D01*
X139445955Y-53065699D01*
X139559201Y-53178945D01*
X139648171Y-53312099D01*
X139709458Y-53460058D01*
X139740700Y-53617125D01*
X139740700Y-53777275D01*
X139709458Y-53934342D01*
X139648171Y-54082301D01*
X139559201Y-54215455D01*
X139445955Y-54328701D01*
X139312801Y-54417671D01*
X139164842Y-54478958D01*
X139007775Y-54510200D01*
X138847625Y-54510200D01*
X138690558Y-54478958D01*
X138542599Y-54417671D01*
X138409445Y-54328701D01*
X138296199Y-54215455D01*
X138207229Y-54082301D01*
X138145942Y-53934342D01*
X138114700Y-53777275D01*
X138114700Y-53617125D01*
X138145942Y-53460058D01*
X138207229Y-53312099D01*
X138296199Y-53178945D01*
X138409445Y-53065699D01*
X138542599Y-52976729D01*
X138690558Y-52915442D01*
X138847625Y-52884200D01*
X139007775Y-52884200D01*
X139164842Y-52915442D01*
X139164842Y-52915442D01*
G37*
G36*
X112494842Y-52915442D02*
G01*
X112642801Y-52976729D01*
X112775955Y-53065699D01*
X112889201Y-53178945D01*
X112978171Y-53312099D01*
X113039458Y-53460058D01*
X113070700Y-53617125D01*
X113070700Y-53777275D01*
X113039458Y-53934342D01*
X112978171Y-54082301D01*
X112889201Y-54215455D01*
X112775955Y-54328701D01*
X112642801Y-54417671D01*
X112494842Y-54478958D01*
X112337775Y-54510200D01*
X112177625Y-54510200D01*
X112020558Y-54478958D01*
X111872599Y-54417671D01*
X111739445Y-54328701D01*
X111626199Y-54215455D01*
X111537229Y-54082301D01*
X111475942Y-53934342D01*
X111444700Y-53777275D01*
X111444700Y-53617125D01*
X111475942Y-53460058D01*
X111537229Y-53312099D01*
X111626199Y-53178945D01*
X111739445Y-53065699D01*
X111872599Y-52976729D01*
X112020558Y-52915442D01*
X112177625Y-52884200D01*
X112337775Y-52884200D01*
X112494842Y-52915442D01*
X112494842Y-52915442D01*
G37*
G36*
X192504842Y-52915442D02*
G01*
X192652801Y-52976729D01*
X192785955Y-53065699D01*
X192899201Y-53178945D01*
X192988171Y-53312099D01*
X193049458Y-53460058D01*
X193080700Y-53617125D01*
X193080700Y-53777275D01*
X193049458Y-53934342D01*
X192988171Y-54082301D01*
X192899201Y-54215455D01*
X192785955Y-54328701D01*
X192652801Y-54417671D01*
X192504842Y-54478958D01*
X192347775Y-54510200D01*
X192187625Y-54510200D01*
X192030558Y-54478958D01*
X191882599Y-54417671D01*
X191749445Y-54328701D01*
X191636199Y-54215455D01*
X191547229Y-54082301D01*
X191485942Y-53934342D01*
X191454700Y-53777275D01*
X191454700Y-53617125D01*
X191485942Y-53460058D01*
X191547229Y-53312099D01*
X191636199Y-53178945D01*
X191749445Y-53065699D01*
X191882599Y-52976729D01*
X192030558Y-52915442D01*
X192187625Y-52884200D01*
X192347775Y-52884200D01*
X192504842Y-52915442D01*
X192504842Y-52915442D01*
G37*
G36*
X165834842Y-52915442D02*
G01*
X165982801Y-52976729D01*
X166115955Y-53065699D01*
X166229201Y-53178945D01*
X166318171Y-53312099D01*
X166379458Y-53460058D01*
X166410700Y-53617125D01*
X166410700Y-53777275D01*
X166379458Y-53934342D01*
X166318171Y-54082301D01*
X166229201Y-54215455D01*
X166115955Y-54328701D01*
X165982801Y-54417671D01*
X165834842Y-54478958D01*
X165677775Y-54510200D01*
X165517625Y-54510200D01*
X165360558Y-54478958D01*
X165212599Y-54417671D01*
X165079445Y-54328701D01*
X164966199Y-54215455D01*
X164877229Y-54082301D01*
X164815942Y-53934342D01*
X164784700Y-53777275D01*
X164784700Y-53617125D01*
X164815942Y-53460058D01*
X164877229Y-53312099D01*
X164966199Y-53178945D01*
X165079445Y-53065699D01*
X165212599Y-52976729D01*
X165360558Y-52915442D01*
X165517625Y-52884200D01*
X165677775Y-52884200D01*
X165834842Y-52915442D01*
X165834842Y-52915442D01*
G37*
G36*
X147389642Y-52063042D02*
G01*
X147537601Y-52124329D01*
X147670755Y-52213299D01*
X147784001Y-52326545D01*
X147872971Y-52459699D01*
X147934258Y-52607658D01*
X147965500Y-52764725D01*
X147965500Y-52924875D01*
X147934258Y-53081942D01*
X147872971Y-53229901D01*
X147784001Y-53363055D01*
X147670755Y-53476301D01*
X147537601Y-53565271D01*
X147389642Y-53626558D01*
X147232575Y-53657800D01*
X147072425Y-53657800D01*
X146915358Y-53626558D01*
X146767399Y-53565271D01*
X146634245Y-53476301D01*
X146520999Y-53363055D01*
X146432029Y-53229901D01*
X146370742Y-53081942D01*
X146339500Y-52924875D01*
X146339500Y-52764725D01*
X146370742Y-52607658D01*
X146432029Y-52459699D01*
X146520999Y-52326545D01*
X146634245Y-52213299D01*
X146767399Y-52124329D01*
X146915358Y-52063042D01*
X147072425Y-52031800D01*
X147232575Y-52031800D01*
X147389642Y-52063042D01*
X147389642Y-52063042D01*
G37*
G36*
X94049642Y-52063042D02*
G01*
X94197601Y-52124329D01*
X94330755Y-52213299D01*
X94444001Y-52326545D01*
X94532971Y-52459699D01*
X94594258Y-52607658D01*
X94625500Y-52764725D01*
X94625500Y-52924875D01*
X94594258Y-53081942D01*
X94532971Y-53229901D01*
X94444001Y-53363055D01*
X94330755Y-53476301D01*
X94197601Y-53565271D01*
X94049642Y-53626558D01*
X93892575Y-53657800D01*
X93732425Y-53657800D01*
X93575358Y-53626558D01*
X93427399Y-53565271D01*
X93294245Y-53476301D01*
X93180999Y-53363055D01*
X93092029Y-53229901D01*
X93030742Y-53081942D01*
X92999500Y-52924875D01*
X92999500Y-52764725D01*
X93030742Y-52607658D01*
X93092029Y-52459699D01*
X93180999Y-52326545D01*
X93294245Y-52213299D01*
X93427399Y-52124329D01*
X93575358Y-52063042D01*
X93732425Y-52031800D01*
X93892575Y-52031800D01*
X94049642Y-52063042D01*
X94049642Y-52063042D01*
G37*
G36*
X120719642Y-52063042D02*
G01*
X120867601Y-52124329D01*
X121000755Y-52213299D01*
X121114001Y-52326545D01*
X121202971Y-52459699D01*
X121264258Y-52607658D01*
X121295500Y-52764725D01*
X121295500Y-52924875D01*
X121264258Y-53081942D01*
X121202971Y-53229901D01*
X121114001Y-53363055D01*
X121000755Y-53476301D01*
X120867601Y-53565271D01*
X120719642Y-53626558D01*
X120562575Y-53657800D01*
X120402425Y-53657800D01*
X120245358Y-53626558D01*
X120097399Y-53565271D01*
X119964245Y-53476301D01*
X119850999Y-53363055D01*
X119762029Y-53229901D01*
X119700742Y-53081942D01*
X119669500Y-52924875D01*
X119669500Y-52764725D01*
X119700742Y-52607658D01*
X119762029Y-52459699D01*
X119850999Y-52326545D01*
X119964245Y-52213299D01*
X120097399Y-52124329D01*
X120245358Y-52063042D01*
X120402425Y-52031800D01*
X120562575Y-52031800D01*
X120719642Y-52063042D01*
X120719642Y-52063042D01*
G37*
G36*
X174059642Y-52063042D02*
G01*
X174207601Y-52124329D01*
X174340755Y-52213299D01*
X174454001Y-52326545D01*
X174542971Y-52459699D01*
X174604258Y-52607658D01*
X174635500Y-52764725D01*
X174635500Y-52924875D01*
X174604258Y-53081942D01*
X174542971Y-53229901D01*
X174454001Y-53363055D01*
X174340755Y-53476301D01*
X174207601Y-53565271D01*
X174059642Y-53626558D01*
X173902575Y-53657800D01*
X173742425Y-53657800D01*
X173585358Y-53626558D01*
X173437399Y-53565271D01*
X173304245Y-53476301D01*
X173190999Y-53363055D01*
X173102029Y-53229901D01*
X173040742Y-53081942D01*
X173009500Y-52924875D01*
X173009500Y-52764725D01*
X173040742Y-52607658D01*
X173102029Y-52459699D01*
X173190999Y-52326545D01*
X173304245Y-52213299D01*
X173437399Y-52124329D01*
X173585358Y-52063042D01*
X173742425Y-52031800D01*
X173902575Y-52031800D01*
X174059642Y-52063042D01*
X174059642Y-52063042D01*
G37*
G36*
X189024202Y-46733781D02*
G01*
X189299606Y-46788562D01*
X189818455Y-47003476D01*
X190285407Y-47315484D01*
X190682516Y-47712593D01*
X190994524Y-48179545D01*
X191209438Y-48698394D01*
X191319000Y-49249201D01*
X191319000Y-49810799D01*
X191209438Y-50361606D01*
X190994524Y-50880455D01*
X190682516Y-51347407D01*
X190285407Y-51744516D01*
X189818455Y-52056524D01*
X189299606Y-52271438D01*
X188748800Y-52381000D01*
X188187200Y-52381000D01*
X187911798Y-52326219D01*
X187636394Y-52271438D01*
X187117545Y-52056524D01*
X186650593Y-51744516D01*
X186253484Y-51347407D01*
X185941476Y-50880455D01*
X185726562Y-50361606D01*
X185617000Y-49810799D01*
X185617000Y-49249201D01*
X185726562Y-48698394D01*
X185941476Y-48179545D01*
X186253484Y-47712593D01*
X186650593Y-47315484D01*
X187117545Y-47003476D01*
X187636394Y-46788562D01*
X187911798Y-46733781D01*
X188187200Y-46679000D01*
X188748800Y-46679000D01*
X189024202Y-46733781D01*
X189024202Y-46733781D01*
G37*
G36*
X97567506Y-46460902D02*
G01*
X98086355Y-46675816D01*
X98553307Y-46987824D01*
X98950416Y-47384933D01*
X99262424Y-47851885D01*
X99477338Y-48370734D01*
X99505835Y-48514000D01*
X99586900Y-48921540D01*
X99586900Y-49483140D01*
X99562771Y-49604443D01*
X99477338Y-50033946D01*
X99262424Y-50552795D01*
X99043489Y-50880453D01*
X98950417Y-51019746D01*
X98553306Y-51416857D01*
X98477612Y-51467434D01*
X98086355Y-51728864D01*
X97567506Y-51943778D01*
X97292102Y-51998559D01*
X97016700Y-52053340D01*
X96455100Y-52053340D01*
X96179698Y-51998559D01*
X95904294Y-51943778D01*
X95385445Y-51728864D01*
X94994188Y-51467434D01*
X94918494Y-51416857D01*
X94521383Y-51019746D01*
X94428311Y-50880453D01*
X94209376Y-50552795D01*
X93994462Y-50033946D01*
X93909029Y-49604443D01*
X93884900Y-49483140D01*
X93884900Y-48921540D01*
X93965965Y-48514000D01*
X93994462Y-48370734D01*
X94209376Y-47851885D01*
X94521384Y-47384933D01*
X94918493Y-46987824D01*
X95385445Y-46675816D01*
X95904294Y-46460902D01*
X96179698Y-46406121D01*
X96455100Y-46351340D01*
X97016700Y-46351340D01*
X97567506Y-46460902D01*
X97567506Y-46460902D01*
G37*
G36*
X168156199Y-47963954D02*
G01*
X168168450Y-47964556D01*
X168186869Y-47964556D01*
X168209149Y-47966750D01*
X168293233Y-47983476D01*
X168314660Y-47989976D01*
X168393858Y-48022780D01*
X168399303Y-48025691D01*
X168399309Y-48025693D01*
X168408169Y-48030429D01*
X168408173Y-48030432D01*
X168413614Y-48033340D01*
X168484899Y-48080971D01*
X168502204Y-48095172D01*
X168562828Y-48155796D01*
X168577029Y-48173101D01*
X168624660Y-48244386D01*
X168627568Y-48249827D01*
X168627571Y-48249831D01*
X168632307Y-48258691D01*
X168632309Y-48258697D01*
X168635220Y-48264142D01*
X168668024Y-48343340D01*
X168674524Y-48364767D01*
X168691250Y-48448851D01*
X168693444Y-48471131D01*
X168693444Y-48489550D01*
X168694046Y-48501801D01*
X168695852Y-48520139D01*
X168695852Y-49057860D01*
X168694263Y-49073999D01*
X168689855Y-49088528D01*
X168684394Y-49101711D01*
X168679612Y-49125745D01*
X168679611Y-49150249D01*
X168684391Y-49174282D01*
X168693768Y-49196921D01*
X168695000Y-49198765D01*
X168695000Y-50430050D01*
X168688525Y-50442164D01*
X168681412Y-50465613D01*
X168679010Y-50489999D01*
X168681412Y-50514385D01*
X168688525Y-50537834D01*
X168690848Y-50542746D01*
X168694263Y-50554001D01*
X168695852Y-50570140D01*
X168695852Y-51107862D01*
X168694046Y-51126199D01*
X168693444Y-51138450D01*
X168693444Y-51156869D01*
X168691250Y-51179149D01*
X168674524Y-51263233D01*
X168668024Y-51284660D01*
X168635220Y-51363858D01*
X168632309Y-51369303D01*
X168632307Y-51369309D01*
X168627571Y-51378169D01*
X168627568Y-51378173D01*
X168624660Y-51383614D01*
X168577029Y-51454899D01*
X168562828Y-51472204D01*
X168502204Y-51532828D01*
X168484899Y-51547029D01*
X168413614Y-51594660D01*
X168408173Y-51597568D01*
X168408169Y-51597571D01*
X168399309Y-51602307D01*
X168399303Y-51602309D01*
X168393858Y-51605220D01*
X168314660Y-51638024D01*
X168293233Y-51644524D01*
X168209149Y-51661250D01*
X168186869Y-51663444D01*
X168168450Y-51663444D01*
X168156199Y-51664046D01*
X168137862Y-51665852D01*
X167650138Y-51665852D01*
X167631801Y-51664046D01*
X167619550Y-51663444D01*
X167601131Y-51663444D01*
X167578851Y-51661250D01*
X167494767Y-51644524D01*
X167473340Y-51638024D01*
X167394142Y-51605220D01*
X167388697Y-51602309D01*
X167388691Y-51602307D01*
X167379831Y-51597571D01*
X167379827Y-51597568D01*
X167374386Y-51594660D01*
X167303101Y-51547029D01*
X167285796Y-51532828D01*
X167225172Y-51472204D01*
X167210971Y-51454899D01*
X167163340Y-51383614D01*
X167160432Y-51378173D01*
X167160429Y-51378169D01*
X167155693Y-51369309D01*
X167155691Y-51369303D01*
X167152780Y-51363858D01*
X167119976Y-51284660D01*
X167113476Y-51263233D01*
X167096750Y-51179149D01*
X167094556Y-51156869D01*
X167094556Y-51138450D01*
X167093954Y-51126199D01*
X167092148Y-51107862D01*
X167092148Y-50570140D01*
X167093737Y-50554001D01*
X167098145Y-50539472D01*
X167103606Y-50526289D01*
X167108388Y-50502255D01*
X167108389Y-50477751D01*
X167103609Y-50453718D01*
X167094232Y-50431079D01*
X167093000Y-50429235D01*
X167093000Y-49197950D01*
X167099475Y-49185836D01*
X167106588Y-49162387D01*
X167108990Y-49138001D01*
X167106588Y-49113615D01*
X167099475Y-49090166D01*
X167097152Y-49085254D01*
X167093737Y-49073999D01*
X167092148Y-49057860D01*
X167092148Y-48520139D01*
X167093954Y-48501801D01*
X167094556Y-48489550D01*
X167094556Y-48471131D01*
X167096750Y-48448851D01*
X167113476Y-48364767D01*
X167119976Y-48343340D01*
X167152780Y-48264142D01*
X167155691Y-48258697D01*
X167155693Y-48258691D01*
X167160429Y-48249831D01*
X167160432Y-48249827D01*
X167163340Y-48244386D01*
X167210971Y-48173101D01*
X167225172Y-48155796D01*
X167285796Y-48095172D01*
X167303101Y-48080971D01*
X167374386Y-48033340D01*
X167379827Y-48030432D01*
X167379831Y-48030429D01*
X167388691Y-48025693D01*
X167388697Y-48025691D01*
X167394142Y-48022780D01*
X167473340Y-47989976D01*
X167494767Y-47983476D01*
X167578851Y-47966750D01*
X167601131Y-47964556D01*
X167619550Y-47964556D01*
X167631801Y-47963954D01*
X167650139Y-47962148D01*
X168137861Y-47962148D01*
X168156199Y-47963954D01*
X168156199Y-47963954D01*
G37*
G36*
X149462442Y-47873518D02*
G01*
X149528627Y-47880037D01*
X149698466Y-47931557D01*
X149854991Y-48015222D01*
X149890729Y-48044552D01*
X149992186Y-48127814D01*
X150075448Y-48229271D01*
X150104778Y-48265009D01*
X150104779Y-48265011D01*
X150149805Y-48349247D01*
X150188443Y-48421534D01*
X150239963Y-48591373D01*
X150257359Y-48768000D01*
X150239963Y-48944627D01*
X150188443Y-49114466D01*
X150188442Y-49114468D01*
X150156470Y-49174282D01*
X150104778Y-49270991D01*
X150075448Y-49306729D01*
X149992186Y-49408186D01*
X149900854Y-49483139D01*
X149854991Y-49520778D01*
X149698466Y-49604443D01*
X149528627Y-49655963D01*
X149462442Y-49662482D01*
X149396260Y-49669000D01*
X149307740Y-49669000D01*
X149241558Y-49662482D01*
X149175373Y-49655963D01*
X149005534Y-49604443D01*
X148849009Y-49520778D01*
X148803146Y-49483139D01*
X148711814Y-49408186D01*
X148628552Y-49306729D01*
X148599222Y-49270991D01*
X148547530Y-49174282D01*
X148515558Y-49114468D01*
X148515557Y-49114466D01*
X148464037Y-48944627D01*
X148446641Y-48768000D01*
X148464037Y-48591373D01*
X148515557Y-48421534D01*
X148554196Y-48349247D01*
X148599221Y-48265011D01*
X148599222Y-48265009D01*
X148628552Y-48229271D01*
X148711814Y-48127814D01*
X148813271Y-48044552D01*
X148849009Y-48015222D01*
X149005534Y-47931557D01*
X149175373Y-47880037D01*
X149241558Y-47873518D01*
X149307740Y-47867000D01*
X149396260Y-47867000D01*
X149462442Y-47873518D01*
X149462442Y-47873518D01*
G37*
G36*
X146922442Y-47873518D02*
G01*
X146988627Y-47880037D01*
X147158466Y-47931557D01*
X147314991Y-48015222D01*
X147350729Y-48044552D01*
X147452186Y-48127814D01*
X147535448Y-48229271D01*
X147564778Y-48265009D01*
X147564779Y-48265011D01*
X147609805Y-48349247D01*
X147648443Y-48421534D01*
X147699963Y-48591373D01*
X147717359Y-48768000D01*
X147699963Y-48944627D01*
X147648443Y-49114466D01*
X147648442Y-49114468D01*
X147616470Y-49174282D01*
X147564778Y-49270991D01*
X147535448Y-49306729D01*
X147452186Y-49408186D01*
X147360854Y-49483139D01*
X147314991Y-49520778D01*
X147158466Y-49604443D01*
X146988627Y-49655963D01*
X146922442Y-49662482D01*
X146856260Y-49669000D01*
X146767740Y-49669000D01*
X146701558Y-49662482D01*
X146635373Y-49655963D01*
X146465534Y-49604443D01*
X146309009Y-49520778D01*
X146263146Y-49483139D01*
X146171814Y-49408186D01*
X146088552Y-49306729D01*
X146059222Y-49270991D01*
X146007530Y-49174282D01*
X145975558Y-49114468D01*
X145975557Y-49114466D01*
X145924037Y-48944627D01*
X145906641Y-48768000D01*
X145924037Y-48591373D01*
X145975557Y-48421534D01*
X146014196Y-48349247D01*
X146059221Y-48265011D01*
X146059222Y-48265009D01*
X146088552Y-48229271D01*
X146171814Y-48127814D01*
X146273271Y-48044552D01*
X146309009Y-48015222D01*
X146465534Y-47931557D01*
X146635373Y-47880037D01*
X146701558Y-47873518D01*
X146767740Y-47867000D01*
X146856260Y-47867000D01*
X146922442Y-47873518D01*
X146922442Y-47873518D01*
G37*
G36*
X152002442Y-47873518D02*
G01*
X152068627Y-47880037D01*
X152238466Y-47931557D01*
X152394991Y-48015222D01*
X152430729Y-48044552D01*
X152532186Y-48127814D01*
X152615448Y-48229271D01*
X152644778Y-48265009D01*
X152644779Y-48265011D01*
X152689805Y-48349247D01*
X152728443Y-48421534D01*
X152779963Y-48591373D01*
X152797359Y-48768000D01*
X152779963Y-48944627D01*
X152728443Y-49114466D01*
X152728442Y-49114468D01*
X152696470Y-49174282D01*
X152644778Y-49270991D01*
X152615448Y-49306729D01*
X152532186Y-49408186D01*
X152440854Y-49483139D01*
X152394991Y-49520778D01*
X152238466Y-49604443D01*
X152068627Y-49655963D01*
X152002442Y-49662482D01*
X151936260Y-49669000D01*
X151847740Y-49669000D01*
X151781558Y-49662482D01*
X151715373Y-49655963D01*
X151545534Y-49604443D01*
X151389009Y-49520778D01*
X151343146Y-49483139D01*
X151251814Y-49408186D01*
X151168552Y-49306729D01*
X151139222Y-49270991D01*
X151087530Y-49174282D01*
X151055558Y-49114468D01*
X151055557Y-49114466D01*
X151004037Y-48944627D01*
X150986641Y-48768000D01*
X151004037Y-48591373D01*
X151055557Y-48421534D01*
X151094196Y-48349247D01*
X151139221Y-48265011D01*
X151139222Y-48265009D01*
X151168552Y-48229271D01*
X151251814Y-48127814D01*
X151353271Y-48044552D01*
X151389009Y-48015222D01*
X151545534Y-47931557D01*
X151715373Y-47880037D01*
X151781558Y-47873518D01*
X151847740Y-47867000D01*
X151936260Y-47867000D01*
X152002442Y-47873518D01*
X152002442Y-47873518D01*
G37*
G36*
X154542442Y-47873518D02*
G01*
X154608627Y-47880037D01*
X154778466Y-47931557D01*
X154934991Y-48015222D01*
X154970729Y-48044552D01*
X155072186Y-48127814D01*
X155155448Y-48229271D01*
X155184778Y-48265009D01*
X155184779Y-48265011D01*
X155229805Y-48349247D01*
X155268443Y-48421534D01*
X155319963Y-48591373D01*
X155337359Y-48768000D01*
X155319963Y-48944627D01*
X155268443Y-49114466D01*
X155268442Y-49114468D01*
X155236470Y-49174282D01*
X155184778Y-49270991D01*
X155155448Y-49306729D01*
X155072186Y-49408186D01*
X154980854Y-49483139D01*
X154934991Y-49520778D01*
X154778466Y-49604443D01*
X154608627Y-49655963D01*
X154542442Y-49662482D01*
X154476260Y-49669000D01*
X154387740Y-49669000D01*
X154321558Y-49662482D01*
X154255373Y-49655963D01*
X154085534Y-49604443D01*
X153929009Y-49520778D01*
X153883146Y-49483139D01*
X153791814Y-49408186D01*
X153708552Y-49306729D01*
X153679222Y-49270991D01*
X153627530Y-49174282D01*
X153595558Y-49114468D01*
X153595557Y-49114466D01*
X153544037Y-48944627D01*
X153526641Y-48768000D01*
X153544037Y-48591373D01*
X153595557Y-48421534D01*
X153634196Y-48349247D01*
X153679221Y-48265011D01*
X153679222Y-48265009D01*
X153708552Y-48229271D01*
X153791814Y-48127814D01*
X153893271Y-48044552D01*
X153929009Y-48015222D01*
X154085534Y-47931557D01*
X154255373Y-47880037D01*
X154321558Y-47873518D01*
X154387740Y-47867000D01*
X154476260Y-47867000D01*
X154542442Y-47873518D01*
X154542442Y-47873518D01*
G37*
G36*
X157082442Y-47873518D02*
G01*
X157148627Y-47880037D01*
X157318466Y-47931557D01*
X157474991Y-48015222D01*
X157510729Y-48044552D01*
X157612186Y-48127814D01*
X157695448Y-48229271D01*
X157724778Y-48265009D01*
X157724779Y-48265011D01*
X157769805Y-48349247D01*
X157808443Y-48421534D01*
X157859963Y-48591373D01*
X157877359Y-48768000D01*
X157859963Y-48944627D01*
X157808443Y-49114466D01*
X157808442Y-49114468D01*
X157776470Y-49174282D01*
X157724778Y-49270991D01*
X157695448Y-49306729D01*
X157612186Y-49408186D01*
X157520854Y-49483139D01*
X157474991Y-49520778D01*
X157318466Y-49604443D01*
X157148627Y-49655963D01*
X157082442Y-49662482D01*
X157016260Y-49669000D01*
X156927740Y-49669000D01*
X156861558Y-49662482D01*
X156795373Y-49655963D01*
X156625534Y-49604443D01*
X156469009Y-49520778D01*
X156423146Y-49483139D01*
X156331814Y-49408186D01*
X156248552Y-49306729D01*
X156219222Y-49270991D01*
X156167530Y-49174282D01*
X156135558Y-49114468D01*
X156135557Y-49114466D01*
X156084037Y-48944627D01*
X156066641Y-48768000D01*
X156084037Y-48591373D01*
X156135557Y-48421534D01*
X156174196Y-48349247D01*
X156219221Y-48265011D01*
X156219222Y-48265009D01*
X156248552Y-48229271D01*
X156331814Y-48127814D01*
X156433271Y-48044552D01*
X156469009Y-48015222D01*
X156625534Y-47931557D01*
X156795373Y-47880037D01*
X156861558Y-47873518D01*
X156927740Y-47867000D01*
X157016260Y-47867000D01*
X157082442Y-47873518D01*
X157082442Y-47873518D01*
G37*
G36*
X159622442Y-47873518D02*
G01*
X159688627Y-47880037D01*
X159858466Y-47931557D01*
X160014991Y-48015222D01*
X160050729Y-48044552D01*
X160152186Y-48127814D01*
X160235448Y-48229271D01*
X160264778Y-48265009D01*
X160264779Y-48265011D01*
X160309805Y-48349247D01*
X160348443Y-48421534D01*
X160399963Y-48591373D01*
X160417359Y-48768000D01*
X160399963Y-48944627D01*
X160348443Y-49114466D01*
X160348442Y-49114468D01*
X160316470Y-49174282D01*
X160264778Y-49270991D01*
X160235448Y-49306729D01*
X160152186Y-49408186D01*
X160060854Y-49483139D01*
X160014991Y-49520778D01*
X159858466Y-49604443D01*
X159688627Y-49655963D01*
X159622442Y-49662482D01*
X159556260Y-49669000D01*
X159467740Y-49669000D01*
X159401558Y-49662482D01*
X159335373Y-49655963D01*
X159165534Y-49604443D01*
X159009009Y-49520778D01*
X158963146Y-49483139D01*
X158871814Y-49408186D01*
X158788552Y-49306729D01*
X158759222Y-49270991D01*
X158707530Y-49174282D01*
X158675558Y-49114468D01*
X158675557Y-49114466D01*
X158624037Y-48944627D01*
X158606641Y-48768000D01*
X158624037Y-48591373D01*
X158675557Y-48421534D01*
X158714196Y-48349247D01*
X158759221Y-48265011D01*
X158759222Y-48265009D01*
X158788552Y-48229271D01*
X158871814Y-48127814D01*
X158973271Y-48044552D01*
X159009009Y-48015222D01*
X159165534Y-47931557D01*
X159335373Y-47880037D01*
X159401558Y-47873518D01*
X159467740Y-47867000D01*
X159556260Y-47867000D01*
X159622442Y-47873518D01*
X159622442Y-47873518D01*
G37*
G36*
X162162442Y-47873518D02*
G01*
X162228627Y-47880037D01*
X162398466Y-47931557D01*
X162554991Y-48015222D01*
X162590729Y-48044552D01*
X162692186Y-48127814D01*
X162775448Y-48229271D01*
X162804778Y-48265009D01*
X162804779Y-48265011D01*
X162849805Y-48349247D01*
X162888443Y-48421534D01*
X162939963Y-48591373D01*
X162957359Y-48768000D01*
X162939963Y-48944627D01*
X162888443Y-49114466D01*
X162888442Y-49114468D01*
X162856470Y-49174282D01*
X162804778Y-49270991D01*
X162775448Y-49306729D01*
X162692186Y-49408186D01*
X162600854Y-49483139D01*
X162554991Y-49520778D01*
X162398466Y-49604443D01*
X162228627Y-49655963D01*
X162162442Y-49662482D01*
X162096260Y-49669000D01*
X162007740Y-49669000D01*
X161941558Y-49662482D01*
X161875373Y-49655963D01*
X161705534Y-49604443D01*
X161549009Y-49520778D01*
X161503146Y-49483139D01*
X161411814Y-49408186D01*
X161328552Y-49306729D01*
X161299222Y-49270991D01*
X161247530Y-49174282D01*
X161215558Y-49114468D01*
X161215557Y-49114466D01*
X161164037Y-48944627D01*
X161146641Y-48768000D01*
X161164037Y-48591373D01*
X161215557Y-48421534D01*
X161254196Y-48349247D01*
X161299221Y-48265011D01*
X161299222Y-48265009D01*
X161328552Y-48229271D01*
X161411814Y-48127814D01*
X161513271Y-48044552D01*
X161549009Y-48015222D01*
X161705534Y-47931557D01*
X161875373Y-47880037D01*
X161941558Y-47873518D01*
X162007740Y-47867000D01*
X162096260Y-47867000D01*
X162162442Y-47873518D01*
X162162442Y-47873518D01*
G37*
G36*
X165493000Y-49669000D02*
G01*
X163691000Y-49669000D01*
X163691000Y-47867000D01*
X165493000Y-47867000D01*
X165493000Y-49669000D01*
X165493000Y-49669000D01*
G37*
M02*
