M48
; DRILL file {KiCad 5.1.4} date Mo 11 Nov 2019 15:35:13 CET
; FORMAT={-:-/ absolute / metric / decimal}
; #@! TF.CreationDate,2019-11-11T15:35:13+01:00
; #@! TF.GenerationSoftware,Kicad,Pcbnew,5.1.4
; #@! TF.FileFunction,Plated,1,2,PTH
FMAT,2
METRIC
T1C0.400
T2C0.762
T3C0.900
T4C1.000
T5C1.200
T6C3.200
%
G90
G05
T1
X100.99Y-119.609
X108.255Y-121.387
X109.017Y-120.612
X109.299Y-73.942
X110.472Y-106.52
X111.582Y-119.748
X136.144Y-73.914
X136.779Y-117.729
X136.779Y-118.872
X136.906Y-106.934
X143.789Y-116.459
X146.38Y-116.586
X147.32Y-62.484
X147.32Y-65.278
X148.92Y-116.611
X149.86Y-55.372
X151.638Y-116.586
X154.178Y-116.586
X154.94Y-51.816
X156.845Y-116.586
X159.512Y-116.586
X159.634Y-67.442
X159.639Y-64.135
X162.306Y-73.66
X162.56Y-107.188
X163.322Y-118.364
X164.846Y-118.364
X167.132Y-118.11
X168.41Y-118.102
X188.722Y-73.914
X189.128Y-106.604
T2
X147.153Y-87.135
X150.297Y-111.583
X158.957Y-111.583
X163.893Y-99.693
X165.598Y-87.987
X93.812Y-52.845
X96.957Y-77.293
X105.617Y-77.293
X110.553Y-65.403
X112.258Y-53.697
X120.482Y-52.845
X123.627Y-77.293
X132.287Y-77.293
X137.224Y-65.403
X138.928Y-53.697
X173.822Y-87.135
X176.968Y-111.583
X185.627Y-111.583
X190.564Y-99.693
X192.268Y-87.987
X173.822Y-52.845
X176.968Y-77.293
X185.627Y-77.293
X190.564Y-65.403
X192.268Y-53.697
X147.153Y-52.845
X150.297Y-77.293
X158.957Y-77.293
X163.893Y-65.403
X165.598Y-53.697
X93.812Y-87.135
X96.957Y-111.583
X105.617Y-111.583
X110.553Y-99.693
X112.258Y-87.987
X120.482Y-87.135
X123.627Y-111.583
X132.287Y-111.583
X137.224Y-99.693
X138.928Y-87.987
T3
X179.978Y-125.255
X182.518Y-125.255
X164.978Y-125.255
X167.518Y-125.255
X174.978Y-125.255
X177.518Y-125.255
X184.978Y-125.255
X187.518Y-125.255
X154.978Y-125.255
X157.518Y-125.255
X149.978Y-125.255
X152.518Y-125.255
X169.978Y-125.255
X172.518Y-125.255
X159.978Y-125.255
X162.518Y-125.255
T4
X146.812Y-48.768
X149.352Y-48.768
X151.892Y-48.768
X154.432Y-48.768
X156.972Y-48.768
X159.512Y-48.768
X162.052Y-48.768
X164.592Y-48.768
X118.237Y-121.209
X120.777Y-121.209
X123.317Y-121.209
X125.857Y-121.209
X128.397Y-121.209
X130.937Y-121.209
X133.477Y-121.209
X136.017Y-121.209
X138.557Y-121.209
X141.097Y-121.209
X143.637Y-121.209
X146.177Y-121.209
X148.717Y-121.209
X151.257Y-121.209
X153.797Y-121.209
X156.337Y-121.209
X158.877Y-121.209
T5
X99.568Y-57.404
T6
X96.736Y-49.202
X189.992Y-121.666
X188.468Y-49.53
X97.282Y-122.174
T0
M30
