%TF.GenerationSoftware,KiCad,Pcbnew,5.1.4*%
%TF.CreationDate,2019-11-11T15:35:15+01:00*%
%TF.ProjectId,balancer,62616c61-6e63-4657-922e-6b696361645f,rev?*%
%TF.SameCoordinates,Original*%
%TF.FileFunction,Copper,L2,Bot*%
%TF.FilePolarity,Positive*%
%FSLAX46Y46*%
G04 Gerber Fmt 4.6, Leading zero omitted, Abs format (unit mm)*
G04 Created by KiCad (PCBNEW 5.1.4) date 2019-11-11 15:35:15*
%MOMM*%
%LPD*%
G04 APERTURE LIST*
%ADD10C,1.524000*%
%ADD11C,1.800000*%
%ADD12R,1.800000X1.800000*%
%ADD13C,5.600000*%
%ADD14R,2.500000X2.500000*%
%ADD15R,1.500000X1.000000*%
%ADD16C,0.500000*%
%ADD17C,0.100000*%
%ADD18O,1.700000X1.700000*%
%ADD19R,1.700000X1.700000*%
%ADD20C,0.800000*%
%ADD21C,0.250000*%
%ADD22C,1.000000*%
%ADD23C,0.500000*%
G04 APERTURE END LIST*
D10*
X163893500Y-65403200D03*
X158957500Y-77293200D03*
X150297500Y-77293200D03*
X165597700Y-53697200D03*
X147152500Y-52844800D03*
D11*
X149978400Y-125254700D03*
D12*
X152518400Y-125254700D03*
D11*
X154978400Y-125254700D03*
D12*
X157518400Y-125254700D03*
D11*
X159978400Y-125254700D03*
D12*
X162518400Y-125254700D03*
D11*
X164978400Y-125254700D03*
D12*
X167518400Y-125254700D03*
D11*
X169978400Y-125254700D03*
D12*
X172518400Y-125254700D03*
D11*
X174978400Y-125254700D03*
D12*
X177518400Y-125254700D03*
D11*
X179978400Y-125254700D03*
D12*
X182518400Y-125254700D03*
D11*
X184978400Y-125254700D03*
D12*
X187518400Y-125254700D03*
D13*
X189992000Y-121666000D03*
X97282000Y-122174000D03*
X96735900Y-49202340D03*
X188468000Y-49530000D03*
D10*
X190563500Y-65403200D03*
X185627500Y-77293200D03*
X176967500Y-77293200D03*
X192267700Y-53697200D03*
X173822500Y-52844800D03*
X110553500Y-65403200D03*
X105617500Y-77293200D03*
X96957500Y-77293200D03*
X112257700Y-53697200D03*
X93812500Y-52844800D03*
D14*
X99568000Y-57404000D03*
D15*
X167894000Y-49814000D03*
D16*
X167894000Y-48514000D03*
D17*
G36*
X167144602Y-48514000D02*
G01*
X167144602Y-48489466D01*
X167149412Y-48440635D01*
X167158984Y-48392510D01*
X167173228Y-48345555D01*
X167192005Y-48300222D01*
X167215136Y-48256949D01*
X167242396Y-48216150D01*
X167273524Y-48178221D01*
X167308221Y-48143524D01*
X167346150Y-48112396D01*
X167386949Y-48085136D01*
X167430222Y-48062005D01*
X167475555Y-48043228D01*
X167522510Y-48028984D01*
X167570635Y-48019412D01*
X167619466Y-48014602D01*
X167644000Y-48014602D01*
X167644000Y-48014000D01*
X168144000Y-48014000D01*
X168144000Y-48014602D01*
X168168534Y-48014602D01*
X168217365Y-48019412D01*
X168265490Y-48028984D01*
X168312445Y-48043228D01*
X168357778Y-48062005D01*
X168401051Y-48085136D01*
X168441850Y-48112396D01*
X168479779Y-48143524D01*
X168514476Y-48178221D01*
X168545604Y-48216150D01*
X168572864Y-48256949D01*
X168595995Y-48300222D01*
X168614772Y-48345555D01*
X168629016Y-48392510D01*
X168638588Y-48440635D01*
X168643398Y-48489466D01*
X168643398Y-48514000D01*
X168644000Y-48514000D01*
X168644000Y-49064000D01*
X167144000Y-49064000D01*
X167144000Y-48514000D01*
X167144602Y-48514000D01*
X167144602Y-48514000D01*
G37*
D16*
X167894000Y-51114000D03*
D17*
G36*
X168644000Y-50564000D02*
G01*
X168644000Y-51114000D01*
X168643398Y-51114000D01*
X168643398Y-51138534D01*
X168638588Y-51187365D01*
X168629016Y-51235490D01*
X168614772Y-51282445D01*
X168595995Y-51327778D01*
X168572864Y-51371051D01*
X168545604Y-51411850D01*
X168514476Y-51449779D01*
X168479779Y-51484476D01*
X168441850Y-51515604D01*
X168401051Y-51542864D01*
X168357778Y-51565995D01*
X168312445Y-51584772D01*
X168265490Y-51599016D01*
X168217365Y-51608588D01*
X168168534Y-51613398D01*
X168144000Y-51613398D01*
X168144000Y-51614000D01*
X167644000Y-51614000D01*
X167644000Y-51613398D01*
X167619466Y-51613398D01*
X167570635Y-51608588D01*
X167522510Y-51599016D01*
X167475555Y-51584772D01*
X167430222Y-51565995D01*
X167386949Y-51542864D01*
X167346150Y-51515604D01*
X167308221Y-51484476D01*
X167273524Y-51449779D01*
X167242396Y-51411850D01*
X167215136Y-51371051D01*
X167192005Y-51327778D01*
X167173228Y-51282445D01*
X167158984Y-51235490D01*
X167149412Y-51187365D01*
X167144602Y-51138534D01*
X167144602Y-51114000D01*
X167144000Y-51114000D01*
X167144000Y-50564000D01*
X168644000Y-50564000D01*
X168644000Y-50564000D01*
G37*
D10*
X137223500Y-65403200D03*
X132287500Y-77293200D03*
X123627500Y-77293200D03*
X138927700Y-53697200D03*
X120482500Y-52844800D03*
X190563500Y-99693200D03*
X185627500Y-111583200D03*
X176967500Y-111583200D03*
X192267700Y-87987200D03*
X173822500Y-87134800D03*
X110553500Y-99693200D03*
X105617500Y-111583200D03*
X96957500Y-111583200D03*
X112257700Y-87987200D03*
X93812500Y-87134800D03*
X137223500Y-99693200D03*
X132287500Y-111583200D03*
X123627500Y-111583200D03*
X138927700Y-87987200D03*
X120482500Y-87134800D03*
X163893500Y-99693200D03*
X158957500Y-111583200D03*
X150297500Y-111583200D03*
X165597700Y-87987200D03*
X147152500Y-87134800D03*
D15*
X146380200Y-117749800D03*
X146380200Y-119049800D03*
X117881400Y-124764800D03*
X117881400Y-123464800D03*
X128574800Y-124794800D03*
X128574800Y-123494800D03*
X151561800Y-117749800D03*
X151561800Y-119049800D03*
X141198600Y-117764800D03*
X141198600Y-119064800D03*
X125882400Y-124764800D03*
X125882400Y-123464800D03*
X133934200Y-124779800D03*
X133934200Y-123479800D03*
X156819600Y-117739400D03*
X156819600Y-119039400D03*
X138582400Y-117775200D03*
X138582400Y-119075200D03*
X120523000Y-124764800D03*
X120523000Y-123464800D03*
D18*
X158877000Y-121208800D03*
X156337000Y-121208800D03*
X153797000Y-121208800D03*
X151257000Y-121208800D03*
X148717000Y-121208800D03*
X146177000Y-121208800D03*
X143637000Y-121208800D03*
X141097000Y-121208800D03*
X138557000Y-121208800D03*
X136017000Y-121208800D03*
X133477000Y-121208800D03*
X130937000Y-121208800D03*
X128397000Y-121208800D03*
X125857000Y-121208800D03*
X123317000Y-121208800D03*
X120777000Y-121208800D03*
D19*
X118237000Y-121208800D03*
D15*
X154178000Y-117749800D03*
X154178000Y-119049800D03*
X123215400Y-124764800D03*
X123215400Y-123464800D03*
X143789400Y-117749800D03*
X143789400Y-119049800D03*
X136626600Y-124779800D03*
X136626600Y-123479800D03*
X131267200Y-124790200D03*
X131267200Y-123490200D03*
X159486600Y-117724400D03*
X159486600Y-119024400D03*
X139293600Y-124764800D03*
X139293600Y-123464800D03*
X148971000Y-117739400D03*
X148971000Y-119039400D03*
D18*
X146812000Y-48768000D03*
X149352000Y-48768000D03*
X151892000Y-48768000D03*
X154432000Y-48768000D03*
X156972000Y-48768000D03*
X159512000Y-48768000D03*
X162052000Y-48768000D03*
D19*
X164592000Y-48768000D03*
D20*
X189128400Y-106603800D03*
X188722000Y-73914000D03*
X167132000Y-118110000D03*
X162560000Y-107188000D03*
X168409635Y-118102365D03*
X162306000Y-73660000D03*
X163322000Y-118364000D03*
X136906000Y-106934000D03*
X164846000Y-118364000D03*
X136144000Y-73914000D03*
X100990400Y-119608600D03*
X110472220Y-106519980D03*
X111582200Y-119748300D03*
X108254800Y-121386600D03*
X109298740Y-73941940D03*
X109016800Y-120611900D03*
X149860000Y-55372000D03*
X147320000Y-62484000D03*
X147320000Y-65278000D03*
X154940000Y-51816000D03*
X159512000Y-116586000D03*
X156845000Y-116586000D03*
X154178000Y-116586000D03*
X151638000Y-116586000D03*
X148920200Y-116611400D03*
X146380200Y-116586000D03*
X143789400Y-116459000D03*
X136779000Y-117729000D03*
X136779000Y-118872000D03*
X159634347Y-67441653D03*
X159639000Y-64135000D03*
D21*
X184978400Y-119594100D02*
X176967500Y-111583200D01*
X184978400Y-125254700D02*
X184978400Y-119594100D01*
X186866999Y-123453299D02*
X186866999Y-116802701D01*
X187518400Y-125254700D02*
X187518400Y-124104700D01*
X187518400Y-124104700D02*
X186866999Y-123453299D01*
X186866999Y-116802701D02*
X189128400Y-114541300D01*
X189128400Y-114541300D02*
X189128400Y-106603800D01*
X176967500Y-88029400D02*
X176967500Y-77293200D01*
X179978400Y-122201110D02*
X174371890Y-116594600D01*
X174371891Y-92491799D02*
X176967500Y-89896190D01*
X179978400Y-125254700D02*
X179978400Y-122201110D01*
X174371890Y-116594600D02*
X174371891Y-92491799D01*
X176967500Y-89896190D02*
X176967500Y-88029400D01*
X182518400Y-124104700D02*
X174821900Y-116408200D01*
X182518400Y-125254700D02*
X182518400Y-124104700D01*
X174821900Y-116408200D02*
X174821900Y-92678200D01*
X188722000Y-78778100D02*
X188722000Y-73914000D01*
X174821900Y-92678200D02*
X188722000Y-78778100D01*
X151059499Y-112345199D02*
X150297500Y-111583200D01*
X162330933Y-112978733D02*
X151693033Y-112978733D01*
X151693033Y-112978733D02*
X151059499Y-112345199D01*
X167132000Y-118110000D02*
X162330933Y-112978733D01*
X168409635Y-118102365D02*
X162560000Y-112041281D01*
X162560000Y-112041281D02*
X162560000Y-107188000D01*
X150297500Y-78370830D02*
X150297500Y-77293200D01*
X150297500Y-89567510D02*
X150297500Y-78370830D01*
X170878399Y-110148409D02*
X150297500Y-89567510D01*
X170878399Y-124354701D02*
X170878399Y-110148409D01*
X169978400Y-125254700D02*
X170878399Y-124354701D01*
X162306000Y-79070200D02*
X162306000Y-73660000D01*
X158724600Y-82651600D02*
X162306000Y-79070200D01*
X172518400Y-125254700D02*
X172518400Y-124104700D01*
X172518400Y-124104700D02*
X171328409Y-122914709D01*
X158724600Y-97358200D02*
X158724600Y-82651600D01*
X171328409Y-122914709D02*
X171328409Y-109962009D01*
X171328409Y-109962009D02*
X158724600Y-97358200D01*
X163322000Y-116910725D02*
X163322000Y-118364000D01*
X160290028Y-113878753D02*
X163322000Y-116910725D01*
X147914753Y-113878753D02*
X160290028Y-113878753D01*
X125214000Y-113169700D02*
X147205700Y-113169700D01*
X147205700Y-113169700D02*
X147914753Y-113878753D01*
X123627500Y-111583200D02*
X125214000Y-113169700D01*
X164846000Y-118364000D02*
X164846000Y-117798315D01*
X147392100Y-112719690D02*
X142691690Y-112719690D01*
X164846000Y-117798315D02*
X160476428Y-113428743D01*
X142691690Y-112719690D02*
X136906000Y-106934000D01*
X160476428Y-113428743D02*
X148101153Y-113428743D01*
X148101153Y-113428743D02*
X147392100Y-112719690D01*
X161203401Y-124029699D02*
X161542501Y-124029699D01*
X159978400Y-125254700D02*
X161203401Y-124029699D01*
X161542501Y-124029699D02*
X161910801Y-124029699D01*
X139640599Y-94950709D02*
X123627500Y-78937610D01*
X151395712Y-94950710D02*
X139640599Y-94950709D01*
X123627500Y-78370830D02*
X123627500Y-77293200D01*
X169335323Y-118439604D02*
X169335323Y-112890321D01*
X123627500Y-78937610D02*
X123627500Y-78370830D01*
X169335323Y-112890321D02*
X151395712Y-94950710D01*
X163745228Y-124029699D02*
X169335323Y-118439604D01*
X161203401Y-124029699D02*
X163745228Y-124029699D01*
X169785332Y-112703920D02*
X151582112Y-94500700D01*
X169785333Y-118634765D02*
X169785332Y-112703920D01*
X162518400Y-125254700D02*
X163165398Y-125254700D01*
X163165398Y-125254700D02*
X169785333Y-118634765D01*
X151582112Y-94500700D02*
X139827000Y-94500700D01*
X136144000Y-90817700D02*
X136144000Y-73914000D01*
X139827000Y-94500700D02*
X136144000Y-90817700D01*
X96957500Y-111583200D02*
X96957500Y-115575700D01*
X96957500Y-115575700D02*
X100990400Y-119608600D01*
X110472220Y-118638320D02*
X110472220Y-106519980D01*
X111582200Y-119748300D02*
X110472220Y-118638320D01*
X108254800Y-121386600D02*
X108254800Y-84861400D01*
X108254800Y-84861400D02*
X102781100Y-79387700D01*
X99052000Y-79387700D02*
X96957500Y-77293200D01*
X102781100Y-79387700D02*
X99052000Y-79387700D01*
X109016800Y-74223880D02*
X109298740Y-73941940D01*
X109016800Y-120611900D02*
X109016800Y-74223880D01*
D22*
X170180000Y-53594000D02*
X164973000Y-53594000D01*
X172974000Y-56388000D02*
X170180000Y-53594000D01*
X164973000Y-53594000D02*
X151638000Y-53594000D01*
X149352000Y-55880000D02*
X147320000Y-55880000D01*
X147320000Y-55880000D02*
X145034000Y-53594000D01*
X145034000Y-53594000D02*
X138303000Y-53594000D01*
X138303000Y-53594000D02*
X124714000Y-53594000D01*
X124714000Y-53594000D02*
X124714000Y-53975000D01*
X124714000Y-53975000D02*
X122809000Y-55880000D01*
X122809000Y-55880000D02*
X120015000Y-55880000D01*
X118618000Y-57277000D02*
X120015000Y-55880000D01*
X118618000Y-61595000D02*
X118618000Y-57277000D01*
X118618000Y-61595000D02*
X118618000Y-80899000D01*
X143637000Y-58928000D02*
X138303000Y-53594000D01*
X169418000Y-58039000D02*
X164973000Y-53594000D01*
X187833000Y-67818000D02*
X187833000Y-56388000D01*
X187833000Y-56388000D02*
X172974000Y-56388000D01*
X143637000Y-82550000D02*
X143637000Y-62611000D01*
X143637000Y-62611000D02*
X143637000Y-58928000D01*
X151638000Y-53594000D02*
X151892000Y-53340000D01*
X151892000Y-51308000D02*
X149352000Y-48768000D01*
X151892000Y-52578000D02*
X151892000Y-48768000D01*
X151892000Y-52578000D02*
X151892000Y-51308000D01*
X151892000Y-53340000D02*
X151892000Y-52578000D01*
X149352000Y-48768000D02*
X151892000Y-48768000D01*
X117729000Y-53594000D02*
X111633000Y-53594000D01*
X120015000Y-55880000D02*
X117729000Y-53594000D01*
X189433200Y-56388000D02*
X191973200Y-53848000D01*
X187833000Y-56388000D02*
X189433200Y-56388000D01*
X191973200Y-88138000D02*
X191973200Y-71958200D01*
X191973200Y-71958200D02*
X190522860Y-70507860D01*
X190522860Y-70507860D02*
X187833000Y-67818000D01*
X169418000Y-84023200D02*
X165303200Y-88138000D01*
X169418000Y-82773520D02*
X169418000Y-84023200D01*
X169418000Y-82773520D02*
X169418000Y-58039000D01*
X143637000Y-83134200D02*
X143637000Y-82550000D01*
X138633200Y-88138000D02*
X143637000Y-83134200D01*
X118618000Y-81483200D02*
X118618000Y-80899000D01*
X111963200Y-88138000D02*
X118618000Y-81483200D01*
X151638000Y-53594000D02*
X149860000Y-55372000D01*
X149860000Y-55372000D02*
X149352000Y-55880000D01*
D23*
X154432000Y-48768000D02*
X154432000Y-47565919D01*
X154432000Y-47565919D02*
X153348081Y-46482000D01*
X153348081Y-46482000D02*
X119634000Y-46482000D01*
X116078000Y-50038000D02*
X109982000Y-50038000D01*
X119634000Y-46482000D02*
X116078000Y-50038000D01*
D21*
X147320000Y-62484000D02*
X147320000Y-65278000D01*
X105029000Y-54991000D02*
X102616000Y-57404000D01*
D23*
X109982000Y-50038000D02*
X105029000Y-54991000D01*
X102616000Y-57404000D02*
X109982000Y-50038000D01*
X99568000Y-57404000D02*
X102616000Y-57404000D01*
D21*
X164398000Y-51114000D02*
X164338000Y-51054000D01*
X167894000Y-51114000D02*
X164398000Y-51114000D01*
X164338000Y-51054000D02*
X162052000Y-48768000D01*
X164592000Y-48768000D02*
X166116000Y-48768000D01*
X166370000Y-48514000D02*
X167894000Y-48514000D01*
X166116000Y-48768000D02*
X166370000Y-48514000D01*
D22*
X158877000Y-120700800D02*
X159310200Y-120700800D01*
X158877000Y-121208800D02*
X158877000Y-120700800D01*
X159310200Y-120700800D02*
X159486600Y-120524400D01*
X159486600Y-120524400D02*
X159486600Y-119024400D01*
X156819600Y-119039400D02*
X156819600Y-120726200D01*
X156819600Y-120726200D02*
X156337000Y-121208800D01*
X154178000Y-120827800D02*
X153797000Y-121208800D01*
X154178000Y-119049800D02*
X154178000Y-120827800D01*
X151561800Y-120904000D02*
X151257000Y-121208800D01*
X151561800Y-119049800D02*
X151561800Y-120904000D01*
X148971000Y-119039400D02*
X148971000Y-120954800D01*
X148971000Y-120954800D02*
X148717000Y-121208800D01*
X146380200Y-121005600D02*
X146177000Y-121208800D01*
X146380200Y-119049800D02*
X146380200Y-121005600D01*
X143789400Y-121056400D02*
X143637000Y-121208800D01*
X143789400Y-119049800D02*
X143789400Y-121056400D01*
X141198600Y-121107200D02*
X141097000Y-121208800D01*
X141198600Y-119064800D02*
X141198600Y-121107200D01*
X138557000Y-121208800D02*
X138557000Y-121640600D01*
X138582400Y-121183400D02*
X138557000Y-121208800D01*
X138557000Y-121640600D02*
X138811000Y-121894600D01*
X138582400Y-119075200D02*
X138582400Y-121183400D01*
X138811000Y-121894600D02*
X138811000Y-122402600D01*
X138811000Y-122402600D02*
X139293600Y-122885200D01*
X139293600Y-122885200D02*
X139293600Y-123464800D01*
X136017000Y-121691400D02*
X136338200Y-121691400D01*
X136626600Y-121979800D02*
X136626600Y-123479800D01*
X136017000Y-121208800D02*
X136017000Y-121691400D01*
X136338200Y-121691400D02*
X136626600Y-121979800D01*
X133477000Y-121640600D02*
X133595000Y-121640600D01*
X133477000Y-121208800D02*
X133477000Y-121640600D01*
X133595000Y-121640600D02*
X133934200Y-121979800D01*
X133934200Y-121979800D02*
X133934200Y-123479800D01*
X131267200Y-121990200D02*
X131267200Y-123490200D01*
X131120800Y-121843800D02*
X131267200Y-121990200D01*
X130937000Y-121843800D02*
X131120800Y-121843800D01*
X130937000Y-121208800D02*
X130937000Y-121843800D01*
X128397000Y-121208800D02*
X128397000Y-121970800D01*
X128550800Y-121970800D02*
X128574800Y-121994800D01*
X128397000Y-121970800D02*
X128550800Y-121970800D01*
X128574800Y-121994800D02*
X128574800Y-123494800D01*
X125857000Y-123439400D02*
X125882400Y-123464800D01*
X125857000Y-121208800D02*
X125857000Y-123439400D01*
X123317000Y-123363200D02*
X123215400Y-123464800D01*
X123317000Y-121208800D02*
X123317000Y-123363200D01*
X120777000Y-123210800D02*
X120523000Y-123464800D01*
X120777000Y-121208800D02*
X120777000Y-123210800D01*
X117881400Y-122402600D02*
X117881400Y-123464800D01*
X118237000Y-121208800D02*
X118237000Y-122047000D01*
X118237000Y-122047000D02*
X117881400Y-122402600D01*
D21*
X155339999Y-52215999D02*
X169272001Y-52215999D01*
X154940000Y-51816000D02*
X155339999Y-52215999D01*
X169272001Y-52215999D02*
X169672000Y-51816000D01*
X168894000Y-49814000D02*
X167894000Y-49814000D01*
X169672000Y-50592000D02*
X168894000Y-49814000D01*
X169672000Y-51816000D02*
X169672000Y-50592000D01*
X159486600Y-117724400D02*
X160650400Y-117724400D01*
X160650400Y-117724400D02*
X160909000Y-117983000D01*
X160909000Y-117983000D02*
X160909000Y-122478800D01*
X160909000Y-122478800D02*
X160858200Y-122478800D01*
X160858200Y-122478800D02*
X160451800Y-122885200D01*
X160451800Y-122885200D02*
X142367000Y-122885200D01*
X140487400Y-124764800D02*
X139293600Y-124764800D01*
X142367000Y-122885200D02*
X140487400Y-124764800D01*
X159486600Y-116611400D02*
X159512000Y-116586000D01*
X159486600Y-117724400D02*
X159486600Y-116611400D01*
X156819600Y-116611400D02*
X156845000Y-116586000D01*
X156819600Y-117739400D02*
X156819600Y-116611400D01*
X161359010Y-122665200D02*
X160689000Y-123335210D01*
X138017300Y-125920500D02*
X136876600Y-124779800D01*
X140375640Y-125920500D02*
X138017300Y-125920500D01*
X160689000Y-123335210D02*
X145245788Y-123335210D01*
X145245788Y-123335210D02*
X145220818Y-123360180D01*
X142528430Y-123360180D02*
X140673800Y-125214810D01*
X159637582Y-115638580D02*
X161359010Y-117360008D01*
X136876600Y-124779800D02*
X136626600Y-124779800D01*
X140673800Y-125622340D02*
X140375640Y-125920500D01*
X161359010Y-117360008D02*
X161359010Y-122665200D01*
X156845000Y-116586000D02*
X157792420Y-115638580D01*
X145220818Y-123360180D02*
X142528430Y-123360180D01*
X157792420Y-115638580D02*
X159637582Y-115638580D01*
X140673800Y-125214810D02*
X140673800Y-125622340D01*
X154178000Y-117749800D02*
X154178000Y-116586000D01*
X153028390Y-115436390D02*
X153778001Y-116186001D01*
X147475800Y-114960980D02*
X147951210Y-115436390D01*
X153778001Y-116186001D02*
X154178000Y-116586000D01*
X145442389Y-114960979D02*
X147475800Y-114960980D01*
X136560596Y-114328762D02*
X144810173Y-114328763D01*
X116535402Y-116806942D02*
X134082416Y-116806942D01*
X114106345Y-119235999D02*
X116535402Y-116806942D01*
X131979190Y-126484810D02*
X129193000Y-126484810D01*
X134082416Y-116806942D02*
X136560596Y-114328762D01*
X133684200Y-124779800D02*
X131979190Y-126484810D01*
X122428402Y-127359428D02*
X121655382Y-128132446D01*
X147951210Y-115436390D02*
X153028390Y-115436390D01*
X121655382Y-128132446D02*
X116231997Y-128132446D01*
X129193000Y-126484810D02*
X128692190Y-126985620D01*
X144810173Y-114328763D02*
X145442389Y-114960979D01*
X133934200Y-124779800D02*
X133684200Y-124779800D01*
X128692190Y-126985620D02*
X125320810Y-126985620D01*
X124947002Y-127359428D02*
X122428402Y-127359428D01*
X116231997Y-128132446D02*
X114106344Y-126006789D01*
X125320810Y-126985620D02*
X124947002Y-127359428D01*
X114106344Y-126006789D02*
X114106345Y-119235999D01*
X131017200Y-124790200D02*
X131267200Y-124790200D01*
X129772600Y-126034800D02*
X131017200Y-124790200D01*
X121468983Y-127682437D02*
X122242002Y-126909418D01*
X114556354Y-119422400D02*
X114556353Y-125820390D01*
X122242002Y-126909418D02*
X124760602Y-126909418D01*
X128505790Y-126535610D02*
X129006600Y-126034800D01*
X114556353Y-125820390D02*
X116418398Y-127682438D01*
X116418398Y-127682438D02*
X121468983Y-127682437D01*
X124760602Y-126909418D02*
X125134410Y-126535610D01*
X129006600Y-126034800D02*
X129772600Y-126034800D01*
X125134410Y-126535610D02*
X128505790Y-126535610D01*
X149268201Y-115886399D02*
X147764809Y-115886399D01*
X151638000Y-116586000D02*
X149967802Y-116586000D01*
X149967802Y-116586000D02*
X149268201Y-115886399D01*
X147764809Y-115886399D02*
X147289399Y-115410989D01*
X145087211Y-115410989D02*
X144454994Y-114778772D01*
X144623772Y-114778772D02*
X136746996Y-114778772D01*
X145255989Y-115410989D02*
X144623772Y-114778772D01*
X145255989Y-115410989D02*
X145087211Y-115410989D01*
X147289399Y-115410989D02*
X145255989Y-115410989D01*
X116721802Y-117256952D02*
X114556354Y-119422400D01*
X134268816Y-117256952D02*
X116721802Y-117256952D01*
X136746996Y-114778772D02*
X134268816Y-117256952D01*
X151561800Y-116662200D02*
X151638000Y-116586000D01*
X151561800Y-117749800D02*
X151561800Y-116662200D01*
X128574800Y-125544800D02*
X128574800Y-124794800D01*
X126309400Y-126060200D02*
X128059400Y-126060200D01*
X124948010Y-126085600D02*
X126284000Y-126085600D01*
X128059400Y-126060200D02*
X128574800Y-125544800D01*
X122055600Y-126459410D02*
X124574201Y-126459409D01*
X116604797Y-127232429D02*
X121282582Y-127232428D01*
X126284000Y-126085600D02*
X126309400Y-126060200D01*
X115006363Y-119608799D02*
X115006362Y-125633990D01*
X124574201Y-126459409D02*
X124948010Y-126085600D01*
X121282582Y-127232428D02*
X122055600Y-126459410D01*
X115006362Y-125633990D02*
X116604797Y-127232429D01*
X148971000Y-116662200D02*
X148920200Y-116611400D01*
X148971000Y-117739400D02*
X148971000Y-116662200D01*
X140374780Y-115228780D02*
X144268593Y-115228781D01*
X144900811Y-115860999D02*
X147102999Y-115860999D01*
X144268593Y-115228781D02*
X144900811Y-115860999D01*
X147853400Y-116611400D02*
X148920200Y-116611400D01*
X147102999Y-115860999D02*
X147853400Y-116611400D01*
X140295220Y-115228780D02*
X136933397Y-115228781D01*
X116908200Y-117706962D02*
X115006363Y-119608799D01*
X134455216Y-117706962D02*
X116908200Y-117706962D01*
X136933397Y-115228781D02*
X134455216Y-117706962D01*
X116791197Y-126782419D02*
X121096181Y-126782419D01*
X115456371Y-125447590D02*
X116791197Y-126782419D01*
X115456372Y-119795198D02*
X115456371Y-125447590D01*
X125632400Y-124764800D02*
X125882400Y-124764800D01*
X124387800Y-126009400D02*
X125632400Y-124764800D01*
X121869200Y-126009400D02*
X124387800Y-126009400D01*
X121096181Y-126782419D02*
X121869200Y-126009400D01*
X117094598Y-118156972D02*
X115456372Y-119795198D01*
X134641616Y-118156972D02*
X117094598Y-118156972D01*
X137119798Y-115678790D02*
X134641616Y-118156972D01*
X146380200Y-117749800D02*
X146380200Y-116586000D01*
X144989402Y-116586000D02*
X145814515Y-116586000D01*
X142856790Y-115678790D02*
X144082192Y-115678790D01*
X145814515Y-116586000D02*
X146380200Y-116586000D01*
X144082192Y-115678790D02*
X144989402Y-116586000D01*
X142856790Y-115678790D02*
X137119798Y-115678790D01*
X115906381Y-119981597D02*
X115906380Y-125261190D01*
X115906380Y-125261190D02*
X116977597Y-126332409D01*
X116977597Y-126332409D02*
X120790393Y-126332409D01*
X137306198Y-116128800D02*
X134828018Y-118606980D01*
X143789400Y-116128800D02*
X137306198Y-116128800D01*
X117280997Y-118606981D02*
X115906381Y-119981597D01*
X134828018Y-118606980D02*
X117280997Y-118606981D01*
X143789400Y-117749800D02*
X143789400Y-116459000D01*
X122210459Y-125519741D02*
X122965400Y-124764800D01*
X122965400Y-124764800D02*
X123215400Y-124764800D01*
X121603061Y-125519741D02*
X122210459Y-125519741D01*
X120790393Y-126332409D02*
X121603061Y-125519741D01*
X117163998Y-125882400D02*
X119155400Y-125882400D01*
X116356389Y-125074791D02*
X117163998Y-125882400D01*
X119155400Y-125882400D02*
X120273000Y-124764800D01*
X120273000Y-124764800D02*
X120523000Y-124764800D01*
X116356390Y-120167998D02*
X116356389Y-125074791D01*
X141198600Y-117014800D02*
X140896800Y-116713000D01*
X141198600Y-117764800D02*
X141198600Y-117014800D01*
X137541000Y-116713000D02*
X137414000Y-116713000D01*
X140896800Y-116713000D02*
X137541000Y-116713000D01*
X137414000Y-117094000D02*
X136652000Y-117856000D01*
X137414000Y-116713000D02*
X137414000Y-117094000D01*
X135451010Y-119056990D02*
X117467398Y-119056990D01*
X136652000Y-117856000D02*
X135451010Y-119056990D01*
X117467398Y-119056990D02*
X116484194Y-120040194D01*
X116484194Y-120040194D02*
X116356390Y-120167998D01*
X117881400Y-124764800D02*
X116881400Y-124764800D01*
X116881400Y-124764800D02*
X116806399Y-124689799D01*
X138582400Y-117775200D02*
X137875800Y-117775200D01*
X137875800Y-117775200D02*
X136779000Y-118872000D01*
X116806399Y-120354399D02*
X117653798Y-119507000D01*
X116806399Y-120556601D02*
X116806399Y-120354399D01*
X116806399Y-124689799D02*
X116806399Y-120556601D01*
X136144000Y-119507000D02*
X136779000Y-118872000D01*
X117653798Y-119507000D02*
X136144000Y-119507000D01*
X159634347Y-67441653D02*
X159634347Y-64139653D01*
X159634347Y-64139653D02*
X159639000Y-64135000D01*
M02*
