%TF.GenerationSoftware,KiCad,Pcbnew,5.1.4*%
%TF.CreationDate,2019-11-11T15:35:15+01:00*%
%TF.ProjectId,balancer,62616c61-6e63-4657-922e-6b696361645f,rev?*%
%TF.SameCoordinates,Original*%
%TF.FileFunction,Legend,Bot*%
%TF.FilePolarity,Positive*%
%FSLAX46Y46*%
G04 Gerber Fmt 4.6, Leading zero omitted, Abs format (unit mm)*
G04 Created by KiCad (PCBNEW 5.1.4) date 2019-11-11 15:35:15*
%MOMM*%
%LPD*%
G04 APERTURE LIST*
%ADD10C,0.150000*%
%ADD11C,0.120000*%
%ADD12C,1.626000*%
%ADD13C,1.902000*%
%ADD14R,1.902000X1.902000*%
%ADD15C,5.702000*%
%ADD16R,2.602000X2.602000*%
%ADD17R,1.602000X1.102000*%
%ADD18C,0.500000*%
%ADD19C,0.100000*%
%ADD20O,1.802000X1.802000*%
%ADD21R,1.802000X1.802000*%
G04 APERTURE END LIST*
D10*
X167965428Y-46918571D02*
X167917809Y-46775714D01*
X167870190Y-46728095D01*
X167774952Y-46680476D01*
X167632095Y-46680476D01*
X167536857Y-46728095D01*
X167489238Y-46775714D01*
X167441619Y-46870952D01*
X167441619Y-47251904D01*
X168441619Y-47251904D01*
X168441619Y-46918571D01*
X168394000Y-46823333D01*
X168346380Y-46775714D01*
X168251142Y-46728095D01*
X168155904Y-46728095D01*
X168060666Y-46775714D01*
X168013047Y-46823333D01*
X167965428Y-46918571D01*
X167965428Y-47251904D01*
X167727333Y-52816095D02*
X167727333Y-52339904D01*
X167441619Y-52911333D02*
X168441619Y-52578000D01*
X167441619Y-52244666D01*
D11*
X161036000Y-116586000D02*
X137160000Y-116586000D01*
X161036000Y-120142000D02*
X161036000Y-116586000D01*
X137160000Y-120142000D02*
X161036000Y-120142000D01*
X137160000Y-116586000D02*
X137160000Y-120142000D01*
D10*
X161726571Y-118292571D02*
X161583714Y-118340190D01*
X161536095Y-118387809D01*
X161488476Y-118483047D01*
X161488476Y-118625904D01*
X161536095Y-118721142D01*
X161583714Y-118768761D01*
X161678952Y-118816380D01*
X162059904Y-118816380D01*
X162059904Y-117816380D01*
X161726571Y-117816380D01*
X161631333Y-117864000D01*
X161583714Y-117911619D01*
X161536095Y-118006857D01*
X161536095Y-118102095D01*
X161583714Y-118197333D01*
X161631333Y-118244952D01*
X161726571Y-118292571D01*
X162059904Y-118292571D01*
X115554095Y-124372666D02*
X115077904Y-124372666D01*
X115649333Y-124658380D02*
X115316000Y-123658380D01*
X114982666Y-124658380D01*
D11*
X116332000Y-122428000D02*
X116332000Y-125984000D01*
X140716000Y-122428000D02*
X116332000Y-122428000D01*
X140716000Y-125984000D02*
X140716000Y-122428000D01*
X116332000Y-125984000D02*
X140716000Y-125984000D01*
X168194000Y-51864000D02*
G75*
G03X168894000Y-51164000I0J700000D01*
G01*
X166894000Y-51164000D02*
G75*
G03X167594000Y-51864000I700000J0D01*
G01*
X167594000Y-47764000D02*
G75*
G03X166894000Y-48464000I0J-700000D01*
G01*
X168894000Y-48464000D02*
G75*
G03X168194000Y-47764000I-700000J0D01*
G01*
X168894000Y-51214000D02*
X168894000Y-48414000D01*
X168194000Y-47764000D02*
X167594000Y-47764000D01*
X166894000Y-48414000D02*
X166894000Y-51214000D01*
X167594000Y-51864000D02*
X168194000Y-51864000D01*
X166694000Y-51014000D02*
X166394000Y-51314000D01*
X166394000Y-51314000D02*
X166394000Y-50714000D01*
X166694000Y-51014000D02*
X166394000Y-50714000D01*
X145380200Y-116999800D02*
X145380200Y-119799800D01*
X145380200Y-119799800D02*
X147380200Y-119799800D01*
X147380200Y-119799800D02*
X147380200Y-116999800D01*
X147380200Y-116999800D02*
X145380200Y-116999800D01*
X118881400Y-125514800D02*
X118881400Y-122714800D01*
X118881400Y-122714800D02*
X116881400Y-122714800D01*
X116881400Y-122714800D02*
X116881400Y-125514800D01*
X116881400Y-125514800D02*
X118881400Y-125514800D01*
X129574800Y-125544800D02*
X129574800Y-122744800D01*
X129574800Y-122744800D02*
X127574800Y-122744800D01*
X127574800Y-122744800D02*
X127574800Y-125544800D01*
X127574800Y-125544800D02*
X129574800Y-125544800D01*
X150561800Y-116999800D02*
X150561800Y-119799800D01*
X150561800Y-119799800D02*
X152561800Y-119799800D01*
X152561800Y-119799800D02*
X152561800Y-116999800D01*
X152561800Y-116999800D02*
X150561800Y-116999800D01*
X140198600Y-117014800D02*
X140198600Y-119814800D01*
X140198600Y-119814800D02*
X142198600Y-119814800D01*
X142198600Y-119814800D02*
X142198600Y-117014800D01*
X142198600Y-117014800D02*
X140198600Y-117014800D01*
X126882400Y-125514800D02*
X126882400Y-122714800D01*
X126882400Y-122714800D02*
X124882400Y-122714800D01*
X124882400Y-122714800D02*
X124882400Y-125514800D01*
X124882400Y-125514800D02*
X126882400Y-125514800D01*
X134934200Y-125529800D02*
X134934200Y-122729800D01*
X134934200Y-122729800D02*
X132934200Y-122729800D01*
X132934200Y-122729800D02*
X132934200Y-125529800D01*
X132934200Y-125529800D02*
X134934200Y-125529800D01*
X155819600Y-116989400D02*
X155819600Y-119789400D01*
X155819600Y-119789400D02*
X157819600Y-119789400D01*
X157819600Y-119789400D02*
X157819600Y-116989400D01*
X157819600Y-116989400D02*
X155819600Y-116989400D01*
X137582400Y-117025200D02*
X137582400Y-119825200D01*
X137582400Y-119825200D02*
X139582400Y-119825200D01*
X139582400Y-119825200D02*
X139582400Y-117025200D01*
X139582400Y-117025200D02*
X137582400Y-117025200D01*
X121523000Y-125514800D02*
X121523000Y-122714800D01*
X121523000Y-122714800D02*
X119523000Y-122714800D01*
X119523000Y-122714800D02*
X119523000Y-125514800D01*
X119523000Y-125514800D02*
X121523000Y-125514800D01*
X153178000Y-116999800D02*
X153178000Y-119799800D01*
X153178000Y-119799800D02*
X155178000Y-119799800D01*
X155178000Y-119799800D02*
X155178000Y-116999800D01*
X155178000Y-116999800D02*
X153178000Y-116999800D01*
X124215400Y-125514800D02*
X124215400Y-122714800D01*
X124215400Y-122714800D02*
X122215400Y-122714800D01*
X122215400Y-122714800D02*
X122215400Y-125514800D01*
X122215400Y-125514800D02*
X124215400Y-125514800D01*
X142789400Y-116999800D02*
X142789400Y-119799800D01*
X142789400Y-119799800D02*
X144789400Y-119799800D01*
X144789400Y-119799800D02*
X144789400Y-116999800D01*
X144789400Y-116999800D02*
X142789400Y-116999800D01*
X137626600Y-125529800D02*
X137626600Y-122729800D01*
X137626600Y-122729800D02*
X135626600Y-122729800D01*
X135626600Y-122729800D02*
X135626600Y-125529800D01*
X135626600Y-125529800D02*
X137626600Y-125529800D01*
X132267200Y-125540200D02*
X132267200Y-122740200D01*
X132267200Y-122740200D02*
X130267200Y-122740200D01*
X130267200Y-122740200D02*
X130267200Y-125540200D01*
X130267200Y-125540200D02*
X132267200Y-125540200D01*
X158486600Y-116974400D02*
X158486600Y-119774400D01*
X158486600Y-119774400D02*
X160486600Y-119774400D01*
X160486600Y-119774400D02*
X160486600Y-116974400D01*
X160486600Y-116974400D02*
X158486600Y-116974400D01*
X140293600Y-125514800D02*
X140293600Y-122714800D01*
X140293600Y-122714800D02*
X138293600Y-122714800D01*
X138293600Y-122714800D02*
X138293600Y-125514800D01*
X138293600Y-125514800D02*
X140293600Y-125514800D01*
X147971000Y-116989400D02*
X147971000Y-119789400D01*
X147971000Y-119789400D02*
X149971000Y-119789400D01*
X149971000Y-119789400D02*
X149971000Y-116989400D01*
X149971000Y-116989400D02*
X147971000Y-116989400D01*
%LPC*%
D12*
X163893500Y-65403200D03*
X158957500Y-77293200D03*
X150297500Y-77293200D03*
X165597700Y-53697200D03*
X147152500Y-52844800D03*
D13*
X149978400Y-125254700D03*
D14*
X152518400Y-125254700D03*
D13*
X154978400Y-125254700D03*
D14*
X157518400Y-125254700D03*
D13*
X159978400Y-125254700D03*
D14*
X162518400Y-125254700D03*
D13*
X164978400Y-125254700D03*
D14*
X167518400Y-125254700D03*
D13*
X169978400Y-125254700D03*
D14*
X172518400Y-125254700D03*
D13*
X174978400Y-125254700D03*
D14*
X177518400Y-125254700D03*
D13*
X179978400Y-125254700D03*
D14*
X182518400Y-125254700D03*
D13*
X184978400Y-125254700D03*
D14*
X187518400Y-125254700D03*
D15*
X189992000Y-121666000D03*
X97282000Y-122174000D03*
X96735900Y-49202340D03*
X188468000Y-49530000D03*
D12*
X190563500Y-65403200D03*
X185627500Y-77293200D03*
X176967500Y-77293200D03*
X192267700Y-53697200D03*
X173822500Y-52844800D03*
X110553500Y-65403200D03*
X105617500Y-77293200D03*
X96957500Y-77293200D03*
X112257700Y-53697200D03*
X93812500Y-52844800D03*
D16*
X99568000Y-57404000D03*
D17*
X167894000Y-49814000D03*
D18*
X167894000Y-48514000D03*
D19*
G36*
X167093602Y-48507888D02*
G01*
X167093602Y-48489466D01*
X167093848Y-48484467D01*
X167098658Y-48435636D01*
X167099392Y-48430686D01*
X167108964Y-48382561D01*
X167110180Y-48377705D01*
X167124424Y-48330750D01*
X167126110Y-48326039D01*
X167144887Y-48280706D01*
X167147027Y-48276180D01*
X167170158Y-48232907D01*
X167172731Y-48228616D01*
X167199991Y-48187817D01*
X167202973Y-48183796D01*
X167234101Y-48145867D01*
X167237462Y-48142159D01*
X167272159Y-48107462D01*
X167275867Y-48104101D01*
X167313796Y-48072973D01*
X167317817Y-48069991D01*
X167358616Y-48042731D01*
X167362907Y-48040158D01*
X167406180Y-48017027D01*
X167410706Y-48014887D01*
X167456039Y-47996110D01*
X167460750Y-47994424D01*
X167507705Y-47980180D01*
X167512561Y-47978964D01*
X167560686Y-47969392D01*
X167565636Y-47968658D01*
X167614467Y-47963848D01*
X167619466Y-47963602D01*
X167637888Y-47963602D01*
X167644000Y-47963000D01*
X168144000Y-47963000D01*
X168150112Y-47963602D01*
X168168534Y-47963602D01*
X168173533Y-47963848D01*
X168222364Y-47968658D01*
X168227314Y-47969392D01*
X168275439Y-47978964D01*
X168280295Y-47980180D01*
X168327250Y-47994424D01*
X168331961Y-47996110D01*
X168377294Y-48014887D01*
X168381820Y-48017027D01*
X168425093Y-48040158D01*
X168429384Y-48042731D01*
X168470183Y-48069991D01*
X168474204Y-48072973D01*
X168512133Y-48104101D01*
X168515841Y-48107462D01*
X168550538Y-48142159D01*
X168553899Y-48145867D01*
X168585027Y-48183796D01*
X168588009Y-48187817D01*
X168615269Y-48228616D01*
X168617842Y-48232907D01*
X168640973Y-48276180D01*
X168643113Y-48280706D01*
X168661890Y-48326039D01*
X168663576Y-48330750D01*
X168677820Y-48377705D01*
X168679036Y-48382561D01*
X168688608Y-48430686D01*
X168689342Y-48435636D01*
X168694152Y-48484467D01*
X168694398Y-48489466D01*
X168694398Y-48507888D01*
X168695000Y-48514000D01*
X168695000Y-49064000D01*
X168694020Y-49073950D01*
X168691118Y-49083517D01*
X168686405Y-49092334D01*
X168680062Y-49100062D01*
X168672334Y-49106405D01*
X168663517Y-49111118D01*
X168653950Y-49114020D01*
X168644000Y-49115000D01*
X167144000Y-49115000D01*
X167134050Y-49114020D01*
X167124483Y-49111118D01*
X167115666Y-49106405D01*
X167107938Y-49100062D01*
X167101595Y-49092334D01*
X167096882Y-49083517D01*
X167093980Y-49073950D01*
X167093000Y-49064000D01*
X167093000Y-48514000D01*
X167093602Y-48507888D01*
X167093602Y-48507888D01*
G37*
D18*
X167894000Y-51114000D03*
D19*
G36*
X167093980Y-50554050D02*
G01*
X167096882Y-50544483D01*
X167101595Y-50535666D01*
X167107938Y-50527938D01*
X167115666Y-50521595D01*
X167124483Y-50516882D01*
X167134050Y-50513980D01*
X167144000Y-50513000D01*
X168644000Y-50513000D01*
X168653950Y-50513980D01*
X168663517Y-50516882D01*
X168672334Y-50521595D01*
X168680062Y-50527938D01*
X168686405Y-50535666D01*
X168691118Y-50544483D01*
X168694020Y-50554050D01*
X168695000Y-50564000D01*
X168695000Y-51114000D01*
X168694398Y-51120112D01*
X168694398Y-51138534D01*
X168694152Y-51143533D01*
X168689342Y-51192364D01*
X168688608Y-51197314D01*
X168679036Y-51245439D01*
X168677820Y-51250295D01*
X168663576Y-51297250D01*
X168661890Y-51301961D01*
X168643113Y-51347294D01*
X168640973Y-51351820D01*
X168617842Y-51395093D01*
X168615269Y-51399384D01*
X168588009Y-51440183D01*
X168585027Y-51444204D01*
X168553899Y-51482133D01*
X168550538Y-51485841D01*
X168515841Y-51520538D01*
X168512133Y-51523899D01*
X168474204Y-51555027D01*
X168470183Y-51558009D01*
X168429384Y-51585269D01*
X168425093Y-51587842D01*
X168381820Y-51610973D01*
X168377294Y-51613113D01*
X168331961Y-51631890D01*
X168327250Y-51633576D01*
X168280295Y-51647820D01*
X168275439Y-51649036D01*
X168227314Y-51658608D01*
X168222364Y-51659342D01*
X168173533Y-51664152D01*
X168168534Y-51664398D01*
X168150112Y-51664398D01*
X168144000Y-51665000D01*
X167644000Y-51665000D01*
X167637888Y-51664398D01*
X167619466Y-51664398D01*
X167614467Y-51664152D01*
X167565636Y-51659342D01*
X167560686Y-51658608D01*
X167512561Y-51649036D01*
X167507705Y-51647820D01*
X167460750Y-51633576D01*
X167456039Y-51631890D01*
X167410706Y-51613113D01*
X167406180Y-51610973D01*
X167362907Y-51587842D01*
X167358616Y-51585269D01*
X167317817Y-51558009D01*
X167313796Y-51555027D01*
X167275867Y-51523899D01*
X167272159Y-51520538D01*
X167237462Y-51485841D01*
X167234101Y-51482133D01*
X167202973Y-51444204D01*
X167199991Y-51440183D01*
X167172731Y-51399384D01*
X167170158Y-51395093D01*
X167147027Y-51351820D01*
X167144887Y-51347294D01*
X167126110Y-51301961D01*
X167124424Y-51297250D01*
X167110180Y-51250295D01*
X167108964Y-51245439D01*
X167099392Y-51197314D01*
X167098658Y-51192364D01*
X167093848Y-51143533D01*
X167093602Y-51138534D01*
X167093602Y-51120112D01*
X167093000Y-51114000D01*
X167093000Y-50564000D01*
X167093980Y-50554050D01*
X167093980Y-50554050D01*
G37*
D12*
X137223500Y-65403200D03*
X132287500Y-77293200D03*
X123627500Y-77293200D03*
X138927700Y-53697200D03*
X120482500Y-52844800D03*
X190563500Y-99693200D03*
X185627500Y-111583200D03*
X176967500Y-111583200D03*
X192267700Y-87987200D03*
X173822500Y-87134800D03*
X110553500Y-99693200D03*
X105617500Y-111583200D03*
X96957500Y-111583200D03*
X112257700Y-87987200D03*
X93812500Y-87134800D03*
X137223500Y-99693200D03*
X132287500Y-111583200D03*
X123627500Y-111583200D03*
X138927700Y-87987200D03*
X120482500Y-87134800D03*
X163893500Y-99693200D03*
X158957500Y-111583200D03*
X150297500Y-111583200D03*
X165597700Y-87987200D03*
X147152500Y-87134800D03*
D17*
X146380200Y-117749800D03*
X146380200Y-119049800D03*
X117881400Y-124764800D03*
X117881400Y-123464800D03*
X128574800Y-124794800D03*
X128574800Y-123494800D03*
X151561800Y-117749800D03*
X151561800Y-119049800D03*
X141198600Y-117764800D03*
X141198600Y-119064800D03*
X125882400Y-124764800D03*
X125882400Y-123464800D03*
X133934200Y-124779800D03*
X133934200Y-123479800D03*
X156819600Y-117739400D03*
X156819600Y-119039400D03*
X138582400Y-117775200D03*
X138582400Y-119075200D03*
X120523000Y-124764800D03*
X120523000Y-123464800D03*
D20*
X158877000Y-121208800D03*
X156337000Y-121208800D03*
X153797000Y-121208800D03*
X151257000Y-121208800D03*
X148717000Y-121208800D03*
X146177000Y-121208800D03*
X143637000Y-121208800D03*
X141097000Y-121208800D03*
X138557000Y-121208800D03*
X136017000Y-121208800D03*
X133477000Y-121208800D03*
X130937000Y-121208800D03*
X128397000Y-121208800D03*
X125857000Y-121208800D03*
X123317000Y-121208800D03*
X120777000Y-121208800D03*
D21*
X118237000Y-121208800D03*
D17*
X154178000Y-117749800D03*
X154178000Y-119049800D03*
X123215400Y-124764800D03*
X123215400Y-123464800D03*
X143789400Y-117749800D03*
X143789400Y-119049800D03*
X136626600Y-124779800D03*
X136626600Y-123479800D03*
X131267200Y-124790200D03*
X131267200Y-123490200D03*
X159486600Y-117724400D03*
X159486600Y-119024400D03*
X139293600Y-124764800D03*
X139293600Y-123464800D03*
X148971000Y-117739400D03*
X148971000Y-119039400D03*
D20*
X146812000Y-48768000D03*
X149352000Y-48768000D03*
X151892000Y-48768000D03*
X154432000Y-48768000D03*
X156972000Y-48768000D03*
X159512000Y-48768000D03*
X162052000Y-48768000D03*
D21*
X164592000Y-48768000D03*
M02*
