%TF.GenerationSoftware,KiCad,Pcbnew,5.1.4*%
%TF.CreationDate,2019-11-11T15:35:15+01:00*%
%TF.ProjectId,balancer,62616c61-6e63-4657-922e-6b696361645f,rev?*%
%TF.SameCoordinates,Original*%
%TF.FileFunction,Soldermask,Top*%
%TF.FilePolarity,Negative*%
%FSLAX46Y46*%
G04 Gerber Fmt 4.6, Leading zero omitted, Abs format (unit mm)*
G04 Created by KiCad (PCBNEW 5.1.4) date 2019-11-11 15:35:15*
%MOMM*%
%LPD*%
G04 APERTURE LIST*
%ADD10C,0.100000*%
G04 APERTURE END LIST*
D10*
G36*
X147359000Y-127835000D02*
G01*
X145757000Y-127835000D01*
X145757000Y-125433000D01*
X147359000Y-125433000D01*
X147359000Y-127835000D01*
X147359000Y-127835000D01*
G37*
G36*
X143295000Y-127835000D02*
G01*
X141693000Y-127835000D01*
X141693000Y-125433000D01*
X143295000Y-125433000D01*
X143295000Y-127835000D01*
X143295000Y-127835000D01*
G37*
G36*
X153469400Y-126205700D02*
G01*
X151567400Y-126205700D01*
X151567400Y-124303700D01*
X153469400Y-124303700D01*
X153469400Y-126205700D01*
X153469400Y-126205700D01*
G37*
G36*
X178469400Y-126205700D02*
G01*
X176567400Y-126205700D01*
X176567400Y-124303700D01*
X178469400Y-124303700D01*
X178469400Y-126205700D01*
X178469400Y-126205700D01*
G37*
G36*
X150255795Y-124340246D02*
G01*
X150428866Y-124411934D01*
X150428867Y-124411935D01*
X150584627Y-124516010D01*
X150717090Y-124648473D01*
X150717091Y-124648475D01*
X150821166Y-124804234D01*
X150892854Y-124977305D01*
X150929400Y-125161033D01*
X150929400Y-125348367D01*
X150892854Y-125532095D01*
X150821166Y-125705166D01*
X150821165Y-125705167D01*
X150717090Y-125860927D01*
X150584627Y-125993390D01*
X150506218Y-126045781D01*
X150428866Y-126097466D01*
X150255795Y-126169154D01*
X150072067Y-126205700D01*
X149884733Y-126205700D01*
X149701005Y-126169154D01*
X149527934Y-126097466D01*
X149450582Y-126045781D01*
X149372173Y-125993390D01*
X149239710Y-125860927D01*
X149135635Y-125705167D01*
X149135634Y-125705166D01*
X149063946Y-125532095D01*
X149027400Y-125348367D01*
X149027400Y-125161033D01*
X149063946Y-124977305D01*
X149135634Y-124804234D01*
X149239709Y-124648475D01*
X149239710Y-124648473D01*
X149372173Y-124516010D01*
X149527933Y-124411935D01*
X149527934Y-124411934D01*
X149701005Y-124340246D01*
X149884733Y-124303700D01*
X150072067Y-124303700D01*
X150255795Y-124340246D01*
X150255795Y-124340246D01*
G37*
G36*
X188471802Y-124283907D02*
G01*
X188469400Y-124308293D01*
X188469400Y-126205700D01*
X186567400Y-126205700D01*
X186567400Y-124303700D01*
X188395866Y-124303700D01*
X188420252Y-124301298D01*
X188443701Y-124294185D01*
X188465312Y-124282634D01*
X188474467Y-124275121D01*
X188471802Y-124283907D01*
X188471802Y-124283907D01*
G37*
G36*
X185255795Y-124340246D02*
G01*
X185428866Y-124411934D01*
X185428867Y-124411935D01*
X185584627Y-124516010D01*
X185717090Y-124648473D01*
X185717091Y-124648475D01*
X185821166Y-124804234D01*
X185892854Y-124977305D01*
X185929400Y-125161033D01*
X185929400Y-125348367D01*
X185892854Y-125532095D01*
X185821166Y-125705166D01*
X185821165Y-125705167D01*
X185717090Y-125860927D01*
X185584627Y-125993390D01*
X185506218Y-126045781D01*
X185428866Y-126097466D01*
X185255795Y-126169154D01*
X185072067Y-126205700D01*
X184884733Y-126205700D01*
X184701005Y-126169154D01*
X184527934Y-126097466D01*
X184450582Y-126045781D01*
X184372173Y-125993390D01*
X184239710Y-125860927D01*
X184135635Y-125705167D01*
X184135634Y-125705166D01*
X184063946Y-125532095D01*
X184027400Y-125348367D01*
X184027400Y-125161033D01*
X184063946Y-124977305D01*
X184135634Y-124804234D01*
X184239709Y-124648475D01*
X184239710Y-124648473D01*
X184372173Y-124516010D01*
X184527933Y-124411935D01*
X184527934Y-124411934D01*
X184701005Y-124340246D01*
X184884733Y-124303700D01*
X185072067Y-124303700D01*
X185255795Y-124340246D01*
X185255795Y-124340246D01*
G37*
G36*
X183469400Y-126205700D02*
G01*
X181567400Y-126205700D01*
X181567400Y-124303700D01*
X183469400Y-124303700D01*
X183469400Y-126205700D01*
X183469400Y-126205700D01*
G37*
G36*
X180255795Y-124340246D02*
G01*
X180428866Y-124411934D01*
X180428867Y-124411935D01*
X180584627Y-124516010D01*
X180717090Y-124648473D01*
X180717091Y-124648475D01*
X180821166Y-124804234D01*
X180892854Y-124977305D01*
X180929400Y-125161033D01*
X180929400Y-125348367D01*
X180892854Y-125532095D01*
X180821166Y-125705166D01*
X180821165Y-125705167D01*
X180717090Y-125860927D01*
X180584627Y-125993390D01*
X180506218Y-126045781D01*
X180428866Y-126097466D01*
X180255795Y-126169154D01*
X180072067Y-126205700D01*
X179884733Y-126205700D01*
X179701005Y-126169154D01*
X179527934Y-126097466D01*
X179450582Y-126045781D01*
X179372173Y-125993390D01*
X179239710Y-125860927D01*
X179135635Y-125705167D01*
X179135634Y-125705166D01*
X179063946Y-125532095D01*
X179027400Y-125348367D01*
X179027400Y-125161033D01*
X179063946Y-124977305D01*
X179135634Y-124804234D01*
X179239709Y-124648475D01*
X179239710Y-124648473D01*
X179372173Y-124516010D01*
X179527933Y-124411935D01*
X179527934Y-124411934D01*
X179701005Y-124340246D01*
X179884733Y-124303700D01*
X180072067Y-124303700D01*
X180255795Y-124340246D01*
X180255795Y-124340246D01*
G37*
G36*
X155255795Y-124340246D02*
G01*
X155428866Y-124411934D01*
X155428867Y-124411935D01*
X155584627Y-124516010D01*
X155717090Y-124648473D01*
X155717091Y-124648475D01*
X155821166Y-124804234D01*
X155892854Y-124977305D01*
X155929400Y-125161033D01*
X155929400Y-125348367D01*
X155892854Y-125532095D01*
X155821166Y-125705166D01*
X155821165Y-125705167D01*
X155717090Y-125860927D01*
X155584627Y-125993390D01*
X155506218Y-126045781D01*
X155428866Y-126097466D01*
X155255795Y-126169154D01*
X155072067Y-126205700D01*
X154884733Y-126205700D01*
X154701005Y-126169154D01*
X154527934Y-126097466D01*
X154450582Y-126045781D01*
X154372173Y-125993390D01*
X154239710Y-125860927D01*
X154135635Y-125705167D01*
X154135634Y-125705166D01*
X154063946Y-125532095D01*
X154027400Y-125348367D01*
X154027400Y-125161033D01*
X154063946Y-124977305D01*
X154135634Y-124804234D01*
X154239709Y-124648475D01*
X154239710Y-124648473D01*
X154372173Y-124516010D01*
X154527933Y-124411935D01*
X154527934Y-124411934D01*
X154701005Y-124340246D01*
X154884733Y-124303700D01*
X155072067Y-124303700D01*
X155255795Y-124340246D01*
X155255795Y-124340246D01*
G37*
G36*
X175255795Y-124340246D02*
G01*
X175428866Y-124411934D01*
X175428867Y-124411935D01*
X175584627Y-124516010D01*
X175717090Y-124648473D01*
X175717091Y-124648475D01*
X175821166Y-124804234D01*
X175892854Y-124977305D01*
X175929400Y-125161033D01*
X175929400Y-125348367D01*
X175892854Y-125532095D01*
X175821166Y-125705166D01*
X175821165Y-125705167D01*
X175717090Y-125860927D01*
X175584627Y-125993390D01*
X175506218Y-126045781D01*
X175428866Y-126097466D01*
X175255795Y-126169154D01*
X175072067Y-126205700D01*
X174884733Y-126205700D01*
X174701005Y-126169154D01*
X174527934Y-126097466D01*
X174450582Y-126045781D01*
X174372173Y-125993390D01*
X174239710Y-125860927D01*
X174135635Y-125705167D01*
X174135634Y-125705166D01*
X174063946Y-125532095D01*
X174027400Y-125348367D01*
X174027400Y-125161033D01*
X174063946Y-124977305D01*
X174135634Y-124804234D01*
X174239709Y-124648475D01*
X174239710Y-124648473D01*
X174372173Y-124516010D01*
X174527933Y-124411935D01*
X174527934Y-124411934D01*
X174701005Y-124340246D01*
X174884733Y-124303700D01*
X175072067Y-124303700D01*
X175255795Y-124340246D01*
X175255795Y-124340246D01*
G37*
G36*
X170255795Y-124340246D02*
G01*
X170428866Y-124411934D01*
X170428867Y-124411935D01*
X170584627Y-124516010D01*
X170717090Y-124648473D01*
X170717091Y-124648475D01*
X170821166Y-124804234D01*
X170892854Y-124977305D01*
X170929400Y-125161033D01*
X170929400Y-125348367D01*
X170892854Y-125532095D01*
X170821166Y-125705166D01*
X170821165Y-125705167D01*
X170717090Y-125860927D01*
X170584627Y-125993390D01*
X170506218Y-126045781D01*
X170428866Y-126097466D01*
X170255795Y-126169154D01*
X170072067Y-126205700D01*
X169884733Y-126205700D01*
X169701005Y-126169154D01*
X169527934Y-126097466D01*
X169450582Y-126045781D01*
X169372173Y-125993390D01*
X169239710Y-125860927D01*
X169135635Y-125705167D01*
X169135634Y-125705166D01*
X169063946Y-125532095D01*
X169027400Y-125348367D01*
X169027400Y-125161033D01*
X169063946Y-124977305D01*
X169135634Y-124804234D01*
X169239709Y-124648475D01*
X169239710Y-124648473D01*
X169372173Y-124516010D01*
X169527933Y-124411935D01*
X169527934Y-124411934D01*
X169701005Y-124340246D01*
X169884733Y-124303700D01*
X170072067Y-124303700D01*
X170255795Y-124340246D01*
X170255795Y-124340246D01*
G37*
G36*
X168469400Y-126205700D02*
G01*
X166567400Y-126205700D01*
X166567400Y-124303700D01*
X168469400Y-124303700D01*
X168469400Y-126205700D01*
X168469400Y-126205700D01*
G37*
G36*
X165255795Y-124340246D02*
G01*
X165428866Y-124411934D01*
X165428867Y-124411935D01*
X165584627Y-124516010D01*
X165717090Y-124648473D01*
X165717091Y-124648475D01*
X165821166Y-124804234D01*
X165892854Y-124977305D01*
X165929400Y-125161033D01*
X165929400Y-125348367D01*
X165892854Y-125532095D01*
X165821166Y-125705166D01*
X165821165Y-125705167D01*
X165717090Y-125860927D01*
X165584627Y-125993390D01*
X165506218Y-126045781D01*
X165428866Y-126097466D01*
X165255795Y-126169154D01*
X165072067Y-126205700D01*
X164884733Y-126205700D01*
X164701005Y-126169154D01*
X164527934Y-126097466D01*
X164450582Y-126045781D01*
X164372173Y-125993390D01*
X164239710Y-125860927D01*
X164135635Y-125705167D01*
X164135634Y-125705166D01*
X164063946Y-125532095D01*
X164027400Y-125348367D01*
X164027400Y-125161033D01*
X164063946Y-124977305D01*
X164135634Y-124804234D01*
X164239709Y-124648475D01*
X164239710Y-124648473D01*
X164372173Y-124516010D01*
X164527933Y-124411935D01*
X164527934Y-124411934D01*
X164701005Y-124340246D01*
X164884733Y-124303700D01*
X165072067Y-124303700D01*
X165255795Y-124340246D01*
X165255795Y-124340246D01*
G37*
G36*
X163469400Y-126205700D02*
G01*
X161567400Y-126205700D01*
X161567400Y-124303700D01*
X163469400Y-124303700D01*
X163469400Y-126205700D01*
X163469400Y-126205700D01*
G37*
G36*
X160255795Y-124340246D02*
G01*
X160428866Y-124411934D01*
X160428867Y-124411935D01*
X160584627Y-124516010D01*
X160717090Y-124648473D01*
X160717091Y-124648475D01*
X160821166Y-124804234D01*
X160892854Y-124977305D01*
X160929400Y-125161033D01*
X160929400Y-125348367D01*
X160892854Y-125532095D01*
X160821166Y-125705166D01*
X160821165Y-125705167D01*
X160717090Y-125860927D01*
X160584627Y-125993390D01*
X160506218Y-126045781D01*
X160428866Y-126097466D01*
X160255795Y-126169154D01*
X160072067Y-126205700D01*
X159884733Y-126205700D01*
X159701005Y-126169154D01*
X159527934Y-126097466D01*
X159450582Y-126045781D01*
X159372173Y-125993390D01*
X159239710Y-125860927D01*
X159135635Y-125705167D01*
X159135634Y-125705166D01*
X159063946Y-125532095D01*
X159027400Y-125348367D01*
X159027400Y-125161033D01*
X159063946Y-124977305D01*
X159135634Y-124804234D01*
X159239709Y-124648475D01*
X159239710Y-124648473D01*
X159372173Y-124516010D01*
X159527933Y-124411935D01*
X159527934Y-124411934D01*
X159701005Y-124340246D01*
X159884733Y-124303700D01*
X160072067Y-124303700D01*
X160255795Y-124340246D01*
X160255795Y-124340246D01*
G37*
G36*
X158469400Y-126205700D02*
G01*
X156567400Y-126205700D01*
X156567400Y-124303700D01*
X158469400Y-124303700D01*
X158469400Y-126205700D01*
X158469400Y-126205700D01*
G37*
G36*
X173469400Y-126205700D02*
G01*
X171567400Y-126205700D01*
X171567400Y-124303700D01*
X173469400Y-124303700D01*
X173469400Y-126205700D01*
X173469400Y-126205700D01*
G37*
G36*
X98113606Y-119432562D02*
G01*
X98632455Y-119647476D01*
X99099407Y-119959484D01*
X99496516Y-120356593D01*
X99808524Y-120823545D01*
X100023438Y-121342394D01*
X100031953Y-121385201D01*
X100133000Y-121893200D01*
X100133000Y-122454800D01*
X100124485Y-122497606D01*
X100023438Y-123005606D01*
X99808524Y-123524455D01*
X99570611Y-123880516D01*
X99496517Y-123991406D01*
X99099406Y-124388517D01*
X99064360Y-124411934D01*
X98632455Y-124700524D01*
X98113606Y-124915438D01*
X97562800Y-125025000D01*
X97001200Y-125025000D01*
X96450394Y-124915438D01*
X95931545Y-124700524D01*
X95499640Y-124411934D01*
X95464594Y-124388517D01*
X95067483Y-123991406D01*
X94993389Y-123880516D01*
X94755476Y-123524455D01*
X94540562Y-123005606D01*
X94439515Y-122497606D01*
X94431000Y-122454800D01*
X94431000Y-121893200D01*
X94532047Y-121385201D01*
X94540562Y-121342394D01*
X94755476Y-120823545D01*
X95067484Y-120356593D01*
X95464593Y-119959484D01*
X95931545Y-119647476D01*
X96450394Y-119432562D01*
X97001200Y-119323000D01*
X97562800Y-119323000D01*
X98113606Y-119432562D01*
X98113606Y-119432562D01*
G37*
G36*
X190823606Y-118924562D02*
G01*
X191342455Y-119139476D01*
X191716524Y-119389421D01*
X191781089Y-119432562D01*
X191809407Y-119451484D01*
X192206516Y-119848593D01*
X192518524Y-120315545D01*
X192733438Y-120834394D01*
X192772779Y-121032173D01*
X192834486Y-121342395D01*
X192843000Y-121385201D01*
X192843000Y-121946799D01*
X192733438Y-122497606D01*
X192518524Y-123016455D01*
X192206516Y-123483407D01*
X191809407Y-123880516D01*
X191342455Y-124192524D01*
X190823606Y-124407438D01*
X190272800Y-124517000D01*
X189711200Y-124517000D01*
X189160394Y-124407438D01*
X188642230Y-124192808D01*
X188618785Y-124185696D01*
X188594399Y-124183294D01*
X188570013Y-124185696D01*
X188546564Y-124192809D01*
X188524953Y-124204360D01*
X188515798Y-124211873D01*
X188518463Y-124203087D01*
X188520865Y-124178701D01*
X188518463Y-124154315D01*
X188511350Y-124130866D01*
X188499799Y-124109255D01*
X188484254Y-124090313D01*
X188465316Y-124074771D01*
X188174593Y-123880516D01*
X187777484Y-123483407D01*
X187465476Y-123016455D01*
X187250562Y-122497606D01*
X187141000Y-121946799D01*
X187141000Y-121385201D01*
X187149515Y-121342395D01*
X187211221Y-121032173D01*
X187250562Y-120834394D01*
X187465476Y-120315545D01*
X187777484Y-119848593D01*
X188174593Y-119451484D01*
X188202912Y-119432562D01*
X188267476Y-119389421D01*
X188641545Y-119139476D01*
X189160394Y-118924562D01*
X189711200Y-118815000D01*
X190272800Y-118815000D01*
X190823606Y-118924562D01*
X190823606Y-118924562D01*
G37*
G36*
X131047443Y-120314319D02*
G01*
X131113627Y-120320837D01*
X131283466Y-120372357D01*
X131439991Y-120456022D01*
X131475729Y-120485352D01*
X131577186Y-120568614D01*
X131660448Y-120670071D01*
X131689778Y-120705809D01*
X131773443Y-120862334D01*
X131824963Y-121032173D01*
X131842359Y-121208800D01*
X131824963Y-121385427D01*
X131773443Y-121555266D01*
X131689778Y-121711791D01*
X131660448Y-121747529D01*
X131577186Y-121848986D01*
X131475729Y-121932248D01*
X131439991Y-121961578D01*
X131283466Y-122045243D01*
X131113627Y-122096763D01*
X131047443Y-122103281D01*
X130981260Y-122109800D01*
X130892740Y-122109800D01*
X130826557Y-122103281D01*
X130760373Y-122096763D01*
X130590534Y-122045243D01*
X130434009Y-121961578D01*
X130398271Y-121932248D01*
X130296814Y-121848986D01*
X130213552Y-121747529D01*
X130184222Y-121711791D01*
X130100557Y-121555266D01*
X130049037Y-121385427D01*
X130031641Y-121208800D01*
X130049037Y-121032173D01*
X130100557Y-120862334D01*
X130184222Y-120705809D01*
X130213552Y-120670071D01*
X130296814Y-120568614D01*
X130398271Y-120485352D01*
X130434009Y-120456022D01*
X130590534Y-120372357D01*
X130760373Y-120320837D01*
X130826557Y-120314319D01*
X130892740Y-120307800D01*
X130981260Y-120307800D01*
X131047443Y-120314319D01*
X131047443Y-120314319D01*
G37*
G36*
X133587443Y-120314319D02*
G01*
X133653627Y-120320837D01*
X133823466Y-120372357D01*
X133979991Y-120456022D01*
X134015729Y-120485352D01*
X134117186Y-120568614D01*
X134200448Y-120670071D01*
X134229778Y-120705809D01*
X134313443Y-120862334D01*
X134364963Y-121032173D01*
X134382359Y-121208800D01*
X134364963Y-121385427D01*
X134313443Y-121555266D01*
X134229778Y-121711791D01*
X134200448Y-121747529D01*
X134117186Y-121848986D01*
X134015729Y-121932248D01*
X133979991Y-121961578D01*
X133823466Y-122045243D01*
X133653627Y-122096763D01*
X133587443Y-122103281D01*
X133521260Y-122109800D01*
X133432740Y-122109800D01*
X133366557Y-122103281D01*
X133300373Y-122096763D01*
X133130534Y-122045243D01*
X132974009Y-121961578D01*
X132938271Y-121932248D01*
X132836814Y-121848986D01*
X132753552Y-121747529D01*
X132724222Y-121711791D01*
X132640557Y-121555266D01*
X132589037Y-121385427D01*
X132571641Y-121208800D01*
X132589037Y-121032173D01*
X132640557Y-120862334D01*
X132724222Y-120705809D01*
X132753552Y-120670071D01*
X132836814Y-120568614D01*
X132938271Y-120485352D01*
X132974009Y-120456022D01*
X133130534Y-120372357D01*
X133300373Y-120320837D01*
X133366557Y-120314319D01*
X133432740Y-120307800D01*
X133521260Y-120307800D01*
X133587443Y-120314319D01*
X133587443Y-120314319D01*
G37*
G36*
X136127443Y-120314319D02*
G01*
X136193627Y-120320837D01*
X136363466Y-120372357D01*
X136519991Y-120456022D01*
X136555729Y-120485352D01*
X136657186Y-120568614D01*
X136740448Y-120670071D01*
X136769778Y-120705809D01*
X136853443Y-120862334D01*
X136904963Y-121032173D01*
X136922359Y-121208800D01*
X136904963Y-121385427D01*
X136853443Y-121555266D01*
X136769778Y-121711791D01*
X136740448Y-121747529D01*
X136657186Y-121848986D01*
X136555729Y-121932248D01*
X136519991Y-121961578D01*
X136363466Y-122045243D01*
X136193627Y-122096763D01*
X136127443Y-122103281D01*
X136061260Y-122109800D01*
X135972740Y-122109800D01*
X135906557Y-122103281D01*
X135840373Y-122096763D01*
X135670534Y-122045243D01*
X135514009Y-121961578D01*
X135478271Y-121932248D01*
X135376814Y-121848986D01*
X135293552Y-121747529D01*
X135264222Y-121711791D01*
X135180557Y-121555266D01*
X135129037Y-121385427D01*
X135111641Y-121208800D01*
X135129037Y-121032173D01*
X135180557Y-120862334D01*
X135264222Y-120705809D01*
X135293552Y-120670071D01*
X135376814Y-120568614D01*
X135478271Y-120485352D01*
X135514009Y-120456022D01*
X135670534Y-120372357D01*
X135840373Y-120320837D01*
X135906557Y-120314319D01*
X135972740Y-120307800D01*
X136061260Y-120307800D01*
X136127443Y-120314319D01*
X136127443Y-120314319D01*
G37*
G36*
X138667443Y-120314319D02*
G01*
X138733627Y-120320837D01*
X138903466Y-120372357D01*
X139059991Y-120456022D01*
X139095729Y-120485352D01*
X139197186Y-120568614D01*
X139280448Y-120670071D01*
X139309778Y-120705809D01*
X139393443Y-120862334D01*
X139444963Y-121032173D01*
X139462359Y-121208800D01*
X139444963Y-121385427D01*
X139393443Y-121555266D01*
X139309778Y-121711791D01*
X139280448Y-121747529D01*
X139197186Y-121848986D01*
X139095729Y-121932248D01*
X139059991Y-121961578D01*
X138903466Y-122045243D01*
X138733627Y-122096763D01*
X138667443Y-122103281D01*
X138601260Y-122109800D01*
X138512740Y-122109800D01*
X138446557Y-122103281D01*
X138380373Y-122096763D01*
X138210534Y-122045243D01*
X138054009Y-121961578D01*
X138018271Y-121932248D01*
X137916814Y-121848986D01*
X137833552Y-121747529D01*
X137804222Y-121711791D01*
X137720557Y-121555266D01*
X137669037Y-121385427D01*
X137651641Y-121208800D01*
X137669037Y-121032173D01*
X137720557Y-120862334D01*
X137804222Y-120705809D01*
X137833552Y-120670071D01*
X137916814Y-120568614D01*
X138018271Y-120485352D01*
X138054009Y-120456022D01*
X138210534Y-120372357D01*
X138380373Y-120320837D01*
X138446557Y-120314319D01*
X138512740Y-120307800D01*
X138601260Y-120307800D01*
X138667443Y-120314319D01*
X138667443Y-120314319D01*
G37*
G36*
X141207443Y-120314319D02*
G01*
X141273627Y-120320837D01*
X141443466Y-120372357D01*
X141599991Y-120456022D01*
X141635729Y-120485352D01*
X141737186Y-120568614D01*
X141820448Y-120670071D01*
X141849778Y-120705809D01*
X141933443Y-120862334D01*
X141984963Y-121032173D01*
X142002359Y-121208800D01*
X141984963Y-121385427D01*
X141933443Y-121555266D01*
X141849778Y-121711791D01*
X141820448Y-121747529D01*
X141737186Y-121848986D01*
X141635729Y-121932248D01*
X141599991Y-121961578D01*
X141443466Y-122045243D01*
X141273627Y-122096763D01*
X141207443Y-122103281D01*
X141141260Y-122109800D01*
X141052740Y-122109800D01*
X140986557Y-122103281D01*
X140920373Y-122096763D01*
X140750534Y-122045243D01*
X140594009Y-121961578D01*
X140558271Y-121932248D01*
X140456814Y-121848986D01*
X140373552Y-121747529D01*
X140344222Y-121711791D01*
X140260557Y-121555266D01*
X140209037Y-121385427D01*
X140191641Y-121208800D01*
X140209037Y-121032173D01*
X140260557Y-120862334D01*
X140344222Y-120705809D01*
X140373552Y-120670071D01*
X140456814Y-120568614D01*
X140558271Y-120485352D01*
X140594009Y-120456022D01*
X140750534Y-120372357D01*
X140920373Y-120320837D01*
X140986557Y-120314319D01*
X141052740Y-120307800D01*
X141141260Y-120307800D01*
X141207443Y-120314319D01*
X141207443Y-120314319D01*
G37*
G36*
X143747443Y-120314319D02*
G01*
X143813627Y-120320837D01*
X143983466Y-120372357D01*
X144139991Y-120456022D01*
X144175729Y-120485352D01*
X144277186Y-120568614D01*
X144360448Y-120670071D01*
X144389778Y-120705809D01*
X144473443Y-120862334D01*
X144524963Y-121032173D01*
X144542359Y-121208800D01*
X144524963Y-121385427D01*
X144473443Y-121555266D01*
X144389778Y-121711791D01*
X144360448Y-121747529D01*
X144277186Y-121848986D01*
X144175729Y-121932248D01*
X144139991Y-121961578D01*
X143983466Y-122045243D01*
X143813627Y-122096763D01*
X143747443Y-122103281D01*
X143681260Y-122109800D01*
X143592740Y-122109800D01*
X143526557Y-122103281D01*
X143460373Y-122096763D01*
X143290534Y-122045243D01*
X143134009Y-121961578D01*
X143098271Y-121932248D01*
X142996814Y-121848986D01*
X142913552Y-121747529D01*
X142884222Y-121711791D01*
X142800557Y-121555266D01*
X142749037Y-121385427D01*
X142731641Y-121208800D01*
X142749037Y-121032173D01*
X142800557Y-120862334D01*
X142884222Y-120705809D01*
X142913552Y-120670071D01*
X142996814Y-120568614D01*
X143098271Y-120485352D01*
X143134009Y-120456022D01*
X143290534Y-120372357D01*
X143460373Y-120320837D01*
X143526557Y-120314319D01*
X143592740Y-120307800D01*
X143681260Y-120307800D01*
X143747443Y-120314319D01*
X143747443Y-120314319D01*
G37*
G36*
X146287443Y-120314319D02*
G01*
X146353627Y-120320837D01*
X146523466Y-120372357D01*
X146679991Y-120456022D01*
X146715729Y-120485352D01*
X146817186Y-120568614D01*
X146900448Y-120670071D01*
X146929778Y-120705809D01*
X147013443Y-120862334D01*
X147064963Y-121032173D01*
X147082359Y-121208800D01*
X147064963Y-121385427D01*
X147013443Y-121555266D01*
X146929778Y-121711791D01*
X146900448Y-121747529D01*
X146817186Y-121848986D01*
X146715729Y-121932248D01*
X146679991Y-121961578D01*
X146523466Y-122045243D01*
X146353627Y-122096763D01*
X146287443Y-122103281D01*
X146221260Y-122109800D01*
X146132740Y-122109800D01*
X146066557Y-122103281D01*
X146000373Y-122096763D01*
X145830534Y-122045243D01*
X145674009Y-121961578D01*
X145638271Y-121932248D01*
X145536814Y-121848986D01*
X145453552Y-121747529D01*
X145424222Y-121711791D01*
X145340557Y-121555266D01*
X145289037Y-121385427D01*
X145271641Y-121208800D01*
X145289037Y-121032173D01*
X145340557Y-120862334D01*
X145424222Y-120705809D01*
X145453552Y-120670071D01*
X145536814Y-120568614D01*
X145638271Y-120485352D01*
X145674009Y-120456022D01*
X145830534Y-120372357D01*
X146000373Y-120320837D01*
X146066557Y-120314319D01*
X146132740Y-120307800D01*
X146221260Y-120307800D01*
X146287443Y-120314319D01*
X146287443Y-120314319D01*
G37*
G36*
X148827443Y-120314319D02*
G01*
X148893627Y-120320837D01*
X149063466Y-120372357D01*
X149219991Y-120456022D01*
X149255729Y-120485352D01*
X149357186Y-120568614D01*
X149440448Y-120670071D01*
X149469778Y-120705809D01*
X149553443Y-120862334D01*
X149604963Y-121032173D01*
X149622359Y-121208800D01*
X149604963Y-121385427D01*
X149553443Y-121555266D01*
X149469778Y-121711791D01*
X149440448Y-121747529D01*
X149357186Y-121848986D01*
X149255729Y-121932248D01*
X149219991Y-121961578D01*
X149063466Y-122045243D01*
X148893627Y-122096763D01*
X148827443Y-122103281D01*
X148761260Y-122109800D01*
X148672740Y-122109800D01*
X148606557Y-122103281D01*
X148540373Y-122096763D01*
X148370534Y-122045243D01*
X148214009Y-121961578D01*
X148178271Y-121932248D01*
X148076814Y-121848986D01*
X147993552Y-121747529D01*
X147964222Y-121711791D01*
X147880557Y-121555266D01*
X147829037Y-121385427D01*
X147811641Y-121208800D01*
X147829037Y-121032173D01*
X147880557Y-120862334D01*
X147964222Y-120705809D01*
X147993552Y-120670071D01*
X148076814Y-120568614D01*
X148178271Y-120485352D01*
X148214009Y-120456022D01*
X148370534Y-120372357D01*
X148540373Y-120320837D01*
X148606557Y-120314319D01*
X148672740Y-120307800D01*
X148761260Y-120307800D01*
X148827443Y-120314319D01*
X148827443Y-120314319D01*
G37*
G36*
X153907443Y-120314319D02*
G01*
X153973627Y-120320837D01*
X154143466Y-120372357D01*
X154299991Y-120456022D01*
X154335729Y-120485352D01*
X154437186Y-120568614D01*
X154520448Y-120670071D01*
X154549778Y-120705809D01*
X154633443Y-120862334D01*
X154684963Y-121032173D01*
X154702359Y-121208800D01*
X154684963Y-121385427D01*
X154633443Y-121555266D01*
X154549778Y-121711791D01*
X154520448Y-121747529D01*
X154437186Y-121848986D01*
X154335729Y-121932248D01*
X154299991Y-121961578D01*
X154143466Y-122045243D01*
X153973627Y-122096763D01*
X153907443Y-122103281D01*
X153841260Y-122109800D01*
X153752740Y-122109800D01*
X153686557Y-122103281D01*
X153620373Y-122096763D01*
X153450534Y-122045243D01*
X153294009Y-121961578D01*
X153258271Y-121932248D01*
X153156814Y-121848986D01*
X153073552Y-121747529D01*
X153044222Y-121711791D01*
X152960557Y-121555266D01*
X152909037Y-121385427D01*
X152891641Y-121208800D01*
X152909037Y-121032173D01*
X152960557Y-120862334D01*
X153044222Y-120705809D01*
X153073552Y-120670071D01*
X153156814Y-120568614D01*
X153258271Y-120485352D01*
X153294009Y-120456022D01*
X153450534Y-120372357D01*
X153620373Y-120320837D01*
X153686557Y-120314319D01*
X153752740Y-120307800D01*
X153841260Y-120307800D01*
X153907443Y-120314319D01*
X153907443Y-120314319D01*
G37*
G36*
X156447443Y-120314319D02*
G01*
X156513627Y-120320837D01*
X156683466Y-120372357D01*
X156839991Y-120456022D01*
X156875729Y-120485352D01*
X156977186Y-120568614D01*
X157060448Y-120670071D01*
X157089778Y-120705809D01*
X157173443Y-120862334D01*
X157224963Y-121032173D01*
X157242359Y-121208800D01*
X157224963Y-121385427D01*
X157173443Y-121555266D01*
X157089778Y-121711791D01*
X157060448Y-121747529D01*
X156977186Y-121848986D01*
X156875729Y-121932248D01*
X156839991Y-121961578D01*
X156683466Y-122045243D01*
X156513627Y-122096763D01*
X156447443Y-122103281D01*
X156381260Y-122109800D01*
X156292740Y-122109800D01*
X156226557Y-122103281D01*
X156160373Y-122096763D01*
X155990534Y-122045243D01*
X155834009Y-121961578D01*
X155798271Y-121932248D01*
X155696814Y-121848986D01*
X155613552Y-121747529D01*
X155584222Y-121711791D01*
X155500557Y-121555266D01*
X155449037Y-121385427D01*
X155431641Y-121208800D01*
X155449037Y-121032173D01*
X155500557Y-120862334D01*
X155584222Y-120705809D01*
X155613552Y-120670071D01*
X155696814Y-120568614D01*
X155798271Y-120485352D01*
X155834009Y-120456022D01*
X155990534Y-120372357D01*
X156160373Y-120320837D01*
X156226557Y-120314319D01*
X156292740Y-120307800D01*
X156381260Y-120307800D01*
X156447443Y-120314319D01*
X156447443Y-120314319D01*
G37*
G36*
X158987443Y-120314319D02*
G01*
X159053627Y-120320837D01*
X159223466Y-120372357D01*
X159379991Y-120456022D01*
X159415729Y-120485352D01*
X159517186Y-120568614D01*
X159600448Y-120670071D01*
X159629778Y-120705809D01*
X159713443Y-120862334D01*
X159764963Y-121032173D01*
X159782359Y-121208800D01*
X159764963Y-121385427D01*
X159713443Y-121555266D01*
X159629778Y-121711791D01*
X159600448Y-121747529D01*
X159517186Y-121848986D01*
X159415729Y-121932248D01*
X159379991Y-121961578D01*
X159223466Y-122045243D01*
X159053627Y-122096763D01*
X158987443Y-122103281D01*
X158921260Y-122109800D01*
X158832740Y-122109800D01*
X158766557Y-122103281D01*
X158700373Y-122096763D01*
X158530534Y-122045243D01*
X158374009Y-121961578D01*
X158338271Y-121932248D01*
X158236814Y-121848986D01*
X158153552Y-121747529D01*
X158124222Y-121711791D01*
X158040557Y-121555266D01*
X157989037Y-121385427D01*
X157971641Y-121208800D01*
X157989037Y-121032173D01*
X158040557Y-120862334D01*
X158124222Y-120705809D01*
X158153552Y-120670071D01*
X158236814Y-120568614D01*
X158338271Y-120485352D01*
X158374009Y-120456022D01*
X158530534Y-120372357D01*
X158700373Y-120320837D01*
X158766557Y-120314319D01*
X158832740Y-120307800D01*
X158921260Y-120307800D01*
X158987443Y-120314319D01*
X158987443Y-120314319D01*
G37*
G36*
X125967443Y-120314319D02*
G01*
X126033627Y-120320837D01*
X126203466Y-120372357D01*
X126359991Y-120456022D01*
X126395729Y-120485352D01*
X126497186Y-120568614D01*
X126580448Y-120670071D01*
X126609778Y-120705809D01*
X126693443Y-120862334D01*
X126744963Y-121032173D01*
X126762359Y-121208800D01*
X126744963Y-121385427D01*
X126693443Y-121555266D01*
X126609778Y-121711791D01*
X126580448Y-121747529D01*
X126497186Y-121848986D01*
X126395729Y-121932248D01*
X126359991Y-121961578D01*
X126203466Y-122045243D01*
X126033627Y-122096763D01*
X125967443Y-122103281D01*
X125901260Y-122109800D01*
X125812740Y-122109800D01*
X125746557Y-122103281D01*
X125680373Y-122096763D01*
X125510534Y-122045243D01*
X125354009Y-121961578D01*
X125318271Y-121932248D01*
X125216814Y-121848986D01*
X125133552Y-121747529D01*
X125104222Y-121711791D01*
X125020557Y-121555266D01*
X124969037Y-121385427D01*
X124951641Y-121208800D01*
X124969037Y-121032173D01*
X125020557Y-120862334D01*
X125104222Y-120705809D01*
X125133552Y-120670071D01*
X125216814Y-120568614D01*
X125318271Y-120485352D01*
X125354009Y-120456022D01*
X125510534Y-120372357D01*
X125680373Y-120320837D01*
X125746557Y-120314319D01*
X125812740Y-120307800D01*
X125901260Y-120307800D01*
X125967443Y-120314319D01*
X125967443Y-120314319D01*
G37*
G36*
X123427443Y-120314319D02*
G01*
X123493627Y-120320837D01*
X123663466Y-120372357D01*
X123819991Y-120456022D01*
X123855729Y-120485352D01*
X123957186Y-120568614D01*
X124040448Y-120670071D01*
X124069778Y-120705809D01*
X124153443Y-120862334D01*
X124204963Y-121032173D01*
X124222359Y-121208800D01*
X124204963Y-121385427D01*
X124153443Y-121555266D01*
X124069778Y-121711791D01*
X124040448Y-121747529D01*
X123957186Y-121848986D01*
X123855729Y-121932248D01*
X123819991Y-121961578D01*
X123663466Y-122045243D01*
X123493627Y-122096763D01*
X123427443Y-122103281D01*
X123361260Y-122109800D01*
X123272740Y-122109800D01*
X123206557Y-122103281D01*
X123140373Y-122096763D01*
X122970534Y-122045243D01*
X122814009Y-121961578D01*
X122778271Y-121932248D01*
X122676814Y-121848986D01*
X122593552Y-121747529D01*
X122564222Y-121711791D01*
X122480557Y-121555266D01*
X122429037Y-121385427D01*
X122411641Y-121208800D01*
X122429037Y-121032173D01*
X122480557Y-120862334D01*
X122564222Y-120705809D01*
X122593552Y-120670071D01*
X122676814Y-120568614D01*
X122778271Y-120485352D01*
X122814009Y-120456022D01*
X122970534Y-120372357D01*
X123140373Y-120320837D01*
X123206557Y-120314319D01*
X123272740Y-120307800D01*
X123361260Y-120307800D01*
X123427443Y-120314319D01*
X123427443Y-120314319D01*
G37*
G36*
X120887443Y-120314319D02*
G01*
X120953627Y-120320837D01*
X121123466Y-120372357D01*
X121279991Y-120456022D01*
X121315729Y-120485352D01*
X121417186Y-120568614D01*
X121500448Y-120670071D01*
X121529778Y-120705809D01*
X121613443Y-120862334D01*
X121664963Y-121032173D01*
X121682359Y-121208800D01*
X121664963Y-121385427D01*
X121613443Y-121555266D01*
X121529778Y-121711791D01*
X121500448Y-121747529D01*
X121417186Y-121848986D01*
X121315729Y-121932248D01*
X121279991Y-121961578D01*
X121123466Y-122045243D01*
X120953627Y-122096763D01*
X120887443Y-122103281D01*
X120821260Y-122109800D01*
X120732740Y-122109800D01*
X120666557Y-122103281D01*
X120600373Y-122096763D01*
X120430534Y-122045243D01*
X120274009Y-121961578D01*
X120238271Y-121932248D01*
X120136814Y-121848986D01*
X120053552Y-121747529D01*
X120024222Y-121711791D01*
X119940557Y-121555266D01*
X119889037Y-121385427D01*
X119871641Y-121208800D01*
X119889037Y-121032173D01*
X119940557Y-120862334D01*
X120024222Y-120705809D01*
X120053552Y-120670071D01*
X120136814Y-120568614D01*
X120238271Y-120485352D01*
X120274009Y-120456022D01*
X120430534Y-120372357D01*
X120600373Y-120320837D01*
X120666557Y-120314319D01*
X120732740Y-120307800D01*
X120821260Y-120307800D01*
X120887443Y-120314319D01*
X120887443Y-120314319D01*
G37*
G36*
X119138000Y-122109800D02*
G01*
X117336000Y-122109800D01*
X117336000Y-120307800D01*
X119138000Y-120307800D01*
X119138000Y-122109800D01*
X119138000Y-122109800D01*
G37*
G36*
X128507443Y-120314319D02*
G01*
X128573627Y-120320837D01*
X128743466Y-120372357D01*
X128899991Y-120456022D01*
X128935729Y-120485352D01*
X129037186Y-120568614D01*
X129120448Y-120670071D01*
X129149778Y-120705809D01*
X129233443Y-120862334D01*
X129284963Y-121032173D01*
X129302359Y-121208800D01*
X129284963Y-121385427D01*
X129233443Y-121555266D01*
X129149778Y-121711791D01*
X129120448Y-121747529D01*
X129037186Y-121848986D01*
X128935729Y-121932248D01*
X128899991Y-121961578D01*
X128743466Y-122045243D01*
X128573627Y-122096763D01*
X128507443Y-122103281D01*
X128441260Y-122109800D01*
X128352740Y-122109800D01*
X128286557Y-122103281D01*
X128220373Y-122096763D01*
X128050534Y-122045243D01*
X127894009Y-121961578D01*
X127858271Y-121932248D01*
X127756814Y-121848986D01*
X127673552Y-121747529D01*
X127644222Y-121711791D01*
X127560557Y-121555266D01*
X127509037Y-121385427D01*
X127491641Y-121208800D01*
X127509037Y-121032173D01*
X127560557Y-120862334D01*
X127644222Y-120705809D01*
X127673552Y-120670071D01*
X127756814Y-120568614D01*
X127858271Y-120485352D01*
X127894009Y-120456022D01*
X128050534Y-120372357D01*
X128220373Y-120320837D01*
X128286557Y-120314319D01*
X128352740Y-120307800D01*
X128441260Y-120307800D01*
X128507443Y-120314319D01*
X128507443Y-120314319D01*
G37*
G36*
X151367443Y-120314319D02*
G01*
X151433627Y-120320837D01*
X151603466Y-120372357D01*
X151759991Y-120456022D01*
X151795729Y-120485352D01*
X151897186Y-120568614D01*
X151980448Y-120670071D01*
X152009778Y-120705809D01*
X152093443Y-120862334D01*
X152144963Y-121032173D01*
X152162359Y-121208800D01*
X152144963Y-121385427D01*
X152093443Y-121555266D01*
X152009778Y-121711791D01*
X151980448Y-121747529D01*
X151897186Y-121848986D01*
X151795729Y-121932248D01*
X151759991Y-121961578D01*
X151603466Y-122045243D01*
X151433627Y-122096763D01*
X151367443Y-122103281D01*
X151301260Y-122109800D01*
X151212740Y-122109800D01*
X151146557Y-122103281D01*
X151080373Y-122096763D01*
X150910534Y-122045243D01*
X150754009Y-121961578D01*
X150718271Y-121932248D01*
X150616814Y-121848986D01*
X150533552Y-121747529D01*
X150504222Y-121711791D01*
X150420557Y-121555266D01*
X150369037Y-121385427D01*
X150351641Y-121208800D01*
X150369037Y-121032173D01*
X150420557Y-120862334D01*
X150504222Y-120705809D01*
X150533552Y-120670071D01*
X150616814Y-120568614D01*
X150718271Y-120485352D01*
X150754009Y-120456022D01*
X150910534Y-120372357D01*
X151080373Y-120320837D01*
X151146557Y-120314319D01*
X151212740Y-120307800D01*
X151301260Y-120307800D01*
X151367443Y-120314319D01*
X151367443Y-120314319D01*
G37*
G36*
X177204642Y-110801442D02*
G01*
X177352601Y-110862729D01*
X177485755Y-110951699D01*
X177599001Y-111064945D01*
X177687971Y-111198099D01*
X177749258Y-111346058D01*
X177780500Y-111503125D01*
X177780500Y-111663275D01*
X177749258Y-111820342D01*
X177687971Y-111968301D01*
X177599001Y-112101455D01*
X177485755Y-112214701D01*
X177352601Y-112303671D01*
X177204642Y-112364958D01*
X177047575Y-112396200D01*
X176887425Y-112396200D01*
X176730358Y-112364958D01*
X176582399Y-112303671D01*
X176449245Y-112214701D01*
X176335999Y-112101455D01*
X176247029Y-111968301D01*
X176185742Y-111820342D01*
X176154500Y-111663275D01*
X176154500Y-111503125D01*
X176185742Y-111346058D01*
X176247029Y-111198099D01*
X176335999Y-111064945D01*
X176449245Y-110951699D01*
X176582399Y-110862729D01*
X176730358Y-110801442D01*
X176887425Y-110770200D01*
X177047575Y-110770200D01*
X177204642Y-110801442D01*
X177204642Y-110801442D01*
G37*
G36*
X185864642Y-110801442D02*
G01*
X186012601Y-110862729D01*
X186145755Y-110951699D01*
X186259001Y-111064945D01*
X186347971Y-111198099D01*
X186409258Y-111346058D01*
X186440500Y-111503125D01*
X186440500Y-111663275D01*
X186409258Y-111820342D01*
X186347971Y-111968301D01*
X186259001Y-112101455D01*
X186145755Y-112214701D01*
X186012601Y-112303671D01*
X185864642Y-112364958D01*
X185707575Y-112396200D01*
X185547425Y-112396200D01*
X185390358Y-112364958D01*
X185242399Y-112303671D01*
X185109245Y-112214701D01*
X184995999Y-112101455D01*
X184907029Y-111968301D01*
X184845742Y-111820342D01*
X184814500Y-111663275D01*
X184814500Y-111503125D01*
X184845742Y-111346058D01*
X184907029Y-111198099D01*
X184995999Y-111064945D01*
X185109245Y-110951699D01*
X185242399Y-110862729D01*
X185390358Y-110801442D01*
X185547425Y-110770200D01*
X185707575Y-110770200D01*
X185864642Y-110801442D01*
X185864642Y-110801442D01*
G37*
G36*
X123864642Y-110801442D02*
G01*
X124012601Y-110862729D01*
X124145755Y-110951699D01*
X124259001Y-111064945D01*
X124347971Y-111198099D01*
X124409258Y-111346058D01*
X124440500Y-111503125D01*
X124440500Y-111663275D01*
X124409258Y-111820342D01*
X124347971Y-111968301D01*
X124259001Y-112101455D01*
X124145755Y-112214701D01*
X124012601Y-112303671D01*
X123864642Y-112364958D01*
X123707575Y-112396200D01*
X123547425Y-112396200D01*
X123390358Y-112364958D01*
X123242399Y-112303671D01*
X123109245Y-112214701D01*
X122995999Y-112101455D01*
X122907029Y-111968301D01*
X122845742Y-111820342D01*
X122814500Y-111663275D01*
X122814500Y-111503125D01*
X122845742Y-111346058D01*
X122907029Y-111198099D01*
X122995999Y-111064945D01*
X123109245Y-110951699D01*
X123242399Y-110862729D01*
X123390358Y-110801442D01*
X123547425Y-110770200D01*
X123707575Y-110770200D01*
X123864642Y-110801442D01*
X123864642Y-110801442D01*
G37*
G36*
X159194642Y-110801442D02*
G01*
X159342601Y-110862729D01*
X159475755Y-110951699D01*
X159589001Y-111064945D01*
X159677971Y-111198099D01*
X159739258Y-111346058D01*
X159770500Y-111503125D01*
X159770500Y-111663275D01*
X159739258Y-111820342D01*
X159677971Y-111968301D01*
X159589001Y-112101455D01*
X159475755Y-112214701D01*
X159342601Y-112303671D01*
X159194642Y-112364958D01*
X159037575Y-112396200D01*
X158877425Y-112396200D01*
X158720358Y-112364958D01*
X158572399Y-112303671D01*
X158439245Y-112214701D01*
X158325999Y-112101455D01*
X158237029Y-111968301D01*
X158175742Y-111820342D01*
X158144500Y-111663275D01*
X158144500Y-111503125D01*
X158175742Y-111346058D01*
X158237029Y-111198099D01*
X158325999Y-111064945D01*
X158439245Y-110951699D01*
X158572399Y-110862729D01*
X158720358Y-110801442D01*
X158877425Y-110770200D01*
X159037575Y-110770200D01*
X159194642Y-110801442D01*
X159194642Y-110801442D01*
G37*
G36*
X132524642Y-110801442D02*
G01*
X132672601Y-110862729D01*
X132805755Y-110951699D01*
X132919001Y-111064945D01*
X133007971Y-111198099D01*
X133069258Y-111346058D01*
X133100500Y-111503125D01*
X133100500Y-111663275D01*
X133069258Y-111820342D01*
X133007971Y-111968301D01*
X132919001Y-112101455D01*
X132805755Y-112214701D01*
X132672601Y-112303671D01*
X132524642Y-112364958D01*
X132367575Y-112396200D01*
X132207425Y-112396200D01*
X132050358Y-112364958D01*
X131902399Y-112303671D01*
X131769245Y-112214701D01*
X131655999Y-112101455D01*
X131567029Y-111968301D01*
X131505742Y-111820342D01*
X131474500Y-111663275D01*
X131474500Y-111503125D01*
X131505742Y-111346058D01*
X131567029Y-111198099D01*
X131655999Y-111064945D01*
X131769245Y-110951699D01*
X131902399Y-110862729D01*
X132050358Y-110801442D01*
X132207425Y-110770200D01*
X132367575Y-110770200D01*
X132524642Y-110801442D01*
X132524642Y-110801442D01*
G37*
G36*
X97194642Y-110801442D02*
G01*
X97342601Y-110862729D01*
X97475755Y-110951699D01*
X97589001Y-111064945D01*
X97677971Y-111198099D01*
X97739258Y-111346058D01*
X97770500Y-111503125D01*
X97770500Y-111663275D01*
X97739258Y-111820342D01*
X97677971Y-111968301D01*
X97589001Y-112101455D01*
X97475755Y-112214701D01*
X97342601Y-112303671D01*
X97194642Y-112364958D01*
X97037575Y-112396200D01*
X96877425Y-112396200D01*
X96720358Y-112364958D01*
X96572399Y-112303671D01*
X96439245Y-112214701D01*
X96325999Y-112101455D01*
X96237029Y-111968301D01*
X96175742Y-111820342D01*
X96144500Y-111663275D01*
X96144500Y-111503125D01*
X96175742Y-111346058D01*
X96237029Y-111198099D01*
X96325999Y-111064945D01*
X96439245Y-110951699D01*
X96572399Y-110862729D01*
X96720358Y-110801442D01*
X96877425Y-110770200D01*
X97037575Y-110770200D01*
X97194642Y-110801442D01*
X97194642Y-110801442D01*
G37*
G36*
X105854642Y-110801442D02*
G01*
X106002601Y-110862729D01*
X106135755Y-110951699D01*
X106249001Y-111064945D01*
X106337971Y-111198099D01*
X106399258Y-111346058D01*
X106430500Y-111503125D01*
X106430500Y-111663275D01*
X106399258Y-111820342D01*
X106337971Y-111968301D01*
X106249001Y-112101455D01*
X106135755Y-112214701D01*
X106002601Y-112303671D01*
X105854642Y-112364958D01*
X105697575Y-112396200D01*
X105537425Y-112396200D01*
X105380358Y-112364958D01*
X105232399Y-112303671D01*
X105099245Y-112214701D01*
X104985999Y-112101455D01*
X104897029Y-111968301D01*
X104835742Y-111820342D01*
X104804500Y-111663275D01*
X104804500Y-111503125D01*
X104835742Y-111346058D01*
X104897029Y-111198099D01*
X104985999Y-111064945D01*
X105099245Y-110951699D01*
X105232399Y-110862729D01*
X105380358Y-110801442D01*
X105537425Y-110770200D01*
X105697575Y-110770200D01*
X105854642Y-110801442D01*
X105854642Y-110801442D01*
G37*
G36*
X150534642Y-110801442D02*
G01*
X150682601Y-110862729D01*
X150815755Y-110951699D01*
X150929001Y-111064945D01*
X151017971Y-111198099D01*
X151079258Y-111346058D01*
X151110500Y-111503125D01*
X151110500Y-111663275D01*
X151079258Y-111820342D01*
X151017971Y-111968301D01*
X150929001Y-112101455D01*
X150815755Y-112214701D01*
X150682601Y-112303671D01*
X150534642Y-112364958D01*
X150377575Y-112396200D01*
X150217425Y-112396200D01*
X150060358Y-112364958D01*
X149912399Y-112303671D01*
X149779245Y-112214701D01*
X149665999Y-112101455D01*
X149577029Y-111968301D01*
X149515742Y-111820342D01*
X149484500Y-111663275D01*
X149484500Y-111503125D01*
X149515742Y-111346058D01*
X149577029Y-111198099D01*
X149665999Y-111064945D01*
X149779245Y-110951699D01*
X149912399Y-110862729D01*
X150060358Y-110801442D01*
X150217425Y-110770200D01*
X150377575Y-110770200D01*
X150534642Y-110801442D01*
X150534642Y-110801442D01*
G37*
G36*
X103010828Y-110302365D02*
G01*
X103049498Y-110314096D01*
X103085137Y-110333146D01*
X103116377Y-110358783D01*
X103142014Y-110390023D01*
X103161064Y-110425662D01*
X103172795Y-110464332D01*
X103177360Y-110510688D01*
X103177360Y-111586912D01*
X103172795Y-111633268D01*
X103161064Y-111671938D01*
X103142014Y-111707577D01*
X103116377Y-111738817D01*
X103085137Y-111764454D01*
X103049498Y-111783504D01*
X103010828Y-111795235D01*
X102964472Y-111799800D01*
X102313248Y-111799800D01*
X102266892Y-111795235D01*
X102228222Y-111783504D01*
X102192583Y-111764454D01*
X102161343Y-111738817D01*
X102135706Y-111707577D01*
X102116656Y-111671938D01*
X102104925Y-111633268D01*
X102100360Y-111586912D01*
X102100360Y-110510688D01*
X102104925Y-110464332D01*
X102116656Y-110425662D01*
X102135706Y-110390023D01*
X102161343Y-110358783D01*
X102192583Y-110333146D01*
X102228222Y-110314096D01*
X102266892Y-110302365D01*
X102313248Y-110297800D01*
X102964472Y-110297800D01*
X103010828Y-110302365D01*
X103010828Y-110302365D01*
G37*
G36*
X101135828Y-110302365D02*
G01*
X101174498Y-110314096D01*
X101210137Y-110333146D01*
X101241377Y-110358783D01*
X101267014Y-110390023D01*
X101286064Y-110425662D01*
X101297795Y-110464332D01*
X101302360Y-110510688D01*
X101302360Y-111586912D01*
X101297795Y-111633268D01*
X101286064Y-111671938D01*
X101267014Y-111707577D01*
X101241377Y-111738817D01*
X101210137Y-111764454D01*
X101174498Y-111783504D01*
X101135828Y-111795235D01*
X101089472Y-111799800D01*
X100438248Y-111799800D01*
X100391892Y-111795235D01*
X100353222Y-111783504D01*
X100317583Y-111764454D01*
X100286343Y-111738817D01*
X100260706Y-111707577D01*
X100241656Y-111671938D01*
X100229925Y-111633268D01*
X100225360Y-111586912D01*
X100225360Y-110510688D01*
X100229925Y-110464332D01*
X100241656Y-110425662D01*
X100260706Y-110390023D01*
X100286343Y-110358783D01*
X100317583Y-110333146D01*
X100353222Y-110314096D01*
X100391892Y-110302365D01*
X100438248Y-110297800D01*
X101089472Y-110297800D01*
X101135828Y-110302365D01*
X101135828Y-110302365D01*
G37*
G36*
X127958468Y-109997565D02*
G01*
X127997138Y-110009296D01*
X128032777Y-110028346D01*
X128064017Y-110053983D01*
X128089654Y-110085223D01*
X128108704Y-110120862D01*
X128120435Y-110159532D01*
X128125000Y-110205888D01*
X128125000Y-111282112D01*
X128120435Y-111328468D01*
X128108704Y-111367138D01*
X128089654Y-111402777D01*
X128064017Y-111434017D01*
X128032777Y-111459654D01*
X127997138Y-111478704D01*
X127958468Y-111490435D01*
X127912112Y-111495000D01*
X127260888Y-111495000D01*
X127214532Y-111490435D01*
X127175862Y-111478704D01*
X127140223Y-111459654D01*
X127108983Y-111434017D01*
X127083346Y-111402777D01*
X127064296Y-111367138D01*
X127052565Y-111328468D01*
X127048000Y-111282112D01*
X127048000Y-110205888D01*
X127052565Y-110159532D01*
X127064296Y-110120862D01*
X127083346Y-110085223D01*
X127108983Y-110053983D01*
X127140223Y-110028346D01*
X127175862Y-110009296D01*
X127214532Y-109997565D01*
X127260888Y-109993000D01*
X127912112Y-109993000D01*
X127958468Y-109997565D01*
X127958468Y-109997565D01*
G37*
G36*
X129833468Y-109997565D02*
G01*
X129872138Y-110009296D01*
X129907777Y-110028346D01*
X129939017Y-110053983D01*
X129964654Y-110085223D01*
X129983704Y-110120862D01*
X129995435Y-110159532D01*
X130000000Y-110205888D01*
X130000000Y-111282112D01*
X129995435Y-111328468D01*
X129983704Y-111367138D01*
X129964654Y-111402777D01*
X129939017Y-111434017D01*
X129907777Y-111459654D01*
X129872138Y-111478704D01*
X129833468Y-111490435D01*
X129787112Y-111495000D01*
X129135888Y-111495000D01*
X129089532Y-111490435D01*
X129050862Y-111478704D01*
X129015223Y-111459654D01*
X128983983Y-111434017D01*
X128958346Y-111402777D01*
X128939296Y-111367138D01*
X128927565Y-111328468D01*
X128923000Y-111282112D01*
X128923000Y-110205888D01*
X128927565Y-110159532D01*
X128939296Y-110120862D01*
X128958346Y-110085223D01*
X128983983Y-110053983D01*
X129015223Y-110028346D01*
X129050862Y-110009296D01*
X129089532Y-109997565D01*
X129135888Y-109993000D01*
X129787112Y-109993000D01*
X129833468Y-109997565D01*
X129833468Y-109997565D01*
G37*
G36*
X154198968Y-109743565D02*
G01*
X154237638Y-109755296D01*
X154273277Y-109774346D01*
X154304517Y-109799983D01*
X154330154Y-109831223D01*
X154349204Y-109866862D01*
X154360935Y-109905532D01*
X154365500Y-109951888D01*
X154365500Y-111028112D01*
X154360935Y-111074468D01*
X154349204Y-111113138D01*
X154330154Y-111148777D01*
X154304517Y-111180017D01*
X154273277Y-111205654D01*
X154237638Y-111224704D01*
X154198968Y-111236435D01*
X154152612Y-111241000D01*
X153501388Y-111241000D01*
X153455032Y-111236435D01*
X153416362Y-111224704D01*
X153380723Y-111205654D01*
X153349483Y-111180017D01*
X153323846Y-111148777D01*
X153304796Y-111113138D01*
X153293065Y-111074468D01*
X153288500Y-111028112D01*
X153288500Y-109951888D01*
X153293065Y-109905532D01*
X153304796Y-109866862D01*
X153323846Y-109831223D01*
X153349483Y-109799983D01*
X153380723Y-109774346D01*
X153416362Y-109755296D01*
X153455032Y-109743565D01*
X153501388Y-109739000D01*
X154152612Y-109739000D01*
X154198968Y-109743565D01*
X154198968Y-109743565D01*
G37*
G36*
X156073968Y-109743565D02*
G01*
X156112638Y-109755296D01*
X156148277Y-109774346D01*
X156179517Y-109799983D01*
X156205154Y-109831223D01*
X156224204Y-109866862D01*
X156235935Y-109905532D01*
X156240500Y-109951888D01*
X156240500Y-111028112D01*
X156235935Y-111074468D01*
X156224204Y-111113138D01*
X156205154Y-111148777D01*
X156179517Y-111180017D01*
X156148277Y-111205654D01*
X156112638Y-111224704D01*
X156073968Y-111236435D01*
X156027612Y-111241000D01*
X155376388Y-111241000D01*
X155330032Y-111236435D01*
X155291362Y-111224704D01*
X155255723Y-111205654D01*
X155224483Y-111180017D01*
X155198846Y-111148777D01*
X155179796Y-111113138D01*
X155168065Y-111074468D01*
X155163500Y-111028112D01*
X155163500Y-109951888D01*
X155168065Y-109905532D01*
X155179796Y-109866862D01*
X155198846Y-109831223D01*
X155224483Y-109799983D01*
X155255723Y-109774346D01*
X155291362Y-109755296D01*
X155330032Y-109743565D01*
X155376388Y-109739000D01*
X156027612Y-109739000D01*
X156073968Y-109743565D01*
X156073968Y-109743565D01*
G37*
G36*
X180790468Y-109235565D02*
G01*
X180829138Y-109247296D01*
X180864777Y-109266346D01*
X180896017Y-109291983D01*
X180921654Y-109323223D01*
X180940704Y-109358862D01*
X180952435Y-109397532D01*
X180957000Y-109443888D01*
X180957000Y-110520112D01*
X180952435Y-110566468D01*
X180940704Y-110605138D01*
X180921654Y-110640777D01*
X180896017Y-110672017D01*
X180864777Y-110697654D01*
X180829138Y-110716704D01*
X180790468Y-110728435D01*
X180744112Y-110733000D01*
X180092888Y-110733000D01*
X180046532Y-110728435D01*
X180007862Y-110716704D01*
X179972223Y-110697654D01*
X179940983Y-110672017D01*
X179915346Y-110640777D01*
X179896296Y-110605138D01*
X179884565Y-110566468D01*
X179880000Y-110520112D01*
X179880000Y-109443888D01*
X179884565Y-109397532D01*
X179896296Y-109358862D01*
X179915346Y-109323223D01*
X179940983Y-109291983D01*
X179972223Y-109266346D01*
X180007862Y-109247296D01*
X180046532Y-109235565D01*
X180092888Y-109231000D01*
X180744112Y-109231000D01*
X180790468Y-109235565D01*
X180790468Y-109235565D01*
G37*
G36*
X182665468Y-109235565D02*
G01*
X182704138Y-109247296D01*
X182739777Y-109266346D01*
X182771017Y-109291983D01*
X182796654Y-109323223D01*
X182815704Y-109358862D01*
X182827435Y-109397532D01*
X182832000Y-109443888D01*
X182832000Y-110520112D01*
X182827435Y-110566468D01*
X182815704Y-110605138D01*
X182796654Y-110640777D01*
X182771017Y-110672017D01*
X182739777Y-110697654D01*
X182704138Y-110716704D01*
X182665468Y-110728435D01*
X182619112Y-110733000D01*
X181967888Y-110733000D01*
X181921532Y-110728435D01*
X181882862Y-110716704D01*
X181847223Y-110697654D01*
X181815983Y-110672017D01*
X181790346Y-110640777D01*
X181771296Y-110605138D01*
X181759565Y-110566468D01*
X181755000Y-110520112D01*
X181755000Y-109443888D01*
X181759565Y-109397532D01*
X181771296Y-109358862D01*
X181790346Y-109323223D01*
X181815983Y-109291983D01*
X181847223Y-109266346D01*
X181882862Y-109247296D01*
X181921532Y-109235565D01*
X181967888Y-109231000D01*
X182619112Y-109231000D01*
X182665468Y-109235565D01*
X182665468Y-109235565D01*
G37*
G36*
X153085867Y-107958004D02*
G01*
X153109292Y-107965110D01*
X153130889Y-107976654D01*
X153149814Y-107992186D01*
X153165346Y-108011111D01*
X153176890Y-108032708D01*
X153183996Y-108056133D01*
X153187000Y-108086638D01*
X153187000Y-108575362D01*
X153183996Y-108605867D01*
X153176890Y-108629292D01*
X153165346Y-108650889D01*
X153149814Y-108669814D01*
X153130889Y-108685346D01*
X153109292Y-108696890D01*
X153085867Y-108703996D01*
X153055362Y-108707000D01*
X151241638Y-108707000D01*
X151211133Y-108703996D01*
X151187708Y-108696890D01*
X151166111Y-108685346D01*
X151147186Y-108669814D01*
X151131654Y-108650889D01*
X151120110Y-108629292D01*
X151113004Y-108605867D01*
X151110000Y-108575362D01*
X151110000Y-108086638D01*
X151113004Y-108056133D01*
X151120110Y-108032708D01*
X151131654Y-108011111D01*
X151147186Y-107992186D01*
X151166111Y-107976654D01*
X151187708Y-107965110D01*
X151211133Y-107958004D01*
X151241638Y-107955000D01*
X153055362Y-107955000D01*
X153085867Y-107958004D01*
X153085867Y-107958004D01*
G37*
G36*
X158160867Y-107958004D02*
G01*
X158184292Y-107965110D01*
X158205889Y-107976654D01*
X158224814Y-107992186D01*
X158240346Y-108011111D01*
X158251890Y-108032708D01*
X158258996Y-108056133D01*
X158262000Y-108086638D01*
X158262000Y-108575362D01*
X158258996Y-108605867D01*
X158251890Y-108629292D01*
X158240346Y-108650889D01*
X158224814Y-108669814D01*
X158205889Y-108685346D01*
X158184292Y-108696890D01*
X158160867Y-108703996D01*
X158130362Y-108707000D01*
X156316638Y-108707000D01*
X156286133Y-108703996D01*
X156262708Y-108696890D01*
X156241111Y-108685346D01*
X156222186Y-108669814D01*
X156206654Y-108650889D01*
X156195110Y-108629292D01*
X156188004Y-108605867D01*
X156185000Y-108575362D01*
X156185000Y-108086638D01*
X156188004Y-108056133D01*
X156195110Y-108032708D01*
X156206654Y-108011111D01*
X156222186Y-107992186D01*
X156241111Y-107976654D01*
X156262708Y-107965110D01*
X156286133Y-107958004D01*
X156316638Y-107955000D01*
X158130362Y-107955000D01*
X158160867Y-107958004D01*
X158160867Y-107958004D01*
G37*
G36*
X100744087Y-107924984D02*
G01*
X100767512Y-107932090D01*
X100789109Y-107943634D01*
X100808034Y-107959166D01*
X100823566Y-107978091D01*
X100835110Y-107999688D01*
X100842216Y-108023113D01*
X100845220Y-108053618D01*
X100845220Y-108542342D01*
X100842216Y-108572847D01*
X100835110Y-108596272D01*
X100823566Y-108617869D01*
X100808034Y-108636794D01*
X100789109Y-108652326D01*
X100767512Y-108663870D01*
X100744087Y-108670976D01*
X100713582Y-108673980D01*
X98899858Y-108673980D01*
X98869353Y-108670976D01*
X98845928Y-108663870D01*
X98824331Y-108652326D01*
X98805406Y-108636794D01*
X98789874Y-108617869D01*
X98778330Y-108596272D01*
X98771224Y-108572847D01*
X98768220Y-108542342D01*
X98768220Y-108053618D01*
X98771224Y-108023113D01*
X98778330Y-107999688D01*
X98789874Y-107978091D01*
X98805406Y-107959166D01*
X98824331Y-107943634D01*
X98845928Y-107932090D01*
X98869353Y-107924984D01*
X98899858Y-107921980D01*
X100713582Y-107921980D01*
X100744087Y-107924984D01*
X100744087Y-107924984D01*
G37*
G36*
X105819087Y-107924984D02*
G01*
X105842512Y-107932090D01*
X105864109Y-107943634D01*
X105883034Y-107959166D01*
X105898566Y-107978091D01*
X105910110Y-107999688D01*
X105917216Y-108023113D01*
X105920220Y-108053618D01*
X105920220Y-108542342D01*
X105917216Y-108572847D01*
X105910110Y-108596272D01*
X105898566Y-108617869D01*
X105883034Y-108636794D01*
X105864109Y-108652326D01*
X105842512Y-108663870D01*
X105819087Y-108670976D01*
X105788582Y-108673980D01*
X103974858Y-108673980D01*
X103944353Y-108670976D01*
X103920928Y-108663870D01*
X103899331Y-108652326D01*
X103880406Y-108636794D01*
X103864874Y-108617869D01*
X103853330Y-108596272D01*
X103846224Y-108572847D01*
X103843220Y-108542342D01*
X103843220Y-108053618D01*
X103846224Y-108023113D01*
X103853330Y-107999688D01*
X103864874Y-107978091D01*
X103880406Y-107959166D01*
X103899331Y-107943634D01*
X103920928Y-107932090D01*
X103944353Y-107924984D01*
X103974858Y-107921980D01*
X105788582Y-107921980D01*
X105819087Y-107924984D01*
X105819087Y-107924984D01*
G37*
G36*
X132755787Y-107571924D02*
G01*
X132779212Y-107579030D01*
X132800809Y-107590574D01*
X132819734Y-107606106D01*
X132835266Y-107625031D01*
X132846810Y-107646628D01*
X132853916Y-107670053D01*
X132856920Y-107700558D01*
X132856920Y-108189282D01*
X132853916Y-108219787D01*
X132846810Y-108243212D01*
X132835266Y-108264809D01*
X132819734Y-108283734D01*
X132800809Y-108299266D01*
X132779212Y-108310810D01*
X132755787Y-108317916D01*
X132725282Y-108320920D01*
X130911558Y-108320920D01*
X130881053Y-108317916D01*
X130857628Y-108310810D01*
X130836031Y-108299266D01*
X130817106Y-108283734D01*
X130801574Y-108264809D01*
X130790030Y-108243212D01*
X130782924Y-108219787D01*
X130779920Y-108189282D01*
X130779920Y-107700558D01*
X130782924Y-107670053D01*
X130790030Y-107646628D01*
X130801574Y-107625031D01*
X130817106Y-107606106D01*
X130836031Y-107590574D01*
X130857628Y-107579030D01*
X130881053Y-107571924D01*
X130911558Y-107568920D01*
X132725282Y-107568920D01*
X132755787Y-107571924D01*
X132755787Y-107571924D01*
G37*
G36*
X127680787Y-107571924D02*
G01*
X127704212Y-107579030D01*
X127725809Y-107590574D01*
X127744734Y-107606106D01*
X127760266Y-107625031D01*
X127771810Y-107646628D01*
X127778916Y-107670053D01*
X127781920Y-107700558D01*
X127781920Y-108189282D01*
X127778916Y-108219787D01*
X127771810Y-108243212D01*
X127760266Y-108264809D01*
X127744734Y-108283734D01*
X127725809Y-108299266D01*
X127704212Y-108310810D01*
X127680787Y-108317916D01*
X127650282Y-108320920D01*
X125836558Y-108320920D01*
X125806053Y-108317916D01*
X125782628Y-108310810D01*
X125761031Y-108299266D01*
X125742106Y-108283734D01*
X125726574Y-108264809D01*
X125715030Y-108243212D01*
X125707924Y-108219787D01*
X125704920Y-108189282D01*
X125704920Y-107700558D01*
X125707924Y-107670053D01*
X125715030Y-107646628D01*
X125726574Y-107625031D01*
X125742106Y-107606106D01*
X125761031Y-107590574D01*
X125782628Y-107579030D01*
X125806053Y-107571924D01*
X125836558Y-107568920D01*
X127650282Y-107568920D01*
X127680787Y-107571924D01*
X127680787Y-107571924D01*
G37*
G36*
X184957867Y-107196004D02*
G01*
X184981292Y-107203110D01*
X185002889Y-107214654D01*
X185021814Y-107230186D01*
X185037346Y-107249111D01*
X185048890Y-107270708D01*
X185055996Y-107294133D01*
X185059000Y-107324638D01*
X185059000Y-107813362D01*
X185055996Y-107843867D01*
X185048890Y-107867292D01*
X185037346Y-107888889D01*
X185021814Y-107907814D01*
X185002889Y-107923346D01*
X184981292Y-107934890D01*
X184957867Y-107941996D01*
X184927362Y-107945000D01*
X183113638Y-107945000D01*
X183083133Y-107941996D01*
X183059708Y-107934890D01*
X183038111Y-107923346D01*
X183019186Y-107907814D01*
X183003654Y-107888889D01*
X182992110Y-107867292D01*
X182985004Y-107843867D01*
X182982000Y-107813362D01*
X182982000Y-107324638D01*
X182985004Y-107294133D01*
X182992110Y-107270708D01*
X183003654Y-107249111D01*
X183019186Y-107230186D01*
X183038111Y-107214654D01*
X183059708Y-107203110D01*
X183083133Y-107196004D01*
X183113638Y-107193000D01*
X184927362Y-107193000D01*
X184957867Y-107196004D01*
X184957867Y-107196004D01*
G37*
G36*
X179882867Y-107196004D02*
G01*
X179906292Y-107203110D01*
X179927889Y-107214654D01*
X179946814Y-107230186D01*
X179962346Y-107249111D01*
X179973890Y-107270708D01*
X179980996Y-107294133D01*
X179984000Y-107324638D01*
X179984000Y-107813362D01*
X179980996Y-107843867D01*
X179973890Y-107867292D01*
X179962346Y-107888889D01*
X179946814Y-107907814D01*
X179927889Y-107923346D01*
X179906292Y-107934890D01*
X179882867Y-107941996D01*
X179852362Y-107945000D01*
X178038638Y-107945000D01*
X178008133Y-107941996D01*
X177984708Y-107934890D01*
X177963111Y-107923346D01*
X177944186Y-107907814D01*
X177928654Y-107888889D01*
X177917110Y-107867292D01*
X177910004Y-107843867D01*
X177907000Y-107813362D01*
X177907000Y-107324638D01*
X177910004Y-107294133D01*
X177917110Y-107270708D01*
X177928654Y-107249111D01*
X177944186Y-107230186D01*
X177963111Y-107214654D01*
X177984708Y-107203110D01*
X178008133Y-107196004D01*
X178038638Y-107193000D01*
X179852362Y-107193000D01*
X179882867Y-107196004D01*
X179882867Y-107196004D01*
G37*
G36*
X150317468Y-106829565D02*
G01*
X150356138Y-106841296D01*
X150391777Y-106860346D01*
X150423017Y-106885983D01*
X150448654Y-106917223D01*
X150467704Y-106952862D01*
X150479435Y-106991532D01*
X150484000Y-107037888D01*
X150484000Y-107689112D01*
X150479435Y-107735468D01*
X150467704Y-107774138D01*
X150448654Y-107809777D01*
X150423017Y-107841017D01*
X150391777Y-107866654D01*
X150356138Y-107885704D01*
X150317468Y-107897435D01*
X150271112Y-107902000D01*
X149194888Y-107902000D01*
X149148532Y-107897435D01*
X149109862Y-107885704D01*
X149074223Y-107866654D01*
X149042983Y-107841017D01*
X149017346Y-107809777D01*
X148998296Y-107774138D01*
X148986565Y-107735468D01*
X148982000Y-107689112D01*
X148982000Y-107037888D01*
X148986565Y-106991532D01*
X148998296Y-106952862D01*
X149017346Y-106917223D01*
X149042983Y-106885983D01*
X149074223Y-106860346D01*
X149109862Y-106841296D01*
X149148532Y-106829565D01*
X149194888Y-106825000D01*
X150271112Y-106825000D01*
X150317468Y-106829565D01*
X150317468Y-106829565D01*
G37*
G36*
X97594688Y-106796545D02*
G01*
X97633358Y-106808276D01*
X97668997Y-106827326D01*
X97700237Y-106852963D01*
X97725874Y-106884203D01*
X97744924Y-106919842D01*
X97756655Y-106958512D01*
X97761220Y-107004868D01*
X97761220Y-107656092D01*
X97756655Y-107702448D01*
X97744924Y-107741118D01*
X97725874Y-107776757D01*
X97700237Y-107807997D01*
X97668997Y-107833634D01*
X97633358Y-107852684D01*
X97594688Y-107864415D01*
X97548332Y-107868980D01*
X96472108Y-107868980D01*
X96425752Y-107864415D01*
X96387082Y-107852684D01*
X96351443Y-107833634D01*
X96320203Y-107807997D01*
X96294566Y-107776757D01*
X96275516Y-107741118D01*
X96263785Y-107702448D01*
X96259220Y-107656092D01*
X96259220Y-107004868D01*
X96263785Y-106958512D01*
X96275516Y-106919842D01*
X96294566Y-106884203D01*
X96320203Y-106852963D01*
X96351443Y-106827326D01*
X96387082Y-106808276D01*
X96425752Y-106796545D01*
X96472108Y-106791980D01*
X97548332Y-106791980D01*
X97594688Y-106796545D01*
X97594688Y-106796545D01*
G37*
G36*
X124277388Y-106364985D02*
G01*
X124316058Y-106376716D01*
X124351697Y-106395766D01*
X124382937Y-106421403D01*
X124408574Y-106452643D01*
X124427624Y-106488282D01*
X124439355Y-106526952D01*
X124443920Y-106573308D01*
X124443920Y-107224532D01*
X124439355Y-107270888D01*
X124427624Y-107309558D01*
X124408574Y-107345197D01*
X124382937Y-107376437D01*
X124351697Y-107402074D01*
X124316058Y-107421124D01*
X124277388Y-107432855D01*
X124231032Y-107437420D01*
X123154808Y-107437420D01*
X123108452Y-107432855D01*
X123069782Y-107421124D01*
X123034143Y-107402074D01*
X123002903Y-107376437D01*
X122977266Y-107345197D01*
X122958216Y-107309558D01*
X122946485Y-107270888D01*
X122941920Y-107224532D01*
X122941920Y-106573308D01*
X122946485Y-106526952D01*
X122958216Y-106488282D01*
X122977266Y-106452643D01*
X123002903Y-106421403D01*
X123034143Y-106395766D01*
X123069782Y-106376716D01*
X123108452Y-106364985D01*
X123154808Y-106360420D01*
X124231032Y-106360420D01*
X124277388Y-106364985D01*
X124277388Y-106364985D01*
G37*
G36*
X158160867Y-106688004D02*
G01*
X158184292Y-106695110D01*
X158205889Y-106706654D01*
X158224814Y-106722186D01*
X158240346Y-106741111D01*
X158251890Y-106762708D01*
X158258996Y-106786133D01*
X158262000Y-106816638D01*
X158262000Y-107305362D01*
X158258996Y-107335867D01*
X158251890Y-107359292D01*
X158240346Y-107380889D01*
X158224814Y-107399814D01*
X158205889Y-107415346D01*
X158184292Y-107426890D01*
X158160867Y-107433996D01*
X158130362Y-107437000D01*
X156316638Y-107437000D01*
X156286133Y-107433996D01*
X156262708Y-107426890D01*
X156241111Y-107415346D01*
X156222186Y-107399814D01*
X156206654Y-107380889D01*
X156195110Y-107359292D01*
X156188004Y-107335867D01*
X156185000Y-107305362D01*
X156185000Y-106816638D01*
X156188004Y-106786133D01*
X156195110Y-106762708D01*
X156206654Y-106741111D01*
X156222186Y-106722186D01*
X156241111Y-106706654D01*
X156262708Y-106695110D01*
X156286133Y-106688004D01*
X156316638Y-106685000D01*
X158130362Y-106685000D01*
X158160867Y-106688004D01*
X158160867Y-106688004D01*
G37*
G36*
X153085867Y-106688004D02*
G01*
X153109292Y-106695110D01*
X153130889Y-106706654D01*
X153149814Y-106722186D01*
X153165346Y-106741111D01*
X153176890Y-106762708D01*
X153183996Y-106786133D01*
X153187000Y-106816638D01*
X153187000Y-107305362D01*
X153183996Y-107335867D01*
X153176890Y-107359292D01*
X153165346Y-107380889D01*
X153149814Y-107399814D01*
X153130889Y-107415346D01*
X153109292Y-107426890D01*
X153085867Y-107433996D01*
X153055362Y-107437000D01*
X151241638Y-107437000D01*
X151211133Y-107433996D01*
X151187708Y-107426890D01*
X151166111Y-107415346D01*
X151147186Y-107399814D01*
X151131654Y-107380889D01*
X151120110Y-107359292D01*
X151113004Y-107335867D01*
X151110000Y-107305362D01*
X151110000Y-106816638D01*
X151113004Y-106786133D01*
X151120110Y-106762708D01*
X151131654Y-106741111D01*
X151147186Y-106722186D01*
X151166111Y-106706654D01*
X151187708Y-106695110D01*
X151211133Y-106688004D01*
X151241638Y-106685000D01*
X153055362Y-106685000D01*
X153085867Y-106688004D01*
X153085867Y-106688004D01*
G37*
G36*
X100744087Y-106654984D02*
G01*
X100767512Y-106662090D01*
X100789109Y-106673634D01*
X100808034Y-106689166D01*
X100823566Y-106708091D01*
X100835110Y-106729688D01*
X100842216Y-106753113D01*
X100845220Y-106783618D01*
X100845220Y-107272342D01*
X100842216Y-107302847D01*
X100835110Y-107326272D01*
X100823566Y-107347869D01*
X100808034Y-107366794D01*
X100789109Y-107382326D01*
X100767512Y-107393870D01*
X100744087Y-107400976D01*
X100713582Y-107403980D01*
X98899858Y-107403980D01*
X98869353Y-107400976D01*
X98845928Y-107393870D01*
X98824331Y-107382326D01*
X98805406Y-107366794D01*
X98789874Y-107347869D01*
X98778330Y-107326272D01*
X98771224Y-107302847D01*
X98768220Y-107272342D01*
X98768220Y-106783618D01*
X98771224Y-106753113D01*
X98778330Y-106729688D01*
X98789874Y-106708091D01*
X98805406Y-106689166D01*
X98824331Y-106673634D01*
X98845928Y-106662090D01*
X98869353Y-106654984D01*
X98899858Y-106651980D01*
X100713582Y-106651980D01*
X100744087Y-106654984D01*
X100744087Y-106654984D01*
G37*
G36*
X105819087Y-106654984D02*
G01*
X105842512Y-106662090D01*
X105864109Y-106673634D01*
X105883034Y-106689166D01*
X105898566Y-106708091D01*
X105910110Y-106729688D01*
X105917216Y-106753113D01*
X105920220Y-106783618D01*
X105920220Y-107272342D01*
X105917216Y-107302847D01*
X105910110Y-107326272D01*
X105898566Y-107347869D01*
X105883034Y-107366794D01*
X105864109Y-107382326D01*
X105842512Y-107393870D01*
X105819087Y-107400976D01*
X105788582Y-107403980D01*
X103974858Y-107403980D01*
X103944353Y-107400976D01*
X103920928Y-107393870D01*
X103899331Y-107382326D01*
X103880406Y-107366794D01*
X103864874Y-107347869D01*
X103853330Y-107326272D01*
X103846224Y-107302847D01*
X103843220Y-107272342D01*
X103843220Y-106783618D01*
X103846224Y-106753113D01*
X103853330Y-106729688D01*
X103864874Y-106708091D01*
X103880406Y-106689166D01*
X103899331Y-106673634D01*
X103920928Y-106662090D01*
X103944353Y-106654984D01*
X103974858Y-106651980D01*
X105788582Y-106651980D01*
X105819087Y-106654984D01*
X105819087Y-106654984D01*
G37*
G36*
X127680787Y-106301924D02*
G01*
X127704212Y-106309030D01*
X127725809Y-106320574D01*
X127744734Y-106336106D01*
X127760266Y-106355031D01*
X127771810Y-106376628D01*
X127778916Y-106400053D01*
X127781920Y-106430558D01*
X127781920Y-106919282D01*
X127778916Y-106949787D01*
X127771810Y-106973212D01*
X127760266Y-106994809D01*
X127744734Y-107013734D01*
X127725809Y-107029266D01*
X127704212Y-107040810D01*
X127680787Y-107047916D01*
X127650282Y-107050920D01*
X125836558Y-107050920D01*
X125806053Y-107047916D01*
X125782628Y-107040810D01*
X125761031Y-107029266D01*
X125742106Y-107013734D01*
X125726574Y-106994809D01*
X125715030Y-106973212D01*
X125707924Y-106949787D01*
X125704920Y-106919282D01*
X125704920Y-106430558D01*
X125707924Y-106400053D01*
X125715030Y-106376628D01*
X125726574Y-106355031D01*
X125742106Y-106336106D01*
X125761031Y-106320574D01*
X125782628Y-106309030D01*
X125806053Y-106301924D01*
X125836558Y-106298920D01*
X127650282Y-106298920D01*
X127680787Y-106301924D01*
X127680787Y-106301924D01*
G37*
G36*
X132755787Y-106301924D02*
G01*
X132779212Y-106309030D01*
X132800809Y-106320574D01*
X132819734Y-106336106D01*
X132835266Y-106355031D01*
X132846810Y-106376628D01*
X132853916Y-106400053D01*
X132856920Y-106430558D01*
X132856920Y-106919282D01*
X132853916Y-106949787D01*
X132846810Y-106973212D01*
X132835266Y-106994809D01*
X132819734Y-107013734D01*
X132800809Y-107029266D01*
X132779212Y-107040810D01*
X132755787Y-107047916D01*
X132725282Y-107050920D01*
X130911558Y-107050920D01*
X130881053Y-107047916D01*
X130857628Y-107040810D01*
X130836031Y-107029266D01*
X130817106Y-107013734D01*
X130801574Y-106994809D01*
X130790030Y-106973212D01*
X130782924Y-106949787D01*
X130779920Y-106919282D01*
X130779920Y-106430558D01*
X130782924Y-106400053D01*
X130790030Y-106376628D01*
X130801574Y-106355031D01*
X130817106Y-106336106D01*
X130836031Y-106320574D01*
X130857628Y-106309030D01*
X130881053Y-106301924D01*
X130911558Y-106298920D01*
X132725282Y-106298920D01*
X132755787Y-106301924D01*
X132755787Y-106301924D01*
G37*
G36*
X176987468Y-105765065D02*
G01*
X177026138Y-105776796D01*
X177061777Y-105795846D01*
X177093017Y-105821483D01*
X177118654Y-105852723D01*
X177137704Y-105888362D01*
X177149435Y-105927032D01*
X177154000Y-105973388D01*
X177154000Y-106624612D01*
X177149435Y-106670968D01*
X177137704Y-106709638D01*
X177118654Y-106745277D01*
X177093017Y-106776517D01*
X177061777Y-106802154D01*
X177026138Y-106821204D01*
X176987468Y-106832935D01*
X176941112Y-106837500D01*
X175864888Y-106837500D01*
X175818532Y-106832935D01*
X175779862Y-106821204D01*
X175744223Y-106802154D01*
X175712983Y-106776517D01*
X175687346Y-106745277D01*
X175668296Y-106709638D01*
X175656565Y-106670968D01*
X175652000Y-106624612D01*
X175652000Y-105973388D01*
X175656565Y-105927032D01*
X175668296Y-105888362D01*
X175687346Y-105852723D01*
X175712983Y-105821483D01*
X175744223Y-105795846D01*
X175779862Y-105776796D01*
X175818532Y-105765065D01*
X175864888Y-105760500D01*
X176941112Y-105760500D01*
X176987468Y-105765065D01*
X176987468Y-105765065D01*
G37*
G36*
X179882867Y-105926004D02*
G01*
X179906292Y-105933110D01*
X179927889Y-105944654D01*
X179946814Y-105960186D01*
X179962346Y-105979111D01*
X179973890Y-106000708D01*
X179980996Y-106024133D01*
X179984000Y-106054638D01*
X179984000Y-106543362D01*
X179980996Y-106573867D01*
X179973890Y-106597292D01*
X179962346Y-106618889D01*
X179946814Y-106637814D01*
X179927889Y-106653346D01*
X179906292Y-106664890D01*
X179882867Y-106671996D01*
X179852362Y-106675000D01*
X178038638Y-106675000D01*
X178008133Y-106671996D01*
X177984708Y-106664890D01*
X177963111Y-106653346D01*
X177944186Y-106637814D01*
X177928654Y-106618889D01*
X177917110Y-106597292D01*
X177910004Y-106573867D01*
X177907000Y-106543362D01*
X177907000Y-106054638D01*
X177910004Y-106024133D01*
X177917110Y-106000708D01*
X177928654Y-105979111D01*
X177944186Y-105960186D01*
X177963111Y-105944654D01*
X177984708Y-105933110D01*
X178008133Y-105926004D01*
X178038638Y-105923000D01*
X179852362Y-105923000D01*
X179882867Y-105926004D01*
X179882867Y-105926004D01*
G37*
G36*
X184957867Y-105926004D02*
G01*
X184981292Y-105933110D01*
X185002889Y-105944654D01*
X185021814Y-105960186D01*
X185037346Y-105979111D01*
X185048890Y-106000708D01*
X185055996Y-106024133D01*
X185059000Y-106054638D01*
X185059000Y-106543362D01*
X185055996Y-106573867D01*
X185048890Y-106597292D01*
X185037346Y-106618889D01*
X185021814Y-106637814D01*
X185002889Y-106653346D01*
X184981292Y-106664890D01*
X184957867Y-106671996D01*
X184927362Y-106675000D01*
X183113638Y-106675000D01*
X183083133Y-106671996D01*
X183059708Y-106664890D01*
X183038111Y-106653346D01*
X183019186Y-106637814D01*
X183003654Y-106618889D01*
X182992110Y-106597292D01*
X182985004Y-106573867D01*
X182982000Y-106543362D01*
X182982000Y-106054638D01*
X182985004Y-106024133D01*
X182992110Y-106000708D01*
X183003654Y-105979111D01*
X183019186Y-105960186D01*
X183038111Y-105944654D01*
X183059708Y-105933110D01*
X183083133Y-105926004D01*
X183113638Y-105923000D01*
X184927362Y-105923000D01*
X184957867Y-105926004D01*
X184957867Y-105926004D01*
G37*
G36*
X107572188Y-105011545D02*
G01*
X107610858Y-105023276D01*
X107646497Y-105042326D01*
X107677737Y-105067963D01*
X107703374Y-105099203D01*
X107722424Y-105134842D01*
X107734155Y-105173512D01*
X107738720Y-105219868D01*
X107738720Y-106296092D01*
X107734155Y-106342448D01*
X107722424Y-106381118D01*
X107703374Y-106416757D01*
X107677737Y-106447997D01*
X107646497Y-106473634D01*
X107610858Y-106492684D01*
X107572188Y-106504415D01*
X107525832Y-106508980D01*
X106874608Y-106508980D01*
X106828252Y-106504415D01*
X106789582Y-106492684D01*
X106753943Y-106473634D01*
X106722703Y-106447997D01*
X106697066Y-106416757D01*
X106678016Y-106381118D01*
X106666285Y-106342448D01*
X106661720Y-106296092D01*
X106661720Y-105219868D01*
X106666285Y-105173512D01*
X106678016Y-105134842D01*
X106697066Y-105099203D01*
X106722703Y-105067963D01*
X106753943Y-105042326D01*
X106789582Y-105023276D01*
X106828252Y-105011545D01*
X106874608Y-105006980D01*
X107525832Y-105006980D01*
X107572188Y-105011545D01*
X107572188Y-105011545D01*
G37*
G36*
X109447188Y-105011545D02*
G01*
X109485858Y-105023276D01*
X109521497Y-105042326D01*
X109552737Y-105067963D01*
X109578374Y-105099203D01*
X109597424Y-105134842D01*
X109609155Y-105173512D01*
X109613720Y-105219868D01*
X109613720Y-106296092D01*
X109609155Y-106342448D01*
X109597424Y-106381118D01*
X109578374Y-106416757D01*
X109552737Y-106447997D01*
X109521497Y-106473634D01*
X109485858Y-106492684D01*
X109447188Y-106504415D01*
X109400832Y-106508980D01*
X108749608Y-106508980D01*
X108703252Y-106504415D01*
X108664582Y-106492684D01*
X108628943Y-106473634D01*
X108597703Y-106447997D01*
X108572066Y-106416757D01*
X108553016Y-106381118D01*
X108541285Y-106342448D01*
X108536720Y-106296092D01*
X108536720Y-105219868D01*
X108541285Y-105173512D01*
X108553016Y-105134842D01*
X108572066Y-105099203D01*
X108597703Y-105067963D01*
X108628943Y-105042326D01*
X108664582Y-105023276D01*
X108703252Y-105011545D01*
X108749608Y-105006980D01*
X109400832Y-105006980D01*
X109447188Y-105011545D01*
X109447188Y-105011545D01*
G37*
G36*
X160089468Y-104917565D02*
G01*
X160128138Y-104929296D01*
X160163777Y-104948346D01*
X160195017Y-104973983D01*
X160220654Y-105005223D01*
X160239704Y-105040862D01*
X160251435Y-105079532D01*
X160256000Y-105125888D01*
X160256000Y-106202112D01*
X160251435Y-106248468D01*
X160239704Y-106287138D01*
X160220654Y-106322777D01*
X160195017Y-106354017D01*
X160163777Y-106379654D01*
X160128138Y-106398704D01*
X160089468Y-106410435D01*
X160043112Y-106415000D01*
X159391888Y-106415000D01*
X159345532Y-106410435D01*
X159306862Y-106398704D01*
X159271223Y-106379654D01*
X159239983Y-106354017D01*
X159214346Y-106322777D01*
X159195296Y-106287138D01*
X159183565Y-106248468D01*
X159179000Y-106202112D01*
X159179000Y-105125888D01*
X159183565Y-105079532D01*
X159195296Y-105040862D01*
X159214346Y-105005223D01*
X159239983Y-104973983D01*
X159271223Y-104948346D01*
X159306862Y-104929296D01*
X159345532Y-104917565D01*
X159391888Y-104913000D01*
X160043112Y-104913000D01*
X160089468Y-104917565D01*
X160089468Y-104917565D01*
G37*
G36*
X161964468Y-104917565D02*
G01*
X162003138Y-104929296D01*
X162038777Y-104948346D01*
X162070017Y-104973983D01*
X162095654Y-105005223D01*
X162114704Y-105040862D01*
X162126435Y-105079532D01*
X162131000Y-105125888D01*
X162131000Y-106202112D01*
X162126435Y-106248468D01*
X162114704Y-106287138D01*
X162095654Y-106322777D01*
X162070017Y-106354017D01*
X162038777Y-106379654D01*
X162003138Y-106398704D01*
X161964468Y-106410435D01*
X161918112Y-106415000D01*
X161266888Y-106415000D01*
X161220532Y-106410435D01*
X161181862Y-106398704D01*
X161146223Y-106379654D01*
X161114983Y-106354017D01*
X161089346Y-106322777D01*
X161070296Y-106287138D01*
X161058565Y-106248468D01*
X161054000Y-106202112D01*
X161054000Y-105125888D01*
X161058565Y-105079532D01*
X161070296Y-105040862D01*
X161089346Y-105005223D01*
X161114983Y-104973983D01*
X161146223Y-104948346D01*
X161181862Y-104929296D01*
X161220532Y-104917565D01*
X161266888Y-104913000D01*
X161918112Y-104913000D01*
X161964468Y-104917565D01*
X161964468Y-104917565D01*
G37*
G36*
X153085867Y-105418004D02*
G01*
X153109292Y-105425110D01*
X153130889Y-105436654D01*
X153149814Y-105452186D01*
X153165346Y-105471111D01*
X153176890Y-105492708D01*
X153183996Y-105516133D01*
X153187000Y-105546638D01*
X153187000Y-106035362D01*
X153183996Y-106065867D01*
X153176890Y-106089292D01*
X153165346Y-106110889D01*
X153149814Y-106129814D01*
X153130889Y-106145346D01*
X153109292Y-106156890D01*
X153085867Y-106163996D01*
X153055362Y-106167000D01*
X151241638Y-106167000D01*
X151211133Y-106163996D01*
X151187708Y-106156890D01*
X151166111Y-106145346D01*
X151147186Y-106129814D01*
X151131654Y-106110889D01*
X151120110Y-106089292D01*
X151113004Y-106065867D01*
X151110000Y-106035362D01*
X151110000Y-105546638D01*
X151113004Y-105516133D01*
X151120110Y-105492708D01*
X151131654Y-105471111D01*
X151147186Y-105452186D01*
X151166111Y-105436654D01*
X151187708Y-105425110D01*
X151211133Y-105418004D01*
X151241638Y-105415000D01*
X153055362Y-105415000D01*
X153085867Y-105418004D01*
X153085867Y-105418004D01*
G37*
G36*
X158160867Y-105418004D02*
G01*
X158184292Y-105425110D01*
X158205889Y-105436654D01*
X158224814Y-105452186D01*
X158240346Y-105471111D01*
X158251890Y-105492708D01*
X158258996Y-105516133D01*
X158262000Y-105546638D01*
X158262000Y-106035362D01*
X158258996Y-106065867D01*
X158251890Y-106089292D01*
X158240346Y-106110889D01*
X158224814Y-106129814D01*
X158205889Y-106145346D01*
X158184292Y-106156890D01*
X158160867Y-106163996D01*
X158130362Y-106167000D01*
X156316638Y-106167000D01*
X156286133Y-106163996D01*
X156262708Y-106156890D01*
X156241111Y-106145346D01*
X156222186Y-106129814D01*
X156206654Y-106110889D01*
X156195110Y-106089292D01*
X156188004Y-106065867D01*
X156185000Y-106035362D01*
X156185000Y-105546638D01*
X156188004Y-105516133D01*
X156195110Y-105492708D01*
X156206654Y-105471111D01*
X156222186Y-105452186D01*
X156241111Y-105436654D01*
X156262708Y-105425110D01*
X156286133Y-105418004D01*
X156316638Y-105415000D01*
X158130362Y-105415000D01*
X158160867Y-105418004D01*
X158160867Y-105418004D01*
G37*
G36*
X100744087Y-105384984D02*
G01*
X100767512Y-105392090D01*
X100789109Y-105403634D01*
X100808034Y-105419166D01*
X100823566Y-105438091D01*
X100835110Y-105459688D01*
X100842216Y-105483113D01*
X100845220Y-105513618D01*
X100845220Y-106002342D01*
X100842216Y-106032847D01*
X100835110Y-106056272D01*
X100823566Y-106077869D01*
X100808034Y-106096794D01*
X100789109Y-106112326D01*
X100767512Y-106123870D01*
X100744087Y-106130976D01*
X100713582Y-106133980D01*
X98899858Y-106133980D01*
X98869353Y-106130976D01*
X98845928Y-106123870D01*
X98824331Y-106112326D01*
X98805406Y-106096794D01*
X98789874Y-106077869D01*
X98778330Y-106056272D01*
X98771224Y-106032847D01*
X98768220Y-106002342D01*
X98768220Y-105513618D01*
X98771224Y-105483113D01*
X98778330Y-105459688D01*
X98789874Y-105438091D01*
X98805406Y-105419166D01*
X98824331Y-105403634D01*
X98845928Y-105392090D01*
X98869353Y-105384984D01*
X98899858Y-105381980D01*
X100713582Y-105381980D01*
X100744087Y-105384984D01*
X100744087Y-105384984D01*
G37*
G36*
X105819087Y-105384984D02*
G01*
X105842512Y-105392090D01*
X105864109Y-105403634D01*
X105883034Y-105419166D01*
X105898566Y-105438091D01*
X105910110Y-105459688D01*
X105917216Y-105483113D01*
X105920220Y-105513618D01*
X105920220Y-106002342D01*
X105917216Y-106032847D01*
X105910110Y-106056272D01*
X105898566Y-106077869D01*
X105883034Y-106096794D01*
X105864109Y-106112326D01*
X105842512Y-106123870D01*
X105819087Y-106130976D01*
X105788582Y-106133980D01*
X103974858Y-106133980D01*
X103944353Y-106130976D01*
X103920928Y-106123870D01*
X103899331Y-106112326D01*
X103880406Y-106096794D01*
X103864874Y-106077869D01*
X103853330Y-106056272D01*
X103846224Y-106032847D01*
X103843220Y-106002342D01*
X103843220Y-105513618D01*
X103846224Y-105483113D01*
X103853330Y-105459688D01*
X103864874Y-105438091D01*
X103880406Y-105419166D01*
X103899331Y-105403634D01*
X103920928Y-105392090D01*
X103944353Y-105384984D01*
X103974858Y-105381980D01*
X105788582Y-105381980D01*
X105819087Y-105384984D01*
X105819087Y-105384984D01*
G37*
G36*
X136510888Y-104531485D02*
G01*
X136549558Y-104543216D01*
X136585197Y-104562266D01*
X136616437Y-104587903D01*
X136642074Y-104619143D01*
X136661124Y-104654782D01*
X136672855Y-104693452D01*
X136677420Y-104739808D01*
X136677420Y-105816032D01*
X136672855Y-105862388D01*
X136661124Y-105901058D01*
X136642074Y-105936697D01*
X136616437Y-105967937D01*
X136585197Y-105993574D01*
X136549558Y-106012624D01*
X136510888Y-106024355D01*
X136464532Y-106028920D01*
X135813308Y-106028920D01*
X135766952Y-106024355D01*
X135728282Y-106012624D01*
X135692643Y-105993574D01*
X135661403Y-105967937D01*
X135635766Y-105936697D01*
X135616716Y-105901058D01*
X135604985Y-105862388D01*
X135600420Y-105816032D01*
X135600420Y-104739808D01*
X135604985Y-104693452D01*
X135616716Y-104654782D01*
X135635766Y-104619143D01*
X135661403Y-104587903D01*
X135692643Y-104562266D01*
X135728282Y-104543216D01*
X135766952Y-104531485D01*
X135813308Y-104526920D01*
X136464532Y-104526920D01*
X136510888Y-104531485D01*
X136510888Y-104531485D01*
G37*
G36*
X134635888Y-104531485D02*
G01*
X134674558Y-104543216D01*
X134710197Y-104562266D01*
X134741437Y-104587903D01*
X134767074Y-104619143D01*
X134786124Y-104654782D01*
X134797855Y-104693452D01*
X134802420Y-104739808D01*
X134802420Y-105816032D01*
X134797855Y-105862388D01*
X134786124Y-105901058D01*
X134767074Y-105936697D01*
X134741437Y-105967937D01*
X134710197Y-105993574D01*
X134674558Y-106012624D01*
X134635888Y-106024355D01*
X134589532Y-106028920D01*
X133938308Y-106028920D01*
X133891952Y-106024355D01*
X133853282Y-106012624D01*
X133817643Y-105993574D01*
X133786403Y-105967937D01*
X133760766Y-105936697D01*
X133741716Y-105901058D01*
X133729985Y-105862388D01*
X133725420Y-105816032D01*
X133725420Y-104739808D01*
X133729985Y-104693452D01*
X133741716Y-104654782D01*
X133760766Y-104619143D01*
X133786403Y-104587903D01*
X133817643Y-104562266D01*
X133853282Y-104543216D01*
X133891952Y-104531485D01*
X133938308Y-104526920D01*
X134589532Y-104526920D01*
X134635888Y-104531485D01*
X134635888Y-104531485D01*
G37*
G36*
X150317468Y-104954565D02*
G01*
X150356138Y-104966296D01*
X150391777Y-104985346D01*
X150423017Y-105010983D01*
X150448654Y-105042223D01*
X150467704Y-105077862D01*
X150479435Y-105116532D01*
X150484000Y-105162888D01*
X150484000Y-105814112D01*
X150479435Y-105860468D01*
X150467704Y-105899138D01*
X150448654Y-105934777D01*
X150423017Y-105966017D01*
X150391777Y-105991654D01*
X150356138Y-106010704D01*
X150317468Y-106022435D01*
X150271112Y-106027000D01*
X149194888Y-106027000D01*
X149148532Y-106022435D01*
X149109862Y-106010704D01*
X149074223Y-105991654D01*
X149042983Y-105966017D01*
X149017346Y-105934777D01*
X148998296Y-105899138D01*
X148986565Y-105860468D01*
X148982000Y-105814112D01*
X148982000Y-105162888D01*
X148986565Y-105116532D01*
X148998296Y-105077862D01*
X149017346Y-105042223D01*
X149042983Y-105010983D01*
X149074223Y-104985346D01*
X149109862Y-104966296D01*
X149148532Y-104954565D01*
X149194888Y-104950000D01*
X150271112Y-104950000D01*
X150317468Y-104954565D01*
X150317468Y-104954565D01*
G37*
G36*
X97594688Y-104921545D02*
G01*
X97633358Y-104933276D01*
X97668997Y-104952326D01*
X97700237Y-104977963D01*
X97725874Y-105009203D01*
X97744924Y-105044842D01*
X97756655Y-105083512D01*
X97761220Y-105129868D01*
X97761220Y-105781092D01*
X97756655Y-105827448D01*
X97744924Y-105866118D01*
X97725874Y-105901757D01*
X97700237Y-105932997D01*
X97668997Y-105958634D01*
X97633358Y-105977684D01*
X97594688Y-105989415D01*
X97548332Y-105993980D01*
X96472108Y-105993980D01*
X96425752Y-105989415D01*
X96387082Y-105977684D01*
X96351443Y-105958634D01*
X96320203Y-105932997D01*
X96294566Y-105901757D01*
X96275516Y-105866118D01*
X96263785Y-105827448D01*
X96259220Y-105781092D01*
X96259220Y-105129868D01*
X96263785Y-105083512D01*
X96275516Y-105044842D01*
X96294566Y-105009203D01*
X96320203Y-104977963D01*
X96351443Y-104952326D01*
X96387082Y-104933276D01*
X96425752Y-104921545D01*
X96472108Y-104916980D01*
X97548332Y-104916980D01*
X97594688Y-104921545D01*
X97594688Y-104921545D01*
G37*
G36*
X132755787Y-105031924D02*
G01*
X132779212Y-105039030D01*
X132800809Y-105050574D01*
X132819734Y-105066106D01*
X132835266Y-105085031D01*
X132846810Y-105106628D01*
X132853916Y-105130053D01*
X132856920Y-105160558D01*
X132856920Y-105649282D01*
X132853916Y-105679787D01*
X132846810Y-105703212D01*
X132835266Y-105724809D01*
X132819734Y-105743734D01*
X132800809Y-105759266D01*
X132779212Y-105770810D01*
X132755787Y-105777916D01*
X132725282Y-105780920D01*
X130911558Y-105780920D01*
X130881053Y-105777916D01*
X130857628Y-105770810D01*
X130836031Y-105759266D01*
X130817106Y-105743734D01*
X130801574Y-105724809D01*
X130790030Y-105703212D01*
X130782924Y-105679787D01*
X130779920Y-105649282D01*
X130779920Y-105160558D01*
X130782924Y-105130053D01*
X130790030Y-105106628D01*
X130801574Y-105085031D01*
X130817106Y-105066106D01*
X130836031Y-105050574D01*
X130857628Y-105039030D01*
X130881053Y-105031924D01*
X130911558Y-105028920D01*
X132725282Y-105028920D01*
X132755787Y-105031924D01*
X132755787Y-105031924D01*
G37*
G36*
X127680787Y-105031924D02*
G01*
X127704212Y-105039030D01*
X127725809Y-105050574D01*
X127744734Y-105066106D01*
X127760266Y-105085031D01*
X127771810Y-105106628D01*
X127778916Y-105130053D01*
X127781920Y-105160558D01*
X127781920Y-105649282D01*
X127778916Y-105679787D01*
X127771810Y-105703212D01*
X127760266Y-105724809D01*
X127744734Y-105743734D01*
X127725809Y-105759266D01*
X127704212Y-105770810D01*
X127680787Y-105777916D01*
X127650282Y-105780920D01*
X125836558Y-105780920D01*
X125806053Y-105777916D01*
X125782628Y-105770810D01*
X125761031Y-105759266D01*
X125742106Y-105743734D01*
X125726574Y-105724809D01*
X125715030Y-105703212D01*
X125707924Y-105679787D01*
X125704920Y-105649282D01*
X125704920Y-105160558D01*
X125707924Y-105130053D01*
X125715030Y-105106628D01*
X125726574Y-105085031D01*
X125742106Y-105066106D01*
X125761031Y-105050574D01*
X125782628Y-105039030D01*
X125806053Y-105031924D01*
X125836558Y-105028920D01*
X127650282Y-105028920D01*
X127680787Y-105031924D01*
X127680787Y-105031924D01*
G37*
G36*
X188839968Y-104282565D02*
G01*
X188878638Y-104294296D01*
X188914277Y-104313346D01*
X188945517Y-104338983D01*
X188971154Y-104370223D01*
X188990204Y-104405862D01*
X189001935Y-104444532D01*
X189006500Y-104490888D01*
X189006500Y-105567112D01*
X189001935Y-105613468D01*
X188990204Y-105652138D01*
X188971154Y-105687777D01*
X188945517Y-105719017D01*
X188914277Y-105744654D01*
X188878638Y-105763704D01*
X188839968Y-105775435D01*
X188793612Y-105780000D01*
X188142388Y-105780000D01*
X188096032Y-105775435D01*
X188057362Y-105763704D01*
X188021723Y-105744654D01*
X187990483Y-105719017D01*
X187964846Y-105687777D01*
X187945796Y-105652138D01*
X187934065Y-105613468D01*
X187929500Y-105567112D01*
X187929500Y-104490888D01*
X187934065Y-104444532D01*
X187945796Y-104405862D01*
X187964846Y-104370223D01*
X187990483Y-104338983D01*
X188021723Y-104313346D01*
X188057362Y-104294296D01*
X188096032Y-104282565D01*
X188142388Y-104278000D01*
X188793612Y-104278000D01*
X188839968Y-104282565D01*
X188839968Y-104282565D01*
G37*
G36*
X186964968Y-104282565D02*
G01*
X187003638Y-104294296D01*
X187039277Y-104313346D01*
X187070517Y-104338983D01*
X187096154Y-104370223D01*
X187115204Y-104405862D01*
X187126935Y-104444532D01*
X187131500Y-104490888D01*
X187131500Y-105567112D01*
X187126935Y-105613468D01*
X187115204Y-105652138D01*
X187096154Y-105687777D01*
X187070517Y-105719017D01*
X187039277Y-105744654D01*
X187003638Y-105763704D01*
X186964968Y-105775435D01*
X186918612Y-105780000D01*
X186267388Y-105780000D01*
X186221032Y-105775435D01*
X186182362Y-105763704D01*
X186146723Y-105744654D01*
X186115483Y-105719017D01*
X186089846Y-105687777D01*
X186070796Y-105652138D01*
X186059065Y-105613468D01*
X186054500Y-105567112D01*
X186054500Y-104490888D01*
X186059065Y-104444532D01*
X186070796Y-104405862D01*
X186089846Y-104370223D01*
X186115483Y-104338983D01*
X186146723Y-104313346D01*
X186182362Y-104294296D01*
X186221032Y-104282565D01*
X186267388Y-104278000D01*
X186918612Y-104278000D01*
X186964968Y-104282565D01*
X186964968Y-104282565D01*
G37*
G36*
X124277388Y-104489985D02*
G01*
X124316058Y-104501716D01*
X124351697Y-104520766D01*
X124382937Y-104546403D01*
X124408574Y-104577643D01*
X124427624Y-104613282D01*
X124439355Y-104651952D01*
X124443920Y-104698308D01*
X124443920Y-105349532D01*
X124439355Y-105395888D01*
X124427624Y-105434558D01*
X124408574Y-105470197D01*
X124382937Y-105501437D01*
X124351697Y-105527074D01*
X124316058Y-105546124D01*
X124277388Y-105557855D01*
X124231032Y-105562420D01*
X123154808Y-105562420D01*
X123108452Y-105557855D01*
X123069782Y-105546124D01*
X123034143Y-105527074D01*
X123002903Y-105501437D01*
X122977266Y-105470197D01*
X122958216Y-105434558D01*
X122946485Y-105395888D01*
X122941920Y-105349532D01*
X122941920Y-104698308D01*
X122946485Y-104651952D01*
X122958216Y-104613282D01*
X122977266Y-104577643D01*
X123002903Y-104546403D01*
X123034143Y-104520766D01*
X123069782Y-104501716D01*
X123108452Y-104489985D01*
X123154808Y-104485420D01*
X124231032Y-104485420D01*
X124277388Y-104489985D01*
X124277388Y-104489985D01*
G37*
G36*
X179882867Y-104656004D02*
G01*
X179906292Y-104663110D01*
X179927889Y-104674654D01*
X179946814Y-104690186D01*
X179962346Y-104709111D01*
X179973890Y-104730708D01*
X179980996Y-104754133D01*
X179984000Y-104784638D01*
X179984000Y-105273362D01*
X179980996Y-105303867D01*
X179973890Y-105327292D01*
X179962346Y-105348889D01*
X179946814Y-105367814D01*
X179927889Y-105383346D01*
X179906292Y-105394890D01*
X179882867Y-105401996D01*
X179852362Y-105405000D01*
X178038638Y-105405000D01*
X178008133Y-105401996D01*
X177984708Y-105394890D01*
X177963111Y-105383346D01*
X177944186Y-105367814D01*
X177928654Y-105348889D01*
X177917110Y-105327292D01*
X177910004Y-105303867D01*
X177907000Y-105273362D01*
X177907000Y-104784638D01*
X177910004Y-104754133D01*
X177917110Y-104730708D01*
X177928654Y-104709111D01*
X177944186Y-104690186D01*
X177963111Y-104674654D01*
X177984708Y-104663110D01*
X178008133Y-104656004D01*
X178038638Y-104653000D01*
X179852362Y-104653000D01*
X179882867Y-104656004D01*
X179882867Y-104656004D01*
G37*
G36*
X184957867Y-104656004D02*
G01*
X184981292Y-104663110D01*
X185002889Y-104674654D01*
X185021814Y-104690186D01*
X185037346Y-104709111D01*
X185048890Y-104730708D01*
X185055996Y-104754133D01*
X185059000Y-104784638D01*
X185059000Y-105273362D01*
X185055996Y-105303867D01*
X185048890Y-105327292D01*
X185037346Y-105348889D01*
X185021814Y-105367814D01*
X185002889Y-105383346D01*
X184981292Y-105394890D01*
X184957867Y-105401996D01*
X184927362Y-105405000D01*
X183113638Y-105405000D01*
X183083133Y-105401996D01*
X183059708Y-105394890D01*
X183038111Y-105383346D01*
X183019186Y-105367814D01*
X183003654Y-105348889D01*
X182992110Y-105327292D01*
X182985004Y-105303867D01*
X182982000Y-105273362D01*
X182982000Y-104784638D01*
X182985004Y-104754133D01*
X182992110Y-104730708D01*
X183003654Y-104709111D01*
X183019186Y-104690186D01*
X183038111Y-104674654D01*
X183059708Y-104663110D01*
X183083133Y-104656004D01*
X183113638Y-104653000D01*
X184927362Y-104653000D01*
X184957867Y-104656004D01*
X184957867Y-104656004D01*
G37*
G36*
X176987468Y-103890065D02*
G01*
X177026138Y-103901796D01*
X177061777Y-103920846D01*
X177093017Y-103946483D01*
X177118654Y-103977723D01*
X177137704Y-104013362D01*
X177149435Y-104052032D01*
X177154000Y-104098388D01*
X177154000Y-104749612D01*
X177149435Y-104795968D01*
X177137704Y-104834638D01*
X177118654Y-104870277D01*
X177093017Y-104901517D01*
X177061777Y-104927154D01*
X177026138Y-104946204D01*
X176987468Y-104957935D01*
X176941112Y-104962500D01*
X175864888Y-104962500D01*
X175818532Y-104957935D01*
X175779862Y-104946204D01*
X175744223Y-104927154D01*
X175712983Y-104901517D01*
X175687346Y-104870277D01*
X175668296Y-104834638D01*
X175656565Y-104795968D01*
X175652000Y-104749612D01*
X175652000Y-104098388D01*
X175656565Y-104052032D01*
X175668296Y-104013362D01*
X175687346Y-103977723D01*
X175712983Y-103946483D01*
X175744223Y-103920846D01*
X175779862Y-103901796D01*
X175818532Y-103890065D01*
X175864888Y-103885500D01*
X176941112Y-103885500D01*
X176987468Y-103890065D01*
X176987468Y-103890065D01*
G37*
G36*
X158160867Y-104148004D02*
G01*
X158184292Y-104155110D01*
X158205889Y-104166654D01*
X158224814Y-104182186D01*
X158240346Y-104201111D01*
X158251890Y-104222708D01*
X158258996Y-104246133D01*
X158262000Y-104276638D01*
X158262000Y-104765362D01*
X158258996Y-104795867D01*
X158251890Y-104819292D01*
X158240346Y-104840889D01*
X158224814Y-104859814D01*
X158205889Y-104875346D01*
X158184292Y-104886890D01*
X158160867Y-104893996D01*
X158130362Y-104897000D01*
X156316638Y-104897000D01*
X156286133Y-104893996D01*
X156262708Y-104886890D01*
X156241111Y-104875346D01*
X156222186Y-104859814D01*
X156206654Y-104840889D01*
X156195110Y-104819292D01*
X156188004Y-104795867D01*
X156185000Y-104765362D01*
X156185000Y-104276638D01*
X156188004Y-104246133D01*
X156195110Y-104222708D01*
X156206654Y-104201111D01*
X156222186Y-104182186D01*
X156241111Y-104166654D01*
X156262708Y-104155110D01*
X156286133Y-104148004D01*
X156316638Y-104145000D01*
X158130362Y-104145000D01*
X158160867Y-104148004D01*
X158160867Y-104148004D01*
G37*
G36*
X153085867Y-104148004D02*
G01*
X153109292Y-104155110D01*
X153130889Y-104166654D01*
X153149814Y-104182186D01*
X153165346Y-104201111D01*
X153176890Y-104222708D01*
X153183996Y-104246133D01*
X153187000Y-104276638D01*
X153187000Y-104765362D01*
X153183996Y-104795867D01*
X153176890Y-104819292D01*
X153165346Y-104840889D01*
X153149814Y-104859814D01*
X153130889Y-104875346D01*
X153109292Y-104886890D01*
X153085867Y-104893996D01*
X153055362Y-104897000D01*
X151241638Y-104897000D01*
X151211133Y-104893996D01*
X151187708Y-104886890D01*
X151166111Y-104875346D01*
X151147186Y-104859814D01*
X151131654Y-104840889D01*
X151120110Y-104819292D01*
X151113004Y-104795867D01*
X151110000Y-104765362D01*
X151110000Y-104276638D01*
X151113004Y-104246133D01*
X151120110Y-104222708D01*
X151131654Y-104201111D01*
X151147186Y-104182186D01*
X151166111Y-104166654D01*
X151187708Y-104155110D01*
X151211133Y-104148004D01*
X151241638Y-104145000D01*
X153055362Y-104145000D01*
X153085867Y-104148004D01*
X153085867Y-104148004D01*
G37*
G36*
X100744087Y-104114984D02*
G01*
X100767512Y-104122090D01*
X100789109Y-104133634D01*
X100808034Y-104149166D01*
X100823566Y-104168091D01*
X100835110Y-104189688D01*
X100842216Y-104213113D01*
X100845220Y-104243618D01*
X100845220Y-104732342D01*
X100842216Y-104762847D01*
X100835110Y-104786272D01*
X100823566Y-104807869D01*
X100808034Y-104826794D01*
X100789109Y-104842326D01*
X100767512Y-104853870D01*
X100744087Y-104860976D01*
X100713582Y-104863980D01*
X98899858Y-104863980D01*
X98869353Y-104860976D01*
X98845928Y-104853870D01*
X98824331Y-104842326D01*
X98805406Y-104826794D01*
X98789874Y-104807869D01*
X98778330Y-104786272D01*
X98771224Y-104762847D01*
X98768220Y-104732342D01*
X98768220Y-104243618D01*
X98771224Y-104213113D01*
X98778330Y-104189688D01*
X98789874Y-104168091D01*
X98805406Y-104149166D01*
X98824331Y-104133634D01*
X98845928Y-104122090D01*
X98869353Y-104114984D01*
X98899858Y-104111980D01*
X100713582Y-104111980D01*
X100744087Y-104114984D01*
X100744087Y-104114984D01*
G37*
G36*
X105819087Y-104114984D02*
G01*
X105842512Y-104122090D01*
X105864109Y-104133634D01*
X105883034Y-104149166D01*
X105898566Y-104168091D01*
X105910110Y-104189688D01*
X105917216Y-104213113D01*
X105920220Y-104243618D01*
X105920220Y-104732342D01*
X105917216Y-104762847D01*
X105910110Y-104786272D01*
X105898566Y-104807869D01*
X105883034Y-104826794D01*
X105864109Y-104842326D01*
X105842512Y-104853870D01*
X105819087Y-104860976D01*
X105788582Y-104863980D01*
X103974858Y-104863980D01*
X103944353Y-104860976D01*
X103920928Y-104853870D01*
X103899331Y-104842326D01*
X103880406Y-104826794D01*
X103864874Y-104807869D01*
X103853330Y-104786272D01*
X103846224Y-104762847D01*
X103843220Y-104732342D01*
X103843220Y-104243618D01*
X103846224Y-104213113D01*
X103853330Y-104189688D01*
X103864874Y-104168091D01*
X103880406Y-104149166D01*
X103899331Y-104133634D01*
X103920928Y-104122090D01*
X103944353Y-104114984D01*
X103974858Y-104111980D01*
X105788582Y-104111980D01*
X105819087Y-104114984D01*
X105819087Y-104114984D01*
G37*
G36*
X132755787Y-103761924D02*
G01*
X132779212Y-103769030D01*
X132800809Y-103780574D01*
X132819734Y-103796106D01*
X132835266Y-103815031D01*
X132846810Y-103836628D01*
X132853916Y-103860053D01*
X132856920Y-103890558D01*
X132856920Y-104379282D01*
X132853916Y-104409787D01*
X132846810Y-104433212D01*
X132835266Y-104454809D01*
X132819734Y-104473734D01*
X132800809Y-104489266D01*
X132779212Y-104500810D01*
X132755787Y-104507916D01*
X132725282Y-104510920D01*
X130911558Y-104510920D01*
X130881053Y-104507916D01*
X130857628Y-104500810D01*
X130836031Y-104489266D01*
X130817106Y-104473734D01*
X130801574Y-104454809D01*
X130790030Y-104433212D01*
X130782924Y-104409787D01*
X130779920Y-104379282D01*
X130779920Y-103890558D01*
X130782924Y-103860053D01*
X130790030Y-103836628D01*
X130801574Y-103815031D01*
X130817106Y-103796106D01*
X130836031Y-103780574D01*
X130857628Y-103769030D01*
X130881053Y-103761924D01*
X130911558Y-103758920D01*
X132725282Y-103758920D01*
X132755787Y-103761924D01*
X132755787Y-103761924D01*
G37*
G36*
X127680787Y-103761924D02*
G01*
X127704212Y-103769030D01*
X127725809Y-103780574D01*
X127744734Y-103796106D01*
X127760266Y-103815031D01*
X127771810Y-103836628D01*
X127778916Y-103860053D01*
X127781920Y-103890558D01*
X127781920Y-104379282D01*
X127778916Y-104409787D01*
X127771810Y-104433212D01*
X127760266Y-104454809D01*
X127744734Y-104473734D01*
X127725809Y-104489266D01*
X127704212Y-104500810D01*
X127680787Y-104507916D01*
X127650282Y-104510920D01*
X125836558Y-104510920D01*
X125806053Y-104507916D01*
X125782628Y-104500810D01*
X125761031Y-104489266D01*
X125742106Y-104473734D01*
X125726574Y-104454809D01*
X125715030Y-104433212D01*
X125707924Y-104409787D01*
X125704920Y-104379282D01*
X125704920Y-103890558D01*
X125707924Y-103860053D01*
X125715030Y-103836628D01*
X125726574Y-103815031D01*
X125742106Y-103796106D01*
X125761031Y-103780574D01*
X125782628Y-103769030D01*
X125806053Y-103761924D01*
X125836558Y-103758920D01*
X127650282Y-103758920D01*
X127680787Y-103761924D01*
X127680787Y-103761924D01*
G37*
G36*
X179882867Y-103386004D02*
G01*
X179906292Y-103393110D01*
X179927889Y-103404654D01*
X179946814Y-103420186D01*
X179962346Y-103439111D01*
X179973890Y-103460708D01*
X179980996Y-103484133D01*
X179984000Y-103514638D01*
X179984000Y-104003362D01*
X179980996Y-104033867D01*
X179973890Y-104057292D01*
X179962346Y-104078889D01*
X179946814Y-104097814D01*
X179927889Y-104113346D01*
X179906292Y-104124890D01*
X179882867Y-104131996D01*
X179852362Y-104135000D01*
X178038638Y-104135000D01*
X178008133Y-104131996D01*
X177984708Y-104124890D01*
X177963111Y-104113346D01*
X177944186Y-104097814D01*
X177928654Y-104078889D01*
X177917110Y-104057292D01*
X177910004Y-104033867D01*
X177907000Y-104003362D01*
X177907000Y-103514638D01*
X177910004Y-103484133D01*
X177917110Y-103460708D01*
X177928654Y-103439111D01*
X177944186Y-103420186D01*
X177963111Y-103404654D01*
X177984708Y-103393110D01*
X178008133Y-103386004D01*
X178038638Y-103383000D01*
X179852362Y-103383000D01*
X179882867Y-103386004D01*
X179882867Y-103386004D01*
G37*
G36*
X184957867Y-103386004D02*
G01*
X184981292Y-103393110D01*
X185002889Y-103404654D01*
X185021814Y-103420186D01*
X185037346Y-103439111D01*
X185048890Y-103460708D01*
X185055996Y-103484133D01*
X185059000Y-103514638D01*
X185059000Y-104003362D01*
X185055996Y-104033867D01*
X185048890Y-104057292D01*
X185037346Y-104078889D01*
X185021814Y-104097814D01*
X185002889Y-104113346D01*
X184981292Y-104124890D01*
X184957867Y-104131996D01*
X184927362Y-104135000D01*
X183113638Y-104135000D01*
X183083133Y-104131996D01*
X183059708Y-104124890D01*
X183038111Y-104113346D01*
X183019186Y-104097814D01*
X183003654Y-104078889D01*
X182992110Y-104057292D01*
X182985004Y-104033867D01*
X182982000Y-104003362D01*
X182982000Y-103514638D01*
X182985004Y-103484133D01*
X182992110Y-103460708D01*
X183003654Y-103439111D01*
X183019186Y-103420186D01*
X183038111Y-103404654D01*
X183059708Y-103393110D01*
X183083133Y-103386004D01*
X183113638Y-103383000D01*
X184927362Y-103383000D01*
X184957867Y-103386004D01*
X184957867Y-103386004D01*
G37*
G36*
X110790642Y-98911442D02*
G01*
X110938601Y-98972729D01*
X111071755Y-99061699D01*
X111185001Y-99174945D01*
X111273971Y-99308099D01*
X111335258Y-99456058D01*
X111366500Y-99613125D01*
X111366500Y-99773275D01*
X111335258Y-99930342D01*
X111273971Y-100078301D01*
X111185001Y-100211455D01*
X111071755Y-100324701D01*
X110938601Y-100413671D01*
X110790642Y-100474958D01*
X110633575Y-100506200D01*
X110473425Y-100506200D01*
X110316358Y-100474958D01*
X110168399Y-100413671D01*
X110035245Y-100324701D01*
X109921999Y-100211455D01*
X109833029Y-100078301D01*
X109771742Y-99930342D01*
X109740500Y-99773275D01*
X109740500Y-99613125D01*
X109771742Y-99456058D01*
X109833029Y-99308099D01*
X109921999Y-99174945D01*
X110035245Y-99061699D01*
X110168399Y-98972729D01*
X110316358Y-98911442D01*
X110473425Y-98880200D01*
X110633575Y-98880200D01*
X110790642Y-98911442D01*
X110790642Y-98911442D01*
G37*
G36*
X137460642Y-98911442D02*
G01*
X137608601Y-98972729D01*
X137741755Y-99061699D01*
X137855001Y-99174945D01*
X137943971Y-99308099D01*
X138005258Y-99456058D01*
X138036500Y-99613125D01*
X138036500Y-99773275D01*
X138005258Y-99930342D01*
X137943971Y-100078301D01*
X137855001Y-100211455D01*
X137741755Y-100324701D01*
X137608601Y-100413671D01*
X137460642Y-100474958D01*
X137303575Y-100506200D01*
X137143425Y-100506200D01*
X136986358Y-100474958D01*
X136838399Y-100413671D01*
X136705245Y-100324701D01*
X136591999Y-100211455D01*
X136503029Y-100078301D01*
X136441742Y-99930342D01*
X136410500Y-99773275D01*
X136410500Y-99613125D01*
X136441742Y-99456058D01*
X136503029Y-99308099D01*
X136591999Y-99174945D01*
X136705245Y-99061699D01*
X136838399Y-98972729D01*
X136986358Y-98911442D01*
X137143425Y-98880200D01*
X137303575Y-98880200D01*
X137460642Y-98911442D01*
X137460642Y-98911442D01*
G37*
G36*
X190800642Y-98911442D02*
G01*
X190948601Y-98972729D01*
X191081755Y-99061699D01*
X191195001Y-99174945D01*
X191283971Y-99308099D01*
X191345258Y-99456058D01*
X191376500Y-99613125D01*
X191376500Y-99773275D01*
X191345258Y-99930342D01*
X191283971Y-100078301D01*
X191195001Y-100211455D01*
X191081755Y-100324701D01*
X190948601Y-100413671D01*
X190800642Y-100474958D01*
X190643575Y-100506200D01*
X190483425Y-100506200D01*
X190326358Y-100474958D01*
X190178399Y-100413671D01*
X190045245Y-100324701D01*
X189931999Y-100211455D01*
X189843029Y-100078301D01*
X189781742Y-99930342D01*
X189750500Y-99773275D01*
X189750500Y-99613125D01*
X189781742Y-99456058D01*
X189843029Y-99308099D01*
X189931999Y-99174945D01*
X190045245Y-99061699D01*
X190178399Y-98972729D01*
X190326358Y-98911442D01*
X190483425Y-98880200D01*
X190643575Y-98880200D01*
X190800642Y-98911442D01*
X190800642Y-98911442D01*
G37*
G36*
X164130642Y-98911442D02*
G01*
X164278601Y-98972729D01*
X164411755Y-99061699D01*
X164525001Y-99174945D01*
X164613971Y-99308099D01*
X164675258Y-99456058D01*
X164706500Y-99613125D01*
X164706500Y-99773275D01*
X164675258Y-99930342D01*
X164613971Y-100078301D01*
X164525001Y-100211455D01*
X164411755Y-100324701D01*
X164278601Y-100413671D01*
X164130642Y-100474958D01*
X163973575Y-100506200D01*
X163813425Y-100506200D01*
X163656358Y-100474958D01*
X163508399Y-100413671D01*
X163375245Y-100324701D01*
X163261999Y-100211455D01*
X163173029Y-100078301D01*
X163111742Y-99930342D01*
X163080500Y-99773275D01*
X163080500Y-99613125D01*
X163111742Y-99456058D01*
X163173029Y-99308099D01*
X163261999Y-99174945D01*
X163375245Y-99061699D01*
X163508399Y-98972729D01*
X163656358Y-98911442D01*
X163813425Y-98880200D01*
X163973575Y-98880200D01*
X164130642Y-98911442D01*
X164130642Y-98911442D01*
G37*
G36*
X192001000Y-97159000D02*
G01*
X190999000Y-97159000D01*
X190999000Y-96257000D01*
X192001000Y-96257000D01*
X192001000Y-97159000D01*
X192001000Y-97159000D01*
G37*
G36*
X165839000Y-96397000D02*
G01*
X164837000Y-96397000D01*
X164837000Y-95495000D01*
X165839000Y-95495000D01*
X165839000Y-96397000D01*
X165839000Y-96397000D01*
G37*
G36*
X190001000Y-96209000D02*
G01*
X188999000Y-96209000D01*
X188999000Y-95307000D01*
X190001000Y-95307000D01*
X190001000Y-96209000D01*
X190001000Y-96209000D01*
G37*
G36*
X139677000Y-96143000D02*
G01*
X138675000Y-96143000D01*
X138675000Y-95241000D01*
X139677000Y-95241000D01*
X139677000Y-96143000D01*
X139677000Y-96143000D01*
G37*
G36*
X112509160Y-95787400D02*
G01*
X111507160Y-95787400D01*
X111507160Y-94885400D01*
X112509160Y-94885400D01*
X112509160Y-95787400D01*
X112509160Y-95787400D01*
G37*
G36*
X163839000Y-95447000D02*
G01*
X162837000Y-95447000D01*
X162837000Y-94545000D01*
X163839000Y-94545000D01*
X163839000Y-95447000D01*
X163839000Y-95447000D01*
G37*
G36*
X192001000Y-95259000D02*
G01*
X190999000Y-95259000D01*
X190999000Y-94357000D01*
X192001000Y-94357000D01*
X192001000Y-95259000D01*
X192001000Y-95259000D01*
G37*
G36*
X137677000Y-95193000D02*
G01*
X136675000Y-95193000D01*
X136675000Y-94291000D01*
X137677000Y-94291000D01*
X137677000Y-95193000D01*
X137677000Y-95193000D01*
G37*
G36*
X110509160Y-94837400D02*
G01*
X109507160Y-94837400D01*
X109507160Y-93935400D01*
X110509160Y-93935400D01*
X110509160Y-94837400D01*
X110509160Y-94837400D01*
G37*
G36*
X165839000Y-94497000D02*
G01*
X164837000Y-94497000D01*
X164837000Y-93595000D01*
X165839000Y-93595000D01*
X165839000Y-94497000D01*
X165839000Y-94497000D01*
G37*
G36*
X139677000Y-94243000D02*
G01*
X138675000Y-94243000D01*
X138675000Y-93341000D01*
X139677000Y-93341000D01*
X139677000Y-94243000D01*
X139677000Y-94243000D01*
G37*
G36*
X112509160Y-93887400D02*
G01*
X111507160Y-93887400D01*
X111507160Y-92985400D01*
X112509160Y-92985400D01*
X112509160Y-93887400D01*
X112509160Y-93887400D01*
G37*
G36*
X165834842Y-87205442D02*
G01*
X165982801Y-87266729D01*
X166115955Y-87355699D01*
X166229201Y-87468945D01*
X166318171Y-87602099D01*
X166379458Y-87750058D01*
X166410700Y-87907125D01*
X166410700Y-88067275D01*
X166379458Y-88224342D01*
X166318171Y-88372301D01*
X166229201Y-88505455D01*
X166115955Y-88618701D01*
X165982801Y-88707671D01*
X165834842Y-88768958D01*
X165677775Y-88800200D01*
X165517625Y-88800200D01*
X165360558Y-88768958D01*
X165212599Y-88707671D01*
X165079445Y-88618701D01*
X164966199Y-88505455D01*
X164877229Y-88372301D01*
X164815942Y-88224342D01*
X164784700Y-88067275D01*
X164784700Y-87907125D01*
X164815942Y-87750058D01*
X164877229Y-87602099D01*
X164966199Y-87468945D01*
X165079445Y-87355699D01*
X165212599Y-87266729D01*
X165360558Y-87205442D01*
X165517625Y-87174200D01*
X165677775Y-87174200D01*
X165834842Y-87205442D01*
X165834842Y-87205442D01*
G37*
G36*
X139164842Y-87205442D02*
G01*
X139312801Y-87266729D01*
X139445955Y-87355699D01*
X139559201Y-87468945D01*
X139648171Y-87602099D01*
X139709458Y-87750058D01*
X139740700Y-87907125D01*
X139740700Y-88067275D01*
X139709458Y-88224342D01*
X139648171Y-88372301D01*
X139559201Y-88505455D01*
X139445955Y-88618701D01*
X139312801Y-88707671D01*
X139164842Y-88768958D01*
X139007775Y-88800200D01*
X138847625Y-88800200D01*
X138690558Y-88768958D01*
X138542599Y-88707671D01*
X138409445Y-88618701D01*
X138296199Y-88505455D01*
X138207229Y-88372301D01*
X138145942Y-88224342D01*
X138114700Y-88067275D01*
X138114700Y-87907125D01*
X138145942Y-87750058D01*
X138207229Y-87602099D01*
X138296199Y-87468945D01*
X138409445Y-87355699D01*
X138542599Y-87266729D01*
X138690558Y-87205442D01*
X138847625Y-87174200D01*
X139007775Y-87174200D01*
X139164842Y-87205442D01*
X139164842Y-87205442D01*
G37*
G36*
X192504842Y-87205442D02*
G01*
X192652801Y-87266729D01*
X192785955Y-87355699D01*
X192899201Y-87468945D01*
X192988171Y-87602099D01*
X193049458Y-87750058D01*
X193080700Y-87907125D01*
X193080700Y-88067275D01*
X193049458Y-88224342D01*
X192988171Y-88372301D01*
X192899201Y-88505455D01*
X192785955Y-88618701D01*
X192652801Y-88707671D01*
X192504842Y-88768958D01*
X192347775Y-88800200D01*
X192187625Y-88800200D01*
X192030558Y-88768958D01*
X191882599Y-88707671D01*
X191749445Y-88618701D01*
X191636199Y-88505455D01*
X191547229Y-88372301D01*
X191485942Y-88224342D01*
X191454700Y-88067275D01*
X191454700Y-87907125D01*
X191485942Y-87750058D01*
X191547229Y-87602099D01*
X191636199Y-87468945D01*
X191749445Y-87355699D01*
X191882599Y-87266729D01*
X192030558Y-87205442D01*
X192187625Y-87174200D01*
X192347775Y-87174200D01*
X192504842Y-87205442D01*
X192504842Y-87205442D01*
G37*
G36*
X112494842Y-87205442D02*
G01*
X112642801Y-87266729D01*
X112775955Y-87355699D01*
X112889201Y-87468945D01*
X112978171Y-87602099D01*
X113039458Y-87750058D01*
X113070700Y-87907125D01*
X113070700Y-88067275D01*
X113039458Y-88224342D01*
X112978171Y-88372301D01*
X112889201Y-88505455D01*
X112775955Y-88618701D01*
X112642801Y-88707671D01*
X112494842Y-88768958D01*
X112337775Y-88800200D01*
X112177625Y-88800200D01*
X112020558Y-88768958D01*
X111872599Y-88707671D01*
X111739445Y-88618701D01*
X111626199Y-88505455D01*
X111537229Y-88372301D01*
X111475942Y-88224342D01*
X111444700Y-88067275D01*
X111444700Y-87907125D01*
X111475942Y-87750058D01*
X111537229Y-87602099D01*
X111626199Y-87468945D01*
X111739445Y-87355699D01*
X111872599Y-87266729D01*
X112020558Y-87205442D01*
X112177625Y-87174200D01*
X112337775Y-87174200D01*
X112494842Y-87205442D01*
X112494842Y-87205442D01*
G37*
G36*
X147389642Y-86353042D02*
G01*
X147537601Y-86414329D01*
X147670755Y-86503299D01*
X147784001Y-86616545D01*
X147872971Y-86749699D01*
X147934258Y-86897658D01*
X147965500Y-87054725D01*
X147965500Y-87214875D01*
X147934258Y-87371942D01*
X147872971Y-87519901D01*
X147784001Y-87653055D01*
X147670755Y-87766301D01*
X147537601Y-87855271D01*
X147389642Y-87916558D01*
X147232575Y-87947800D01*
X147072425Y-87947800D01*
X146915358Y-87916558D01*
X146767399Y-87855271D01*
X146634245Y-87766301D01*
X146520999Y-87653055D01*
X146432029Y-87519901D01*
X146370742Y-87371942D01*
X146339500Y-87214875D01*
X146339500Y-87054725D01*
X146370742Y-86897658D01*
X146432029Y-86749699D01*
X146520999Y-86616545D01*
X146634245Y-86503299D01*
X146767399Y-86414329D01*
X146915358Y-86353042D01*
X147072425Y-86321800D01*
X147232575Y-86321800D01*
X147389642Y-86353042D01*
X147389642Y-86353042D01*
G37*
G36*
X94049642Y-86353042D02*
G01*
X94197601Y-86414329D01*
X94330755Y-86503299D01*
X94444001Y-86616545D01*
X94532971Y-86749699D01*
X94594258Y-86897658D01*
X94625500Y-87054725D01*
X94625500Y-87214875D01*
X94594258Y-87371942D01*
X94532971Y-87519901D01*
X94444001Y-87653055D01*
X94330755Y-87766301D01*
X94197601Y-87855271D01*
X94049642Y-87916558D01*
X93892575Y-87947800D01*
X93732425Y-87947800D01*
X93575358Y-87916558D01*
X93427399Y-87855271D01*
X93294245Y-87766301D01*
X93180999Y-87653055D01*
X93092029Y-87519901D01*
X93030742Y-87371942D01*
X92999500Y-87214875D01*
X92999500Y-87054725D01*
X93030742Y-86897658D01*
X93092029Y-86749699D01*
X93180999Y-86616545D01*
X93294245Y-86503299D01*
X93427399Y-86414329D01*
X93575358Y-86353042D01*
X93732425Y-86321800D01*
X93892575Y-86321800D01*
X94049642Y-86353042D01*
X94049642Y-86353042D01*
G37*
G36*
X120719642Y-86353042D02*
G01*
X120867601Y-86414329D01*
X121000755Y-86503299D01*
X121114001Y-86616545D01*
X121202971Y-86749699D01*
X121264258Y-86897658D01*
X121295500Y-87054725D01*
X121295500Y-87214875D01*
X121264258Y-87371942D01*
X121202971Y-87519901D01*
X121114001Y-87653055D01*
X121000755Y-87766301D01*
X120867601Y-87855271D01*
X120719642Y-87916558D01*
X120562575Y-87947800D01*
X120402425Y-87947800D01*
X120245358Y-87916558D01*
X120097399Y-87855271D01*
X119964245Y-87766301D01*
X119850999Y-87653055D01*
X119762029Y-87519901D01*
X119700742Y-87371942D01*
X119669500Y-87214875D01*
X119669500Y-87054725D01*
X119700742Y-86897658D01*
X119762029Y-86749699D01*
X119850999Y-86616545D01*
X119964245Y-86503299D01*
X120097399Y-86414329D01*
X120245358Y-86353042D01*
X120402425Y-86321800D01*
X120562575Y-86321800D01*
X120719642Y-86353042D01*
X120719642Y-86353042D01*
G37*
G36*
X174059642Y-86353042D02*
G01*
X174207601Y-86414329D01*
X174340755Y-86503299D01*
X174454001Y-86616545D01*
X174542971Y-86749699D01*
X174604258Y-86897658D01*
X174635500Y-87054725D01*
X174635500Y-87214875D01*
X174604258Y-87371942D01*
X174542971Y-87519901D01*
X174454001Y-87653055D01*
X174340755Y-87766301D01*
X174207601Y-87855271D01*
X174059642Y-87916558D01*
X173902575Y-87947800D01*
X173742425Y-87947800D01*
X173585358Y-87916558D01*
X173437399Y-87855271D01*
X173304245Y-87766301D01*
X173190999Y-87653055D01*
X173102029Y-87519901D01*
X173040742Y-87371942D01*
X173009500Y-87214875D01*
X173009500Y-87054725D01*
X173040742Y-86897658D01*
X173102029Y-86749699D01*
X173190999Y-86616545D01*
X173304245Y-86503299D01*
X173437399Y-86414329D01*
X173585358Y-86353042D01*
X173742425Y-86321800D01*
X173902575Y-86321800D01*
X174059642Y-86353042D01*
X174059642Y-86353042D01*
G37*
G36*
X150534642Y-76511442D02*
G01*
X150682601Y-76572729D01*
X150815755Y-76661699D01*
X150929001Y-76774945D01*
X151017971Y-76908099D01*
X151079258Y-77056058D01*
X151110500Y-77213125D01*
X151110500Y-77373275D01*
X151079258Y-77530342D01*
X151017971Y-77678301D01*
X150929001Y-77811455D01*
X150815755Y-77924701D01*
X150682601Y-78013671D01*
X150534642Y-78074958D01*
X150377575Y-78106200D01*
X150217425Y-78106200D01*
X150060358Y-78074958D01*
X149912399Y-78013671D01*
X149779245Y-77924701D01*
X149665999Y-77811455D01*
X149577029Y-77678301D01*
X149515742Y-77530342D01*
X149484500Y-77373275D01*
X149484500Y-77213125D01*
X149515742Y-77056058D01*
X149577029Y-76908099D01*
X149665999Y-76774945D01*
X149779245Y-76661699D01*
X149912399Y-76572729D01*
X150060358Y-76511442D01*
X150217425Y-76480200D01*
X150377575Y-76480200D01*
X150534642Y-76511442D01*
X150534642Y-76511442D01*
G37*
G36*
X185864642Y-76511442D02*
G01*
X186012601Y-76572729D01*
X186145755Y-76661699D01*
X186259001Y-76774945D01*
X186347971Y-76908099D01*
X186409258Y-77056058D01*
X186440500Y-77213125D01*
X186440500Y-77373275D01*
X186409258Y-77530342D01*
X186347971Y-77678301D01*
X186259001Y-77811455D01*
X186145755Y-77924701D01*
X186012601Y-78013671D01*
X185864642Y-78074958D01*
X185707575Y-78106200D01*
X185547425Y-78106200D01*
X185390358Y-78074958D01*
X185242399Y-78013671D01*
X185109245Y-77924701D01*
X184995999Y-77811455D01*
X184907029Y-77678301D01*
X184845742Y-77530342D01*
X184814500Y-77373275D01*
X184814500Y-77213125D01*
X184845742Y-77056058D01*
X184907029Y-76908099D01*
X184995999Y-76774945D01*
X185109245Y-76661699D01*
X185242399Y-76572729D01*
X185390358Y-76511442D01*
X185547425Y-76480200D01*
X185707575Y-76480200D01*
X185864642Y-76511442D01*
X185864642Y-76511442D01*
G37*
G36*
X123864642Y-76511442D02*
G01*
X124012601Y-76572729D01*
X124145755Y-76661699D01*
X124259001Y-76774945D01*
X124347971Y-76908099D01*
X124409258Y-77056058D01*
X124440500Y-77213125D01*
X124440500Y-77373275D01*
X124409258Y-77530342D01*
X124347971Y-77678301D01*
X124259001Y-77811455D01*
X124145755Y-77924701D01*
X124012601Y-78013671D01*
X123864642Y-78074958D01*
X123707575Y-78106200D01*
X123547425Y-78106200D01*
X123390358Y-78074958D01*
X123242399Y-78013671D01*
X123109245Y-77924701D01*
X122995999Y-77811455D01*
X122907029Y-77678301D01*
X122845742Y-77530342D01*
X122814500Y-77373275D01*
X122814500Y-77213125D01*
X122845742Y-77056058D01*
X122907029Y-76908099D01*
X122995999Y-76774945D01*
X123109245Y-76661699D01*
X123242399Y-76572729D01*
X123390358Y-76511442D01*
X123547425Y-76480200D01*
X123707575Y-76480200D01*
X123864642Y-76511442D01*
X123864642Y-76511442D01*
G37*
G36*
X97194642Y-76511442D02*
G01*
X97342601Y-76572729D01*
X97475755Y-76661699D01*
X97589001Y-76774945D01*
X97677971Y-76908099D01*
X97739258Y-77056058D01*
X97770500Y-77213125D01*
X97770500Y-77373275D01*
X97739258Y-77530342D01*
X97677971Y-77678301D01*
X97589001Y-77811455D01*
X97475755Y-77924701D01*
X97342601Y-78013671D01*
X97194642Y-78074958D01*
X97037575Y-78106200D01*
X96877425Y-78106200D01*
X96720358Y-78074958D01*
X96572399Y-78013671D01*
X96439245Y-77924701D01*
X96325999Y-77811455D01*
X96237029Y-77678301D01*
X96175742Y-77530342D01*
X96144500Y-77373275D01*
X96144500Y-77213125D01*
X96175742Y-77056058D01*
X96237029Y-76908099D01*
X96325999Y-76774945D01*
X96439245Y-76661699D01*
X96572399Y-76572729D01*
X96720358Y-76511442D01*
X96877425Y-76480200D01*
X97037575Y-76480200D01*
X97194642Y-76511442D01*
X97194642Y-76511442D01*
G37*
G36*
X105854642Y-76511442D02*
G01*
X106002601Y-76572729D01*
X106135755Y-76661699D01*
X106249001Y-76774945D01*
X106337971Y-76908099D01*
X106399258Y-77056058D01*
X106430500Y-77213125D01*
X106430500Y-77373275D01*
X106399258Y-77530342D01*
X106337971Y-77678301D01*
X106249001Y-77811455D01*
X106135755Y-77924701D01*
X106002601Y-78013671D01*
X105854642Y-78074958D01*
X105697575Y-78106200D01*
X105537425Y-78106200D01*
X105380358Y-78074958D01*
X105232399Y-78013671D01*
X105099245Y-77924701D01*
X104985999Y-77811455D01*
X104897029Y-77678301D01*
X104835742Y-77530342D01*
X104804500Y-77373275D01*
X104804500Y-77213125D01*
X104835742Y-77056058D01*
X104897029Y-76908099D01*
X104985999Y-76774945D01*
X105099245Y-76661699D01*
X105232399Y-76572729D01*
X105380358Y-76511442D01*
X105537425Y-76480200D01*
X105697575Y-76480200D01*
X105854642Y-76511442D01*
X105854642Y-76511442D01*
G37*
G36*
X132524642Y-76511442D02*
G01*
X132672601Y-76572729D01*
X132805755Y-76661699D01*
X132919001Y-76774945D01*
X133007971Y-76908099D01*
X133069258Y-77056058D01*
X133100500Y-77213125D01*
X133100500Y-77373275D01*
X133069258Y-77530342D01*
X133007971Y-77678301D01*
X132919001Y-77811455D01*
X132805755Y-77924701D01*
X132672601Y-78013671D01*
X132524642Y-78074958D01*
X132367575Y-78106200D01*
X132207425Y-78106200D01*
X132050358Y-78074958D01*
X131902399Y-78013671D01*
X131769245Y-77924701D01*
X131655999Y-77811455D01*
X131567029Y-77678301D01*
X131505742Y-77530342D01*
X131474500Y-77373275D01*
X131474500Y-77213125D01*
X131505742Y-77056058D01*
X131567029Y-76908099D01*
X131655999Y-76774945D01*
X131769245Y-76661699D01*
X131902399Y-76572729D01*
X132050358Y-76511442D01*
X132207425Y-76480200D01*
X132367575Y-76480200D01*
X132524642Y-76511442D01*
X132524642Y-76511442D01*
G37*
G36*
X177204642Y-76511442D02*
G01*
X177352601Y-76572729D01*
X177485755Y-76661699D01*
X177599001Y-76774945D01*
X177687971Y-76908099D01*
X177749258Y-77056058D01*
X177780500Y-77213125D01*
X177780500Y-77373275D01*
X177749258Y-77530342D01*
X177687971Y-77678301D01*
X177599001Y-77811455D01*
X177485755Y-77924701D01*
X177352601Y-78013671D01*
X177204642Y-78074958D01*
X177047575Y-78106200D01*
X176887425Y-78106200D01*
X176730358Y-78074958D01*
X176582399Y-78013671D01*
X176449245Y-77924701D01*
X176335999Y-77811455D01*
X176247029Y-77678301D01*
X176185742Y-77530342D01*
X176154500Y-77373275D01*
X176154500Y-77213125D01*
X176185742Y-77056058D01*
X176247029Y-76908099D01*
X176335999Y-76774945D01*
X176449245Y-76661699D01*
X176582399Y-76572729D01*
X176730358Y-76511442D01*
X176887425Y-76480200D01*
X177047575Y-76480200D01*
X177204642Y-76511442D01*
X177204642Y-76511442D01*
G37*
G36*
X159194642Y-76511442D02*
G01*
X159342601Y-76572729D01*
X159475755Y-76661699D01*
X159589001Y-76774945D01*
X159677971Y-76908099D01*
X159739258Y-77056058D01*
X159770500Y-77213125D01*
X159770500Y-77373275D01*
X159739258Y-77530342D01*
X159677971Y-77678301D01*
X159589001Y-77811455D01*
X159475755Y-77924701D01*
X159342601Y-78013671D01*
X159194642Y-78074958D01*
X159037575Y-78106200D01*
X158877425Y-78106200D01*
X158720358Y-78074958D01*
X158572399Y-78013671D01*
X158439245Y-77924701D01*
X158325999Y-77811455D01*
X158237029Y-77678301D01*
X158175742Y-77530342D01*
X158144500Y-77373275D01*
X158144500Y-77213125D01*
X158175742Y-77056058D01*
X158237029Y-76908099D01*
X158325999Y-76774945D01*
X158439245Y-76661699D01*
X158572399Y-76572729D01*
X158720358Y-76511442D01*
X158877425Y-76480200D01*
X159037575Y-76480200D01*
X159194642Y-76511442D01*
X159194642Y-76511442D01*
G37*
G36*
X103008768Y-76291765D02*
G01*
X103047438Y-76303496D01*
X103083077Y-76322546D01*
X103114317Y-76348183D01*
X103139954Y-76379423D01*
X103159004Y-76415062D01*
X103170735Y-76453732D01*
X103175300Y-76500088D01*
X103175300Y-77576312D01*
X103170735Y-77622668D01*
X103159004Y-77661338D01*
X103139954Y-77696977D01*
X103114317Y-77728217D01*
X103083077Y-77753854D01*
X103047438Y-77772904D01*
X103008768Y-77784635D01*
X102962412Y-77789200D01*
X102311188Y-77789200D01*
X102264832Y-77784635D01*
X102226162Y-77772904D01*
X102190523Y-77753854D01*
X102159283Y-77728217D01*
X102133646Y-77696977D01*
X102114596Y-77661338D01*
X102102865Y-77622668D01*
X102098300Y-77576312D01*
X102098300Y-76500088D01*
X102102865Y-76453732D01*
X102114596Y-76415062D01*
X102133646Y-76379423D01*
X102159283Y-76348183D01*
X102190523Y-76322546D01*
X102226162Y-76303496D01*
X102264832Y-76291765D01*
X102311188Y-76287200D01*
X102962412Y-76287200D01*
X103008768Y-76291765D01*
X103008768Y-76291765D01*
G37*
G36*
X101133768Y-76291765D02*
G01*
X101172438Y-76303496D01*
X101208077Y-76322546D01*
X101239317Y-76348183D01*
X101264954Y-76379423D01*
X101284004Y-76415062D01*
X101295735Y-76453732D01*
X101300300Y-76500088D01*
X101300300Y-77576312D01*
X101295735Y-77622668D01*
X101284004Y-77661338D01*
X101264954Y-77696977D01*
X101239317Y-77728217D01*
X101208077Y-77753854D01*
X101172438Y-77772904D01*
X101133768Y-77784635D01*
X101087412Y-77789200D01*
X100436188Y-77789200D01*
X100389832Y-77784635D01*
X100351162Y-77772904D01*
X100315523Y-77753854D01*
X100284283Y-77728217D01*
X100258646Y-77696977D01*
X100239596Y-77661338D01*
X100227865Y-77622668D01*
X100223300Y-77576312D01*
X100223300Y-76500088D01*
X100227865Y-76453732D01*
X100239596Y-76415062D01*
X100258646Y-76379423D01*
X100284283Y-76348183D01*
X100315523Y-76322546D01*
X100351162Y-76303496D01*
X100389832Y-76291765D01*
X100436188Y-76287200D01*
X101087412Y-76287200D01*
X101133768Y-76291765D01*
X101133768Y-76291765D01*
G37*
G36*
X154198968Y-75961565D02*
G01*
X154237638Y-75973296D01*
X154273277Y-75992346D01*
X154304517Y-76017983D01*
X154330154Y-76049223D01*
X154349204Y-76084862D01*
X154360935Y-76123532D01*
X154365500Y-76169888D01*
X154365500Y-77246112D01*
X154360935Y-77292468D01*
X154349204Y-77331138D01*
X154330154Y-77366777D01*
X154304517Y-77398017D01*
X154273277Y-77423654D01*
X154237638Y-77442704D01*
X154198968Y-77454435D01*
X154152612Y-77459000D01*
X153501388Y-77459000D01*
X153455032Y-77454435D01*
X153416362Y-77442704D01*
X153380723Y-77423654D01*
X153349483Y-77398017D01*
X153323846Y-77366777D01*
X153304796Y-77331138D01*
X153293065Y-77292468D01*
X153288500Y-77246112D01*
X153288500Y-76169888D01*
X153293065Y-76123532D01*
X153304796Y-76084862D01*
X153323846Y-76049223D01*
X153349483Y-76017983D01*
X153380723Y-75992346D01*
X153416362Y-75973296D01*
X153455032Y-75961565D01*
X153501388Y-75957000D01*
X154152612Y-75957000D01*
X154198968Y-75961565D01*
X154198968Y-75961565D01*
G37*
G36*
X181044468Y-75961565D02*
G01*
X181083138Y-75973296D01*
X181118777Y-75992346D01*
X181150017Y-76017983D01*
X181175654Y-76049223D01*
X181194704Y-76084862D01*
X181206435Y-76123532D01*
X181211000Y-76169888D01*
X181211000Y-77246112D01*
X181206435Y-77292468D01*
X181194704Y-77331138D01*
X181175654Y-77366777D01*
X181150017Y-77398017D01*
X181118777Y-77423654D01*
X181083138Y-77442704D01*
X181044468Y-77454435D01*
X180998112Y-77459000D01*
X180346888Y-77459000D01*
X180300532Y-77454435D01*
X180261862Y-77442704D01*
X180226223Y-77423654D01*
X180194983Y-77398017D01*
X180169346Y-77366777D01*
X180150296Y-77331138D01*
X180138565Y-77292468D01*
X180134000Y-77246112D01*
X180134000Y-76169888D01*
X180138565Y-76123532D01*
X180150296Y-76084862D01*
X180169346Y-76049223D01*
X180194983Y-76017983D01*
X180226223Y-75992346D01*
X180261862Y-75973296D01*
X180300532Y-75961565D01*
X180346888Y-75957000D01*
X180998112Y-75957000D01*
X181044468Y-75961565D01*
X181044468Y-75961565D01*
G37*
G36*
X182919468Y-75961565D02*
G01*
X182958138Y-75973296D01*
X182993777Y-75992346D01*
X183025017Y-76017983D01*
X183050654Y-76049223D01*
X183069704Y-76084862D01*
X183081435Y-76123532D01*
X183086000Y-76169888D01*
X183086000Y-77246112D01*
X183081435Y-77292468D01*
X183069704Y-77331138D01*
X183050654Y-77366777D01*
X183025017Y-77398017D01*
X182993777Y-77423654D01*
X182958138Y-77442704D01*
X182919468Y-77454435D01*
X182873112Y-77459000D01*
X182221888Y-77459000D01*
X182175532Y-77454435D01*
X182136862Y-77442704D01*
X182101223Y-77423654D01*
X182069983Y-77398017D01*
X182044346Y-77366777D01*
X182025296Y-77331138D01*
X182013565Y-77292468D01*
X182009000Y-77246112D01*
X182009000Y-76169888D01*
X182013565Y-76123532D01*
X182025296Y-76084862D01*
X182044346Y-76049223D01*
X182069983Y-76017983D01*
X182101223Y-75992346D01*
X182136862Y-75973296D01*
X182175532Y-75961565D01*
X182221888Y-75957000D01*
X182873112Y-75957000D01*
X182919468Y-75961565D01*
X182919468Y-75961565D01*
G37*
G36*
X127704468Y-75961565D02*
G01*
X127743138Y-75973296D01*
X127778777Y-75992346D01*
X127810017Y-76017983D01*
X127835654Y-76049223D01*
X127854704Y-76084862D01*
X127866435Y-76123532D01*
X127871000Y-76169888D01*
X127871000Y-77246112D01*
X127866435Y-77292468D01*
X127854704Y-77331138D01*
X127835654Y-77366777D01*
X127810017Y-77398017D01*
X127778777Y-77423654D01*
X127743138Y-77442704D01*
X127704468Y-77454435D01*
X127658112Y-77459000D01*
X127006888Y-77459000D01*
X126960532Y-77454435D01*
X126921862Y-77442704D01*
X126886223Y-77423654D01*
X126854983Y-77398017D01*
X126829346Y-77366777D01*
X126810296Y-77331138D01*
X126798565Y-77292468D01*
X126794000Y-77246112D01*
X126794000Y-76169888D01*
X126798565Y-76123532D01*
X126810296Y-76084862D01*
X126829346Y-76049223D01*
X126854983Y-76017983D01*
X126886223Y-75992346D01*
X126921862Y-75973296D01*
X126960532Y-75961565D01*
X127006888Y-75957000D01*
X127658112Y-75957000D01*
X127704468Y-75961565D01*
X127704468Y-75961565D01*
G37*
G36*
X129579468Y-75961565D02*
G01*
X129618138Y-75973296D01*
X129653777Y-75992346D01*
X129685017Y-76017983D01*
X129710654Y-76049223D01*
X129729704Y-76084862D01*
X129741435Y-76123532D01*
X129746000Y-76169888D01*
X129746000Y-77246112D01*
X129741435Y-77292468D01*
X129729704Y-77331138D01*
X129710654Y-77366777D01*
X129685017Y-77398017D01*
X129653777Y-77423654D01*
X129618138Y-77442704D01*
X129579468Y-77454435D01*
X129533112Y-77459000D01*
X128881888Y-77459000D01*
X128835532Y-77454435D01*
X128796862Y-77442704D01*
X128761223Y-77423654D01*
X128729983Y-77398017D01*
X128704346Y-77366777D01*
X128685296Y-77331138D01*
X128673565Y-77292468D01*
X128669000Y-77246112D01*
X128669000Y-76169888D01*
X128673565Y-76123532D01*
X128685296Y-76084862D01*
X128704346Y-76049223D01*
X128729983Y-76017983D01*
X128761223Y-75992346D01*
X128796862Y-75973296D01*
X128835532Y-75961565D01*
X128881888Y-75957000D01*
X129533112Y-75957000D01*
X129579468Y-75961565D01*
X129579468Y-75961565D01*
G37*
G36*
X156073968Y-75961565D02*
G01*
X156112638Y-75973296D01*
X156148277Y-75992346D01*
X156179517Y-76017983D01*
X156205154Y-76049223D01*
X156224204Y-76084862D01*
X156235935Y-76123532D01*
X156240500Y-76169888D01*
X156240500Y-77246112D01*
X156235935Y-77292468D01*
X156224204Y-77331138D01*
X156205154Y-77366777D01*
X156179517Y-77398017D01*
X156148277Y-77423654D01*
X156112638Y-77442704D01*
X156073968Y-77454435D01*
X156027612Y-77459000D01*
X155376388Y-77459000D01*
X155330032Y-77454435D01*
X155291362Y-77442704D01*
X155255723Y-77423654D01*
X155224483Y-77398017D01*
X155198846Y-77366777D01*
X155179796Y-77331138D01*
X155168065Y-77292468D01*
X155163500Y-77246112D01*
X155163500Y-76169888D01*
X155168065Y-76123532D01*
X155179796Y-76084862D01*
X155198846Y-76049223D01*
X155224483Y-76017983D01*
X155255723Y-75992346D01*
X155291362Y-75973296D01*
X155330032Y-75961565D01*
X155376388Y-75957000D01*
X156027612Y-75957000D01*
X156073968Y-75961565D01*
X156073968Y-75961565D01*
G37*
G36*
X184957867Y-74303004D02*
G01*
X184981292Y-74310110D01*
X185002889Y-74321654D01*
X185021814Y-74337186D01*
X185037346Y-74356111D01*
X185048890Y-74377708D01*
X185055996Y-74401133D01*
X185059000Y-74431638D01*
X185059000Y-74920362D01*
X185055996Y-74950867D01*
X185048890Y-74974292D01*
X185037346Y-74995889D01*
X185021814Y-75014814D01*
X185002889Y-75030346D01*
X184981292Y-75041890D01*
X184957867Y-75048996D01*
X184927362Y-75052000D01*
X183113638Y-75052000D01*
X183083133Y-75048996D01*
X183059708Y-75041890D01*
X183038111Y-75030346D01*
X183019186Y-75014814D01*
X183003654Y-74995889D01*
X182992110Y-74974292D01*
X182985004Y-74950867D01*
X182982000Y-74920362D01*
X182982000Y-74431638D01*
X182985004Y-74401133D01*
X182992110Y-74377708D01*
X183003654Y-74356111D01*
X183019186Y-74337186D01*
X183038111Y-74321654D01*
X183059708Y-74310110D01*
X183083133Y-74303004D01*
X183113638Y-74300000D01*
X184927362Y-74300000D01*
X184957867Y-74303004D01*
X184957867Y-74303004D01*
G37*
G36*
X179882867Y-74303004D02*
G01*
X179906292Y-74310110D01*
X179927889Y-74321654D01*
X179946814Y-74337186D01*
X179962346Y-74356111D01*
X179973890Y-74377708D01*
X179980996Y-74401133D01*
X179984000Y-74431638D01*
X179984000Y-74920362D01*
X179980996Y-74950867D01*
X179973890Y-74974292D01*
X179962346Y-74995889D01*
X179946814Y-75014814D01*
X179927889Y-75030346D01*
X179906292Y-75041890D01*
X179882867Y-75048996D01*
X179852362Y-75052000D01*
X178038638Y-75052000D01*
X178008133Y-75048996D01*
X177984708Y-75041890D01*
X177963111Y-75030346D01*
X177944186Y-75014814D01*
X177928654Y-74995889D01*
X177917110Y-74974292D01*
X177910004Y-74950867D01*
X177907000Y-74920362D01*
X177907000Y-74431638D01*
X177910004Y-74401133D01*
X177917110Y-74377708D01*
X177928654Y-74356111D01*
X177944186Y-74337186D01*
X177963111Y-74321654D01*
X177984708Y-74310110D01*
X178008133Y-74303004D01*
X178038638Y-74300000D01*
X179852362Y-74300000D01*
X179882867Y-74303004D01*
X179882867Y-74303004D01*
G37*
G36*
X158534247Y-74226804D02*
G01*
X158557672Y-74233910D01*
X158579269Y-74245454D01*
X158598194Y-74260986D01*
X158613726Y-74279911D01*
X158625270Y-74301508D01*
X158632376Y-74324933D01*
X158635380Y-74355438D01*
X158635380Y-74844162D01*
X158632376Y-74874667D01*
X158625270Y-74898092D01*
X158613726Y-74919689D01*
X158598194Y-74938614D01*
X158579269Y-74954146D01*
X158557672Y-74965690D01*
X158534247Y-74972796D01*
X158503742Y-74975800D01*
X156690018Y-74975800D01*
X156659513Y-74972796D01*
X156636088Y-74965690D01*
X156614491Y-74954146D01*
X156595566Y-74938614D01*
X156580034Y-74919689D01*
X156568490Y-74898092D01*
X156561384Y-74874667D01*
X156558380Y-74844162D01*
X156558380Y-74355438D01*
X156561384Y-74324933D01*
X156568490Y-74301508D01*
X156580034Y-74279911D01*
X156595566Y-74260986D01*
X156614491Y-74245454D01*
X156636088Y-74233910D01*
X156659513Y-74226804D01*
X156690018Y-74223800D01*
X158503742Y-74223800D01*
X158534247Y-74226804D01*
X158534247Y-74226804D01*
G37*
G36*
X153459247Y-74226804D02*
G01*
X153482672Y-74233910D01*
X153504269Y-74245454D01*
X153523194Y-74260986D01*
X153538726Y-74279911D01*
X153550270Y-74301508D01*
X153557376Y-74324933D01*
X153560380Y-74355438D01*
X153560380Y-74844162D01*
X153557376Y-74874667D01*
X153550270Y-74898092D01*
X153538726Y-74919689D01*
X153523194Y-74938614D01*
X153504269Y-74954146D01*
X153482672Y-74965690D01*
X153459247Y-74972796D01*
X153428742Y-74975800D01*
X151615018Y-74975800D01*
X151584513Y-74972796D01*
X151561088Y-74965690D01*
X151539491Y-74954146D01*
X151520566Y-74938614D01*
X151505034Y-74919689D01*
X151493490Y-74898092D01*
X151486384Y-74874667D01*
X151483380Y-74844162D01*
X151483380Y-74355438D01*
X151486384Y-74324933D01*
X151493490Y-74301508D01*
X151505034Y-74279911D01*
X151520566Y-74260986D01*
X151539491Y-74245454D01*
X151561088Y-74233910D01*
X151584513Y-74226804D01*
X151615018Y-74223800D01*
X153428742Y-74223800D01*
X153459247Y-74226804D01*
X153459247Y-74226804D01*
G37*
G36*
X105788607Y-74203944D02*
G01*
X105812032Y-74211050D01*
X105833629Y-74222594D01*
X105852554Y-74238126D01*
X105868086Y-74257051D01*
X105879630Y-74278648D01*
X105886736Y-74302073D01*
X105889740Y-74332578D01*
X105889740Y-74821302D01*
X105886736Y-74851807D01*
X105879630Y-74875232D01*
X105868086Y-74896829D01*
X105852554Y-74915754D01*
X105833629Y-74931286D01*
X105812032Y-74942830D01*
X105788607Y-74949936D01*
X105758102Y-74952940D01*
X103944378Y-74952940D01*
X103913873Y-74949936D01*
X103890448Y-74942830D01*
X103868851Y-74931286D01*
X103849926Y-74915754D01*
X103834394Y-74896829D01*
X103822850Y-74875232D01*
X103815744Y-74851807D01*
X103812740Y-74821302D01*
X103812740Y-74332578D01*
X103815744Y-74302073D01*
X103822850Y-74278648D01*
X103834394Y-74257051D01*
X103849926Y-74238126D01*
X103868851Y-74222594D01*
X103890448Y-74211050D01*
X103913873Y-74203944D01*
X103944378Y-74200940D01*
X105758102Y-74200940D01*
X105788607Y-74203944D01*
X105788607Y-74203944D01*
G37*
G36*
X100713607Y-74203944D02*
G01*
X100737032Y-74211050D01*
X100758629Y-74222594D01*
X100777554Y-74238126D01*
X100793086Y-74257051D01*
X100804630Y-74278648D01*
X100811736Y-74302073D01*
X100814740Y-74332578D01*
X100814740Y-74821302D01*
X100811736Y-74851807D01*
X100804630Y-74875232D01*
X100793086Y-74896829D01*
X100777554Y-74915754D01*
X100758629Y-74931286D01*
X100737032Y-74942830D01*
X100713607Y-74949936D01*
X100683102Y-74952940D01*
X98869378Y-74952940D01*
X98838873Y-74949936D01*
X98815448Y-74942830D01*
X98793851Y-74931286D01*
X98774926Y-74915754D01*
X98759394Y-74896829D01*
X98747850Y-74875232D01*
X98740744Y-74851807D01*
X98737740Y-74821302D01*
X98737740Y-74332578D01*
X98740744Y-74302073D01*
X98747850Y-74278648D01*
X98759394Y-74257051D01*
X98774926Y-74238126D01*
X98793851Y-74222594D01*
X98815448Y-74211050D01*
X98838873Y-74203944D01*
X98869378Y-74200940D01*
X100683102Y-74200940D01*
X100713607Y-74203944D01*
X100713607Y-74203944D01*
G37*
G36*
X132034427Y-74193784D02*
G01*
X132057852Y-74200890D01*
X132079449Y-74212434D01*
X132098374Y-74227966D01*
X132113906Y-74246891D01*
X132125450Y-74268488D01*
X132132556Y-74291913D01*
X132135560Y-74322418D01*
X132135560Y-74811142D01*
X132132556Y-74841647D01*
X132125450Y-74865072D01*
X132113906Y-74886669D01*
X132098374Y-74905594D01*
X132079449Y-74921126D01*
X132057852Y-74932670D01*
X132034427Y-74939776D01*
X132003922Y-74942780D01*
X130190198Y-74942780D01*
X130159693Y-74939776D01*
X130136268Y-74932670D01*
X130114671Y-74921126D01*
X130095746Y-74905594D01*
X130080214Y-74886669D01*
X130068670Y-74865072D01*
X130061564Y-74841647D01*
X130058560Y-74811142D01*
X130058560Y-74322418D01*
X130061564Y-74291913D01*
X130068670Y-74268488D01*
X130080214Y-74246891D01*
X130095746Y-74227966D01*
X130114671Y-74212434D01*
X130136268Y-74200890D01*
X130159693Y-74193784D01*
X130190198Y-74190780D01*
X132003922Y-74190780D01*
X132034427Y-74193784D01*
X132034427Y-74193784D01*
G37*
G36*
X126959427Y-74193784D02*
G01*
X126982852Y-74200890D01*
X127004449Y-74212434D01*
X127023374Y-74227966D01*
X127038906Y-74246891D01*
X127050450Y-74268488D01*
X127057556Y-74291913D01*
X127060560Y-74322418D01*
X127060560Y-74811142D01*
X127057556Y-74841647D01*
X127050450Y-74865072D01*
X127038906Y-74886669D01*
X127023374Y-74905594D01*
X127004449Y-74921126D01*
X126982852Y-74932670D01*
X126959427Y-74939776D01*
X126928922Y-74942780D01*
X125115198Y-74942780D01*
X125084693Y-74939776D01*
X125061268Y-74932670D01*
X125039671Y-74921126D01*
X125020746Y-74905594D01*
X125005214Y-74886669D01*
X124993670Y-74865072D01*
X124986564Y-74841647D01*
X124983560Y-74811142D01*
X124983560Y-74322418D01*
X124986564Y-74291913D01*
X124993670Y-74268488D01*
X125005214Y-74246891D01*
X125020746Y-74227966D01*
X125039671Y-74212434D01*
X125061268Y-74200890D01*
X125084693Y-74193784D01*
X125115198Y-74190780D01*
X126928922Y-74190780D01*
X126959427Y-74193784D01*
X126959427Y-74193784D01*
G37*
G36*
X176987468Y-73174565D02*
G01*
X177026138Y-73186296D01*
X177061777Y-73205346D01*
X177093017Y-73230983D01*
X177118654Y-73262223D01*
X177137704Y-73297862D01*
X177149435Y-73336532D01*
X177154000Y-73382888D01*
X177154000Y-74034112D01*
X177149435Y-74080468D01*
X177137704Y-74119138D01*
X177118654Y-74154777D01*
X177093017Y-74186017D01*
X177061777Y-74211654D01*
X177026138Y-74230704D01*
X176987468Y-74242435D01*
X176941112Y-74247000D01*
X175864888Y-74247000D01*
X175818532Y-74242435D01*
X175779862Y-74230704D01*
X175744223Y-74211654D01*
X175712983Y-74186017D01*
X175687346Y-74154777D01*
X175668296Y-74119138D01*
X175656565Y-74080468D01*
X175652000Y-74034112D01*
X175652000Y-73382888D01*
X175656565Y-73336532D01*
X175668296Y-73297862D01*
X175687346Y-73262223D01*
X175712983Y-73230983D01*
X175744223Y-73205346D01*
X175779862Y-73186296D01*
X175818532Y-73174565D01*
X175864888Y-73170000D01*
X176941112Y-73170000D01*
X176987468Y-73174565D01*
X176987468Y-73174565D01*
G37*
G36*
X150055848Y-73098365D02*
G01*
X150094518Y-73110096D01*
X150130157Y-73129146D01*
X150161397Y-73154783D01*
X150187034Y-73186023D01*
X150206084Y-73221662D01*
X150217815Y-73260332D01*
X150222380Y-73306688D01*
X150222380Y-73957912D01*
X150217815Y-74004268D01*
X150206084Y-74042938D01*
X150187034Y-74078577D01*
X150161397Y-74109817D01*
X150130157Y-74135454D01*
X150094518Y-74154504D01*
X150055848Y-74166235D01*
X150009492Y-74170800D01*
X148933268Y-74170800D01*
X148886912Y-74166235D01*
X148848242Y-74154504D01*
X148812603Y-74135454D01*
X148781363Y-74109817D01*
X148755726Y-74078577D01*
X148736676Y-74042938D01*
X148724945Y-74004268D01*
X148720380Y-73957912D01*
X148720380Y-73306688D01*
X148724945Y-73260332D01*
X148736676Y-73221662D01*
X148755726Y-73186023D01*
X148781363Y-73154783D01*
X148812603Y-73129146D01*
X148848242Y-73110096D01*
X148886912Y-73098365D01*
X148933268Y-73093800D01*
X150009492Y-73093800D01*
X150055848Y-73098365D01*
X150055848Y-73098365D01*
G37*
G36*
X97564208Y-73075505D02*
G01*
X97602878Y-73087236D01*
X97638517Y-73106286D01*
X97669757Y-73131923D01*
X97695394Y-73163163D01*
X97714444Y-73198802D01*
X97726175Y-73237472D01*
X97730740Y-73283828D01*
X97730740Y-73935052D01*
X97726175Y-73981408D01*
X97714444Y-74020078D01*
X97695394Y-74055717D01*
X97669757Y-74086957D01*
X97638517Y-74112594D01*
X97602878Y-74131644D01*
X97564208Y-74143375D01*
X97517852Y-74147940D01*
X96441628Y-74147940D01*
X96395272Y-74143375D01*
X96356602Y-74131644D01*
X96320963Y-74112594D01*
X96289723Y-74086957D01*
X96264086Y-74055717D01*
X96245036Y-74020078D01*
X96233305Y-73981408D01*
X96228740Y-73935052D01*
X96228740Y-73283828D01*
X96233305Y-73237472D01*
X96245036Y-73198802D01*
X96264086Y-73163163D01*
X96289723Y-73131923D01*
X96320963Y-73106286D01*
X96356602Y-73087236D01*
X96395272Y-73075505D01*
X96441628Y-73070940D01*
X97517852Y-73070940D01*
X97564208Y-73075505D01*
X97564208Y-73075505D01*
G37*
G36*
X124064028Y-72811345D02*
G01*
X124102698Y-72823076D01*
X124138337Y-72842126D01*
X124169577Y-72867763D01*
X124195214Y-72899003D01*
X124214264Y-72934642D01*
X124225995Y-72973312D01*
X124230560Y-73019668D01*
X124230560Y-73670892D01*
X124225995Y-73717248D01*
X124214264Y-73755918D01*
X124195214Y-73791557D01*
X124169577Y-73822797D01*
X124138337Y-73848434D01*
X124102698Y-73867484D01*
X124064028Y-73879215D01*
X124017672Y-73883780D01*
X122941448Y-73883780D01*
X122895092Y-73879215D01*
X122856422Y-73867484D01*
X122820783Y-73848434D01*
X122789543Y-73822797D01*
X122763906Y-73791557D01*
X122744856Y-73755918D01*
X122733125Y-73717248D01*
X122728560Y-73670892D01*
X122728560Y-73019668D01*
X122733125Y-72973312D01*
X122744856Y-72934642D01*
X122763906Y-72899003D01*
X122789543Y-72867763D01*
X122820783Y-72842126D01*
X122856422Y-72823076D01*
X122895092Y-72811345D01*
X122941448Y-72806780D01*
X124017672Y-72806780D01*
X124064028Y-72811345D01*
X124064028Y-72811345D01*
G37*
G36*
X184957867Y-73033004D02*
G01*
X184981292Y-73040110D01*
X185002889Y-73051654D01*
X185021814Y-73067186D01*
X185037346Y-73086111D01*
X185048890Y-73107708D01*
X185055996Y-73131133D01*
X185059000Y-73161638D01*
X185059000Y-73650362D01*
X185055996Y-73680867D01*
X185048890Y-73704292D01*
X185037346Y-73725889D01*
X185021814Y-73744814D01*
X185002889Y-73760346D01*
X184981292Y-73771890D01*
X184957867Y-73778996D01*
X184927362Y-73782000D01*
X183113638Y-73782000D01*
X183083133Y-73778996D01*
X183059708Y-73771890D01*
X183038111Y-73760346D01*
X183019186Y-73744814D01*
X183003654Y-73725889D01*
X182992110Y-73704292D01*
X182985004Y-73680867D01*
X182982000Y-73650362D01*
X182982000Y-73161638D01*
X182985004Y-73131133D01*
X182992110Y-73107708D01*
X183003654Y-73086111D01*
X183019186Y-73067186D01*
X183038111Y-73051654D01*
X183059708Y-73040110D01*
X183083133Y-73033004D01*
X183113638Y-73030000D01*
X184927362Y-73030000D01*
X184957867Y-73033004D01*
X184957867Y-73033004D01*
G37*
G36*
X179882867Y-73033004D02*
G01*
X179906292Y-73040110D01*
X179927889Y-73051654D01*
X179946814Y-73067186D01*
X179962346Y-73086111D01*
X179973890Y-73107708D01*
X179980996Y-73131133D01*
X179984000Y-73161638D01*
X179984000Y-73650362D01*
X179980996Y-73680867D01*
X179973890Y-73704292D01*
X179962346Y-73725889D01*
X179946814Y-73744814D01*
X179927889Y-73760346D01*
X179906292Y-73771890D01*
X179882867Y-73778996D01*
X179852362Y-73782000D01*
X178038638Y-73782000D01*
X178008133Y-73778996D01*
X177984708Y-73771890D01*
X177963111Y-73760346D01*
X177944186Y-73744814D01*
X177928654Y-73725889D01*
X177917110Y-73704292D01*
X177910004Y-73680867D01*
X177907000Y-73650362D01*
X177907000Y-73161638D01*
X177910004Y-73131133D01*
X177917110Y-73107708D01*
X177928654Y-73086111D01*
X177944186Y-73067186D01*
X177963111Y-73051654D01*
X177984708Y-73040110D01*
X178008133Y-73033004D01*
X178038638Y-73030000D01*
X179852362Y-73030000D01*
X179882867Y-73033004D01*
X179882867Y-73033004D01*
G37*
G36*
X153459247Y-72956804D02*
G01*
X153482672Y-72963910D01*
X153504269Y-72975454D01*
X153523194Y-72990986D01*
X153538726Y-73009911D01*
X153550270Y-73031508D01*
X153557376Y-73054933D01*
X153560380Y-73085438D01*
X153560380Y-73574162D01*
X153557376Y-73604667D01*
X153550270Y-73628092D01*
X153538726Y-73649689D01*
X153523194Y-73668614D01*
X153504269Y-73684146D01*
X153482672Y-73695690D01*
X153459247Y-73702796D01*
X153428742Y-73705800D01*
X151615018Y-73705800D01*
X151584513Y-73702796D01*
X151561088Y-73695690D01*
X151539491Y-73684146D01*
X151520566Y-73668614D01*
X151505034Y-73649689D01*
X151493490Y-73628092D01*
X151486384Y-73604667D01*
X151483380Y-73574162D01*
X151483380Y-73085438D01*
X151486384Y-73054933D01*
X151493490Y-73031508D01*
X151505034Y-73009911D01*
X151520566Y-72990986D01*
X151539491Y-72975454D01*
X151561088Y-72963910D01*
X151584513Y-72956804D01*
X151615018Y-72953800D01*
X153428742Y-72953800D01*
X153459247Y-72956804D01*
X153459247Y-72956804D01*
G37*
G36*
X158534247Y-72956804D02*
G01*
X158557672Y-72963910D01*
X158579269Y-72975454D01*
X158598194Y-72990986D01*
X158613726Y-73009911D01*
X158625270Y-73031508D01*
X158632376Y-73054933D01*
X158635380Y-73085438D01*
X158635380Y-73574162D01*
X158632376Y-73604667D01*
X158625270Y-73628092D01*
X158613726Y-73649689D01*
X158598194Y-73668614D01*
X158579269Y-73684146D01*
X158557672Y-73695690D01*
X158534247Y-73702796D01*
X158503742Y-73705800D01*
X156690018Y-73705800D01*
X156659513Y-73702796D01*
X156636088Y-73695690D01*
X156614491Y-73684146D01*
X156595566Y-73668614D01*
X156580034Y-73649689D01*
X156568490Y-73628092D01*
X156561384Y-73604667D01*
X156558380Y-73574162D01*
X156558380Y-73085438D01*
X156561384Y-73054933D01*
X156568490Y-73031508D01*
X156580034Y-73009911D01*
X156595566Y-72990986D01*
X156614491Y-72975454D01*
X156636088Y-72963910D01*
X156659513Y-72956804D01*
X156690018Y-72953800D01*
X158503742Y-72953800D01*
X158534247Y-72956804D01*
X158534247Y-72956804D01*
G37*
G36*
X105788607Y-72933944D02*
G01*
X105812032Y-72941050D01*
X105833629Y-72952594D01*
X105852554Y-72968126D01*
X105868086Y-72987051D01*
X105879630Y-73008648D01*
X105886736Y-73032073D01*
X105889740Y-73062578D01*
X105889740Y-73551302D01*
X105886736Y-73581807D01*
X105879630Y-73605232D01*
X105868086Y-73626829D01*
X105852554Y-73645754D01*
X105833629Y-73661286D01*
X105812032Y-73672830D01*
X105788607Y-73679936D01*
X105758102Y-73682940D01*
X103944378Y-73682940D01*
X103913873Y-73679936D01*
X103890448Y-73672830D01*
X103868851Y-73661286D01*
X103849926Y-73645754D01*
X103834394Y-73626829D01*
X103822850Y-73605232D01*
X103815744Y-73581807D01*
X103812740Y-73551302D01*
X103812740Y-73062578D01*
X103815744Y-73032073D01*
X103822850Y-73008648D01*
X103834394Y-72987051D01*
X103849926Y-72968126D01*
X103868851Y-72952594D01*
X103890448Y-72941050D01*
X103913873Y-72933944D01*
X103944378Y-72930940D01*
X105758102Y-72930940D01*
X105788607Y-72933944D01*
X105788607Y-72933944D01*
G37*
G36*
X100713607Y-72933944D02*
G01*
X100737032Y-72941050D01*
X100758629Y-72952594D01*
X100777554Y-72968126D01*
X100793086Y-72987051D01*
X100804630Y-73008648D01*
X100811736Y-73032073D01*
X100814740Y-73062578D01*
X100814740Y-73551302D01*
X100811736Y-73581807D01*
X100804630Y-73605232D01*
X100793086Y-73626829D01*
X100777554Y-73645754D01*
X100758629Y-73661286D01*
X100737032Y-73672830D01*
X100713607Y-73679936D01*
X100683102Y-73682940D01*
X98869378Y-73682940D01*
X98838873Y-73679936D01*
X98815448Y-73672830D01*
X98793851Y-73661286D01*
X98774926Y-73645754D01*
X98759394Y-73626829D01*
X98747850Y-73605232D01*
X98740744Y-73581807D01*
X98737740Y-73551302D01*
X98737740Y-73062578D01*
X98740744Y-73032073D01*
X98747850Y-73008648D01*
X98759394Y-72987051D01*
X98774926Y-72968126D01*
X98793851Y-72952594D01*
X98815448Y-72941050D01*
X98838873Y-72933944D01*
X98869378Y-72930940D01*
X100683102Y-72930940D01*
X100713607Y-72933944D01*
X100713607Y-72933944D01*
G37*
G36*
X132034427Y-72923784D02*
G01*
X132057852Y-72930890D01*
X132079449Y-72942434D01*
X132098374Y-72957966D01*
X132113906Y-72976891D01*
X132125450Y-72998488D01*
X132132556Y-73021913D01*
X132135560Y-73052418D01*
X132135560Y-73541142D01*
X132132556Y-73571647D01*
X132125450Y-73595072D01*
X132113906Y-73616669D01*
X132098374Y-73635594D01*
X132079449Y-73651126D01*
X132057852Y-73662670D01*
X132034427Y-73669776D01*
X132003922Y-73672780D01*
X130190198Y-73672780D01*
X130159693Y-73669776D01*
X130136268Y-73662670D01*
X130114671Y-73651126D01*
X130095746Y-73635594D01*
X130080214Y-73616669D01*
X130068670Y-73595072D01*
X130061564Y-73571647D01*
X130058560Y-73541142D01*
X130058560Y-73052418D01*
X130061564Y-73021913D01*
X130068670Y-72998488D01*
X130080214Y-72976891D01*
X130095746Y-72957966D01*
X130114671Y-72942434D01*
X130136268Y-72930890D01*
X130159693Y-72923784D01*
X130190198Y-72920780D01*
X132003922Y-72920780D01*
X132034427Y-72923784D01*
X132034427Y-72923784D01*
G37*
G36*
X126959427Y-72923784D02*
G01*
X126982852Y-72930890D01*
X127004449Y-72942434D01*
X127023374Y-72957966D01*
X127038906Y-72976891D01*
X127050450Y-72998488D01*
X127057556Y-73021913D01*
X127060560Y-73052418D01*
X127060560Y-73541142D01*
X127057556Y-73571647D01*
X127050450Y-73595072D01*
X127038906Y-73616669D01*
X127023374Y-73635594D01*
X127004449Y-73651126D01*
X126982852Y-73662670D01*
X126959427Y-73669776D01*
X126928922Y-73672780D01*
X125115198Y-73672780D01*
X125084693Y-73669776D01*
X125061268Y-73662670D01*
X125039671Y-73651126D01*
X125020746Y-73635594D01*
X125005214Y-73616669D01*
X124993670Y-73595072D01*
X124986564Y-73571647D01*
X124983560Y-73541142D01*
X124983560Y-73052418D01*
X124986564Y-73021913D01*
X124993670Y-72998488D01*
X125005214Y-72976891D01*
X125020746Y-72957966D01*
X125039671Y-72942434D01*
X125061268Y-72930890D01*
X125084693Y-72923784D01*
X125115198Y-72920780D01*
X126928922Y-72920780D01*
X126959427Y-72923784D01*
X126959427Y-72923784D01*
G37*
G36*
X188682968Y-71643565D02*
G01*
X188721638Y-71655296D01*
X188757277Y-71674346D01*
X188788517Y-71699983D01*
X188814154Y-71731223D01*
X188833204Y-71766862D01*
X188844935Y-71805532D01*
X188849500Y-71851888D01*
X188849500Y-72928112D01*
X188844935Y-72974468D01*
X188833204Y-73013138D01*
X188814154Y-73048777D01*
X188788517Y-73080017D01*
X188757277Y-73105654D01*
X188721638Y-73124704D01*
X188682968Y-73136435D01*
X188636612Y-73141000D01*
X187985388Y-73141000D01*
X187939032Y-73136435D01*
X187900362Y-73124704D01*
X187864723Y-73105654D01*
X187833483Y-73080017D01*
X187807846Y-73048777D01*
X187788796Y-73013138D01*
X187777065Y-72974468D01*
X187772500Y-72928112D01*
X187772500Y-71851888D01*
X187777065Y-71805532D01*
X187788796Y-71766862D01*
X187807846Y-71731223D01*
X187833483Y-71699983D01*
X187864723Y-71674346D01*
X187900362Y-71655296D01*
X187939032Y-71643565D01*
X187985388Y-71639000D01*
X188636612Y-71639000D01*
X188682968Y-71643565D01*
X188682968Y-71643565D01*
G37*
G36*
X186807968Y-71643565D02*
G01*
X186846638Y-71655296D01*
X186882277Y-71674346D01*
X186913517Y-71699983D01*
X186939154Y-71731223D01*
X186958204Y-71766862D01*
X186969935Y-71805532D01*
X186974500Y-71851888D01*
X186974500Y-72928112D01*
X186969935Y-72974468D01*
X186958204Y-73013138D01*
X186939154Y-73048777D01*
X186913517Y-73080017D01*
X186882277Y-73105654D01*
X186846638Y-73124704D01*
X186807968Y-73136435D01*
X186761612Y-73141000D01*
X186110388Y-73141000D01*
X186064032Y-73136435D01*
X186025362Y-73124704D01*
X185989723Y-73105654D01*
X185958483Y-73080017D01*
X185932846Y-73048777D01*
X185913796Y-73013138D01*
X185902065Y-72974468D01*
X185897500Y-72928112D01*
X185897500Y-71851888D01*
X185902065Y-71805532D01*
X185913796Y-71766862D01*
X185932846Y-71731223D01*
X185958483Y-71699983D01*
X185989723Y-71674346D01*
X186025362Y-71655296D01*
X186064032Y-71643565D01*
X186110388Y-71639000D01*
X186761612Y-71639000D01*
X186807968Y-71643565D01*
X186807968Y-71643565D01*
G37*
G36*
X134164028Y-71521345D02*
G01*
X134202698Y-71533076D01*
X134238337Y-71552126D01*
X134269577Y-71577763D01*
X134295214Y-71609003D01*
X134314264Y-71644642D01*
X134325995Y-71683312D01*
X134330560Y-71729668D01*
X134330560Y-72805892D01*
X134325995Y-72852248D01*
X134314264Y-72890918D01*
X134295214Y-72926557D01*
X134269577Y-72957797D01*
X134238337Y-72983434D01*
X134202698Y-73002484D01*
X134164028Y-73014215D01*
X134117672Y-73018780D01*
X133466448Y-73018780D01*
X133420092Y-73014215D01*
X133381422Y-73002484D01*
X133345783Y-72983434D01*
X133314543Y-72957797D01*
X133288906Y-72926557D01*
X133269856Y-72890918D01*
X133258125Y-72852248D01*
X133253560Y-72805892D01*
X133253560Y-71729668D01*
X133258125Y-71683312D01*
X133269856Y-71644642D01*
X133288906Y-71609003D01*
X133314543Y-71577763D01*
X133345783Y-71552126D01*
X133381422Y-71533076D01*
X133420092Y-71521345D01*
X133466448Y-71516780D01*
X134117672Y-71516780D01*
X134164028Y-71521345D01*
X134164028Y-71521345D01*
G37*
G36*
X136039028Y-71521345D02*
G01*
X136077698Y-71533076D01*
X136113337Y-71552126D01*
X136144577Y-71577763D01*
X136170214Y-71609003D01*
X136189264Y-71644642D01*
X136200995Y-71683312D01*
X136205560Y-71729668D01*
X136205560Y-72805892D01*
X136200995Y-72852248D01*
X136189264Y-72890918D01*
X136170214Y-72926557D01*
X136144577Y-72957797D01*
X136113337Y-72983434D01*
X136077698Y-73002484D01*
X136039028Y-73014215D01*
X135992672Y-73018780D01*
X135341448Y-73018780D01*
X135295092Y-73014215D01*
X135256422Y-73002484D01*
X135220783Y-72983434D01*
X135189543Y-72957797D01*
X135163906Y-72926557D01*
X135144856Y-72890918D01*
X135133125Y-72852248D01*
X135128560Y-72805892D01*
X135128560Y-71729668D01*
X135133125Y-71683312D01*
X135144856Y-71644642D01*
X135163906Y-71609003D01*
X135189543Y-71577763D01*
X135220783Y-71552126D01*
X135256422Y-71533076D01*
X135295092Y-71521345D01*
X135341448Y-71516780D01*
X135992672Y-71516780D01*
X136039028Y-71521345D01*
X136039028Y-71521345D01*
G37*
G36*
X109465208Y-71417505D02*
G01*
X109503878Y-71429236D01*
X109539517Y-71448286D01*
X109570757Y-71473923D01*
X109596394Y-71505163D01*
X109615444Y-71540802D01*
X109627175Y-71579472D01*
X109631740Y-71625828D01*
X109631740Y-72702052D01*
X109627175Y-72748408D01*
X109615444Y-72787078D01*
X109596394Y-72822717D01*
X109570757Y-72853957D01*
X109539517Y-72879594D01*
X109503878Y-72898644D01*
X109465208Y-72910375D01*
X109418852Y-72914940D01*
X108767628Y-72914940D01*
X108721272Y-72910375D01*
X108682602Y-72898644D01*
X108646963Y-72879594D01*
X108615723Y-72853957D01*
X108590086Y-72822717D01*
X108571036Y-72787078D01*
X108559305Y-72748408D01*
X108554740Y-72702052D01*
X108554740Y-71625828D01*
X108559305Y-71579472D01*
X108571036Y-71540802D01*
X108590086Y-71505163D01*
X108615723Y-71473923D01*
X108646963Y-71448286D01*
X108682602Y-71429236D01*
X108721272Y-71417505D01*
X108767628Y-71412940D01*
X109418852Y-71412940D01*
X109465208Y-71417505D01*
X109465208Y-71417505D01*
G37*
G36*
X107590208Y-71417505D02*
G01*
X107628878Y-71429236D01*
X107664517Y-71448286D01*
X107695757Y-71473923D01*
X107721394Y-71505163D01*
X107740444Y-71540802D01*
X107752175Y-71579472D01*
X107756740Y-71625828D01*
X107756740Y-72702052D01*
X107752175Y-72748408D01*
X107740444Y-72787078D01*
X107721394Y-72822717D01*
X107695757Y-72853957D01*
X107664517Y-72879594D01*
X107628878Y-72898644D01*
X107590208Y-72910375D01*
X107543852Y-72914940D01*
X106892628Y-72914940D01*
X106846272Y-72910375D01*
X106807602Y-72898644D01*
X106771963Y-72879594D01*
X106740723Y-72853957D01*
X106715086Y-72822717D01*
X106696036Y-72787078D01*
X106684305Y-72748408D01*
X106679740Y-72702052D01*
X106679740Y-71625828D01*
X106684305Y-71579472D01*
X106696036Y-71540802D01*
X106715086Y-71505163D01*
X106740723Y-71473923D01*
X106771963Y-71448286D01*
X106807602Y-71429236D01*
X106846272Y-71417505D01*
X106892628Y-71412940D01*
X107543852Y-71412940D01*
X107590208Y-71417505D01*
X107590208Y-71417505D01*
G37*
G36*
X160335848Y-71186365D02*
G01*
X160374518Y-71198096D01*
X160410157Y-71217146D01*
X160441397Y-71242783D01*
X160467034Y-71274023D01*
X160486084Y-71309662D01*
X160497815Y-71348332D01*
X160502380Y-71394688D01*
X160502380Y-72470912D01*
X160497815Y-72517268D01*
X160486084Y-72555938D01*
X160467034Y-72591577D01*
X160441397Y-72622817D01*
X160410157Y-72648454D01*
X160374518Y-72667504D01*
X160335848Y-72679235D01*
X160289492Y-72683800D01*
X159638268Y-72683800D01*
X159591912Y-72679235D01*
X159553242Y-72667504D01*
X159517603Y-72648454D01*
X159486363Y-72622817D01*
X159460726Y-72591577D01*
X159441676Y-72555938D01*
X159429945Y-72517268D01*
X159425380Y-72470912D01*
X159425380Y-71394688D01*
X159429945Y-71348332D01*
X159441676Y-71309662D01*
X159460726Y-71274023D01*
X159486363Y-71242783D01*
X159517603Y-71217146D01*
X159553242Y-71198096D01*
X159591912Y-71186365D01*
X159638268Y-71181800D01*
X160289492Y-71181800D01*
X160335848Y-71186365D01*
X160335848Y-71186365D01*
G37*
G36*
X162210848Y-71186365D02*
G01*
X162249518Y-71198096D01*
X162285157Y-71217146D01*
X162316397Y-71242783D01*
X162342034Y-71274023D01*
X162361084Y-71309662D01*
X162372815Y-71348332D01*
X162377380Y-71394688D01*
X162377380Y-72470912D01*
X162372815Y-72517268D01*
X162361084Y-72555938D01*
X162342034Y-72591577D01*
X162316397Y-72622817D01*
X162285157Y-72648454D01*
X162249518Y-72667504D01*
X162210848Y-72679235D01*
X162164492Y-72683800D01*
X161513268Y-72683800D01*
X161466912Y-72679235D01*
X161428242Y-72667504D01*
X161392603Y-72648454D01*
X161361363Y-72622817D01*
X161335726Y-72591577D01*
X161316676Y-72555938D01*
X161304945Y-72517268D01*
X161300380Y-72470912D01*
X161300380Y-71394688D01*
X161304945Y-71348332D01*
X161316676Y-71309662D01*
X161335726Y-71274023D01*
X161361363Y-71242783D01*
X161392603Y-71217146D01*
X161428242Y-71198096D01*
X161466912Y-71186365D01*
X161513268Y-71181800D01*
X162164492Y-71181800D01*
X162210848Y-71186365D01*
X162210848Y-71186365D01*
G37*
G36*
X179882867Y-71763004D02*
G01*
X179906292Y-71770110D01*
X179927889Y-71781654D01*
X179946814Y-71797186D01*
X179962346Y-71816111D01*
X179973890Y-71837708D01*
X179980996Y-71861133D01*
X179984000Y-71891638D01*
X179984000Y-72380362D01*
X179980996Y-72410867D01*
X179973890Y-72434292D01*
X179962346Y-72455889D01*
X179946814Y-72474814D01*
X179927889Y-72490346D01*
X179906292Y-72501890D01*
X179882867Y-72508996D01*
X179852362Y-72512000D01*
X178038638Y-72512000D01*
X178008133Y-72508996D01*
X177984708Y-72501890D01*
X177963111Y-72490346D01*
X177944186Y-72474814D01*
X177928654Y-72455889D01*
X177917110Y-72434292D01*
X177910004Y-72410867D01*
X177907000Y-72380362D01*
X177907000Y-71891638D01*
X177910004Y-71861133D01*
X177917110Y-71837708D01*
X177928654Y-71816111D01*
X177944186Y-71797186D01*
X177963111Y-71781654D01*
X177984708Y-71770110D01*
X178008133Y-71763004D01*
X178038638Y-71760000D01*
X179852362Y-71760000D01*
X179882867Y-71763004D01*
X179882867Y-71763004D01*
G37*
G36*
X184957867Y-71763004D02*
G01*
X184981292Y-71770110D01*
X185002889Y-71781654D01*
X185021814Y-71797186D01*
X185037346Y-71816111D01*
X185048890Y-71837708D01*
X185055996Y-71861133D01*
X185059000Y-71891638D01*
X185059000Y-72380362D01*
X185055996Y-72410867D01*
X185048890Y-72434292D01*
X185037346Y-72455889D01*
X185021814Y-72474814D01*
X185002889Y-72490346D01*
X184981292Y-72501890D01*
X184957867Y-72508996D01*
X184927362Y-72512000D01*
X183113638Y-72512000D01*
X183083133Y-72508996D01*
X183059708Y-72501890D01*
X183038111Y-72490346D01*
X183019186Y-72474814D01*
X183003654Y-72455889D01*
X182992110Y-72434292D01*
X182985004Y-72410867D01*
X182982000Y-72380362D01*
X182982000Y-71891638D01*
X182985004Y-71861133D01*
X182992110Y-71837708D01*
X183003654Y-71816111D01*
X183019186Y-71797186D01*
X183038111Y-71781654D01*
X183059708Y-71770110D01*
X183083133Y-71763004D01*
X183113638Y-71760000D01*
X184927362Y-71760000D01*
X184957867Y-71763004D01*
X184957867Y-71763004D01*
G37*
G36*
X153459247Y-71686804D02*
G01*
X153482672Y-71693910D01*
X153504269Y-71705454D01*
X153523194Y-71720986D01*
X153538726Y-71739911D01*
X153550270Y-71761508D01*
X153557376Y-71784933D01*
X153560380Y-71815438D01*
X153560380Y-72304162D01*
X153557376Y-72334667D01*
X153550270Y-72358092D01*
X153538726Y-72379689D01*
X153523194Y-72398614D01*
X153504269Y-72414146D01*
X153482672Y-72425690D01*
X153459247Y-72432796D01*
X153428742Y-72435800D01*
X151615018Y-72435800D01*
X151584513Y-72432796D01*
X151561088Y-72425690D01*
X151539491Y-72414146D01*
X151520566Y-72398614D01*
X151505034Y-72379689D01*
X151493490Y-72358092D01*
X151486384Y-72334667D01*
X151483380Y-72304162D01*
X151483380Y-71815438D01*
X151486384Y-71784933D01*
X151493490Y-71761508D01*
X151505034Y-71739911D01*
X151520566Y-71720986D01*
X151539491Y-71705454D01*
X151561088Y-71693910D01*
X151584513Y-71686804D01*
X151615018Y-71683800D01*
X153428742Y-71683800D01*
X153459247Y-71686804D01*
X153459247Y-71686804D01*
G37*
G36*
X158534247Y-71686804D02*
G01*
X158557672Y-71693910D01*
X158579269Y-71705454D01*
X158598194Y-71720986D01*
X158613726Y-71739911D01*
X158625270Y-71761508D01*
X158632376Y-71784933D01*
X158635380Y-71815438D01*
X158635380Y-72304162D01*
X158632376Y-72334667D01*
X158625270Y-72358092D01*
X158613726Y-72379689D01*
X158598194Y-72398614D01*
X158579269Y-72414146D01*
X158557672Y-72425690D01*
X158534247Y-72432796D01*
X158503742Y-72435800D01*
X156690018Y-72435800D01*
X156659513Y-72432796D01*
X156636088Y-72425690D01*
X156614491Y-72414146D01*
X156595566Y-72398614D01*
X156580034Y-72379689D01*
X156568490Y-72358092D01*
X156561384Y-72334667D01*
X156558380Y-72304162D01*
X156558380Y-71815438D01*
X156561384Y-71784933D01*
X156568490Y-71761508D01*
X156580034Y-71739911D01*
X156595566Y-71720986D01*
X156614491Y-71705454D01*
X156636088Y-71693910D01*
X156659513Y-71686804D01*
X156690018Y-71683800D01*
X158503742Y-71683800D01*
X158534247Y-71686804D01*
X158534247Y-71686804D01*
G37*
G36*
X100713607Y-71663944D02*
G01*
X100737032Y-71671050D01*
X100758629Y-71682594D01*
X100777554Y-71698126D01*
X100793086Y-71717051D01*
X100804630Y-71738648D01*
X100811736Y-71762073D01*
X100814740Y-71792578D01*
X100814740Y-72281302D01*
X100811736Y-72311807D01*
X100804630Y-72335232D01*
X100793086Y-72356829D01*
X100777554Y-72375754D01*
X100758629Y-72391286D01*
X100737032Y-72402830D01*
X100713607Y-72409936D01*
X100683102Y-72412940D01*
X98869378Y-72412940D01*
X98838873Y-72409936D01*
X98815448Y-72402830D01*
X98793851Y-72391286D01*
X98774926Y-72375754D01*
X98759394Y-72356829D01*
X98747850Y-72335232D01*
X98740744Y-72311807D01*
X98737740Y-72281302D01*
X98737740Y-71792578D01*
X98740744Y-71762073D01*
X98747850Y-71738648D01*
X98759394Y-71717051D01*
X98774926Y-71698126D01*
X98793851Y-71682594D01*
X98815448Y-71671050D01*
X98838873Y-71663944D01*
X98869378Y-71660940D01*
X100683102Y-71660940D01*
X100713607Y-71663944D01*
X100713607Y-71663944D01*
G37*
G36*
X105788607Y-71663944D02*
G01*
X105812032Y-71671050D01*
X105833629Y-71682594D01*
X105852554Y-71698126D01*
X105868086Y-71717051D01*
X105879630Y-71738648D01*
X105886736Y-71762073D01*
X105889740Y-71792578D01*
X105889740Y-72281302D01*
X105886736Y-72311807D01*
X105879630Y-72335232D01*
X105868086Y-72356829D01*
X105852554Y-72375754D01*
X105833629Y-72391286D01*
X105812032Y-72402830D01*
X105788607Y-72409936D01*
X105758102Y-72412940D01*
X103944378Y-72412940D01*
X103913873Y-72409936D01*
X103890448Y-72402830D01*
X103868851Y-72391286D01*
X103849926Y-72375754D01*
X103834394Y-72356829D01*
X103822850Y-72335232D01*
X103815744Y-72311807D01*
X103812740Y-72281302D01*
X103812740Y-71792578D01*
X103815744Y-71762073D01*
X103822850Y-71738648D01*
X103834394Y-71717051D01*
X103849926Y-71698126D01*
X103868851Y-71682594D01*
X103890448Y-71671050D01*
X103913873Y-71663944D01*
X103944378Y-71660940D01*
X105758102Y-71660940D01*
X105788607Y-71663944D01*
X105788607Y-71663944D01*
G37*
G36*
X132034427Y-71653784D02*
G01*
X132057852Y-71660890D01*
X132079449Y-71672434D01*
X132098374Y-71687966D01*
X132113906Y-71706891D01*
X132125450Y-71728488D01*
X132132556Y-71751913D01*
X132135560Y-71782418D01*
X132135560Y-72271142D01*
X132132556Y-72301647D01*
X132125450Y-72325072D01*
X132113906Y-72346669D01*
X132098374Y-72365594D01*
X132079449Y-72381126D01*
X132057852Y-72392670D01*
X132034427Y-72399776D01*
X132003922Y-72402780D01*
X130190198Y-72402780D01*
X130159693Y-72399776D01*
X130136268Y-72392670D01*
X130114671Y-72381126D01*
X130095746Y-72365594D01*
X130080214Y-72346669D01*
X130068670Y-72325072D01*
X130061564Y-72301647D01*
X130058560Y-72271142D01*
X130058560Y-71782418D01*
X130061564Y-71751913D01*
X130068670Y-71728488D01*
X130080214Y-71706891D01*
X130095746Y-71687966D01*
X130114671Y-71672434D01*
X130136268Y-71660890D01*
X130159693Y-71653784D01*
X130190198Y-71650780D01*
X132003922Y-71650780D01*
X132034427Y-71653784D01*
X132034427Y-71653784D01*
G37*
G36*
X126959427Y-71653784D02*
G01*
X126982852Y-71660890D01*
X127004449Y-71672434D01*
X127023374Y-71687966D01*
X127038906Y-71706891D01*
X127050450Y-71728488D01*
X127057556Y-71751913D01*
X127060560Y-71782418D01*
X127060560Y-72271142D01*
X127057556Y-72301647D01*
X127050450Y-72325072D01*
X127038906Y-72346669D01*
X127023374Y-72365594D01*
X127004449Y-72381126D01*
X126982852Y-72392670D01*
X126959427Y-72399776D01*
X126928922Y-72402780D01*
X125115198Y-72402780D01*
X125084693Y-72399776D01*
X125061268Y-72392670D01*
X125039671Y-72381126D01*
X125020746Y-72365594D01*
X125005214Y-72346669D01*
X124993670Y-72325072D01*
X124986564Y-72301647D01*
X124983560Y-72271142D01*
X124983560Y-71782418D01*
X124986564Y-71751913D01*
X124993670Y-71728488D01*
X125005214Y-71706891D01*
X125020746Y-71687966D01*
X125039671Y-71672434D01*
X125061268Y-71660890D01*
X125084693Y-71653784D01*
X125115198Y-71650780D01*
X126928922Y-71650780D01*
X126959427Y-71653784D01*
X126959427Y-71653784D01*
G37*
G36*
X176987468Y-71299565D02*
G01*
X177026138Y-71311296D01*
X177061777Y-71330346D01*
X177093017Y-71355983D01*
X177118654Y-71387223D01*
X177137704Y-71422862D01*
X177149435Y-71461532D01*
X177154000Y-71507888D01*
X177154000Y-72159112D01*
X177149435Y-72205468D01*
X177137704Y-72244138D01*
X177118654Y-72279777D01*
X177093017Y-72311017D01*
X177061777Y-72336654D01*
X177026138Y-72355704D01*
X176987468Y-72367435D01*
X176941112Y-72372000D01*
X175864888Y-72372000D01*
X175818532Y-72367435D01*
X175779862Y-72355704D01*
X175744223Y-72336654D01*
X175712983Y-72311017D01*
X175687346Y-72279777D01*
X175668296Y-72244138D01*
X175656565Y-72205468D01*
X175652000Y-72159112D01*
X175652000Y-71507888D01*
X175656565Y-71461532D01*
X175668296Y-71422862D01*
X175687346Y-71387223D01*
X175712983Y-71355983D01*
X175744223Y-71330346D01*
X175779862Y-71311296D01*
X175818532Y-71299565D01*
X175864888Y-71295000D01*
X176941112Y-71295000D01*
X176987468Y-71299565D01*
X176987468Y-71299565D01*
G37*
G36*
X150055848Y-71223365D02*
G01*
X150094518Y-71235096D01*
X150130157Y-71254146D01*
X150161397Y-71279783D01*
X150187034Y-71311023D01*
X150206084Y-71346662D01*
X150217815Y-71385332D01*
X150222380Y-71431688D01*
X150222380Y-72082912D01*
X150217815Y-72129268D01*
X150206084Y-72167938D01*
X150187034Y-72203577D01*
X150161397Y-72234817D01*
X150130157Y-72260454D01*
X150094518Y-72279504D01*
X150055848Y-72291235D01*
X150009492Y-72295800D01*
X148933268Y-72295800D01*
X148886912Y-72291235D01*
X148848242Y-72279504D01*
X148812603Y-72260454D01*
X148781363Y-72234817D01*
X148755726Y-72203577D01*
X148736676Y-72167938D01*
X148724945Y-72129268D01*
X148720380Y-72082912D01*
X148720380Y-71431688D01*
X148724945Y-71385332D01*
X148736676Y-71346662D01*
X148755726Y-71311023D01*
X148781363Y-71279783D01*
X148812603Y-71254146D01*
X148848242Y-71235096D01*
X148886912Y-71223365D01*
X148933268Y-71218800D01*
X150009492Y-71218800D01*
X150055848Y-71223365D01*
X150055848Y-71223365D01*
G37*
G36*
X97564208Y-71200505D02*
G01*
X97602878Y-71212236D01*
X97638517Y-71231286D01*
X97669757Y-71256923D01*
X97695394Y-71288163D01*
X97714444Y-71323802D01*
X97726175Y-71362472D01*
X97730740Y-71408828D01*
X97730740Y-72060052D01*
X97726175Y-72106408D01*
X97714444Y-72145078D01*
X97695394Y-72180717D01*
X97669757Y-72211957D01*
X97638517Y-72237594D01*
X97602878Y-72256644D01*
X97564208Y-72268375D01*
X97517852Y-72272940D01*
X96441628Y-72272940D01*
X96395272Y-72268375D01*
X96356602Y-72256644D01*
X96320963Y-72237594D01*
X96289723Y-72211957D01*
X96264086Y-72180717D01*
X96245036Y-72145078D01*
X96233305Y-72106408D01*
X96228740Y-72060052D01*
X96228740Y-71408828D01*
X96233305Y-71362472D01*
X96245036Y-71323802D01*
X96264086Y-71288163D01*
X96289723Y-71256923D01*
X96320963Y-71231286D01*
X96356602Y-71212236D01*
X96395272Y-71200505D01*
X96441628Y-71195940D01*
X97517852Y-71195940D01*
X97564208Y-71200505D01*
X97564208Y-71200505D01*
G37*
G36*
X124064028Y-70936345D02*
G01*
X124102698Y-70948076D01*
X124138337Y-70967126D01*
X124169577Y-70992763D01*
X124195214Y-71024003D01*
X124214264Y-71059642D01*
X124225995Y-71098312D01*
X124230560Y-71144668D01*
X124230560Y-71795892D01*
X124225995Y-71842248D01*
X124214264Y-71880918D01*
X124195214Y-71916557D01*
X124169577Y-71947797D01*
X124138337Y-71973434D01*
X124102698Y-71992484D01*
X124064028Y-72004215D01*
X124017672Y-72008780D01*
X122941448Y-72008780D01*
X122895092Y-72004215D01*
X122856422Y-71992484D01*
X122820783Y-71973434D01*
X122789543Y-71947797D01*
X122763906Y-71916557D01*
X122744856Y-71880918D01*
X122733125Y-71842248D01*
X122728560Y-71795892D01*
X122728560Y-71144668D01*
X122733125Y-71098312D01*
X122744856Y-71059642D01*
X122763906Y-71024003D01*
X122789543Y-70992763D01*
X122820783Y-70967126D01*
X122856422Y-70948076D01*
X122895092Y-70936345D01*
X122941448Y-70931780D01*
X124017672Y-70931780D01*
X124064028Y-70936345D01*
X124064028Y-70936345D01*
G37*
G36*
X184957867Y-70493004D02*
G01*
X184981292Y-70500110D01*
X185002889Y-70511654D01*
X185021814Y-70527186D01*
X185037346Y-70546111D01*
X185048890Y-70567708D01*
X185055996Y-70591133D01*
X185059000Y-70621638D01*
X185059000Y-71110362D01*
X185055996Y-71140867D01*
X185048890Y-71164292D01*
X185037346Y-71185889D01*
X185021814Y-71204814D01*
X185002889Y-71220346D01*
X184981292Y-71231890D01*
X184957867Y-71238996D01*
X184927362Y-71242000D01*
X183113638Y-71242000D01*
X183083133Y-71238996D01*
X183059708Y-71231890D01*
X183038111Y-71220346D01*
X183019186Y-71204814D01*
X183003654Y-71185889D01*
X182992110Y-71164292D01*
X182985004Y-71140867D01*
X182982000Y-71110362D01*
X182982000Y-70621638D01*
X182985004Y-70591133D01*
X182992110Y-70567708D01*
X183003654Y-70546111D01*
X183019186Y-70527186D01*
X183038111Y-70511654D01*
X183059708Y-70500110D01*
X183083133Y-70493004D01*
X183113638Y-70490000D01*
X184927362Y-70490000D01*
X184957867Y-70493004D01*
X184957867Y-70493004D01*
G37*
G36*
X179882867Y-70493004D02*
G01*
X179906292Y-70500110D01*
X179927889Y-70511654D01*
X179946814Y-70527186D01*
X179962346Y-70546111D01*
X179973890Y-70567708D01*
X179980996Y-70591133D01*
X179984000Y-70621638D01*
X179984000Y-71110362D01*
X179980996Y-71140867D01*
X179973890Y-71164292D01*
X179962346Y-71185889D01*
X179946814Y-71204814D01*
X179927889Y-71220346D01*
X179906292Y-71231890D01*
X179882867Y-71238996D01*
X179852362Y-71242000D01*
X178038638Y-71242000D01*
X178008133Y-71238996D01*
X177984708Y-71231890D01*
X177963111Y-71220346D01*
X177944186Y-71204814D01*
X177928654Y-71185889D01*
X177917110Y-71164292D01*
X177910004Y-71140867D01*
X177907000Y-71110362D01*
X177907000Y-70621638D01*
X177910004Y-70591133D01*
X177917110Y-70567708D01*
X177928654Y-70546111D01*
X177944186Y-70527186D01*
X177963111Y-70511654D01*
X177984708Y-70500110D01*
X178008133Y-70493004D01*
X178038638Y-70490000D01*
X179852362Y-70490000D01*
X179882867Y-70493004D01*
X179882867Y-70493004D01*
G37*
G36*
X153459247Y-70416804D02*
G01*
X153482672Y-70423910D01*
X153504269Y-70435454D01*
X153523194Y-70450986D01*
X153538726Y-70469911D01*
X153550270Y-70491508D01*
X153557376Y-70514933D01*
X153560380Y-70545438D01*
X153560380Y-71034162D01*
X153557376Y-71064667D01*
X153550270Y-71088092D01*
X153538726Y-71109689D01*
X153523194Y-71128614D01*
X153504269Y-71144146D01*
X153482672Y-71155690D01*
X153459247Y-71162796D01*
X153428742Y-71165800D01*
X151615018Y-71165800D01*
X151584513Y-71162796D01*
X151561088Y-71155690D01*
X151539491Y-71144146D01*
X151520566Y-71128614D01*
X151505034Y-71109689D01*
X151493490Y-71088092D01*
X151486384Y-71064667D01*
X151483380Y-71034162D01*
X151483380Y-70545438D01*
X151486384Y-70514933D01*
X151493490Y-70491508D01*
X151505034Y-70469911D01*
X151520566Y-70450986D01*
X151539491Y-70435454D01*
X151561088Y-70423910D01*
X151584513Y-70416804D01*
X151615018Y-70413800D01*
X153428742Y-70413800D01*
X153459247Y-70416804D01*
X153459247Y-70416804D01*
G37*
G36*
X158534247Y-70416804D02*
G01*
X158557672Y-70423910D01*
X158579269Y-70435454D01*
X158598194Y-70450986D01*
X158613726Y-70469911D01*
X158625270Y-70491508D01*
X158632376Y-70514933D01*
X158635380Y-70545438D01*
X158635380Y-71034162D01*
X158632376Y-71064667D01*
X158625270Y-71088092D01*
X158613726Y-71109689D01*
X158598194Y-71128614D01*
X158579269Y-71144146D01*
X158557672Y-71155690D01*
X158534247Y-71162796D01*
X158503742Y-71165800D01*
X156690018Y-71165800D01*
X156659513Y-71162796D01*
X156636088Y-71155690D01*
X156614491Y-71144146D01*
X156595566Y-71128614D01*
X156580034Y-71109689D01*
X156568490Y-71088092D01*
X156561384Y-71064667D01*
X156558380Y-71034162D01*
X156558380Y-70545438D01*
X156561384Y-70514933D01*
X156568490Y-70491508D01*
X156580034Y-70469911D01*
X156595566Y-70450986D01*
X156614491Y-70435454D01*
X156636088Y-70423910D01*
X156659513Y-70416804D01*
X156690018Y-70413800D01*
X158503742Y-70413800D01*
X158534247Y-70416804D01*
X158534247Y-70416804D01*
G37*
G36*
X100713607Y-70393944D02*
G01*
X100737032Y-70401050D01*
X100758629Y-70412594D01*
X100777554Y-70428126D01*
X100793086Y-70447051D01*
X100804630Y-70468648D01*
X100811736Y-70492073D01*
X100814740Y-70522578D01*
X100814740Y-71011302D01*
X100811736Y-71041807D01*
X100804630Y-71065232D01*
X100793086Y-71086829D01*
X100777554Y-71105754D01*
X100758629Y-71121286D01*
X100737032Y-71132830D01*
X100713607Y-71139936D01*
X100683102Y-71142940D01*
X98869378Y-71142940D01*
X98838873Y-71139936D01*
X98815448Y-71132830D01*
X98793851Y-71121286D01*
X98774926Y-71105754D01*
X98759394Y-71086829D01*
X98747850Y-71065232D01*
X98740744Y-71041807D01*
X98737740Y-71011302D01*
X98737740Y-70522578D01*
X98740744Y-70492073D01*
X98747850Y-70468648D01*
X98759394Y-70447051D01*
X98774926Y-70428126D01*
X98793851Y-70412594D01*
X98815448Y-70401050D01*
X98838873Y-70393944D01*
X98869378Y-70390940D01*
X100683102Y-70390940D01*
X100713607Y-70393944D01*
X100713607Y-70393944D01*
G37*
G36*
X105788607Y-70393944D02*
G01*
X105812032Y-70401050D01*
X105833629Y-70412594D01*
X105852554Y-70428126D01*
X105868086Y-70447051D01*
X105879630Y-70468648D01*
X105886736Y-70492073D01*
X105889740Y-70522578D01*
X105889740Y-71011302D01*
X105886736Y-71041807D01*
X105879630Y-71065232D01*
X105868086Y-71086829D01*
X105852554Y-71105754D01*
X105833629Y-71121286D01*
X105812032Y-71132830D01*
X105788607Y-71139936D01*
X105758102Y-71142940D01*
X103944378Y-71142940D01*
X103913873Y-71139936D01*
X103890448Y-71132830D01*
X103868851Y-71121286D01*
X103849926Y-71105754D01*
X103834394Y-71086829D01*
X103822850Y-71065232D01*
X103815744Y-71041807D01*
X103812740Y-71011302D01*
X103812740Y-70522578D01*
X103815744Y-70492073D01*
X103822850Y-70468648D01*
X103834394Y-70447051D01*
X103849926Y-70428126D01*
X103868851Y-70412594D01*
X103890448Y-70401050D01*
X103913873Y-70393944D01*
X103944378Y-70390940D01*
X105758102Y-70390940D01*
X105788607Y-70393944D01*
X105788607Y-70393944D01*
G37*
G36*
X126959427Y-70383784D02*
G01*
X126982852Y-70390890D01*
X127004449Y-70402434D01*
X127023374Y-70417966D01*
X127038906Y-70436891D01*
X127050450Y-70458488D01*
X127057556Y-70481913D01*
X127060560Y-70512418D01*
X127060560Y-71001142D01*
X127057556Y-71031647D01*
X127050450Y-71055072D01*
X127038906Y-71076669D01*
X127023374Y-71095594D01*
X127004449Y-71111126D01*
X126982852Y-71122670D01*
X126959427Y-71129776D01*
X126928922Y-71132780D01*
X125115198Y-71132780D01*
X125084693Y-71129776D01*
X125061268Y-71122670D01*
X125039671Y-71111126D01*
X125020746Y-71095594D01*
X125005214Y-71076669D01*
X124993670Y-71055072D01*
X124986564Y-71031647D01*
X124983560Y-71001142D01*
X124983560Y-70512418D01*
X124986564Y-70481913D01*
X124993670Y-70458488D01*
X125005214Y-70436891D01*
X125020746Y-70417966D01*
X125039671Y-70402434D01*
X125061268Y-70390890D01*
X125084693Y-70383784D01*
X125115198Y-70380780D01*
X126928922Y-70380780D01*
X126959427Y-70383784D01*
X126959427Y-70383784D01*
G37*
G36*
X132034427Y-70383784D02*
G01*
X132057852Y-70390890D01*
X132079449Y-70402434D01*
X132098374Y-70417966D01*
X132113906Y-70436891D01*
X132125450Y-70458488D01*
X132132556Y-70481913D01*
X132135560Y-70512418D01*
X132135560Y-71001142D01*
X132132556Y-71031647D01*
X132125450Y-71055072D01*
X132113906Y-71076669D01*
X132098374Y-71095594D01*
X132079449Y-71111126D01*
X132057852Y-71122670D01*
X132034427Y-71129776D01*
X132003922Y-71132780D01*
X130190198Y-71132780D01*
X130159693Y-71129776D01*
X130136268Y-71122670D01*
X130114671Y-71111126D01*
X130095746Y-71095594D01*
X130080214Y-71076669D01*
X130068670Y-71055072D01*
X130061564Y-71031647D01*
X130058560Y-71001142D01*
X130058560Y-70512418D01*
X130061564Y-70481913D01*
X130068670Y-70458488D01*
X130080214Y-70436891D01*
X130095746Y-70417966D01*
X130114671Y-70402434D01*
X130136268Y-70390890D01*
X130159693Y-70383784D01*
X130190198Y-70380780D01*
X132003922Y-70380780D01*
X132034427Y-70383784D01*
X132034427Y-70383784D01*
G37*
G36*
X151313000Y-67788000D02*
G01*
X149611000Y-67788000D01*
X149611000Y-67086000D01*
X151313000Y-67086000D01*
X151313000Y-67788000D01*
X151313000Y-67788000D01*
G37*
G36*
X156713000Y-67788000D02*
G01*
X155011000Y-67788000D01*
X155011000Y-67086000D01*
X156713000Y-67086000D01*
X156713000Y-67788000D01*
X156713000Y-67788000D01*
G37*
G36*
X151313000Y-66518000D02*
G01*
X149611000Y-66518000D01*
X149611000Y-65816000D01*
X151313000Y-65816000D01*
X151313000Y-66518000D01*
X151313000Y-66518000D01*
G37*
G36*
X156713000Y-66518000D02*
G01*
X155011000Y-66518000D01*
X155011000Y-65816000D01*
X156713000Y-65816000D01*
X156713000Y-66518000D01*
X156713000Y-66518000D01*
G37*
G36*
X110790642Y-64621442D02*
G01*
X110938601Y-64682729D01*
X111071755Y-64771699D01*
X111185001Y-64884945D01*
X111273971Y-65018099D01*
X111335258Y-65166058D01*
X111366500Y-65323125D01*
X111366500Y-65483275D01*
X111335258Y-65640342D01*
X111273971Y-65788301D01*
X111185001Y-65921455D01*
X111071755Y-66034701D01*
X110938601Y-66123671D01*
X110790642Y-66184958D01*
X110633575Y-66216200D01*
X110473425Y-66216200D01*
X110316358Y-66184958D01*
X110168399Y-66123671D01*
X110035245Y-66034701D01*
X109921999Y-65921455D01*
X109833029Y-65788301D01*
X109771742Y-65640342D01*
X109740500Y-65483275D01*
X109740500Y-65323125D01*
X109771742Y-65166058D01*
X109833029Y-65018099D01*
X109921999Y-64884945D01*
X110035245Y-64771699D01*
X110168399Y-64682729D01*
X110316358Y-64621442D01*
X110473425Y-64590200D01*
X110633575Y-64590200D01*
X110790642Y-64621442D01*
X110790642Y-64621442D01*
G37*
G36*
X164130642Y-64621442D02*
G01*
X164278601Y-64682729D01*
X164411755Y-64771699D01*
X164525001Y-64884945D01*
X164613971Y-65018099D01*
X164675258Y-65166058D01*
X164706500Y-65323125D01*
X164706500Y-65483275D01*
X164675258Y-65640342D01*
X164613971Y-65788301D01*
X164525001Y-65921455D01*
X164411755Y-66034701D01*
X164278601Y-66123671D01*
X164130642Y-66184958D01*
X163973575Y-66216200D01*
X163813425Y-66216200D01*
X163656358Y-66184958D01*
X163508399Y-66123671D01*
X163375245Y-66034701D01*
X163261999Y-65921455D01*
X163173029Y-65788301D01*
X163111742Y-65640342D01*
X163080500Y-65483275D01*
X163080500Y-65323125D01*
X163111742Y-65166058D01*
X163173029Y-65018099D01*
X163261999Y-64884945D01*
X163375245Y-64771699D01*
X163508399Y-64682729D01*
X163656358Y-64621442D01*
X163813425Y-64590200D01*
X163973575Y-64590200D01*
X164130642Y-64621442D01*
X164130642Y-64621442D01*
G37*
G36*
X190800642Y-64621442D02*
G01*
X190948601Y-64682729D01*
X191081755Y-64771699D01*
X191195001Y-64884945D01*
X191283971Y-65018099D01*
X191345258Y-65166058D01*
X191376500Y-65323125D01*
X191376500Y-65483275D01*
X191345258Y-65640342D01*
X191283971Y-65788301D01*
X191195001Y-65921455D01*
X191081755Y-66034701D01*
X190948601Y-66123671D01*
X190800642Y-66184958D01*
X190643575Y-66216200D01*
X190483425Y-66216200D01*
X190326358Y-66184958D01*
X190178399Y-66123671D01*
X190045245Y-66034701D01*
X189931999Y-65921455D01*
X189843029Y-65788301D01*
X189781742Y-65640342D01*
X189750500Y-65483275D01*
X189750500Y-65323125D01*
X189781742Y-65166058D01*
X189843029Y-65018099D01*
X189931999Y-64884945D01*
X190045245Y-64771699D01*
X190178399Y-64682729D01*
X190326358Y-64621442D01*
X190483425Y-64590200D01*
X190643575Y-64590200D01*
X190800642Y-64621442D01*
X190800642Y-64621442D01*
G37*
G36*
X137460642Y-64621442D02*
G01*
X137608601Y-64682729D01*
X137741755Y-64771699D01*
X137855001Y-64884945D01*
X137943971Y-65018099D01*
X138005258Y-65166058D01*
X138036500Y-65323125D01*
X138036500Y-65483275D01*
X138005258Y-65640342D01*
X137943971Y-65788301D01*
X137855001Y-65921455D01*
X137741755Y-66034701D01*
X137608601Y-66123671D01*
X137460642Y-66184958D01*
X137303575Y-66216200D01*
X137143425Y-66216200D01*
X136986358Y-66184958D01*
X136838399Y-66123671D01*
X136705245Y-66034701D01*
X136591999Y-65921455D01*
X136503029Y-65788301D01*
X136441742Y-65640342D01*
X136410500Y-65483275D01*
X136410500Y-65323125D01*
X136441742Y-65166058D01*
X136503029Y-65018099D01*
X136591999Y-64884945D01*
X136705245Y-64771699D01*
X136838399Y-64682729D01*
X136986358Y-64621442D01*
X137143425Y-64590200D01*
X137303575Y-64590200D01*
X137460642Y-64621442D01*
X137460642Y-64621442D01*
G37*
G36*
X151313000Y-65248000D02*
G01*
X149611000Y-65248000D01*
X149611000Y-64546000D01*
X151313000Y-64546000D01*
X151313000Y-65248000D01*
X151313000Y-65248000D01*
G37*
G36*
X156713000Y-65248000D02*
G01*
X155011000Y-65248000D01*
X155011000Y-64546000D01*
X156713000Y-64546000D01*
X156713000Y-65248000D01*
X156713000Y-65248000D01*
G37*
G36*
X156713000Y-63978000D02*
G01*
X155011000Y-63978000D01*
X155011000Y-63276000D01*
X156713000Y-63276000D01*
X156713000Y-63978000D01*
X156713000Y-63978000D01*
G37*
G36*
X151313000Y-63978000D02*
G01*
X149611000Y-63978000D01*
X149611000Y-63276000D01*
X151313000Y-63276000D01*
X151313000Y-63978000D01*
X151313000Y-63978000D01*
G37*
G36*
X165839000Y-62863920D02*
G01*
X164837000Y-62863920D01*
X164837000Y-61961920D01*
X165839000Y-61961920D01*
X165839000Y-62863920D01*
X165839000Y-62863920D01*
G37*
G36*
X151313000Y-62708000D02*
G01*
X149611000Y-62708000D01*
X149611000Y-62006000D01*
X151313000Y-62006000D01*
X151313000Y-62708000D01*
X151313000Y-62708000D01*
G37*
G36*
X156713000Y-62708000D02*
G01*
X155011000Y-62708000D01*
X155011000Y-62006000D01*
X156713000Y-62006000D01*
X156713000Y-62708000D01*
X156713000Y-62708000D01*
G37*
G36*
X139321400Y-62477840D02*
G01*
X138319400Y-62477840D01*
X138319400Y-61575840D01*
X139321400Y-61575840D01*
X139321400Y-62477840D01*
X139321400Y-62477840D01*
G37*
G36*
X112267860Y-62477840D02*
G01*
X111265860Y-62477840D01*
X111265860Y-61575840D01*
X112267860Y-61575840D01*
X112267860Y-62477840D01*
X112267860Y-62477840D01*
G37*
G36*
X192379460Y-62114620D02*
G01*
X191377460Y-62114620D01*
X191377460Y-61212620D01*
X192379460Y-61212620D01*
X192379460Y-62114620D01*
X192379460Y-62114620D01*
G37*
G36*
X163839000Y-61913920D02*
G01*
X162837000Y-61913920D01*
X162837000Y-61011920D01*
X163839000Y-61011920D01*
X163839000Y-61913920D01*
X163839000Y-61913920D01*
G37*
G36*
X137321400Y-61527840D02*
G01*
X136319400Y-61527840D01*
X136319400Y-60625840D01*
X137321400Y-60625840D01*
X137321400Y-61527840D01*
X137321400Y-61527840D01*
G37*
G36*
X110267860Y-61527840D02*
G01*
X109265860Y-61527840D01*
X109265860Y-60625840D01*
X110267860Y-60625840D01*
X110267860Y-61527840D01*
X110267860Y-61527840D01*
G37*
G36*
X151313000Y-61438000D02*
G01*
X149611000Y-61438000D01*
X149611000Y-60736000D01*
X151313000Y-60736000D01*
X151313000Y-61438000D01*
X151313000Y-61438000D01*
G37*
G36*
X156713000Y-61438000D02*
G01*
X155011000Y-61438000D01*
X155011000Y-60736000D01*
X156713000Y-60736000D01*
X156713000Y-61438000D01*
X156713000Y-61438000D01*
G37*
G36*
X190379460Y-61164620D02*
G01*
X189377460Y-61164620D01*
X189377460Y-60262620D01*
X190379460Y-60262620D01*
X190379460Y-61164620D01*
X190379460Y-61164620D01*
G37*
G36*
X165839000Y-60963920D02*
G01*
X164837000Y-60963920D01*
X164837000Y-60061920D01*
X165839000Y-60061920D01*
X165839000Y-60963920D01*
X165839000Y-60963920D01*
G37*
G36*
X148990174Y-59451465D02*
G01*
X149027867Y-59462899D01*
X149062603Y-59481466D01*
X149093048Y-59506452D01*
X149118034Y-59536897D01*
X149136601Y-59571633D01*
X149148035Y-59609326D01*
X149152500Y-59654661D01*
X149152500Y-60741339D01*
X149148035Y-60786674D01*
X149136601Y-60824367D01*
X149118034Y-60859103D01*
X149093048Y-60889548D01*
X149062603Y-60914534D01*
X149027867Y-60933101D01*
X148990174Y-60944535D01*
X148944839Y-60949000D01*
X148108161Y-60949000D01*
X148062826Y-60944535D01*
X148025133Y-60933101D01*
X147990397Y-60914534D01*
X147959952Y-60889548D01*
X147934966Y-60859103D01*
X147916399Y-60824367D01*
X147904965Y-60786674D01*
X147900500Y-60741339D01*
X147900500Y-59654661D01*
X147904965Y-59609326D01*
X147916399Y-59571633D01*
X147934966Y-59536897D01*
X147959952Y-59506452D01*
X147990397Y-59481466D01*
X148025133Y-59462899D01*
X148062826Y-59451465D01*
X148108161Y-59447000D01*
X148944839Y-59447000D01*
X148990174Y-59451465D01*
X148990174Y-59451465D01*
G37*
G36*
X146940174Y-59451465D02*
G01*
X146977867Y-59462899D01*
X147012603Y-59481466D01*
X147043048Y-59506452D01*
X147068034Y-59536897D01*
X147086601Y-59571633D01*
X147098035Y-59609326D01*
X147102500Y-59654661D01*
X147102500Y-60741339D01*
X147098035Y-60786674D01*
X147086601Y-60824367D01*
X147068034Y-60859103D01*
X147043048Y-60889548D01*
X147012603Y-60914534D01*
X146977867Y-60933101D01*
X146940174Y-60944535D01*
X146894839Y-60949000D01*
X146058161Y-60949000D01*
X146012826Y-60944535D01*
X145975133Y-60933101D01*
X145940397Y-60914534D01*
X145909952Y-60889548D01*
X145884966Y-60859103D01*
X145866399Y-60824367D01*
X145854965Y-60786674D01*
X145850500Y-60741339D01*
X145850500Y-59654661D01*
X145854965Y-59609326D01*
X145866399Y-59571633D01*
X145884966Y-59536897D01*
X145909952Y-59506452D01*
X145940397Y-59481466D01*
X145975133Y-59462899D01*
X146012826Y-59451465D01*
X146058161Y-59447000D01*
X146894839Y-59447000D01*
X146940174Y-59451465D01*
X146940174Y-59451465D01*
G37*
G36*
X112267860Y-60577840D02*
G01*
X111265860Y-60577840D01*
X111265860Y-59675840D01*
X112267860Y-59675840D01*
X112267860Y-60577840D01*
X112267860Y-60577840D01*
G37*
G36*
X139321400Y-60577840D02*
G01*
X138319400Y-60577840D01*
X138319400Y-59675840D01*
X139321400Y-59675840D01*
X139321400Y-60577840D01*
X139321400Y-60577840D01*
G37*
G36*
X192379460Y-60214620D02*
G01*
X191377460Y-60214620D01*
X191377460Y-59312620D01*
X192379460Y-59312620D01*
X192379460Y-60214620D01*
X192379460Y-60214620D01*
G37*
G36*
X156713000Y-60168000D02*
G01*
X155011000Y-60168000D01*
X155011000Y-59466000D01*
X156713000Y-59466000D01*
X156713000Y-60168000D01*
X156713000Y-60168000D01*
G37*
G36*
X151313000Y-60168000D02*
G01*
X149611000Y-60168000D01*
X149611000Y-59466000D01*
X151313000Y-59466000D01*
X151313000Y-60168000D01*
X151313000Y-60168000D01*
G37*
G36*
X149115174Y-57816465D02*
G01*
X149152867Y-57827899D01*
X149187603Y-57846466D01*
X149218048Y-57871452D01*
X149243034Y-57901897D01*
X149261601Y-57936633D01*
X149273035Y-57974326D01*
X149277500Y-58019661D01*
X149277500Y-58856339D01*
X149273035Y-58901674D01*
X149261601Y-58939367D01*
X149243034Y-58974103D01*
X149218048Y-59004548D01*
X149187603Y-59029534D01*
X149152867Y-59048101D01*
X149115174Y-59059535D01*
X149069839Y-59064000D01*
X147983161Y-59064000D01*
X147937826Y-59059535D01*
X147900133Y-59048101D01*
X147865397Y-59029534D01*
X147834952Y-59004548D01*
X147809966Y-58974103D01*
X147791399Y-58939367D01*
X147779965Y-58901674D01*
X147775500Y-58856339D01*
X147775500Y-58019661D01*
X147779965Y-57974326D01*
X147791399Y-57936633D01*
X147809966Y-57901897D01*
X147834952Y-57871452D01*
X147865397Y-57846466D01*
X147900133Y-57827899D01*
X147937826Y-57816465D01*
X147983161Y-57812000D01*
X149069839Y-57812000D01*
X149115174Y-57816465D01*
X149115174Y-57816465D01*
G37*
G36*
X100869000Y-58705000D02*
G01*
X98267000Y-58705000D01*
X98267000Y-56103000D01*
X100869000Y-56103000D01*
X100869000Y-58705000D01*
X100869000Y-58705000D01*
G37*
G36*
X149115174Y-55766465D02*
G01*
X149152867Y-55777899D01*
X149187603Y-55796466D01*
X149218048Y-55821452D01*
X149243034Y-55851897D01*
X149261601Y-55886633D01*
X149273035Y-55924326D01*
X149277500Y-55969661D01*
X149277500Y-56806339D01*
X149273035Y-56851674D01*
X149261601Y-56889367D01*
X149243034Y-56924103D01*
X149218048Y-56954548D01*
X149187603Y-56979534D01*
X149152867Y-56998101D01*
X149115174Y-57009535D01*
X149069839Y-57014000D01*
X147983161Y-57014000D01*
X147937826Y-57009535D01*
X147900133Y-56998101D01*
X147865397Y-56979534D01*
X147834952Y-56954548D01*
X147809966Y-56924103D01*
X147791399Y-56889367D01*
X147779965Y-56851674D01*
X147775500Y-56806339D01*
X147775500Y-55969661D01*
X147779965Y-55924326D01*
X147791399Y-55886633D01*
X147809966Y-55851897D01*
X147834952Y-55821452D01*
X147865397Y-55796466D01*
X147900133Y-55777899D01*
X147937826Y-55766465D01*
X147983161Y-55762000D01*
X149069839Y-55762000D01*
X149115174Y-55766465D01*
X149115174Y-55766465D01*
G37*
G36*
X112494842Y-52915442D02*
G01*
X112642801Y-52976729D01*
X112775955Y-53065699D01*
X112889201Y-53178945D01*
X112978171Y-53312099D01*
X113039458Y-53460058D01*
X113070700Y-53617125D01*
X113070700Y-53777275D01*
X113039458Y-53934342D01*
X112978171Y-54082301D01*
X112889201Y-54215455D01*
X112775955Y-54328701D01*
X112642801Y-54417671D01*
X112494842Y-54478958D01*
X112337775Y-54510200D01*
X112177625Y-54510200D01*
X112020558Y-54478958D01*
X111872599Y-54417671D01*
X111739445Y-54328701D01*
X111626199Y-54215455D01*
X111537229Y-54082301D01*
X111475942Y-53934342D01*
X111444700Y-53777275D01*
X111444700Y-53617125D01*
X111475942Y-53460058D01*
X111537229Y-53312099D01*
X111626199Y-53178945D01*
X111739445Y-53065699D01*
X111872599Y-52976729D01*
X112020558Y-52915442D01*
X112177625Y-52884200D01*
X112337775Y-52884200D01*
X112494842Y-52915442D01*
X112494842Y-52915442D01*
G37*
G36*
X192504842Y-52915442D02*
G01*
X192652801Y-52976729D01*
X192785955Y-53065699D01*
X192899201Y-53178945D01*
X192988171Y-53312099D01*
X193049458Y-53460058D01*
X193080700Y-53617125D01*
X193080700Y-53777275D01*
X193049458Y-53934342D01*
X192988171Y-54082301D01*
X192899201Y-54215455D01*
X192785955Y-54328701D01*
X192652801Y-54417671D01*
X192504842Y-54478958D01*
X192347775Y-54510200D01*
X192187625Y-54510200D01*
X192030558Y-54478958D01*
X191882599Y-54417671D01*
X191749445Y-54328701D01*
X191636199Y-54215455D01*
X191547229Y-54082301D01*
X191485942Y-53934342D01*
X191454700Y-53777275D01*
X191454700Y-53617125D01*
X191485942Y-53460058D01*
X191547229Y-53312099D01*
X191636199Y-53178945D01*
X191749445Y-53065699D01*
X191882599Y-52976729D01*
X192030558Y-52915442D01*
X192187625Y-52884200D01*
X192347775Y-52884200D01*
X192504842Y-52915442D01*
X192504842Y-52915442D01*
G37*
G36*
X165834842Y-52915442D02*
G01*
X165982801Y-52976729D01*
X166115955Y-53065699D01*
X166229201Y-53178945D01*
X166318171Y-53312099D01*
X166379458Y-53460058D01*
X166410700Y-53617125D01*
X166410700Y-53777275D01*
X166379458Y-53934342D01*
X166318171Y-54082301D01*
X166229201Y-54215455D01*
X166115955Y-54328701D01*
X165982801Y-54417671D01*
X165834842Y-54478958D01*
X165677775Y-54510200D01*
X165517625Y-54510200D01*
X165360558Y-54478958D01*
X165212599Y-54417671D01*
X165079445Y-54328701D01*
X164966199Y-54215455D01*
X164877229Y-54082301D01*
X164815942Y-53934342D01*
X164784700Y-53777275D01*
X164784700Y-53617125D01*
X164815942Y-53460058D01*
X164877229Y-53312099D01*
X164966199Y-53178945D01*
X165079445Y-53065699D01*
X165212599Y-52976729D01*
X165360558Y-52915442D01*
X165517625Y-52884200D01*
X165677775Y-52884200D01*
X165834842Y-52915442D01*
X165834842Y-52915442D01*
G37*
G36*
X139164842Y-52915442D02*
G01*
X139312801Y-52976729D01*
X139445955Y-53065699D01*
X139559201Y-53178945D01*
X139648171Y-53312099D01*
X139709458Y-53460058D01*
X139740700Y-53617125D01*
X139740700Y-53777275D01*
X139709458Y-53934342D01*
X139648171Y-54082301D01*
X139559201Y-54215455D01*
X139445955Y-54328701D01*
X139312801Y-54417671D01*
X139164842Y-54478958D01*
X139007775Y-54510200D01*
X138847625Y-54510200D01*
X138690558Y-54478958D01*
X138542599Y-54417671D01*
X138409445Y-54328701D01*
X138296199Y-54215455D01*
X138207229Y-54082301D01*
X138145942Y-53934342D01*
X138114700Y-53777275D01*
X138114700Y-53617125D01*
X138145942Y-53460058D01*
X138207229Y-53312099D01*
X138296199Y-53178945D01*
X138409445Y-53065699D01*
X138542599Y-52976729D01*
X138690558Y-52915442D01*
X138847625Y-52884200D01*
X139007775Y-52884200D01*
X139164842Y-52915442D01*
X139164842Y-52915442D01*
G37*
G36*
X120719642Y-52063042D02*
G01*
X120867601Y-52124329D01*
X121000755Y-52213299D01*
X121114001Y-52326545D01*
X121202971Y-52459699D01*
X121264258Y-52607658D01*
X121295500Y-52764725D01*
X121295500Y-52924875D01*
X121264258Y-53081942D01*
X121202971Y-53229901D01*
X121114001Y-53363055D01*
X121000755Y-53476301D01*
X120867601Y-53565271D01*
X120719642Y-53626558D01*
X120562575Y-53657800D01*
X120402425Y-53657800D01*
X120245358Y-53626558D01*
X120097399Y-53565271D01*
X119964245Y-53476301D01*
X119850999Y-53363055D01*
X119762029Y-53229901D01*
X119700742Y-53081942D01*
X119669500Y-52924875D01*
X119669500Y-52764725D01*
X119700742Y-52607658D01*
X119762029Y-52459699D01*
X119850999Y-52326545D01*
X119964245Y-52213299D01*
X120097399Y-52124329D01*
X120245358Y-52063042D01*
X120402425Y-52031800D01*
X120562575Y-52031800D01*
X120719642Y-52063042D01*
X120719642Y-52063042D01*
G37*
G36*
X94049642Y-52063042D02*
G01*
X94197601Y-52124329D01*
X94330755Y-52213299D01*
X94444001Y-52326545D01*
X94532971Y-52459699D01*
X94594258Y-52607658D01*
X94625500Y-52764725D01*
X94625500Y-52924875D01*
X94594258Y-53081942D01*
X94532971Y-53229901D01*
X94444001Y-53363055D01*
X94330755Y-53476301D01*
X94197601Y-53565271D01*
X94049642Y-53626558D01*
X93892575Y-53657800D01*
X93732425Y-53657800D01*
X93575358Y-53626558D01*
X93427399Y-53565271D01*
X93294245Y-53476301D01*
X93180999Y-53363055D01*
X93092029Y-53229901D01*
X93030742Y-53081942D01*
X92999500Y-52924875D01*
X92999500Y-52764725D01*
X93030742Y-52607658D01*
X93092029Y-52459699D01*
X93180999Y-52326545D01*
X93294245Y-52213299D01*
X93427399Y-52124329D01*
X93575358Y-52063042D01*
X93732425Y-52031800D01*
X93892575Y-52031800D01*
X94049642Y-52063042D01*
X94049642Y-52063042D01*
G37*
G36*
X174059642Y-52063042D02*
G01*
X174207601Y-52124329D01*
X174340755Y-52213299D01*
X174454001Y-52326545D01*
X174542971Y-52459699D01*
X174604258Y-52607658D01*
X174635500Y-52764725D01*
X174635500Y-52924875D01*
X174604258Y-53081942D01*
X174542971Y-53229901D01*
X174454001Y-53363055D01*
X174340755Y-53476301D01*
X174207601Y-53565271D01*
X174059642Y-53626558D01*
X173902575Y-53657800D01*
X173742425Y-53657800D01*
X173585358Y-53626558D01*
X173437399Y-53565271D01*
X173304245Y-53476301D01*
X173190999Y-53363055D01*
X173102029Y-53229901D01*
X173040742Y-53081942D01*
X173009500Y-52924875D01*
X173009500Y-52764725D01*
X173040742Y-52607658D01*
X173102029Y-52459699D01*
X173190999Y-52326545D01*
X173304245Y-52213299D01*
X173437399Y-52124329D01*
X173585358Y-52063042D01*
X173742425Y-52031800D01*
X173902575Y-52031800D01*
X174059642Y-52063042D01*
X174059642Y-52063042D01*
G37*
G36*
X147389642Y-52063042D02*
G01*
X147537601Y-52124329D01*
X147670755Y-52213299D01*
X147784001Y-52326545D01*
X147872971Y-52459699D01*
X147934258Y-52607658D01*
X147965500Y-52764725D01*
X147965500Y-52924875D01*
X147934258Y-53081942D01*
X147872971Y-53229901D01*
X147784001Y-53363055D01*
X147670755Y-53476301D01*
X147537601Y-53565271D01*
X147389642Y-53626558D01*
X147232575Y-53657800D01*
X147072425Y-53657800D01*
X146915358Y-53626558D01*
X146767399Y-53565271D01*
X146634245Y-53476301D01*
X146520999Y-53363055D01*
X146432029Y-53229901D01*
X146370742Y-53081942D01*
X146339500Y-52924875D01*
X146339500Y-52764725D01*
X146370742Y-52607658D01*
X146432029Y-52459699D01*
X146520999Y-52326545D01*
X146634245Y-52213299D01*
X146767399Y-52124329D01*
X146915358Y-52063042D01*
X147072425Y-52031800D01*
X147232575Y-52031800D01*
X147389642Y-52063042D01*
X147389642Y-52063042D01*
G37*
G36*
X189024202Y-46733781D02*
G01*
X189299606Y-46788562D01*
X189818455Y-47003476D01*
X190285407Y-47315484D01*
X190682516Y-47712593D01*
X190994524Y-48179545D01*
X191209438Y-48698394D01*
X191319000Y-49249201D01*
X191319000Y-49810799D01*
X191209438Y-50361606D01*
X190994524Y-50880455D01*
X190682516Y-51347407D01*
X190285407Y-51744516D01*
X189818455Y-52056524D01*
X189299606Y-52271438D01*
X188748800Y-52381000D01*
X188187200Y-52381000D01*
X187911798Y-52326219D01*
X187636394Y-52271438D01*
X187117545Y-52056524D01*
X186650593Y-51744516D01*
X186253484Y-51347407D01*
X185941476Y-50880455D01*
X185726562Y-50361606D01*
X185617000Y-49810799D01*
X185617000Y-49249201D01*
X185726562Y-48698394D01*
X185941476Y-48179545D01*
X186253484Y-47712593D01*
X186650593Y-47315484D01*
X187117545Y-47003476D01*
X187636394Y-46788562D01*
X187911798Y-46733781D01*
X188187200Y-46679000D01*
X188748800Y-46679000D01*
X189024202Y-46733781D01*
X189024202Y-46733781D01*
G37*
G36*
X97567506Y-46460902D02*
G01*
X98086355Y-46675816D01*
X98553307Y-46987824D01*
X98950416Y-47384933D01*
X99262424Y-47851885D01*
X99433545Y-48265009D01*
X99477338Y-48370735D01*
X99586900Y-48921540D01*
X99586900Y-49483140D01*
X99562771Y-49604443D01*
X99477338Y-50033946D01*
X99262424Y-50552795D01*
X98950416Y-51019747D01*
X98553307Y-51416856D01*
X98086355Y-51728864D01*
X97567506Y-51943778D01*
X97292102Y-51998559D01*
X97016700Y-52053340D01*
X96455100Y-52053340D01*
X96179698Y-51998559D01*
X95904294Y-51943778D01*
X95385445Y-51728864D01*
X94918493Y-51416856D01*
X94521384Y-51019747D01*
X94209376Y-50552795D01*
X93994462Y-50033946D01*
X93909029Y-49604443D01*
X93884900Y-49483140D01*
X93884900Y-48921540D01*
X93994462Y-48370735D01*
X94038255Y-48265009D01*
X94209376Y-47851885D01*
X94521384Y-47384933D01*
X94918493Y-46987824D01*
X95385445Y-46675816D01*
X95904294Y-46460902D01*
X96179698Y-46406121D01*
X96455100Y-46351340D01*
X97016700Y-46351340D01*
X97567506Y-46460902D01*
X97567506Y-46460902D01*
G37*
G36*
X162162442Y-47873518D02*
G01*
X162228627Y-47880037D01*
X162398466Y-47931557D01*
X162554991Y-48015222D01*
X162590729Y-48044552D01*
X162692186Y-48127814D01*
X162775448Y-48229271D01*
X162804778Y-48265009D01*
X162888443Y-48421534D01*
X162939963Y-48591373D01*
X162957359Y-48768000D01*
X162939963Y-48944627D01*
X162888443Y-49114466D01*
X162804778Y-49270991D01*
X162775448Y-49306729D01*
X162692186Y-49408186D01*
X162600854Y-49483139D01*
X162554991Y-49520778D01*
X162398466Y-49604443D01*
X162228627Y-49655963D01*
X162162442Y-49662482D01*
X162096260Y-49669000D01*
X162007740Y-49669000D01*
X161941558Y-49662482D01*
X161875373Y-49655963D01*
X161705534Y-49604443D01*
X161549009Y-49520778D01*
X161503146Y-49483139D01*
X161411814Y-49408186D01*
X161328552Y-49306729D01*
X161299222Y-49270991D01*
X161215557Y-49114466D01*
X161164037Y-48944627D01*
X161146641Y-48768000D01*
X161164037Y-48591373D01*
X161215557Y-48421534D01*
X161299222Y-48265009D01*
X161328552Y-48229271D01*
X161411814Y-48127814D01*
X161513271Y-48044552D01*
X161549009Y-48015222D01*
X161705534Y-47931557D01*
X161875373Y-47880037D01*
X161941558Y-47873518D01*
X162007740Y-47867000D01*
X162096260Y-47867000D01*
X162162442Y-47873518D01*
X162162442Y-47873518D01*
G37*
G36*
X159622442Y-47873518D02*
G01*
X159688627Y-47880037D01*
X159858466Y-47931557D01*
X160014991Y-48015222D01*
X160050729Y-48044552D01*
X160152186Y-48127814D01*
X160235448Y-48229271D01*
X160264778Y-48265009D01*
X160348443Y-48421534D01*
X160399963Y-48591373D01*
X160417359Y-48768000D01*
X160399963Y-48944627D01*
X160348443Y-49114466D01*
X160264778Y-49270991D01*
X160235448Y-49306729D01*
X160152186Y-49408186D01*
X160060854Y-49483139D01*
X160014991Y-49520778D01*
X159858466Y-49604443D01*
X159688627Y-49655963D01*
X159622442Y-49662482D01*
X159556260Y-49669000D01*
X159467740Y-49669000D01*
X159401558Y-49662482D01*
X159335373Y-49655963D01*
X159165534Y-49604443D01*
X159009009Y-49520778D01*
X158963146Y-49483139D01*
X158871814Y-49408186D01*
X158788552Y-49306729D01*
X158759222Y-49270991D01*
X158675557Y-49114466D01*
X158624037Y-48944627D01*
X158606641Y-48768000D01*
X158624037Y-48591373D01*
X158675557Y-48421534D01*
X158759222Y-48265009D01*
X158788552Y-48229271D01*
X158871814Y-48127814D01*
X158973271Y-48044552D01*
X159009009Y-48015222D01*
X159165534Y-47931557D01*
X159335373Y-47880037D01*
X159401558Y-47873518D01*
X159467740Y-47867000D01*
X159556260Y-47867000D01*
X159622442Y-47873518D01*
X159622442Y-47873518D01*
G37*
G36*
X157082442Y-47873518D02*
G01*
X157148627Y-47880037D01*
X157318466Y-47931557D01*
X157474991Y-48015222D01*
X157510729Y-48044552D01*
X157612186Y-48127814D01*
X157695448Y-48229271D01*
X157724778Y-48265009D01*
X157808443Y-48421534D01*
X157859963Y-48591373D01*
X157877359Y-48768000D01*
X157859963Y-48944627D01*
X157808443Y-49114466D01*
X157724778Y-49270991D01*
X157695448Y-49306729D01*
X157612186Y-49408186D01*
X157520854Y-49483139D01*
X157474991Y-49520778D01*
X157318466Y-49604443D01*
X157148627Y-49655963D01*
X157082442Y-49662482D01*
X157016260Y-49669000D01*
X156927740Y-49669000D01*
X156861558Y-49662482D01*
X156795373Y-49655963D01*
X156625534Y-49604443D01*
X156469009Y-49520778D01*
X156423146Y-49483139D01*
X156331814Y-49408186D01*
X156248552Y-49306729D01*
X156219222Y-49270991D01*
X156135557Y-49114466D01*
X156084037Y-48944627D01*
X156066641Y-48768000D01*
X156084037Y-48591373D01*
X156135557Y-48421534D01*
X156219222Y-48265009D01*
X156248552Y-48229271D01*
X156331814Y-48127814D01*
X156433271Y-48044552D01*
X156469009Y-48015222D01*
X156625534Y-47931557D01*
X156795373Y-47880037D01*
X156861558Y-47873518D01*
X156927740Y-47867000D01*
X157016260Y-47867000D01*
X157082442Y-47873518D01*
X157082442Y-47873518D01*
G37*
G36*
X154542442Y-47873518D02*
G01*
X154608627Y-47880037D01*
X154778466Y-47931557D01*
X154934991Y-48015222D01*
X154970729Y-48044552D01*
X155072186Y-48127814D01*
X155155448Y-48229271D01*
X155184778Y-48265009D01*
X155268443Y-48421534D01*
X155319963Y-48591373D01*
X155337359Y-48768000D01*
X155319963Y-48944627D01*
X155268443Y-49114466D01*
X155184778Y-49270991D01*
X155155448Y-49306729D01*
X155072186Y-49408186D01*
X154980854Y-49483139D01*
X154934991Y-49520778D01*
X154778466Y-49604443D01*
X154608627Y-49655963D01*
X154542442Y-49662482D01*
X154476260Y-49669000D01*
X154387740Y-49669000D01*
X154321558Y-49662482D01*
X154255373Y-49655963D01*
X154085534Y-49604443D01*
X153929009Y-49520778D01*
X153883146Y-49483139D01*
X153791814Y-49408186D01*
X153708552Y-49306729D01*
X153679222Y-49270991D01*
X153595557Y-49114466D01*
X153544037Y-48944627D01*
X153526641Y-48768000D01*
X153544037Y-48591373D01*
X153595557Y-48421534D01*
X153679222Y-48265009D01*
X153708552Y-48229271D01*
X153791814Y-48127814D01*
X153893271Y-48044552D01*
X153929009Y-48015222D01*
X154085534Y-47931557D01*
X154255373Y-47880037D01*
X154321558Y-47873518D01*
X154387740Y-47867000D01*
X154476260Y-47867000D01*
X154542442Y-47873518D01*
X154542442Y-47873518D01*
G37*
G36*
X152002442Y-47873518D02*
G01*
X152068627Y-47880037D01*
X152238466Y-47931557D01*
X152394991Y-48015222D01*
X152430729Y-48044552D01*
X152532186Y-48127814D01*
X152615448Y-48229271D01*
X152644778Y-48265009D01*
X152728443Y-48421534D01*
X152779963Y-48591373D01*
X152797359Y-48768000D01*
X152779963Y-48944627D01*
X152728443Y-49114466D01*
X152644778Y-49270991D01*
X152615448Y-49306729D01*
X152532186Y-49408186D01*
X152440854Y-49483139D01*
X152394991Y-49520778D01*
X152238466Y-49604443D01*
X152068627Y-49655963D01*
X152002442Y-49662482D01*
X151936260Y-49669000D01*
X151847740Y-49669000D01*
X151781558Y-49662482D01*
X151715373Y-49655963D01*
X151545534Y-49604443D01*
X151389009Y-49520778D01*
X151343146Y-49483139D01*
X151251814Y-49408186D01*
X151168552Y-49306729D01*
X151139222Y-49270991D01*
X151055557Y-49114466D01*
X151004037Y-48944627D01*
X150986641Y-48768000D01*
X151004037Y-48591373D01*
X151055557Y-48421534D01*
X151139222Y-48265009D01*
X151168552Y-48229271D01*
X151251814Y-48127814D01*
X151353271Y-48044552D01*
X151389009Y-48015222D01*
X151545534Y-47931557D01*
X151715373Y-47880037D01*
X151781558Y-47873518D01*
X151847740Y-47867000D01*
X151936260Y-47867000D01*
X152002442Y-47873518D01*
X152002442Y-47873518D01*
G37*
G36*
X149462442Y-47873518D02*
G01*
X149528627Y-47880037D01*
X149698466Y-47931557D01*
X149854991Y-48015222D01*
X149890729Y-48044552D01*
X149992186Y-48127814D01*
X150075448Y-48229271D01*
X150104778Y-48265009D01*
X150188443Y-48421534D01*
X150239963Y-48591373D01*
X150257359Y-48768000D01*
X150239963Y-48944627D01*
X150188443Y-49114466D01*
X150104778Y-49270991D01*
X150075448Y-49306729D01*
X149992186Y-49408186D01*
X149900854Y-49483139D01*
X149854991Y-49520778D01*
X149698466Y-49604443D01*
X149528627Y-49655963D01*
X149462442Y-49662482D01*
X149396260Y-49669000D01*
X149307740Y-49669000D01*
X149241558Y-49662482D01*
X149175373Y-49655963D01*
X149005534Y-49604443D01*
X148849009Y-49520778D01*
X148803146Y-49483139D01*
X148711814Y-49408186D01*
X148628552Y-49306729D01*
X148599222Y-49270991D01*
X148515557Y-49114466D01*
X148464037Y-48944627D01*
X148446641Y-48768000D01*
X148464037Y-48591373D01*
X148515557Y-48421534D01*
X148599222Y-48265009D01*
X148628552Y-48229271D01*
X148711814Y-48127814D01*
X148813271Y-48044552D01*
X148849009Y-48015222D01*
X149005534Y-47931557D01*
X149175373Y-47880037D01*
X149241558Y-47873518D01*
X149307740Y-47867000D01*
X149396260Y-47867000D01*
X149462442Y-47873518D01*
X149462442Y-47873518D01*
G37*
G36*
X146922442Y-47873518D02*
G01*
X146988627Y-47880037D01*
X147158466Y-47931557D01*
X147314991Y-48015222D01*
X147350729Y-48044552D01*
X147452186Y-48127814D01*
X147535448Y-48229271D01*
X147564778Y-48265009D01*
X147648443Y-48421534D01*
X147699963Y-48591373D01*
X147717359Y-48768000D01*
X147699963Y-48944627D01*
X147648443Y-49114466D01*
X147564778Y-49270991D01*
X147535448Y-49306729D01*
X147452186Y-49408186D01*
X147360854Y-49483139D01*
X147314991Y-49520778D01*
X147158466Y-49604443D01*
X146988627Y-49655963D01*
X146922442Y-49662482D01*
X146856260Y-49669000D01*
X146767740Y-49669000D01*
X146701558Y-49662482D01*
X146635373Y-49655963D01*
X146465534Y-49604443D01*
X146309009Y-49520778D01*
X146263146Y-49483139D01*
X146171814Y-49408186D01*
X146088552Y-49306729D01*
X146059222Y-49270991D01*
X145975557Y-49114466D01*
X145924037Y-48944627D01*
X145906641Y-48768000D01*
X145924037Y-48591373D01*
X145975557Y-48421534D01*
X146059222Y-48265009D01*
X146088552Y-48229271D01*
X146171814Y-48127814D01*
X146273271Y-48044552D01*
X146309009Y-48015222D01*
X146465534Y-47931557D01*
X146635373Y-47880037D01*
X146701558Y-47873518D01*
X146767740Y-47867000D01*
X146856260Y-47867000D01*
X146922442Y-47873518D01*
X146922442Y-47873518D01*
G37*
G36*
X165493000Y-49669000D02*
G01*
X163691000Y-49669000D01*
X163691000Y-47867000D01*
X165493000Y-47867000D01*
X165493000Y-49669000D01*
X165493000Y-49669000D01*
G37*
M02*
